<svg xmlns="http://www.w3.org/2000/svg" viewBox="0 0 272.64 226.13"><defs><style>.cls-1{fill:#50555b;}.cls-2{fill:#fff;}</style></defs><g id="Layer_2" data-name="Layer 2"><g id="Artwork:Notebook"><path class="cls-1" d="M80.13,149.14a.3.3,0,0,1,.11-.41l0,0,.13-.1a6.33,6.33,0,0,0,.44-.46l.53-.57c.37-.38.74-.75,1.09-1.14h0c.14-.16.27-.32.4-.49l.42-.59c.09-.14.18-.28.26-.43s.19-.32.27-.48c.17-.31.32-.63.48-.95h0v0h0c.26-.55.51-1.11.74-1.68s.44-1.16.64-1.75.28-1,.41-1.46.24-1,.34-1.46c.16-.92.29-1.85.4-2.78,0-.5.11-1,.16-1.51s.07-.94.09-1.41,0-.7,0-1,0-.43,0-.64,0-.35,0-.53,0-.29,0-.43,0-.28-.07-.42-.1-.56-.16-.83v0h0l0-.12s0-.06,0-.09l0-.13v0c-.18-.73-.37-1.45-.56-2.17s-.45-1.5-.72-2.24h0l-.17-.45,0,0c-.19-.5-.38-1-.59-1.49-.11-.26-.22-.53-.35-.79s-.24-.49-.36-.73-.27-.48-.41-.72-.27-.47-.42-.7-.3-.5-.46-.75l-.47-.71c-.15-.2-.29-.41-.44-.6l-.57-.73c-.31-.38-.63-.75-1-1.12s-.8-.82-1.21-1.21l-1.25-1.23c-.4-.4-.8-.8-1.21-1.19s-.85-.78-1.29-1.16l-.19-.17h0c-.43-.37-.87-.72-1.31-1.07l-1.35-1-.72-.56c-.22-.17-.44-.33-.67-.48-.48-.34-1-.65-1.45-1l-1.54-1h0L66.59,103c-.5-.3-1-.62-1.5-.91s-1-.56-1.51-.84-1-.58-1.52-.85-.85-.45-1.28-.66l-1.24-.64,0,0c-.58-.28-1.18-.52-1.77-.77L56.89,98,56,97.64c-.53-.17-1.07-.31-1.61-.45s-1.09-.29-1.64-.42l-1.64-.4-.81-.2L49.49,96h0c-.53-.09-1.06-.19-1.59-.26s-1.1-.14-1.65-.25-1.09-.25-1.63-.38c-.27-.07-.54-.14-.81-.23l-.36-.13-.4-.17-.25-.14-.26-.17-.22-.17-.24-.21a3.31,3.31,0,0,1-.26-.27,17.81,17.81,0,0,0-.67,1.71c-.19.59-.34,1.18-.5,1.78l.1.07h0l0,0,0,0c.22.1.45.18.68.26l.69.25c.94.3,1.92.47,2.88.7.5.12,1,.24,1.51.38a12.29,12.29,0,0,1,1.53.48c.48.18,1,.42,1.42.63l1.49.65c.95.42,1.9.82,2.85,1.25.52.23,1,.45,1.56.66l1.47.59c1,.4,2,.85,2.92,1.3l.92.43h0l0,0h0L61,105h0q.71.33,1.41.69l.73.39.66.4c.91.57,1.8,1.18,2.68,1.78.7.49,1.39,1,2.08,1.52l1,.78c.34.26.68.53,1,.81h0c.41.34.8.69,1.2,1s.79.68,1.16,1l1.11,1.13.54.58.22.24.08.09c.71.8,1.42,1.6,2.12,2.42.37.42.74.85,1.09,1.29a15.57,15.57,0,0,1,1,1.3l.49.75c.15.23.28.46.42.7a3.24,3.24,0,0,1,.17.32c.06.11.13.23.18.34s.26.5.38.75c.25.51.5,1,.74,1.54.12.25.22.49.32.74l.16.4c.06.15.11.3.16.44.18.51.32,1,.45,1.55.07.25.13.5.18.76s0,.26.07.38,0,.33.07.49A15.19,15.19,0,0,1,83,133c0,.54-.09,1.07-.15,1.61s-.11,1.06-.19,1.58-.16,1.12-.29,1.66-.27,1.11-.44,1.66-.44,1.35-.68,2a16.91,16.91,0,0,1-.8,2l0,0a.36.36,0,0,0,0,.09h0v0h0l0,.09h0a1,1,0,0,1-.07.15h0a8.06,8.06,0,0,1-.39.71l-.22.33-.23.33-.25.31c-.09.12-.18.23-.28.34l-.47.58c-.34.41-.67.83-1,1.21a14.41,14.41,0,0,1-1.16,1.06l-.4.3a.31.31,0,0,1-.19.06.27.27,0,0,1-.23-.11.29.29,0,0,1,0-.42c.32-.24.63-.5.93-.77s.37-.34.54-.52.34-.36.5-.54l1-1.2c.18-.21.36-.43.53-.65s.28-.4.42-.6.26-.44.37-.67h0l0-.06.07-.15,0,0,.08-.15h0v0h0l.2-.45c.07-.15.13-.31.19-.46s.23-.59.33-.89c.22-.64.43-1.27.64-1.9.13-.41.25-.81.35-1.22s.2-.84.28-1.27.14-.77.18-1.16.11-.86.16-1.3q.14-1.28.21-2.55v0c0-.17,0-.34,0-.51s0-.33,0-.5,0-.32,0-.49,0-.3,0-.45-.07-.49-.1-.73l-.12-.69-.15-.62c-.06-.23-.12-.45-.19-.68-.11-.41-.25-.8-.39-1.2s-.23-.56-.35-.84-.25-.57-.39-.85c-.28-.59-.57-1.16-.86-1.74l-.29-.55c-.13-.21-.25-.42-.38-.62-.22-.37-.46-.72-.7-1.07s-.3-.43-.46-.63-.36-.47-.55-.69-.37-.44-.56-.66l-.54-.64c-.34-.39-.68-.78-1-1.16l-.52-.6c-.09-.1-.18-.19-.26-.29a.6.6,0,0,1-.08-.08h0l0,0h0l0,0v0c-.31-.34-.62-.68-.94-1s-.67-.69-1-1-.7-.63-1-.94l-1.08-.93h0l-.11-.09,0,0c-.8-.68-1.65-1.29-2.48-1.92s-1.69-1.22-2.55-1.8c-.38-.27-.77-.52-1.16-.78s-1-.64-1.56-.93-1.13-.58-1.7-.86l0,0-.36-.17,0,0,0,0h0c-.94-.45-1.9-.89-2.85-1.32-.49-.22-1-.42-1.47-.62s-1-.39-1.52-.6l-1.51-.66-1.41-.62-1.48-.64c-.49-.21-1-.42-1.45-.65a14,14,0,0,0-1.39-.57c-1-.3-2-.54-2.93-.77a22.65,22.65,0,0,1-2.94-.76l-.67-.26a2.13,2.13,0,0,1-.35-.14l0,0c-.17.68-.32,1.36-.44,2.05-.09.51-.16,1-.23,1.54s-.16,1.12-.19,1.69v0a12.68,12.68,0,0,0,0,1.51,19,19,0,0,0,.32,2v0a7.3,7.3,0,0,0,.27.91,8.26,8.26,0,0,0,.4.92A7,7,0,0,0,41,109q.16.24.36.48c.11.14.23.27.36.41a10.83,10.83,0,0,0,.91.88l0,0c.13.11.25.22.39.32l.45.31c.43.26.86.52,1.3.76s.9.48,1.36.69a13.82,13.82,0,0,0,1.75.69c.87.28,1.74.53,2.61.79l2.63.79,1.3.37,1.39.37c.9.23,1.79.47,2.69.69.47.11.95.23,1.42.36s.91.26,1.36.43A24.34,24.34,0,0,1,64,118.46c.87.45,1.72.93,2.56,1.43S68.19,121,69,121.54s1.49,1.17,2.2,1.79c.35.31.69.64,1,1s.62.66.92,1,.62.75.92,1.13.56.74.82,1.12.51.78.73,1.19c.11.21.22.42.32.63s.19.42.28.64.16.42.23.64.07.24.11.37.06.27.1.41.07.38.1.56.07.53.1.8c0,.44.06.88.07,1.32s0,.89,0,1.33c0,1-.13,1.95-.25,2.91-.06.48-.16,1-.26,1.42s-.22.91-.35,1.36-.2.67-.31,1-.23.66-.36,1-.26.65-.4,1-.26.56-.41.84-.19.34-.29.51-.16.27-.25.4-.38.52-.59.77-.45.49-.69.72l-.73.72a.31.31,0,0,1-.22.09.29.29,0,0,1-.21-.09.31.31,0,0,1,0-.43l.74-.71c.24-.23.47-.48.69-.73l.28-.36c.09-.11.17-.23.25-.35a2.13,2.13,0,0,0,.16-.25,3,3,0,0,0,.18-.3c.12-.21.23-.43.35-.66q.27-.57.51-1.17l.27-.71c.08-.22.15-.44.23-.67s.15-.49.22-.74.14-.49.21-.74c.13-.47.22-1,.31-1.43,0-.15,0-.29.07-.44s0-.28,0-.43.06-.53.08-.8c.06-.58.1-1.17.13-1.75,0-.43,0-.85,0-1.27,0-.2,0-.4,0-.61s0-.41,0-.62,0-.43-.08-.65-.07-.43-.11-.64-.08-.36-.13-.54-.13-.41-.2-.61-.14-.37-.22-.55-.17-.36-.26-.54-.3-.56-.46-.83-.41-.63-.63-1h0c-.3-.41-.6-.8-.91-1.19s-.64-.78-1-1.15-.56-.6-.85-.88l-1-.88-.84-.7-.89-.69c-.63-.48-1.29-.93-1.95-1.37l0,0-.92-.57c-.29-.18-.6-.34-.9-.51s-.67-.37-1-.55-.7-.36-1.06-.53l-.56-.25-.54-.23c-.36-.15-.74-.28-1.11-.41s-.93-.29-1.41-.41-.93-.23-1.39-.35c-.9-.22-1.79-.46-2.69-.69-1.76-.44-3.49-1-5.23-1.52-.91-.27-1.82-.53-2.72-.83l-.57-.22-.62-.26c-.38-.18-.76-.36-1.13-.56s-.68-.36-1-.56-.74-.45-1.1-.69a8.31,8.31,0,0,1-1-.8q-.48-.46-.9-1a7.18,7.18,0,0,1-.77-1.12,7.81,7.81,0,0,1-.54-1.18,11.62,11.62,0,0,1-.57-2.6,8.76,8.76,0,0,1-.09-1.25,10.7,10.7,0,0,1,.06-1.27c.05-.43.1-.87.16-1.3s.11-.85.19-1.27c.15-.91.36-1.81.59-2.7.11-.44.23-.87.35-1.31s.28-.92.45-1.38.33-.83.52-1.25c0-.09.09-.19.13-.29a.32.32,0,0,1,.1-.18c.12-.24.26-.49.39-.73l.32-.58.38-.64.21-.33.21-.29c.14-.2.3-.39.45-.58a13,13,0,0,1,.93-1c.34-.34.7-.67,1.07-1q.3-.25.6-.48c.17-.15.36-.28.54-.41l.29-.2.23-.16.69-.44c.4-.25.82-.48,1.23-.71l1.29-.7,1.19-.64.6-.32c.21-.11.42-.23.64-.33.41-.19.82-.36,1.24-.54s.83-.33,1.25-.48l1.31-.43c.45-.14.9-.26,1.35-.39s.87-.2,1.3-.3.92-.19,1.38-.27c.9-.15,1.82-.22,2.74-.28s1.86,0,2.79,0q.64,0,1.29.06c.44,0,.89.05,1.33.1l2.68.33,2.77.34c1.49.18,3,.35,4.46.59s2.85.56,4.29.82l2.61.45,2.72.51c.86.16,1.72.34,2.57.52s1.76.38,2.65.55c1.07.22,2.15.41,3.23.64l1.69.37,1.56.34c.61.09,1.22.16,1.84.23s1.23.15,1.85.21,1.27.12,1.91.17,1.27.11,1.92.14,1,0,1.56,0h1.54c1.07,0,2.14-.1,3.21-.2.52-.05,1-.11,1.56-.19s1.14-.17,1.71-.28c1.05-.19,2.09-.42,3.14-.65h0l.66-.15c.24-.07.48-.14.71-.23l0,0q.83-.3,1.62-.66c.54-.23,1.06-.5,1.58-.77a15.81,15.81,0,0,0,1.41-.88c.2-.14.4-.28.59-.44a5.37,5.37,0,0,0,.51-.44l0,0,.65-.6.64-.61.63-.63c.24-.23.47-.46.69-.7l.06-.07a1.71,1.71,0,0,1,.11-.14l.13-.18.41-.61.16-.29.06-.1c-.38-.44-.77-.87-1.14-1.32a16,16,0,0,1-1.15-1.59c-.18-.28-.36-.55-.53-.83s-.33-.54-.49-.81-.33-.57-.48-.86-.3-.6-.44-.9c-.25-.54-.5-1.07-.74-1.61-.1-.22-.19-.45-.28-.68l-.1.1-.28.23-.9.72-1,.82-.51.43c-.17.15-.35.29-.52.42-.34.26-.68.5-1,.73s-.72.46-1.1.67c-.75.4-1.5.8-2.27,1.16s-1.55.66-2.32,1c-.42.17-.83.35-1.26.5a5.94,5.94,0,0,1-.6.18c-.21.07-.43.12-.65.17s-.44.1-.66.13-.48.07-.71.09c-.45.06-.9.07-1.35.09l-1.35,0c-.47,0-.93,0-1.4,0-1,0-2,0-3,0s-1.91,0-2.87,0c-.44,0-.88,0-1.32,0L99,76.91c-.91-.08-1.82-.18-2.73-.29-.5-.06-1-.12-1.51-.2s-1.07-.18-1.6-.28l-1.42-.22-1.6-.27c-.94-.15-1.9-.27-2.83-.49-.48-.11-1-.24-1.41-.37l-1.53-.44-2.83-.8-1.28-.38-1.18-.37L76.65,72h0l-1.94-.64c-.68-.24-1.34-.5-2-.72l-1.14-.37q-.67-.23-1.35-.48L69,69.31l-1.37-.57c-.8-.32-1.58-.66-2.39-1l-1.4-.52c-.41-.15-.83-.28-1.24-.42h0l-.45-.13a4.42,4.42,0,0,0-.52-.14c-.16,0-.33-.08-.5-.12l-.41-.09c-.62-.14-1.25-.26-1.88-.38-.95-.16-1.91-.3-2.87-.43l-1.57-.22-.72-.08-.81-.06h0c-.42,0-.84,0-1.26,0l-1.36.07c-.33,0-.66.07-1,.12l-1,.2h0c-.62.15-1.25.3-1.87.49l-.92.28-1,.36c-.69.26-1.37.53-2,.84-.36.19-.73.39-1.08.61s-.75.49-1.12.75c-.67.46-1.32.94-2,1.43s-1.26,1-1.86,1.57h0l0,0h0c-.19.17-.39.35-.58.54s-.39.39-.59.59c-.37.38-.73.78-1.08,1.18l0,0c-.5.61-1,1.24-1.41,1.89l-.53.84c-.19.33-.36.68-.53,1l0,0c-.15.34-.3.69-.43,1v0c-.06.17-.11.34-.15.5a4.82,4.82,0,0,0-.11.52c0,.3-.09.6-.13.9s-.05.34-.07.52,0,.33,0,.5v.29c0,.12,0,.24,0,.35s0,.33,0,.5.05.34.08.51c.05.33.12.65.19,1v0c.05.2.09.4.15.59a5.62,5.62,0,0,0,.19.58c.07.19.15.37.23.54a7.15,7.15,0,0,0,.5.84,17.37,17.37,0,0,0,1.16,1.41h0v0h0c.15.16.3.31.46.46a14.43,14.43,0,0,0,1.2.9c.46.29.93.57,1.4.83l.76.43.7.39.72.4.38.2a1.69,1.69,0,0,1,.36.23.34.34,0,0,1,.09.19l.36-.62c.24-.41.49-.82.74-1.23s.64-1,1-1.55l-.18,0h0a1.17,1.17,0,0,1-.45-.09,5.48,5.48,0,0,1-.85-.4c-.26-.13-.52-.27-.76-.42l-.18-.12H39A.82.82,0,0,1,38.7,88a2.21,2.21,0,0,1-.59-.59,4.07,4.07,0,0,1-.31-.53,1.92,1.92,0,0,1-.15-.37c0-.11-.07-.22-.1-.32A4.6,4.6,0,0,1,37.37,85q0-.33,0-.66c0-.23,0-.46,0-.7s0-.38.07-.57.09-.46.15-.68.12-.38.18-.57.15-.4.23-.59c.19-.44.41-.85.64-1.27s.44-.76.67-1.13l.32-.49c.13-.2.27-.39.42-.58.26-.34.56-.65.85-1s.59-.61.9-.9l1.06-1,.49-.41c.16-.13.32-.24.49-.36l.34-.23.22-.14.65-.38.61-.34.34-.17a6.45,6.45,0,0,1,.83-.32l.71-.21.69-.18.57-.16.77-.18.65-.12.77-.13c.46-.08.93-.14,1.4-.21s.87-.1,1.31-.14l.71,0,.72,0c.92,0,1.85-.06,2.77-.08h1.38c.19,0,.38,0,.58,0l.75,0c.46,0,.92.06,1.38.1s.91.09,1.36.15.86.13,1.29.22l.62.14c.21,0,.42.1.63.15l1.29.38c.48.14,1,.26,1.46.39L70,73l1.33.39,2.66.8c.83.25,1.66.5,2.49.77l2.65.89c.44.13.88.27,1.33.39l1.28.35c.85.22,1.7.47,2.57.67,1.74.38,3.48.76,5.21,1.16.82.19,1.64.41,2.46.56s1.77.29,2.65.41,1.8.23,2.7.33c.47,0,.94.07,1.41.09h.37l.49,0c.62,0,1.24.06,1.86,0s1.38,0,2.06-.08,1.31-.08,2-.14l1.23-.13,1.15-.17,1.11-.16,1.24-.17c.81-.12,1.61-.26,2.42-.39l1.22-.19,1.23-.25h0a26.37,26.37,0,0,0,2.85-.82c.27-.1.54-.21.8-.33l.87-.41,1.52-.83.76-.42c.26-.15.52-.31.77-.48l.51-.37c.2-.15.4-.31.59-.48a20.72,20.72,0,0,0,1.67-1.71c.07-.07.13-.15.2-.23a.3.3,0,0,1,.42-.07.31.31,0,0,1,.06.43c-.24.31-.51.6-.78.89s-.59.62-.91.91l-.5.45-.51.39a12.66,12.66,0,0,1-1.08.72c-.38.22-.76.42-1.14.62l-1.1.62c-.4.21-.81.4-1.22.58s-.8.32-1.2.46-.83.26-1.25.37-.83.22-1.26.32l-1.35.26-1.43.23-1.25.21-1.37.2c-.87.11-1.73.25-2.6.37-.48.07-1,.12-1.44.17l-1.31.1-1.38.08q-.67,0-1.35.06c-.87,0-1.73,0-2.6-.07h-.21c-.44,0-.88,0-1.32-.07s-.89-.09-1.33-.15c-.91-.11-1.81-.22-2.71-.36s-1.73-.26-2.58-.46l-2.62-.62-2.56-.56c-.86-.19-1.73-.37-2.58-.6l-2.68-.72c-.89-.24-1.77-.53-2.65-.83s-1.46-.49-2.2-.72L73,74.51l-2.68-.79-1.44-.4L67.46,73q-.66-.18-1.32-.39c-.41-.12-.82-.22-1.24-.31-.23-.06-.46-.1-.69-.15-.65-.1-1.3-.19-2-.26s-1.29-.11-1.94-.15H58.59l-1.81,0-1.75,0-1,0-.88.07-.9.11-1.09.16c-.64.1-1.27.22-1.9.36l-1.16.31c-.5.13-1,.27-1.49.44l-.49.22-.45.24-.54.3-.62.38-.23.16-.27.18-.34.26-.38.33-.83.73-.51.48-.41.41c-.29.29-.56.59-.82.9-.12.14-.24.29-.35.44a3.28,3.28,0,0,0-.27.38,23.35,23.35,0,0,0-1.47,2.57c-.14.32-.26.65-.38,1,0,.11-.07.22-.1.34s-.07.28-.1.42v0a2.56,2.56,0,0,1,0,.27l0,.34c0,.22,0,.44-.05.66s0,.65,0,1a4.34,4.34,0,0,0,.08.52c.06.25.13.48.21.72l.12.25,0,0h0a.31.31,0,0,1,.2.11l0,.06h0l0,0h0c.16.18.32.35.49.52l.27.19h0a6.32,6.32,0,0,0,.56.33l.63.33c.12,0,.24.11.37.15l.15,0h0a.29.29,0,0,1,.2-.09.31.31,0,0,1,.31.27l.27-.43c.51-.78,1.07-1.52,1.65-2.24l.93-1.14.39-.48.12-.14,0,0,.1-.11.06-.08.29-.32c.3-.34.63-.67,1-1,.16-.16.33-.3.5-.45l.6-.5.3-.22.21-.15c.22-.15.44-.31.67-.44l.33-.2.34-.19.71-.36.65-.31.72-.32,1.31-.52c.43-.17.87-.32,1.31-.46l.71-.21.78-.2c.22-.06.45-.1.68-.15s.46-.09.68-.13l.41-.06.29,0,.86-.09A12.39,12.39,0,0,1,60,77.65c.5,0,1,0,1.49,0,1,0,1.93.18,2.89.31s2,.29,3,.47l2.85.48c.92.15,1.83.29,2.74.46.5.09,1,.18,1.49.29l1.33.29c1,.2,1.9.37,2.86.55l.59.11c1.18.2,2.37.37,3.56.53.57.07,1.15.15,1.72.24l1.77.31,1.19.2,1.34.21c.86.13,1.72.31,2.57.47h0c1.74.3,3.49.5,5.24.7.87.1,1.74.18,2.61.25l1.42.11,1.21.06c1.25,0,2.49.07,3.74.1.32,0,.64,0,1,0l1,0,2-.14c.78-.08,1.56-.17,2.33-.27l1.12-.15c.38-.06.74-.14,1.11-.22h0c1.12-.26,2.25-.5,3.36-.81l1.64-.46c.52-.15,1-.32,1.55-.5h0l.84-.31c.3-.12.58-.25.86-.39l.77-.45c.23-.14.45-.29.66-.44l0,0a17.22,17.22,0,0,0,1.72-1.34,8.29,8.29,0,0,0,.77-.8c.21-.24.4-.5.59-.75l.57-.73c.16-.19.31-.39.48-.57a2.75,2.75,0,0,1,.26-.22.29.29,0,0,1,.27-.13.3.3,0,0,1,.27.34.33.33,0,0,1-.11.21l-.17.15-.17.17c-.23.27-.45.54-.67.82s-.5.68-.77,1a8.71,8.71,0,0,1-.94,1c-.32.29-.67.56-1,.82a16.7,16.7,0,0,1-2.18,1.43,9.93,9.93,0,0,1-1.2.53c-.41.15-.83.31-1.25.45-.83.28-1.69.5-2.54.73s-1.77.45-2.65.65c-.44.1-.87.21-1.31.3l-.69.12L112,84c-1,.13-1.94.23-2.91.31l-1.43.1c-.47,0-.94.06-1.41.07s-.91,0-1.36,0l-1.41,0c-.92,0-1.83,0-2.74-.1s-2-.14-2.92-.23q-1.06-.1-2.13-.24c-.76-.08-1.52-.17-2.27-.28s-1.37-.18-2-.3S90,83,89.3,82.84h0c-.61-.11-1.23-.2-1.84-.29l-1.78-.31h0c-.44-.08-.89-.17-1.34-.23l-1.47-.21-1.4-.19c-.46-.06-.93-.13-1.39-.21l-1.4-.23-1.45-.28c-.45-.08-.91-.16-1.36-.26l-1.51-.33c-.61-.13-1.22-.25-1.84-.36l-2.86-.46-2.9-.5c-1-.17-1.91-.31-2.87-.44-.48-.06-.95-.13-1.43-.17-.23,0-.47,0-.71-.06l-.83,0h-.09l-.55,0h-.54l-.53,0a4.9,4.9,0,0,0-.54,0l-.52.05c-.17,0-.34,0-.5.06a5.21,5.21,0,0,0-.55.08l-.58.11h0c-.48.11-1,.21-1.43.34l-.37.1-.42.13-.64.22c-.6.22-1.21.44-1.81.7l-.53.23-.45.2L50,81l-.4.22-.37.21-.31.19-.43.29c-.19.14-.38.28-.56.43s-.45.37-.66.56-.22.19-.33.3-.3.29-.45.45-.49.52-.73.79l-.11.13h0l-.06.06-.08.1-.12.14-.31.38c-.44.54-.89,1.07-1.31,1.62S43,88,42.6,88.51s-.61,1-.91,1.45-.63,1-.94,1.51c-.61,1-1.19,2-1.71,3.11l-.19.41c-.07.14-.12.29-.18.43s-.21.52-.3.78c-.22.61-.44,1.22-.64,1.83h0c-.16.54-.32,1.07-.47,1.62s-.27,1.1-.38,1.65v0c-.09.49-.16,1-.23,1.48s-.14,1-.18,1.58c0,.28,0,.55,0,.82a6.63,6.63,0,0,0,0,.89h0a21,21,0,0,0,.44,2.73,15.39,15.39,0,0,0,.51,1.76v0a7.52,7.52,0,0,0,.4.92c.19.36.39.71.61,1.05h0s0,0,0,0l.09.14h0a1.63,1.63,0,0,0,.11.17l.31.39,0,0a13.76,13.76,0,0,0,1.1,1.06l0,0,.36.3c.13.11.26.2.4.3s.52.37.79.54h0l0,0h0l.63.38c.23.14.48.27.73.39l0,0,1,.45c.33.15.68.29,1,.43.64.26,1.29.5,1.94.72h0c.47.14.93.28,1.4.4s.87.22,1.3.33l1.24.28,1.35.34c.49.12,1,.25,1.46.39s.89.29,1.33.45.89.36,1.32.56l1.31.62,1.69.83,0,0,.51.24h0c.86.41,1.7.84,2.54,1.29.42.23.84.47,1.25.72s.83.53,1.24.81l1.15.81c.4.29.78.59,1.15.9s.73.61,1.09.92l.47.41.52.52a17.4,17.4,0,0,1,1.79,2.13l.39.59c.14.22.27.45.4.68s.18.37.27.56.19.43.27.64a22.34,22.34,0,0,1,.87,2.74l.15.63c0,.22.07.44.1.66s0,.45,0,.67,0,.48,0,.73,0,.41,0,.62-.06.49-.1.73c-.1.48-.23.95-.38,1.43-.27.88-.59,1.75-.92,2.61a15.07,15.07,0,0,1-1.19,2.46,11.09,11.09,0,0,1-.65,1,7,7,0,0,1-.51.58l-.24.22a.26.26,0,0,1-.18.07.3.3,0,0,1-.25-.12.31.31,0,0,1,0-.42l.08-.07h0a5.4,5.4,0,0,0,.41-.42h0a8,8,0,0,0,.48-.66c.18-.27.34-.55.5-.83s.34-.62.5-.94.25-.56.36-.85.23-.59.34-.88c.22-.6.42-1.2.62-1.81.09-.28.17-.55.25-.84s.12-.53.17-.79a3,3,0,0,0,.06-.43c0-.16,0-.33,0-.5s0-.45,0-.67,0-.52,0-.79c0-.1,0-.21,0-.32s0-.29-.08-.43c-.1-.41-.2-.81-.31-1.2s-.27-.87-.41-1.3-.23-.6-.35-.89-.13-.29-.19-.44-.13-.27-.2-.4a3.72,3.72,0,0,0-.19-.34c-.06-.12-.14-.24-.21-.36s-.3-.45-.45-.68l-.48-.63-.57-.66,0,0c-.14-.15-.27-.3-.41-.44l-.51-.53-.49-.45-.51-.44h0l0,0h0c-.56-.47-1.12-1-1.72-1.38s-1.28-.91-1.94-1.35l-.44-.28-.62-.37c-.34-.2-.68-.38-1-.56l-.88-.46a9.71,9.71,0,0,1,.49,1,18.69,18.69,0,0,1,.64,1.77l.24.86c.09.31.17.62.25.93s.16.63.23.94.12.67.17,1,.05.49.07.73h0l0,.22v0a17.67,17.67,0,0,1,.1,2.41h0q0,.78-.12,1.56c0,.23-.06.46-.1.69s-.07.51-.12.76h0v0a.08.08,0,0,0,0,0h0v.07s0,.07,0,.1a.08.08,0,0,0,0,0v.05h0c-.12.64-.25,1.27-.43,1.9s-.37,1.27-.56,1.91l-.18.55h0s0,.08,0,.12v0l-.09.27,0,.09v0c-.2.63-.43,1.25-.66,1.87s-.52,1.18-.82,1.76-.58,1.1-.9,1.63a6.93,6.93,0,0,1-.54.76,2.42,2.42,0,0,1-.31.33.5.5,0,0,1-.31.12h0a.3.3,0,0,1-.06-.58h0l.15-.16c.15-.18.29-.37.42-.56.27-.41.5-.83.73-1.26s.46-.88.69-1.34.38-.88.55-1.33.34-.94.5-1.41h0l0-.08h0l.09-.26v0l0-.08h0c.19-.61.38-1.22.55-1.83.1-.32.19-.63.27-.95s.15-.64.22-1,.07-.37.1-.55v0a0,0,0,0,1,0,0h0v-.08s0-.06,0-.09,0,0,0-.05v0h0c.08-.43.14-.87.2-1.3,0-.21,0-.42.06-.63s0-.42,0-.64v0c0-.13,0-.26,0-.39v0c0-.39,0-.77,0-1.16s0-.74-.07-1.1h0a.66.66,0,0,1,0-.14v0c0-.06,0-.12,0-.17v0c0-.3-.06-.6-.1-.9a8.79,8.79,0,0,0-.15-.87v0c-.14-.64-.31-1.26-.49-1.88-.08-.29-.15-.58-.24-.86s-.19-.59-.3-.88l0-.1c-.18-.47-.37-.93-.59-1.37-.13-.25-.27-.48-.42-.71l-.09-.12a.25.25,0,0,1-.06-.2l-.3-.14h0l0,0h0l-.5-.24,0,0-2.55-1.24c-.43-.2-.85-.39-1.28-.57l-.34-.14c.06.19.11.38.16.57.12.45.23.89.33,1.34a.64.64,0,0,0,0,.07v0h0c.07.3.11.61.15.91s.08.67.09,1c0,.64,0,1.29,0,1.93s0,1.35-.06,2c0,.33,0,.65-.06,1,0,.17,0,.34,0,.52s-.05.34-.07.51-.07.34-.1.51-.07.32-.11.48-.14.6-.22.89c-.17.65-.36,1.29-.55,1.93-.11.39-.23.77-.36,1.15h0A37.26,37.26,0,0,1,52.67,139c-.14.32-.29.64-.43.95l-.39.87c-.29.6-.61,1.19-.93,1.78l-.4.66-.41.67c-.28.45-.56.89-.85,1.33h0l-.06.1v0l0,0c-.19.28-.4.56-.6.84s-.41.52-.63.77l-.08.09h0s0,0,0,0l0,0,0,.05-.45.48a.31.31,0,0,1-.22.09.3.3,0,0,1-.21-.51l.42-.46.06-.06.08-.11,0,0,.09-.1h0c.2-.24.4-.48.58-.73s.39-.52.57-.78h0l0,0h0v0h0l0-.07h0l0,0h0c.35-.53.68-1.06,1-1.6l.51-.84c.17-.29.33-.59.49-.89l.43-.84c.27-.57.53-1.15.79-1.72s.54-1.26.8-1.9.39-1,.57-1.57c.05-.14.09-.28.14-.42v0c.2-.61.39-1.23.56-1.85s.38-1.31.54-2q.12-.49.21-1c0-.28.08-.55.1-.83s.05-.62.07-.93v0c0-.65.06-1.3.07-1.94s0-1.36,0-2c0-.21,0-.43,0-.64l-.09-.71c0-.23-.06-.47-.11-.7h0l0-.07h0v0h0l-.27-1.12c-.09-.35-.18-.69-.3-1h0v0l0-.1,0,0v0h0l0-.06-.17-.06,0,0c-.44-.14-.89-.28-1.34-.4l-1.39-.35c-.59-.15-1.18-.28-1.78-.42.07.11.14.22.2.33l.23.45a7.7,7.7,0,0,1,.66,1.87c.06.31.11.63.14.94l.09,1.06c0,.33.05.66.07,1l0,.52c0,.15,0,.3,0,.45v1c0,.34,0,.69,0,1s0,.66-.07,1l-.06.48c0,.16,0,.31-.07.46-.11.68-.25,1.35-.41,2s-.33,1.27-.5,1.91-.34,1.14-.53,1.7h0l0,.1,0,.1h0a.88.88,0,0,1,0,.15l0,.07v0c-.21.65-.44,1.28-.68,1.92-.11.29-.22.57-.34.86s-.28.62-.43.93c-.28.59-.56,1.17-.86,1.74s-.64,1.16-1,1.73-.73,1.15-1.1,1.71-.7,1.05-1.1,1.54c-.15.18-.3.35-.46.52l-.25.25-.34.29a.31.31,0,0,1-.18.07.33.33,0,0,1-.25-.12.32.32,0,0,1,0-.43l.2-.16a6.75,6.75,0,0,0,.64-.67c.25-.3.48-.6.7-.92s.44-.64.66-1l0,0c.36-.56.72-1.11,1-1.68.17-.27.33-.55.48-.83s.32-.57.46-.85.37-.72.54-1.08.27-.55.4-.83.27-.61.39-.93c.24-.61.47-1.23.69-1.85l.15-.46v0a.19.19,0,0,0,0-.07l.05-.14h0a.49.49,0,0,0,0-.11v0s0-.06,0-.08h0c.1-.33.21-.66.31-1s.19-.63.27-.95c.18-.61.34-1.23.48-1.85.1-.43.19-.87.28-1.31s.12-.77.17-1.16.07-.73.09-1.09,0-.67,0-1,0-.65,0-1,0-.59,0-.88-.05-.68-.08-1v0l-.09-1.11c0-.33-.08-.65-.14-1l-.18-.66c-.07-.19-.14-.37-.22-.56s-.16-.37-.25-.55-.24-.45-.38-.67-.19-.25-.29-.37l0,0a.24.24,0,0,1-.13-.13c-.84-.21-1.67-.45-2.48-.74-.44-.16-.87-.32-1.3-.5s-.84-.34-1.26-.53-.85-.4-1.27-.62a12.08,12.08,0,0,1-1.14-.71c-.39-.26-.78-.53-1.15-.83a12,12,0,0,1-1-.9,5.11,5.11,0,0,1-.45-.48c-.14-.17-.26-.35-.39-.53a.83.83,0,0,1-.08-.12v0a11,11,0,0,1-.65-1.1,7.68,7.68,0,0,1-.49-1.14c-.16-.44-.28-.89-.4-1.34a24.43,24.43,0,0,1-.48-2.69,12,12,0,0,1,0-2.68q.08-.69.18-1.38c.06-.43.12-.87.2-1.3A25.14,25.14,0,0,1,37,98.43q.21-.69.45-1.38a1.17,1.17,0,0,1-.26-.1l-.27-.11-.57-.24c-.59-.26-1.19-.5-1.78-.78-.42-.19-.83-.38-1.25-.59s-.83-.44-1.25-.67l-.58-.31-.58-.34c-.4-.24-.79-.52-1.18-.78a16,16,0,0,1-2.1-1.67,8.36,8.36,0,0,1-.85-1c-.26-.37-.49-.74-.71-1.13a11.44,11.44,0,0,1-.63-1.2c-.09-.19-.17-.39-.25-.59A6.45,6.45,0,0,1,25,86.9c-.06-.2-.11-.4-.16-.61l-.15-.65c-.09-.46-.18-.92-.23-1.39q0-.37-.06-.75t0-.75q0-.34.06-.69c0-.24.05-.48.09-.72.06-.47.14-.94.23-1.4.05-.24.11-.47.17-.7s.13-.51.2-.76.13-.45.21-.68.16-.46.25-.69c.2-.49.4-1,.63-1.45s.43-.85.67-1.26a13.76,13.76,0,0,1,.77-1.21c.14-.21.3-.41.45-.6L28.6,72c.31-.38.63-.75,1-1.1s.71-.7,1.06-1.06l1.09-1.11,1-1,1.06-1.07c.35-.35.69-.7,1.06-1l.58-.51.64-.52,1.24-.91.57-.39.68-.41c.46-.26.94-.51,1.42-.76s.93-.49,1.41-.72.94-.41,1.42-.6l.63-.25.78-.29.82-.29.78-.26c.49-.16,1-.31,1.48-.43s.93-.2,1.4-.29,1-.2,1.54-.28l.84-.12.86-.1c.22,0,.44,0,.66,0H53a3,3,0,0,1,.42,0c.54,0,1.07.07,1.6.12l.76.09.71.1c1,.16,2.09.35,3.13.58.51.11,1,.23,1.54.37s1,.29,1.53.46c1,.34,2.06.74,3.07,1.15l1.34.56c.48.21,1,.41,1.43.64.92.44,1.83.92,2.75,1.37l.7.33c.5.24,1,.47,1.51.69s.88.38,1.33.56l1.56.63c.45.18.89.38,1.33.55l1.53.62,1.38.56,1.49.6,1.4.59,1.34.54.75.28c.23.09.47.17.71.24l.77.23c.28.08.57.14.85.21l.77.16c.29.07.58.14.87.23.56.15,1.1.33,1.64.51l1.52.53.5.14.57.12c.69.11,1.38.19,2.07.27l2.33.26,2,.19,1.17.09c.35,0,.7,0,1,.05h0l1.06,0c.41,0,.81,0,1.22,0s.78,0,1.17,0l.58,0,.63,0,1.2-.13,1.14-.15,2.43-.35c.37,0,.73-.1,1.1-.17l1.19-.2c.38-.06.76-.11,1.13-.18s.67-.12,1-.19l.78-.2c.29-.09.56-.19.84-.29h0c.46-.17.91-.34,1.36-.53s.88-.4,1.31-.62.76-.42,1.12-.65.67-.43,1-.66l1-.68,0,0c.23-.17.46-.34.68-.52a.53.53,0,0,1,.39-.18l.1,0,0-.13c-.09-.3-.16-.61-.24-.91-.16-.63-.33-1.25-.49-1.88-.09-.33-.17-.66-.25-1s-.14-.62-.19-.93c-.13-.64-.22-1.29-.29-1.94s-.11-1.29-.12-1.94c0-.31,0-.62,0-.93s0-.66.07-1l.09-1h0a3.29,3.29,0,0,1-.42-.21,2.21,2.21,0,0,1-.4-.28,1.08,1.08,0,0,1-.24-.28,1,1,0,0,1-.09-.42c0-.14,0-.29,0-.43l.09-.47a2.59,2.59,0,0,1,.21-.63.65.65,0,0,1,.15-.24.41.41,0,0,1,.3-.12,2.05,2.05,0,0,1,.34.07,6.25,6.25,0,0,1,.6.24l.6.29,0,0,.08,0,0,0,0,0h0l.1,0c.28.14.56.26.85.38l.85.34.9.28.9.28.93.23.94.22.29.06h0l.71.14.68.15a5.6,5.6,0,0,0,.59.07h0l-.06-.5c0-.28-.06-.56-.09-.83,0-.49-.11-1-.19-1.47h-.19a.28.28,0,0,0,.07-.17.3.3,0,0,0-.2-.31,1.22,1.22,0,0,0-.26,0l-.31,0-.76-.09h0c-.33,0-.66-.07-1-.13L128,51.68l-1.35-.22c-.41-.06-.83-.13-1.24-.22l-.64-.14-.64-.17-.61-.17-.63-.19-1.28-.41h0l-.08,0h0l0,0h0l-.11,0h0c-.34-.12-.69-.23-1-.37l-.58-.22-.3-.12-.28-.12-.29-.09-.14,0-.1,0-.15,0a.2.2,0,0,0-.2,0,.11.11,0,0,0,0,.13s0,0,0,.06h0l.09.09a1.09,1.09,0,0,0,.17.13,3.77,3.77,0,0,0,.48.28l.48.23.5.22.62.26.33.13.29.12c.41.16.83.3,1.24.44l.65.21.64.19.64.16.67.16,1.29.21,1.35.19,1,.13h-.23q-.91-.06-1.83-.15l-.95-.1c-.31,0-.62-.08-.93-.13-.61-.09-1.2-.22-1.8-.35-.3-.07-.61-.15-.91-.24s-.57-.2-.86-.32-.77-.34-1.17-.48h0l-.43-.15c-.15-.06-.28-.13-.42-.2s-.56-.26-.83-.42l-.34-.22a.79.79,0,0,1-.21-.27.63.63,0,0,1,0-.36,2.11,2.11,0,0,1,.12-.43c0-.14.1-.28.16-.41a3.85,3.85,0,0,1,.39-.72,1.45,1.45,0,0,1,.17-.19.46.46,0,0,1,.36-.11,2.2,2.2,0,0,1,.37.06,4.48,4.48,0,0,1,.71.22c.23.1.47.21.71.29h0l.41.13.46.12c.3.07.6.18.9.26l.88.27.88.27.53.14.85.14c.27,0,.54.08.82.12l.82.15.85.16.76.13c.27,0,.53.08.8.1l.61,0h-.05c.25,0,.49,0,.74,0l-.09-.19c-.16-.31-.32-.61-.5-.91a.34.34,0,0,1-.17,0h0l-.61-.09-.62-.08-1,0-.94-.08c-.31,0-.61-.07-.91-.12s-.62-.09-.93-.15l-.94-.17-1-.2-.47-.13-.46-.15-.9-.36-.9-.36a9,9,0,0,1-.84-.38c-.15-.07-.29-.15-.43-.23l-.39-.27a5.65,5.65,0,0,1-.73-.56.74.74,0,0,1-.28-.7,2,2,0,0,1,.19-.46,8.42,8.42,0,0,1,.45-.76,1.23,1.23,0,0,1,.45-.48.89.89,0,0,1,.51,0,5.32,5.32,0,0,1,.82.35l.19.1h0l.62.29c.23.11.44.24.66.35s.44.19.66.28.45.19.68.27.58.15.87.22a.35.35,0,0,1,0-.08l.14-.16h0c.1-.11.2-.23.31-.33a1.46,1.46,0,0,1,.28-.21l.21-.12a2.55,2.55,0,0,1,1-.26l.53,0h.06a2.22,2.22,0,0,1,.25-.42,3.26,3.26,0,0,1,.34-.4,3.54,3.54,0,0,1,.44-.32,7.53,7.53,0,0,1,.82-.51,5,5,0,0,1,1-.38,5.78,5.78,0,0,1,1-.18l.35,0s0-.09,0-.14a4.07,4.07,0,0,1,.13-.5,1.53,1.53,0,0,1,.16-.37,1.71,1.71,0,0,1,.13-.23,6.63,6.63,0,0,1,.58-.81,6,6,0,0,1,.64-.69h0l0,0h0a6.88,6.88,0,0,1,1.59-1,7.92,7.92,0,0,1,1.71-.61.72.72,0,0,1,.19,0l.09,0,.23,0,.46-.08a12.68,12.68,0,0,1,1.85-.11,5.62,5.62,0,0,1,.71,0l.18-.31a3.39,3.39,0,0,1,.33-.42,3.54,3.54,0,0,1,.73-.6,2.11,2.11,0,0,1,.44-.24,4.5,4.5,0,0,1,.49-.14,6.3,6.3,0,0,1,1-.12,3.65,3.65,0,0,1,.47,0,2.09,2.09,0,0,1,.51.08,6,6,0,0,1,.92.35c.29.13.58.29.86.44l.13.06a1.11,1.11,0,0,1,.07-.16.93.93,0,0,1,.28-.34,1.34,1.34,0,0,1,.28-.18,3.21,3.21,0,0,1,.54-.22,3.73,3.73,0,0,1,.58-.12,3.54,3.54,0,0,1,1.45.05,3.46,3.46,0,0,1,.6.25,3.63,3.63,0,0,1,.51.28l.44.32a2.17,2.17,0,0,1,.15-.35,2,2,0,0,1,.87-.81,3.22,3.22,0,0,1,.61-.24,2.74,2.74,0,0,1,.64-.08,3,3,0,0,1,.67,0,1.4,1.4,0,0,1,.54.22l.26.17a5.64,5.64,0,0,1,.94.82,8.36,8.36,0,0,1,.85,1,9,9,0,0,1,.64,1.08l.07,0a1.26,1.26,0,0,1,.33-.1,3.23,3.23,0,0,1,.53,0,3.4,3.4,0,0,1,.63.08l.64.16a2.14,2.14,0,0,1,.6.21,2.22,2.22,0,0,1,.64.54,4.93,4.93,0,0,1,.4.61l0,0h.5l.69-.06c.23,0,.47,0,.7,0a3.63,3.63,0,0,1,1.35.2q.3.12.6.27a4.49,4.49,0,0,1,.62.38,3.22,3.22,0,0,1,.28.24l.24.26c.16.18.31.37.45.56a4.16,4.16,0,0,1,.44.76.33.33,0,0,1,.14,0,.58.58,0,0,1,.25.12l0,0c.2.12.41.22.62.32l1.21.61c.21.11.41.24.61.37s.35.27.52.41c.37.29.74.58,1.1.89l.56.46c.18.15.37.29.54.44s.35.32.51.49.31.33.47.5l1,1c.3.31.61.62.89,1l.08-.06.5-.39c.33-.24.66-.48,1-.71a10.81,10.81,0,0,1,1.21-.65c.44-.21.88-.42,1.32-.6l1.21-.49,1.37-.55c.43-.17.87-.33,1.31-.47a11.78,11.78,0,0,1,1.3-.33c.86-.19,1.72-.42,2.58-.61.44-.1.87-.2,1.3-.33l1.3-.38c.44-.12.88-.22,1.33-.33s.77-.18,1.15-.27c.84-.21,1.68-.45,2.5-.72l.66-.22c.33-.11.65-.24,1-.36l1-.36,1-.32,1-.34h0c1.25-.44,2.45-1,3.67-1.52s2.32-1,3.44-1.53l1.24-.65,1.13-.63,1.09-.58,1.2-.67,2.45-1.31c.41-.22.81-.45,1.22-.69l1.24-.71,1.22-.69,1.26-.67,1.22-.67,1.25-.68,1.26-.69q.6-.35,1.2-.72L224,26.6l1.36-.8c.44-.26.86-.53,1.29-.81l1.3-.81c.84-.52,1.69-1,2.54-1.52s1.72-1,2.56-1.58c.4-.26.81-.52,1.2-.79s.86-.57,1.29-.86c.84-.56,1.7-1.1,2.56-1.63s1.76-1.11,2.65-1.63l2.71-1.6c.86-.5,1.72-1,2.57-1.51s1.8-1.08,2.7-1.62c.43-.27.86-.52,1.28-.79l1.29-.8,2.63-1.67,1.31-.84,1.33-.83,1.21-.76L259.06,5l1.29-.79c.43-.27.85-.55,1.27-.83l1.29-.84c.41-.27.83-.53,1.25-.78s.79-.46,1.2-.67.8-.39,1.21-.56a6.86,6.86,0,0,1,1.24-.39,3.14,3.14,0,0,1,1-.1,1.64,1.64,0,0,1,.76.37,3.41,3.41,0,0,1,.62.58,7.9,7.9,0,0,1,.61.9c.22.37.46.73.69,1.1a5.77,5.77,0,0,1,.29.55c.07.15.15.3.21.46a1.31,1.31,0,0,1,.08.21,11.4,11.4,0,0,0,.36,1.13c.06.18.12.37.19.55h0a1.2,1.2,0,0,1,.05.33,1.78,1.78,0,0,1,0,.46,1.57,1.57,0,0,1-.31.65,1.71,1.71,0,0,1-.18.2l-.13.11-.25.2-.52.36L270,9c-.4.26-.82.5-1.23.74s-.82.48-1.22.73l-1.28.77c-.41.24-.83.46-1.25.69l-1.39.74-1.41.79-1.24.67-1.24.7c-.89.52-1.76,1-2.66,1.55s-1.7,1-2.55,1.47q-.6.36-1.23.69l-1.25.67-1.27.73-1.29.75c-.86.51-1.72,1-2.57,1.56l-2.63,1.58-2.63,1.64c-.86.54-1.72,1.08-2.56,1.64l-1.28.84-1.26.79c-.84.51-1.68,1-2.54,1.51l-1.32.73-1.31.73c-.92.51-1.85,1-2.79,1.48s-1.75.91-2.63,1.36l-2.71,1.33c-1.31.65-2.62,1.29-3.92,2l0,0c-.9.45-1.78.94-2.66,1.44s-1.61.93-2.42,1.38-1.58.91-2.39,1.33-1.62.79-2.43,1.18l-.26.13c-.54.27-1.06.55-1.58.84s-1,.59-1.49.91l0,0c-.42.28-.82.59-1.22.9s-.82.64-1.21,1a15.51,15.51,0,0,0-1.34,1.35c-.46.53-.89,1.08-1.36,1.61s-1,1.07-1.44,1.61-1.13,1.25-1.7,1.87-1.18,1.29-1.81,1.89l-1,1c-.34.3-.69.59-1,.88-.71.56-1.43,1.11-2.17,1.64a44.82,44.82,0,0,1-4.54,2.78c-.41.22-.82.42-1.24.62l-1.31.61-1.26.56c-.42.18-.83.36-1.26.52s-.85.29-1.28.41-.75.18-1.12.27l-.81.19c-.17,0-.34.06-.51.09l-.07,0-.11,0h0a8.2,8.2,0,0,1-.1.85,9,9,0,0,1-.19.93c-.08.32-.16.64-.25,1s-.18.55-.27.82l-.06.15h0v0l0,.09c-.25.71-.5,1.42-.78,2.13-.14.35-.29.69-.44,1s-.29.7-.43,1-.12.43-.19.64a5.53,5.53,0,0,1-.22.65,10,10,0,0,1-.61,1.23c-.45.81-1,1.58-1.47,2.35s-1.11,1.59-1.71,2.34c-.29.36-.59.71-.89,1-.15.18-.31.36-.47.53s-.33.36-.5.52c-.35.33-.72.64-1.08.94a10,10,0,0,1-1.05.8,19.05,19.05,0,0,1-2.46,1.37l-1.25.57a12.22,12.22,0,0,1-1.27.48l-.63.2c-.23.07-.47.12-.71.17-.44.07-.89.09-1.34.12l-1.37,0-1.31,0h-.38a5,5,0,0,1-.94-.08,5.31,5.31,0,0,1-1.17-.37c-.31-.14-.61-.3-.92-.46l-.45-.23-.39-.21-.08.08-.53.42-.56.44c-.26.19-.53.36-.78.57h0l-.11.08h0l-.14.08-.08.06s0,0-.07.06h0l0,0a.15.15,0,0,0,0,.13v0h0a.66.66,0,0,0,0,.14h0a.22.22,0,0,1,0,.08.37.37,0,0,0,0,.11q0,.6,0,1.2c0,.62-.07,1.23-.09,1.84s-.05,1.31-.08,2,0,1.16-.09,1.74v0l0,.44V95l0,.21v0c0,.62-.1,1.25-.15,1.87h0v0h0c0,.09,0,.18,0,.28v0c0,.38-.05.77-.06,1.16s0,.73-.05,1.09v0q0,.3-.06.6a1.34,1.34,0,0,1-.11.39.75.75,0,0,1-.34.32,2.05,2.05,0,0,1-.34.07l-.37.09-.19,0-.17,0-.13,0-.11,0-.14,0a.57.57,0,0,1-.22,0h0v.13c0,.35,0,.69,0,1s0,.73,0,1.09,0,.7,0,1,0,.71-.09,1.07l-.12,1-.12,1c-.08.65-.17,1.29-.31,1.92v.08l-.06.18-.12.38-.06.2v0l-.09,0-.18.08-.19.07-.07,0h0l-.3.1a5.05,5.05,0,0,1-1.27.22h-.12l-.93,0-.81,0h-.09l0,.5a4.93,4.93,0,0,1-.1.85,1.91,1.91,0,0,1-.1.34.43.43,0,0,1-.15.2.92.92,0,0,1-.28.14c-.26.08-.53.13-.8.19a6,6,0,0,1-.74.11h-.39c-.17,0-.33,0-.49-.06l-.35-.06-.27-.06H139c0,.19,0,.39,0,.58-.05.61-.12,1.22-.17,1.84s-.09,1.16-.14,1.75c0,.24,0,.49-.07.73a1.06,1.06,0,0,1-.09.39.76.76,0,0,1-.17.22l-.08.06-.1.12a1.12,1.12,0,0,1-.73.35h0l-.25,0-.2,0h-.2a.44.44,0,0,1-.16,0l-.09,0-.27,0a3.55,3.55,0,0,1-.63-.2,1.8,1.8,0,0,1-.49-.32,1.27,1.27,0,0,1-.27-.34,1.82,1.82,0,0,1-.14-.39,5.68,5.68,0,0,1-.17-.84c0-.3-.06-.61-.08-.92s0-.67,0-1c0-.64,0-1.29,0-1.93s0-1.28,0-1.91.07-1.29.1-1.94l.09-2c0-.68.08-1.37.11-2.06s0-1.27.09-1.9c0-.35,0-.71.07-1.06h0c0-.64.09-1.28.11-1.93s.06-1.29.08-1.94.06-1.35.08-2,0-1.34.05-2c0-1.34,0-2.68,0-4v-4c0-1.28,0-2.56,0-3.84,0-.17,0-.34,0-.51l0,0-.27-.24-.23-.18-.22-.14-.27-.18-.49-.34h0l-.36-.25q-.18-.14-.36-.3a9.61,9.61,0,0,1-.73-.7l-.63-.68-.41-.45,0,.09c-.14.24-.31.47-.47.71a4.73,4.73,0,0,1-.31.43h0v0l0,0,0,0c-.15.18-.32.34-.48.5s-.59.58-.87.87l-.38.38c-.17.16-.34.32-.52.47s-.54.5-.82.74a10,10,0,0,1-1,.76c-.33.22-.67.44-1,.63l-1.14.58c-.39.2-.79.37-1.19.53s-.8.33-1.21.47a11.55,11.55,0,0,1-1.28.35l-2.65.56c-.92.18-1.84.33-2.77.45l-1.36.15-1.4.1q-.69,0-1.38.06c-.44,0-.88,0-1.31,0s-.91,0-1.36,0-.88,0-1.32-.06c-.94-.07-1.88-.14-2.82-.23l-2.68-.3c-.44,0-.89-.1-1.33-.18s-.85-.17-1.27-.27c-.9-.2-1.79-.4-2.69-.58s-1.75-.34-2.63-.51-1.76-.36-2.64-.55-1.72-.36-2.58-.52l-2.72-.51-.65-.12c-.92-.16-1.84-.29-2.76-.48l-2.88-.56c-.94-.17-1.88-.3-2.82-.42l-2.74-.34-2.72-.33-1.32-.16c-.45-.06-.9-.11-1.36-.15s-.9-.07-1.35-.09c-.75,0-1.51-.06-2.26,0s-1.59,0-2.39.12l-.88.09-.84.14c-.58.1-1.15.23-1.72.36h0c-.58.13-1.16.29-1.73.46s-1.15.36-1.72.56l-1.25.5c-.44.18-.87.37-1.3.58-1,.5-1.91,1-2.87,1.54l-1.47.83c-.48.28-.94.59-1.4.91l-.43.31-.41.33c-.28.22-.54.46-.81.69l-.34.33c-.11.1-.21.21-.32.32l-.3.32-.27.32h0L44,90l0,0,.91.49.92.41.95.43a20.13,20.13,0,0,0,2,.77c.58.19,1.17.35,1.76.5s1.2.27,1.8.44l1.82.53L56,94.1l1.78.55c.62.2,1.23.4,1.84.62l1.78.62c.57.2,1.14.43,1.7.67l1.75.79,1.74.76,1.69.75c.59.27,1.17.54,1.75.83s1.11.6,1.65.91,1.06.62,1.58,1,1.07.69,1.61,1c.27.17.53.35.79.53s.53.38.79.57a29.43,29.43,0,0,1,2.76,2.48c.43.42.86.84,1.28,1.27s.85.9,1.26,1.37c.8.93,1.56,1.91,2.31,2.89.38.5.74,1,1.1,1.51s.69,1.07,1,1.62.61,1.08.88,1.63.53,1.12.78,1.69.45,1.13.66,1.69.4,1.13.58,1.71.33,1.18.5,1.77.3,1.18.44,1.78.22,1.17.31,1.75c0,.29.07.59.1.88s.07.61.09.92a31.79,31.79,0,0,1,0,3.78c0,.62,0,1.23-.12,1.85s-.16,1.23-.27,1.84-.24,1.22-.37,1.83-.28,1.21-.46,1.81c-.09.31-.18.61-.29.91s-.21.59-.32.88-.2.56-.31.85-.23.57-.35.86-.29.7-.46,1a8.12,8.12,0,0,1-.56,1.05l-.16.26-.08.12-.07.11c-.23.33-.47.65-.72,1l-.71.9c-.18.21-.38.41-.58.61l-.43.44-.18.22h0a.92.92,0,0,1-.25.23.3.3,0,0,1-.16,0,.32.32,0,0,1-.26-.15.32.32,0,0,1,.11-.42h0l.11-.12v0a4.38,4.38,0,0,1,.41-.45c.23-.24.47-.47.69-.72s.48-.58.71-.88.52-.68.76-1l0-.07.08-.12h0v0h0a5.58,5.58,0,0,0,.32-.52c.11-.18.2-.37.3-.56.29-.61.55-1.24.8-1.87.13-.31.24-.62.36-.93s.25-.68.37-1v0c.11-.31.21-.62.3-.94s.19-.7.27-1c.16-.65.29-1.32.42-2s.2-1.11.28-1.66c0-.32.08-.64.1-1s0-.6.06-.9v0a36,36,0,0,0,0-4.28,27.88,27.88,0,0,0-.42-3.16c-.19-.86-.41-1.72-.65-2.57-.12-.45-.24-.89-.38-1.33s-.29-.89-.44-1.34c-.23-.62-.47-1.25-.73-1.87s-.56-1.25-.87-1.87-.57-1.08-.88-1.61-.61-1-.94-1.48h0l0,0h0c-.28-.4-.57-.8-.87-1.19l-.92-1.2-.93-1.16c-.31-.39-.63-.76-1-1.13l0,0c-.32-.35-.64-.68-1-1l-1-1c-.66-.66-1.34-1.31-2-1.93-.36-.31-.73-.6-1.11-.88s-.75-.54-1.14-.8l-1.29-.85c-.44-.29-.88-.57-1.33-.84l-1.4-.8c-.45-.24-.9-.48-1.36-.71-1.12-.54-2.27-1-3.41-1.54l-.93-.4-.8-.37c-.56-.26-1.12-.5-1.69-.74l-1-.39-1.09-.38-2.09-.73h0q-.88-.3-1.77-.57l-1.93-.57c-.6-.18-1.21-.35-1.81-.54s-1.17-.32-1.76-.46-1.19-.28-1.78-.45-1.24-.4-1.85-.63-1.11-.47-1.66-.72c-.29-.13-.58-.25-.86-.39s-.54-.25-.8-.39l-.55-.31-.26.36-.19.29-.21.36c-.13.21-.25.43-.37.64l-.49.91.05.07a1.25,1.25,0,0,0,.15.19,2.76,2.76,0,0,0,.3.29,4.13,4.13,0,0,0,.42.31,1.92,1.92,0,0,0,.31.18q.38.17.75.3c.43.13.87.22,1.31.33s.81.2,1.23.28,1.08.15,1.62.23,1.1.18,1.65.28l.78.16.86.21,1.62.4.81.2.85.23c.53.14,1.06.27,1.58.46s1.07.41,1.61.63,1,.43,1.55.66c.26.12.52.24.77.38l.74.38q.8.39,1.56.81c.51.28,1,.58,1.52.85s1,.56,1.54.86l1.47.91c.49.3,1,.61,1.45.93l1.46,1c.49.33,1,.65,1.47,1s.91.68,1.36,1l1.35,1c.91.71,1.77,1.46,2.62,2.24.2.19.4.37.6.57s.39.38.58.58l1.28,1.26.61.6c.21.2.41.4.61.61.38.41.74.84,1.09,1.27s.77.95,1.11,1.46.65,1,1,1.5.63,1,.91,1.58l.19.37c.07.16.15.32.22.49l.2.45.17.42c.16.39.31.78.46,1.18h0c.2.56.41,1.12.58,1.69.09.29.18.59.26.88l.24.91.21.82c0,.15.08.3.11.45a.74.74,0,0,1,0,.14s0,0,0,.07v0l0,.12v0l0,.14h0v.07h0v0c.06.27.11.53.16.8s.09.59.12.88.05.62.07.93,0,.61,0,.9c0,.59,0,1.18-.09,1.77s-.12,1.21-.19,1.81-.15,1.17-.24,1.76c0,.29-.09.58-.14.87s-.11.59-.18.88c-.13.59-.3,1.17-.47,1.75s-.36,1.11-.56,1.66c-.1.28-.21.55-.32.82s-.22.53-.34.79c-.26.57-.53,1.13-.82,1.68a10,10,0,0,1-.93,1.49,14.14,14.14,0,0,1-1.14,1.3l-.48.49-.45.49-.42.44a2.3,2.3,0,0,1-.38.32.42.42,0,0,1-.15,0A.31.31,0,0,1,80.13,149.14Zm55.41-30.92.13.1.11.07.18.07.38.11.55.08h.19l.16,0h0l.14,0h0l.09,0a.05.05,0,0,0,0,0l.07,0,0,0,.06-.07s0,0,.05,0,0,0,0-.08l0-.06c0-.06,0-.12,0-.18s0-.1,0-.15a1.23,1.23,0,0,0,0-.19,2,2,0,0,0,0-.24s0-.11,0-.16l0-.18V117c0-.07,0-.14,0-.21s0-.22.06-.33v-.1h0v0h0c0-.11,0-.22,0-.34v0l0-.44c0-.52.09-1,.14-1.56s.08-1.08.12-1.63v0l.09-1.88c0-.63,0-1.26.07-1.89l.06-2c0-.67,0-1.35,0-2,0-1.3,0-2.6,0-3.89s0-2.65-.06-4c0-.63,0-1.26-.08-1.89s-.05-1.33-.08-2-.05-1.29-.07-1.94,0-1.26-.05-1.89c0-1.3,0-2.6-.08-3.9s0-2.6,0-3.9c0-1.11,0-2.23,0-3.35,0-.59-.05-1.18-.07-1.77s0-1.11-.07-1.66h0c0-.59-.1-1.18-.13-1.78l-.09-1.82c0-.6-.07-1.19-.09-1.79s0-1.25-.07-1.88v0c0-.76-.14-1.51-.21-2.27,0-.2,0-.4,0-.6h.6c0,.5.09,1,.14,1.48.06.64.11,1.27.14,1.91s0,1.24.07,1.86.07,1.28.1,1.91.05,1.09.08,1.63v0c0,.64.1,1.29.14,1.93s.05,1.3.07,1.94.05,1.26.06,1.89,0,1.31,0,2c0,1.28,0,2.57,0,3.86s.06,2.64.08,4,.06,2.54.11,3.81c0,.67.06,1.33.08,2s.06,1.3.08,2c.1,2.61.08,5.23.08,7.85,0,.65,0,1.3,0,1.94s0,1.31,0,2,0,1.26-.07,1.89,0,1.29-.08,1.93c0,.22,0,.44,0,.66l.09,0h0l.28.07.75.11h.31c.19,0,.38,0,.58-.08s.6-.12.9-.21l0,0a2.8,2.8,0,0,0,.06-.28,3.7,3.7,0,0,0,.07-.57v.05c0-.34,0-.68,0-1s0-.62.07-.94a2.11,2.11,0,0,1,0-.25l0-.22c0-.18,0-.35.05-.52v0c0-.53,0-1.07,0-1.6v-5.23c0-1.2,0-2.4,0-3.6,0-.61,0-1.21,0-1.81s0-1.15,0-1.73c0-1.26-.07-2.53-.1-3.79s0-2.43,0-3.64,0-2.44-.06-3.66S142,81.24,142,80c0-.59-.07-1.17-.1-1.76v0c0-.59-.09-1.17-.15-1.76l-.21-1.89c-.15-1.22-.29-2.45-.46-3.67-.14-1-.29-2-.39-3,0-.53-.1-1-.14-1.58s-.06-1-.1-1.48v0c0-.28,0-.56-.07-.84s0-.31-.05-.46a.22.22,0,0,0,0-.08v0a.34.34,0,0,0,0-.2l0-.15v0a.39.39,0,0,0-.07-.26h0L140,61.5l-.12-.85c0-.27-.09-.53-.13-.8-.1-.54-.15-1.09-.24-1.63l-.09-.5c-.52.09-1,.16-1.57.22l-.22,0a.91.91,0,0,0,0,.17c0,.39.05.78.07,1.17h0s0,0,0,.07v.13h0v0a1.27,1.27,0,0,1,0,.2h0c0,.07,0,.14,0,.21s0,.26,0,.39c0,.57.09,1.15.14,1.72,0,.21,0,.43.05.65h0l-.58,0v-.08h0c0-.47-.07-.93-.11-1.39s-.07-.92-.1-1.38h0s0-.06,0-.09a.49.49,0,0,0,0-.12v0h0v0a.28.28,0,0,0,0-.09v0h0v-.07c0-.27,0-.54,0-.81h0c0-.16,0-.32,0-.49l-.12,0c-.32,0-.64.1-1,.13l-.59,0h-1.85c0,.15.08.29.13.44.16.58.31,1.16.44,1.75s.22,1.25.31,1.88l.06.38h-.62l-.08-.56c-.07-.52-.16-1-.26-1.54s-.19-.83-.31-1.25-.2-.75-.31-1.12l-.78-.07a11.82,11.82,0,0,1-1.45-.23c0,.43,0,.87,0,1.31a19.52,19.52,0,0,0,.31,2.13v0c.09.43.18.86.28,1.29l-.63,0c-.06-.25-.12-.51-.17-.77s-.14-.66-.2-1-.1-.64-.14-1a7.45,7.45,0,0,1-.07-1v-1a.49.49,0,0,0,0-.12l-.75-.18c-.31-.07-.62-.13-.92-.21s-.6-.16-.89-.25l-.11,0,0,.31a16.14,16.14,0,0,0,0,1.84v0c0,.41.06.82.13,1.22s.16.87.25,1.3h0c0,.17.08.35.11.52l-.6-.07h0c-.09-.44-.18-.88-.26-1.32a15.4,15.4,0,0,1-.22-1.93c0-.41,0-.82,0-1.23,0-.2,0-.4,0-.6s0-.11,0-.16l-.23-.07-.94-.29-.87-.28c-.27-.09-.54-.17-.8-.27,0,.07,0,.13,0,.2,0,.33-.07.66-.09,1a20,20,0,0,0,0,2.57v0h0c0,.53.09,1.05.17,1.57s.18,1.09.29,1.64c.06.3.14.6.21.89s.17.65.25,1l.25.91c.08.33.16.65.25,1s.24.86.38,1.28v0l.15.42,0,0c0,.09.07.19.11.29h0l.33.91c.12.3.25.59.39.88.28.61.55,1.21.85,1.81h0l0,0c.27.53.57,1,.87,1.55.14.24.3.48.45.72s.3.47.46.7c.27.4.54.8.85,1.18l.47.54.47.54.09.1a.27.27,0,0,1,.18,0,.3.3,0,0,1,.27.33s0,.08,0,.12a.11.11,0,0,1,0,0l.06.06.55.59c.19.21.38.43.58.63s.39.4.59.59.43.36.67.53l0,0,.91.62,0,0c.13.09.27.17.4.27l.06,0c0-.2,0-.42,0-.63,0-.61,0-1.22,0-1.84s0-1.1,0-1.65a8.31,8.31,0,0,1-1.28-1.08c-.22-.24-.42-.49-.62-.74l-.57-.75c-.19-.25-.39-.5-.6-.73a8.43,8.43,0,0,1-.6-.74,15.73,15.73,0,0,1-1-1.61c-.08-.14-.14-.28-.21-.42s-.15-.31-.23-.46-.28-.59-.43-.89-.29-.57-.41-.87-.25-.62-.36-.93l-.24-.7h0v0h0c-.06-.18-.12-.35-.19-.53h0a.76.76,0,0,0,0-.11h0l0,0h0c-.21-.61-.39-1.22-.56-1.84l-.33-1.32.09,0a3.82,3.82,0,0,0,.57.11l0,.09c.15.62.32,1.24.5,1.86.08.27.17.54.26.8h0l0,.08h0l0,.12v0l0,.08h0v0h0l.39,1.15v0c.11.31.22.62.35.93s.26.58.4.86c.27.56.54,1.12.82,1.68s.52.89.8,1.32c.17.25.35.5.55.74s.41.48.61.72c.4.49.77,1,1.17,1.49l.2.25,0,0c.14.16.29.31.45.46l.45.36c0-.57-.07-1.14-.1-1.71v0l0-.38v0c0-.64-.09-1.27-.14-1.91,0-.2,0-.4-.05-.6a.3.3,0,0,1-.08-.08c-.15-.2-.31-.38-.45-.58s-.32-.43-.47-.66a15.06,15.06,0,0,1-.82-1.4h0a.75.75,0,0,0-.07-.12c-.13-.27-.25-.55-.38-.82s-.29-.59-.43-.89c-.27-.59-.49-1.21-.7-1.82h0c-.2-.57-.37-1.16-.53-1.75l.42,0h0l.2,0h.06c.11.41.23.81.36,1.21a2.25,2.25,0,0,1,.08.24h0c0,.08,0,.15.07.22.2.58.42,1.15.67,1.7.12.26.25.52.38.79s.23.51.36.76h0l.08.15h0c.11.22.23.44.35.66s.27.45.42.67.27.39.41.58l0-.3c-.06-.63-.12-1.26-.2-1.88s-.15-1.3-.21-2c-.09-.9-.19-1.79-.3-2.68l.62,0v0c.08.65.15,1.3.22,2s.12,1.22.19,1.83.15,1.27.22,1.91.12,1.26.16,1.89c.08,1,.16,2,.22,3v0c0,.77.1,1.54.13,2.32a.26.26,0,0,1,0,.15c0,.45,0,.9,0,1.36,0,.62,0,1.23,0,1.85s0,1.28,0,1.92c0,1.33,0,2.66,0,4v5.95c0,.64,0,1.28,0,1.92s0,1.32,0,2,0,1.34-.07,2c0,.85-.06,1.69-.1,2.53s-.1,1.65-.16,2.48h0c0,.64-.07,1.28-.1,1.93s-.06,1.36-.1,2l-.09,2c0,.64-.08,1.28-.11,1.93,0,.92-.05,1.85-.05,2.77s0,1.82,0,2.73c0,.32,0,.63.11.95a5.18,5.18,0,0,0,.14.53.61.61,0,0,0,0,.12l0,0s0,0,.05.06l0,0A1.14,1.14,0,0,0,135.54,118.22Zm7.28-7.79c.28,0,.57,0,.85,0l.93,0h.14c.24,0,.47,0,.71-.08l.43-.12.31-.12.22-.08c.05-.23.11-.46.16-.69h0c.07-.35.12-.7.17-1s.11-.77.15-1.15c.08-.78.18-1.55.24-2.33,0-.34,0-.68.05-1s0-.69,0-1c0-.73.06-1.46.06-2.18s0-1.48,0-2.21,0-1.39,0-2.08l0-2.23c0-.34,0-.68,0-1s0-.73,0-1.09c0-.74-.07-1.47-.1-2.2s-.06-1.39-.08-2.09,0-1.44,0-2.16c0-.39,0-.78,0-1.18s0-.73-.05-1.09,0-.72-.07-1.07,0-.7,0-1c0-.7,0-1.39-.07-2.08,0-.53-.05-1.06-.08-1.59v0c0-.67-.11-1.34-.18-2s-.12-1.37-.19-2.06l-.21-2.08c-.06-.69-.14-1.37-.22-2.06s-.12-1.12-.2-1.68-.17-1.14-.25-1.71-.16-1.1-.23-1.65-.18-1.17-.3-1.75v0c-.14-.68-.29-1.36-.48-2s-.35-1.31-.52-2c-.09-.35-.17-.69-.25-1l-.27-1c-.19-.66-.37-1.32-.59-2l0-.1c-.22-.62-.47-1.24-.71-1.86s-.53-1.26-.83-1.88l0,0c-.27-.54-.57-1.05-.87-1.57l-.46-.75c-.16-.27-.32-.53-.49-.79s-.44-.59-.68-.87-.32-.35-.48-.53-.35-.35-.51-.54-.33-.36-.48-.55-.32-.41-.49-.6l-.29-.33c-.1-.11-.22-.21-.33-.31l-.23-.19-.3-.22-.47-.28h0l-.74-.34q-.37-.16-.78-.3l-.7-.23c-.22-.07-.45-.13-.67-.18l-.34,0a.14.14,0,0,0-.1,0l-.15,0h-.4L131,42h-.14l-.11,0h-.07a.75.75,0,0,0-.21,0,.35.35,0,0,0-.13,0l-.41.07-.47.13a6.57,6.57,0,0,0-.61.26,6.68,6.68,0,0,0-.76.46l-.38.28-.14.15-.14.18,0,.06.37.09.45.11c.29.07.58.18.87.26s.63.2.94.32a17.38,17.38,0,0,1,1.78.89,6.36,6.36,0,0,1,.83.51,9.45,9.45,0,0,1,.77.65c.23.21.44.44.65.66a9.2,9.2,0,0,1,.63.77c.19.26.38.52.55.8s.17.3.25.45a5.24,5.24,0,0,1,.23.48,14.71,14.71,0,0,1,.64,1.67c.09.28.17.57.24.86s.16.59.22.89v0c.09.42.16.85.22,1.27s.1.69.13,1l.49-.07h.08l.07,0a1.91,1.91,0,0,0,.34-.1h.5a.09.09,0,0,1,.06,0l.07,0h0l0,0h0l.08.08,0,.05h0a5.19,5.19,0,0,1,.43.49l.15.23.09.13.07.1h0v0l0,0h0l0,.05v0l0,.17c0,.05,0,.1,0,.16s0,.13.05.2,0,.08,0,.12a.36.36,0,0,0,0,.09v0h0a1,1,0,0,1,.05.16l.09.47c.05.29.09.59.13.88s0,.33,0,.49h0l0,.37c0,.12,0,.23,0,.35s.07.44.1.67.09.45.14.67.08.39.14.59l.15,1c.07.48.13,1,.17,1.43s.06.93.09,1.39v0c0,.6.09,1.19.14,1.79s.13,1.2.21,1.8.16,1.2.25,1.8.15,1.17.22,1.75c.15,1.23.31,2.46.43,3.69s.19,2.39.25,3.58.12,2.5.16,3.74,0,2.41,0,3.61,0,2.48.05,3.72.08,2.43.1,3.64c0,.63,0,1.26,0,1.89s0,1.14,0,1.71c0,1.21,0,2.43,0,3.64v6.06c0,.25,0,.5,0,.74s0,.35,0,.52l0,.22,0,.39v0C142.83,110.12,142.82,110.27,142.82,110.43ZM139.4,46.54l.3.39c.12.15.22.31.32.46l.52.86c.33.55.66,1.1,1,1.66a19.63,19.63,0,0,1,.84,1.8q.38.91.72,1.83c.13.32.24.65.35,1s.2.64.29,1c.19.66.38,1.32.54,2s.33,1.34.51,2,.37,1.35.52,2,.28,1.35.4,2c0,.33.09.66.13,1s.09.67.14,1c.09.64.19,1.29.28,1.93s.16,1.34.24,2,.15,1.38.22,2.07.14,1.37.21,2.06.12,1.35.19,2,.12,1.37.16,2,.07,1.4.1,2.09,0,1.39.06,2.08.1,1.45.12,2.18c.05,1.44,0,2.89.07,4.33,0,.74.07,1.47.1,2.21,0,.32,0,.65.05,1s0,.73.05,1.09c0,.74,0,1.48,0,2.21s0,1.44,0,2.16v3.58h0l.15,0h0l.11,0h0a.78.78,0,0,1,.21,0l.21,0h0l.29-.07.4-.09h0l0,0h0v0a.19.19,0,0,0,0-.07,3.7,3.7,0,0,0,.07-.57h0v-.06c0-.4,0-.79.06-1.19s0-.87.07-1.31v0c0-.62.11-1.25.15-1.88v0c0-.06,0-.13,0-.19v0a.76.76,0,0,1,0-.15v-.06l0-.37h0c0-.64.07-1.28.1-1.92s0-1.24.07-1.86.07-1.29.1-1.94,0-1.25,0-1.87c0-1.24,0-2.49,0-3.73,0-.64,0-1.29,0-1.93s0-1.24,0-1.86,0-.95-.08-1.42h0v-.16c0-.58-.08-1.16-.14-1.74s-.13-1.22-.19-1.84-.13-1.26-.2-1.89-.12-1.24-.2-1.86c0-.31-.08-.61-.11-.92s-.06-.67-.08-1v0c0-.06,0-.13,0-.19,0-.3-.05-.59-.07-.89s-.06-.6-.1-.89c-.06-.58-.11-1.16-.18-1.73s-.18-1.18-.28-1.77-.21-1.18-.32-1.77-.23-1.3-.37-1.94v0c-.11-.55-.24-1.1-.39-1.64s-.3-1.06-.48-1.58h0l-.49-1.38c-.16-.45-.3-.91-.46-1.37v0h0a21.32,21.32,0,0,0-.84-2h0l0,0v0c-.2-.4-.43-.8-.65-1.19l-.68-1.23c-.23-.39-.46-.78-.68-1.18s-.46-.79-.71-1.18l0,0h0l0-.06h0c-.28-.42-.6-.82-.92-1.22s-.63-.78-1-1.16a6.67,6.67,0,0,0-.6-.59,9.64,9.64,0,0,0-.89-.69c-.28-.18-.56-.34-.85-.49a6,6,0,0,0-.58-.25,12.65,12.65,0,0,0-1.35-.33,5.58,5.58,0,0,0-.59-.1,5.51,5.51,0,0,0-.57-.06H134l-.95,0H133l.07,0,.52.18a10.78,10.78,0,0,1,1.37.53c.21.09.41.19.61.3a4.83,4.83,0,0,1,.56.36l.25.2.3.26c.16.14.3.3.45.46.31.36.59.73.9,1.09l0,0C138.46,45.51,139,46,139.4,46.54ZM25.7,87.24c.15.37.31.74.49,1.09a18.52,18.52,0,0,0,1,1.66c.2.27.4.54.62.79l.27.28.35.32c.36.31.74.61,1.12.89s.92.64,1.38,1l.67.4.72.4.68.37.88.44c.41.2.82.4,1.24.58s.74.32,1.12.48l.72.31c.21.09.42.19.64.27h0l.27-.74c.09-.24.18-.47.28-.7s.21-.47.31-.71l.3-.59.38-.71.14-.25a.35.35,0,0,1-.14,0,.32.32,0,0,1-.21-.08v0l-.23-.12-.31-.17L38,92.19l-.81-.46L36,91.08c-.33-.19-.67-.39-1-.6a9,9,0,0,1-1-.71,5.79,5.79,0,0,1-.91-.8q-.42-.45-.81-.93A9.26,9.26,0,0,1,31.46,87c-.1-.18-.2-.36-.29-.54s-.17-.38-.24-.57a6.21,6.21,0,0,1-.2-.61,4.74,4.74,0,0,1-.16-.65c-.1-.46-.2-.92-.26-1.38,0-.22,0-.45-.07-.67s0-.25,0-.37,0-.27,0-.41a12.93,12.93,0,0,1,.16-1.41c0-.22.06-.44.1-.66s.11-.46.18-.68a10.44,10.44,0,0,1,.51-1.31c.09-.2.19-.4.29-.6s.26-.47.4-.69c.25-.42.52-.82.8-1.21s.59-.79.89-1.18c.13-.17.28-.34.43-.5l.49-.54c.34-.36.69-.71,1-1.06s.71-.65,1.07-1a27.86,27.86,0,0,1,2.26-1.8c.39-.29.79-.57,1.19-.85s.8-.54,1.22-.79a10.31,10.31,0,0,1,1.22-.66c.45-.2.91-.39,1.36-.56.91-.35,1.82-.65,2.75-.91l.72-.2L48,65l.62-.14.77-.14a19.32,19.32,0,0,1,2.84-.16c.49,0,1,0,1.47.07s1,.11,1.48.18c1,.14,2.07.29,3.1.45s1.93.35,2.88.56a20.47,20.47,0,0,1,2.8.82c.91.31,1.81.66,2.7,1l2.77,1.13c.45.18.9.37,1.36.54s.91.33,1.36.47l1,.33c.34.11.67.23,1,.36.69.25,1.38.49,2.08.72h0l3.1,1c1.55.48,3.12.94,4.68,1.38l1.08.3,1.16.33,1.22.32c.38.09.76.16,1.14.23L90,75l1.35.22,1.47.23c.44.07.87.16,1.31.24,1.08.18,2.16.3,3.25.43l1.68.17,1.52.11c.88,0,1.75,0,2.63,0l2.78,0h2.73c.85,0,1.69-.05,2.54-.1l.74-.09c.29,0,.58-.1.86-.16.43-.11.86-.23,1.28-.37l1.26-.52c.43-.17.85-.33,1.27-.51s.79-.35,1.18-.54.84-.42,1.25-.64h0c.34-.17.67-.35,1-.54s.69-.43,1-.66.82-.6,1.21-.93l.71-.58.65-.53,1.11-.88.29-.25a.9.9,0,0,1,.2-.14c0-.14-.09-.27-.13-.4h0c0-.13-.09-.26-.14-.4h0l-.12-.38a.37.37,0,0,1-.18.14l-.43.34-.64.46,0,0-1.18.82c-.44.29-.89.56-1.34.83l-.66.34-.66.31c-.46.21-.91.4-1.38.57s-1,.35-1.43.49a12.83,12.83,0,0,1-1.26.29c-.48.1-1,.17-1.45.24l-1.51.26-1.54.22-1.6.23c-.54.08-1.07.15-1.61.21s-1.06.11-1.59.16l-.7,0-.75,0c-.54,0-1.08,0-1.63,0l-1.49-.06c-.55,0-1.09-.07-1.63-.12-.88-.07-1.76-.16-2.64-.25S95.9,73,95,72.93a12.84,12.84,0,0,1-2.53-.48l-1.18-.4c-.4-.15-.81-.29-1.22-.42s-.94-.28-1.42-.39-1-.2-1.42-.32-1-.27-1.49-.44-1-.35-1.45-.54l-1.5-.61-1.43-.59-1.46-.59-1.39-.57-1.24-.5-1.39-.58L74.6,66l-1.27-.53-1.28-.58-1.32-.64c-.83-.4-1.65-.83-2.49-1.24s-2-.87-2.95-1.27c-.53-.22-1.07-.42-1.61-.62l-.8-.29-.76-.25h0l-1.06-.31L60,60q-.56-.14-1.11-.24l-1.09-.22-1-.16c-.37,0-.74-.12-1.11-.16l-1.12-.13-.47,0-.61,0-.38,0h-.43c-.25,0-.5,0-.74,0l-1.14.13-1,.16c-.7.12-1.4.26-2.09.41l-.81.19c-.31.08-.61.18-.91.27l-1.71.59-1.77.68c-.31.12-.61.26-.92.4l-.42.2-.49.25-1.51.8-.69.39-.74.47-1.36,1c-.43.33-.84.68-1.25,1h0c-.53.48-1,1-1.53,1.51s-1,1-1.44,1.47-1,1-1.52,1.55l-.78.79c-.23.24-.45.49-.67.74s-.52.63-.77,1-.49.67-.72,1v0c-.19.3-.37.59-.54.9s-.33.62-.49.94l0,0A22.22,22.22,0,0,0,25.88,78c-.11.36-.22.73-.31,1.09s-.22.84-.3,1.27v0A23,23,0,0,0,25,82.76v.65c0,.2,0,.4,0,.6l.12.88c.05.28.11.56.17.84v0A13.67,13.67,0,0,0,25.7,87.24Zm125-3.48v1.45c0,.45,0,.91,0,1.36a.18.18,0,0,0,.07,0l.44-.32c.25-.17.49-.36.73-.54l.76-.62h0q.47-.42.9-.87l.45-.49q.21-.21.42-.45l.43-.47.45-.45c.31-.32.62-.64.92-1s.6-.69.88-1.06l.44-.57.37-.54h0c.28-.42.56-.85.83-1.28s.5-.82.75-1.23.49-.85.73-1.28.47-.84.7-1.27l.15-.3h0s0,0,0,0h0a.59.59,0,0,1,0-.08h0v0l.06-.12v0l0,0v0c.24-.48.49-1,.73-1.42v0l.07-.14.42-.82h0c.15-.3.3-.61.44-.92s.25-.59.37-.89c.25-.6.48-1.21.7-1.83v0c.11-.3.21-.61.32-.91l.32-.9h0v0h0c.15-.46.3-.91.44-1.37s.32-.94.45-1.43l.39-1.44c.12-.48.24-1,.35-1.45.06-.26.11-.51.16-.76v0q.15-.76.27-1.53c.08-.47.16-.94.21-1.41.13-1,.23-2,.31-3,0-.12,0-.24,0-.35a5.21,5.21,0,0,0,0-.55c0-.2,0-.41,0-.61l0-1.25c0-.38-.05-.77-.06-1.15s0-.8-.06-1.2-.07-.84-.13-1.25-.12-.89-.21-1.33v0c0-.08,0-.16-.05-.23v0a12.75,12.75,0,0,0-.43-1.58c-.12-.36-.27-.71-.41-1.06s-.3-.72-.48-1.07c-.07-.13-.14-.26-.22-.38s-.31-.4-.47-.6a4.68,4.68,0,0,0-.39-.38,1.09,1.09,0,0,0-.17-.13l-.42-.24a5.79,5.79,0,0,0-.57-.25l-.38-.11-.37,0h-1l-.53.06h-.38c.09.21.18.42.26.63L161,41c.07.22.13.45.19.68s.1.43.15.65c0,0,0,0,0,0v0h0v.06h0s0,0,0,0c.1.51.19,1,.27,1.52,0,.25.07.5.1.75l.06.78v0h0c0,.23,0,.45,0,.68v0c.07,1,.07,1.9.07,2.86,0,.47,0,1,0,1.43s-.07.94-.12,1.41c-.09.85-.15,1.7-.28,2.55s-.27,1.71-.45,2.56v0s0,.07,0,.11h0v0c-.1.47-.19.94-.28,1.41s-.21.93-.32,1.39c-.21.9-.42,1.81-.64,2.71s-.52,1.82-.8,2.73l-.45,1.37c-.14.45-.28.9-.43,1.35s-.28.86-.43,1.29-.33.9-.51,1.34-.33.88-.51,1.31l-.57,1.35q-.21.51-.45,1c-.07.17-.16.34-.24.51s-.17.33-.25.49h0l-.05.09v0l0,.08c-.2.41-.38.83-.57,1.24l-.31.64-.3.66-.6,1.29c-.2.42-.41.85-.64,1.26l-.58,1-.57.9a6.83,6.83,0,0,0-.43.72l-.21.38h0A.33.33,0,0,1,150.66,83.76Zm4.7,2.21a7.27,7.27,0,0,0,.8.22l.37,0a8.61,8.61,0,0,0,.88,0h1l1,0c.32,0,.64,0,1,0h0a9.81,9.81,0,0,0,1.2-.14c.44-.11.87-.25,1.29-.4h0l.67-.25.7-.32c.45-.21.92-.41,1.36-.63h0a20.79,20.79,0,0,0,1.93-1.14c.58-.41,1.11-.88,1.65-1.34l0,0c.17-.16.35-.32.51-.49l.51-.55c.44-.5.87-1,1.28-1.54s.84-1.1,1.23-1.67c.18-.26.35-.52.52-.79s.37-.55.54-.84l.51-.83q.25-.45.48-.9l0,0c.11-.23.21-.46.3-.7s.13-.42.19-.64.15-.45.23-.67c.17-.44.36-.87.55-1.3.35-.83.65-1.69,1-2.54l0-.08h0v0h0a.42.42,0,0,1,0-.1l0,0,0-.08h0l0-.12h0v0c.12-.35.24-.7.33-1s.22-.79.3-1.19v0c0-.23.08-.47.11-.72s.05-.46.06-.69v0c0-.44,0-.88,0-1.32s0-1,0-1.43h0c0-.41-.06-.82-.1-1.23l-.12-1.26c-.05-.43-.09-.87-.14-1.31s-.12-.85-.19-1.27-.13-.72-.2-1.07c-.13-.62-.29-1.23-.47-1.83-.09-.3-.18-.59-.26-.89s-.18-.59-.28-.88-.14-.38-.22-.56-.17-.36-.26-.54l0,0a14.48,14.48,0,0,0-.83-1.49c-.15-.21-.3-.41-.46-.61a.28.28,0,0,1-.11-.13l-.24-.29c-.44-.48-.91-1-1.37-1.42l-.68-.7-.34-.36-.33-.3c-.22-.19-.46-.36-.68-.55s-.47-.39-.7-.59l-.74-.58c-.22-.18-.45-.36-.68-.52s-.54-.31-.82-.45l-.93-.46-.24-.12c.09.21.18.42.26.63.15.39.29.78.41,1.18s.2.82.29,1.23v0c.1.48.17,1,.23,1.45,0,.26.07.51.09.77,0,0,0,0,0,.07l.06.06.07.05.3.16.34.18.69.42a5.38,5.38,0,0,1,.66.52,5.73,5.73,0,0,1,.56.54l0,0a6.13,6.13,0,0,1,.56.7h0l.06.08h0l.06.08h0l0,0c.2.3.38.61.56.92s.35.66.51,1a16.08,16.08,0,0,1,.85,2.07,11.5,11.5,0,0,1,.31,1.11c.09.36.18.73.24,1.09s.13.71.19,1.07.13.72.18,1.09c.1.72.21,1.45.25,2.18s.08,1.47.09,2.2c0,.53,0,1.05,0,1.57v0a.53.53,0,0,0,0,.13v0A15.11,15.11,0,0,1,173.9,67c-.08.36-.15.73-.24,1.09s-.18.69-.29,1-.21.7-.34,1-.26.7-.39,1-.26.66-.4,1-.27.64-.41,1c-.3.66-.61,1.32-.94,2s-.68,1.26-1,1.87q-.3.48-.63.93c-.21.3-.42.59-.65.87s-.46.58-.7.86-.5.56-.77.83-.49.5-.75.73a7.28,7.28,0,0,1-.88.67,6.24,6.24,0,0,1-1,.54l-.48.19-.53.19a9.26,9.26,0,0,1-1.07.25l-.5.09a4,4,0,0,1-.5.06c-.35,0-.71,0-1.06,0h-1.86a2.4,2.4,0,0,1-.28,0,8.51,8.51,0,0,1-1-.18,5,5,0,0,1-.94-.32l-.31-.13,0,0c-.16.17-.33.33-.49.49l-.47.52c-.16.17-.31.34-.48.51l-.47.51c-.15.16-.31.31-.47.46l.14.08.36.18.74.38,0,0A5.24,5.24,0,0,0,155.36,86Zm-2.69-12.3c-.17.39-.33.79-.48,1.18s-.31.8-.45,1.21-.28.77-.43,1.16a5.77,5.77,0,0,0-.22.58c-.09.26-.16.53-.24.79a.21.21,0,0,1-.06.1l0,.17a2.14,2.14,0,0,1-.09.34l0,.09v.25c0,.63,0,1.25,0,1.88V82.7c.15-.27.33-.53.5-.79s.47-.76.7-1.14l.35-.61.31-.59v0c.17-.35.33-.69.49-1l.51-1.11.54-1.12c.16-.35.3-.7.48-1h0l0-.1.25-.48c.41-.84.77-1.72,1.14-2.58.18-.43.35-.87.52-1.3s.36-.92.53-1.39l.05-.12.42-1.28c.15-.45.3-.89.44-1.34s.3-.92.44-1.38.27-.86.4-1.3.28-.94.41-1.42.21-.88.32-1.33l.33-1.39c.11-.47.22-.93.32-1.39a2,2,0,0,1,.05-.24v0c.09-.44.17-.88.26-1.32v0l0-.12h0v0h0c.18-.93.34-1.86.47-2.8.07-.46.11-.93.15-1.39s.11-1,.15-1.45l0-.3h0v0h0v0h0l0-.54c0-.2,0-.39,0-.59V48.57c0-.76,0-1.53-.06-2.3v-.08h0c0-.32-.05-.65-.07-1a22.3,22.3,0,0,0-.39-2.58h0v0a.09.09,0,0,1,0,0v0h0s0,0,0,0a10,10,0,0,0-.37-1.4l0,0c-.18-.49-.36-1-.58-1.44-.12-.21-.24-.42-.37-.63l-.2-.26-.14-.15-.22-.16-.07,0-.15-.07c-.31-.1-.64-.17-1-.25l-.33,0h-.56l-.11,0-.08,0-.05,0,.27.69c.14.41.26.83.36,1.25s.17.86.24,1.3.15.9.2,1.35.09.93.12,1.39,0,.88.05,1.32,0,.93,0,1.4,0,.9,0,1.35-.06.9-.09,1.35c-.07.89-.15,1.77-.23,2.66s-.19,1.85-.29,2.78q-.12,1-.27,2c-.09.69-.2,1.38-.33,2.06v0a2,2,0,0,1-.05.24v0c0,.17-.07.33-.1.5v0c0,.08,0,.15,0,.23v0a.83.83,0,0,0,0,.15.59.59,0,0,1,0,.13c-.1.46-.19.92-.3,1.37s-.2.89-.3,1.33-.19.85-.3,1.26-.23.86-.33,1.29c-.19.83-.37,1.66-.62,2.47l-.36,1.15c-.13.4-.25.8-.39,1.2h0l0,.11-.15.51c-.05.17-.08.35-.12.52a10.09,10.09,0,0,1-.28,1h0l0,0h0C153,72.87,152.83,73.27,152.67,73.67Zm4.91,8.8h0l.48.08.26,0h.28c.43,0,.85,0,1.28,0s.84,0,1.26,0h0a5.59,5.59,0,0,0,.7-.09l.72-.13.45-.1.45-.14a9,9,0,0,0,1-.41,7.45,7.45,0,0,0,.71-.43l.36-.25c.13-.1.26-.2.38-.31h0c.21-.19.41-.39.62-.6s.44-.45.65-.69a27,27,0,0,0,1.86-2.4c.28-.43.55-.88.8-1.33s.47-.88.69-1.32h0c.32-.63.61-1.29.9-1.94.14-.33.28-.65.41-1l.39-1,.3-.82c.15-.44.28-.88.4-1.33s.22-.89.31-1.33v0c.07-.37.14-.73.18-1.1s.08-.73.1-1.09h0v0h0v-.08c0-.61,0-1.21,0-1.82s-.05-1.25-.08-1.88h0c0-.35-.06-.69-.1-1s-.11-.75-.16-1.13-.12-.72-.18-1.08-.12-.72-.19-1.08c0-.07,0-.13,0-.2a17.16,17.16,0,0,0-.53-2c-.12-.35-.26-.7-.41-1.05s-.28-.63-.43-.95h0v0c-.29-.55-.58-1.1-.92-1.62v0l-.09-.13,0,0-.06-.08h0l-.06-.1,0,0c-.11-.15-.22-.31-.34-.45l-.15-.16c-.15-.16-.31-.31-.47-.46l-.3-.25-.3-.23c-.24-.15-.48-.3-.73-.44l-.37-.19,0,.66c0,.24,0,.48,0,.72,0,.5,0,1,0,1.48,0,.27,0,.53,0,.8s0,.53,0,.8c0,.49-.07,1-.12,1.48s-.11,1-.16,1.49c0,.2,0,.4-.08.61a.3.3,0,0,1,.29.3v.07s0,0,0,.06l0,0c.1.14.21.27.32.41s.31.34.45.52a3.06,3.06,0,0,1,.21.29l.2.31a6.58,6.58,0,0,1,.62,1.28h0v0h0a.14.14,0,0,0,0,.06h0v0h0a12.91,12.91,0,0,1,.53,1.84c.06.31.1.62.15.93s.09.64.11,1,0,.65,0,1,0,.62,0,.94a15.63,15.63,0,0,1-.12,1.93c0,.31-.09.61-.14.92s-.1.62-.17.92a14.44,14.44,0,0,1-.51,1.85h0l0,.12,0,0,0,.07c-.16.47-.34.93-.54,1.39s-.43,1-.66,1.41l0,0,0,.08v0a11.38,11.38,0,0,1-1,1.66q-.27.39-.57.75a7.27,7.27,0,0,1-.65.7c-.23.21-.46.43-.7.62s-.54.35-.81.51-.54.34-.82.49a6.81,6.81,0,0,1-.82.39,10.77,10.77,0,0,1-1.57.44l-.75.19c-.26.07-.53.13-.79.18h0a3.89,3.89,0,0,1-.47.09l-.46,0-.46,0h-.28l-.12,0h-.2l0,0c-.47.61-1,1.2-1.48,1.76l.45.19c.25.08.5.14.76.2Zm2.67-5.89c-.25.44-.52.86-.77,1.29s-.54.85-.81,1.26c-.11.18-.23.35-.34.52l.29,0h0l.53,0a4.68,4.68,0,0,0,.54-.09h.07l.67-.16.73-.18.72-.17.71-.22a5.31,5.31,0,0,0,.55-.23l.39-.21.44-.26c.29-.17.58-.34.87-.53a4.46,4.46,0,0,0,.43-.33,8.62,8.62,0,0,0,.75-.73,13.69,13.69,0,0,0,.88-1.13,12.81,12.81,0,0,0,.83-1.44h0l0,0,0-.07v0c.22-.44.43-.89.63-1.34s.36-.9.53-1.36h0l0-.07h0l0-.06h0l0,0h0a14.29,14.29,0,0,0,.51-1.84,22.77,22.77,0,0,0,.37-2.61c0-.22,0-.45,0-.68v-.74c0-.46,0-.92,0-1.39a19.81,19.81,0,0,0-.28-2,15.43,15.43,0,0,0-.48-1.6h0v0h0l0-.08h0a5.17,5.17,0,0,0-.28-.64,6.56,6.56,0,0,0-.47-.81h0a6.12,6.12,0,0,0-.39-.5h0c-.14-.16-.29-.31-.42-.47l-.14-.19v0c-.09.49-.16,1-.26,1.48s-.2,1-.31,1.47-.24,1-.37,1.46-.24.94-.38,1.4a.19.19,0,0,1,0,.1l0,.05c0,.13.09.25.14.38s.11.29.16.43c.1.29.22.58.29.87s.09.31.12.47.06.33.08.5.07.64.08,1,0,.62,0,.93,0,.63,0,.94h0a9.24,9.24,0,0,1-.11.92,7.62,7.62,0,0,1-.24.94,6,6,0,0,1-.36.88,8.68,8.68,0,0,1-.46.85c-.08.14-.17.28-.26.42h0a.21.21,0,0,1,0,.06,6.34,6.34,0,0,1-.61.76,8.16,8.16,0,0,1-1.46,1.24,8,8,0,0,1-.81.46c-.24.11-.48.19-.72.28h0l-.67.21-.4.09h0a.27.27,0,0,1-.12,0h-.07C160.48,76.18,160.37,76.38,160.25,76.58Zm-8.37-6.46h0c-.13.38-.28.77-.42,1.15,0,.15-.1.3-.14.46s-.09.35-.13.53a8.07,8.07,0,0,1-.29,1c-.08.22-.16.45-.25.66,0,0,0,.09,0,.13l0,.08v0c0,.06,0,.12,0,.17l-.08.21a.58.58,0,0,1-.18.25c0,.34.07.68.11,1,0,.59.11,1.19.15,1.78l.12-.33c.07-.17.14-.35.2-.53l.23-.62c.14-.4.28-.79.44-1.18s.34-.88.52-1.31.37-.89.53-1.34h0a.24.24,0,0,1,0-.08c.11-.32.2-.65.28-1a8.32,8.32,0,0,1,.26-1h0s0-.08.05-.13c.14-.42.27-.84.41-1.27s.27-.86.4-1.29.23-.86.33-1.29.21-.89.32-1.34.2-.76.29-1.14.18-.79.27-1.19.19-.78.28-1.18l.27-1.28v0c0-.06,0-.11,0-.17v0l0-.21v0l0-.23v0l.11-.5c0-.08,0-.16,0-.24v0c.17-.87.29-1.74.41-2.62s.23-1.85.32-2.78.17-1.67.25-2.5.13-1.68.19-2.52.06-1.57.06-2.36c0-.37,0-.74,0-1.11s0-.79-.06-1.18c0-.57-.09-1.13-.18-1.69s-.17-1.11-.28-1.66v0a11.09,11.09,0,0,0-.41-1.5,10,10,0,0,0-.49-1.17,10.72,10.72,0,0,0-.54-.93,7.36,7.36,0,0,0-.55-.7,9.57,9.57,0,0,0-.77-.79h0a2.88,2.88,0,0,0-.34-.27l0,0c-.15-.1-.3-.2-.46-.29l-.08,0h0l-.12,0h-.6l-.4,0-.22.07-.31.13-.23.14-.19.14-.11.12a.1.1,0,0,0,0,.05l0,.07a2.5,2.5,0,0,0-.15.38v0h0v0a.51.51,0,0,1,0,.13c.15.16.3.33.44.51s.42.5.62.76.37.52.54.78h0v0h0a12.12,12.12,0,0,1,1.4,2.87h0v0h0c.14.38.26.77.39,1.15a11.66,11.66,0,0,1,.31,1.16c.09.39.17.79.23,1.18s.1.8.13,1.2.11,1.1.14,1.65v0c0,.41.05.83.06,1.24s0,.84,0,1.26,0,.84,0,1.26,0,.81,0,1.22,0,.85-.05,1.27,0,.84,0,1.26-.06.84-.1,1.26-.07.8-.1,1.2c-.08.83-.19,1.66-.31,2.48s-.25,1.61-.39,2.41c0,.23-.08.46-.13.68v0l0,.11a.3.3,0,0,1,0,.1l0,.16c0,.11,0,.21-.07.32s-.08.39-.13.58c-.08.39-.17.78-.27,1.16s-.22.81-.33,1.21c-.16.58-.33,1.16-.49,1.75-.08.27-.16.55-.25.83s-.18.55-.28.82h0l0,.06Zm9.76,3.93c-.21.42-.44.84-.68,1.25a7,7,0,0,0,.69-.21h0l.06,0h0a7.92,7.92,0,0,0,.8-.33,7.24,7.24,0,0,0,.71-.41,8.07,8.07,0,0,0,.73-.58l.33-.3.3-.34a4.82,4.82,0,0,0,.44-.55h0l0-.06h0a9.25,9.25,0,0,0,.54-.92l0,0a10.14,10.14,0,0,0,.46-1.07c.09-.29.17-.58.23-.87a7.86,7.86,0,0,0,.11-.83h0V68.8h0v0h0c0-.34,0-.68,0-1s0-.68,0-1a8.86,8.86,0,0,0-.12-1,6.74,6.74,0,0,0-.24-.88l-.24-.65c-.1.34-.22.68-.33,1-.2.61-.42,1.22-.64,1.84h0v0h0c-.13.41-.27.81-.42,1.21s-.33.86-.51,1.28-.34.83-.53,1.24-.39.8-.59,1.2h0a1.63,1.63,0,0,0-.11.23,1.09,1.09,0,0,1-.08.15c-.09.19-.19.37-.29.56l-.3.59c0,.08-.08.15-.11.22l-.07.13s0,0,0,0h0l0,.06h0Zm-12-4.65c0,.3.07.6.11.9.08.59.13,1.18.2,1.77s.11,1,.16,1.48l.21-.58q.12-.36.21-.72c.06-.26.11-.53.19-.79.16-.51.36-1,.54-1.5l0-.06s0,0,0-.06q.19-.56.36-1.11c.12-.38.23-.77.34-1.15l.32-1.16c.11-.4.23-.81.33-1.21.17-.71.33-1.43.48-2.15v0a.5.5,0,0,1,0-.12s0,0,0-.06c.16-.79.29-1.59.41-2.39s.23-1.63.33-2.45c.07-.51.11-1,.15-1.54s.09-1,.13-1.46h0v0q0-.6,0-1.2c0-.44,0-.88,0-1.31s0-.82.05-1.23,0-.82,0-1.23c0-.77,0-1.54-.06-2.31v0c0-.08,0-.16,0-.24-.05-.59-.1-1.18-.16-1.77a16.74,16.74,0,0,0-.24-1.75v0h0c-.08-.41-.18-.81-.29-1.21-.06-.19-.12-.37-.19-.56s-.13-.41-.2-.61h0c0-.08-.05-.16-.08-.25h0v0l-.33-.86c-.12-.29-.26-.58-.4-.86l0,0c-.1-.18-.19-.36-.3-.54l-.33-.53-.16-.23c-.18-.27-.37-.54-.57-.79l-.64-.77-.46-.47h0l-.21-.17-.25-.19-.25-.16-.29-.15,0,0-.27-.12-.26-.11-.14,0-.27,0h-.43c-.21,0-.41,0-.62.08l-.36.1-.33.15-.1.06,0,0-.1,0-.06,0h0a.18.18,0,0,0-.09.06.14.14,0,0,0,0,.07.08.08,0,0,0,0,.06h0a.23.23,0,0,0,.08.12l.1,0h0l.07,0h.08l0,0v0l.06,0,.07,0,0,0h0l.08.06c.12.08.23.17.34.26a6.78,6.78,0,0,1,.69.62q.33.31.63.66l.32.36a2.88,2.88,0,0,1,.26.35l0,0h0l.06.09,0,0a13.39,13.39,0,0,1,1,1.68c.13.29.26.58.37.87s.2.64.3,1,.18.6.26.91.16.61.23.92.16.62.25.93.17.6.24.9c0,.1.05.21.07.31h0v.07c.12.61.17,1.24.23,1.86,0,.32.05.64.06,1l0,1c0,.31,0,.62,0,.94s0,.64,0,1,0,.64-.05,1,0,.6,0,.91,0,.65-.07,1-.06.63-.1.94l-.12.94c0,.31-.08.62-.13.94s-.11.66-.18,1h0v.09c-.13.62-.32,1.22-.47,1.84l-.24.93c-.09.31-.18.62-.26.93l-.21.76c-.06.23-.13.45-.18.68l0,.12v0a1.29,1.29,0,0,1-.05.21v0s0,0,0,.08a.42.42,0,0,1,0,.1,1.33,1.33,0,0,1-.05.19,1.05,1.05,0,0,0,0,.19,3.63,3.63,0,0,1-.1.45h0v0a.27.27,0,0,1-.1.16l0,.22c0,.29.06.58.1.86q.09.87.15,1.74h0l0,.21v0C149.62,68.8,149.64,69.1,149.67,69.4Zm28.75-5.92c0,.23,0,.45,0,.68.15,0,.31,0,.47-.08.4-.08.81-.19,1.21-.28.58-.14,1.17-.3,1.74-.49h0c.39-.14.78-.3,1.16-.47l1-.43c.79-.35,1.58-.71,2.36-1.09s1.46-.78,2.18-1.2,1.6-1,2.38-1.47l0,0c.63-.42,1.23-.86,1.83-1.31s1.2-.92,1.77-1.42h0c.44-.39.86-.78,1.28-1.19s.77-.77,1.15-1.17L198,52.38l1.15-1.26,0,0c.51-.59,1-1.15,1.55-1.73h0l0,0h0c.57-.65,1.09-1.34,1.68-2,.3-.31.6-.62.91-.91s.67-.57,1-.84a24.9,24.9,0,0,1,2.05-1.49c.75-.46,1.51-.89,2.29-1.29s1.78-.85,2.67-1.29l1.14-.61c.41-.22.81-.46,1.21-.69.8-.44,1.59-.9,2.39-1.35.43-.25.87-.51,1.31-.75l1.31-.7c.41-.22.83-.42,1.25-.63l1.31-.65,2.39-1.18L226,33.85h0c.92-.46,1.82-.93,2.73-1.4s1.8-1,2.69-1.44l1.29-.73c.43-.24.87-.47,1.29-.72.88-.49,1.73-1,2.59-1.55.42-.25.83-.51,1.24-.78l1.31-.86,1.2-.77,1.34-.85c.87-.55,1.75-1.1,2.64-1.63.43-.27.87-.53,1.31-.79l1.3-.79c.87-.53,1.74-1.06,2.62-1.58l1.25-.72c.42-.24.84-.49,1.27-.72l1.21-.65c.42-.23.83-.47,1.24-.71l1.31-.76c.44-.26.89-.51,1.34-.76.88-.5,1.75-1,2.63-1.53s1.65-.91,2.48-1.38l1.39-.76,1.39-.74c.86-.47,1.7-1,2.53-1.49s1.53-.88,2.27-1.37h0l1-.66c.27-.19.55-.37.81-.58l.16-.15,0,0a1,1,0,0,0,.13-.16l0,0,.09-.15.06-.14s0,0,0-.06a.5.5,0,0,0,0-.12V6.19c0-.05,0-.1,0-.15a1.18,1.18,0,0,0-.07-.2l0,0-.06-.16-.57.47c-.34.29-.7.56-1.07.82-.81.55-1.66,1-2.5,1.53L265.24,10c-.84.47-1.66,1-2.5,1.43s-1.7.95-2.54,1.45l-1.23.73-1.27.73c-.42.24-.85.46-1.28.68l-1.21.63c-.84.44-1.7.86-2.55,1.28h0c-.42.22-.85.43-1.27.66l-1.25.7c-.83.48-1.65,1-2.48,1.48l-1.26.74c-.41.24-.82.47-1.24.69l-2.61,1.37L240,23.92l-2.52,1.43L235,26.8l-1.31.77-1.23.7c-.82.46-1.64.92-2.45,1.39s-1.75,1-2.62,1.5l-2.57,1.46c-.86.48-1.7,1-2.55,1.49l-2.56,1.53c-.81.5-1.64,1-2.48,1.42l-2.62,1.4c-.87.47-1.73,1-2.59,1.47-.71.41-1.41.82-2.13,1.2l-2.3,1.22c-.74.38-1.47.76-2.19,1.16-.36.2-.72.39-1.07.6s-.77.46-1.14.71h0l0,0h0l-.54.38-.5.42c-.3.27-.58.55-.85.84l-.23.24-.11.12-.07.08,0,0-.09.11c-.16.18-.3.36-.44.54-.53.68-1,1.38-1.54,2.06-.29.37-.6.73-.9,1.09s-.58.65-.87,1-.58.58-.88.87l-1,.94c-.63.59-1.26,1.17-1.92,1.72-.34.29-.69.57-1,.85l-1,.84c-.66.53-1.31,1.07-2,1.56l-1.13.75-1.14.71c-.35.22-.7.44-1.06.65l-.52.29-.58.31c-.42.21-.86.4-1.3.58s-.83.31-1.24.45-.85.25-1.27.35l-1.25.28-.7.15h0l-.24,0-.08,0a.33.33,0,0,1-.24-.12Zm-30.23-8.54c0,.6,0,1.2,0,1.79v1.08c0,.16,0,.32,0,.48a.32.32,0,0,1-.1.22c.23,1,.39,1.94.57,2.92s.33,1.71.46,2.57v-.08c.06-.26.14-.53.21-.79s.17-.61.25-.92l.25-.91c.12-.43.22-.86.34-1.29s.23-.85.32-1.28c0,0,0-.06,0-.08v0h0q.18-.95.3-1.89c0-.31.07-.63.11-.94s.08-.62.1-.93,0-.32,0-.48h0v0c0-.61.06-1.22.1-1.84s0-1.28,0-1.93,0-1.2-.06-1.8l-.09-1.09a10,10,0,0,0-.16-1.1h0l0-.11h0c-.07-.32-.14-.63-.23-.93s-.17-.6-.25-.91c-.15-.6-.29-1.21-.47-1.81-.11-.38-.23-.77-.36-1.15a10.36,10.36,0,0,0-.47-1.08c-.12-.23-.24-.46-.38-.68s-.29-.46-.44-.69l-.06-.09,0,0,0-.07,0,0a4.45,4.45,0,0,0-.38-.48l0,0-.55-.59c-.18-.19-.36-.37-.56-.55l-.37-.31-.44-.32a2.56,2.56,0,0,0-.35-.22l-.39-.21-.8-.41a9.37,9.37,0,0,0-.86-.38l-.29-.08a1.65,1.65,0,0,0-.32,0,4.87,4.87,0,0,0-.54,0c-.23,0-.47,0-.7.09l-.29.08a1.69,1.69,0,0,0-.31.13l-.2.12q-.19.14-.39.3l-.29.29a.91.91,0,0,0-.11.16c0,.05-.07.11-.11.17l.5.16a4.11,4.11,0,0,1,.83.44l.82.53a4,4,0,0,1,.39.29l.38.33c.24.21.47.42.69.65a5.2,5.2,0,0,1,.61.79c.18.27.35.53.51.81s.29.57.43.86l.39.85a16.35,16.35,0,0,1,.7,1.8c.1.31.19.63.28,1s.17.61.25.91.16.63.23.95.14.59.22.89.17.67.24,1h0l0,.13v0h0c0,.21.09.42.13.63h0l0,.08v0c.06.27.11.55.16.82s.1.54.14.81.07.54.09.81.05.53.07.8h0C148.14,53.76,148.16,54.35,148.19,54.94ZM132,57.6l1.59.12h1.22l.36,0,.38,0,.4,0h0l1,0,.46,0,.4,0h.49l.41,0h.19a.32.32,0,0,0,.26-.33.31.31,0,0,0-.25-.29,1.29,1.29,0,0,0-.34,0l-.24,0-.45,0-.58.06-.68,0-.8,0h0l-.44,0h0c-.32,0-.64,0-1,0s-.65,0-1,0c-.51,0-1-.07-1.54-.12s-1-.19-1.55-.29h0l-.53-.09-.48-.1-.45-.08-.5-.07h-.21c-.23,0-.46-.1-.69-.15L126.8,56h0l-.08,0-.78-.24c-.24-.09-.48-.17-.71-.28h0l0,0a6.07,6.07,0,0,0-.7-.29l-.63-.25a4,4,0,0,0-.66-.23l-.16,0-.18,0-.11,0h0a.51.51,0,0,0-.15-.07.22.22,0,0,0-.23.15.38.38,0,0,0,.1.32l.15.17a.93.93,0,0,0,.14.14l.09.07.17.13.27.13.47.19.48.15.44.13h0l.49.16.6.16h0l1,.26h0l1,.25c.26.07.52.11.78.16s.49.1.74.15.52.09.79.12l.83.12.4.06a2.87,2.87,0,0,0,.41.05h0l.22,0H132Zm15.43-1.31c.05.13.09.27.14.41,0-.38,0-.77,0-1.16s0-.76,0-1.14l-.06-1.12v-.07c0-.52-.08-1.05-.15-1.57,0-.26-.09-.52-.13-.77s-.11-.54-.16-.8v0l0-.08v0h0c0-.22-.09-.43-.14-.64v0l0-.09v0c0-.08,0-.16-.05-.24v0c-.12-.6-.3-1.18-.44-1.77-.07-.31-.14-.63-.22-1l-.25-.91c-.11-.41-.23-.8-.36-1.2s-.37-1-.59-1.46c-.1-.23-.21-.45-.32-.68l-.33-.72a12.24,12.24,0,0,0-.71-1.15,5.72,5.72,0,0,0-.37-.49c-.29-.32-.61-.6-.93-.89s-.37-.29-.56-.43l-.64-.41c-.21-.13-.42-.26-.64-.38a1.69,1.69,0,0,0-.27-.11l-.17-.06h0l-.05,0-.13-.05-.12,0h-.08l-.1,0-.11,0-.08,0h-.24l-.17,0h-.61c-.29,0-.58,0-.87,0h0a12.58,12.58,0,0,0-1.37.21h0l-.11,0-.11,0-.22,0-.4.13a11.91,11.91,0,0,0-1.21.52,6.91,6.91,0,0,0-.65.38l0,0a5.61,5.61,0,0,0-.55.41h0l0,0h0a4.68,4.68,0,0,0-.38.39c-.19.22-.37.44-.54.68a5.33,5.33,0,0,0-.31.51l-.06.14c-.05.16-.09.31-.13.47h.08l.07,0,.36-.14a3,3,0,0,1,.41-.09,8.47,8.47,0,0,1,.85-.09c.3,0,.6,0,.91,0s.6,0,.9,0a12.19,12.19,0,0,1,1.79.31,7.39,7.39,0,0,1,.84.23,7.51,7.51,0,0,1,.76.36,7.86,7.86,0,0,1,1.25.81,7.43,7.43,0,0,1,.62.52c.18.17.35.35.51.53.33.39.66.78,1,1.18s.64.82.93,1.25h0l0,0h0c.33.49.61,1,.91,1.53s.61,1,.9,1.57.58,1,.85,1.56a16.28,16.28,0,0,1,.74,1.65c.26.67.46,1.36.7,2h0v0h0C147.07,55.15,147.28,55.72,147.47,56.29Zm-14.73-2.16c0,.28,0,.56.09.84s0,.34,0,.52h1.24c.63,0,1.25,0,1.87,0h0l.57,0c0-.32-.07-.63-.12-.94s-.11-.77-.19-1.16v0s0-.11,0-.17h0a19,19,0,0,0-.55-2v0h0c-.1-.28-.21-.56-.32-.84s-.25-.55-.38-.83l-.18-.32-.22-.35q-.39-.57-.84-1.11a10.8,10.8,0,0,0-1-1l-.48-.39a15.2,15.2,0,0,0-1.42-.8h0l-.67-.32c-.24-.11-.49-.21-.74-.3s-.68-.21-1-.32-.69-.19-1-.27l-.24,0c-.26,0-.52,0-.78,0h0l-.15,0-.33,0-.24.06-.17.07c-.08,0-.17.09-.25.15l-.11.08a3.31,3.31,0,0,0-.26.27l0,0,0,0,0,0,.29.07c.3.07.59.15.89.24s.58.16.86.26l.7.25.07,0v0h.08a.38.38,0,0,0,.15,0h0l.12,0,.1,0,.09,0,.08,0h0l.08,0,.1,0,.11,0,.12,0h.25l.1,0h0l.18.12,0,0h0l.13.09.16.13.09.08h0l.18.22.3.42c.18.25.34.52.5.78l.48.8c.14.24.27.48.4.72s.2.39.28.59l0,0,0,.1c0,.09.08.18.11.27l.12.3h0s0,0,0,0v0A16.49,16.49,0,0,1,132.74,54.13Zm-3-5.71h.09a.51.51,0,0,0,.17,0,.33.33,0,0,0,.17-.23.32.32,0,0,0-.08-.28c-.1-.12-.27-.11-.41-.13l-.26,0-.52,0-.56-.07h0l-.7-.09-.72-.12-.7-.14-.66-.14h0l-.35-.08-1.06-.26c-.34-.08-.67-.16-1-.26l-.59-.21-.66-.23-.11,0h0l-.54-.22-.6-.28-.66-.3c-.21-.09-.4-.21-.61-.31l-.31-.15-.29-.14h0a.21.21,0,0,0-.11,0,.1.1,0,0,0-.12,0,.11.11,0,0,0,0,.12.23.23,0,0,0,.07.1l.15.17.14.13.14.1.26.2a2.83,2.83,0,0,0,.28.2l.33.19.63.33.63.29.72.3.67.26a7.75,7.75,0,0,0,.77.26l.76.19h0l.81.21c.28.08.57.14.86.21.5.11,1,.2,1.52.27.24,0,.49.07.73.09l.78.07h0l.54,0,.21,0,.16,0h.06Z"/><path class="cls-1" d="M175.37,49.09a.38.38,0,0,1-.15-.09l0,0-.13-.12a.43.43,0,0,1-.12-.11l-.13-.12h0l0,0h0l-.33-.29h0l-.13-.12-.17-.14-.2-.18-.24-.15a2.2,2.2,0,0,1-.25-.17,1.24,1.24,0,0,0-.22-.18l-.24-.17-.16-.13-.06,0-.21-.08h0a.32.32,0,0,1-.18-.27l0,0-.12-.07a.67.67,0,0,1-.14-.09.29.29,0,0,1-.12-.24.35.35,0,0,1,.12-.25.46.46,0,0,1,.28-.06l.27,0h0l1.26.1a9.89,9.89,0,0,0,1.22,0L176,46l.9-.11.91-.13c.29,0,.58-.07.87-.12a5.07,5.07,0,0,0,.54-.09h0l.87-.2.9-.21.87-.21c.29-.06.58-.11.86-.18l.46-.11a.32.32,0,0,1,.34.27.31.31,0,0,1-.27.34h-.07l-.39.09-.42.1-.39.08-.06.09a.59.59,0,0,1-.31.12l-.21,0-.43.1-.8.17-.88.21-.82.2a11.43,11.43,0,0,1-1.29.18h-.19a.33.33,0,0,1,0,.43l-.05,0a.34.34,0,0,1-.08.32.61.61,0,0,1-.34.12,2.79,2.79,0,0,1-.5,0l-.13,0a.28.28,0,0,1,0,.22l0,.08s0,0-.05.06a.33.33,0,0,1,.06.29h0a.29.29,0,0,1-.23.21l.07.09a.54.54,0,0,1,.1.16.3.3,0,0,1,0,.3.32.32,0,0,1-.24.11Z"/><path class="cls-1" d="M173.43,47h0l-.09,0-.27-.08-.35-.13a3.64,3.64,0,0,1-.59-.37l-.33-.25-.33-.22a.46.46,0,0,1-.24-.41.42.42,0,0,1,0-.1l-.15,0h0l-.13-.05h0a.52.52,0,0,1-.31-.23.32.32,0,0,1,.25-.42.84.84,0,0,1,.34.08l.24.08.15,0,.19,0,.22,0,.75,0,.82,0c.59,0,1.17,0,1.75.05a12.36,12.36,0,0,0,1.36,0c.43,0,.86-.09,1.29-.12s.86-.06,1.3-.08h0l.87-.08c.31,0,.63,0,.94-.09l.91-.15c.29-.06.59-.1.89-.14.57-.07,1.13-.11,1.69-.22.12,0,.25,0,.38-.06h.3a1.05,1.05,0,0,1,.24.06.4.4,0,0,1,.18.16.34.34,0,0,1,0,.34.78.78,0,0,1-.48.31l-.33.09-.31.08c-.13,0-.26,0-.39.06l-.4,0-.29,0a.43.43,0,0,1-.16.05l-.2,0-.43.06-.17,0c-.31,0-.62.1-.93.13h-.13c-.48.07-1,.15-1.43.18l-1.26.08h-.05l-.37,0-.12,0-.26,0h-.25L177,46l-.58,0v0h0a.31.31,0,0,1-.19.32.78.78,0,0,1-.3.07l-.25,0-.49,0h-.44a2.4,2.4,0,0,1-.46,0l-.46-.1h0l-.28,0h0l.09,0h0a.3.3,0,0,1,.15.48.32.32,0,0,1-.24.11A.27.27,0,0,1,173.43,47Z"/><path class="cls-1" d="M123.89,54.92l-.44-.17c0-.28,0-.57,0-.86s0-.62,0-.93c0-.5,0-1,0-1.51l.39.12.21.06c0,.57,0,1.14,0,1.7a11,11,0,0,0,0,1.15c0,.12,0,.24,0,.36a.22.22,0,0,1,0,.14Z"/><path class="cls-1" d="M123.53,50.76h0c0-.19,0-.38,0-.57s0-.64.07-1l.09-.91c0-.29.08-.58.1-.87h0v0h0l.27.06h0l.33.09c0,.32-.07.65-.11,1s-.07.7-.1,1v0c0,.45-.06.9-.07,1.36Z"/><path class="cls-1" d="M124.1,46.77l-.13,0a.39.39,0,0,1,.15,0,.32.32,0,0,1,.18.1Z"/><path class="cls-1" d="M126.84,56.75l0-.07.58.14a.32.32,0,0,1-.19.15h-.08A.3.3,0,0,1,126.84,56.75Z"/><path class="cls-1" d="M126.8,56h0l-.08,0h0l0-.25a3.87,3.87,0,0,1,0-.48c0-.18,0-.35,0-.53,0-.63,0-1.25,0-1.88l0-.7.61.08c0,.44,0,.87,0,1.31s0,1.14,0,1.71l0,.41c0,.14,0,.28.06.41a.15.15,0,0,1,0,.07Z"/><path class="cls-1" d="M126.69,51.47c0-.61.12-1.22.19-1.83a8.26,8.26,0,0,1,.3-1.48h0l.57.08a4.21,4.21,0,0,0-.12.48,13.15,13.15,0,0,0-.22,1.4q-.09.72-.15,1.44Z"/><path class="cls-1" d="M127.59,47.51l-.16,0a.62.62,0,0,1,.18-.18.48.48,0,0,1,.24-.07.32.32,0,0,1,.3.31v0Z"/><path class="cls-1" d="M130.31,57.73a.3.3,0,0,1-.3-.3v-.1h0l.59.08v0a.31.31,0,0,1-.31.3Z"/><path class="cls-1" d="M130.36,56.67h0l-.46-.08a2.11,2.11,0,0,1,0-.25c0-.31-.07-.63-.08-.94a16.35,16.35,0,0,1,0-2c0-.28.05-.57.08-.86l.38,0h0l.2,0c0,.29-.06.59-.09.89v0a15.53,15.53,0,0,0,0,1.93v0c0,.34.05.68.09,1l0,.31Z"/><path class="cls-1" d="M130.26,52h0L130,52l.09-.46a17.39,17.39,0,0,1,.47-1.89l.22-.6h0v0a.13.13,0,0,0,0-.06.32.32,0,0,1,.3-.24.32.32,0,0,1,.3.31.78.78,0,0,1-.07.25c0,.09-.07.19-.11.29a14,14,0,0,0-.48,1.8h0c0,.22-.09.43-.12.65Z"/><path class="cls-1" d="M140.42,63.36h-.1v0l0-.14v0a.39.39,0,0,0-.07-.26.28.28,0,0,0-.27-.1h-.55l-.55,0h.43c.21,0,.42,0,.62,0l.54,0a.32.32,0,0,1,.3.31.31.31,0,0,1-.29.3Z"/><path class="cls-1" d="M131.77,62.57h-.1c-.85,0-1.71-.12-2.56-.22l-1.3-.16-.61-.08-.63,0-.31-.05a.33.33,0,0,0-.22,0l0,0-.16-.07a.67.67,0,0,1-.19-.14.57.57,0,0,1-.11-.16l-.15-.26a1.88,1.88,0,0,1-.12-.18,2,2,0,0,1-.13-.25l0,0,0,0a2.81,2.81,0,0,1-.25-.74c0-.12,0-.25,0-.37l0-.25a.39.39,0,0,1,.31-.37l.2,0a2.41,2.41,0,0,1,.71.06,7.93,7.93,0,0,0,.85.14l1,.1c.61.08,1.23.16,1.84.28l.64.12.7.08.29,0h.2l.91.07.87,0c.6,0,1.21,0,1.8,0l1.56-.06h.12l1.39-.07,1.32,0h0a6.93,6.93,0,0,0,.78-.1h.06s0,.08,0,.12.05.33.08.49l-.36.06q-.33,0-.66.06l-.88,0-.92,0-.49,0h0l-.32,0h-.06l-1,0c-.3,0-.59,0-.89,0-.6,0-1.2,0-1.79,0l-.9-.06-.46,0-.25,0h0l-.16,0h-.11c-.32,0-.64-.06-1-.1l-.89-.17-.93-.14c-.31,0-.61-.08-.92-.11l-.93-.11-.45-.08-.42-.08h-.23c0,.12,0,.24,0,.36s0,.09,0,.14l.12.31,0,.1,0,.08a1,1,0,0,0,.12.23l.18.28.09.16h0l.18.08a5.27,5.27,0,0,0,.68.19l.72.16c.64.14,1.27.28,1.91.38.32.06.64.1,1,.14l.94.13.51.06Z"/><path class="cls-1" d="M140.29,63.19v0a.39.39,0,0,0-.07-.26.28.28,0,0,0-.27-.1h-.55l-.55,0-.65,0h-.26l-.68,0c-.44,0-.89,0-1.34,0l-1.31,0h-.18l-1.32,0c-.44,0-.87,0-1.31,0h-.12c-.85,0-1.71-.12-2.56-.22l-.84-.11-.32-.08-.23-.06a.72.72,0,0,1-.32-.18h-.09l-.37,0-.38,0a.23.23,0,0,1-.14,0l-.09,0h0a2.1,2.1,0,0,1-.41-.31,1.72,1.72,0,0,1-.4-.66,2.54,2.54,0,0,1-.1-.37,1.08,1.08,0,0,1,0-.18.31.31,0,0,1,0-.08h0a.3.3,0,0,1-.17-.14.36.36,0,0,1,0-.25c.09-.29.42-.26.66-.25a.33.33,0,0,1,.27.18.86.86,0,0,1,.23,0c.23,0,.45,0,.68.07l.32,0,.36,0h.1l.08-.05a.5.5,0,0,1,.36,0l.22.08.2.06c.23,0,.47.08.7.12l1,.15.56.11.4,0,1.31.09.66.06.31,0h.59a.3.3,0,0,1,.26-.15c.43,0,.86,0,1.29-.05h0l1.53-.09.75-.05.38,0h.3l.15,0a.3.3,0,0,1,.14.24h.22l.09,0a1.55,1.55,0,0,0,.23-.06.41.41,0,0,1,.39.06.21.21,0,0,1,.1,0,.45.45,0,0,1,.18.18,1.49,1.49,0,0,1,.17.58c0,.12,0,.24,0,.36s0,.22,0,.33a2.33,2.33,0,0,0,.07.25v0a1.55,1.55,0,0,0,.08.23,2.1,2.1,0,0,1,.06.24.38.38,0,0,1-.33.41l-.05,0Z"/><path class="cls-1" d="M138.33,64.9l-.83-.06-1.77-.13-.87-.07-.94-.09h0l-1.51-.12h0l-1.78-.13-.85-.06c-.29,0-.59,0-.88-.07s-.59-.09-.88-.15a7,7,0,0,1-.78-.23,6.22,6.22,0,0,1-.71-.29,2.71,2.71,0,0,1-.37-.21,1.88,1.88,0,0,0-.23-.16,1.07,1.07,0,0,1-.29-.31h0l-.09-.16-.08-.21c0-.08-.08-.15-.11-.23l-.09-.27v0c0-.16-.11-.32-.17-.47s-.09-.22-.13-.33l-.1-.28a1.88,1.88,0,0,1-.14-.46,2,2,0,0,1,0-.35v0a.32.32,0,0,1,.22-.37.31.31,0,0,1,.37.22.76.76,0,0,1,0,.26,1.08,1.08,0,0,0,0,.18v.06s0,0,0,.06.08.2.11.3.1.29.16.43.17.44.25.67a2,2,0,0,0,.08.22.39.39,0,0,0,0,.13.24.24,0,0,0,.11.24.34.34,0,0,0,.07.11h0a.67.67,0,0,0,.15.14l.15.11.06,0a.24.24,0,0,0,.11.09.55.55,0,0,0,.15.08l.17.07.14,0,.15.08a2,2,0,0,0,.35.11,6.35,6.35,0,0,0,.76.13l.25,0c.22,0,.43.07.65.09l1.8.13.33,0h0l.21,0h.25c.23,0,.47,0,.7,0h.1l.52.05h0l.2,0L134,64h.2l1.21.12h0l1.3.09a.11.11,0,0,0,.08,0l.09,0a1.16,1.16,0,0,0,.37,0h.21l.45,0H138c.29,0,.59,0,.88,0l.33,0h.06l.43,0,.49-.06a3.84,3.84,0,0,1,.68,0,.28.28,0,0,1,.18.06,1.93,1.93,0,0,0,0,.24v.24a.26.26,0,0,1-.19.06,5.72,5.72,0,0,0-.58,0c-.17,0-.33,0-.5.06l-.53,0h0l-.45,0h-.47Z"/><path class="cls-1" d="M133.86,58.15l-.2,0h-.09l-.18,0-.46-.06-.59,0h0l-1.91-.14h0a8.09,8.09,0,0,1-.84-.12l-.82-.13-.41-.06-.48-.11-.42-.11a2.68,2.68,0,0,1-.43-.14l0,0a6.18,6.18,0,0,0-.84-.24l-.86-.19-.42-.12-.43-.11-.39-.12-.43-.16a2.58,2.58,0,0,1-.37-.19,3.7,3.7,0,0,1-.33-.21c-.21-.14-.42-.25-.62-.38a1.4,1.4,0,0,1-.39-.33,1.17,1.17,0,0,1-.19-.53,4.13,4.13,0,0,1-.07-.49,4.43,4.43,0,0,1,0-.63,1.1,1.1,0,0,1,0-.31.88.88,0,0,1,.17-.28.91.91,0,0,1,.37-.24.49.49,0,0,1,.24,0,.46.46,0,0,1,.33.21,2.29,2.29,0,0,1,.18.29.32.32,0,0,1-.17.4.31.31,0,0,1-.4-.17v0a.18.18,0,0,0,0-.07l0,0,0,0,0,0h0v0a.28.28,0,0,0,0,.09,4,4,0,0,0,0,.6,3.47,3.47,0,0,0,.06.45.21.21,0,0,0-.08.11.38.38,0,0,0,.1.32l.15.17a1.85,1.85,0,0,0,.14.14l.11.09h0a.83.83,0,0,0,.16.12l.27.13.47.19.48.15.47.14.49.16.6.16h0l1,.26h0l1,.25c.26.07.52.11.78.16s.49.1.74.15.52.09.79.12l.83.12.4.06a3.05,3.05,0,0,0,.41.05h0l.22,0H132c.53,0,1.06.1,1.59.12l.7,0h.52l.36,0,.38,0,.4,0h0l1,0,.46,0,.4,0h.49l.41,0h.19a.33.33,0,0,0,.26-.28l.36,0a.32.32,0,0,1,.3.31.3.3,0,0,1-.31.3,2.68,2.68,0,0,0-.4,0,2,2,0,0,0-.35,0c-.27,0-.53.11-.8.15a6.82,6.82,0,0,1-.79.1,7.31,7.31,0,0,1-.81,0c-.26,0-.51,0-.77,0l-.84,0h-.86Z"/><path class="cls-1" d="M131.43,53l-.86-.06-.87-.07-.49,0-.45-.06c-.29-.06-.59-.1-.89-.15l-1-.13-.94-.13-1-.17-.93-.16c-.31-.07-.62-.12-.93-.2a6.5,6.5,0,0,1-.85-.28l-.43-.16c-.14-.06-.28-.13-.42-.18l-.2-.07h0l-.59-.21-.58-.26h0l-.51-.29c-.19-.1-.38-.2-.55-.31a.31.31,0,0,1-.1-.42v0l.2.11.48.23.5.22.62.26.34.13.28.12c.41.16.83.3,1.24.44l.65.21.64.19.64.16.67.16,1.29.21,1.35.19h0l1.25.18c.43.06.85.11,1.28.15h0l.36,0,.34,0,.3,0,.18,0h.06a.31.31,0,0,0,.25-.28v0h0a2.11,2.11,0,0,1,.26,0,.32.32,0,0,1,.3.31.3.3,0,0,1-.31.3h0l-.25,0h-.39Z"/><path class="cls-1" d="M110.94,144.35l-.09-.16a.27.27,0,0,1,.09.12.5.5,0,0,0,0,.13l0,0A.83.83,0,0,0,110.94,144.35Z"/><path class="cls-1" d="M21,149.94c-.37-.18-.74-.39-1.1-.59h0c.36.2.73.41,1.1.59l.63.27Z"/><path class="cls-1" d="M24.36,151.12l-.7-.21.7.21.37.11Z"/><path class="cls-1" d="M35.47,153.37l-2.6-.39c-.85-.12-1.71-.26-2.56-.42.85.16,1.71.3,2.56.42l2.6.39.87.11Z"/><path class="cls-1" d="M51.46,154.86l-1.31-.08,1.31.08h0Z"/><path class="cls-1" d="M47.47,154.6l-1.41-.12,1.41.12.69.05Z"/><path class="cls-1" d="M40.77,154l-1.37-.14,1.37.14,2.6.26,2.69.22-2.69-.22Z"/><path class="cls-1" d="M111.13,145.13a.29.29,0,0,0,0,.09,2.17,2.17,0,0,1,0,.26,1.62,1.62,0,0,0,0-.22,3,3,0,0,0,0-.42h0C111.13,144.94,111.12,145,111.13,145.13Z"/><path class="cls-1" d="M111.13,144.83h0Z"/><path class="cls-1" d="M105.45,150.94h0l.11-.05Z"/><path class="cls-1" d="M18.11,148.45a.35.35,0,0,1-.16-.2h0l-1.2-.37c-.45-.16-.91-.33-1.35-.53.32.15.65.28,1,.4l.25.12.34.16a2.43,2.43,0,0,0,.37.16l.41.15c.33.13.66.28,1,.4Z"/><path class="cls-1" d="M105.45,151h0Z"/><path class="cls-1" d="M20.92,148.79a13.77,13.77,0,0,0,1.53.65l1.36.41,1.39.4c.49.14,1,.26,1.48.39s1,.25,1.47.36.77.15,1.16.21l1.17.21c.85.15,1.71.27,2.56.39s1.7.25,2.55.36,1.75.24,2.63.33l1.2.12,1.3.13,2.55.24h0l2.64.21,2.76.2c.9.06,1.81.12,2.72.16l1.24.05,1.32,0,2.7,0,2.76,0h2.8l2.7,0,1.92,0c.65,0,1.3,0,1.95-.07,1.25,0,2.51-.08,3.77-.14.95,0,1.9-.06,2.86-.09l2.83-.11c1.81-.09,3.61-.22,5.42-.33l2.64-.17,1.33-.09,1.24-.12,1.38-.13,1.36-.1c.46,0,.92-.08,1.39-.14s.88-.12,1.32-.18c.8-.12,1.61-.24,2.42-.34s1.74-.2,2.61-.34l.16,0c1.08-.19,2.16-.41,3.25-.61l.7-.16s0-.05.07-.05a6.46,6.46,0,0,0,.76-.18l.53-.17.39-.16.09,0h0l0,0a.38.38,0,0,1,0-.13s0-.08,0-.12h0l0-.14-.06-.11a1.3,1.3,0,0,0-.14-.26,2.65,2.65,0,0,0-.21-.26l-.23-.27,0,0-.08-.08,0,0c-.15-.16-.32-.31-.49-.47a5.93,5.93,0,0,0-.69-.52l-.37-.24a5.06,5.06,0,0,0-.44-.26,15.74,15.74,0,0,0-1.45-.66l-1-.39-1-.4c-.68-.27-1.36-.54-2.06-.76l-1-.3c-.38-.11-.75-.22-1.13-.31s-.86-.22-1.29-.31l-1.19-.23c-.82-.15-1.64-.27-2.47-.4-.44-.07-.88-.15-1.33-.21s-.83-.1-1.26-.13c-.83-.07-1.66-.11-2.49-.16s-1.65-.1-2.47-.19-1.68-.2-2.53-.27l-1.28-.1-1.28-.08c-1.67-.09-3.34-.2-5-.26l-2.6-.06-2.64-.07c-.91,0-1.82,0-2.73-.07l-2.56-.12h0c-.79,0-1.59-.09-2.39-.1s-1.69,0-2.54,0H55.66l-1.28,0c-.43,0-.85,0-1.28,0H50.48l-1.31,0H46.53l-1.26,0-1.35.06-1.4.07c-.46,0-.91.05-1.36.09l-1.34.13-1.26.15c-.87.11-1.74.23-2.6.39l-2.68.49-1.36.27q-.63.14-1.26.3l-1.26.34-1.24.35c-.84.25-1.68.48-2.51.75s-1.62.6-2.42.95a9.7,9.7,0,0,0-1,.51c-.19.11-.38.22-.56.34a4.6,4.6,0,0,0-.58.4,2.5,2.5,0,0,0-.46.46,1.27,1.27,0,0,0-.13.19.93.93,0,0,0-.11.19.86.86,0,0,0-.07.21.47.47,0,0,0,0,.16.13.13,0,0,0,0,.06l-.11,0Zm52.78-6.26.94.05-1-.05Z"/><path class="cls-1" d="M19.93,149.35l-.91-.46-.19-.09-.12-.06h0l.31.15.91.46Z"/><polygon class="cls-1" points="104.72 151.3 104.73 151.3 104.73 151.3 104.72 151.3 104.72 151.3"/><path class="cls-1" d="M104.91,151.26Z"/><path class="cls-1" d="M62.32,155h0Z"/><path class="cls-1" d="M111.09,146c0,.13-.06.27-.1.4a2.76,2.76,0,0,1-.2.47l-.06.13a3.45,3.45,0,0,1-.41.57,3.45,3.45,0,0,0,.41-.57l.06-.13a2.76,2.76,0,0,0,.2-.47c0-.13.07-.27.1-.4s0-.09,0-.14S111.1,145.9,111.09,146Z"/><path class="cls-1" d="M104.71,151.3Z"/><path class="cls-1" d="M107.84,149.62c-.24.16-.47.31-.72.45l-.63.34c-.09.06-.19.1-.28.15.09-.05.19-.09.28-.15l.63-.34c.25-.14.48-.29.72-.45l.22-.16Z"/><path class="cls-1" d="M105,151.12l0,.06s0,0,0-.06l.07,0Z"/><polygon class="cls-1" points="104.72 151.3 104.72 151.3 104.72 151.3 104.72 151.3"/><path class="cls-1" d="M86.2,154l-1.3.09-1,.06,1-.06,1.3-.09.82-.06Z"/><path class="cls-1" d="M76.83,154.54l-1.83.07,1.83-.07.87,0Z"/><path class="cls-1" d="M73,154.68c-1.74.09-3.49.14-5.24.21-.47,0-1,0-1.42,0,.47,0,1,0,1.42,0,1.75-.07,3.5-.12,5.24-.21l.72,0Z"/><path class="cls-1" d="M96.66,152.81l-1.2.17,1.2-.17h0Z"/><path class="cls-1" d="M90.2,153.61l-1.37.13,1.37-.13,1.22-.1Z"/><path class="cls-1" d="M100.48,152.23l-.63.12.63-.12,1.22-.24Z"/><path class="cls-2" d="M19.63,149l-.3-.1-.46-.14-.16-.06h0l-.94-.38-.05,0-.41-.15a2.43,2.43,0,0,1-.37-.16l-.34-.16c-.13-.06-.25-.13-.38-.18a6,6,0,0,1-.73-.33l-.29-.18-.21-.12-.43-.27a1.39,1.39,0,0,1-.27-.21l-.17-.19a2.2,2.2,0,0,1-.21-.32,1,1,0,0,1-.14-.36c0-.1,0-.2,0-.3a.87.87,0,0,1,0-.32.74.74,0,0,1,.26-.34l.13-.09a.32.32,0,0,1,.4,0,.3.3,0,0,1,0,.43.21.21,0,0,1-.1.06l-.07.06,0,0v.2a.81.81,0,0,1,0,.16h0a.08.08,0,0,0,0,0,1,1,0,0,0,.1.17,1.33,1.33,0,0,0,.14.19l0,0,.12.13.07.06c.17.12.34.22.51.32l.24.15.32.18a3.49,3.49,0,0,0,.44.2l.42.18c.14.08.29.15.44.22l.41.18.72.27.61.25.52.17.37.12a.3.3,0,0,1-.09.59Z"/><path class="cls-1" d="M56.91,226.09l-1,0h-1l-1,0c-.37,0-.74,0-1.11-.07-.63,0-1.27-.1-1.9-.16s-1.21-.11-1.81-.19-1.28-.2-1.91-.33l-1-.21-.95-.17c-.67-.12-1.33-.26-2-.39l-2-.41q-1-.24-2.07-.51l-1.05-.25c-.31-.08-.63-.14-.94-.21l-1-.24c-.32-.07-.63-.16-.94-.25l-.94-.26-1-.31c-.58-.19-1.17-.36-1.76-.51-.31-.08-.63-.15-.94-.24l-1-.28-2-.64-.87-.26c-.3-.1-.6-.17-.91-.26l-.92-.26-.92-.29-2-.67-.87-.31-1-.34-1.86-.57-.88-.25-1-.26-.84-.21-1-.26c-.85-.22-1.7-.47-2.55-.68l-1.31-.32A9.29,9.29,0,0,1,9.47,215a11.45,11.45,0,0,1-1.1-.57l-1.11-.66c-.37-.23-.72-.49-1.07-.75l-1-.74-.71-.47-.87-.56c-.24-.16-.48-.32-.71-.5a5.39,5.39,0,0,1-.6-.57c-.19-.21-.38-.42-.56-.64s-.4-.52-.6-.79-.32-.44-.47-.67l-.21-.37a3.3,3.3,0,0,1-.19-.43,4.62,4.62,0,0,1-.18-.82c0-.27-.06-.55-.07-.83s0-.62,0-.93,0-.65.08-1,.05-.56.09-.85a8.47,8.47,0,0,1,.19-1c0-.14.07-.27.11-.41s.07-.26.11-.4c.08-.32.15-.65.23-1a13.31,13.31,0,0,1,.6-1.85c.1-.26.2-.51.31-.76s.28-.6.43-.9a5.57,5.57,0,0,1,.41-.76c.16-.26.34-.5.52-.74l.58-.75.58-.79c.19-.25.37-.49.57-.72a7,7,0,0,1,.58-.63c.2-.2.41-.39.62-.58s.52-.42.79-.63c.51-.41,1-.8,1.58-1.16a7.54,7.54,0,0,1,.77-.47L10,189l.9-.42.91-.39,1.82-.79.88-.37.94-.35c.59-.22,1.19-.42,1.79-.62h0l1.25-.41c.46-.14.93-.3,1.4-.43,1-.26,1.91-.49,2.87-.71a12.26,12.26,0,0,1,1.21-.22c.43-.07.86-.11,1.29-.16l.85-.07-.6-1c-.32-.53-.64-1.06-1-1.58s-.69-1.07-1-1.62-.64-1.05-.94-1.59-.65-1.19-1-1.78l-.88-1.67c-.29-.54-.57-1.09-.85-1.64s-.55-1.18-.8-1.77c-.51-1.17-1-2.34-1.47-3.52-.22-.6-.44-1.19-.65-1.79s-.42-1.18-.62-1.77c-.1-.29-.19-.58-.28-.87l-.32-1c-.19-.62-.36-1.24-.54-1.86-.34-1.2-.68-2.4-1-3.62-.13-.61-.27-1.23-.38-1.85s-.21-1.18-.3-1.77c-.2-1.22-.39-2.45-.52-3.69s-.23-2.38-.4-3.57c0,0,0-.09,0-.13s0-.09,0-.13,0-.31.05-.46a3.38,3.38,0,0,0,0-.45h0v0h0v-.39c0-.12,0-.25,0-.37A10.16,10.16,0,0,1,13.1,143l.09-.29.21-.32c.13-.19.27-.38.41-.56a5,5,0,0,1,.45-.56l.25-.27a3.57,3.57,0,0,1,.28-.27l.23-.2.29-.23c.1-.07.19-.15.3-.22l.3-.19a6.85,6.85,0,0,1,.69-.4c.2-.11.41-.21.62-.3l.69-.31a27.7,27.7,0,0,1,2.8-1l1.39-.4c.54-.15,1.08-.3,1.63-.43l.66-.15.74-.16,1.49-.29c.52-.1,1-.19,1.55-.27l1.61-.24c1.06-.15,2.11-.31,3.17-.45l3.07-.4,1.54-.23,1.55-.21c1-.15,2.09-.27,3.13-.38.51-.06,1-.09,1.54-.13l1.56-.11,1.57-.1,1.59-.07c1-.05,2-.11,3.06-.13s2.09,0,3.14-.05l3.21,0c1,0,2,0,3,0l3.12.06c2.08.06,4.15.19,6.22.32q1.5.09,3,.24l2.81.31,1.55.2,1.51.24c1,.15,1.92.25,2.88.39l3,.46c1.06.16,2.13.32,3.19.5s2,.35,3,.55h0l1.85.32.93.15.9.17c1,.18,2,.34,2.94.49l1.42.25q.78.13,1.53.33l1.47.38,1.44.4c.46.13.92.27,1.37.42l.19.07.11,0c.47.16.94.33,1.4.51a12.64,12.64,0,0,1,1.29.61c.2.1.38.21.57.32s.43.25.64.39a9,9,0,0,1,1.14.89,6.49,6.49,0,0,1,.67.72,4.88,4.88,0,0,1,.41.66,6.64,6.64,0,0,1,.43,1.07,4.84,4.84,0,0,1,.14.51c0,.1.06.21.1.32s0,.2.05.3a.56.56,0,0,1-.13.35.64.64,0,0,1-.13.15c0,.08,0,.16,0,.24a2.44,2.44,0,0,0,0,.27,1,1,0,0,0,0,.17l.06.2.08.18,0,.07,0,0,.07.07,0,0,.11.06.12,0,.19,0c.31.05.61.08.92.1l.93.07h0c.35,0,.7,0,1,0l1,0h0l2.14.12h0c1.12.06,2.24.11,3.36.19l1.68.14,1.61.1c1.13.08,2.26.14,3.39.21.56,0,1.11.07,1.66.13s1,.15,1.54.27a4.56,4.56,0,0,1,.72.21,2.78,2.78,0,0,1,.49.24,2.6,2.6,0,0,1,.4.33,2.18,2.18,0,0,1,.34.4,4.76,4.76,0,0,1,.28.49,2,2,0,0,1,.19.71,6,6,0,0,1,0,.85c0,.25,0,.5,0,.75,0,.5-.09,1-.12,1.51l-.09,1.55c0,.28,0,.56-.07.85a8.22,8.22,0,0,1-.11.83l-.12.85c0,.28-.09.57-.13.86-.07.51-.12,1-.16,1.55s-.05,1-.1,1.46-.11,1-.17,1.53c0,.23-.06.46-.1.69s-.09.45-.14.67q-.12.69-.21,1.38c0,.23-.06.47-.1.7a7.78,7.78,0,0,1-.17.81c-.12.49-.26,1-.37,1.48s-.23,1.08-.37,1.62a8.43,8.43,0,0,1-.7,1.67l0,0-.15.29-.16.26a4.63,4.63,0,0,1-.32.42c-.17.2-.35.37-.53.55s-.39.39-.6.58l-.66.54-.64.49-.66.48-.67.49c-.44.34-.9.65-1.36,1l-1.41.94c-.94.64-1.91,1.25-2.87,1.86-.49.31-1,.61-1.48.93l-1.45.92-.72.43c-.23.14-.47.27-.71.4-.5.28-1,.55-1.5.81l-1.63.8-.88.43-.88.44,0,0c-1,.52-2,1.09-3,1.6l-1.23.62.5.06c.63.07,1.26.18,1.89.3s1.24.22,1.85.36l.88.2.93.23c.61.15,1.22.32,1.82.49l.93.27.86.26,1,.31c.32.12.64.24,1,.38l.88.38c.27.12.53.26.8.39l.86.42c.28.14.55.29.82.45.52.29,1,.63,1.53,1s1.1.75,1.65,1.12l.82.56c.24.16.47.33.7.51a14.81,14.81,0,0,1,1.32,1.18,13.06,13.06,0,0,1,1.11,1.25l.23.31c.06.1.13.19.19.3a8.94,8.94,0,0,1,.44.8,12.83,12.83,0,0,1,.68,1.57,16.36,16.36,0,0,1,.49,1.95,8.85,8.85,0,0,1,.23,1.77,4.4,4.4,0,0,1-.05.73,5.49,5.49,0,0,1-.17.9l-.06.19v0s0,.08,0,.11l-.09.2a3.26,3.26,0,0,1-.18.38c-.14.24-.31.46-.47.69l-.45.66c-.19.26-.37.53-.57.78s-.37.42-.56.62a6.14,6.14,0,0,1-.52.5l-.66.57c-.2.17-.41.35-.62.51a14,14,0,0,1-1.36.91l-.8.44c-.31.17-.61.35-.92.51-.54.29-1.08.54-1.62.81-.25.12-.51.24-.75.38s-.56.31-.84.48c-.53.32-1.06.63-1.61.93l-.74.4-.9.49c-.54.29-1.08.59-1.63.85s-1.21.52-1.81.76-1.2.47-1.79.71-1.09.44-1.63.64l-1.73.67c-.59.23-1.17.48-1.75.74l-.8.36-.81.35-.76.28-.08,0-.58.17c-.29.08-.58.14-.87.2l-.93.18c-.58.12-1.16.2-1.75.29l-1.83.25c-.58.07-1.16.13-1.73.21l-1.92.27c-.62.09-1.23.17-1.84.23s-1.3.12-2,.16l-1.94.12-2.07.16c-.67.05-1.35.11-2,.14s-1.36.06-2,.07-1.35,0-2,0-1.34,0-2,0-1.39.06-2.09.1l-2.07.1-1.83.07c-.6,0-1.21,0-1.81,0H68.2l-1.84,0-.89,0h-1c-1.2,0-2.4.05-3.59.11h0c-.62,0-1.23.06-1.85.07H58.6C58,226.13,57.47,226.11,56.91,226.09Zm-45.08-13.2,1,.3,2,.55c.65.18,1.31.34,2,.49l2,.46,1.91.43c.67.15,1.33.33,2,.51,1.3.35,2.61.7,3.92,1,.47.12.94.21,1.42.3.65.12,1.31.23,2,.33l2.13.3c1.34.18,2.68.36,4,.5l4,.44c1.41.15,2.82.33,4.22.48s2.54.24,3.8.35,2.44.17,3.67.24l1.06,0,.85,0h2.12l4.4,0c2.77,0,5.54-.05,8.3-.11s5.63-.16,8.44-.26l4-.15c1.4-.06,2.8-.1,4.2-.14s3-.16,4.49-.28l2-.15,2.43-.18h0L98,218l1.69-.17,1.15-.13,1.13-.14c1.29-.16,2.59-.35,3.88-.53.58-.08,1.16-.17,1.73-.27l.92-.16,1-.19,1.11-.24h0l2.06-.49c.74-.18,1.49-.36,2.23-.56s1.47-.4,2.2-.63l1.2-.38,1-.35.9-.33.47-.19.46-.2c.16-.06.31-.14.47-.21l.47-.21.45-.22.46-.22,0,0c.33-.17.66-.33,1-.51l.6-.33.59-.34c.68-.4,1.34-.83,2-1.28.23-.16.45-.33.67-.51s.26-.2.38-.31.27-.23.4-.35.32-.31.48-.48.25-.32.37-.49a6.32,6.32,0,0,0,.33-.56,8,8,0,0,0,.34-.8,4.38,4.38,0,0,0,.19-.71c0-.13,0-.26.08-.38s.07-.52.09-.78v-.22a3.57,3.57,0,0,0,0-.46c0-.16,0-.32-.07-.48s0-.24-.07-.36v0c-.07-.28-.14-.55-.23-.82s-.09-.24-.14-.35l-.18-.39c-.07-.16-.15-.31-.23-.46l0,0c-.15-.3-.3-.6-.47-.9-.08-.14-.16-.28-.23-.43l-.12-.18-.16-.26c-.15-.21-.29-.41-.45-.6a3,3,0,0,0-.22-.28l-.31-.35-.41-.42a2.39,2.39,0,0,0-.23-.22l-.22-.21-.43-.37-.46-.37-.48-.34-.48-.32-.53-.33-.29-.16-.29-.16-.61-.31-.58-.29c-.49-.23-1-.47-1.46-.69l-1.69-.71c-1-.42-2.11-.84-3.18-1.22l-.48-.15-.45-.13-1-.26c-.62-.17-1.23-.36-1.85-.54l-2-.55-.92-.26c-.31-.08-.62-.15-.94-.21s-.85-.11-1.28-.15l-1.05-.1h0l-.26.13-.68.31-.68.33-1.35.65-.8.44c-.25.15-.52.3-.77.46a5.91,5.91,0,0,0-.63.49c-.32.29-.63.59-.94.89a6.14,6.14,0,0,0-.45.43l-.4.44h0l-.06.07h0l-.81.93h0l-.54.65c-.18.21-.34.43-.52.64s-.3.37-.46.56l-.1.12,0,.05-.11.12c-.08.1-.17.2-.25.31-.31.39-.61.8-.9,1.21l-.36.51c-.2.31-.38.63-.56,1l.27.07.75.26.93.3.46.15a4.94,4.94,0,0,1,.49.19,6,6,0,0,1,.93.57,3.33,3.33,0,0,1,.42.42,4.12,4.12,0,0,1,.32.41,2.83,2.83,0,0,1,.43,1.26,3.6,3.6,0,0,1,0,1.18c0,.13,0,.26-.08.39a3.13,3.13,0,0,1-.19.51,3.33,3.33,0,0,1-.53.81c-.1.12-.21.23-.31.34l-.26.24-.33.24a8.66,8.66,0,0,1-1.81.88c-.31.12-.62.24-.94.34s-.67.19-1,.26-.73.16-1.09.23l-1,.16c-.7.1-1.4.17-2.1.25-1.05.11-2.11.18-3.16.26h0q-1.82.15-3.63.36l-1.87.22c-.64.07-1.29.15-1.93.2h0l-1.05.08c-.36,0-.71.06-1.06.07l-1.12,0H75c-.66,0-1.33,0-2,0l-2.22-.05c-1.38,0-2.75,0-4.13,0q-1.07,0-2.13,0l-2.19,0-2,0-2.15-.06c-1.39,0-2.79-.06-4.19-.08s-2.8-.1-4.21-.18c-.7,0-1.39-.1-2.09-.19-.33,0-.66-.11-1-.17l-1.05-.23-2-.46c-.68-.17-1.37-.33-2-.51l-1-.28c-.33-.09-.64-.21-1-.33l-.91-.37-.92-.36c-.29-.12-.57-.24-.85-.38a3.47,3.47,0,0,1-.72-.48,9.73,9.73,0,0,1-.69-.74A8,8,0,0,1,35,205c-.09-.13-.17-.26-.25-.4a3.55,3.55,0,0,1-.21-.44,2.94,2.94,0,0,1-.22-.93,3,3,0,0,1,0-.6,3.84,3.84,0,0,1,.11-.46,2.73,2.73,0,0,1,.43-.85,4.87,4.87,0,0,1,.81-.89,5.49,5.49,0,0,1,.88-.64,3.82,3.82,0,0,1,.92-.36h0c-.13-.22-.26-.43-.4-.64h0v0h0c-.33-.47-.67-.94-1-1.4s-.73-1-1.11-1.44l-1.2-1.48c-.39-.48-.78-.95-1.18-1.42-.7-.84-1.39-1.68-2.06-2.55-.33-.43-.65-.87-.95-1.31s-.61-.9-.92-1.34l-1.1-1.6c-.08-.12-.16-.25-.25-.37h-.36q-.33,0-.66.09h0l-.22.05H26a.31.31,0,0,1-.29-.23v0A.31.31,0,0,0,26,186h.08l.22-.05h0q.33-.06.66-.09h.32a.29.29,0,0,1-.29.23h-.33l-.49,0q-.46,0-.93.12l-.95.17-1.81.37c-.41.1-.83.19-1.23.31l-1.42.39-1.2.36-1.37.47c-.48.18-.95.37-1.42.57s-1,.45-1.51.69c-1,.47-2,1-3,1.47-.49.25-1,.51-1.46.78l-.7.42-.26.16-.38.25-.16.11-.1.07-.05,0h0c-.05,0-.1.08-.16.11l-.16.12-.36.27c-.1.08-.21.15-.3.23l-.39.33c-.19.17-.38.34-.56.52l-.26.26c-.1.12-.21.23-.32.35s-.31.36-.45.55-.15.18-.22.28-.19.27-.28.4a4.21,4.21,0,0,0-.28.45l-.3.51c-.17.34-.35.67-.51,1a27.47,27.47,0,0,0-1.19,2.92l-.21.68c-.08.26-.13.52-.19.77s-.06.31-.08.47-.06.4-.08.6,0,.33,0,.5,0,.2,0,.3,0,.21,0,.32a3.55,3.55,0,0,0,.06.47c0,.14.07.28.1.41s.07.21.11.32l.12.31.15.3c.14.26.29.51.45.76s.19.27.28.4.26.31.39.46l.37.39.35.3c.12.11.25.21.38.31l.45.32c.29.21.59.4.88.6s.85.53,1.3.77l1.48.77.48.22.29.12.3.12.57.22c.19.08.39.14.59.21h0Zm56.47-2.83c1.37,0,2.73,0,4.1.05l2.08.07h2.1l.94,0,.92-.06.86-.08h0l2-.21,2.07-.24c.73-.08,1.46-.16,2.19-.22s1.39-.12,2.08-.18l1.28-.09c.77-.07,1.53-.15,2.3-.25l1.19-.16.66-.11c.19,0,.39-.07.58-.12l.47-.1.51-.13.55-.17.51-.18h0l.74-.28.61-.29.35-.2.34-.22.2-.16c.13-.13.26-.25.38-.38l.3-.37.16-.29a3,3,0,0,0,.17-.41A2.45,2.45,0,0,0,99,205c0-.21.06-.41.08-.61s0-.23,0-.35l0-.25a1.59,1.59,0,0,0-.06-.3,1.82,1.82,0,0,0-.07-.25l-.1-.24-.08-.13-.14-.18-.19-.24-.3-.29-.27-.19h0c-.2-.12-.39-.22-.6-.32l0,0-.34-.14-.35-.12-1.69-.55a2.9,2.9,0,0,0-.42-.12l-.11,0h0l-.3.49h0l0,0c-.08.15-.15.29-.24.43l-.31.45,0,0-.5.79c-.16.26-.31.52-.46.79-.07.11-.13.24-.2.36a2.71,2.71,0,0,1-.24.35,2.51,2.51,0,0,1-.25.32c-.05.06-.09.12-.15.18a.86.86,0,0,1-.14.13,2.53,2.53,0,0,1-.27.18,2.65,2.65,0,0,1-.48.23,2.42,2.42,0,0,1-.53.13c-.22,0-.44.05-.66.07l-.46,0h0a.52.52,0,0,1-.21,0c-.52.06-1,.14-1.58.18l-.77,0h-.81c-1.11,0-2.23-.11-3.34-.22-.94-.08-1.88-.19-2.82-.27s-2-.14-3-.2h0L75,205l-1.7-.06c-.57,0-1.14,0-1.7,0l-1.76.07c-.43,0-.85,0-1.27,0l-1.37-.08-2.66-.16h0l-.37,0h0c-1.14,0-2.27-.08-3.41-.11-.55,0-1.1,0-1.65,0l-.93,0-.84-.05-3-.18-2.93-.2h.05l-1.73,0H48.08c-.56,0-1.13,0-1.7-.07H46L44.4,204l-.91,0c-.28,0-.55,0-.83-.06s-.54-.08-.81-.13a5.35,5.35,0,0,1-.79-.19l-.8-.25-.47-.16h0l-.15-.07-.2-.1a1.46,1.46,0,0,1-.24-.17l-.19-.21a2.63,2.63,0,0,1-.27-.41,3.73,3.73,0,0,1-.16-.35l0,0a2.53,2.53,0,0,1-.12-.36s0-.05,0-.07c-.19-.46-.38-.91-.61-1.35a.31.31,0,0,0-.05-.1h-.07c-.13,0-.26.07-.39.12l-.4.16-.35.22c-.2.14-.4.3-.59.46a5,5,0,0,0-.39.41,4,4,0,0,0-.3.39l-.18.3a2.33,2.33,0,0,0-.11.28c0,.11-.06.22-.08.33a1.81,1.81,0,0,0,0,.23v.31c0,.1,0,.21.05.31a1.71,1.71,0,0,0,.09.3c.06.16.13.31.2.47s.16.26.25.39c.22.3.46.58.71.86a7.14,7.14,0,0,0,.54.56,2.69,2.69,0,0,0,.27.2,3.18,3.18,0,0,0,.4.23c.48.22,1,.41,1.47.6s1.06.43,1.6.63c1.11.36,2.24.61,3.37.89s2.3.56,3.46.78l.94.13c.36,0,.71.07,1.07.09.69.05,1.39.08,2.08.12h0c.71,0,1.43.06,2.14.08s1.32,0,2,0l2.22,0,2,.06,2.24,0,2,0h4.4ZM.65,204.35l0-.38,0,.37h0ZM129.1,199l0,0c-.22-.25-.43-.49-.66-.73s-.49-.48-.75-.72a12.81,12.81,0,0,0-1.28-1l-1.17-.79-1.18-.81-1-.67c-.37-.24-.76-.46-1.15-.67l-.85-.43-.88-.43c-.3-.15-.6-.28-.9-.4s-.72-.3-1.09-.44l0,0c-.38-.14-.77-.26-1.16-.38h0c1.15.43,2.28.88,3.41,1.35l.58.28.85.43c.39.21.78.43,1.15.67l1,.67,1.18.81,1.17.79a12.81,12.81,0,0,1,1.28,1c.26.24.51.47.75.72s.44.48.66.73ZM17.93,186.46l.45-.14-.43.13Zm91.9-23.65c0,.13,0,.27-.07.4a.29.29,0,0,1,0,.09.25.25,0,0,1,0,.08c-.12.62-.24,1.24-.38,1.85s-.25,1.24-.42,1.85-.32,1.21-.5,1.81l-.51,1.82c-.16.61-.29,1.23-.45,1.84l-.24.89c-.09.32-.18.63-.26.95s-.14.59-.21.88l-.21,1c-.07.3-.15.61-.23.92s-.16.62-.23.93-.16.57-.23.86-.15.59-.23.89-.16.59-.24.89-.13.43-.2.65h0a5.08,5.08,0,0,1,.77-.54l.82-.52,1.65-1.07c.26-.17.53-.33.8-.48l.83-.49c.29-.16.57-.33.85-.51l.83-.54.79-.49c.28-.17.57-.33.86-.49l.84-.46.86-.45c.57-.31,1.15-.61,1.73-.91.83-.44,1.65-.9,2.48-1.33l0,0,0,0,.43-.22,0,0,.93-.47.15-.08c.34-.17.67-.37,1-.54l1.11-.54.33-.18c.12-.09.24-.18.35-.28a4.78,4.78,0,0,0,.45-.45l.09-.11a1,1,0,0,0,.08-.14.49.49,0,0,0,0-.11,1.87,1.87,0,0,0,.08-.34c0-.12.06-.25.08-.37.06-.31.12-.61.19-.92s.17-.62.25-.93a9.32,9.32,0,0,1,.23-.91c.08-.32.16-.64.25-1l.23-.92c.09-.31.19-.62.28-.93l.3-.95c.09-.3.16-.62.24-.92.13-.49.27-1,.39-1.47s.23-1,.34-1.49.13-.75.18-1.13.08-.68.11-1v-.17s0-.07,0-.11l0-.09a.14.14,0,0,0,0-.06l0,0a2.47,2.47,0,0,0-.21-.27h0l-.1-.08-.12-.07-.55-.23-.48-.13-.48-.12c-.63-.1-1.27-.12-1.9-.17s-1.27-.14-1.91-.2-1.28-.08-1.92-.12-1.21-.06-1.82-.12l-1-.1-.87-.1-.88-.09-.83-.05h0a7.3,7.3,0,0,0-.81,0c-.24,0-.47,0-.71,0h-.85c0,.1-.06.2-.08.3l-.24.92c-.08.29-.15.59-.24.88s-.18.6-.26.91l-.24.89c-.09.29-.15.6-.22.9-.14.63-.28,1.27-.41,1.91l-.06.32h0C110,161.88,109.91,162.34,109.83,162.81Zm-42.25-7.7.4,0-.38,0ZM21,149.94c.34.16.69.32,1,.45s.74.25,1.11.37l1.18.36,1.23.37c.8.22,1.61.44,2.42.64l1.14.22,1.16.22c.85.15,1.71.29,2.56.41l2.6.39c.87.12,1.74.25,2.61.35l1.32.14,1.37.14,2.6.26,2.69.22,1.41.12,1.38.1c.87.06,1.74.12,2.61.16l1.28,0,1.3,0,2.74,0,2.58,0h3l2.62,0c.94,0,1.89,0,2.83-.06,1.75-.07,3.5-.13,5.24-.21l1.07,0,2.75-.11,1.32,0,1.36-.07,2.66-.18,2.73-.18,1.3-.09,1.26-.09,2.74-.27c.87-.09,1.75-.12,2.62-.23s1.76-.27,2.64-.4l1.2-.17,1.28-.16c.43-.06.86-.11,1.28-.18s.84-.16,1.26-.24l2.43-.48,1.06-.26.45-.12.26-.07h0a.3.3,0,0,0,.31-.18l.38-.15,0,0h0l.46-.22a6.45,6.45,0,0,0,.58-.31l.63-.34c.25-.14.48-.29.72-.45s.45-.31.66-.47.47-.37.7-.57l.63-.56a4.41,4.41,0,0,0,.9-1.07l.06-.13a2.76,2.76,0,0,0,.2-.47c0-.13.07-.27.1-.4a3.54,3.54,0,0,0,.07-.47,1.62,1.62,0,0,0,0-.22,3,3,0,0,0,0-.42l0,0c0-.06-.05-.13-.08-.19l-.08-.18a.5.5,0,0,1,0-.13.27.27,0,0,0-.09-.12c-.06-.12-.14-.24-.21-.36l-.24-.3c-.17-.18-.34-.35-.52-.51a5.71,5.71,0,0,0-.47-.39l-.54-.39c-.45-.28-.9-.54-1.36-.79a17.75,17.75,0,0,0-1.86-.77l-.54-.19h0l-.08,0h0l0,0-.12,0c-.94-.3-1.9-.57-2.86-.82-.5-.14-1-.28-1.52-.4s-1-.22-1.49-.32l-2.27-.37c-.73-.12-1.47-.25-2.2-.39s-1.61-.27-2.41-.41l-1.13-.2c-.41-.08-.81-.17-1.22-.24h0c-1.06-.19-2.11-.38-3.17-.54l-3.06-.46L82,136l-1.48-.2-1.42-.2-1.48-.23c-.9-.13-1.8-.24-2.7-.34l-2.58-.27c-1.81-.15-3.63-.25-5.45-.35h0c-1-.05-2.08-.1-3.12-.13s-2.11,0-3.16-.06-2,0-3,0l-3.13,0-2.94,0c-1,0-1.92.08-2.88.13s-1.88.08-2.81.14l-2.84.2h0c-.49,0-1,.08-1.49.15l-1.59.19c-1,.14-2.08.28-3.12.44l-3,.41c-.51.06-1,.12-1.54.2l-1.57.23-1.63.23c-.53.07-1,.16-1.56.25-1,.18-2,.38-3,.59l-1.21.28c-.4.1-.8.22-1.19.33l-1,.29q-.55.16-1.11.36c-.51.18-1,.38-1.52.59l-.8.34c-.27.11-.53.24-.79.37l-.49.28-.49.31-.35.26-.39.32-.26.25-.24.26c-.31.37-.59.76-.87,1.16-.08.12-.15.24-.22.36s-.09.22-.13.32a6.86,6.86,0,0,0-.2.78c0,.12,0,.24,0,.36v.17l0,.19a2.76,2.76,0,0,0,.08.27,3.92,3.92,0,0,0,.16.36,2.2,2.2,0,0,0,.15.26c.1.14.21.27.32.4a4.68,4.68,0,0,0,.38.39,3.55,3.55,0,0,0,.31.23l.31.19.31.16c.35.16.71.3,1.07.44l.25.12.34.16a2.43,2.43,0,0,0,.37.16l.41.15c.33.13.66.28,1,.4l.31.15.91.46h0C20.29,149.55,20.66,149.76,21,149.94Z"/></g></g></svg>