<svg xmlns="http://www.w3.org/2000/svg" viewBox="0 0 317.91 148.58"><defs><style>.cls-1{fill:#50555b;}</style></defs><g id="Layer_2" data-name="Layer 2"><g id="Artwork:Notebook"><path class="cls-1" d="M52.93,123.87h0a.49.49,0,0,0,0,.12Z"/><path class="cls-1" d="M51.61,100.92v0s0,.05,0,.08Z"/><path class="cls-1" d="M23,119.46v0Z"/><path class="cls-1" d="M23.38,83.6h0v0Z"/><polygon class="cls-1" points="85.17 60.49 85.18 60.5 85.18 60.5 85.17 60.49"/><path class="cls-1" d="M87.12,83.86s0-.06,0-.09v.09Z"/><path class="cls-1" d="M45.68,37.42h0Z"/><path class="cls-1" d="M125.59,88.48h0Z"/><path class="cls-1" d="M124.18,95.3v-.09S124.19,95.27,124.18,95.3Z"/><path class="cls-1" d="M135.14,82.93h0v0Z"/><path class="cls-1" d="M89.56,59.62h0v-.07a.29.29,0,0,0,0,.09h0Z"/><path class="cls-1" d="M103.15,40.1v.1A.31.31,0,0,1,103.15,40.1Z"/><path class="cls-1" d="M181.88,60.05v.1h0Z"/><path class="cls-1" d="M181.91,59.63v0Z"/><path class="cls-1" d="M212.11,51.13v0Z"/><path class="cls-1" d="M228.61,47.23a.67.67,0,0,0-.57.31c-.18.19-.36.37-.55.54-.34.31-.66.64-1,1s-.72.8-1.06,1.22-.57.71-.87,1h0l0,0,0,0,0,0c-.26.29-.53.58-.8.85s-.3.3-.43.45l0,0h0l0,0,0,0L223,53v0l0,0a.5.5,0,0,0-.13.19c-.31-.24-.62-.47-.91-.72l0,0,0,0h0c-.28-.24-.55-.49-.81-.76s-.5-.52-.76-.77-.61-.58-.93-.86l-.81-.69c-.32-.29-.64-.56-1-.82s-.56-.44-.84-.67l0,0-.26-.25a.69.69,0,0,0-.13-.11.69.69,0,0,0-1.26,0,.76.76,0,0,0,0,.64,1.44,1.44,0,0,0,.18.25l.19.16.32.31c.26.22.52.45.8.65s.57.43.84.66l-.07-.06c.45.4.9.78,1.35,1.17s.66.62,1,.94.65.67,1,1a12.15,12.15,0,0,0,1,.87c.34.25.66.52,1,.8l.26.23c0,.17,0,.35,0,.52,0,.65,0,1.29-.08,1.93,0,.85-.05,1.7-.07,2.54s0,1.69,0,2.53c.1,1.76.12,3.54.14,5.31,0,.88,0,1.76,0,2.64s0,1.82.07,2.74q.06,2.79.09,5.58c0,.89,0,1.78,0,2.67s0,1.74-.05,2.6,0,1.77-.05,2.65,0,1.74-.09,2.6c-.11,1.35-.25,2.68-.35,4,0,.72-.1,1.45-.13,2.18s0,1.35-.09,2-.11,1.36-.19,2c-.1.86-.2,1.72-.28,2.58s-.16,1.83-.22,2.75-.09,1.77-.13,2.66-.08,1.8-.11,2.69,0,1.77,0,2.65.07,1.75.09,2.63,0,1.78,0,2.68.14,1.76.21,2.64c0,.56,0,1.12,0,1.68s0,1.14,0,1.71-.13,1.21-.15,1.82,0,1.2,0,1.8v1.87c0,.55,0,1.11,0,1.66-.06.76-.2,1.51-.26,2.27s0,1.66-.06,2.48,0,1.46,0,2.19,0,1.4,0,2.1c0,.21,0,.42-.06.63h0v0h0s0,.09,0,.14a1.21,1.21,0,0,1,0,.18,1.37,1.37,0,0,0,.23,1.06.61.61,0,0,0,.34.1.74.74,0,0,0,.6-.34,1.2,1.2,0,0,0,.15-.45,2,2,0,0,0,.08-.33,2.48,2.48,0,0,0,0-.27v-.12s0,.07,0,.1c0-.17,0-.33,0-.49s0-.6,0-.89c0-.62,0-1.25,0-1.87,0-1.3,0-2.61.05-3.91.05-.68.15-1.35.23-2a14.71,14.71,0,0,0,.06-1.88c0-1.39,0-2.79.05-4.18,0-.62.13-1.24.16-1.86s0-1.18,0-1.77,0-1.22-.08-1.82-.11-1.15-.15-1.72c-.05-1.07,0-2.14-.05-3.21,0-.88-.08-1.75-.08-2.63s0-1.74,0-2.6.07-1.84.11-2.75.07-1.74.13-2.61a.34.34,0,0,0,0,.1l0-.49c.07-.9.13-1.8.24-2.69s.2-1.74.29-2.61.16-1.81.19-2.71.07-1.78.13-2.67c.09-1.26.21-2.52.32-3.78s.13-2.5.17-3.75c0-.88,0-1.75.05-2.63s0-1.69,0-2.54c0-1.86,0-3.73-.05-5.59s-.08-3.64-.14-5.46c0-.86,0-1.72,0-2.58s0-1.79-.05-2.68l0-1.31c0-.45-.06-.9-.08-1.35q0-1.26,0-2.52c0-.86,0-1.72.08-2.58,0-.43,0-.86.05-1.29s0-.88,0-1.31c0-.27.05-.53.05-.79a.7.7,0,0,0-.05-.25l.28-.28c.22-.22.44-.45.65-.68s.58-.65.85-1,.57-.7.86-1a18.77,18.77,0,0,1,1.38-1.44c.18-.16.36-.33.52-.5l.19-.21a.7.7,0,0,0-.53-1.13Z"/><path class="cls-1" d="M222.61,141.28v0Z"/><path class="cls-1" d="M219.68,148.58h0Z"/><path class="cls-1" d="M292.92,134v0h0Z"/><path class="cls-1" d="M296.5,97.36h0Z"/><path class="cls-1" d="M294.79,61.39a.71.71,0,0,0-.69-.69l-1.05,0c-.94-.06-1.88-.15-2.82-.2s-1.82,0-2.73,0c-1.48,0-3,0-4.46.07s-2.89,0-4.34,0c-.79,0-1.59,0-2.39.08l-2.1.08c-1.51,0-3,0-4.52,0-3,0-6,0-9,0-1.49,0-3,0-4.48,0s-2.88,0-4.33,0-3,0-4.55,0-3,0-4.5.12c-.73,0-1.45.1-2.18.13-.47,0-.93,0-1.39,0h-.37c-.52,0-1,0-1.55,0-.68,0-1.37,0-2,0a.67.67,0,0,0-.34.1h-.37a.69.69,0,0,0-.69.69.71.71,0,0,0,.6.68h.07l.33,0h.47c.29,0,.58,0,.87,0l.4.06.47,0h.19c.22,0,.43,0,.64,0a1.55,1.55,0,0,0,.31,0l.15,0,.17,0h2.14l1.2-.07c.72,0,1.44-.08,2.15-.1s1.56,0,2.34,0c1.44,0,2.89-.06,4.34-.06h4.46c1.48,0,3-.05,4.43-.05l4.56,0,4.38,0c1.52,0,3,0,4.55,0s3-.1,4.48-.15,3,0,4.45,0c2.9,0,5.82-.17,8.72,0,1.12.08,2.23.2,3.36.21A.7.7,0,0,0,294.79,61.39Z"/><path class="cls-1" d="M252,110.55h0Z"/><polygon class="cls-1" points="254.08 100.32 254.09 100.32 254.09 100.31 254.08 100.32"/><path class="cls-1" d="M277.75,110.34h0a.14.14,0,0,1,0,.06Z"/><path class="cls-1" d="M242.57,107.4h0v0Z"/><path class="cls-1" d="M285.93,89.54a7.08,7.08,0,0,0-.81-1.08,5.48,5.48,0,0,0-1.11-.93,3.26,3.26,0,0,0-1.31-.46,3.82,3.82,0,0,0-1.21.1,7,7,0,0,0-.9.22l0,0a6,6,0,0,0,0-.85,2.28,2.28,0,0,0,0-.36,2.88,2.88,0,0,0-.21-1.34,3.51,3.51,0,0,0-.33-.6,3.27,3.27,0,0,0-.35-.48,6.86,6.86,0,0,0-.71-.81c-.3-.26-.61-.52-.93-.75a8,8,0,0,0-.95-.61,4.79,4.79,0,0,0-1.13-.46c-.19-.05-.38-.11-.58-.15q-.56-.14-1.11-.24a17.94,17.94,0,0,0-2.19-.27c-.8-.06-1.6-.08-2.4-.1a.7.7,0,0,0-.69.69.68.68,0,0,0,.69.68c.85,0,1.7,0,2.54.11.43,0,.85.09,1.27.15s.68.12,1,.18.94.22,1.39.37l.34.14c.28.15.54.31.81.49l.71.53c.17.15.33.31.49.47a9,9,0,0,1,.61.77c.07.12.14.23.2.35l.06.14.06.2h0a.62.62,0,0,0-.09.32.6.6,0,0,0,.1.32s0,.1,0,.15a2.76,2.76,0,0,1-.08.27l0,.09-.31.48a17.27,17.27,0,0,1-1.14,1.42c-.39.43-.81.84-1.24,1.23l-.7.58L275,91c-.71.44-1.43.83-2.16,1.21a31.3,31.3,0,0,1-2.94,1.21c-.57.19-1.15.39-1.73.54-.31.07-.62.16-.93.22l-.87.18h0c-1.63.27-3.26.52-4.91.68h-.09c-.76,0-1.51,0-2.27,0H257c-1.45,0-2.89,0-4.34-.14h0l-.5,0h-.09l-1.57-.13a14,14,0,0,1-1.42-.24c-.37-.09-.72-.19-1.09-.3l-.91-.37c-.29-.15-.57-.3-.85-.47l-.81-.53-.62-.44q-.24-.18-.48-.39a3.7,3.7,0,0,1-.28-.28l-.17-.21-.19-.33a.61.61,0,0,1-.05-.12.27.27,0,0,1,0-.12v-.07a.76.76,0,0,0-.05-.27,4.29,4.29,0,0,1-.07-.5,3.69,3.69,0,0,1,0-.47,8.81,8.81,0,0,1,.15-1,3.74,3.74,0,0,1,.12-.45,5.48,5.48,0,0,1,.23-.56,3.83,3.83,0,0,1,.25-.44c.18-.27.38-.54.58-.8s.4-.5.61-.74.41-.42.63-.62.47-.38.71-.56l.59-.38c.21-.13.42-.24.63-.35l.44-.19.34-.09.36-.05h.28a.68.68,0,0,0,.08-1.36,2.75,2.75,0,0,0-1.14.09,4.4,4.4,0,0,0-1,.38c-.15.08-.31.15-.46.24-.3.17-.58.35-.87.55a9.38,9.38,0,0,0-.8.61,9.7,9.7,0,0,0-1.53,1.67c-.23.29-.44.58-.64.89a5.19,5.19,0,0,0-.49,1,7.17,7.17,0,0,0-.45,2.15,6.08,6.08,0,0,0,.08,1.28,2,2,0,0,0,.05.24,7.53,7.53,0,0,0,.13,1.05c.07.31.13.63.19.95.14.66.28,1.31.45,2,.09.33.18.66.29,1s.2.58.29.87c.22.72.43,1.43.67,2.14a10,10,0,0,0,.43,1.07,4.81,4.81,0,0,0,.25.51c.07.15.14.3.22.44s.24.39.35.59.2.29.29.43c.2.29.41.58.63.86a17.85,17.85,0,0,0,1.54,1.72c.54.51,1.09,1,1.63,1.53l.71.69.88.82a20.46,20.46,0,0,0,1.82,1.4c.31.22.64.42,1,.63a9.23,9.23,0,0,0,1.17.6c.25.11.5.2.75.29s.75.26,1.14.37a13.27,13.27,0,0,0,2.16.5,8.72,8.72,0,0,0,1,.06,18.26,18.26,0,0,0,2.44-.21c.16,0,.32-.06.48-.09l.55-.1,1.1-.28,1.15-.37a9,9,0,0,0,1-.41c.18-.1.38-.18.55-.29l.5-.29a4.26,4.26,0,0,0,.49-.34l.4-.31c.32-.26.63-.53.93-.8a9.33,9.33,0,0,0,.75-.79,21.94,21.94,0,0,0,1.44-1.75c.45-.59.86-1.21,1.27-1.83h0l0,0c.43-.65.86-1.3,1.27-2s.77-1.24,1.14-1.87.71-1.29,1.05-1.94.67-1.24,1-1.87.59-1.19.86-1.79.48-1.22.7-1.83.41-1.25.59-1.87.26-1,.37-1.47c0,0,.05,0,.06-.06l.3-.17.36-.16c.28-.08.55-.14.83-.2l.48-.07h.26l.16,0,.2.06.15.07a2.79,2.79,0,0,1,.33.19q.21.15.42.33a4.54,4.54,0,0,1,.38.38c.14.17.28.34.41.52l.22.38c.06.13.11.26.16.39a4.44,4.44,0,0,1,.16.6,11.82,11.82,0,0,1,.2,1.57c0,.15,0,.3,0,.45s-.05.4-.08.6-.14.6-.22.89-.11.32-.17.48h0c-.15.37-.3.73-.47,1.09s-.47.88-.72,1.31-.68.91-1.05,1.34l-.7.67a11,11,0,0,1-.93.72c-.14.09-.28.18-.43.26l-.37.16c-.42.13-.84.23-1.27.32a3,3,0,0,1-.42.06h-.14l0,0-.05,0a3,3,0,0,1-.25-.25l-.12-.15a.69.69,0,0,0-1.09.84,3.89,3.89,0,0,0,.86.81,1.43,1.43,0,0,0,.79.2h.18a8.86,8.86,0,0,0,1.45-.29,5.4,5.4,0,0,0,2-1,11,11,0,0,0,1.67-1.52,10.73,10.73,0,0,0,1.31-1.78c.19-.33.37-.67.54-1a9.5,9.5,0,0,0,.46-1,9.71,9.71,0,0,0,.34-1,6.73,6.73,0,0,0,.28-2.23c0-.36-.06-.72-.12-1.07A6.14,6.14,0,0,0,285.93,89.54Zm-7.88,2.3c-.19.56-.4,1.11-.62,1.65s-.42,1-.64,1.42c-.1.18-.19.37-.28.55l0,0c-.32.62-.66,1.24-1,1.86s-.69,1.32-1.07,2c-.75,1.27-1.54,2.51-2.35,3.73l-.41.62c-.32.47-.65.94-1,1.39s-.7.87-1.07,1.3c-.2.21-.39.43-.6.64s-.37.34-.55.51l-.57.46-.63.46a5,5,0,0,1-.5.29l-.48.25-.65.27c-.37.13-.75.26-1.13.37l-1.19.31q-.62.12-1.23.21l-1.23.13a11.59,11.59,0,0,1-1.18,0,9,9,0,0,1-1-.15c-.6-.13-1.19-.31-1.78-.49l-.62-.21a9.75,9.75,0,0,1-1-.45,13.82,13.82,0,0,1-1.23-.74q-.48-.32-.93-.66l-1-.76c-.34-.31-.68-.62-1-.94s-.7-.69-1.06-1l-.57-.53-.56-.53c-.18-.18-.37-.35-.53-.54l-.44-.49c-.24-.3-.49-.6-.72-.91s-.37-.51-.54-.77h0l-.39-.66c-.11-.18-.2-.38-.3-.58-.16-.36-.31-.73-.46-1.11-.3-.9-.55-1.82-.86-2.72a24,24,0,0,1-.64-2.39c.5.36,1,.72,1.53,1a2.82,2.82,0,0,0,.44.26c.17.09.34.19.51.26a10.61,10.61,0,0,0,1.06.42,12.58,12.58,0,0,0,2.12.5c.75.11,1.5.18,2.26.23l.48,0h0c2.27.15,4.54.16,6.82.17.74,0,1.48,0,2.23,0,.35,0,.71-.05,1.06-.1l1.07-.13c1.53-.21,3.05-.45,4.55-.81a29.89,29.89,0,0,0,4.24-1.46,18.13,18.13,0,0,0,2-1c.31-.16.61-.33.91-.51s.67-.41,1-.65a17.25,17.25,0,0,0,1.65-1.43c.28-.28.56-.57.83-.87C278.55,90.27,278.32,91.06,278.05,91.84Z"/><path class="cls-1" d="M253.05,78.71l0,0s0,0,0,0Z"/><path class="cls-1" d="M257.16,97.58s0,0,0,.06v0A.29.29,0,0,1,257.16,97.58Z"/><path class="cls-1" d="M250,73.3a7,7,0,0,0,.69,1.36c.11.18.24.35.36.53.39.57.84,1.1,1.27,1.63,1,1.16,2,2.3,2.86,3.54.1.16.19.32.28.48l.21.49.12.43c0,.14,0,.28.05.42a3.23,3.23,0,0,1,0,.44l-.06.47s0-.06,0-.09c0,.18-.07.36-.11.54-.17.72-.37,1.43-.59,2.14-.1,0-.2,0-.3.09h0l-.75.26c-.59.2-1.17.44-1.75.67s-1.21.49-1.8.76a12.39,12.39,0,0,0-1.74.89,2.43,2.43,0,0,0-.63.57,1.13,1.13,0,0,0-.3.82.75.75,0,0,0,.72.65.7.7,0,0,0,.68-.66l.06-.07v0l.11-.08c.25-.16.5-.29.75-.43,1.41-.68,2.87-1.25,4.33-1.81l-.08,0h0l.05,0h0l.7-.24h0l0,0h0c.89-.3,1.82-.53,2.74-.75a48.35,48.35,0,0,1,5.09-.73c1.47-.09,2.93-.17,4.4-.19,1.27,0,2.55,0,3.83,0a.69.69,0,0,0,0-1.37c-1.18,0-2.35,0-3.52,0-1.39,0-2.78.08-4.17.17q-1.14.06-2.28.21c-.74.1-1.49.19-2.22.32s-1.65.32-2.46.52c.18-.62.34-1.25.46-1.89a4.62,4.62,0,0,0-.25-2.7,5.38,5.38,0,0,0-.64-1.15c-.1-.16-.22-.3-.33-.45-.45-.6-.92-1.19-1.4-1.77s-.94-1.11-1.41-1.68-.84-1.07-1.23-1.64c-.13-.21-.26-.44-.38-.67s-.14-.31-.2-.47-.09-.32-.13-.48a3.93,3.93,0,0,1-.08-1.11c0-.25.06-.49.1-.73a10.8,10.8,0,0,1,.29-1.08v0l0-.07a.14.14,0,0,1,0,.06c.14-.37.3-.72.47-1.07s.24-.47.38-.69l.43-.65c.19-.27.38-.54.58-.79s.47-.57.71-.85l.13-.15,0,0,.1-.12,0,.07c.27-.32.67-.69.54-1.15a.7.7,0,0,0-.57-.51.69.69,0,0,0-.58.2.56.56,0,0,0-.17.26c-.05.07-.11.13-.17.2l-.07.08h0l-.13.14a12.42,12.42,0,0,0-3.27,6.11A5.65,5.65,0,0,0,250,73.3Z"/><path class="cls-1" d="M262.29,72.89a.87.87,0,0,0-.28,0,1,1,0,0,0-.35.31q-.18.19-.33.39l-.62.82c-.36.5-.71,1-1,1.54-.42.69-.81,1.38-1.19,2.09s-.67,1.25-.95,1.9c-.16.36-.31.73-.45,1.1a10.17,10.17,0,0,0-.36,1.06,15.78,15.78,0,0,0-.46,2.17,11.43,11.43,0,0,0-.13,1.16,7.89,7.89,0,0,0,0,1,6.51,6.51,0,0,0,.23,1.39,11.86,11.86,0,0,0,1.12,2.49c.18.32.38.62.57.93l.57.91c.18.31.34.62.51.94s.37.69.56,1l.18.41c0,.14.08.28.11.43a8.62,8.62,0,0,1,.11.87c0,.17,0,.34,0,.5a.69.69,0,0,0,.69.69.68.68,0,0,0,.68-.69,5.92,5.92,0,0,0,0-.94,5.75,5.75,0,0,0-.38-1.6c-.19-.41-.41-.8-.62-1.19l-.41-.77c-.28-.52-.6-1-.92-1.52-.15-.24-.3-.47-.44-.71l-.4-.74a10.69,10.69,0,0,1-.47-1.1,6.57,6.57,0,0,1-.21-.76c0-.2-.06-.41-.08-.62s0-.64,0-1c.06-.56.14-1.11.23-1.66.07-.34.15-.67.24-1s.19-.63.29-1,.16-.43.25-.65.19-.45.28-.67c.17-.39.37-.76.56-1.14.31-.6.63-1.19,1-1.78s.67-1.1,1-1.64a23.34,23.34,0,0,1,1.4-1.87h0a.69.69,0,0,0-.46-1.19Z"/><path class="cls-1" d="M265.05,78.29a28.56,28.56,0,0,0-1.35,3c-.07.2-.15.41-.2.61l-.15.56q-.14.52-.24,1c-.08.38-.14.76-.18,1.13s-.08.75-.11,1.13a7.49,7.49,0,0,0,.05,1.64,6.51,6.51,0,0,0,.31,1.39,7.86,7.86,0,0,0,.89,1.73c.41.61.84,1.2,1.26,1.8a4.94,4.94,0,0,1,.3.49c.06.12.11.25.16.38a3.17,3.17,0,0,1,.12.44,2.51,2.51,0,0,1,0,.27,3.69,3.69,0,0,1,0,.47,13.85,13.85,0,0,1-.2,1.42c0,.21-.1.42-.16.63s-.09.22-.14.34l-.06.12a.69.69,0,0,0,.24.93A.73.73,0,0,0,266,98a.64.64,0,0,0,.59-.33,5,5,0,0,0,.5-1.41,10.6,10.6,0,0,0,.25-1.78,4,4,0,0,0-.08-1.09,4.17,4.17,0,0,0-.32-1,6,6,0,0,0-.55-.92l-.9-1.26c-.26-.4-.52-.79-.74-1.21a5.45,5.45,0,0,1-.26-.62c-.06-.19-.12-.39-.16-.58-.06-.34-.1-.68-.13-1s0-.56,0-.83.06-.71.1-1.07.11-.69.17-1,.17-.77.27-1.15.21-.71.33-1.06.27-.69.43-1,.34-.75.52-1.12c.33-.69.66-1.38,1-2.06.14-.26.27-.53.42-.78l.47-.78-.05.07.53-.78c.4-.59.82-1.16,1.23-1.74.23-.33.47-.66.7-1a6.65,6.65,0,0,0,.39-.63,1.37,1.37,0,0,0,.2-.62.7.7,0,0,0-.68-.69.72.72,0,0,0-.68.56c-.11.21-.24.41-.36.61-.8,1.15-1.63,2.29-2.41,3.45h0l0,.07h0c-.32.48-.59,1-.87,1.52S265.31,77.75,265.05,78.29Z"/><path class="cls-1" d="M198.22,67.78h0l.07,0Z"/><path class="cls-1" d="M196.66,77.83h0v0Z"/><path class="cls-1" d="M190.37,75.22h0a.21.21,0,0,0,0-.06Z"/><path class="cls-1" d="M191.64,59.18q-.66.84-1.26,1.74c-.26.39-.53.78-.78,1.18l-.77,1.29c-.25.42-.48.85-.71,1.28a11.48,11.48,0,0,0-.56,1.24c-.26.72-.49,1.44-.68,2.18s-.32,1.51-.44,2.27a6.7,6.7,0,0,0,.23,3.74,5.1,5.1,0,0,0,.81,1.29,7.49,7.49,0,0,0,.75.74c.28.23.56.46.86.66l.06,0h0l.23.16-.07,0,.36.21a5.39,5.39,0,0,0,2.26.74l.47,0a6.2,6.2,0,0,0,1-.1c.29,0,.57-.13.86-.21a19.34,19.34,0,0,0,2.2-.81,22,22,0,0,0,2-1c.65-.37,1.28-.78,1.9-1.2s1.22-.89,1.81-1.38c.26-.22.52-.45.77-.69s.54-.51.78-.79a10.62,10.62,0,0,0,.73-.9c.22-.33.45-.66.66-1,.4-.62.74-1.27,1.08-1.92.17-.35.34-.7.5-1.05s.3-.62.43-.94.28-.72.39-1.09.21-.73.31-1.1.19-.66.28-1,.15-.71.21-1.07.1-.72.15-1.09.08-.6.1-.91c0-.65.07-1.3.08-2a9.87,9.87,0,0,0-.15-1.88,3.71,3.71,0,0,0-.33-1,3.33,3.33,0,0,0-.65-.92,2,2,0,0,0-.85-.46,2.78,2.78,0,0,0-.5-.11,4.31,4.31,0,0,0-.88,0,.67.67,0,0,0-.32-.4,2.52,2.52,0,0,0-1-.39,6.3,6.3,0,0,0-1-.12h-.86l-.39,0-.34,0c-.31.06-.62.12-.93.2s-.54.15-.81.24-.49.17-.73.27l-.75.34-.87.45c-.3.17-.58.35-.86.54a8.81,8.81,0,0,0-.85.62c-.34.26-.66.53-1,.81a19.38,19.38,0,0,0-1.58,1.56C192.58,58,192.11,58.59,191.64,59.18Zm12.81-4.07c.2-.12.41-.24.61-.34l.26-.11.13,0,.18,0h.25l.23,0a.86.86,0,0,1,.23.06l.09,0,.14.08,0,0,.06.06a2,2,0,0,1,.17.23.6.6,0,0,1,.09.15c.06.11.1.23.15.34s.07.27.09.4c.06.3.1.59.13.89a22.6,22.6,0,0,1,0,2.33h0c0,.08,0,.17,0,.25-.08.83-.19,1.67-.34,2.49s-.48,1.82-.75,2.72a23.88,23.88,0,0,1-1.07,2.43,27.46,27.46,0,0,1-1.38,2.42c-.16.24-.33.47-.5.69s-.33.41-.51.61-.44.47-.68.69l-.6.54c-.36.3-.72.59-1.09.87s-.67.48-1,.71-.89.57-1.35.85-.81.46-1.22.68l-.94.44c-.32.14-.64.27-1,.39a14.68,14.68,0,0,1-1.6.47,4.86,4.86,0,0,1-.55.07,4.17,4.17,0,0,1-.5,0,5.35,5.35,0,0,1-.56-.07l-.46-.13a3.74,3.74,0,0,1-.51-.22c-.15-.07-.29-.16-.44-.24.2-.12.38-.25.56-.38l.63-.44c.24-.17.47-.35.71-.54s.43-.34.64-.53c.41-.38.8-.78,1.18-1.2a11.68,11.68,0,0,0,1-1.23h0l.05-.07h0l0,0h0l.05-.07v0A13.89,13.89,0,0,0,196,69.7a14.8,14.8,0,0,0,.74-1.8c.21-.62.4-1.25.59-1.88s.37-1.15.57-1.72v0c0-.09.06-.19.1-.28v0l0,0v0c.19-.53.39-1.06.61-1.59s.42-1,.64-1.42.65-1.18,1-1.74a14.78,14.78,0,0,1,.92-1.17c.56-.6,1.16-1.14,1.77-1.68S203.92,55.49,204.45,55.11Zm-9,1.89c.28-.24.56-.48.85-.71l.88-.66.51-.33.58-.33.62-.31-.07,0c.4-.2.84-.36,1.26-.52l.51-.17.55-.14.49-.09.52-.05H203l.76.1.12,0-.21.14a9.65,9.65,0,0,0-.81.62c-.57.49-1.15,1-1.7,1.49a16.53,16.53,0,0,0-1.52,1.61,14.13,14.13,0,0,0-1.21,1.83,22.19,22.19,0,0,0-1.76,4c0,.09-.07.19-.1.28h0l0,.07v0c-.23.66-.45,1.32-.65,2s-.4,1.29-.62,1.93-.43,1-.68,1.56a11.59,11.59,0,0,1-.72,1.28l0,0-.11.16.05-.08a1,1,0,0,1-.08.11c-.26.35-.53.69-.82,1s-.78.82-1.19,1.21c-.7.59-1.45,1.13-2.21,1.65l-.12.08a.64.64,0,0,0-.3.37L189,75c-.17-.16-.33-.32-.49-.49s-.18-.22-.26-.34a2.5,2.5,0,0,1-.21-.35c-.08-.17-.16-.34-.23-.51s-.07-.25-.1-.38a3.87,3.87,0,0,1,0-.49,6.17,6.17,0,0,1,0-.86c.07-.76.2-1.51.33-2.27.08-.37.16-.75.26-1.12s.25-.84.38-1.26.39-1,.62-1.48.6-1.12.92-1.67.66-1.11,1-1.64l0,0,.39-.58-.05.07c.39-.55.77-1.1,1.19-1.63s.84-1,1.28-1.54S195,57.49,195.49,57Z"/><path class="cls-1" d="M189.1,91.09h0Z"/><polygon class="cls-1" points="208.58 73.91 208.58 73.92 208.58 73.92 208.58 73.91"/><path class="cls-1" d="M205,67.15h0a0,0,0,0,1,0,0l.08,0Z"/><path class="cls-1" d="M195.83,40.9a6.81,6.81,0,0,0,.53.79,4,4,0,0,0,.61.62,5.64,5.64,0,0,0,.77.5,5.34,5.34,0,0,0,1.4.51,8.92,8.92,0,0,0,1,.14h.37l.7,0h.37a5.15,5.15,0,0,0,1-.17,4.89,4.89,0,0,0,1.22-.47,7.74,7.74,0,0,0,1-.73,6.88,6.88,0,0,0,.81-.81,4.81,4.81,0,0,0,.52-.73l.32-.61c.17-.32.33-.65.48-1a6.47,6.47,0,0,0,.35-1,10.52,10.52,0,0,0,.29-2.09,4.89,4.89,0,0,0-.11-1.08,2.55,2.55,0,0,0-.54-1.06,3.43,3.43,0,0,0-1-.77v-.08a.69.69,0,0,0-.69-.68,1.15,1.15,0,0,0-.26,0l-.12,0h0l-.5-.08c-.7-.09-1.41-.09-2.1-.11a7.52,7.52,0,0,0-1.16.06,6.37,6.37,0,0,0-1.06.19,3.12,3.12,0,0,0-.59.19l-.54.25a5.7,5.7,0,0,0-.92.62,7.66,7.66,0,0,0-.78.73,5.54,5.54,0,0,0-.37.45,8.63,8.63,0,0,0-.51.82,8.05,8.05,0,0,0-.43,1,7.33,7.33,0,0,0-.31,1.11,5.73,5.73,0,0,0-.13,2.4A4.31,4.31,0,0,0,195.83,40.9Zm1.1-3.15q.1-.44.24-.87c.1-.28.22-.55.34-.82s.19-.35.3-.53l.4-.5c.14-.15.28-.29.43-.43s.39-.31.59-.46l.51-.28a4.07,4.07,0,0,1,.44-.18l.28-.08c.38-.07.74-.12,1.12-.17.67,0,1.34,0,2,0l.58.05.2,0a.66.66,0,0,0,.46.43l.25.08.23.09a2.07,2.07,0,0,1,.25.15l.19.13.17.18.11.13a.41.41,0,0,0,.05.09l.06.15a.53.53,0,0,1,0,.12c0,.16.06.32.08.48s0,.37,0,.56a10.26,10.26,0,0,1-.18,1.22,7.67,7.67,0,0,1-.19.76c-.12.29-.24.57-.38.85a11.91,11.91,0,0,1-.63,1.17l-.33.41a5.29,5.29,0,0,1-.41.41,9.65,9.65,0,0,1-.81.62,2.26,2.26,0,0,1-.26.16l-.25.1a5.16,5.16,0,0,1-.67.2c-.24,0-.48.08-.72.1s-.57,0-.85,0h-.22l-.85-.1a4.84,4.84,0,0,1-.51-.14,3.43,3.43,0,0,1-.52-.23c-.15-.08-.31-.17-.46-.27a1.3,1.3,0,0,1-.23-.18l-.18-.17-.39-.5-.16-.26-.15-.39c0-.1-.06-.2-.08-.3a2,2,0,0,1,0-.24V39A10,10,0,0,1,196.93,37.75Z"/><path class="cls-1" d="M98.8,98.18l0,0h0Z"/><path class="cls-1" d="M103.42,96.68a.21.21,0,0,0,0-.06h0Z"/><path class="cls-1" d="M116.28,112.45h0Z"/><path class="cls-1" d="M98.28,140.23l0,0,0,0Z"/><path class="cls-1" d="M63.9,72.74h0Z"/><path class="cls-1" d="M74.91,73.77l0,0v0A6,6,0,0,0,74,72a7.44,7.44,0,0,0-1.33-1.3,6.06,6.06,0,0,0-1.6-.87,3.81,3.81,0,0,0-1.11-.2.72.72,0,0,0-.2-.09,2.38,2.38,0,0,0-.8,0,5.21,5.21,0,0,0-1.61.3,5.34,5.34,0,0,0-1.24.68,7.83,7.83,0,0,0-1.41,1.29h0l0,0-.06.06v0l-.06.07a7.9,7.9,0,0,0-.61.79A8.19,8.19,0,0,0,63,74.55c-.12.32-.23.64-.32,1a8.37,8.37,0,0,0-.17,1,11.56,11.56,0,0,0,0,2.12,5.51,5.51,0,0,0,.79,2.26,5.93,5.93,0,0,0,1.06,1.41,7.06,7.06,0,0,0,.89.66,6.3,6.3,0,0,0,.84.48,5.69,5.69,0,0,0,.69.25l.54.1.51.06c.24,0,.49,0,.74,0h.3a6.58,6.58,0,0,0,2.13-.6,7.06,7.06,0,0,0,1-.52,7.87,7.87,0,0,0,.87-.65,6.29,6.29,0,0,0,.79-.76,5.08,5.08,0,0,0,.64-.9l.28-.5a5.17,5.17,0,0,0,.36-1,7.73,7.73,0,0,0,.24-1.06,10.06,10.06,0,0,0,.17-2.12,7.29,7.29,0,0,0-.39-2.06Zm-1,2.83A11.36,11.36,0,0,1,73.71,78a6.88,6.88,0,0,1-.24.89c0,.11-.09.23-.14.34-.14.26-.29.52-.44.78s-.23.3-.35.45a3.32,3.32,0,0,1-.38.37,10.15,10.15,0,0,1-.89.7l-.39.25c-.33.16-.67.3-1,.43a5.16,5.16,0,0,1-.67.2,4.29,4.29,0,0,1-.5.07,5.19,5.19,0,0,1-.56,0c-.32,0-.64-.06-1-.12l-.24-.07-.49-.2c-.25-.14-.48-.29-.71-.44s-.29-.21-.43-.32-.21-.2-.31-.31l-.16-.22a12.63,12.63,0,0,1-.66-1.12,2.17,2.17,0,0,1-.15-.35c-.05-.15-.1-.31-.14-.47s0-.38-.07-.57a11.2,11.2,0,0,1,0-1.16c0-.35.06-.69.11-1s.15-.54.24-.8.28-.71.43-1.05a7.76,7.76,0,0,1,.4-.69c0-.06.07-.11.1-.16l0,.07c.15-.21.32-.42.48-.63l-.06.07.06-.06h0l0,0h0v0l0-.07,0,0,.1-.11-.06.07c.25-.28.53-.54.8-.79.12-.09.23-.19.35-.27l0,0,.31-.21.36-.21a2.63,2.63,0,0,1,.35-.15,3.17,3.17,0,0,1,.44-.12,4,4,0,0,1,.5-.07H69a.68.68,0,0,0,.4.13H70l.35,0a.9.9,0,0,1,.22.06,4.77,4.77,0,0,1,.52.22,6.32,6.32,0,0,1,.56.33,5.19,5.19,0,0,1,.46.36,6.45,6.45,0,0,1,.59.58,5.43,5.43,0,0,1,.42.53c.12.19.23.38.34.58s.12.27.17.4l0,.08a7,7,0,0,1,.18.69,6.49,6.49,0,0,1,.11.77C73.92,76,73.92,76.29,73.9,76.6Z"/><path class="cls-1" d="M64.48,72l0,0v0Z"/><path class="cls-1" d="M158.66,88Z"/><path class="cls-1" d="M239.24,131.22h0v0Z"/><path class="cls-1" d="M239.25,131.28v-.06h0Z"/><path class="cls-1" d="M281.86,120.34c0-.66-.06-1.32-.07-2s0-1.39,0-2.09v0s0-.09,0-.13a.28.28,0,0,1,0,.09,9,9,0,0,0,0-1.16,1,1,0,0,0-.23-.65.78.78,0,0,0-.73-.18h0a2.71,2.71,0,0,1-.41,0c-.9.06-1.8.1-2.7.14l-2.2.11c-.72,0-1.45,0-2.17,0h-4.55c-3,0-5.9,0-8.85,0-1.45,0-2.9.08-4.36.11s-2.91.06-4.36.11-3,.07-4.42.16c-.73.05-1.45.11-2.18.19s-1.46.18-2.19.23-1.24,0-1.87,0a1,1,0,0,0-.62.16.83.83,0,0,0-.11.15.67.67,0,0,0-.49.39.65.65,0,0,0,0,.28.72.72,0,0,0-.19.53.66.66,0,0,1,0,.14h0c0,.26,0,.51,0,.77s0,.77.06,1.15c0,.2,0,.4,0,.6,0,.54,0,1.08,0,1.62,0,.34,0,.69.07,1s.09.53.15.79a1.4,1.4,0,0,0,.23.53.86.86,0,0,0,.67.32h0l.23.08a2.85,2.85,0,0,0,.41,0l.52.07.52,0h.57c1.07,0,2.13-.17,3.19-.25,1.44-.09,2.88-.13,4.32-.16s2.86-.05,4.29-.05,2.83,0,4.24-.08,2.94-.14,4.41-.2,2.85-.11,4.27-.15,3-.11,4.45-.17c.72,0,1.45-.06,2.18-.07s1.55,0,2.32,0h2.16c.67,0,1.33,0,2,0a3.05,3.05,0,0,1,.41,0h0a.78.78,0,0,0,.66-.11.81.81,0,0,0,.3-.62c0-.27,0-.55,0-.82S281.87,120.71,281.86,120.34Zm-1.95,1.23h-4c-.71,0-1.42,0-2.13,0-1.47,0-2.95.1-4.42.17s-3,.08-4.46.13l-4.33.19c-1.46.08-2.91.12-4.37.15s-2.83,0-4.25,0-2.9.06-4.35.12c-.73,0-1.46.06-2.2.12s-1.41.13-2.12.18a11.7,11.7,0,0,1-1.45,0l-.37,0-.41,0h0l-.14,0v0a6.71,6.71,0,0,1-.12-.9c0-.49-.06-1-.06-1.47s0-1,0-1.51v.1c0-.56,0-1.12-.06-1.68h0a.66.66,0,0,0,.52-.27h.51a15.25,15.25,0,0,0,1.66-.09c.55,0,1.1-.13,1.65-.18s1.06-.11,1.59-.15c1.42-.09,2.85-.11,4.28-.17s3-.09,4.5-.12,2.87-.09,4.3-.11,3,0,4.49,0h8.93c.74,0,1.48,0,2.22,0s1.44-.06,2.16-.1l2.18-.1.88-.06c0,.15,0,.3,0,.45,0,0,0-.06,0-.1s0,.14,0,.2h0a.2.2,0,0,0,0,.07c0,.71-.06,1.42-.05,2.13s.05,1.31.07,2c0,.36,0,.73,0,1.1v.11Z"/><path class="cls-1" d="M238,62.51h0Z"/><path class="cls-1" d="M68.29,63.1s0,0,0,0l0,0A.3.3,0,0,1,68.29,63.1Z"/><path class="cls-1" d="M67.06,64.2l.15.85c.08.46.18.92.23,1.38a.7.7,0,0,0,.69.6h.08a.69.69,0,0,0,.59-.77c-.1-.85-.32-1.69-.42-2.54a.64.64,0,0,0,0-.2.84.84,0,0,0-.11-.38,1.09,1.09,0,0,0-.08-.15.69.69,0,0,0-.64-.26.71.71,0,0,0-.54.41,1.42,1.42,0,0,0,0,.71C67,64,67,64.08,67.06,64.2Z"/><path class="cls-1" d="M70.49,88.34c0-.56-.06-1.13-.12-1.7a.69.69,0,0,0-1.37.09h0s0,.07,0,.1h0c0,.29,0,.58.07.87q0,.85.12,1.71a.69.69,0,0,0,.69.6H70a.69.69,0,0,0,.59-.77c0-.33,0-.65-.08-1C70.48,88.28,70.49,88.31,70.49,88.34Z"/><path class="cls-1" d="M77.65,76a2,2,0,0,0-.34.13.68.68,0,0,0-.34.5.69.69,0,0,0,.59.77h.08a.75.75,0,0,0,.26-.05c.32-.1.64-.17,1-.25.54-.1,1.07-.16,1.61-.21a.7.7,0,0,0,.59-.78.69.69,0,0,0-.77-.58,13.15,13.15,0,0,0-1.78.25Q78.09,75.9,77.65,76Z"/><path class="cls-1" d="M59.42,78c-.45,0-.89.1-1.34.18l-.73.13-.53.1A.69.69,0,0,0,57,79.75h.16c.83-.15,1.65-.31,2.49-.39a.69.69,0,0,0,.58-.77A.69.69,0,0,0,59.42,78Z"/><path class="cls-1" d="M56.78,78.4h0Z"/><path class="cls-1" d="M76.93,66.51a.67.67,0,0,0,.21-.49.7.7,0,0,0-.68-.69c-.42,0-.64.35-.83.67l-.42.69-1,1.52a.69.69,0,0,0,.24.94.7.7,0,0,0,.94-.25c.27-.4.53-.81.79-1.23S76.68,66.89,76.93,66.51Z"/><path class="cls-1" d="M64.73,84.05a.69.69,0,0,0-.9.37s0,0,0,0c-.17.33-.33.67-.49,1s-.45.87-.69,1.29a.69.69,0,0,0,.24.94.62.62,0,0,0,.34.09.7.7,0,0,0,.6-.33c.45-.77.84-1.57,1.22-2.37l.06-.14A.7.7,0,0,0,64.73,84.05Z"/><path class="cls-1" d="M62.54,69.47a7.63,7.63,0,0,0-1-.83,4.82,4.82,0,0,0-1.93-.9.7.7,0,0,0-.78.58.71.71,0,0,0,.55.77h0l.25.08a3.65,3.65,0,0,1,.54.23,3.26,3.26,0,0,1,.4.24,6.7,6.7,0,0,1,.6.45l.37.36a.69.69,0,0,0,1,0A.68.68,0,0,0,62.54,69.47Z"/><path class="cls-1" d="M78.06,84.92a13.25,13.25,0,0,1-1-1.25l.05.08-.22-.34a.69.69,0,0,0-.44-.58h0a.62.62,0,0,0-.42-.09.7.7,0,0,0-.59.77,1.24,1.24,0,0,0,.24.55l.2.31c.15.23.31.46.48.68.34.41.7.82,1.07,1.22a.67.67,0,0,0,.48.2.69.69,0,0,0,.49-1.17Z"/><path class="cls-1" d="M76.48,68.53h0l.08,0Z"/><path class="cls-1" d="M130.46,57.54h0l0,0Z"/><path class="cls-1" d="M317.25,121.54l-3.62-.17q-1.86-.09-3.72-.27c-1.47-.14-2.94-.28-4.41-.33-.7,0-1.41,0-2.11,0s-1.52.05-2.27.08c-2.84.14-5.67.24-8.51.38a.15.15,0,0,0,0-.07l.06-.26a.29.29,0,0,0,0,.09,1.16,1.16,0,0,1,0-.18h0v-.05h0v0h0l.21-1c.09-.44.18-.88.23-1.32,0-.25.06-.5.08-.75h0c0-.11,0-.24,0-.35v.09c.08-1.19.05-2.39.06-3.59s.05-2.25.11-3.38c.07-.92.19-1.83.32-2.75q.43-3.07.81-6.16c.06-.48.12-1,.16-1.44s.09-1,.15-1.58c.11-1,.25-2,.38-3s.2-2.05.31-3.07.22-2.06.32-3.09.17-2.14.29-3.2.27-2,.34-3c0-.56.06-1.11.07-1.67s0-1,0-1.57c0-1.11,0-2.22.11-3.33.06-.77.12-1.54.25-2.3s.28-1.59.43-2.38.27-1.51.33-2.27.08-1.58.13-2.36c0-.2,0-.39.05-.58,0-.5.1-1,.19-1.5s.19-1,.28-1.48.16-1,.2-1.45.06-1,.09-1.57c.05-1,.09-2.07,0-3.11,0-.5-.05-1-.06-1.5s0-.94,0-1.41c0-1.05,0-2.1,0-3.14s.07-2,.1-3c0-.47,0-.93,0-1.4s0-.94,0-1.41c0-.27,0-.55-.05-.82l-.09-.69c-.05-.42-.1-.83-.13-1.25s0-1.1-.05-1.64-.1-.83-.13-1.25l-.09-.86c0-.19-.05-.38-.06-.56l0-.56a.28.28,0,0,0,0,.09,5.82,5.82,0,0,0-.07-.93,2.64,2.64,0,0,0-.48-1,4.9,4.9,0,0,0-.89-.93,6.3,6.3,0,0,0-.53-.37,3.67,3.67,0,0,0-.52-.27,6.94,6.94,0,0,0-1.86-.34l-1.5-.1c-.49,0-1,0-1.46,0h-5.87c-1,0-2.06,0-3.09-.08s-2-.05-3-.05h-6.35l-6.15,0h-3.18c-1,0-2.11,0-3.16-.08s-2.11-.07-3.16-.12-2-.05-3-.05c-2.07,0-4.15,0-6.22,0-1,0-2,.09-3.05.12h-3a26.49,26.49,0,0,0-3.08.17c-1,.12-1.93.21-2.9.29h-2.12a.75.75,0,0,0-.26-.05.67.67,0,0,0-.5.23,3.1,3.1,0,0,0-.08-.42c-.15-.55-.33-1.09-.48-1.64-.07-.27-.14-.54-.22-.81s-.18-.54-.28-.82c-.17-.52-.32-1.05-.49-1.57s-.3-1-.48-1.55-.4-1.13-.61-1.69-.45-1.05-.7-1.56-.51-1-.79-1.47l-.15-.25h0a.79.79,0,0,0,.48,0l.1,0a0,0,0,0,0,0,0c.24,0,.48-.08.71-.1h-.09a1.22,1.22,0,0,0,1.13-.69,1,1,0,0,0,0-.73,3,3,0,0,0-.2-.4,7,7,0,0,0-.37-.72,6.55,6.55,0,0,0-.39-.53l-.42-.59a15,15,0,0,0-1-1.25c-.34-.42-.7-.81-1-1.25s-.48-.86-.75-1.27a8,8,0,0,0-1-1.2c-.26-.28-.53-.55-.82-.81a3.41,3.41,0,0,0-.74-.52,2.51,2.51,0,0,0-.85-.24l-.75-.08-.75,0c-.69,0-1.38,0-2.07,0h.05c-.56,0-1.11-.07-1.67-.07h-1.73l-1.71,0-1.78,0c-.59,0-1.19,0-1.78-.06s-1.33-.07-2-.08a10.19,10.19,0,0,0-1.82.17c-.57.09-1.14.19-1.73.23l-1.75.13-2.63.12c-.46,0-.91,0-1.37,0l-1.14-.06c-.53,0-1.05-.13-1.58-.2s-.94-.1-1.42-.14l-.8-.07a3.66,3.66,0,0,0-.74,0,4.48,4.48,0,0,0-.89.23,1.69,1.69,0,0,1,0-.23c0-.52.07-1,.14-1.54s.13-.89.2-1.34.17-1,.25-1.53.13-.87.16-1.31a7.67,7.67,0,0,0,0-.83c0-.24,0-.48,0-.71a4.45,4.45,0,0,0-.28-1.74,5.76,5.76,0,0,0-.33-.6,6.15,6.15,0,0,0-.45-.68,3,3,0,0,0-1-.85A3.65,3.65,0,0,0,191,.73a4.4,4.4,0,0,0-.81,0c-2.34,0-4.7.05-7-.1h0c-.84-.06-1.67-.14-2.5-.16s-1.72,0-2.58,0-1.83.06-2.75.06-1.72,0-2.58-.07-1.89-.19-2.84-.24-2-.14-3-.18-1.9,0-2.85,0-1.89.07-2.83.14h0c-.95.06-1.9.11-2.85.13l-2.8,0h-3.93c-1.3,0-2.61,0-3.92.09s-2.66.09-4,.12-2.58,0-3.87.08-2.55,0-3.83,0l-3.81,0h-4c-1.33,0-2.65,0-4-.12l-2-.14h0c-.94-.06-1.88-.17-2.82-.18s-1.71.09-2.56.16-1.78,0-2.66.14q-.66.08-1.32.21L111.67,1l-.79.14-.78.1c-.55.09-1.1.21-1.65.27-.37,0-.73,0-1.1,0h-.81a11.2,11.2,0,0,0-1.82.17,2.89,2.89,0,0,0-1,.29,4.5,4.5,0,0,0-.8.64,1.93,1.93,0,0,0-.41.53,3.32,3.32,0,0,0-.29.6,12.23,12.23,0,0,0-.39,1.47,10.22,10.22,0,0,0-.25,1.82c0,.57,0,1.14,0,1.71,0,1.23,0,2.46,0,3.69s0,2.22,0,3.33,0,2.18,0,3.27V22.5c0,.58,0,1.17,0,1.76s.08,1.12.13,1.68h0v0c0,.45,0,.9.06,1.36s.06.8.09,1.2v0c0,.79.11,1.58.17,2.37.07.94.16,1.88.24,2.82s.18,1.82.33,2.73c.07.46.13.92.23,1.38s.23.85.32,1.28l.09.49-1.72,0c-.84,0-1.67,0-2.5,0s-1.37-.14-2-.22c-.34,0-.69-.07-1-.09a6.76,6.76,0,0,0-.9,0,10.19,10.19,0,0,0-1.46.16,5.87,5.87,0,0,0-1.42.45,5.45,5.45,0,0,0-.57.32,4.6,4.6,0,0,0-.58.4,3.39,3.39,0,0,0-.52.55c-.13.16-.25.34-.37.52A5.35,5.35,0,0,0,89.59,43a4.23,4.23,0,0,0-.12,1.42,2.78,2.78,0,0,0,.07.57,1.87,1.87,0,0,0,0,.34,1.42,1.42,0,0,0,.05.22v.06c0,.24,0,.49,0,.73v-.07c0,.58,0,1.16-.08,1.73,0,.17,0,.33,0,.49s0,.09,0,.13c0,.71-.17,1.41-.27,2.12s-.18,1.69-.34,2.52c-.12.55-.29,1.09-.44,1.64-.05.19-.1.37-.16.56-.06-.25-.1-.5-.17-.75-.18-.61-.33-1.22-.47-1.83a31.82,31.82,0,0,0-1.11-3.72c-.38-1-.86-2-1.34-3l-.05-.09c-.36-.72-.7-1.45-1-2.18s-.63-1.37-.89-2.08c-.18-.53-.35-1.07-.54-1.61L82,38.48a21.15,21.15,0,0,1-.61-2.06,5.82,5.82,0,0,1-.09-.73c0-.85,0-1.7,0-2.56s-.09-1.69-.15-2.53-.1-1.72-.11-2.57,0-1.64,0-2.46,0-1.48-.07-2.22a5.05,5.05,0,0,0-.07-.68c0-.22-.1-.43-.14-.64a4.06,4.06,0,0,1-.09-.7l0-.53a3.52,3.52,0,0,0-.15-.86,3.07,3.07,0,0,0-.31-.72c-.1-.17-.22-.33-.33-.49s-.08-.14-.13-.21a1.65,1.65,0,0,0-.35-.4,2,2,0,0,0-.55-.34A8.21,8.21,0,0,0,78,17.5a10.55,10.55,0,0,0-1.27-.24,21.88,21.88,0,0,0-2.56-.06c-.81,0-1.62.07-2.43.13-.57,0-1.15,0-1.72.05l-3.71.07q-1.74,0-3.48,0c-1.19,0-2.38,0-3.57,0L57.5,17.4c-.57,0-1.14,0-1.71-.08-1-.07-2-.19-3-.24S50.89,17,50,17c-.55,0-1.1-.1-1.65-.16s-1.16-.1-1.73-.18c-1.2-.16-2.39-.35-3.58-.56l-1.82-.32c-.65-.09-1.29-.19-1.94-.23-.3,0-.61-.06-.92-.05l-.72.06a3.28,3.28,0,0,0-1.35.52,2.31,2.31,0,0,0-.76,1,7.08,7.08,0,0,0-.28.77,2.6,2.6,0,0,0-.12.46,3.39,3.39,0,0,0,0,.55c0,.21.07.42.09.64a1.31,1.31,0,0,1,0,.28.92.92,0,0,0-.07.47,1,1,0,0,0,.18.39q0,.76,0,1.53c0,.73-.08,1.46-.1,2.2s0,1.39-.09,2.09c-.09,1.23-.23,2.45-.31,3.67a.41.41,0,0,0,0,.11h0c0,.21,0,.42,0,.62-.06,1.21-.06,2.42-.06,3.63,0,.6,0,1.2,0,1.8s.06,1.3.12,1.95c0,.16.05.33.07.49,0,.49-.13,1-.22,1.45a33.51,33.51,0,0,1-.93,3.4c-.32.88-.67,1.74-1,2.61l-1.12,2.79c-.36.91-.69,1.84-1,2.77s-.64,1.72-.94,2.58l0-.11c-.05.16-.13.33-.17.5a1.87,1.87,0,0,0-.07.22c-.29.8-.59,1.59-.91,2.37-.8,2-1.65,4-2.52,5.92-.46,1.06-.92,2.11-1.37,3.17s-.84,2-1.19,3c0,.13-.09.26-.13.38l0,0a22.87,22.87,0,0,0-.82,3,33.91,33.91,0,0,0-.59,6.51c0,2.22,0,4.43.19,6.64h0v0s0,0,0,.08,0,.25,0,.36c.13,1.86.17,3.72.23,5.58,0,1,0,1.94.1,2.91s.12,2,.19,3a.41.41,0,0,1,0-.11c.08,1.28.17,2.56.24,3.84s.11,2.45.19,3.67l.33,4.55c.1,1.54.2,3.09.31,4.63,0,.6.07,1.2.12,1.8s.13,1.23.19,1.85c.1,1.21.19,2.42.28,3.64v0c.09,1.56.16,3.12.26,4.68l-1.23,0H21.63c-1.2,0-2.4,0-3.6,0-1.5,0-3,0-4.49,0s-2.91-.1-4.37-.11-2.91,0-4.36,0l-2.11.08-1,0c-.35,0-.7,0-1,.06a.71.71,0,0,0-.62.75.7.7,0,0,0,.67.62H.75c.36,0,.72,0,1.08-.06l1.07,0L5,127.57c1.37,0,2.74,0,4.1,0,3,0,5.91.21,8.87.16,1.53,0,3.07,0,4.61,0,.67,0,1.34,0,2,0a36.56,36.56,0,0,1,.08,4.44,12.42,12.42,0,0,1-.2,1.61,6.59,6.59,0,0,1-.23.9.36.36,0,0,1,0,.09l0,0v0h0l0,0-.12.07a.86.86,0,0,0-.43.63.89.89,0,0,0,.94,1c.62,0,1.24,0,1.87,0l2.12.11c.62,0,1.23,0,1.85.08.44,0,.88.1,1.31.18.75.18,1.48.43,2.21.68.5.17,1,.36,1.5.55l1.45.49c.74.26,1.46.55,2.21.8a21.86,21.86,0,0,0,2.24.62c.79.17,1.59.25,2.39.35s1.41.21,2.11.35l.23,0h0l0,0c1,.21,2,.46,3,.63.52.08,1,.17,1.56.23s.93.1,1.38.19c.23.05.46.12.68.19a1.54,1.54,0,0,0,.35.28,1.24,1.24,0,0,0,.42.15l.19,0a1,1,0,0,0,.57-.2h0l.23-.07h0c.25,0,.49-.06.73-.12a4.64,4.64,0,0,0,.53-.16,2.72,2.72,0,0,1,.38-.11,2.25,2.25,0,0,1,.36-.06c.36,0,.72,0,1.08,0a8.43,8.43,0,0,0,.86-.05,4.69,4.69,0,0,0,.89-.24c1.66-.66,3.26-1.49,4.94-2.09l2.15-.69,2.28-.71c.71-.2,1.42-.38,2.14-.54l2-.47c1-.21,2.08-.38,3.11-.55s2.06-.37,3.09-.5c.48-.06,1-.08,1.44-.13s1-.1,1.48-.18c1-.17,2.08-.41,3.12-.63a11.66,11.66,0,0,1,1.44-.23c.67,0,1.34,0,2,0,.47,0,.93.08,1.39.16l.08,0,.14.07c.1,0,.19.12.3.17a.88.88,0,0,0,1.14-.45c.25-.53-.18-1-.47-1.41s-.55-.9-.8-1.37c-.11-.23-.21-.46-.3-.7s-.09-.32-.13-.49l.67.54a5.31,5.31,0,0,0,.63.42,5.18,5.18,0,0,0,.82.4,9.33,9.33,0,0,0,1.66.49c.61.12,1.24.2,1.86.32.46.1.92.23,1.37.35s1.11.3,1.65.48h0l0,0h0l1.71.6c.54.18,1.08.31,1.63.45s.81.23,1.22.32.81.23,1.21.35c.87.25,1.76.41,2.64.63s1.62.47,2.43.69c.4.11.81.21,1.21.3l1.31.25H112a11.86,11.86,0,0,1,1.31.31c.34.12.66.28,1,.41l1.07.44,1.1.41c.39.15.77.29,1.17.41a11,11,0,0,0,1.25.34,5.09,5.09,0,0,0,1,.13h0a7.74,7.74,0,0,0,1.6-.13c.28-.05.56-.13.83-.2a5.73,5.73,0,0,0,.7-.23,3.81,3.81,0,0,0,.45-.23.79.79,0,0,0,.41-.2v0l.8-.53h0c.57-.38,1.13-.78,1.7-1.17l1.41-.92c.49-.32,1-.55,1.54-.85l.74-.45.68-.38c.5-.27,1-.59,1.47-.84.88-.44,1.76-.86,2.64-1.31l-.08,0c.33-.16.68-.3,1-.45s.58-.27.88-.38l.54-.13.36,0c.26,0,.52,0,.78,0a1.79,1.79,0,0,0,.82-.15.85.85,0,0,0,.32-1.11,6.67,6.67,0,0,0-.45-.72l-.07-.1a8.71,8.71,0,0,1-.56-1c-.09-.18-.17-.36-.25-.55l.08.06.49.18-.09,0,.61.26c.25.1.51.18.77.27a13.55,13.55,0,0,0,1.68.5c.82.17,1.66.31,2.49.45.58.09,1.15.15,1.73.22l1.67.23a17.7,17.7,0,0,0,1.78.1h5.86q1.89,0,3.78,0c1.29,0,2.58-.11,3.87-.22.67-.06,1.34-.13,2-.22s1.3-.19,2-.27c1.28-.17,2.56-.29,3.83-.51l1.81-.31c.61-.1,1.22-.23,1.82-.36l1.24-.21,1.69-.28,1.78-.23.79-.12c0,.21.06.43.11.64a9.1,9.1,0,0,0,.29,1,1.8,1.8,0,0,0,.59.77,4.2,4.2,0,0,0,.92.58l.73.31.6.27c.27.12.55.22.82.33a14.82,14.82,0,0,0,1.75.55c1.24.3,2.49.53,3.73.78.53.11,1,.23,1.56.39s1.27.52,1.91.76,1.27.5,1.91.76a17.63,17.63,0,0,0,1.77.62c.6.17,1.2.34,1.79.54s1,.37,1.49.58l1.64.67c1,.42,2,.86,3,1.29s1.87.85,2.83,1.21h0a3.18,3.18,0,0,0,.92.46,3.25,3.25,0,0,0,.45.06l.35,0,.24,0c.11,0,.23,0,.34,0,.26,0,.52,0,.77,0a2.6,2.6,0,0,0,.4,0c.27,0,.52-.12.78-.18s.42-.1.63-.16a.57.57,0,0,0,.7-.28c.38-.19.74-.42,1.12-.62s.73-.36,1.1-.52l.93-.43.88-.41,0,0h0c.55-.27,1.09-.57,1.62-.87s1.12-.61,1.69-.9l.09-.05h0l.17-.09-.08,0c.66-.33,1.33-.65,2-1s1.33-.74,2-1.13,1-.65,1.54-1,1.1-.65,1.66-1l.59-.33c.25-.14.52-.26.77-.41a3.55,3.55,0,0,0,.61-.43,4,4,0,0,0,.33-.37c.11-.12.23-.25.34-.39l.19-.2a1.64,1.64,0,0,0,.14-.22l0,0,0,0,1.07.13.65.1a3.5,3.5,0,0,1,.55.09l-.07,0,.94.19.46.11.61.09H235l1.74.38c1.6.34,3.18.73,4.77,1.12l1.59.4c.45.12.91.25,1.37.35s1,.22,1.53.31l1.61.25,3,.47c1.05.16,2.1.33,3.15.41s1.86.09,2.79.09h.28c1,0,2,0,2.93-.05s2-.19,3-.29,1.93-.19,2.9-.32,1.88-.28,2.82-.44,1.93-.31,2.9-.47a25.17,25.17,0,0,0,2.71-.59c.73-.21,1.43-.51,2.15-.77s1.49-.44,2.23-.69a26.82,26.82,0,0,1,2.79-.78l2.27-.47a19.75,19.75,0,0,1,2-.31c.65-.07,1.3-.17,2-.22h1.51l1.08,0c.14,0,.29,0,.43,0a1.07,1.07,0,0,0,.39-.14,1.12,1.12,0,0,0,.51-.66,3.8,3.8,0,0,0,.18-.6c.07-.33.12-.67.17-1,.08-.49.17-1,.25-1.47s.19-1,.28-1.56a.41.41,0,0,0,.16,0h.09l1.39-.07,4.41-.18,4.4-.2c1,0,1.94,0,2.92,0s1.94.12,2.9.21c1.43.13,2.85.27,4.28.35l4.28.2h0a.69.69,0,0,0,.68-.66A.68.68,0,0,0,317.25,121.54ZM224.46,14.69c.17.16.33.32.48.49a8.73,8.73,0,0,1,.54.7c.25.4.45.83.71,1.22s.67.86,1,1.29.71.83,1,1.28l.77,1a2.15,2.15,0,0,1,.14.26l.13.26-.29,0a2.09,2.09,0,0,0-.36.07l-.15.06a.67.67,0,0,0-.53.53c-.09-.15-.18-.29-.26-.44-.28-.49-.56-1-.81-1.49s-.53-1-.8-1.47-.5-.92-.74-1.38c-.12-.26-.24-.52-.34-.78s-.07-.24-.11-.35h0v0l0,0v0a4.73,4.73,0,0,0-.37-.79c-.15-.25-.32-.48-.48-.71s-.19-.3-.27-.45v0l.25.19Zm-30.92-1h.06l.1,0h0l.36-.1.24,0h.25l1.35.11c.49,0,1,.1,1.46.17A13.51,13.51,0,0,0,199,14c.53,0,1.07.08,1.61.06L202.1,14l1.67-.08,1.57-.11c.54,0,1.07-.09,1.6-.18s1-.18,1.56-.22a14.83,14.83,0,0,1,1.49,0l1.44.07c.93.06,1.86,0,2.79,0s1.75,0,2.63,0,1.76,0,2.63,0h-.09c.58,0,1.16,0,1.74,0-.11.27-.22.54-.35.79l0-.05c-.43.85-.82,1.7-1.24,2.55l0,0c-.54,1.06-1.09,2.12-1.6,3.19s-1,2.13-1.53,3.2-1,2.22-1.44,3.33-1,2.28-1.45,3.46c-.19.55-.39,1.09-.58,1.64s-.33,1.14-.47,1.72a9.18,9.18,0,0,0-.27,1.48L212.19,36c0,.26-.06.51-.08.76,0,.49,0,1,0,1.46,0,1,0,2,.11,3.06h0v0h0v.07h0a.76.76,0,0,1,0,.15v0c0,.09,0,.18,0,.27a.28.28,0,0,0,0-.09l0,.34h0v0c.08,1.53.16,3.06.22,4.59.08,2.47.19,4.93.24,7.39q0,2,.09,4c0,1.24.05,2.49.06,3.74,0,5.2,0,10.41,0,15.61,0,2.52,0,5,0,7.55,0,1.23,0,2.45,0,3.68s0,2.37,0,3.56,0,2.57,0,3.86,0,2.42,0,3.63v.86l-.25-.11c-.29-.13-.59-.26-.89-.37-.66-.25-1.34-.46-2-.65l-2-.57c-.75-.19-1.5-.36-2.25-.53s-1.4-.29-2.1-.45-1.46-.33-2.2-.47c-1.49-.29-3-.55-4.48-.85l-4.41-.87h.09c-.83-.17-1.66-.36-2.48-.55s-1.58-.3-2.37-.44c-.42-.09-.85-.18-1.26-.3L185.06,94c-.42-.13-.83-.28-1.25-.39s-.9-.24-1.34-.38h0l-.14,0,0,0h0l-.56-.23-.3-.16-.18-.14-.05,0a.94.94,0,0,0-.58-.39.7.7,0,0,0-.38.07c0-.89.06-1.79.1-2.68.1-2.6.22-5.19.38-7.78,0-.34.05-.69.07-1,.1-1.28.17-2.55.21-3.83s.09-2.56.15-3.83c.13-2.68.08-5.35.19-8,0-.65.06-1.29.07-1.93s0-1.37,0-2c0-1.32,0-2.64,0-4s.07-2.76.09-4.14c0-.63,0-1.27,0-1.9s.05-1.24.09-1.86a.28.28,0,0,1,0,.09c.09-1.16.18-2.32.26-3.48l0-.46c.06-.88.08-1.76.12-2.64s.08-1.91.12-2.86,0-1.81.06-2.71.06-1.5.1-2.25h0a14.65,14.65,0,0,1,.24-1.5,9.18,9.18,0,0,0,.19-.91c0-.3,0-.61.1-.91s.22-.79.34-1.18.32-1,.49-1.51a13,13,0,0,1,.64-1.48l.3-.57c.29-.55.59-1.08.88-1.64s.58-1.13.9-1.69.61-1.08.91-1.63.6-1.09.92-1.63.64-1.05,1-1.56.68-1,1-1.55.59-1,.91-1.53l.1-.16.08-.17.12-.27a2.15,2.15,0,0,1,.42-.58,2.21,2.21,0,0,1,1.27-.66h0a1.53,1.53,0,0,1,.3,0ZM172,101.49c-1.22.61-2.46,1.18-3.73,1.68s-2.73,1.1-4.11,1.63c-.78.31-1.55.61-2.34.9s-1.29.47-1.94.71c-2.85,1-5.69,2.11-8.51,3.23-.62.25-1.25.51-1.86.79-.34.15-.69.3-1,.47l-1.1.54c-.7.34-1.37.73-2,1.12l-.47.28-.41.26c-.32.2-.64.4-.94.63-.63.45-1.24.91-1.83,1.41a20.53,20.53,0,0,0-1.66,1.57c-.5.54-1,1.11-1.41,1.7l-.7,1a3,3,0,0,0-.2.29c0-.81,0-1.61.09-2.42,0-.46.06-.93.08-1.39s.05-.92.08-1.38v0a.76.76,0,0,1,0-.15.31.31,0,0,0,0,.1v-.23h0c.07-.69.13-1.38.17-2.07l.12-2.12v0c.06-1,.14-2,.22-2.93s.19-1.84.26-2.76.1-1.87.12-2.81,0-1.9.09-2.84c.12-1.55.34-3.08.44-4.63,0-.78.06-1.56.09-2.35s0-1.55,0-2.32c0-1.84,0-3.67-.11-5.5a37,37,0,0,0-.46-5,.58.58,0,0,0,.21-.17c.41-.34.84-.65,1.27-1l.69-.43.65-.35,1.14-.52c.37-.16.75-.29,1.13-.43a9.75,9.75,0,0,1,1-.3c.33-.09.66-.17,1-.24.65-.13,1.29-.25,1.94-.34s1.38-.15,2.07-.22,1.44-.13,2.16-.24,1.43-.24,2.15-.34l2.17-.28c.71-.09,1.42-.18,2.12-.32s1.17-.24,1.75-.39l1.73-.49,3.2-1c.67-.21,1.34-.42,2-.66s1.34-.5,2-.76c1.34-.52,2.68-1,4-1.6.66-.28,1.32-.58,2-.91s1.3-.67,1.93-1a7.75,7.75,0,0,0,.9-.59,10,10,0,0,0,.76-.69c.37-.35.72-.71,1.07-1.08-.05,1.22-.1,2.44-.11,3.66s0,2.61-.07,3.92-.12,2.58-.16,3.87-.09,2.58-.17,3.87c-.06.86-.14,1.72-.18,2.58q-.22,3.9-.37,7.8c0,1.31-.08,2.62-.15,3.94,0,.63,0,1.25-.06,1.88-.13.19-.26.36-.4.54a3.18,3.18,0,0,1-.27.37l0,0-.46.41c-.23.23-.42.49-.63.74a7.93,7.93,0,0,1-.72.7c-.5.43-1,.83-1.57,1.21s-.82.54-1.25.78-.9.49-1.36.72ZM151.86,69.85c1.43-.21,2.86-.45,4.29-.67,2.94-.46,5.91-.71,8.81-1.39a63.53,63.53,0,0,0,8.43-2.57c.64-.25,1.28-.51,1.92-.79s1.3-.56,1.93-.88a9.93,9.93,0,0,0,.91-.49c.32-.19.64-.37.94-.59s.54-.42.81-.64l.12-.1c0,.47,0,1,0,1.42a.64.64,0,0,0-.82.19h0l0,0c-.25.28-.52.54-.79.8s-.58.58-.89.85a5,5,0,0,1-.51.4c-.39.26-.8.48-1.21.7l-1.32.69c-1.26.62-2.58,1.15-3.9,1.67s-2.64,1-4,1.53-2.5.79-3.75,1.18-2.63.81-4,1.09l.09,0-.64.13.09,0c-.76.13-1.52.24-2.29.34s-1.49.18-2.23.29-1.43.24-2.14.34-1.46.17-2.19.23a28.92,28.92,0,0,0-4.14.62c-.35.08-.71.16-1.05.27l-1.09.37a21.62,21.62,0,0,0-2,.85,11.61,11.61,0,0,0-1.89,1.12l-.71.54c-.11-.46-.23-.91-.35-1.36-.17-.64-.34-1.28-.5-1.93a.67.67,0,0,0,.38-.15c.24-.15.48-.31.73-.45s.68-.37,1-.54c1-.46,2-.9,3.08-1.27.78-.23,1.57-.4,2.35-.57l2.07-.43h0C148.93,70.29,150.39,70.06,151.86,69.85ZM103,8.79c0-.56,0-1.12,0-1.68s.11-1,.2-1.49a13.33,13.33,0,0,1,.36-1.38.61.61,0,0,1,.07-.14,2.43,2.43,0,0,1,.2-.35l0-.06.16-.15c.12-.11.24-.2.37-.3l0,0,.09,0a1.89,1.89,0,0,1,.34-.09C105.22,3,105.59,3,106,3s.91,0,1.37,0h.33a9.45,9.45,0,0,0,1.4-.07l1.17-.21.93-.13c.38-.06.76-.12,1.13-.21s.62-.17.94-.24a16.17,16.17,0,0,1,1.68-.24c.55,0,1.1,0,1.65-.06s1.08-.08,1.62-.12c.39,0,.78,0,1.18,0s.76,0,1.15,0c.85.07,1.7.14,2.56.19,1.21.09,2.43.17,3.65.19s2.59,0,3.89,0h3.92l3.73,0c1.3,0,2.59-.05,3.89-.07s2.69-.05,4-.1,2.58-.1,3.88-.13,2.62,0,3.93,0,2.69,0,4,0,2.56-.08,3.85-.17h0c1.44-.09,2.88-.12,4.33-.1s2.82.13,4.23.23h0c.91.08,1.81.19,2.71.24s1.86.06,2.78,0c1.88,0,3.75-.16,5.63,0,.92.07,1.83.14,2.75.18s1.62,0,2.43,0h4l.2.06.28.12.16.09.16.13.14.13a3.46,3.46,0,0,1,.22.31,6.59,6.59,0,0,1,.44.72l.07.16.06.22a5,5,0,0,1,.06.54c0,.3,0,.61,0,.91s0,.56,0,.84c0,.44-.11.88-.17,1.32s-.16,1-.25,1.55-.19,1.15-.24,1.73-.1,1.18-.12,1.77a1.42,1.42,0,0,0-.5.3,1.2,1.2,0,0,0-.37.1,3.93,3.93,0,0,0-1,.62c-.33.28-.65.55-1,.85l-.18.2-.16-.05a7.53,7.53,0,0,0-1.5.05c-1.08.07-2.17.06-3.26.07H170.51c-1.7,0-3.4,0-5.1-.05s-3.39-.07-5.09-.07l-10.32,0c-1.72,0-3.44,0-5.15-.06-.84,0-1.69-.09-2.53-.1s-1.77,0-2.66,0h-5.1c-.84,0-1.68,0-2.51,0s-1.72.08-2.58.14h.06c-.78,0-1.57.06-2.36.11s-1.6.1-2.4.16h0c-.89.06-1.78.1-2.68.12s-1.76,0-2.63,0c-1.66,0-3.31-.06-5,0-.83,0-1.66,0-2.49.1s-1.4.15-2.11.21h-1.43c-.47,0-.94,0-1.4,0l-1.2,0h-.2a1.56,1.56,0,0,0-.15-.41,2.14,2.14,0,0,0-.2-.32,2.21,2.21,0,0,0-.8-.65,2.1,2.1,0,0,0-.89-.23H103c0-1.05,0-2.11,0-3.16Q103,9.74,103,8.79Zm0,8.56c0-.72,0-1.44,0-2.15h.73l.1,0,.08,0,.14.08.11.08.05.05.06.08.07.11v.25c0,.07,0,.15,0,.22l0,.09c0,.07-.06.15-.09.23l-.06.09-.14.19-.15.15,0,0a6.55,6.55,0,0,1-.58.32Zm.26,10.48c0-.65,0-1.3-.1-1.95,0-.42-.07-.83-.1-1.24C103,23.34,103,22,103,20.73v-1.9a6.74,6.74,0,0,0,.74-.3,3.71,3.71,0,0,0,1.2-.78,2.81,2.81,0,0,0,.55-.82.76.76,0,0,0,0-.11l.79,0c.66,0,1.32,0,2,0s1.37,0,2.06-.05l2.05-.21c1.38-.08,2.75-.08,4.13-.06,1.64,0,3.28.05,4.91.05s3.37-.14,5-.25h-.09l2.14-.1c.69,0,1.38-.07,2.07-.12,1.12-.07,2.24-.08,3.37-.08h3.39c1.73,0,3.47,0,5.21,0,.82,0,1.65.08,2.47.11s1.71,0,2.56.05c3.43,0,6.85,0,10.28,0q2.6,0,5.19,0c1.69,0,3.38.08,5.08.09h15.06l2.53,0c.74,0,1.47-.06,2.21-.12a5,5,0,0,0-.16.67.69.69,0,0,0,.57.76c0,.06-.07.12-.11.17-.52.8-1,1.6-1.5,2.42-.34.59-.66,1.18-1,1.78s-.58,1-.86,1.5-.6,1.18-.91,1.76-.57,1-.84,1.55a14.3,14.3,0,0,0-.77,1.75c-.21.59-.38,1.18-.57,1.77a7.93,7.93,0,0,0-.38,1.45c0,.32-.06.64-.11,1a3.59,3.59,0,0,0-.08.35c-.06.28-.12.57-.17.86s-.09.45-.11.68c0,.42,0,.85-.08,1.27,0,.6-.06,1.21-.07,1.82s0,1.29,0,1.94-.06,1.31-.08,2c-.06,1.27-.08,2.54-.17,3.81h0a.66.66,0,0,0,0,.14v-.1l0,.44c-.06.86-.12,1.72-.19,2.57-.09,1.27-.16,2.54-.18,3.81,0,.63,0,1.27,0,1.91l-.06,2.1c0,1.31,0,2.62,0,3.93a.64.64,0,0,0-.41.18l-.23.21c-.39.34-.8.67-1.22,1s-.95.58-1.44.83c-.88.44-1.79.84-2.7,1.21s-1.88.74-2.83,1.08c-1.17.41-2.36.76-3.55,1.1-.62.18-1.24.36-1.86.51s-1.26.3-1.9.44l-1.27.25c-1.44.26-2.91.43-4.36.62s-2.86.43-4.29.65-2.93.44-4.38.66-2.91.54-4.35.85c-.73.16-1.45.32-2.17.51a17.75,17.75,0,0,0-2.11.77q-1.06.43-2.1,1c-.32.16-.63.34-.95.53l-.39.25c-.36-1.43-.73-2.86-1-4.3l-.09-.45a.29.29,0,0,0,0,.09c-.24-1.17-.4-2.34-.64-3.51S135.2,62.15,135,61s-.49-2.46-.67-3.7c-.1-.65-.19-1.3-.3-1.95s-.24-1.28-.37-1.92a.29.29,0,0,0,0,.09c-.18-.9-.29-1.81-.5-2.7-.08-.39-.19-.78-.31-1.17s-.15-.48-.21-.73a.68.68,0,0,0-.18-.63l0,0c0-.08,0-.17,0-.25s0-.21,0-.32l-.15-.51c-.06-.22-.12-.44-.16-.67a.14.14,0,0,1,0-.06A14.06,14.06,0,0,1,132,45c0-.6,0-1.2-.07-1.8h0v-.12c0-.05,0-.1-.08-.16l0-.07c-.07-.2-.15-.39-.23-.57l0-.06,0,0a2.3,2.3,0,0,0-.24-.5.35.35,0,0,0,.05.08,2.63,2.63,0,0,0-.38-.56c-.14-.14-.31-.26-.46-.39l.07.06a1.78,1.78,0,0,0-.46-.33l-.3-.13c-.21-.08-.42-.17-.63-.24a2.64,2.64,0,0,0-.73-.15c-.6-.07-1.19-.1-1.79-.14l-1.58-.13h0l-.64-.06c-.23,0-.46,0-.7,0h0a.64.64,0,0,0-.41.07h-.37c-1.73,0-3.46,0-5.19,0-1,0-1.92,0-2.88.11s-2,.19-3,.27a27.3,27.3,0,0,1-2.86,0c-.85-.06-1.69-.14-2.53-.24-.6-.07-1.21-.12-1.82-.16a2.61,2.61,0,0,0,0-.4c-.06-.34-.13-.67-.22-1s-.16-.6-.23-.91-.11-.68-.16-1-.11-.64-.15-1c-.08-.7-.15-1.41-.21-2.11s-.13-1.41-.19-2.11-.1-1.25-.14-1.87h0c0-.26,0-.52,0-.78S103.27,28.07,103.25,27.83ZM91.16,42.77c.11-.21.23-.4.35-.59l.25-.33.13-.13.28-.22c.24-.15.48-.29.74-.43L93,41c.31-.09.62-.18.93-.25s.77-.1,1.16-.13a10.09,10.09,0,0,1,1.1,0l2,.23c.73.07,1.46.11,2.2.12h1.21c.93,0,1.86,0,2.79,0h0c1.75.14,3.48.4,5.23.47a24.33,24.33,0,0,0,2.7,0l2.53-.24c.44,0,.89,0,1.33-.06,1.75-.08,3.5-.06,5.25-.06H125c1.07.1,2.14.16,3.21.25l.37.06.38.17a4.37,4.37,0,0,1,.55.32,3.65,3.65,0,0,1,.31.24l.18.18.08.09.12.21.11.27a2.44,2.44,0,0,0,.14.34,1,1,0,0,0,.07.15,7.92,7.92,0,0,1,.23.87l0,.06c0,.1,0,.19,0,.29h-.08c-.27,0-.53,0-.8,0l-1.38,0c-1,0-1.91,0-2.87.09-.71,0-1.41,0-2.12,0h-2.19c-.72,0-1.43,0-2.14,0s-1.46-.06-2.19-.11h-.52l-.63,0h-.07l-3-.2h0l-.55,0h0l-.93-.07c-.73,0-1.46-.07-2.19-.09l-2.18-.08-4.4-.12c-.65,0-1.3,0-1.94,0l-2,.09c-.73,0-1.46,0-2.19.09l-2.1.18c-.55,0-1.1.06-1.65,0s-1,0-1.49-.06l-.19,0h-.06s0-.06,0-.09L91,44a.7.7,0,0,0-.08-.53l0-.11A5.72,5.72,0,0,1,91.16,42.77Zm-2.1,14.55a1.22,1.22,0,0,0,.27-.56c.14-.48.28-1,.41-1.45.17-.63.37-1.25.49-1.89s.18-1.21.25-1.81c.12-1,.33-2,.38-3.07,0-.19,0-.38,0-.57s0-.45,0-.67,0-.59,0-.89v-.06s0,.06,0,.09c0-.21,0-.42,0-.63v-.12h0l.83.05c.5,0,1,0,1.5,0s1.13,0,1.7-.1l1.54-.14,3-.13c.92,0,1.84-.08,2.75-.08l2.16.06c.77,0,1.53,0,2.3.06,1.43,0,2.86.08,4.29.16h0l1.2.08h-.09l.6.05h0l1.28.08h-.09l1.86.13h0l.65,0h.51c1.12.08,2.23.13,3.35.15h3.31c.71,0,1.41,0,2.12,0s1.47-.07,2.2-.09l2.1,0h.67a2.11,2.11,0,0,0,.35,0c0,.08,0,.16,0,.25,0,.6,0,1.21,0,1.81s-.13,1.18-.2,1.77-.15,1.18-.24,1.77c-.18,1.19-.41,2.36-.65,3.54,0,0,0-.06,0-.09-.14.65-.28,1.3-.4,2s-.21,1.13-.32,1.7c-.29,1.4-.64,2.8-.94,4.2-.1.46-.2.92-.32,1.38s-.28,1-.43,1.5c-.26,1-.51,1.91-.71,2.88s-.39,1.88-.62,2.82c-.11.45-.24.91-.35,1.36s-.21.92-.31,1.38v0a2,2,0,0,0,0,.24.64.64,0,0,0,0,.07c0,.11,0,.23-.07.34s0-.06,0-.09c-.22,1.07-.44,2.13-.65,3.2-.18.85-.37,1.7-.54,2.55h0v0a.19.19,0,0,0,0,.07c0,.12-.05.24-.07.36-.2,1-.38,2-.5,3s-.18,2.09-.27,3.14-.19,1.94-.28,2.92c0,.51-.1,1-.12,1.53s0,1.06,0,1.59c0,2,.13,3.93,0,5.9v.06h0v0h0v0h0c0,.08,0,.16,0,.24h0v0h0c-.06.78-.11,1.55-.17,2.32,0,.4-.07.8-.1,1.2l-.44-.35,0,0,0,0,0,0,0,0c-.24-.22-.47-.45-.7-.68s-.57-.6-.85-.91-.52-.67-.77-1a8.77,8.77,0,0,0-.87-1c-.62-.59-1.21-1.22-1.78-1.87h0l0,0h0a14.37,14.37,0,0,1-1.08-1.39l0,0,0,0,0,0,0,0c-.12-.19-.24-.38-.37-.57a21.52,21.52,0,0,0-1.26-1.75,17,17,0,0,0-1.47-1.59c-.52-.5-1-1-1.54-1.49s-1-1-1.47-1.57l-.48-.55c-.92-1.09-1.77-2.23-2.63-3.37q-.65-.84-1.26-1.71l-.64-.86-.45-.66h0l-.06-.09c-.13-.19-.25-.37-.36-.56a3.12,3.12,0,0,0-.39-.56.77.77,0,0,0-1.09,0l-.23.28a5.62,5.62,0,0,1-.54.55c-1,.84-2,1.61-3,2.46h0l-.08.07h0l-.07.06c-.48.43-.95.88-1.4,1.32s-1,.94-1.44,1.42-1,1-1.52,1.55-1,1-1.52,1.53l-1.47,1.55c-.48.51-1,1-1.41,1.54h0l0,0,0,0v0l-.53.62c-.28.3-.56.6-.85.89-.08.09-.18.18-.27.27,0-.6,0-1.2-.06-1.8-.06-1.29,0-2.58,0-3.86s0-2.61,0-3.92,0-2.53.1-3.79c.07-1,.17-1.93.22-2.89s.06-1.88.08-2.82,0-2,0-3,0-1.8.07-2.7V70c0-.11,0-.23,0-.35.06-.78.12-1.56.19-2.34a22.11,22.11,0,0,0,0-2.3c0-.79,0-1.57-.06-2.35s0-1.58-.07-2.37-.14-1.84-.27-2.75A.67.67,0,0,0,89.06,57.32Zm29.5,49.62c-.49.5-.94,1-1.4,1.55s-.85,1.06-1.27,1.59c-.85,1.09-1.76,2.12-2.57,3.25-.41.57-.83,1.14-1.23,1.73s-.84,1.23-1.27,1.83-.83,1.12-1.26,1.67-.88,1.09-1.28,1.68h0c-.06.09-.12.17-.17.26v0c-.45.66-.87,1.35-1.3,2-.72,1.17-1.41,2.35-2.07,3.55q-.48.87-.93,1.74c-.14.26-.26.52-.38.79l0,.12c-.36-.19-.71-.4-1.05-.62s-.49-.36-.72-.56c-.44-.4-.83-.85-1.23-1.29s-.76-.84-1.14-1.26l-.12-.13c-.36-.41-.7-.82-1-1.25s-.64-.83-1-1.24c-.7-.83-1.47-1.62-2.2-2.42-.47-.54-1-1.07-1.44-1.58s-1-1-1.51-1.53c-.26-.26-.51-.52-.77-.77l-.76-.67c-.24-.21-.48-.43-.73-.63a4.3,4.3,0,0,0-.65-.47l-.12,0c0-.23-.07-.46-.1-.69-.08-.6-.17-1.2-.24-1.81s-.12-1.2-.17-1.8c-.13-2.24-.13-4.48,0-6.71,0-.54.06-1.07.08-1.6s0-1.11,0-1.66c0-1.1,0-2.19,0-3.29,0-.13,0-.25,0-.37a.77.77,0,0,0,.36-.21l0,0,0,0c.39-.34.74-.71,1.1-1.08s.8-.88,1.19-1.33l0,.06c.07-.08.14-.17.22-.25h0l0,0,0,0,0,0c.38-.42.77-.84,1.16-1.25s.83-.87,1.24-1.31c1-1,2-2,3-3.07.51-.52,1-1,1.55-1.54s1-1,1.49-1.4l-.07.05.08-.07h0l0,0,0,0,0,0,.07-.07,0,0,0,0h0l.07-.06-.07.06c.4-.35.8-.69,1.22-1s.76-.61,1.13-.93.59-.47.86-.73l.09-.09.21.33c.3.44.6.87.91,1.29s.63.88.95,1.32c.65.87,1.3,1.75,2,2.61.44.55.88,1.12,1.35,1.66.26.29.51.59.78.88l.78.83c.49.51,1,1,1.51,1.5s1,.93,1.43,1.44,1,1.27,1.46,1.94c.27.41.54.83.83,1.23s.59.76.91,1.12.78.85,1.18,1.27.79.76,1.16,1.17.64.88,1,1.29.71.79,1.09,1.16a10.83,10.83,0,0,0,.85.8l.16.13a3.07,3.07,0,0,0-.48.41c-.27.28-.54.56-.82.83C119.79,105.78,119.15,106.34,118.56,106.94Zm-32.9,16.52-2.74.18H83c-.68,0-1.36.07-2,.12-1.45.12-2.9.29-4.35.48s-2.92.49-4.39.64-3,.28-4.48.47c-.73.1-1.45.19-2.18.26s-1.46.13-2.19.18h.1l-1.56.1-1.48.17c-.95.11-1.9.2-2.86.27s-1.73.07-2.59.11l-1.34,0h-.13c.06-.65.08-1.3.08-2q0-3.72-.22-7.44c-.07-1.21-.16-2.42-.23-3.63s-.13-2.59-.22-3.88l-.06-.87,0-.38v0c0-.1,0-.2,0-.3-.18-2.69-.44-5.37-.62-8.06-.07-1.14-.11-2.29-.16-3.43s-.1-2.14-.15-3.22-.1-2.24-.14-3.37c0-.13,0-.27,0-.41a.66.66,0,0,0,.15,0l.34-.08h0a5,5,0,0,1,.69-.12c.2,0,.41,0,.61-.06h0c.5,0,1,0,1.48,0,1.42,0,2.83-.16,4.24-.2s2.82-.1,4.22-.11l2.09,0c.73,0,1.46,0,2.2,0s1.45-.07,2.18-.13l2.2-.18.71,0h0l2.08-.13c.67,0,1.33-.12,2-.19s1.32-.11,2-.18l2.16-.19c1.14-.06,2.28-.11,3.42-.18h.37c.57,0,1.15-.06,1.72-.09,0,.34,0,.68,0,1,0,1.33,0,2.66,0,4,0,.65.07,1.29.09,1.94s0,1.2,0,1.8c0,1.32.06,2.63.06,3.95s-.08,2.58-.12,3.87a55.19,55.19,0,0,0,.24,7.82c.14,1.19.32,2.38.49,3.57s.31,2.47.41,3.71c0,.54,0,1.07.06,1.61,0,.84,0,1.68,0,2.52l-.58,0C86.75,123.36,86.2,123.42,85.66,123.46ZM80.27,38.61c.25.77.54,1.53.81,2.3l.48,1.41a14.73,14.73,0,0,0,.62,1.55c.48,1.05,1,2.09,1.48,3.12h0l.21.42,0-.07c.46.92.87,1.87,1.24,2.83s.63,2,.87,3c.13.53.24,1.06.39,1.59s.28,1,.4,1.45a31.84,31.84,0,0,1,.46,3.53c.08,1.23.09,2.47.13,3.71,0,.62,0,1.23,0,1.85s0,1.16,0,1.73c-.07.81-.14,1.61-.19,2.42-.11,1.57-.08,3.14-.11,4.71s0,3.1-.14,4.65c-.07.82-.15,1.64-.19,2.46s-.07,1.63-.08,2.45,0,1.59,0,2.39h0l-1.79.09h-.38l-1.13.07L81,86.45c-.77,0-1.54.13-2.31.2s-1.41.11-2.12.19-1.37.14-2.06.19l-1.83.11h.09c-1.29.08-2.58.2-3.88.29l-1.33.07c-.7,0-1.4,0-2.1,0l-2.17,0c-.69,0-1.37,0-2.06,0l-2.14.07c-.72,0-1.44.07-2.16.11s-1.41.07-2.12.08c-.33,0-.67,0-1,0s-.75,0-1.11.09-.67.12-1,.19c0-.5,0-1-.06-1.51-.12-1.75-.28-3.5-.45-5.26s-.3-3.23-.46-4.85c-.11-1.2-.25-2.41-.39-3.61s-.33-2.5-.5-3.75-.34-2.32-.59-3.46a32.37,32.37,0,0,0-1-3.5c-.4-1.18-.86-2.34-1.33-3.5a23.63,23.63,0,0,0-1.53-3.31,30.25,30.25,0,0,0-1.9-3c-.73-.95-1.49-1.87-2.16-2.85s-1.17-2.06-1.74-3.09l-.1-.17a.87.87,0,0,0-.32-.56L38.7,45a1.13,1.13,0,0,0,0-.18.87.87,0,0,0-.57-.8L38,43.64c-.24-.52-.46-1-.66-1.57s-.34-1.15-.47-1.73-.19-1-.26-1.48c0-.13,0-.26,0-.39s0-.28,0-.42a.8.8,0,0,0-.1-.38c0-.12,0-.24,0-.36-.07-1.17-.07-2.34-.06-3.52s0-2.27.09-3.4c0-.06,0-.12,0-.18a.38.38,0,0,1,0-.1v0c.09-1,.19-2.07.27-3.11s.12-2.11.16-3.16c0-.56,0-1.12.07-1.68l.15,0c.45.06.91.08,1.36.1s1.16.2,1.74.27L42,22.8c1.21.14,2.41.25,3.62.32h.07l1.28.14,1.27.14c.86.08,1.73.21,2.59.3s1.78.17,2.67.19,1.75,0,2.63.08h-.12l5,.32c.91.07,1.83.15,2.74.19s1.75.05,2.63.1l1.48.13,1.49.1c1.18.09,2.35.24,3.53.32h-.12l.3,0c.9.06,1.8.09,2.69.14.63,0,1.25.11,1.87.19l.93.12.72.09h.11c0,.54,0,1.08,0,1.62,0,.78,0,1.56.07,2.34s.1,1.54.15,2.31c0,.36,0,.71,0,1.06s0,.71,0,1.06a11.25,11.25,0,0,0,.05,2.32A14.42,14.42,0,0,0,80.27,38.61Zm-43.14-21a.76.76,0,0,1,.08-.11l.06,0,.08-.05.22-.09.12,0,.51-.06c.33,0,.67,0,1,0a34,34,0,0,1,3.48.52c1.2.22,2.41.41,3.62.57.59.08,1.18.14,1.77.19s1.12.12,1.68.16c1.06.08,2.11.09,3.17.15.88.06,1.77.16,2.65.23s1.76.07,2.64.11c1.14,0,2.3.05,3.45.05s2.4,0,3.6,0l3.59-.07c.6,0,1.2,0,1.81,0l1.7-.09c.65-.05,1.31-.08,2-.08s1.26,0,1.89,0c.3,0,.6.07.9.13s.62.14.92.24l.21.08,0,0,0,0c.07.11.12.21.19.31l.19.26a1.62,1.62,0,0,1,.1.18.35.35,0,0,1,.06.14,1.71,1.71,0,0,1,.09.3,1,1,0,0,1,0,.24c0,.32,0,.64.06,1s.13.72.21,1.08c0,.13,0,.25,0,.37s0,.46,0,.69l-1.19-.16q-.84-.11-1.68-.18c-1.07-.11-2.14-.12-3.21-.19h-.13l-.29,0h.12c-.73-.05-1.45-.14-2.17-.21s-1.53-.12-2.29-.17c-1-.07-2-.18-3-.21l-1.42,0-1.34-.08L60,22.5l-2.71-.17c-.85-.06-1.7-.11-2.56-.13s-1.6,0-2.4-.08-1.3-.12-2-.2-1.2-.16-1.8-.22l-1.87-.2c-.6-.07-1.2-.1-1.81-.14-1.13-.09-2.27-.23-3.4-.35-.6-.07-1.2-.12-1.79-.23a8.44,8.44,0,0,0-.9-.15c-.3,0-.61,0-.91-.05l-.61-.07a1.43,1.43,0,0,0-.28-.07V18.83a.77.77,0,0,0-.18-.48l.14-.41c0-.09.06-.18.1-.27Zm11.32,122h0l-.08,0h0l-1.92-.42-.14,0L46,139l-.41-.08c-.67-.12-1.35-.23-2-.31s-1.26-.16-1.89-.27c-.4-.09-.8-.18-1.2-.3l-1.24-.4-1.42-.52c-.48-.18-1-.34-1.46-.5l0,0A21.28,21.28,0,0,0,30.41,135L29,134.9c-.53,0-1.06-.06-1.58-.09s-1-.05-1.43-.06a11.57,11.57,0,0,0,.28-1.3,12.48,12.48,0,0,0,.12-1.36,36.16,36.16,0,0,0-.11-5,.76.76,0,0,0,0-.59.86.86,0,0,1,0-.16c-.13-1.88-.19-3.76-.33-5.63-.06-.89-.13-1.77-.21-2.66s-.18-1.83-.25-2.76-.14-2.06-.22-3.09-.13-2.26-.21-3.39l-.24-3.19v.06c0-.27,0-.54-.05-.8V105c-.09-1.41-.15-2.82-.23-4.23s-.16-2.65-.26-4c-.06-.92-.12-1.85-.15-2.78L24,91.17c-.05-1.76-.11-3.51-.23-5.26h0V85.8c0-.13,0-.26,0-.39v0a70.53,70.53,0,0,1,0-9.08,28.34,28.34,0,0,1,.37-3,30.9,30.9,0,0,1,.81-3.11c0-.14.09-.28.14-.41.3-.8.61-1.59.94-2.37.44-1,.87-2.06,1.32-3.08s.88-2,1.29-2.94c.86-2,1.74-4,2.46-6.12a.49.49,0,0,0,0,.11c0-.11.08-.22.11-.32a3.71,3.71,0,0,0,.14-.39c.61-1.69,1.21-3.38,1.85-5.05.39-1,.81-2,1.21-3s.83-2,1.17-3.05c.1-.3.18-.6.26-.91a16.25,16.25,0,0,0,1.1,2.49l.21.37c0,.18.08.36.13.54.14.51.28,1,.4,1.53a25.15,25.15,0,0,1,.41,3c.05.79.08,1.59.09,2.38s0,1.64,0,2.47a39.38,39.38,0,0,1-.67,4.31.15.15,0,0,0,0,.07,1.86,1.86,0,0,0-.07.34l0,.14-.09.4c-.27,1.14-.57,2.27-.86,3.4q-.68,2.58-1.49,5.13L34,71.77c-.25.79-.49,1.59-.75,2.37h0l-.18.48a.88.88,0,0,0,.46,1.12.92.92,0,0,0,.33.06.84.84,0,0,0,.79-.52c.2-.53.38-1.07.55-1.61.52-1.65,1-3.3,1.54-5,.26-.85.52-1.7.76-2.56s.46-1.73.68-2.6.46-1.74.66-2.62c0-.24.09-.48.14-.71v0h0c0-.23.09-.45.13-.67.09-.46.18-.91.25-1.37a21.74,21.74,0,0,0,.34-2.66c0-.89,0-1.77,0-2.65s0-1.8-.12-2.69c.28.46.58.9.9,1.34.71.93,1.46,1.83,2.12,2.8h0l0,.06,0-.06c.56.86,1.11,1.74,1.59,2.65s.78,1.71,1.13,2.59.76,1.93,1.11,2.9c.23.69.44,1.38.64,2.08s.36,1.4.51,2.11c.3,1.55.49,3.12.71,4.69.35,2.44.58,4.9.81,7.35s.52,5.08.69,7.63c0,.2,0,.39,0,.59v-.11c.12,2.09.14,4.19.25,6.28.07,1.28.14,2.56.19,3.85s.11,2.59.2,3.88.19,2.51.29,3.76.19,2.31.27,3.46l0,.44v0c0,.11,0,.22,0,.33,0,.33.05.66.07,1s0,.48.05.72,0,.49,0,.73c.07,1.25.14,2.49.22,3.73s.16,2.43.21,3.64.1,2.48.12,3.71c0,.63,0,1.26,0,1.89s0,1.2,0,1.8c0,.18,0,.35,0,.53-.07.63-.16,1.25-.26,1.87s-.23,1.17-.32,1.75-.21,1.21-.3,1.81a17.23,17.23,0,0,0-.17,1.89c-.06,1.17-.08,2.33-.06,3.5a19.64,19.64,0,0,0,.25,2.64C50.12,139.81,49.28,139.67,48.45,139.51ZM88.33,133l-1.24,0a8.24,8.24,0,0,0-1.48.14c-.94.17-1.87.39-2.81.59s-1.71.27-2.57.36c-.4,0-.81.06-1.21.11s-.85.12-1.27.19l-2.62.44c-.86.15-1.73.28-2.58.46l-1.75.4c-.61.14-1.22.29-1.82.45-1.2.32-2.38.72-3.57,1.09-.62.2-1.25.39-1.87.61s-1.2.48-1.79.74l-1.63.71c-.48.21-1,.44-1.45.62l-.2.05-.38,0a17.12,17.12,0,0,0-2.15.13c-.22,0-.43.11-.64.18a2.91,2.91,0,0,1-.39.12l-.48.07a2.09,2.09,0,0,0-.43.11l-.11,0h0l-.11-.06,0,0-.07-.09a.88.88,0,0,0-1-.27.59.59,0,0,0,0-.19q-.16-1-.24-2c0-.72,0-1.44,0-2.17s0-1.56.08-2.34.16-1.41.27-2.11.26-1.51.4-2.27c.07-.38.12-.77.17-1.15l.6,0c1.44-.06,2.89-.09,4.32-.2.75-.06,1.48-.13,2.22-.22s1.36-.16,2-.21l1.65-.11c1.45-.1,2.89-.3,4.33-.47s3-.28,4.54-.47c.7-.09,1.4-.2,2.1-.32s1.51-.23,2.27-.33c1.42-.17,2.84-.34,4.27-.44.8,0,1.61-.09,2.41-.15h0l1.58-.09,1.48-.13.75,0c0,.63,0,1.27,0,1.9s0,1.31.11,2a11.74,11.74,0,0,0,.71,3.56c.13.31.28.62.44.92Zm33,5.29c-.23,0-.46.07-.7.09a7,7,0,0,1-.79,0c-.23,0-.47-.06-.7-.1-.52-.12-1-.28-1.56-.45-1-.39-2.11-.78-3.13-1.23a6.85,6.85,0,0,0-.85-.34c-.26-.08-.53-.13-.79-.19l-1.76-.36.09,0c-.37-.07-.74-.17-1.11-.27-.8-.22-1.6-.47-2.41-.68s-1.77-.38-2.64-.63c-.41-.12-.81-.25-1.23-.35l-1.26-.33-1.12-.29c-.38-.11-.75-.24-1.12-.37-.59-.2-1.17-.43-1.77-.61s-1.09-.3-1.64-.44-.9-.23-1.36-.31c-.18,0-.36-.06-.54-.09a.57.57,0,0,0-.31-.26l-.62-.23-.5-.15a1.39,1.39,0,0,1-.28-.12,6.12,6.12,0,0,1-.56-.31l-.33-.22q-.66-.45-1.29-.93c-.19-.14-.37-.29-.56-.42s-.41-.26-.6-.4a.72.72,0,0,0-.24-.25c0-.19,0-.37-.05-.56,0-.86,0-1.73,0-2.59,0-1.29,0-2.58,0-3.86s-.1-2.54-.24-3.81c0-.38-.09-.76-.14-1.15l.47.41.32.29c.53.47,1,1,1.51,1.49s1,1,1.46,1.5l1.41,1.55c.47.52.95,1,1.42,1.56s.82,1,1.21,1.5.81,1,1.24,1.49,1.07,1.18,1.61,1.77c.23.24.45.5.7.73a9.1,9.1,0,0,0,.83.68,8.18,8.18,0,0,0,.79.51c.27.15.54.32.82.46a1.2,1.2,0,0,0,.53.11h.16a1,1,0,0,0,.79-.48,3.3,3.3,0,0,0,.19-.43c.08-.19.17-.38.26-.57h0l0-.07v0l.11-.2c.62-1.21,1.3-2.39,2-3.57.34-.6.69-1.18,1.06-1.76s.73-1.19,1.12-1.78l.22-.32c.67-.94,1.42-1.82,2.11-2.75s1.38-2,2.08-3c.41-.58.82-1.16,1.25-1.72s.83-1,1.26-1.56.87-1.09,1.3-1.64.83-1,1.27-1.53c.29-.33.59-.66.9-1s.63-.61,1-.91.66-.6,1-.92.53-.55.81-.82l.14-.11h0q-.09,1.43-.12,2.85c0,1.07,0,2.14,0,3.21s0,2,0,2.94,0,2.06,0,3.09c0,.51,0,1,.06,1.55s.09,1,.16,1.49c.13,1,.3,2.09.47,3.13s.39,2,.6,3c.07.39.14.78.2,1.17s.1.83.13,1.25c0,1,.1,2,.1,3.05v1.65c0,.42,0,.84,0,1.26v0h0a5.74,5.74,0,0,1-.09.71,8.06,8.06,0,0,1-.24.84c0,.1-.07.19-.1.28a.86.86,0,0,0,0,.27h0l-.13.22h0a.08.08,0,0,0,0,0l-.09.14a.35.35,0,0,1,0-.08c-.11.17-.21.35-.31.53l0,0,0,.05,0,0-.11.07-.4.17A9,9,0,0,1,121.33,138.27ZM137.64,130a3.57,3.57,0,0,0-.56.07c-.18,0-.38.07-.56.12a6.78,6.78,0,0,0-.85.33l-.68.31c-.26.11-.52.21-.77.34l-.61.31-.51.24-1.14.56c-.4.2-.79.42-1.17.65s-.7.39-1,.59-.71.44-1.08.65-.8.41-1.19.63-.7.45-1,.67-.91.62-1.37.93c0-.16.12-.32.16-.49a12.31,12.31,0,0,0,.17-2.71c0-1,0-2,0-3a25.39,25.39,0,0,0-.22-3c-.17-1-.39-2-.59-2.93-.36-1.84-.64-3.71-.82-5.58,0-.31,0-.63,0-.94,0-1,0-2,0-3s0-2,0-3,0-2.08,0-3.13,0-2,.08-3,.19-2,.27-3,.15-2,.21-3h0v0c0-.08,0-.16,0-.25h0c0-.65.07-1.31.07-2s0-1.36,0-2c0-1.36,0-2.72,0-4.08.07-.81.16-1.63.24-2.44s.16-1.72.23-2.57.13-1.67.24-2.5.25-1.61.41-2.41l0-.17c0-.08,0-.16.05-.24.29-1.42.59-2.84.88-4.26v0l.33-1.57v0l.06-.3s0,0,0-.06,0-.06,0-.09,0,.06,0,.09a2.21,2.21,0,0,1,0-.25q.18-.86.39-1.71c.13-.5.27-1,.38-1.51.26-1.13.47-2.26.74-3.39s.53-2,.81-3,.45-1.93.67-2.9.46-2,.66-3,.33-1.77.51-2.65h0c.08-.41.17-.82.25-1.24.19-.92.38-1.84.53-2.77l.06-.49c.05.26.09.52.13.78.09.49.18,1,.28,1.46,0,0,0-.06,0-.09.18.88.34,1.76.47,2.65.07.43.12.86.19,1.28s.16.93.24,1.4c.17.88.33,1.75.53,2.62s.42,1.72.61,2.58c.13.66.24,1.32.36,2s.25,1.41.4,2.11c.33,1.61.75,3.19,1.14,4.79l.61,2.38c.21.79.44,1.58.62,2.38.12.6.21,1.2.29,1.81s.14,1.19.19,1.8c0,.45,0,.89.08,1.34,0,.88.06,1.76.08,2.63s0,1.9,0,2.84,0,1.84,0,2.76,0,1.92-.11,2.87c-.13,1.61-.37,3.2-.45,4.81,0,.81,0,1.62-.07,2.44s0,1.52-.09,2.29-.12,1.38-.19,2.07-.13,1.5-.19,2.25-.11,1.55-.16,2.33-.08,1.42-.13,2.13c0,.53-.1,1.06-.13,1.59h0a.49.49,0,0,0,0,.12v.16a.31.31,0,0,1,0-.1c-.06.87-.1,1.73-.15,2.59,0,.44,0,.87-.07,1.31s0,.83,0,1.25c0,1,.06,1.91.11,2.87,0,.44,0,.88,0,1.32s0,.88.05,1.32,0,.91,0,1.37a5.49,5.49,0,0,0,.19,1.51,6.71,6.71,0,0,0,.35.77l.28.57c.14.26.29.51.45.76ZM178.38,126c-.59.07-1.18.14-1.77.24l-1.62.27c-.58.1-1.14.21-1.71.33h0c-1,.19-2,.34-2.93.51s-2,.27-3,.4-2.11.3-3.17.43-2,.19-3,.27c-2.13.13-4.27.1-6.39.1h-3.32c-1,0-2.05,0-3.08,0-.51,0-1-.11-1.53-.19l-1.41-.18a.73.73,0,0,0-.32-.15c-.32,0-.64-.12-1-.16s-.63,0-.94-.1l-.39-.11-.58-.21c-.37-.12-.73-.26-1.1-.37h.06a10.36,10.36,0,0,1-1.17-.44c-.38-.18-.75-.39-1.14-.58l.08,0a8.13,8.13,0,0,1-.91-.51l-.09-.06c0-.44,0-.89,0-1.33l0-1.13a.79.79,0,0,0,0-.3l0-.11.16-.39c.07-.16.13-.33.21-.49h0a1.86,1.86,0,0,0,.1-.2c.06-.11.11-.23.16-.34h0l0,0a2.86,2.86,0,0,0,.15-.41l.06-.15.13-.23.09-.19c.25-.35.5-.7.76-1s.69-.87,1.05-1.29c.23-.24.46-.49.7-.73l.71-.68,1-.86c.36-.28.73-.55,1.1-.82.55-.37,1.1-.74,1.68-1.07.31-.17.62-.36.93-.52l1-.53,1.6-.77c.61-.28,1.23-.55,1.85-.81,1.13-.48,2.28-.91,3.42-1.35,1.35-.52,2.69-1,4-1.53s2.93-1,4.39-1.6,2.66-1,4-1.56,2.8-1.1,4.15-1.75c.71-.34,1.41-.68,2.1-1s1.23-.72,1.83-1.11a15.52,15.52,0,0,0,1.78-1.36,10.24,10.24,0,0,0,.75-.72l.53-.64a2.39,2.39,0,0,1,.23-.22c0,1.24,0,2.49,0,3.74s0,2.52,0,3.78c0,2.58,0,5.16,0,7.74,0,.63,0,1.27,0,1.91s.06,1.26.1,1.89c.07,1.28.2,2.55.36,3.81s.34,2.24.45,3.37q.06.69.15,1.38Zm33.18,12.3-.48.11-.32.09-.25,0a2.84,2.84,0,0,1-.41,0l-.21,0-.24,0-.55-.05-.45,0-.24-.11-.13-.07v-.09l-.28-.09h0l-.1-.07a.51.51,0,0,0-.13,0c-.88-.34-1.73-.74-2.6-1.11s-2-.85-2.93-1.26l-1.48-.6-1.45-.59q-.76-.27-1.53-.51c-.48-.14-1-.26-1.43-.41-.72-.27-1.44-.57-2.16-.85s-1.51-.58-2.25-.89a9.11,9.11,0,0,0-1.15-.38c-.35-.1-.71-.17-1.07-.25l-2.25-.44A21.3,21.3,0,0,1,185,130l-1-.37-.81-.36c-.29-.13-.59-.24-.87-.38a2.48,2.48,0,0,1-.31-.18l-.3-.22,0,0,0,0v0a.2.2,0,0,1,0-.08,9.77,9.77,0,0,1-.29-1.06c0-.1,0-.19,0-.28l.11,0a4.3,4.3,0,0,1-.19-1.06v0l0-.27-.09,0c0-.25-.06-.49-.08-.73,0-.39-.07-.78-.12-1.16s-.1-.75-.16-1.13c-.24-1.63-.43-3.27-.55-4.92-.05-.78-.11-1.57-.13-2.35s0-1.67,0-2.51c0-2.54,0-5.09,0-7.64,0-1.3,0-2.6,0-3.9s0-2.54,0-3.81l0-1a.65.65,0,0,0,0-.56c0-.13,0-.27,0-.41,0-.62.07-1.24.1-1.87v-.11a4.15,4.15,0,0,0,1.61.94h0l.06,0h0l.06,0h0c.66.23,1.33.39,2,.59l1.76.56a19.59,19.59,0,0,0,2,.48c.64.12,1.29.23,1.93.36.93.21,1.85.43,2.78.62,1.52.3,3,.59,4.55.9s2.83.52,4.25.8l1.21.26c1.51.33,3,.63,4.53,1,.68.16,1.34.36,2,.56s1.35.36,2,.59a21.23,21.23,0,0,1,2.15.9c0,1.76,0,3.52,0,5.28,0,1.22,0,2.44,0,3.66s0,2.59,0,3.89c0,.66-.05,1.31-.07,2s0,1.29,0,1.93c0,1.25-.09,2.5-.17,3.75h0c-.08,1-.17,2.07-.25,3.1s-.13,2-.19,3v0c0,.64-.09,1.28-.12,1.91l0,.64a.69.69,0,0,0-.13.37c0,.5,0,1,0,1.48,0,.29,0,.57,0,.85s0,.61,0,.92l0,.73c0,.25,0,.51,0,.77,0,.42-.09.83-.12,1.25l-.06.71-.28.07ZM230,127.12c-.07.21-.16.4-.24.61l0-.08a2,2,0,0,1-.08.22h0l0-.06,0,.09-.09.18,0,.07h0s-.07.1-.1.16l0-.05-.09.12c-.09.09-.17.19-.25.28l-.37.42.06-.06-.15.15-.13.1a7.55,7.55,0,0,1-.69.37l-.48.27-1.58.89c-.53.31-1,.66-1.56,1s-1.18.71-1.79,1c-.29.16-.57.34-.86.51s-.55.3-.83.44h0l-.87.43,0,0-.2.1c-.58.29-1.15.59-1.72.91s-1,.55-1.46.8l-.05,0-.06,0c-.85.41-1.71.77-2.55,1.18-.23.11-.46.23-.68.36,0-.1,0-.21,0-.31.05-.5.09-1,.09-1.48s0-1.11.05-1.67c0-.12,0-.24,0-.36h0l0-.55h0c0-.57.09-1.14.11-1.71s0-1.2.08-1.8v.09c.08-1.12.14-2.25.2-3.37v.09c.1-1.43.24-2.86.32-4.29.05-.75.09-1.5.13-2.24s0-1.42,0-2.12c0-1.29.1-2.58.11-3.87s0-2.62,0-3.93,0-2.44,0-3.66,0-2.53,0-3.79,0-2.52,0-3.78,0-2.49,0-3.73,0-2.51,0-3.76,0-2.39,0-3.59,0-2.45-.05-3.68,0-2.54,0-3.81V72.6c0-2.61,0-5.23,0-7.84l0-3.82c0-1.29-.05-2.58-.08-3.86-.07-2.54-.09-5.08-.2-7.62s-.16-5-.33-7.56a.28.28,0,0,0,0,.09l0-.4v-.06h0c0-.08,0-.16,0-.23a.28.28,0,0,0,0,.09s0-.1,0-.16c-.06-1-.09-2-.1-3,0-.46,0-.91,0-1.36v0c0-.22.05-.43.07-.65l.06-1a6.57,6.57,0,0,1,.12-.89,21,21,0,0,1,.63-2.36h0v0h0v0h0c.37-1.06.75-2.13,1.2-3.16s.92-2.13,1.38-3.2c.94-2.19,2-4.33,3.06-6.47.32-.63.64-1.25.95-1.88s.6-1.26.92-1.89c.15-.31.31-.61.44-.93,0,0,0,0,0,0a3.68,3.68,0,0,0,.23.49c.17.3.37.58.56.86h0a5.06,5.06,0,0,1,.26.44c.06.11.1.23.15.34v.06s0,0,0,.06h0a7.79,7.79,0,0,0,.37.95c.18.37.37.73.56,1.09.36.7.78,1.38,1.13,2.08s.79,1.48,1.22,2.19.8,1.35,1.16,2a17,17,0,0,1,.72,1.56c.18.48.36,1,.53,1.45h0s0,0,0,0h0c.24.7.44,1.42.66,2.13l.33,1.06c.12.36.25.72.36,1.09s.17.65.26,1,.14.43.2.64.15.5.21.75a3.4,3.4,0,0,1,.06.46c.05.71,0,1.43,0,2.14,0,.89,0,1.77,0,2.65,0,2.36-.08,4.72-.09,7.07,0,.57,0,1.14,0,1.71s-.06,1.19-.1,1.79c-.06,1.18-.11,2.36-.13,3.54-.11,4.78-.13,9.56-.13,14.33v3.59c0,1.18,0,2.36,0,3.53v3.47c0,1.19,0,2.37,0,3.56s0,2.32.06,3.47,0,2.38,0,3.56c0,.56,0,1.11,0,1.67s0,1.2,0,1.8-.06,1.13-.08,1.7,0,1.24,0,1.85c0,1.19-.07,2.38-.09,3.56s0,2.37,0,3.56v1.78c0,.56,0,1.13,0,1.69s.07,1.18.09,1.76,0,1.2,0,1.8q0,1.7-.09,3.39c-.06,1.11-.08,2.22-.13,3.33,0,.52,0,1,0,1.56s0,1.21-.07,1.82-.06,1.43-.1,2.14a.92.92,0,0,0,0,.29v0a2.81,2.81,0,0,1,0,.29,2.25,2.25,0,0,0,0,.26,1.09,1.09,0,0,1,0,.18v0a.76.76,0,0,0,0,.15h0a.91.91,0,0,0,0,.17.63.63,0,0,0-.14.38v.06s0,.08,0,.12,0,.2-.07.31a1.86,1.86,0,0,0,0,.34c0,.08,0,.15,0,.23v0c0,.14,0,.29,0,.43s0,.23,0,.35a.2.2,0,0,1,0,.07,3.52,3.52,0,0,1-.13.43h0l0,.07v0ZM291.66,119c0,.17-.07.34-.1.51a.29.29,0,0,1,0-.09c-.08.36-.16.72-.23,1.09v0l-.05.26v0c-.2,1-.37,2-.54,3-.09.48-.17,1-.25,1.46-.05.33-.09.66-.16,1a2.58,2.58,0,0,1-.12.42q-.74,0-1.47,0h-1a9.71,9.71,0,0,0-1.2.1c-.78.09-1.57.16-2.36.29s-1.47.3-2.2.45h.09c-.81.16-1.62.31-2.42.54-.62.18-1.23.38-1.84.58s-1.06.3-1.58.47-1.22.45-1.83.67h0l0,0h0a19.07,19.07,0,0,1-2.1.55l-.81.16c-1,.16-1.92.29-2.88.46s-1.9.32-2.85.45-1.95.22-2.92.32-2,.24-2.93.31-1.92,0-2.88,0-1.93,0-2.9-.06c-1.47-.12-2.94-.37-4.4-.6s-2.88-.42-4.31-.69l-.83-.18c-1-.26-2.08-.54-3.12-.79s-2-.51-3.06-.74-2-.44-3-.66-2-.41-2.91-.68a.54.54,0,0,0-.31,0h-.08l-.11-.05a1.29,1.29,0,0,0-.28-.08s0,0,0-.07v0c.07-.3.11-.6.17-.9,0-.14.05-.27.07-.41a3.22,3.22,0,0,0,0-.62v0c0-.16,0-.31,0-.46s0-.32-.06-.48,0-.37,0-.56v.09c0-.1,0-.2,0-.31.13-2.09.18-4.18.25-6.28,0-.56.06-1.12.07-1.68s0-1.1.06-1.64c.06-1.09.1-2.19.1-3.28s0-2.37-.09-3.55,0-2.31,0-3.47,0-2.35,0-3.52.08-2.39.09-3.59c0-.63,0-1.26,0-1.88s.05-1.1.08-1.65c0-1.18,0-2.36,0-3.54,0-2.35-.05-4.7-.08-7,0-1.17,0-2.34,0-3.52V75.63c0-1.16,0-2.32,0-3.49s0-2.42,0-3.63c0-4.77,0-9.54.12-14.31,0-1.15.06-2.29.13-3.43,0-.56.07-1.12.09-1.68a5.89,5.89,0,0,1-.08-1.26,13.82,13.82,0,0,1,.1-1.58l0-.21c0-2,.06-4,.08-6,0-1.13,0-2.26,0-3.38,0-.4,0-.8,0-1.2.06,0,.1.12.18.15a1.41,1.41,0,0,0,.5.07h.93c.3,0,.61,0,.92,0,1.41,0,2.8-.28,4.2-.4.7,0,1.41-.06,2.12-.07h2.08c1.06,0,2.12-.07,3.17-.11s2,0,3.06,0H253c1,0,2,0,3,0l3.21.12c1,0,2,.09,3.07.11h6.29l6.32,0h3.15c1,0,2.05,0,3.07,0s2,.08,3,.09,2.06,0,3.09,0h4.26c.51,0,1,0,1.53.06a15,15,0,0,1,1.77.19,1.66,1.66,0,0,1,.21.06l.22.08.45.28.25.19c.12.11.24.22.35.34s.2.25.29.38l.1.17.05.11s0,.06,0,.09a.17.17,0,0,1,0,.07c0,.25,0,.5,0,.75,0,0,0-.07,0-.1,0,.22,0,.43,0,.65l.06.56c0,.27.06.53.08.79s.09.67.12,1c0,.67,0,1.34.07,2s.17,1.35.23,2,.06,1.48,0,2.21-.05,1.47-.08,2.2c-.05,1-.07,2.05-.07,3.08s0,2,0,3,.1,2,.1,3c0,.54,0,1.08-.06,1.61s0,1-.07,1.49-.13,1.17-.23,1.75-.25,1.19-.33,1.79-.15,1.2-.19,1.81-.06,1.25-.09,1.88-.1,1-.18,1.58c-.15,1-.37,1.93-.52,2.9-.08.5-.18,1-.23,1.48s-.09,1-.12,1.55c-.06,1-.1,2-.11,3.06s0,2,0,3a.34.34,0,0,1,0-.1c0,.18,0,.35,0,.53-.06.75-.18,1.5-.27,2.24s-.18,1.71-.24,2.56c-.13,1.61-.32,3.22-.48,4.83-.11,1-.19,2-.32,3s-.28,2.06-.37,3.09-.19,2-.32,3-.26,2.08-.4,3.12-.29,2-.42,3.08-.25,2-.3,3-.07,2.1-.08,3.15,0,2.07-.05,3.1c0,.05,0,.1,0,.15s0,.12,0,.18a13.45,13.45,0,0,1-.22,1.55A.29.29,0,0,0,291.66,119Z"/></g></g></svg>