<svg xmlns="http://www.w3.org/2000/svg" viewBox="0 0 243.38 223.86"><defs><style>.cls-1,.cls-2,.cls-3{fill:#50555b;}.cls-2,.cls-3{stroke:#50555b;stroke-width:0.71px;}.cls-2{stroke-miterlimit:10;}.cls-3{stroke-linecap:round;stroke-linejoin:round;}.cls-4{fill:#fff;}</style></defs><g id="Layer_2" data-name="Layer 2"><g id="Artwork:Notebook"><path class="cls-1" d="M113,99.94c-.18-.45-.34-.9-.48-1.36s-.29-1-.42-1.58c-.26-1-.61-2-.89-3.06-.15-.55-.28-1.11-.4-1.66s-.23-1.12-.32-1.69-.18-1.15-.24-1.74-.1-1.16-.12-1.74,0-1.16,0-1.74a10.72,10.72,0,0,1,.15-1.69c.09-.59.22-1.17.35-1.75s.28-1.16.45-1.74c.34-1.12.74-2.23,1.19-3.32.22-.54.44-1.07.71-1.59s.56-1.07.84-1.6c.08-.17.17-.33.25-.5h0c.22-.46.41-.92.59-1.4a12.78,12.78,0,0,0,.41-1.5c.15-.88.22-1.77.29-2.67v-.14c0-.56.06-1.12.07-1.67s0-1.16,0-1.74c0-.2,0-.41-.08-.61-.11-.54-.25-1.07-.4-1.6s-.27-1.08-.38-1.62a12.27,12.27,0,0,1-.23-1.81,15.44,15.44,0,0,1,0-1.8,12.55,12.55,0,0,1,.27-1.72c.13-.54.31-1.08.48-1.61s.39-1.13.61-1.69.45-1,.69-1.52c.32-.65.62-1.32.92-2s.57-1.27.81-1.93c0-.15.09-.31.13-.46s.07-.58.11-.88,0-.46.08-.69,0-.2,0-.29a.9.9,0,0,1,.13-.42.48.48,0,0,1,.51-.17.47.47,0,0,1,.35.4,2.16,2.16,0,0,1,0,.36l0,.43a8.27,8.27,0,0,1-.12.85c0,.2-.08.4-.13.6l-.06.55c-.09.9-.16,1.8-.22,2.71v.23h0v0a29.52,29.52,0,0,0,0,3.26c0,.23,0,.46.07.69s.08.48.12.72c.21.92.48,1.82.77,2.71s.6,1.79.9,2.69l.12.34a2.47,2.47,0,0,1,.1.29c0,.09.06.18.1.27l.27.82c.38,1.1.78,2.2,1.06,3.34.14.56.28,1.13.37,1.71a14.78,14.78,0,0,1,.18,1.76,12.1,12.1,0,0,1-.27,3.5c-.2.82-.41,1.64-.68,2.45-.14.41-.28.83-.44,1.23s-.34.77-.52,1.14v0l-.09.18v0c-.22.44-.42.88-.62,1.32s-.47.94-.71,1.41v0l-.15.31,0,0c-.59,1.16-1.15,2.33-1.73,3.49h0c-.25.5-.48,1-.7,1.51s-.42,1-.63,1.53-.38,1-.57,1.47-.38,1-.56,1.5v0c-.21.61-.39,1.23-.57,1.85-.09.31-.18.63-.26.94s-.15.64-.22,1a17.89,17.89,0,0,0-.24,1.79c0,.59-.06,1.18-.07,1.77s0,1.11,0,1.66v0L114,99c0,.25.08.51.11.76a.49.49,0,0,1-.41.55.43.43,0,0,1-.16,0h-.11A.48.48,0,0,1,113,99.94Zm-.87-6.33c.14.54.31,1.07.47,1.6l.34,1.15v0c0-.57,0-1.13.06-1.7a17.93,17.93,0,0,1,.54-3.33c.15-.53.31-1.06.47-1.59s.35-1.12.55-1.66l.62-1.62c.2-.53.42-1.06.63-1.59s.41-1,.64-1.48.48-1,.73-1.48h0c.53-1.06,1-2.13,1.57-3.18v0l.45-.88c.31-.61.58-1.24.89-1.86h0l.06-.12h0c.15-.3.3-.6.42-.91s.25-.65.36-1a29.2,29.2,0,0,0,.86-3,12.45,12.45,0,0,0,.17-1.35,17.75,17.75,0,0,0,0-1.93,15.28,15.28,0,0,0-.25-1.8h0a29.05,29.05,0,0,0-.92-3.28c-.19-.56-.38-1.11-.56-1.66l-.1-.27h0c0-.1-.07-.2-.1-.3-.39-1.1-.77-2.21-1.13-3.32-.18-.55-.35-1.11-.5-1.68a17.26,17.26,0,0,1-.4-1.76c0-.34-.07-.68-.09-1s0-.72,0-1.08c0-.74,0-1.48.07-2.21a.13.13,0,0,1,0,.06l0-.29v0l-.47,1c-.21.44-.43.88-.63,1.32s-.39.92-.56,1.39v0L115.8,54c-.14.44-.27.89-.37,1.34-.05.27-.1.53-.14.79s-.06.54-.08.81c0,.5,0,1,0,1.5h0a15.17,15.17,0,0,0,.18,1.51c.12.54.23,1.08.38,1.61s.3,1.09.41,1.64a7.72,7.72,0,0,1,.13,1.73c0,.56,0,1.11,0,1.66q0,.5-.06,1v0l0,.16a.13.13,0,0,0,0-.06c0,.58-.09,1.17-.15,1.75a12.55,12.55,0,0,1-.32,1.73,11.7,11.7,0,0,1-.57,1.7c-.21.53-.49,1-.75,1.55s-.49.9-.72,1.36l0,0c-.27.54-.5,1.09-.73,1.65s-.45,1.14-.66,1.72-.42,1.29-.61,1.94c-.09.33-.16.67-.24,1s-.15.68-.22,1a15.44,15.44,0,0,0-.26,1.79c0,.5,0,1,0,1.51s0,1,.06,1.54v0h0c0,.68.12,1.35.22,2s.24,1.39.38,2.08c0,0,0,0,0-.06C111.8,92.52,111.93,93.07,112.08,93.61Z"/><path class="cls-1" d="M92.84,127.67a5.26,5.26,0,0,0,.15-.53,6.31,6.31,0,0,0,.1-.76,16.5,16.5,0,0,0,0-1.86h0c0-.52-.09-1-.17-1.57-.06-.25-.12-.5-.19-.75s-.16-.51-.25-.77-.16-.43-.26-.65l-.33-.75c-.21-.46-.38-.93-.55-1.4a13,13,0,0,1-.44-1.38,9.82,9.82,0,0,1-.34-1.54,2.4,2.4,0,0,1,0-.28v.07s0-.1,0-.15a.2.2,0,0,0,0,.07c0-.53,0-1.06,0-1.59s0-1.06.11-1.59.15-1,.25-1.52a13.89,13.89,0,0,1,.39-1.54l.21-.65v0a.69.69,0,0,1,0-.13v0a.42.42,0,0,1,0-.1h0v0c.24-.69.5-1.37.75-2,.06-.2.13-.4.18-.6a1.51,1.51,0,0,1,1-.72.49.49,0,0,1,.34.6c0,.15-.07.31-.1.47a10.41,10.41,0,0,0-.16,1.1c0,.31,0,.62,0,.94s0,.61,0,.91,0,.59.07.88a7.94,7.94,0,0,0,.13.83v0a18.28,18.28,0,0,0,.58,2.08h0c.16.46.33.91.49,1.36.09.24.18.49.26.74s.12.45.17.68a14.81,14.81,0,0,1,.27,1.48c0,.48.09,1,.11,1.45,0,.74,0,1.5,0,2.24h0v.07a20.24,20.24,0,0,1-.43,3.11c-.11.5-.25,1-.38,1.48s-.27,1-.45,1.45c-.09.27-.2.53-.3.79,0,.11-.1.21-.14.32a2,2,0,0,1-.1.21.51.51,0,0,1-.24.22.58.58,0,0,1-.18,0A.5.5,0,0,1,92.84,127.67Zm-.28-8.45c.2.49.43,1,.63,1.46.11.24.19.5.28.75s.15.46.21.69.13.54.18.81.07.53.1.79,0,.32,0,.48c.09-.33.17-.66.24-1a22,22,0,0,0,.33-2.55.13.13,0,0,1,0,.06.76.76,0,0,0,0-.15v0h0v0a21.36,21.36,0,0,0,0-2.53c0-.28,0-.55-.07-.83s-.08-.62-.14-.93a12.49,12.49,0,0,0-.37-1.46c-.33-.92-.69-1.84-1-2.79a12.39,12.39,0,0,1-.35-1.46c-.08-.52-.12-1-.15-1.58,0-.19,0-.38,0-.58l-.1.26,0,0,0,0h0l0,.06,0,0h0s0,.09,0,.13v0a.42.42,0,0,0,0,.1h0v0h0c-.11.32-.21.64-.31,1s-.16.66-.23,1-.14.7-.19,1.05-.09.77-.12,1.16,0,.74,0,1.12a9.37,9.37,0,0,0,0,1.06.13.13,0,0,0,0-.06.76.76,0,0,1,0,.15v0h0c0,.27.08.55.13.82h0a16.25,16.25,0,0,0,.47,1.69C92.22,118.33,92.38,118.78,92.56,119.22Z"/><path class="cls-1" d="M70,179.71a.49.49,0,1,1,0-1c.63,0,1.26,0,1.9,0l1.8-.09h.08a.52.52,0,0,1,.36.09.53.53,0,0,1,.19.32.5.5,0,0,1-.42.55c-.34,0-.68,0-1,0l-.95.05c-.61,0-1.22,0-1.83,0Z"/><path class="cls-1" d="M177.34,183.1l-.27,0-.29-.1c-.22-.07-.46-.13-.69-.18l-.72-.17-.16,0h.06l-.14,0h.06l-.95-.17-1.07-.21h.06l-.12,0h0l-.14,0H173l-.18,0,.06,0c-.4-.09-.81-.16-1.22-.23l-1.21-.2-1.3-.18c-.4-.06-.79-.1-1.19-.13h0l-.28,0h-.11l-1.21-.06h0l-.4,0h-.09c-.36,0-.72-.06-1.08-.1l-1-.11c-.36,0-.71-.08-1.07-.15l-1.14-.26h0l-.39-.07-.53,0c-.32,0-.65,0-1-.1a.5.5,0,0,1-.42-.55.49.49,0,0,1,.55-.41c.44.08.88.07,1.32.13a10.23,10.23,0,0,1,1.44.3l.39.08.44.06c.26,0,.53.06.79.09.55.06,1.11.13,1.67.17h0l.47,0h.08l1.25.07h-.07l.34,0H168c.88.06,1.75.19,2.62.32l1.25.21,1.27.23h0l.19,0h-.06l.18,0h-.07l.45.09h-.06c.56.11,1.14.2,1.7.32h-.06l.15,0-.07,0a15.14,15.14,0,0,1,1.79.46l.15,0,.1,0a.49.49,0,0,1,.41.55.5.5,0,0,1-.47.42Z"/><path class="cls-1" d="M175.19,186.8l-.4-.08-.66-.14.06,0-1-.19c-.33,0-.67-.1-1-.17l-2.2-.45c-.88-.18-1.76-.32-2.63-.48a.48.48,0,1,1,.13-1l2.25.4c.74.13,1.46.3,2.19.45.56.11,1.12.2,1.68.29s1,.2,1.55.31h0l.46.09a.49.49,0,0,1-.05,1A1.35,1.35,0,0,1,175.19,186.8Z"/><path class="cls-1" d="M143.76,191.06a13.09,13.09,0,0,1-1.06-1.28c-.32-.46-.63-.94-.94-1.42a14.3,14.3,0,0,0-1-1.25c-.59-.63-1.25-1.2-1.85-1.82a9.86,9.86,0,0,1-.84-1,5.36,5.36,0,0,1-.38-.59,1.1,1.1,0,0,1-.19-.51.49.49,0,0,1,.49-.49.5.5,0,0,1,.47.38h0c.09.16.18.31.28.46a8.32,8.32,0,0,0,.59.74,13.75,13.75,0,0,0,1,1c.34.32.68.64,1,1a14.88,14.88,0,0,1,.94,1.16c.28.4.53.82.81,1.22l0,0c.19.27.37.55.57.81a7.67,7.67,0,0,0,.64.75l0,0,.18.2a.49.49,0,0,1-.35.83A.44.44,0,0,1,143.76,191.06Z"/><path class="cls-1" d="M146,188.22v0h0l.08.1a2.86,2.86,0,0,1-.3-.41c-.13-.2-.25-.4-.38-.59-.33-.48-.71-.92-1-1.41v0l-.07-.11,0,0c-.07-.1-.13-.2-.2-.29v0c-.24-.37-.51-.72-.77-1.08L143,184c-.1-.14-.21-.29-.32-.42l-.78-.84c-.13-.14-.26-.28-.38-.43s-.21-.29-.31-.44l0,.05-.09-.11,0,0h0a.49.49,0,0,1,.53-.82,1.82,1.82,0,0,1,.48.55,3.79,3.79,0,0,0,.31.39l0,0,.67.72.39.43c.11.12.2.26.3.39.45.62.9,1.23,1.32,1.86l0,0,.09.12h0v0l0,0v0l0,0h0v0l0,0v0c.24.36.51.71.78,1.06s.48.72.72,1.08l0,0,0,0a.5.5,0,0,1,.14.28.49.49,0,0,1-.41.55h-.07A.5.5,0,0,1,146,188.22Z"/><path class="cls-1" d="M151.37,186a.86.86,0,0,0-.14-.13l.05,0c-.18-.16-.36-.31-.52-.48l-.57-.55-.42-.32c-.26-.16-.54-.29-.8-.45s-.52-.37-.78-.55a2.89,2.89,0,0,1-.5-.33.73.73,0,0,1-.22-.52.49.49,0,0,1,.48-.48.47.47,0,0,1,.46.34,4,4,0,0,1,.39.23l.47.34a6.85,6.85,0,0,0,.69.4,6.93,6.93,0,0,1,.72.48c.39.31.71.7,1.09,1l.29.26a.5.5,0,0,1,0,.69.52.52,0,0,1-.35.14A.48.48,0,0,1,151.37,186Z"/><path class="cls-1" d="M115.06,190.37a.49.49,0,0,1-.09-.69l.2-.25a8.52,8.52,0,0,0,.46-.84l0,.06c.23-.47.45-.94.64-1.43a9.32,9.32,0,0,1,.57-1.47c.12-.22.27-.43.4-.64s.26-.44.38-.66a1.19,1.19,0,0,0,.08-.16,1,1,0,0,1,.13-.32.53.53,0,0,1,.41-.19.49.49,0,0,1,.48.48.48.48,0,0,1-.08.27l0,.1a3.13,3.13,0,0,1-.15.32c-.09.16-.18.33-.28.49s-.37.57-.54.87-.15.35-.22.54l-.32.93c-.13.33-.28.64-.42.95s-.3.59-.46.88-.17.29-.26.43l-.19.24a.49.49,0,0,1-.68.09Z"/><path class="cls-1" d="M121.16,189.63a.49.49,0,0,1-.34-.59v0c.06-.27.08-.54.12-.8s.07-.63.09-.94a.13.13,0,0,1,0,.06c0-.48.07-1,.1-1.46,0-.28,0-.55,0-.83s0-.54,0-.8c0,0,0-.06,0-.09h0s0,0,0,0v0a.49.49,0,0,1,.54-.37.48.48,0,0,1,.41.54v0c0,.36,0,.71,0,1.06s0,.79-.08,1.19,0,.92-.1,1.39a10.88,10.88,0,0,1-.17,1.26.49.49,0,0,1-.48.36Z"/><path class="cls-1" d="M92,195.44a.5.5,0,0,1,.18-.67c.4-.23.8-.48,1.21-.71.2-.13.41-.25.62-.36l.62-.33c.45-.25.88-.53,1.31-.79l1.31-.81,1.87-1.21,1.86-1.21h0c.54-.37,1.06-.75,1.61-1.12.26-.17.54-.34.82-.49s.62-.32.94-.47l-.06,0,.41-.2A.84.84,0,0,1,105,187a.49.49,0,0,1,0,1l0,0-.89.45c-.17.08-.33.17-.49.26s-.39.24-.57.36h0l-1.25.87c-.42.3-.85.58-1.28.86l-1.25.8-1.3.84c-.43.28-.86.55-1.3.81s-.87.55-1.31.81-.85.45-1.26.69l-1.25.74-.21.12a.45.45,0,0,1-.25.07A.5.5,0,0,1,92,195.44Z"/><path class="cls-1" d="M95.16,198.58a.49.49,0,0,1,.26-.64l.18-.08a14.88,14.88,0,0,0,1.27-.78l-.06,0c.23-.16.45-.32.66-.49.37-.33.72-.67,1.07-1s.69-.7,1-1l1.06-1.07.57-.6c.18-.19.37-.39.57-.57a12.8,12.8,0,0,1,1.35-1c.23-.15.46-.28.7-.42a4.05,4.05,0,0,1,1-.46.49.49,0,0,1,.6.33.48.48,0,0,1-.34.6l-.1,0-.21.09q-.83.45-1.59,1a9.2,9.2,0,0,0-.77.59c-.38.36-.73.74-1.1,1.11s-.71.74-1.07,1.1-.71.73-1.07,1.08l-.53.51a7.15,7.15,0,0,1-.57.53,12.79,12.79,0,0,1-1.19.85,8.62,8.62,0,0,1-1.07.6.65.65,0,0,1-.19,0A.5.5,0,0,1,95.16,198.58Z"/><path class="cls-1" d="M97.6,205.08a.94.94,0,0,1,.32-.49c.08-.08.16-.17.25-.25a13.23,13.23,0,0,1,1.16-1.08c.72-.6,1.54-1.08,2.32-1.61l.25-.18a.49.49,0,0,1,.68.08.5.5,0,0,1-.08.69c-.25.19-.52.36-.78.53l-1,.63a13.3,13.3,0,0,0-1.18.92c-.36.32-.7.66-1,1a.49.49,0,0,1-.46.33A.51.51,0,0,1,97.6,205.08Z"/><path class="cls-1" d="M75,186.6a.49.49,0,0,1,.17-.67,1.26,1.26,0,0,1,.33-.1,7.85,7.85,0,0,0,1-.26c.42-.15.83-.32,1.25-.48s.9-.39,1.34-.6.93-.43,1.41-.61a13.92,13.92,0,0,1,1.37-.48,12.14,12.14,0,0,1,1.29-.32l1.3-.23.25,0h-.07l2.38-.5-.07,0c1-.21,1.92-.48,2.88-.73l1.47-.38c.49-.12,1-.21,1.48-.3h0a8.32,8.32,0,0,0,1-.26l.27-.1a.75.75,0,0,1,.26,0,.49.49,0,1,1,0,1h0l-.34.13-.63.18c-.44.11-.89.17-1.33.26H92c-.94.21-1.88.47-2.81.71l-1.43.38c-.46.11-.93.19-1.4.29h.06l-1.83.38h.06c-.52.11-1,.19-1.57.29a14.1,14.1,0,0,0-1.54.43h0c-.46.16-.92.34-1.37.54s-.92.43-1.38.64-.89.37-1.33.54a10.05,10.05,0,0,1-1.27.44l-.58.14h0a.65.65,0,0,1-.2,0A.49.49,0,0,1,75,186.6Z"/><path class="cls-1" d="M76.74,189.43a.48.48,0,0,1,.47-.48h.1a2.11,2.11,0,0,0,.35-.05c.39-.09.78-.2,1.17-.28l1.15-.22c1-.21,2-.53,2.92-.81l1.47-.42c.49-.14,1-.3,1.45-.47l1.66-.56.16,0,.14-.05c.46-.16.92-.32,1.39-.46l1.35-.35.66-.16.74-.13,1.35-.27-.06,0a7.07,7.07,0,0,0,.88-.22l.09,0a.51.51,0,0,1,.64.26.49.49,0,0,1-.26.64,9.37,9.37,0,0,1-1.56.39l-.78.15-.76.13c-.49.11-1,.24-1.45.37s-1,.27-1.47.43h0l-.16.05-.26.1L88,187h0c-.44.16-.89.3-1.33.45l-1.49.5c-1,.3-2,.56-2.94.85-.5.15-1,.31-1.51.43s-1,.2-1.52.3l-.91.22-.48.11-.46,0h0A.49.49,0,0,1,76.74,189.43Z"/><path class="cls-1" d="M158.18,172.36c-.54,0-1.09-.08-1.63-.15l-.36,0h-.08a.49.49,0,1,1,0-1,6.86,6.86,0,0,1,.9.09l.89.08c.27,0,.54,0,.82,0s.56,0,.84,0l2.32-.22c.41,0,.81-.07,1.22-.09l1.12-.05,1.15-.12,1,0,.19,0a.48.48,0,0,1,.54.42.46.46,0,0,1-.09.36.51.51,0,0,1-.32.19,3.38,3.38,0,0,1-.55,0l-.63,0c-.46,0-.92.1-1.38.13l-1.32.06c-1,.08-2.08.18-3.11.28q-.36,0-.72,0Z"/><path class="cls-1" d="M84.32,141.62a.48.48,0,0,1-.24-.3,1,1,0,0,1,0-.49c0-.2.09-.39.14-.59s.15-.65.22-1h0a18.87,18.87,0,0,0,.26-2.37h0a26.43,26.43,0,0,0,0-3.33c0-.33-.06-.67-.1-1s-.09-.65-.15-1a16.4,16.4,0,0,0-.55-2c-.13-.35-.28-.69-.41-1s-.27-.69-.42-1-.3-.67-.45-1-.32-.72-.49-1.07l0,0c-.27-.53-.58-1.06-.81-1.61s-.45-1.15-.64-1.73c-.09-.29-.18-.58-.26-.87s-.13-.55-.18-.83-.12-.62-.16-.93-.09-.56-.12-.84c-.06-.63-.08-1.27-.11-1.91s0-1.19,0-1.78a14,14,0,0,1,.14-1.83c0-.3.1-.6.16-.9s.12-.63.2-.94.16-.59.25-.89.18-.59.29-.88c.22-.6.49-1.19.75-1.78s.46-1.09.69-1.63.53-1.21.8-1.81c.49-1.1,1-2.19,1.55-3.27s1.09-2.27,1.58-3.44c.2-.49.38-1,.56-1.49.09-.27.18-.54.26-.81s.14-.51.2-.77q.18-.91.33-1.86c.1-.62.16-1.24.21-1.86.06-1,.11-1.93.13-2.89,0-.47,0-.93,0-1.4s0-.92,0-1.38a7.06,7.06,0,0,0-.11-.91c0-.1,0-.2-.08-.3a2.21,2.21,0,0,0-.12-.27l0-.09,0,0h0a.49.49,0,0,1,.58-.77.32.32,0,0,1,.14,0,.5.5,0,0,1,.47.35c.07.17.15.35.23.52s.26.45.39.68.27.5.39.76.25.55.36.83a6.28,6.28,0,0,1,.23.85c.14.62.28,1.24.38,1.87s.19,1.19.25,1.78.13,1.32.17,2,.06,1.2.07,1.8,0,1.25,0,1.88A14.63,14.63,0,0,1,91.07,98a18.49,18.49,0,0,1-.36,1.83c-.13.59-.29,1.18-.45,1.76-.33,1.18-.68,2.36-1,3.54s-.68,2.29-1,3.44-.68,2.34-1,3.53c-.06.26-.11.51-.16.77v-.07a30.29,30.29,0,0,0-.5,3.4c0,.5,0,1-.06,1.51s0,1,0,1.53a9,9,0,0,0,.17,1.16s0,0,0-.06c.24,1.14.55,2.27.81,3.41.13.58.22,1.17.31,1.75s.19,1.23.28,1.84.19,1.19.25,1.78.09,1.19.1,1.79,0,1.2,0,1.8-.06,1.18-.13,1.77a11.9,11.9,0,0,1-.34,1.78,13.12,13.12,0,0,1-.66,1.71,11.77,11.77,0,0,1-.88,1.64c-.16.25-.32.5-.49.74a8.34,8.34,0,0,1-.53.65l-.24.27a1.34,1.34,0,0,1-.39.36.43.43,0,0,1-.25.07A.42.42,0,0,1,84.32,141.62Z"/><path class="cls-1" d="M159.82,160h0a.48.48,0,0,1-.18-.46,1.44,1.44,0,0,1,.22-.47l.19-.35c.12-.37.23-.76.34-1.14s.25-.87.35-1.31h0a9,9,0,0,0,.14-1v.07c0-.63.05-1.26,0-1.89s0-1.26-.06-1.89v-.14c-.07-.8-.15-1.6-.22-2.4,0-.44-.07-.88-.13-1.31a11.29,11.29,0,0,0-.19-1.14c-.18-.89-.39-1.78-.57-2.67V144c-.1-.48-.21-1-.33-1.45s-.26-.95-.37-1.43-.22-1.05-.29-1.58c0-.24,0-.49,0-.74s0-.54,0-.81c0-.52,0-1,.08-1.58a13,13,0,0,1,.19-1.51c.1-.53.22-1.07.34-1.6s.23-1,.36-1.45.3-1,.46-1.47.33-1,.5-1.52c.35-1,.74-1.91,1.1-2.88l.69-1.87h0a21.64,21.64,0,0,0,.7-2.34c.06-.36.13-.71.16-1.06s0-.73,0-1.09,0-.68,0-1h0a2.11,2.11,0,0,0,0-.26.48.48,0,0,1-.19-.46.52.52,0,0,1,.64-.41.48.48,0,0,1,.46-.11.8.8,0,0,1,.46.37c.07.14.15.27.23.41a8.6,8.6,0,0,1,.58,1.4,7.62,7.62,0,0,1,.4,1.49,14.42,14.42,0,0,1,.15,1.6c0,.55,0,1.09,0,1.64a10.34,10.34,0,0,1-.17,1.56c-.09.51-.22,1-.35,1.51s-.3,1-.45,1.45-.37,1.14-.54,1.71-.29,1.12-.41,1.68-.17,1-.22,1.57l0,.33h0a16.26,16.26,0,0,0,0,1.71c0,.22,0,.44.06.65s.07.48.12.71a.29.29,0,0,0,0,.09c.27-.32.53-.65.77-1l.22-.4c.09-.2.17-.39.25-.59s.14-.41.19-.62.11-.44.15-.67c.1-.52.19-1,.28-1.57l.27-1.53c.08-.52.15-1,.23-1.54s.16-1,.27-1.5a10.34,10.34,0,0,1,.3-1.09v0h0v0h0s0,0,0,0h0l.06-.18h0s0,0,0,0h0c.08-.22.17-.44.26-.65s.22-.51.34-.76a8.36,8.36,0,0,1,.82-1.3c.16-.2.33-.4.51-.59s.36-.31.54-.46a.64.64,0,0,1,.46-.15.54.54,0,0,1,.43.39,1.18,1.18,0,0,1-.15.73c-.13.38-.27.74-.4,1.12h0v0h0a.14.14,0,0,1,0,.06l0,.09v0a14.21,14.21,0,0,0-.42,1.55c0,.24-.07.48-.1.73s0,.42,0,.63,0,.42,0,.63v0h0c0,.44.08.87.15,1.31s.17.9.2,1.36h0a1.77,1.77,0,0,1,0,.23,2.11,2.11,0,0,1,0,.25c0,.15,0,.3,0,.44s0,.53,0,.8a11.32,11.32,0,0,1-.63,3c-.09.26-.19.52-.3.77s-.21.47-.33.7l-.69,1.4c-.22.45-.42.92-.62,1.38s-.42.93-.6,1.4-.25.68-.37,1h0l-.06.16h0c-.12.35-.25.7-.35,1.06s-.2.76-.28,1.15-.11.55-.14.82-.07.55-.09.83c0,.49-.07,1-.11,1.45s0,.93-.09,1.39-.15,1-.25,1.46c0,0,0,0,0-.06a15.09,15.09,0,0,1-.71,2.49c-.3.78-.73,1.5-1.1,2.24l0,0c-.2.38-.38.77-.59,1.16s-.42.76-.63,1.14-.43.72-.63,1.09c-.05.11-.11.21-.16.32s-.11.28-.17.41-.12.18-.18.27a1,1,0,0,1-.18.22.57.57,0,0,1-.3.1A.45.45,0,0,1,159.82,160Zm.12-25c0-.22.08-.43.13-.64,0,.21-.09.41-.13.62h0v0Z"/><path class="cls-1" d="M83.53,164.15c-.19-.1-.37-.21-.55-.32-.41-.27-.8-.57-1.18-.87a10.07,10.07,0,0,1-1.12-1,8.59,8.59,0,0,1-.9-1.27,15.28,15.28,0,0,1-.74-1.38,16.06,16.06,0,0,1-.61-1.49c-.08-.24-.17-.48-.23-.72s-.12-.54-.17-.81a19.7,19.7,0,0,1-.19-3.07c0-1.05,0-2.1,0-3.14q0-.61-.06-1.23a.2.2,0,0,0,0,.07l0-.33a.2.2,0,0,1,0,.07s0-.06,0-.1,0,0,0,.07l0-.33a.15.15,0,0,1,0,.07l0-.42a.2.2,0,0,0,0,.07v0c0-.12,0-.23,0-.34a26.73,26.73,0,0,0-.49-3.19,12.11,12.11,0,0,0-.39-1.43,6,6,0,0,0-.27-.63c-.2-.36-.4-.71-.62-1.06l-.34-.48h0l-.07-.11-.15-.2,0,0a.48.48,0,0,1-.25-.42.49.49,0,0,1,.2-.39.48.48,0,0,1-.12-.47.48.48,0,0,1,.59-.34,2.79,2.79,0,0,1,1.07.61l.52.45a.69.69,0,0,1,.13.11l0,0,.17.14.28.26c.36.33.71.68,1,1s.69.8,1,1.22l.49.65c.16.21.3.44.45.66.27.42.54.84.8,1.27s.51.89.74,1.35.44.9.62,1.37.33,1,.47,1.54.28,1,.4,1.47.25,1,.37,1.52a12.74,12.74,0,0,1,.24,1.35c.05.44.09.87.14,1.31,0,.23.05.46.07.69l0,.37c0,.09,0,.18,0,.27v0c0,.52,0,1,0,1.56s0,1,0,1.48a29,29,0,0,1-.22,3.1c0,.23-.08.46-.11.68a2.39,2.39,0,0,1-.14.6.54.54,0,0,1-.44.33h-.06A.88.88,0,0,1,83.53,164.15Z"/><path class="cls-1" d="M119,223.84h0c-.47,0-.94-.09-1.41-.15a12.63,12.63,0,0,1-1.47-.27l-.69-.17c-.25-.07-.5-.16-.75-.25-.46-.16-.91-.35-1.37-.53s-.84-.38-1.26-.59-.89-.43-1.32-.68c-.84-.49-1.68-1-2.48-1.56-.2-.15-.4-.29-.59-.45a6.66,6.66,0,0,1-.56-.5c-.35-.35-.67-.72-1-1.09a6.18,6.18,0,0,1-.52-.61c-.16-.22-.31-.45-.46-.68s-.25-.41-.36-.62a4.32,4.32,0,0,1-.34-.68,20,20,0,0,1-1-2.94,5.23,5.23,0,0,1-.14-1.53c0-.54,0-1.08.08-1.62a13.57,13.57,0,0,1,.24-1.42l.3-1.51c.21-1,.42-2.06.69-3.07s.62-2,1-3h0v0h0v0l0-.06h0v0h0a2.25,2.25,0,0,1,.08-.24h0v-.05h0a32.67,32.67,0,0,1,1.72-4.15l0,.06a3.18,3.18,0,0,1,.16-.32l.28-.57h0c.59-1.19,1.1-2.42,1.7-3.61l0,.06c.47-.93,1-1.85,1.51-2.74.27-.46.55-.91.83-1.36l.25-.36a.5.5,0,0,1-.22-.31.16.16,0,0,0,0-.07c-.13-.18-.26-.36-.4-.53l-.22-.22-.43-.34c-.29-.19-.59-.36-.89-.52s-.75-.34-1.13-.49l-.5-.14a3.84,3.84,0,0,0-.46-.11l-.39-.07-.47-.05c-.29,0-.6,0-.9-.08h-.62l-.64.08-.66.13.06,0c-.48.12-1,.25-1.43.41s-.91.35-1.36.56-.71.38-1.05.59l-.5.35c-.21.14-.43.27-.65.4l-1.29.8c-.47.28-.94.56-1.42.82l-1.38.77c-.89.5-1.8,1-2.68,1.48s-1.86,1.06-2.76,1.65L89,192h0l-1.9,1.3,0,0L85,194.71H85l-1.17.83c-.41.29-.8.61-1.2.91l-.12.09.31-.11a6,6,0,0,1,1.51-.35l.84-.06a4.56,4.56,0,0,1,.74,0c.26,0,.53,0,.79.06s.54.09.81.15a4,4,0,0,1,.74.24l.72.31c.47.22.92.45,1.38.7s.92.5,1.36.78a7.19,7.19,0,0,1,1.21.95c.1.11.21.21.3.32l.25.3c.17.2.32.43.48.65a12.52,12.52,0,0,1,1,1.58,7.1,7.1,0,0,1,.52,1.32c.08.24.14.48.2.73.11.51.18,1,.26,1.55a14,14,0,0,1,0,3.94,11.12,11.12,0,0,1-.51,2.27h0v0h0q-.25.74-.57,1.44a13.59,13.59,0,0,1-.76,1.41,7.27,7.27,0,0,1-.93,1.27l-.52.53-.23.25.08,0,.85-.39c.88-.46,1.76-.94,2.63-1.43q.67-.37,1.35-.78l1.31-.84c.36-.23.71-.47,1.06-.71h0l.17-.12h0l0,0,.11-.06-.06,0c.83-.56,1.65-1.11,2.46-1.69a.49.49,0,0,1,.6.77c-.65.46-1.31.91-2,1.35l-.49.34a.41.41,0,0,0-.11.07h0l-.12.08c-.86.58-1.72,1.15-2.61,1.7s-1.76,1-2.65,1.49c-.44.24-.89.48-1.35.71a13.52,13.52,0,0,1-1.4.62c-.32.11-.64.22-1,.3l-.32,0-.51,0a4.68,4.68,0,0,0-.54.08,4.1,4.1,0,0,1-.48.1h0a2.66,2.66,0,0,0-.39.07l-.22.06h-.21c-.31,0-.61,0-.92,0h-.22a9.29,9.29,0,0,1-1.57-.23,6.7,6.7,0,0,1-.76-.24c-.23-.09-.46-.18-.68-.29-.48-.22-1-.44-1.41-.7s-.89-.52-1.33-.8c-.86-.57-1.74-1.12-2.55-1.77a9.35,9.35,0,0,1-2.12-2.36,6.42,6.42,0,0,1-.37-.68,7.13,7.13,0,0,1-.31-.7,8.74,8.74,0,0,1-.4-1.5,13.9,13.9,0,0,1-.19-1.58c0-.51,0-1,0-1.51s0-1.08.09-1.62c0-.15,0-.31,0-.47l-.3.07-.72.14c-.5.09-1,.17-1.52.24-.86.13-1.7.3-2.54.46a5.76,5.76,0,0,0-1.1.08,4.34,4.34,0,0,0-.61.11h0l-.36,0-.52.1h0l-.41.09,0-.05h-.43a5.35,5.35,0,0,1-2.72-.8,6.73,6.73,0,0,1-1.48-1.23h0l0,0a.69.69,0,0,0-.11-.13,13.2,13.2,0,0,1-.91-1.18c-.32-.44-.62-.9-.9-1.37a8.74,8.74,0,0,1-1-3c-.05-.25-.08-.51-.11-.76s0-.55,0-.83c0-.52,0-1,0-1.56s.07-1,.13-1.53.12-1,.22-1.54a15.2,15.2,0,0,1,.83-3c.1-.24.19-.47.31-.7s.26-.52.4-.77l.35-.66a7.39,7.39,0,0,1,.42-.66c.28-.43.61-.83.93-1.23a8,8,0,0,1,.53-.61,4.52,4.52,0,0,1,.58-.5l.18-.14a3.2,3.2,0,0,1-.24-1.11,13.15,13.15,0,0,1,0-1.54c0-.52,0-1,.08-1.56s.1-1.05.15-1.58.09-.88.16-1.32.17-.89.28-1.33.28-.91.44-1.35a11.27,11.27,0,0,1,.53-1.24l0-.06v0c.11-.23.23-.44.35-.66a2.07,2.07,0,0,1,.3-.5,1.07,1.07,0,0,1,.45-.26,3.76,3.76,0,0,1,.67-.12c.51-.05,1-.08,1.54-.1s1.08,0,1.62,0h.54c.84,0,1.68,0,2.52,0,.53,0,1.06,0,1.6.07l1.6.13,1.54.13,1.47.11,1.61.13,1.53.14,1.63.17c.52.06,1,.13,1.55.21s1,.14,1.5.23,1,.15,1.52.21c.71.08,1.42.21,2.12.33l1,.19c.25.05.48.12.72.18-.25-.46-.5-.92-.73-1.39l-.29-.21c-.43-.27-.87-.51-1.31-.75s-.87-.51-1.31-.77c-.86-.52-1.72-1-2.6-1.51l-.26-.14h0c-.15-.07-.29-.15-.44-.21h-.08a4.26,4.26,0,0,0-.5-.06h-.5a6.45,6.45,0,0,0-.73.11c-.3.07-.6.16-.9.25a11.2,11.2,0,0,0-1.13.47,14.51,14.51,0,0,0-1.27.74c-.32.23-.64.46-.94.72a1.8,1.8,0,0,0-.19.2.79.79,0,0,0-.12.15l0,0a.48.48,0,0,1-.66.17.49.49,0,0,1-.18-.66,4.07,4.07,0,0,1,1.09-1.06,10.73,10.73,0,0,1,1.27-.84,10.5,10.5,0,0,1,3-1.14,5.3,5.3,0,0,1,.8-.1,7.12,7.12,0,0,1,.8,0,2.15,2.15,0,0,1,.66.13,3.39,3.39,0,0,1,.39.18c.91.44,1.77,1,2.64,1.49l1.17.71.84.47c-.38-.81-.75-1.62-1.12-2.44-.25-.56-.49-1.11-.71-1.68s-.41-1.11-.6-1.67c-.41-1.2-.71-2.44-1-3.66a30.63,30.63,0,0,1-.71-3.53c-.09-.6-.12-1.22-.15-1.83s0-1.21,0-1.81,0-1.3,0-1.95.08-1.29.15-1.93.18-1.33.29-2c0-.28.11-.55.17-.83s.09-.34.13-.52.09-.31.14-.47c.19-.61.4-1.21.64-1.8s.51-1.2.79-1.79.53-1.12.81-1.68.58-1.05.87-1.57.66-1.13,1-1.68.66-1.05,1-1.58c.56-.94,1.07-1.91,1.58-2.89.24-.44.48-.88.74-1.32s.59-1,.86-1.51l0,.06a28.05,28.05,0,0,0,1.22-2.75c.22-.63.42-1.26.61-1.9.11-.37.21-.74.32-1.11s.17-.74.24-1.11v.06c0-.18,0-.36.08-.54s0-.38.06-.57,0-.39,0-.58,0-.54,0-.81c0-.5,0-1-.08-1.49h0c0-.68-.08-1.37-.12-2.06A24.89,24.89,0,0,0,99,114c-.13-.6-.28-1.2-.46-1.79s-.37-1.17-.57-1.75-.41-1.21-.61-1.81-.38-1.2-.56-1.8-.35-1.21-.49-1.82c-.07-.32-.14-.63-.2-1s-.11-.64-.15-1a11.77,11.77,0,0,1-.06-1.78c0-.62.06-1.23.14-1.84a16.17,16.17,0,0,1,.37-1.94c.18-.7.4-1.38.61-2.06s.38-1.27.58-1.9.36-1.28.5-1.93c.07-.31.12-.63.17-.94s.06-.58.09-.86c0-.58,0-1.16,0-1.74s0-1.24-.08-1.86v.07c0-.65-.09-1.29-.16-1.94S98,83.25,98,82.67s0-1.23,0-1.85a17.16,17.16,0,0,1,.14-1.89,11.11,11.11,0,0,1,.39-1.8c.18-.62.37-1.24.58-1.86s.42-1.18.65-1.76l.66-1.68c.29-.71.57-1.41.87-2.11s.59-1.42.85-2.14c.31-.92.61-1.83.83-2.77a.13.13,0,0,0,0,.06c.1-.52.19-1.05.24-1.58v-.2c0-.17,0-.34,0-.5a.48.48,0,0,1,.06-.24c0-.05,0-.11,0-.16a.75.75,0,0,1,.15-.46.49.49,0,0,1,.88.29.46.46,0,0,1-.06.23l0,.33,0,.5v.21c0,.38,0,.76,0,1.14,0,.74-.16,1.46-.25,2.19-.2,1.57-.35,3.14-.52,4.71-.06.46-.11.93-.14,1.39s0,.77-.06,1.15v.65c0,.17,0,.34,0,.51l.06.52c0,.17.06.34.09.51s.13.59.21.88.19.64.3,1c.5,1.41,1.08,2.79,1.71,4.15.33.7.67,1.4,1,2.11.15.32.3.66.42,1a10.82,10.82,0,0,1,.38,1.09c.1.37.2.75.27,1.14,0,.18.08.36.11.55l.09.65c0,.21.05.42.07.63s0,.38,0,.58q0,.56.06,1.11c0,.81,0,1.62,0,2.44s0,1.61-.1,2.42c0,.63-.1,1.27-.15,1.91-.06,1.22-.06,2.45-.22,3.66-.08.65-.17,1.29-.27,1.93,0,.29-.09.58-.12.87s-.07.62-.1.93,0,.58,0,.87,0,.64,0,1,0,.46.07.69.07.5.11.75a7.32,7.32,0,0,0,.24.92c.1.27.21.53.33.79a8.31,8.31,0,0,0,.51.85c.25.36.5.72.77,1.06s.53.66.81,1l0,0,.16.18h0l0,0,0,0,0,.05,0-.05c.51.57,1,1.13,1.55,1.68s1,1,1.57,1.55c.19.19.38.4.56.61-.14-.58-.29-1.15-.4-1.73v.06c-.09-.45-.18-.9-.25-1.35a13.12,13.12,0,0,1-.15-1.39v0c0-.72-.07-1.44-.08-2.16,0-.36,0-.73,0-1.09a10.31,10.31,0,0,1,0-1.11,21.58,21.58,0,0,1,.39-2.13c.16-.73.35-1.45.57-2.17.12-.37.25-.73.38-1.1h0l0,0h0c.11-.32.23-.63.36-.94s.29-.65.45-1c.31-.63.65-1.25,1-1.87s.66-1.24,1-1.86.67-1.18,1-1.79a25.78,25.78,0,0,0,1.1-2.53c.12-.37.23-.74.32-1.12s.19-.77.26-1.17v.07A14.71,14.71,0,0,0,120,89c0-.31,0-.61,0-.91s0-.67,0-1a1.21,1.21,0,0,1,.11-.49.51.51,0,0,1,.63-.21c.33.14.33.52.32.82s0,.67,0,1,0,.51-.07.77a.49.49,0,0,0,0,.12,11.22,11.22,0,0,0,.17,1.28,19,19,0,0,0,.61,2.24c.12.32.23.63.36.94s.27.64.41,1c.27.63.54,1.25.82,1.86.15.3.29.61.41.92s.26.67.38,1,.23.58.33.87a3.42,3.42,0,0,1,.13.34l.13-.2A22.72,22.72,0,0,0,126.08,97l0,.06a26.5,26.5,0,0,0,1.19-2.73h0v0l0-.14h0v0s0,0,0,0a17,17,0,0,0,.48-1.69h0c.1-.48.18-1,.24-1.43s.1-1,.13-1.45a25.34,25.34,0,0,0,0-2.89h0a25.92,25.92,0,0,0-.46-2.89v.06c-.14-.68-.32-1.35-.51-2s-.36-1.37-.53-2.05a18.78,18.78,0,0,1-.48-2.1,20.32,20.32,0,0,1-.15-2.2c0-.38,0-.75,0-1.12s0-.68,0-1a20.07,20.07,0,0,1,.37-2.17c.16-.73.34-1.45.56-2.16.11-.36.23-.72.34-1.08s.21-.67.31-1,.25-.79.37-1.18.23-.83.32-1.25c0-.25.1-.5.13-.76s.06-.55.08-.83c0-.69,0-1.38,0-2.06s-.07-1.49-.09-2.23,0-1.52,0-2.27a11.44,11.44,0,0,1,.1-2.19,13.76,13.76,0,0,1,.55-2.19,10,10,0,0,1,.37-1c.15-.35.33-.68.5-1a16.78,16.78,0,0,1,1.07-1.78,5.41,5.41,0,0,1,.46-.61.59.59,0,0,1,.53-.25.5.5,0,0,1,.44.49,1.26,1.26,0,0,1-.08.43c0,.13-.08.26-.13.4v0a.56.56,0,0,1,0,.12h0l-.05.12h0a15.77,15.77,0,0,0-.47,1.76,10.74,10.74,0,0,0-.19,1.37c0,.42,0,.83,0,1.24a11.33,11.33,0,0,0,.18,1.32,7.62,7.62,0,0,0,.22.82,6.39,6.39,0,0,0,.26.6c.16.32.33.64.51.95s.38.62.58.93c.4.62.81,1.23,1.19,1.85s.75,1.22,1.14,1.82a19.61,19.61,0,0,1,1.08,1.89c.18.34.34.69.49,1s.27.72.39,1.08a8.44,8.44,0,0,1,.28,1.1c.07.37.15.73.2,1.1.1.76.15,1.52.18,2.29s0,1.47,0,2.21a30.37,30.37,0,0,1-.63,4.45l-.39,2.12c-.12.72-.26,1.43-.4,2.15-.07.34-.13.68-.18,1s-.08.72-.11,1.08v-.07c0,.57-.05,1.14-.06,1.7s0,1.08,0,1.61c0,.28.06.57.11.85s.12.46.19.68a5.72,5.72,0,0,0,.24.57,6.34,6.34,0,0,0,.37.62c.29.41.59.81.91,1.19s.95,1,1.42,1.48,1,1.07,1.49,1.62a10,10,0,0,1,.65.81,23.58,23.58,0,0,1-.05-2.79,9,9,0,0,1,.23-1.56,12.68,12.68,0,0,1,.49-1.51c.38-1,.85-2,1.26-3,.1-.23.19-.47.27-.71s.17-.48.23-.72.13-.53.18-.79c.08-.43.13-.86.17-1.3v.07c0-.39,0-.78.05-1.16s0-.71,0-1.06l0-.18-.15-.32a3.29,3.29,0,0,1-.16-.44.64.64,0,0,1,.09-.52.52.52,0,0,1,.66-.12.87.87,0,0,1,.29.39,4,4,0,0,1,.16.49,1.89,1.89,0,0,1,.05.23c.1.19.19.39.28.59l.62,1.38c.21.48.43.94.65,1.41.11.24.21.47.31.71a5.89,5.89,0,0,1,.26.7,14.25,14.25,0,0,1,.36,1.57c.09.51.16,1,.22,1.55s.12,1,.15,1.54v0c.13-.45.23-.91.33-1.37.21-1,.37-2.09.53-3.14s.28-2.08.36-3.13h0c0-.59.07-1.18.1-1.77,0-.3,0-.61,0-.91,0-.14,0-.28,0-.42s0-.28,0-.42l-.09-.93a8.79,8.79,0,0,0-.15-.87,6.73,6.73,0,0,0-.21-.77,8.08,8.08,0,0,0-.35-.8l-.46-.63a2.38,2.38,0,0,1-.34-.49.5.5,0,0,1,.21-.64.53.53,0,0,1,.59,0,1.52,1.52,0,0,1,.3.32,5.94,5.94,0,0,1,.53.87l.07.11.9,1.23c.29.42.57.85.84,1.28s.58.92.85,1.4a20.44,20.44,0,0,1,1.32,2.94c.18.52.33,1.05.48,1.58.07.25.12.5.17.75a7.39,7.39,0,0,1,.14.82,29.2,29.2,0,0,1,.24,3.1c0,.49,0,1,0,1.48s-.06,1-.12,1.56-.12,1-.2,1.5-.18,1-.27,1.46c-.17.91-.32,1.83-.4,2.75l0,.38a23.71,23.71,0,0,0,0,2.92c0,.32.07.63.12.94s.12.49.2.73a13.29,13.29,0,0,0,.61,1.39c.24.44.49.88.76,1.3s.52.8.77,1.21.57.9.84,1.36.5.91.73,1.38.39.79.56,1.19a11.17,11.17,0,0,1,.49,1.37,13.42,13.42,0,0,1,.57,2.79c.07,1,.08,2,.08,3a7.2,7.2,0,0,1-.18,1.46q-.18.78-.39,1.56c-.13.47-.27.94-.43,1.4s-.35.92-.53,1.38l-.56,1.44c-.2.49-.42,1-.63,1.47s-.36.84-.52,1.28-.31,1-.45,1.5-.28,1.06-.4,1.6c0,0,0-.05,0-.07-.15.74-.27,1.49-.38,2.24-.07.42-.14.84-.19,1.27s-.08.7-.11,1.06c0,.06,0,.11,0,.17a2.17,2.17,0,0,1,0,.26c0,.19,0,.38,0,.57,0,.68,0,1.36,0,2,0,.35,0,.71,0,1.06s0,.75.05,1.12h0v0h0c.06.75.11,1.5.22,2.24s.36,1.32.55,2c.08.3.15.59.23.88s.2.68.28,1l.12.52,0,.13a1.55,1.55,0,0,1,0,.21l.06.3v-.06c0,.08,0,.16,0,.25h0c.21,1,.48,2.06.73,3.09.12.52.23,1,.31,1.57s.15,1.06.2,1.59.07,1.08.08,1.63,0,1.06,0,1.59,0,1.06-.06,1.59a12.46,12.46,0,0,1-.22,1.61q-.29,1.41-.66,2.79l-.21.75c-.08.25-.17.49-.25.73-.17.47-.35.92-.51,1.39h0v.06h0c-.07.21-.14.43-.22.64a.14.14,0,0,1,0,.06l0,.08c-.09.26-.18.52-.28.77l-.57,1.47c-.08.2-.15.4-.24.6h0c.42,0,.85,0,1.27,0s1-.12,1.45-.19l1.53-.2c.51-.07,1-.18,1.53-.27s1-.14,1.47-.21.78-.12,1.17-.2l.95-.2h-.06l1.39-.28H165l2.28-.48h-.06l.14,0-.07,0,.16,0h-.07c.35-.07.69-.14,1-.19l1-.11c.69-.07,1.38-.17,2.08-.22h-.07a12.71,12.71,0,0,1,1.38,0,8.46,8.46,0,0,1,1.32.22l1.29.3c.22.06.44.1.66.17l.69.23a2.69,2.69,0,0,1,.95.45,1.48,1.48,0,0,1,.26.3,2.37,2.37,0,0,1,.17.36,7.57,7.57,0,0,1,.29,1.16,11.14,11.14,0,0,1,.15,1.16c0,.48,0,1,0,1.45s0,1-.06,1.52a10.81,10.81,0,0,1-.16,1.38c-.09.47-.18,1-.3,1.42a5,5,0,0,1-.45,1.13.08.08,0,0,0,0,.05l.19,0,1.49.26c.5.1,1,.21,1.49.35s1,.3,1.48.46l.84.29h0c.33.12.66.23,1,.38s.59.32.88.48.82.37,1.22.56a4.83,4.83,0,0,1,.55.3,3.09,3.09,0,0,1,.45.36l.16.16a2.69,2.69,0,0,1,.33.26l.08.09.08.05a.52.52,0,0,1,.19.39.48.48,0,0,1-.16.36c.07.29.11.58.17.87.08.48.16,1,.2,1.44s.09,1.09.1,1.63a5.1,5.1,0,0,1,0,.78c0,.25-.06.51-.11.77-.1.54-.23,1.08-.38,1.61-.09.33-.19.65-.3,1h0c-.17.49-.33,1-.53,1.47a11.85,11.85,0,0,1-.67,1.39,8.49,8.49,0,0,1-.82,1.23,1.68,1.68,0,0,1-.41.39,1.86,1.86,0,0,1-.46.19,4.8,4.8,0,0,1-1.2.12h0a7.18,7.18,0,0,1-.8-.06c-.32,0-.65-.09-1-.11-.61,0-1.21-.05-1.81-.09h.07l-.44,0h.07l-1.55-.09c-.57,0-1.14-.08-1.7-.12-1-.09-2.07-.19-3.1-.34-.88-.13-1.75-.32-2.61-.53l-.93-.24c.06.12.12.23.17.34l.32.61c.11.21.19.44.29.66.18.44.41.86.57,1.31s.26.9.38,1.35.26.92.36,1.39c0,.11,0,.21.07.32s0,0,0-.07a18.4,18.4,0,0,1,.28,2.09,13.77,13.77,0,0,1,0,2.13v-.07a25.65,25.65,0,0,1-.43,2.88c-.09.49-.24,1-.37,1.47s-.23,1-.37,1.43c-.08.3-.18.59-.28.87a5,5,0,0,1-.25.64,6.5,6.5,0,0,1-.32.65l-.33.65c-.11.2-.21.4-.33.59a14.12,14.12,0,0,1-1.9,2.12v0h0c-.3.35-.56.74-.84,1.12a7.51,7.51,0,0,1-1.06,1.12c-.39.33-.78.66-1.2.95-.22.15-.45.28-.67.41l-.64.4-.23.16h0l-.61.4a5.13,5.13,0,0,1-.66.34,15.45,15.45,0,0,1-1.48.55l-.7.23c-.26.07-.52.15-.78.2A9,9,0,0,1,157,220l-1.55,0c-.5,0-1,0-1.49.05s-1,.06-1.52.07h-.12l-.63,0c-.11,0-.23,0-.34,0h-.09a1.77,1.77,0,0,1-.33,0c-.14,0-.28,0-.41-.06h-.06l-.14,0h0l-.22-.06a7.51,7.51,0,0,1-.91-.31l-.86-.32a16.89,16.89,0,0,1-1.67-.64h0l-.11-.05,0,0c-.44-.22-.87-.48-1.3-.73a13.38,13.38,0,0,1-1.26-.74,11.82,11.82,0,0,1-1.16-1q-.54-.47-1.08-1a12.19,12.19,0,0,1-1-1.06c-.35-.39-.67-.8-1-1.22a13.54,13.54,0,0,1-.79-1.27,8.91,8.91,0,0,1-.63-1.41,8.69,8.69,0,0,1-.39-1.6c-.06-.31-.1-.64-.13-1a6.26,6.26,0,0,1-.14.73c-.07.23-.15.46-.22.69s-.13.42-.2.62a12.15,12.15,0,0,1-.58,1.4c-.2.46-.4.93-.63,1.38-.11.22-.24.43-.36.64l-.33.62-.39.71c-.12.21-.26.41-.39.61-.27.42-.53.84-.8,1.25s-.58.85-.89,1.26-.6.81-.93,1.19-.7.75-1.06,1.11a7.86,7.86,0,0,1-1.15.92,6.29,6.29,0,0,1-.64.41c-.21.13-.43.24-.65.35l-1.07.53c-.33.15-.67.28-1,.4h0l0,0h0l-.92.29-.94.26c-.64.14-1.3.22-1.94.35h-.09l-.87.18c-.3.06-.6.1-.9.13s-.77.05-1.16.05C119.36,223.86,119.16,223.86,119,223.84Zm18.94-20c0,.26.07.51.08.76s0,.41,0,.62q.12-.56.27-1.11c.12-.47.25-.93.41-1.39s.37-.95.58-1.42a26.92,26.92,0,0,1,1.36-2.81c.25-.43.51-.86.79-1.28a5.75,5.75,0,0,1,.46-.64c.18-.21.38-.4.57-.6.37-.35.74-.71,1.1-1.08s.66-.74,1-1.1c.71-.78,1.48-1.48,2.25-2.18a13,13,0,0,1,1.15-1c.44-.31.89-.61,1.35-.89a16.61,16.61,0,0,1,2.86-1.27l1.48-.52c.46-.15.93-.3,1.41-.41s1-.18,1.46-.25,1-.17,1.54-.24a17.18,17.18,0,0,1,2.95-.17,5.27,5.27,0,0,1,.56,0l-.12-.06-.71-.38-1.39-.73,0,0,0,0h0c-.4-.2-.83-.37-1.24-.54l-1.19-.53-.66-.3a6.91,6.91,0,0,1-.67-.33c-.2-.11-.39-.24-.58-.36l-.51-.33-.2-.13-.59-.38c-.21-.13-.4-.27-.6-.41s-.47-.27-.71-.4l-.74-.39a3.24,3.24,0,0,1-.74-.48l-.47-.46c-.31-.26-.63-.48-1-.71l0,0-.27-.16c-.12-.06-.24-.1-.37-.15s-.45-.15-.68-.2l-.36,0-.48-.1-.43-.08c-.15,0-.29-.08-.44-.12l-.49-.13-.41-.11-.78-.12a5.9,5.9,0,0,0-.83-.11,16.49,16.49,0,0,0-1.86,0,16.32,16.32,0,0,0-1.84.27c-.49.12-1,.27-1.46.38l-.75.19c-.22.06-.43.14-.64.21h0l-.05,0h-.06a11.38,11.38,0,0,0-1.08.47c-.39.18-.79.34-1.18.53s-.68.39-1,.61l0,0c-.31.21-.61.44-.91.68l-.43.37-.38.32h0l-.37.36c-.12.12-.24.23-.35.35l-.07.09a6.6,6.6,0,0,0-.36.64l0,.07s0,0,0,0v0c0,.12,0,.24,0,.36s0,.08,0,.12a1.36,1.36,0,0,1,.05.41,2,2,0,0,1,0,.42l.12.36c.1.27.21.53.32.8s.19.49.28.74.24.63.36,1,.2.59.31.89h0a.08.08,0,0,1,0,.05h0c.15.43.3.85.46,1.27s.36.88.55,1.32.32.83.48,1.24.31.8.49,1.19l.11.21a4.72,4.72,0,0,1,.27.61.44.44,0,0,1,0,.36h0a9.22,9.22,0,0,1,1.77,2.55c.1.2.18.41.26.62s.17.44.24.66.14.45.19.68a5.83,5.83,0,0,1,.15.7h0C137.64,201.83,137.78,202.84,137.89,203.84Zm-70.3-20.38a6.64,6.64,0,0,1,1.67.59c.24.12.47.26.71.4l.28.18.34.26.31.26c.12.1.23.21.34.32a6.52,6.52,0,0,1,.5.55,8,8,0,0,1,1.62,2.73c.15.48.28,1,.4,1.46a11.16,11.16,0,0,1,.29,1.53c.07.53.12,1.06.14,1.6s0,1.07,0,1.6a23.53,23.53,0,0,1-.31,3.24,10.24,10.24,0,0,1-.41,1.51,11,11,0,0,1-.62,1.46,12.28,12.28,0,0,1-1.66,2.55c-.09.12-.19.23-.29.34l.32-.07c.49-.09,1-.19,1.49-.27l1.54-.24c.4-.06.8-.13,1.19-.21l.65-.15h.11a12.89,12.89,0,0,1,.53-1.47,12.06,12.06,0,0,1,.76-1.42,13.1,13.1,0,0,1,.92-1.29,8.87,8.87,0,0,1,1-1.11c.77-.7,1.59-1.34,2.41-2s1.39-1,2.1-1.56,1.45-1,2.17-1.45l0,0,.49-.33c.85-.59,1.7-1.18,2.57-1.75s1.81-1.12,2.74-1.65,1.81-1,2.7-1.49l1.38-.76c.47-.26.94-.54,1.41-.82l1-.62.22-.13v-.48c0-.19,0-.37,0-.55a8.07,8.07,0,0,0-.14-1.1,16.85,16.85,0,0,0-.57-2.08c-.22-.63-.47-1.25-.74-1.87s-.47-1.12-.72-1.67c-.49,0-1,0-1.47.05-1,.07-2,.19-3,.32-.52.06-1,.13-1.54.21l-1.66.28c-1.2.19-2.4.4-3.59.61h0L85,179l-.62.12h.06l-.09,0h0c-1,.23-2,.46-3,.65-.51.1-1,.19-1.53.26L78,180.3l-.69.13c-1,.23-2,.49-3,.8l-1.44.45c-.51.16-1,.28-1.55.4-.76.18-1.51.37-2.26.57s-1.49.4-2.22.65l-.37.14.57,0A2.29,2.29,0,0,1,67.59,183.46Zm40.78,12.08h0v0a1.51,1.51,0,0,0-.11.22c-.31.65-.62,1.3-.89,2l.07-.09a15.84,15.84,0,0,1,2.22-2.11q.61-.49,1.26-1a13.68,13.68,0,0,1,1.35-.89,14.43,14.43,0,0,1,1.36-.69l.77-.34c.24-.1.49-.19.74-.27a25.8,25.8,0,0,1,3-.88l-.07,0,1.26-.25c.38-.06.76-.12,1.14-.15h0l.22,0h0c.51,0,1,0,1.54,0s1,0,1.54,0l1.58.11c.52,0,1,.14,1.55.23s1,.15,1.45.25a6.49,6.49,0,0,1,.76.19,4.81,4.81,0,0,1,.75.28c.22.09.44.19.65.3s.47.22.69.35c.43.24.84.51,1.25.77.23.15.46.29.68.45l.15.11c-.15-.35-.28-.71-.41-1.07s-.33-.82-.5-1.23-.36-.9-.53-1.35-.33-.95-.49-1.42v0h0c-.14-.41-.31-.8-.45-1.2h0a.14.14,0,0,0,0-.06h0c-.07-.19-.14-.38-.22-.58a.46.46,0,0,1-.28-.42v0a13.19,13.19,0,0,0-.72-1.69c-.11-.21-.24-.42-.37-.62a6.25,6.25,0,0,0-.4-.5l-.36-.35-.46-.37c-.21-.15-.43-.28-.65-.41l-.3-.13c-.57-.18-1.15-.35-1.73-.49h.06l-1.25-.22c-.42-.06-.83-.09-1.25-.12a14.78,14.78,0,0,0-1.63,0c-.46,0-.92.11-1.37.19a24.13,24.13,0,0,0-2.53.67,9.88,9.88,0,0,0-.94.41,3.59,3.59,0,0,0-.38.21c-.18.13-.34.27-.51.41s-.58.55-.86.85-.68.83-1,1.26-.69.87-1,1.33a43.68,43.68,0,0,0-2.35,4.09c0,.07-.07.15-.11.22h0v0h0c-.33.64-.61,1.3-.91,1.95-.16.35-.32.69-.49,1s-.31.63-.46.94v0A.2.2,0,0,0,108.37,195.54ZM180.46,193a2.38,2.38,0,0,1-.4-.5,3.4,3.4,0,0,1-.38-.85,13.3,13.3,0,0,1-.29-1.53,8.83,8.83,0,0,1-.15-1.54q0-.81.09-1.62a7.27,7.27,0,0,1,.17-1q.09-.36.21-.72c.17-.54.36-1.06.56-1.58a6.43,6.43,0,0,1,.77-1.44,6,6,0,0,1,1-1.12,12.79,12.79,0,0,1,1.26-.93,5.33,5.33,0,0,1,1-.54l0,0-.51-.29c-.15-.07-.31-.14-.48-.2L183,179l-.12,0-.14-.05h0l-1.52-.5c-.53-.16-1.05-.32-1.6-.44l.07,0c-.82-.17-1.64-.3-2.46-.47l-1.32-.26-1.21-.28.07,0-1.15-.24a6.71,6.71,0,0,1-1.19-.19,1,1,0,0,1-.44-.33,1.17,1.17,0,0,1-.19-.57,4.14,4.14,0,0,1,.06-.7,6.58,6.58,0,0,1,.14-.75,6.32,6.32,0,0,1,.57-1.46c.14-.27.29-.54.45-.79l.17-.24-.69-.15h.07c-.5-.1-1-.21-1.49-.33a2.43,2.43,0,0,1-.52-.17l-.18.24c-.15.2-.3.39-.47.58-.35.41-.74.79-1.12,1.17a14.62,14.62,0,0,1-1.18,1,6.94,6.94,0,0,1-1.34.79c-.93.45-1.91.8-2.89,1.16-.51.19-1,.36-1.54.52a7.36,7.36,0,0,1-1.47.29c-.54,0-1.09,0-1.63,0s-1,0-1.51,0l-1.5,0a14.68,14.68,0,0,1-1.48-.08,19.54,19.54,0,0,1-2-.49l-.58-.08h-.48a2.42,2.42,0,0,1-.54,0c-.08.18-.17.35-.26.53-.25.51-.5,1-.76,1.52-.08.13-.15.27-.24.4a1.37,1.37,0,0,1-.19.23,5,5,0,0,1,.66.31c.15.09.28.2.43.3l.41.29a5.58,5.58,0,0,1,.46.39l.36.35.18.14a6.28,6.28,0,0,0,.57.31l.63.33a5.7,5.7,0,0,1,.58.33l.51.35.51.32.57.38c.15.11.32.2.48.3s.41.27.63.39l.89.4.87.39c.6.27,1.22.5,1.81.8h0l1.08.55,1,.56c.3.15.62.29.92.46l.89.48c.29.15.55.34.83.51l.4.25.13,0,.31.12.35.2h0l.16.1.16.12a.47.47,0,0,1,.28.42l.33.32.51.46a10.94,10.94,0,0,1,1,1c.26.29.52.6.75.91l.39.1.9.23c.65.17,1.3.32,1.95.46a45,45,0,0,0,5.31.62c.7,0,1.41.07,2.11.12h-.06l.43,0h-.07Zm-74.72-10.44.82,0,.83.08a7.09,7.09,0,0,1,.78.14,9,9,0,0,1,2.5,1,.54.54,0,0,1,0-.18,1.23,1.23,0,0,0,0-.2c0-.47,0-1,0-1.44s0-1.13-.06-1.69a19.33,19.33,0,0,0-.29-2.16,20.85,20.85,0,0,0-.72-2.57,12,12,0,0,0-.53-1.29c-.21-.44-.42-.89-.64-1.32h0c-.21-.42-.44-.84-.68-1.25l-.78-1.28a17,17,0,0,1-1.41-2.71,13,13,0,0,1-.47-1.5c-.11-.5-.21-1-.3-1.52s-.19-1.06-.26-1.6a10.33,10.33,0,0,1-.08-1.57c0-1,0-2,.12-3,.05-.47.1-.95.17-1.42s.16-1,.27-1.52a2.21,2.21,0,0,1,0-.25s0,0,0,.06c.07-.3.14-.59.22-.89-.1.17-.19.35-.28.53a19.61,19.61,0,0,0-.8,1.9,18.53,18.53,0,0,0-.52,1.8q-.14.75-.21,1.53c0,.48,0,1,0,1.45s0,1,0,1.49h0a.86.86,0,0,0,0,.16s0,0,0-.06a28.52,28.52,0,0,0,.35,2.91v0h0v0h0s0,0,0,.08v-.07l0,.15h0c.1.47.22.93.34,1.4l.39,1.45c.14.49.28,1,.4,1.48s.2,1,.27,1.51c0,.23.06.47.08.71s0,.54,0,.8c0,.49,0,1,0,1.47s-.06,1-.12,1.51-.1,1-.17,1.52a14.65,14.65,0,0,1-.28,1.47c-.06.25-.12.49-.19.74a7.24,7.24,0,0,1-.24.75c-.17.47-.36.93-.55,1.39l-.09.23.49-.11c.23,0,.47-.09.7-.11a6.32,6.32,0,0,1,.74-.06Zm-38.58-10c-.22.46-.4.94-.58,1.41s-.31,1-.43,1.51c-.06.31-.12.63-.16.94s-.08.68-.11,1c-.07.67-.14,1.34-.19,2a21.18,21.18,0,0,0,0,2.39,4.43,4.43,0,0,0,.06.51,2.29,2.29,0,0,0,.08.28l.33-.13c.48-.19,1-.35,1.47-.5s1-.28,1.53-.41l1.53-.39c.52-.12,1-.24,1.56-.38s1-.3,1.5-.46,1-.3,1.46-.43,1-.27,1.46-.38,1.12-.23,1.69-.31l1.49-.21c.7-.1,1.4-.23,2.1-.37.36-.08.73-.15,1.09-.24s.76-.18,1.14-.25l.12,0-.07,0,.65-.14-.06,0,.14,0h-.07c.53-.11,1.07-.19,1.61-.28l1.46-.25,1.51-.25h0l-.08,0h0c-.39-.13-.77-.29-1.16-.43l-.12,0a18,18,0,0,0-2.4-.61h.06c-.21,0-.43-.08-.65-.1l-.73-.07h0l-.41,0h0a18.76,18.76,0,0,0-2.12.05l-.51,0h-.19c-.49,0-1,.08-1.49.13s-1,.08-1.5.11-1,.1-1.46.11-1,0-1.52,0-1,0-1.48,0-1-.09-1.49-.13a4.05,4.05,0,0,1-.92-.18h-.07a.48.48,0,0,1-.42-.54.51.51,0,0,1,.45-.43.77.77,0,0,1,.37.07l.3.07a7,7,0,0,0,.8.09l.88.09c.57,0,1.14,0,1.71.05s1.14,0,1.7,0l.9-.08.93-.06h0c.62,0,1.23-.12,1.85-.17l.22,0h.34l1.34-.07c.5,0,1,0,1.5,0H84l.41,0h-.06c.35,0,.7.06,1,.1s.7.13,1,.21a18.11,18.11,0,0,1,2,.56h0c.35.12.69.26,1,.39l.11,0h0l0,0h0a.49.49,0,0,1,.31.59.46.46,0,0,1-.21.28L91,177c1.06-.13,2.12-.26,3.18-.36.56-.06,1.13-.09,1.69-.1-.51-.94-1-1.87-1.56-2.81h0l-.33,0c-.43-.06-.84-.21-1.26-.3l-1.46-.25c-.51-.09-1-.17-1.53-.23s-1-.13-1.51-.21-1-.17-1.56-.24-1-.15-1.53-.2l-1.63-.17c-.52-.06-1-.1-1.55-.14l-1.59-.13c-.77-.07-1.55-.11-2.32-.18s-1.5-.14-2.25-.19c-1-.05-2.07-.07-3.1-.08H71.06c-.52,0-1,0-1.55,0l-.55,0h0a8.85,8.85,0,0,0-1.13.12l-.13,0h0c-.07.13-.14.25-.2.38s-.18.32-.26.48a.43.43,0,0,1,0,.07l0,0A.31.31,0,0,1,67.16,172.6Zm63.6-3.89c-.21.46-.41.92-.58,1.39a10.73,10.73,0,0,0-.43,1.57c-.1.49-.17,1-.22,1.47s-.08,1-.08,1.51,0,1,.07,1.54,0,1,.11,1.49a5,5,0,0,0,.14.79,5.08,5.08,0,0,0,.23.69c.05.16.1.31.16.46s.13.33.2.49a1.15,1.15,0,0,0,.39.51.68.68,0,0,0,.36.1l.17,0a.83.83,0,0,0,.32-.17h0c.07-.06.15-.1.23-.16l.48-.35c.34-.25.69-.5,1-.73s.76-.44,1.15-.66c.2-.12.4-.24.61-.35l.6-.28.44-.2c.14-.06.29-.1.44-.15h0l.73-.23.76-.21a.64.64,0,0,0,.42-.33.5.5,0,0,0,0-.32.61.61,0,0,0-.07-.17l-.07-.15,0,.06c-.21-.46-.37-.93-.54-1.4s-.41-1.23-.58-1.85a13.87,13.87,0,0,1-.3-2,21.32,21.32,0,0,1,.08-2.53c0-.13,0-.26,0-.4v.07c.12-.87.29-1.73.47-2.59.11-.5.23-1,.34-1.48s.23-1,.35-1.57c.24-1,.46-2.08.64-3.12.09-.51.17-1,.22-1.53s.08-1,.09-1.56,0-1.09,0-1.63,0-1,0-1.5c0-.27,0-.55-.08-.81s-.09-.54-.15-.8a12.86,12.86,0,0,0-.39-1.51,12.38,12.38,0,0,0-.59-1.53c-.22-.45-.45-.9-.7-1.34s-.51-.89-.78-1.32a13.29,13.29,0,0,0-.94-1.29l-1-1.19a5.09,5.09,0,0,0-.51-.53c-.19-.19-.47-.47-.77-.33a.42.42,0,0,0-.23.5.77.77,0,0,0,.22.31c.23.25.44.54.65.81h0l.11.16c.18.34.33.69.48,1a16.44,16.44,0,0,1,.6,1.66V147a17.6,17.6,0,0,1,.44,1.77,9.05,9.05,0,0,1,.12.91v0h0c0,.62,0,1.25,0,1.88,0,.86-.12,1.71-.23,2.56v-.06c-.08.52-.17,1-.26,1.54s-.18.93-.29,1.39h0c-.15.61-.32,1.22-.49,1.83s-.34,1.18-.54,1.77-.5,1.39-.78,2.07c-.4,1-.84,2-1.22,3s-.74,2-1.12,3l0,0S130.76,168.69,130.76,168.71Zm45.82,7.66.12-.17a2.69,2.69,0,0,0,.16-.29v0a3.25,3.25,0,0,0,.18-.43,6.73,6.73,0,0,0,.21-.77h0v-.05h0c.07-.36.15-.71.21-1.08s.09-.75.12-1.13v.07a25,25,0,0,0,0-2.74,11.94,11.94,0,0,0-.21-1.46h0a4.7,4.7,0,0,0-.12-.51,3.45,3.45,0,0,0-.14-.34v0h0l-.08-.09h0l0,0q-.27-.12-.54-.21l.06,0-.61-.2c-.22-.07-.43-.12-.65-.17-.39-.1-.77-.2-1.16-.28h0l-.85-.18a3.86,3.86,0,0,0-.49-.06c-.41,0-.81,0-1.22,0h-.15c-.64,0-1.27.14-1.91.21l-.92.1-1,.17h.06l-.08,0-.13,0h0l-1.68.35-1.7.35h.06l-.28,0h.07c-.51.11-1,.22-1.53.31s-1,.14-1.48.21-1,.18-1.55.27-1,.15-1.5.22-.73.09-1.1.15a10,10,0,0,1-1.1.13c-.42,0-.85,0-1.27,0h-.46c-.19.41-.42.81-.58,1.23s-.36,1-.58,1.44-.42.92-.62,1.38-.25.64-.39,1l-.19.38c-.07.16-.13.33-.21.49s-.14.32-.21.48h.32a6,6,0,0,1,.85.08c.59.1,1.14.32,1.71.45a5.1,5.1,0,0,0,.67.08c.87.06,1.75,0,2.62.08s1.77.05,2.66,0l.92-.11c.6-.14,1.18-.34,1.76-.53h0l1.66-.61q.87-.34,1.71-.75l.42-.22a3.22,3.22,0,0,0,.39-.25l-.06,0c.32-.24.62-.49.91-.75a20.11,20.11,0,0,0,1.45-1.47,10.55,10.55,0,0,0,.71-.91.78.78,0,0,1,.44-.36.53.53,0,0,1,.37,0l.17.11a.31.31,0,0,0,.1,0l.09,0c.18.06.37.1.56.15l.65.15h0l.84.17a4.45,4.45,0,0,1,.81.24.81.81,0,0,1,.34.24.59.59,0,0,1,.08.57,1.4,1.4,0,0,1-.22.32,3.81,3.81,0,0,0-.24.32c-.18.28-.35.57-.5.86s-.23.5-.33.76-.13.44-.18.66a7.68,7.68,0,0,0-.11.82.66.66,0,0,0,0,.14h0l.08,0c.25.05.5.06.75.09a3.56,3.56,0,0,1,.47.1l.46.09.89.19,1,.22h-.06Zm-57.82-6.65.12,0a.32.32,0,0,0,.25-.1.34.34,0,0,0,.09-.3,2.86,2.86,0,0,0-.07-.28l-.08-.25c-.12-.36-.22-.72-.32-1.08l0-.16s0,0,0,.05,0-.08,0-.12v-.1c0-.09,0-.18,0-.27v.05c0-.23-.06-.45-.09-.68s0-.41,0-.61c0-.44,0-.89,0-1.33s0-.93,0-1.4h0v-.06h0c0-.13,0-.26,0-.39v.06c0-.3,0-.6,0-.9h0c0-.45.08-.91.14-1.35s.17-.93.26-1.39c0-.11,0-.22.07-.34.14-.58.3-1.15.47-1.73s.32-1.17.47-1.77l0-.14v0a.65.65,0,0,0,0-.13s0-.05,0-.07v0h0l.06-.25c0-.13.07-.27.11-.4.23-.87.48-1.73.73-2.59h0c.1-.36.2-.72.29-1.08.28-1.05.5-2.11.7-3.18a11.92,11.92,0,0,0,.17-1.58,6.42,6.42,0,0,0,0-.76c0-.28,0-.56,0-.84v0h0v0h0v-.08c0-.52-.05-1-.11-1.55a13,13,0,0,0-.25-1.64c-.06-.25-.12-.5-.2-.75s-.17-.5-.25-.74c-.18-.49-.36-1-.55-1.44a14.55,14.55,0,0,0-.65-1.45c-.24-.46-.47-.92-.74-1.36s-.58-.89-.87-1.33-.55-.77-.85-1.14l0,0c-.13-.17-.24-.38-.44-.47a.37.37,0,0,0-.47.46,1.88,1.88,0,0,0,.14.24c.17.3.32.6.46.91h0c.19.44.36.89.54,1.33s.35.85.5,1.28h0s0,0,0,.06v0c.24.7.44,1.4.62,2.12,0,.2.07.39.1.6a26.59,26.59,0,0,1,.17,2.68c0,.83,0,1.66-.1,2.49,0,.28-.06.56-.1.84s-.08.5-.13.75c-.22,1-.45,2-.72,2.95-.14.5-.28,1-.4,1.51,0,0,0,.09,0,.13-.1.4-.22.79-.33,1.18s-.28.92-.39,1.39v0l0,.07h0v.05h0c-.06.24-.11.48-.17.72l0-.1a11.19,11.19,0,0,0-.28,1.4l-.06.56-.09.65c-.06.53-.12,1.07-.15,1.61s0,1,0,1.58,0,1.06.06,1.59v0c.05.76.11,1.53.23,2.28.09.54.19,1.07.3,1.6a15.09,15.09,0,0,0,.36,1.51c.15.52.32,1,.5,1.52.09.22.17.45.26.67s.19.46.28.7v0a.14.14,0,0,0,.27,0A.35.35,0,0,0,118.76,169.72Zm-28-5.93h0c-.07-.2-.13-.4-.2-.6C90.66,163.4,90.73,163.59,90.79,163.79Zm9.43-25.91c-.18.39-.33.8-.48,1.21a17.65,17.65,0,0,0-.56,1.92c-.15.82-.28,1.65-.35,2.48a15.1,15.1,0,0,0,0,1.78,20.27,20.27,0,0,0,.38,2.44c.06.3.13.6.21.91,0-.08,0-.15,0-.23a10.55,10.55,0,0,1,.7-3c.19-.5.4-1,.62-1.49s.41-.9.62-1.35c.44-.94.86-1.9,1.33-2.83l.06-.13v0c.43-.85.88-1.7,1.34-2.53l.67-1.16c.25-.43.49-.86.71-1.3l0,.05,0-.07c.22-.45.42-.9.61-1.36s.35-.89.51-1.34h0l0,0v0c.11-.35.23-.69.33-1s.17-.69.25-1a24.91,24.91,0,0,0,.39-2.71h0a16.65,16.65,0,0,0,0-1.87h0c0-.25,0-.5-.07-.74s-.08-.55-.13-.82-.06-.29-.1-.43c0,.31-.06.62-.1.92a13,13,0,0,1-.66,2.9c-.09.24-.2.48-.3.72s-.21.45-.32.67c-.23.44-.46.89-.72,1.31s-.5.83-.76,1.24-.52.82-.8,1.21c-.55.77-1.1,1.55-1.64,2.33v0h0l0,0h0l0,0h0a15.83,15.83,0,0,0-1.06,1.83.41.41,0,0,1-.05.09l-.06.13,0-.06C100.59,137.09,100.4,137.48,100.22,137.88Zm45.31-1.44c0,.74,0,1.48,0,2.21,0,.31.06.61.1.91s.1.61.16.91.19.71.31,1.06c0,.12.1.24.15.36.19.37.39.74.59,1.11a.59.59,0,0,0,0-.13c-.1-.5-.19-1-.27-1.49s-.17-1-.21-1.55-.06-1.08-.08-1.62,0-1,0-1.56.06-1,.12-1.54a19.38,19.38,0,0,1,.73-3.12c.07-.21.13-.41.2-.61h0a.19.19,0,0,1,0-.07h0s0,0,0-.06,0,0,0,0a.64.64,0,0,1,.06-.18c.34-1,.75-1.94,1.16-2.9s.83-2,1.24-3c.16-.4.31-.81.47-1.22.35-1.05.67-2.1.92-3.18a27.67,27.67,0,0,0,.4-3.15c0-.41.06-.82.06-1.23s0-.77,0-1.16-.11-.79-.17-1.19-.12-.74-.19-1.11h0c-.06-.26-.13-.51-.21-.76a10.73,10.73,0,0,0-.45-1.11,11,11,0,0,1,.2,1.28c.06.54.11,1.09.14,1.63a4.7,4.7,0,0,1,0,.75c0,.25,0,.51-.06.76a23.22,23.22,0,0,1-.69,3.08c-.3,1-.61,2-.93,3s-.63,1.83-1,2.74c-.17.45-.35.89-.52,1.34s-.34.9-.5,1.36h0s0,0,0,0h0c-.26.73-.5,1.46-.74,2.19a23.37,23.37,0,0,0-.59,2.33.17.17,0,0,1,0-.07c-.09.45-.18.9-.26,1.36s-.1.91-.13,1.37h0C145.55,134.93,145.54,135.69,145.53,136.44ZM128,129.85c.12.47.27.93.42,1.39.11.3.22.6.34.9s.26.57.39.85c.24.46.47.93.74,1.37s.38.61.58.92l-.15-.67c-.05-.24-.1-.48-.13-.73-.05-.51-.1-1-.12-1.55a26,26,0,0,1,.45-6.35c.22-1.06.45-2.11.7-3.16s.5-2,.76-3.06.52-2,.83-3,.63-2,.94-3.08c.22-.74.4-1.5.56-2.26h0c.13-.65.26-1.31.36-2l.15-1.09c0-.33.07-.65.1-1s0-.89,0-1.34,0-1-.05-1.46-.08-1-.15-1.46-.14-.88-.22-1.31-.22-1-.36-1.48c-.06-.21-.12-.42-.19-.62v0a13.45,13.45,0,0,1-.05,1.55,6,6,0,0,1-.17,1c-.08.35-.17.68-.28,1l-.09.29,0,.07-.08.24s0,0,0,0h0v0h0c-.17.46-.37.91-.56,1.36l-.6,1.42c-.2.47-.39,1-.6,1.43s-.46,1-.72,1.51-.42.78-.62,1.17l-.66,1.25c-.18.39-.35.77-.51,1.17s-.28.74-.41,1.11c-.18.58-.36,1.15-.52,1.73s-.29,1.14-.42,1.72-.21,1-.28,1.5-.14,1-.18,1.58c-.06,1.34,0,2.68,0,4l0,.51a.13.13,0,0,0,0-.06,25.32,25.32,0,0,0,.41,3h0C127.71,128.88,127.83,129.37,128,129.85Zm3.47-3.67v0h0q.14-.64.27-1.26C131.6,125.36,131.51,125.77,131.43,126.18Zm5.73-52.51c0-.33.07-.66.1-1v-.05C137.24,73,137.2,73.33,137.16,73.67Z"/><path class="cls-2" d="M9.11,31.82c0-.47,0-.94,0-1.41S9,29.4,9,28.89c0-1-.1-2-.12-3s0-2,0-3c0-.49,0-1,0-1.47s0-1,.06-1.52L9,18.54c0-.25,0-.5.05-.74a2.43,2.43,0,0,1,.08-.47A.62.62,0,0,1,9.38,17a1,1,0,0,1,.52-.14c.25,0,.49,0,.74,0,.49,0,1,0,1.47.1s1,.09,1.42.15a1.26,1.26,0,0,1,.43.13.69.69,0,0,1,.33.43,1.33,1.33,0,0,1,.05.4v.4c0,1-.1,2-.18,3,0,.11,0,.22,0,.34v-.07c-.13,2.05-.1,4.1-.1,6.15v1.62c0,.52,0,1,0,1.54a.49.49,0,0,1-.49.49.48.48,0,0,1-.48-.49v-5.9c0-.84,0-1.69,0-2.53s.12-1.69.18-2.54h0a19.75,19.75,0,0,0,.06-2L13,18,12.4,18l-1.12-.11-.72,0H10a4.8,4.8,0,0,0,0,.52.13.13,0,0,1,0-.06c0,.46-.05.93-.07,1.39s0,1-.06,1.48c0,1,0,2,0,2.95s0,2,.05,3,.09,2,.14,3c0,.55,0,1.1,0,1.65h0v.09a.49.49,0,1,1-1,0Z"/><path class="cls-2" d="M13.92,186.2a3.47,3.47,0,0,1-.45-.06A1.69,1.69,0,0,1,13,186a.88.88,0,0,1-.47-.65,4,4,0,0,1,0-.78c0-1.2,0-2.4,0-3.6.05-1.44,0-2.87.07-4.3s.09-2.93.17-4.39.19-3,.26-4.47c0-.75.07-1.5.12-2.26s.1-1.49.15-2.24v.06c.09-1.64.1-3.28.13-4.93s.08-3.24.13-4.86c0-.78.06-1.57.07-2.35s0-1.63,0-2.45c0-1.63.53-19.22.57-20.83s.1-3.19.11-4.8,0-3.24,0-4.87,0-3.34,0-5v-4.72l0-2.32c0-.8,0-1.61,0-2.41V99.56c0-1.59,0-3.17,0-4.75,0-.89,0-1.77,0-2.65s0-1.62-.06-2.43,0-1.62,0-2.44V84.81c0-.85,0-1.7,0-2.55s.05-1.58.06-2.37c0-1.66,0-3.32,0-5s0-3.23,0-4.85,0-3.38,0-5.06c0-.75,0-1.5-.05-2.25s0-1.47,0-2.21,0-1.19.08-1.79.08-.91.12-1.37,0-.83.07-1.24c0-.22.05-.45.07-.67s0-.29,0-.44-.05-.54-.09-.8a4.07,4.07,0,0,1-.07-.61c0-.17,0-.34,0-.51V51.19c0-.36,0-.72,0-1.08a1,1,0,0,0,0-.24,3.37,3.37,0,0,0-.1-.34,2.39,2.39,0,0,0-.15-.37,4.21,4.21,0,0,0-.29-.51c-.3-.41-.63-.8-1-1.18l0,0c-.31-.35-.61-.7-.89-1.08a11.41,11.41,0,0,1-.76-1.19c-.25-.44-.46-.9-.67-1.36a8.91,8.91,0,0,1-.5-1.51c-.21-.88-.33-1.78-.46-2.68-.07-.47-.15-.94-.24-1.4s-.15-1.09-.25-1.63a.52.52,0,0,1-.25-.5.06.06,0,0,1,0,0l0-.14a.91.91,0,0,1,.11-.16h0v0a.51.51,0,0,1,.4-.2.54.54,0,0,1,.32.11.61.61,0,0,1,.19.28,1.7,1.7,0,0,1,.1.32c0,.17.06.33.09.5.07.38.11.76.17,1.14s.11.61.16.92.1.61.15.92c.08.61.17,1.21.29,1.82.05.23.1.46.16.69s.14.49.22.73c.17.45.37.88.58,1.31a11.4,11.4,0,0,0,.71,1.22l0-.05c.26.38.55.75.85,1.11l0,0c.37.42.74.84,1.07,1.28a4.79,4.79,0,0,1,.73,1.33,3.08,3.08,0,0,1,.19.9c0,.23,0,.45,0,.67,0,.53,0,1.05,0,1.58,0,.26,0,.51,0,.77s0,.39,0,.59.08.49.11.73.05.47.06.7a11.37,11.37,0,0,1-.09,1.31.13.13,0,0,1,0-.06c0,.52-.06,1-.1,1.56s-.09.93-.12,1.39v-.06c0,.72,0,1.45,0,2.17s0,1.45,0,2.18c0,1.62,0,3.24,0,4.87,0,.88,0,1.77,0,2.66s0,1.58,0,2.37c0,1.59,0,3.17,0,4.75,0,.86,0,1.71,0,2.57s0,1.64-.06,2.47c0,1.62,0,3.25,0,4.87s.06,3.36.08,5,0,3.25,0,4.87c0,3,0,6.09,0,9.13,0,1.53,0,3,0,4.57v2.46l0,2.46c0,1.64,0,3.28,0,4.92s0,3.29-.08,4.94l-.06,2.29c0,.81-.08,1.63-.12,2.44-.08,1.65-.21,6.64-.23,7.49s-.21,11.81-.26,13.43-.09,3.2-.14,4.8-.07,3.32-.11,5c0,1-.11,2-.18,3.05a.17.17,0,0,1,0-.07c-.11,1.61-.17,3.22-.27,4.82,0,.84-.11,1.67-.15,2.5s-.07,1.59-.1,2.38-.06,1.59-.08,2.38,0,1.59,0,2.38,0,1.48-.05,2.22,0,1.38,0,2.08v.85c0,.18,0,.35,0,.53v0l.08,0,.44.06c.51,0,1,0,1.52,0s.83,0,1.24,0l.33,0h0a.43.43,0,0,1,.25,0,.51.51,0,0,1,.32.19.49.49,0,0,1-.09.68,1.68,1.68,0,0,1-.8.18c-.45,0-.89,0-1.34,0l-.93,0C14.33,186.22,14.12,186.22,13.92,186.2Z"/><path class="cls-3" d="M15.7,39.1a1.73,1.73,0,0,1-1-.54,3.86,3.86,0,0,1-.49-.58,4.53,4.53,0,0,1-.41-.66,6.09,6.09,0,0,1-.27-.71c0-.15-.09-.3-.13-.45a1.67,1.67,0,0,1,0-.39.49.49,0,0,1,1,0,.76.76,0,0,0,0,.15h0c0,.22.12.44.19.65l.14.33.23.39c.11.14.21.28.33.41a2.39,2.39,0,0,0,.22.23l.1.08.08,0,.13,0H16a3,3,0,0,0,.51-.07l.1,0,.26-.12.08,0,.29-.24.21-.21a1.83,1.83,0,0,0,.13-.16,4.17,4.17,0,0,0,.26-.46c.1-.2.19-.41.27-.62s.18-.59.27-.89.15-.58.22-.88A25.92,25.92,0,0,0,19,31.49c.06-1,.12-2.07.14-3.11s0-2.09,0-3.14,0-2,0-3S19,20.28,19,19.31V18.6a.49.49,0,1,1,1,0c0,.93,0,1.87,0,2.8s.07,2,.07,3v3.06c0,.54,0,1.08,0,1.62s0,1.06-.07,1.59-.06,1-.11,1.57-.11,1-.19,1.46-.18,1-.32,1.55l-.21.76a6.28,6.28,0,0,1-.24.69,6.51,6.51,0,0,1-.33.71,3.16,3.16,0,0,1-.6.81,3.08,3.08,0,0,1-.27.24l-.18.14a2.23,2.23,0,0,1-.33.2,2.31,2.31,0,0,1-.72.22,4.48,4.48,0,0,1-.63.06Z"/><path class="cls-3" d="M18.43,53A.49.49,0,0,1,18,52.4c.06-.44.11-.89.17-1.33a8.35,8.35,0,0,1,.37-1.41,13,13,0,0,1,.55-1.39L19.7,47c.06-.13.13-.26.2-.39l0,0,.13-.27,0,0,0-.05v0l0-.09v0c.26-.52.52-1,.79-1.54l.82-1.55a22,22,0,0,0,1-2.34,19.46,19.46,0,0,0,.63-2.23,23.63,23.63,0,0,0,.29-2.5c.06-1,.09-2.07.12-3.1s.06-2,.06-3V24c0-.9,0-1.8,0-2.7,0-.43,0-.85,0-1.28s0-.71,0-1.07H23.6l-.88,0-1-.06c-.31,0-.6,0-.91,0s-.43,0-.64.07a3.92,3.92,0,0,1-.59,0,.64.64,0,0,1-.19.08.5.5,0,0,1-.49-.24.43.43,0,0,1-.07-.25.5.5,0,0,1,.08-.26h0a.68.68,0,0,1,.28-.25.77.77,0,0,1,.45,0h.2a8.29,8.29,0,0,1,1.41-.11l1.53.08c.37,0,.74,0,1.11,0a1,1,0,0,1,.51.1.71.71,0,0,1,.33.61,13.84,13.84,0,0,1,0,1.44c0,.51,0,1,0,1.53,0,1,0,2,0,3,0,2,0,4.08,0,6.12,0,1,0,2-.08,3s-.07,2.14-.16,3.2c0,.52-.1,1-.18,1.54A13.49,13.49,0,0,1,24,40c-.15.5-.32,1-.49,1.5s-.39,1-.61,1.45c-.3.65-.65,1.28-1,1.91s-.65,1.26-1,1.89v0h0l0,.08h0v0l-.08.17v0l0,.07c-.23.47-.44,1-.68,1.42a14.42,14.42,0,0,0-.6,1.46,9.44,9.44,0,0,0-.29,1c-.1.52-.15,1-.21,1.57a.5.5,0,0,1-.49.42Z"/><path class="cls-2" d="M17.29,185.32v-2q0-1,0-2c0-.8.11-1.61.16-2.41h0c.05-.69.09-1.38.11-2.07l.09-2.3c0-.76.05-1.51.08-2.27s.06-1.45.09-2.18c.06-1.53.06-3.07,0-4.61s0-3,0-4.48,0-2.9,0-4.34c0-.73,0-1.45.08-2.17s.07-1.44.09-2.16c0-1.54,0-3.09,0-4.64S18,132.35,18,130.9s0-2.82,0-4.24c0-.76,0-1.52,0-2.29s0-1.51,0-2.26c0-1.49,0-3-.05-4.45l0-2.22v-7c0-1.43,0-2.86,0-4.29,0-.71.05-1.42.08-2.13s0-1.5.06-2.25c0-1.39,0-2.78,0-4.17V91.23c0-.67,0-1.34,0-2s-.05-1.51-.08-2.26,0-1.38,0-2.07V82.74c0-1.42,0-2.84,0-4.27,0-.7,0-1.41,0-2.12s0-1.37,0-2.06,0-1.44-.05-2.16-.09-1.54-.1-2.31,0-1.44,0-2.16l-.06-2.15c0-1.42,0-2.84,0-4.26s0-2.85.08-4.27l.05-1c0-.37.05-.74.06-1.11s0-.64,0-1,0-.65.07-1c.07-.66.2-1.31.31-2a.13.13,0,0,1,0-.06.15.15,0,0,1,0-.07h0a.5.5,0,0,1,.54-.37.49.49,0,0,1,.42.48,1.64,1.64,0,0,1,0,.32c0,.26-.09.52-.13.78a14.45,14.45,0,0,0-.2,1.61c0,.32,0,.63,0,1s0,.73,0,1.09c0,.68-.08,1.36-.1,2.05,0,1.44-.05,2.88-.05,4.33v2.11c0,.72,0,1.44.05,2.16s0,1.44.05,2.16,0,1.48.05,2.22.08,1.52.1,2.29,0,1.42,0,2.13v2c0,.7,0,1.41,0,2.12,0,1.45,0,2.9,0,4.35s0,2.76.06,4.14.06,2.87.06,4.3v4.31c0,.7,0,1.41,0,2.11s0,1.47-.05,2.2c0,1.44-.12,2.89-.14,4.33s0,2.89,0,4.33v4.69c0,1.47,0,3,0,4.43l0,2.33c0,.7,0,1.39,0,2.09l0,2.36c0,.73,0,1.45,0,2.18,0,1.44,0,2.87,0,4.31,0,2.86.3,11.92.26,13.37s-.16-2.36-.14-.84,0,2.95,0,4.43,0,3-.06,4.54c0,.74-.08,1.48-.11,2.22s0,1.4-.05,2.1c0,1.48,0,2.95,0,4.43l0,2.09c0,.76,0,1.52,0,2.27s0,1.55,0,2.32-.05,1.51-.09,2.27-.06,1.52-.08,2.28-.06,1.51-.09,2.27,0,1.5-.08,2.26-.09,1.42-.14,2.14c0,.31-.05.62-.07.93-.08,1.48-.06,3-.06,4.44a.49.49,0,1,1-1,0Z"/><path class="cls-1" d="M70.73,35.14a.49.49,0,0,1,.08-.69l.1-.07.11-.11L71.2,34l.22-.38.07-.16c0-.09.05-.17.07-.26a1.23,1.23,0,0,0,0-.19,1.61,1.61,0,0,0,0-.22,5.35,5.35,0,0,0-.07-.56v0l0-.1h0v0h0c0-.15-.07-.31-.11-.46s-.07-.33-.12-.49a1.34,1.34,0,0,1-.07-.39.5.5,0,0,1,.5-.51.49.49,0,0,1,.48.48v.05c0,.16.09.32.12.49s.12.48.17.72v0q.06.34.09.69a3.37,3.37,0,0,1,0,.55,3.15,3.15,0,0,1-.17.62,3.48,3.48,0,0,1-.43.75,2.31,2.31,0,0,1-.53.55.49.49,0,0,1-.3.1A.46.46,0,0,1,70.73,35.14Z"/><path class="cls-2" d="M23.61,35.33a.48.48,0,0,1,.41-.55l.83-.06h0c1-.07,1.93-.19,2.9-.29l1.53-.14c.51,0,1-.11,1.52-.15L32.43,34l1.51,0c1,0,2.07-.06,3.11-.07H43.4c2.07,0,4.14-.05,6.2-.1,1,0,2.07,0,3.1,0s2.17,0,3.26.07c1.27,0,2.53.19,3.8.27h.05l.34,0h.05c1.06.07,2.11.12,3.16.17l1.53.09c.52,0,1,.05,1.57.05l2.35-.05H70l.87,0a.49.49,0,0,1,0,1l-1.24,0c-.51,0-1,0-1.53,0l-1.56,0c-.52,0-1,0-1.56,0-1.64-.1-3.28-.16-4.92-.27h-.05l-.3,0h0c-.81-.05-1.63-.13-2.44-.19h.07l-1.58-.09-1.6,0c-1,0-2.06,0-3.09,0s-2.08,0-3.12,0l-3.14.05c-2.09,0-4.18,0-6.27,0-1.06,0-2.11,0-3.17,0s-2.11,0-3.16.11h0c-.51,0-1,.07-1.52.12l-1.56.16c-1,.09-2,.2-3,.3-.57.06-1.14.1-1.71.14l-.25,0h0A.49.49,0,0,1,23.61,35.33Z"/><path class="cls-2" d="M3.13,36.33H1.66a3.08,3.08,0,0,1-.61,0,.68.68,0,0,1-.5-.53c-.05-.22-.08-.45-.11-.67s-.06-.44-.07-.66a6.65,6.65,0,0,1,0-1.34,1.23,1.23,0,0,1,.17-.54.92.92,0,0,1,.6-.36c.22,0,.44-.06.66-.08l.68,0c.79-.07,1.58-.13,2.38-.16s1.58-.07,2.36-.12h0l.23,0H7.45l1.25-.07H8.64l.35,0c.51,0,1-.08,1.53-.1l1.51,0,1.52-.05,1.49,0,1.78,0c.54,0,1.08,0,1.62,0l.07,0a.49.49,0,0,1,.55.42.5.5,0,0,1-.09.36.56.56,0,0,1-.32.19,5.25,5.25,0,0,1-.56,0h-.67l-1.47,0c-1,0-2,0-3,.05l-1.51,0c-.53,0-1.07,0-1.6.06h0L9,32.63H9l-1.49.09H7.37c-1.25.09-2.5.12-3.75.2L2.41,33a8.42,8.42,0,0,0-1,.09,3.93,3.93,0,0,0-.06.48h0v0c0,.26,0,.52,0,.77s0,.37.06.56l.06.4H4.21l1.58,0c.51,0,1,0,1.54,0l1.55-.06c.49,0,1,0,1.48,0,1,0,2,0,3.06-.05.66,0,1.32,0,2-.08s1-.08,1.52-.14l.75-.11.72-.07a.47.47,0,0,1,.31-.06.48.48,0,0,1,.41.55.53.53,0,0,1-.33.41,1,1,0,0,1-.42.07c-.48,0-1,.12-1.42.18s-1,.11-1.54.14-1,0-1.51.06l-1.57,0-3,0c-1,0-2.06.09-3.09.1H5.67Z"/><path class="cls-2" d="M25,32.05h-.28a.52.52,0,0,1-.4-.3.5.5,0,0,1,.26-.64l.15,0a.57.57,0,0,1,.18,0,.54.54,0,0,1,.22,0c.38,0,.75,0,1.13,0,.53,0,1.06,0,1.59,0l1.54,0L31,31l.49,0c.52,0,1-.1,1.56-.13s1.06,0,1.6-.06c1,0,2.09,0,3.14,0h3.11c1,0,2.09,0,3.14,0l3.1-.08c1,0,2,0,3,0h1.53c.51,0,1,0,1.52-.06s1,0,1.5,0,1.06,0,1.6,0c1,0,2,0,3,0s2,0,3-.06h4.48c.49,0,1,0,1.47,0,1,0,1.93,0,2.89-.05a.48.48,0,0,1,.49.48.49.49,0,0,1-.49.49c-.95.05-1.9.07-2.85.05l-1.47,0H62.32c-1,0-2,0-3,.05q-.75,0-1.5,0c-.5,0-1,0-1.51,0s-1.07,0-1.6,0-1,0-1.48,0-1,.06-1.53.07H50.19c-1,0-2.06,0-3.08,0l-1.54.05-1.56,0c-1,0-2.09,0-3.13,0H34.66c-.58,0-1.15,0-1.72.07s-1,.09-1.52.12-1.08,0-1.62,0l-1.51,0-1.54,0-1.15.05H25Z"/><path class="cls-2" d="M234.83,30.67c0-.47,0-.94,0-1.41s.06-1,.07-1.52c0-1,.11-2,.12-3s0-2,0-3c0-.49,0-1,0-1.47L235,18.8l-.06-1.42c0-.24,0-.49-.06-.73a3.54,3.54,0,0,0-.07-.47.69.69,0,0,0-.25-.35,1,1,0,0,0-.51-.14c-.25,0-.5,0-.74,0-.49,0-1,.05-1.47.09L230.4,16a1.33,1.33,0,0,0-.43.13.69.69,0,0,0-.33.43,1.33,1.33,0,0,0,0,.4c0,.13,0,.26,0,.4,0,1,.1,2,.17,3l0,.33v-.06c.13,2,.1,4.1.1,6.15,0,.54,0,1.08,0,1.62s0,1,0,1.54a.48.48,0,0,0,.48.49.5.5,0,0,0,.49-.49c0-.45,0-.91,0-1.36V27.07c0-1,0-2.05,0-3.07,0-.84,0-1.69,0-2.53s-.12-1.69-.18-2.54h0c0-.67-.09-1.35-.07-2l.36,0,.61-.07,1.11-.1.73,0h.52c0,.17,0,.35,0,.52a.13.13,0,0,1,0-.06c0,.46.05.92.07,1.39s0,1,.05,1.48c0,1,0,2,0,3s0,2-.05,3-.08,2-.14,3c0,.55,0,1.1,0,1.65h0v.09a.49.49,0,0,0,.49.48A.5.5,0,0,0,234.83,30.67Z"/><path class="cls-2" d="M229.91,183.94a3.47,3.47,0,0,0,.45-.06,1.59,1.59,0,0,0,.44-.12.88.88,0,0,0,.47-.65,4,4,0,0,0,0-.78c0-1.2,0-2.4-.05-3.61-.05-1.43,0-2.86-.06-4.29s-.1-2.93-.18-4.39-.19-3-.26-4.47c0-.75-.07-1.5-.12-2.26s-.1-1.49-.15-2.24v.06c-.09-1.64-.09-3.28-.13-4.93s-.23-8.84-.24-9.66c0-1.63,0-3.26-.05-4.89,0-.88-.05-1.76-.07-2.63s.18,8.53.18,6.88c0-.84,0-1.68,0-2.52s-.1-5.75-.15-7.41-.08-3.35-.14-5-.17-3.2-.21-4.8-.1-3.2-.11-4.8v-4.87c0-1.68,0-3.35,0-5s0-3.15,0-4.73q0-1.16,0-2.31c0-.81,0-1.61,0-2.42V97.73c0-1.58,0-3.16,0-4.75l0-2.65c0-.81,0-1.61.05-2.42s0-1.63,0-2.44,0-1.66,0-2.49,0-1.7,0-2.55,0-1.58-.06-2.37c0-1.66,0-3.31,0-5s0-3.24,0-4.86,0-3.37,0-5.06c0-.75,0-1.49,0-2.24s0-1.48,0-2.22,0-1.19-.09-1.78-.08-.92-.11-1.37,0-.83-.07-1.24c0-.23-.05-.45-.07-.68s0-.29,0-.44a7.6,7.6,0,0,1,.1-.8,4.09,4.09,0,0,0,.07-.6l0-.51V49.37c0-.36,0-.72,0-1.08a2.17,2.17,0,0,1,0-.25c0-.11.06-.22.09-.34l.15-.37c.1-.17.19-.34.29-.5a14,14,0,0,1,1-1.19l0,0c.31-.35.61-.71.89-1.08a11.55,11.55,0,0,0,.76-1.2c.25-.44.46-.9.67-1.36a8.77,8.77,0,0,0,.49-1.5c.21-.89.34-1.78.46-2.68.07-.47.16-.94.24-1.41s.16-1.09.26-1.63a.52.52,0,0,0,.25-.49s0,0,0-.05a.74.74,0,0,0,0-.14.4.4,0,0,0-.1-.15h0a.52.52,0,0,0-.4-.21.58.58,0,0,0-.31.11.76.76,0,0,0-.2.28,1.24,1.24,0,0,0-.09.33c0,.16-.07.33-.1.49-.06.38-.11.77-.16,1.15s-.12.61-.17.91-.1.62-.14.92c-.09.61-.18,1.22-.3,1.82,0,.23-.1.46-.15.69s-.14.49-.22.73c-.17.45-.37.88-.58,1.31a11.48,11.48,0,0,1-.72,1.22l0,0a11.72,11.72,0,0,1-.86,1.11l0,0c-.37.41-.73.83-1.07,1.27a4.84,4.84,0,0,0-.73,1.34,3.44,3.44,0,0,0-.19.9c0,.22,0,.44,0,.67v2.35c0,.19,0,.39,0,.59s-.08.48-.1.73,0,.46-.06.7a11.66,11.66,0,0,0,.08,1.31v-.07c0,.52.06,1.05.1,1.57s.08.92.12,1.39v-.07c0,.72,0,1.45,0,2.18s0,1.45,0,2.17c0,1.63-.05,3.25,0,4.87,0,.89,0,1.78,0,2.66s0,1.59,0,2.38v4.75c0,.85,0,1.71,0,2.57l.06,2.46c0,1.63,0,3.25,0,4.88s-.07,3.36-.09,5,0,3.24,0,4.86c0,3,0,6.09,0,9.14,0,1.52,0,3,0,4.56,0,.82,0,1.64,0,2.46s0,1.64,0,2.46c0,1.64,0,3.28,0,4.92s0,3.29.07,4.94c0,.76,0,1.53.07,2.29s.07,1.63.11,2.45c.09,1.65.12,3.3.16,5,0,.84.06,1.69.07,2.54s.11,11.37.16,13,.1,3.2.14,4.8.07,3.32.11,5c0,1,.11,2,.18,3a.15.15,0,0,0,0-.07c.11,1.61.17,3.22.27,4.82.05.83.11,1.67.15,2.5s.07,1.59.1,2.38.06,1.59.08,2.38,0,1.59,0,2.38,0,1.48.05,2.22,0,1.38,0,2.07v.86c0,.18,0,.35,0,.53v0l-.08,0-.44.06c-.51,0-1,0-1.52,0s-.83,0-1.24,0l-.33,0h0a.43.43,0,0,0-.25,0,.53.53,0,0,0-.32.19.49.49,0,0,0,.09.68,1.68,1.68,0,0,0,.8.18c.45,0,.89,0,1.34,0l.93,0C229.5,184,229.71,184,229.91,183.94Z"/><path class="cls-2" d="M228.24,37.27a1.68,1.68,0,0,0,1-.54,5.27,5.27,0,0,0,.49-.57,4.56,4.56,0,0,0,.4-.67,3.83,3.83,0,0,0,.27-.71,3.66,3.66,0,0,0,.13-.44,1.29,1.29,0,0,0,0-.39.49.49,0,1,0-1,0v.15h0c-.06.22-.13.43-.2.64a2.52,2.52,0,0,1-.14.33,3.64,3.64,0,0,1-.23.39c-.1.15-.21.28-.32.42l-.22.23-.11.08-.08,0-.12,0H228l-.52-.07-.1,0-.25-.11L227,36l-.29-.23-.22-.21-.13-.17c-.09-.15-.18-.3-.26-.46s-.18-.4-.26-.61-.18-.6-.27-.9-.16-.58-.22-.87a28.85,28.85,0,0,1-.4-2.92c-.06-1-.12-2.08-.13-3.12s0-2.09,0-3.13,0-2,0-3,0-1.94,0-2.91v-.72a.5.5,0,0,0-.49-.48.49.49,0,0,0-.49.48c0,.94,0,1.87,0,2.8s-.06,2-.06,3,0,2,0,3.07c0,.54,0,1.08,0,1.61s.05,1.06.08,1.59,0,1.05.1,1.58.12,1,.2,1.46a13.58,13.58,0,0,0,.32,1.54c.06.26.14.51.21.76s.14.47.23.7.21.47.33.7a3.08,3.08,0,0,0,.61.81,2.16,2.16,0,0,0,.27.25l.18.14a1.77,1.77,0,0,0,.33.19,2.53,2.53,0,0,0,.72.23c.2,0,.42.06.63.06Z"/><path class="cls-2" d="M225.51,51.13a.5.5,0,0,0,.41-.55c0-.45-.1-.89-.17-1.34a7.71,7.71,0,0,0-.37-1.41,9.68,9.68,0,0,0-.55-1.38l-.6-1.27-.19-.39,0,0a2.1,2.1,0,0,1-.13-.26v0l0-.05v0l0-.09h0L223.11,43c-.27-.52-.56-1-.83-1.54a20.21,20.21,0,0,1-1-2.35,21.08,21.08,0,0,1-.64-2.23,23.31,23.31,0,0,1-.28-2.5c-.07-1-.09-2.07-.13-3.1s0-2,0-3V22.15c0-.9,0-1.79,0-2.69,0-.43,0-.86,0-1.28s0-.72,0-1.07h.19c.3,0,.59,0,.88,0l1,0c.3,0,.6,0,.9,0l.65.07a2.92,2.92,0,0,0,.59,0,.54.54,0,0,0,.19.07A.5.5,0,0,0,225,17a.57.57,0,0,0,.06-.25.45.45,0,0,0-.08-.26h0v0a.53.53,0,0,0-.27-.24.86.86,0,0,0-.45,0h-.2a11.16,11.16,0,0,0-1.41-.11l-1.53.08q-.55,0-1.11,0a1,1,0,0,0-.51.09.72.72,0,0,0-.34.61c0,.48,0,1,0,1.45s0,1,0,1.53c0,1,0,2,0,3,0,2,0,4.08,0,6.12,0,1,0,2,.07,3s.07,2.14.16,3.21c.05.51.1,1,.19,1.53a10.86,10.86,0,0,0,.34,1.5c.15.51.31,1,.49,1.51a15.08,15.08,0,0,0,.6,1.44c.3.66.65,1.28,1,1.92s.65,1.25,1,1.88h0v0l0,.08h0v0l.09.16h0l0,.07c.24.47.45,1,.68,1.42a13,13,0,0,1,.6,1.45c.11.35.22.69.3,1,.1.52.15,1,.21,1.57a.49.49,0,0,0,.48.42Z"/><path class="cls-2" d="M226.54,183.06c0-.66,0-1.31,0-2s0-1.29,0-1.94c0-.8-.11-1.61-.16-2.42v0c0-.69-.09-1.38-.11-2.07l-.09-2.3c0-.76-.05-1.51-.08-2.27s-.06-1.45-.09-2.18c-.06-1.53-.06-3.07,0-4.61s0-3,0-4.48,0-2.9,0-4.34c0-.73,0-1.45-.08-2.17s0-12.69,0-13.48.11,1.73.11,1,0-1.44,0-2.16c0-1.42,0-2.85,0-4.28s0-2.9,0-4.35,0-2.83,0-4.24c0-.77,0-1.53,0-2.29s0-1.51,0-2.27c0-1.48,0-3,0-4.45,0-.74,0-1.48,0-2.22v-7c0-1.43,0-2.87,0-4.3,0-.71,0-1.42-.08-2.12s0-1.51-.06-2.26c0-1.38,0-2.77,0-4.16V89.41c0-.68,0-1.35,0-2s.05-1.51.08-2.27,0-1.37,0-2.06V80.92c0-1.42,0-2.85,0-4.27,0-.71,0-1.42,0-2.13v-2c0-.72,0-1.45.06-2.17s.09-1.54.1-2.31,0-1.44,0-2.16,0-1.43.07-2.14c0-1.42,0-2.85,0-4.27s0-2.85-.09-4.27l0-1c0-.38,0-.74-.07-1.11s0-.64,0-1,0-.65-.08-1c-.06-.66-.19-1.31-.3-2a.11.11,0,0,1,0,0,.2.2,0,0,1,0-.07h0a.49.49,0,0,0-1,.11c0,.11,0,.22,0,.33s.09.51.14.77c.09.53.15,1.07.19,1.61q0,.48,0,1c0,.36,0,.72.06,1.08,0,.69.07,1.37.09,2,0,1.44,0,2.89,0,4.33v2.11c0,.72,0,1.44,0,2.16s-.05,1.44-.06,2.16,0,1.48,0,2.22-.09,1.53-.11,2.29,0,1.42,0,2.13,0,1.37,0,2,0,1.41,0,2.12c0,1.45,0,2.9,0,4.35s0,2.77-.06,4.15-.06,2.86-.06,4.3,0,2.87,0,4.3c0,.71,0,1.41,0,2.12s0,1.46,0,2.19c0,1.45.12,2.89.13,4.34s0,2.89,0,4.33v4.68c0,1.48,0,3,0,4.43,0,.78,0,1.56,0,2.34s0,1.39,0,2.08l0,2.37c0,.72,0,1.45,0,2.17,0,1.44,0,2.88,0,4.32,0,2.86-.13,5.72-.05,8.58.05,1.45-.06,14,0,14.7s.05,1.4.05,2.1c0,1.48,0,2.95,0,4.43,0,.7,0,1.39,0,2.09s0,1.51,0,2.27,0,1.54,0,2.32,0,1.51.09,2.27.06,1.52.08,2.28.06,1.51.09,2.27.05,1.5.08,2.26.09,1.42.14,2.14c0,.31.05.62.07.93.08,1.48.06,3,.06,4.44a.49.49,0,1,0,1,0Z"/><path class="cls-1" d="M173.21,33.31a.49.49,0,0,0-.09-.68l-.09-.08-.12-.11a2,2,0,0,1-.17-.23c-.08-.12-.15-.24-.22-.37a1.11,1.11,0,0,1-.07-.16,2.68,2.68,0,0,1-.07-.27l0-.18V31a5,5,0,0,1,.08-.56v0l0-.09h0v0h0c0-.15.07-.3.1-.45s.07-.33.12-.5a1.29,1.29,0,0,0,.08-.38.51.51,0,0,0-.5-.52.49.49,0,0,0-.49.49.06.06,0,0,0,0,0c0,.17-.09.33-.13.49s-.11.48-.16.72h0a5.28,5.28,0,0,0-.09.68,2.61,2.61,0,0,0,0,.56,3.35,3.35,0,0,0,.17.62,3.62,3.62,0,0,0,.42.74,2.39,2.39,0,0,0,.54.56.47.47,0,0,0,.3.1A.49.49,0,0,0,173.21,33.31Z"/><path class="cls-2" d="M220.33,33.5a.5.5,0,0,0-.42-.55l-.83-.06h0c-1-.07-1.94-.19-2.9-.29l-1.54-.15c-.5-.05-1-.11-1.52-.15s-1.09-.09-1.63-.12-1,0-1.51-.06l-3.12-.07c-1.07,0-2.14,0-3.21,0h-3.14c-2.06,0-4.13,0-6.2-.09-1,0-2.06,0-3.09,0s-2.18,0-3.26.08c-1.27,0-2.54.18-3.81.27h0l-.34,0h-.05l-3.16.17-1.52.08c-.52,0-1,.05-1.57.05-.78,0-1.57,0-2.35-.05H173.9l-.87,0a.49.49,0,1,0,0,1l1.23,0c.51,0,1,0,1.54,0s1,0,1.55,0,1.05,0,1.57,0c1.64-.1,3.28-.16,4.92-.27h0l.29,0h0l2.45-.19h-.07c.53,0,1.05-.07,1.58-.09l1.6,0q1.54,0,3.09,0c1,0,2.08,0,3.12,0l3.14,0c2.09,0,4.18,0,6.27,0,1,0,2.11,0,3.17,0s2.11,0,3.16.1h0l1.53.13,1.56.15,3,.31c.57.06,1.14.1,1.71.14l.24,0h.05A.48.48,0,0,0,220.33,33.5Z"/><path class="cls-2" d="M240.25,34.5h1.47a2,2,0,0,0,.61-.05.65.65,0,0,0,.5-.52c0-.22.08-.45.11-.68s.06-.43.07-.66a6,6,0,0,0,0-1.34,1.27,1.27,0,0,0-.17-.54,1,1,0,0,0-.6-.36,4.93,4.93,0,0,0-.66-.07l-.68-.05c-.79-.06-1.58-.12-2.38-.16s-1.58-.07-2.36-.12h-.17l-1.26-.08h.06l-.35,0-1.53-.09-1.51,0-1.52-.05-1.49,0-1.78,0q-.81,0-1.62,0h-.07a.49.49,0,0,0-.55.42.48.48,0,0,0,.1.36.49.49,0,0,0,.32.18,2.54,2.54,0,0,0,.55,0l.68,0h1.46c1,0,2,0,3,.05l1.51.05c.53,0,1.07,0,1.6.06h0l.84.07h0l1.49.1H236c1.25.08,2.5.12,3.76.2l1.2.09c.34,0,.68,0,1,.09a3.93,3.93,0,0,1,.06.48h0v0a6.77,6.77,0,0,1,0,.78c0,.18,0,.37-.06.55l-.06.41h-2.75l-1.58,0-1.54,0c-.52,0-1,0-1.55-.06l-1.48,0c-1,0-2,0-3.06,0-.66,0-1.32,0-2-.08s-1-.08-1.52-.14l-.75-.11L225,33a.52.52,0,0,0-.3-.06.5.5,0,0,0-.42.55.55.55,0,0,0,.33.42A1.2,1.2,0,0,0,225,34c.48,0,.95.12,1.42.18s1,.1,1.54.13l1.51.07c.52,0,1.05,0,1.57,0l3,0c1,0,2.06.08,3.09.1h.54C238.56,34.53,239.41,34.51,240.25,34.5Z"/><path class="cls-2" d="M218.91,30.23l.27,0a.5.5,0,0,0,.4-.3.5.5,0,0,0-.26-.64l-.15,0-.17,0a.54.54,0,0,0-.22.05c-.38,0-.76,0-1.14,0s-1,0-1.58,0l-1.55,0H213l-.5,0L210.93,29c-.53,0-1.07-.05-1.6-.05-1.05,0-2.1,0-3.14,0h-3.11c-1.05,0-2.1,0-3.15,0l-3.09-.08c-1,0-2,0-3.05,0h-1.53c-.51,0-1,0-1.53-.07l-1.5,0c-.53,0-1.06,0-1.59,0-1,0-2,.05-3,0s-2,0-3-.05h-4.48l-1.47,0c-1,0-1.93,0-2.89-.06a.49.49,0,0,0-.49.49.5.5,0,0,0,.49.49c.94.05,1.89.06,2.84.05l1.48,0h4.48c1,0,2,0,3,0,.5,0,1,0,1.51,0l1.51,0c.53,0,1.06-.05,1.6,0l1.48,0c.5,0,1,.07,1.52.07h1.54c1,0,2.05,0,3.08,0l1.53.05,1.57,0c1,0,2.09,0,3.13,0h3.75c.82,0,1.65,0,2.47,0L211,30c.5,0,1,.1,1.51.13s1.08,0,1.63,0l1.51,0c.51,0,1,0,1.54,0l1.15,0h.57Z"/><path class="cls-1" d="M121.77,65.25c0-.51-.13-1-.23-1.54,0,0,0,0,0,.07-.09-.44-.23-.86-.36-1.29s-.22-.69-.32-1c-.21-.67-.44-1.33-.68-2h0l0-.09v0h0c-.15-.4-.3-.8-.46-1.19l-.41-1c-.15-.4-.29-.8-.43-1.21s-.22-.75-.32-1.13v0h0v0h0v0h0a8.17,8.17,0,0,1-.16-1c0-.33,0-.65,0-1s0-.66,0-1v.06c0-.12,0-.23,0-.34v-.1c0-.36,0-.71.07-1.06,0-.16,0-.32,0-.48a1,1,0,0,0-.12-.81.55.55,0,0,0-.39-.21.56.56,0,0,0-.43.13.52.52,0,0,0-.2.32h0a1,1,0,0,0,0,.17,1.09,1.09,0,0,0-.08.15c-.05.12-.1.24-.14.35s-.14.35-.2.53c-.23.33-.45.67-.65,1a5.19,5.19,0,0,0-.3.68c-.09.22-.17.44-.24.67a10,10,0,0,0-.35,1.53c-.07.48-.14,1-.2,1.45s-.1,1.08-.12,1.62v-.1c0,.1,0,.2,0,.3h0a1.93,1.93,0,0,0,0,.24v.5h0v0a7,7,0,0,0,.06,1,10,10,0,0,0,.18,1.07c0,.19.07.38.11.57s.07.31.1.47c.09.4.18.81.23,1.22s.06,1,.1,1.47l.06,1c-.34,0-.67,0-1,0l-1.74-.12c-.59,0-1.19-.09-1.78-.15l-3.4-.36c-.56-.06-1.13-.11-1.69-.18s-1.19-.17-1.78-.27c-1.13-.19-2.26-.41-3.39-.56s-2.33-.23-3.48-.4-2.41-.37-3.6-.59l-.87-.18-.81-.18c-.57-.14-1.14-.27-1.7-.43l-1.77-.49c-.53-.14-1-.32-1.56-.51-1.08-.41-2.16-.83-3.24-1.27l-1.71-.68c-.55-.22-1.09-.47-1.63-.72a33.23,33.23,0,0,1-3-1.56c-.46-.27-.92-.55-1.36-.85s-.86-.62-1.28-1-.86-.66-1.27-1S73,53,72.56,52.59s-.8-.76-1.19-1.17-.69-.75-1-1.14a28,28,0,0,1-1.89-2.45A16.63,16.63,0,0,1,66.9,45c-.24-.54-.46-1.09-.66-1.64a16.19,16.19,0,0,1-.49-1.64c-.14-.54-.25-1.09-.35-1.65a13.42,13.42,0,0,1-.18-1.78c0-.55,0-1.09,0-1.64s0-1.12.1-1.68.14-1.08.24-1.62.21-1.13.31-1.69l.33-1.83a15.81,15.81,0,0,1,.41-1.81c.18-.58.39-1.15.62-1.7s.5-1.13.78-1.68l0,.06a25.26,25.26,0,0,1,1.61-2.93c.33-.48.67-1,1-1.42s.73-.86,1.11-1.27.72-.78,1.11-1.15.81-.78,1.24-1.14c.9-.75,1.84-1.43,2.76-2.14.68-.53,1.36-1,2-1.56s1.44-1.05,2.2-1.51,1.54-.88,2.34-1.28l2.38-1.18,1.54-.8L89,7.54l1.58-.76c.5-.24,1-.47,1.53-.68,1.1-.44,2.24-.79,3.37-1.16s2.28-.68,3.42-1,2.22-.67,3.34-1c.6-.15,1.21-.31,1.83-.45s1.22-.26,1.83-.38c2.29-.44,4.6-.82,6.9-1.24l.86-.17a28.81,28.81,0,0,1,3.91-.68h.1l.42,0h1.34l1.84.05c1.18,0,2.36.1,3.53.16L126.6.3l.55,0H128c.83.06,1.65.14,2.47.22s1.88.18,2.81.29c1.72.2,3.41.54,5.1.9h-.06c1.17.23,2.34.43,3.52.64l1.72.32q.79.13,1.59.3c.57.12,1.15.25,1.71.42l1.6.47c.56.18,1.12.36,1.66.57l1.64.65,1.64.66c.53.22,1.07.43,1.6.66a15.76,15.76,0,0,1,1.58.82c.52.32,1,.65,1.58,1,1,.61,2,1.28,3,1.93.47.3.93.62,1.39.94s1,.65,1.41,1c.61.44,1.2.91,1.79,1.39s1.12.94,1.67,1.42,1.09,1,1.63,1.53,1,1,1.5,1.41a1.37,1.37,0,0,1,.22.19l.1.09c.18.16.36.32.52.49.36.37.69.77,1,1.17h0l.68.78c.22.24.42.5.62.76.46.59.91,1.2,1.33,1.81.21.3.42.6.6.92s.32.62.46.94c.28.62.56,1.23.85,1.84a12.08,12.08,0,0,1,.57,1.07c.07.17.14.35.2.52a1.09,1.09,0,0,1,.06.36l0,0h0s0,0,0,.06,0,0,0,0l.12.33a2.33,2.33,0,0,1,.07.25c-.42-.06-.85-.1-1.28-.12a11.31,11.31,0,0,0-1.54,0c-.36,0-.72.05-1.08,0h0a3.62,3.62,0,0,1-.47,0l-.22,0-.29,0h-.13a.75.75,0,0,0-.62.27,1,1,0,0,0-.17.3,1,1,0,0,0,0,.1,3.38,3.38,0,0,0-.2.56,3.1,3.1,0,0,0-.1.68,2.54,2.54,0,0,0,0,.39c0,.13,0,.26.07.39a1.19,1.19,0,0,0,.27.63.89.89,0,0,0,.41.28,1.47,1.47,0,0,0,.34.07c.21,0,.43,0,.63,0l.72,0,1,0c.73,0,1.47,0,2.21,0h.73s0,.09,0,.14c0,.23,0,.45-.06.67s0,.46-.08.69a11.78,11.78,0,0,1-.25,1.18c-.1.42-.23.83-.36,1.24s-.29.93-.43,1.4-.25.87-.4,1.3c-.07.21-.15.43-.23.64l-.22.57,0-.06a11.9,11.9,0,0,1-.47,1.11c-.23.49-.46,1-.73,1.45a12.17,12.17,0,0,1-.86,1.3c-.33.46-.66.9-1,1.36s-.66.9-1,1.33-.77.88-1.18,1.3-.74.74-1.11,1.11-.75.7-1.12,1l-1.22,1.14c-.41.38-.81.77-1.24,1.12a10.69,10.69,0,0,1-1.42,1c-.49.29-1,.54-1.52.81-1,.55-2,1.18-3,1.76a24.46,24.46,0,0,1-2.94,1.36c-.37.15-.74.3-1.11.43L155,59h0c-1,.37-2,.79-3.07,1.16-.5.19-1,.34-1.51.49l-1.55.47c-1.1.31-2.21.58-3.31.88-.56.15-1.11.31-1.66.48s-1.13.31-1.71.45l-1.61.38c-.56.14-1.12.28-1.68.4s-1.14.24-1.71.32l-.95.13a9.93,9.93,0,0,0-1-1.95l0,0c-.24-.36-.5-.69-.73-1.06s-.4-.64-.6-1-.39-.65-.58-1-.44-.65-.66-1-.45-.82-.66-1.23-.38-.81-.55-1.23c-.09-.23-.16-.48-.23-.73s-.15-.51-.21-.78a11.44,11.44,0,0,1-.17-1.31,1.41,1.41,0,0,1,0-.2l.06-.55c.06-.47.15-.93.23-1.39h0a1.55,1.55,0,0,1,0-.21v0a.93.93,0,0,1,0-.13.21.21,0,0,0-.33-.21,1.15,1.15,0,0,0-.32.34,5.62,5.62,0,0,0-.25.56c-.08.2-.17.4-.26.61s-.13.35-.2.53-.14.38-.2.57-.11.41-.17.61a4.39,4.39,0,0,0-.15.6c0,.2-.09.4-.13.6h0v0h0a17,17,0,0,0-.24,2,16.36,16.36,0,0,0,0,2.1c0,.4.05.79.08,1.18s0,.57.06.85,0,.65,0,1,0,.48,0,.73-.07.53-.12.8-.11.61-.17.91a.13.13,0,0,0,0-.06l0,.22,0-.1c-.05.23-.1.47-.16.69l-.13,0c-.55,0-1.1.08-1.66.11s-1.11.08-1.66.09-1.31,0-2,0Zm-7.93-1.11-.63,0,.58,0h0ZM103.26,37.47c.74,0,1.48-.1,2.22-.19s1.41-.2,2.11-.33,1.46-.27,2.2-.39,1.43-.22,2.15-.33c1-.15,2-.31,3-.5l.41-.09c1.43-.31,2.83-.69,4.25-1l2.11-.45,2.17-.46,1.33-.27h.06c.72-.15,1.43-.32,2.14-.5s1.38-.37,2.08-.55,1.39-.32,2.1-.44,1.42-.18,2.14-.27l1.63-.23,1.61-.25c1.07-.17,2.15-.3,3.23-.38h0c.92-.06,1.84-.11,2.77-.12a11.08,11.08,0,0,1,1.41.05,12.25,12.25,0,0,1,1.35.22h-.06l.21.05-.06,0c.69.14,1.37.3,2,.46a20.27,20.27,0,0,1,2,.55,15,15,0,0,1,2.05.79,4.81,4.81,0,0,1,.87.53,4.16,4.16,0,0,1,.76.69,5.13,5.13,0,0,1,.54.69,4.78,4.78,0,0,1,.38.79c.2.51.36,1,.6,1.52l0,0a.83.83,0,0,1,.07.13l.17-.29c.08-.18.16-.36.23-.55l.12-.45c.06-.35.1-.69.13-1s0-.84,0-1.26c0-.21,0-.42-.08-.63s-.11-.44-.18-.66-.2-.54-.32-.8a6.38,6.38,0,0,0-.43-.71,4.46,4.46,0,0,0-.33-.43,6,6,0,0,0-.51-.5c-.38-.33-.78-.64-1.18-.94s-.81-.61-1.23-.9l.05,0a13.63,13.63,0,0,0-1.32-.8c-.44-.21-.88-.41-1.33-.6s-1-.38-1.45-.56h0c-.48-.16-.95-.32-1.44-.46s-.94-.24-1.41-.34-.91-.15-1.37-.2-.92-.1-1.39-.13h.07c-.58,0-1.17-.05-1.75-.06s-1.17,0-1.75,0c-.39,0-.78.07-1.17.13l-1.32.2c-.86.13-1.72.26-2.58.42-.68.15-1.36.33-2,.53l-2.07.64-2.17.67c-.67.22-1.36.4-2,.59l-2.24.63-2.1.56-4.2,1.16c-.72.2-1.44.38-2.16.56s-1.36.35-2,.51l-2,.47c-.71.16-1.43.31-2.15.41a21.33,21.33,0,0,1-2.13.22c-.72,0-1.45,0-2.18.06s-1.42.05-2.12.05H99.47a9.79,9.79,0,0,1-1.07-.14l-1.06-.21c-.67-.14-1.34-.32-2-.5s-1.31-.36-2-.6a15.57,15.57,0,0,1-1.91-1,5.89,5.89,0,0,1-.83-.58,4.86,4.86,0,0,1-.7-.73,6.75,6.75,0,0,1-.55-.9A7,7,0,0,1,89,27a8.36,8.36,0,0,1-.23-1c-.07-.34-.13-.67-.17-1s-.07-.51-.1-.77c-.08.26-.15.53-.21.8A19.94,19.94,0,0,0,88,27.28v-.06c0,.61-.06,1.22,0,1.83,0,.33.08.65.14,1a12.81,12.81,0,0,0,.45,1.61,7.47,7.47,0,0,0,.39.92,4,4,0,0,0,.26.45l.11.15c.26.28.53.53.8.78s.67.55,1,.8l1.12.81.68.41a1.83,1.83,0,0,1,.24.13l.21.1c.29.14.59.27.89.39a14.22,14.22,0,0,0,1.42.39c.62.11,1.24.2,1.86.29s1.31.14,2,.18h-.07A37.27,37.27,0,0,0,103.26,37.47Z"/><path class="cls-4" d="M66.56,202.18c-.24,0-.48-.05-.72-.1l-.43-.09c-.14,0-.27-.09-.4-.13a3.48,3.48,0,0,1-.69-.36,3.2,3.2,0,0,1-.61-.49,4,4,0,0,1-.82-1.31,13.87,13.87,0,0,1-.43-1.43,6.09,6.09,0,0,1-.17-1.47c0-.49,0-1,0-1.46,0-.19,0-.38,0-.57v.06c0-.31,0-.62.1-.94s.14-.71.23-1.06c.15-.64.29-1.29.5-1.92v0l0-.05h0l0-.07h0a14.27,14.27,0,0,1,.68-1.55v0l0-.09,0-.09c.14-.27.3-.53.45-.79a4.7,4.7,0,0,1,.6-.79,2,2,0,0,1,.78-.58l.27-.1h.08a.43.43,0,0,1,.31-.12.49.49,0,0,1,.49.48.55.55,0,0,1-.21.44.93.93,0,0,1-.39.15l-.11,0h0l-.19.06h0l-.17.14-.24.23c-.1.13-.21.26-.3.4s-.35.56-.51.85a.61.61,0,0,1,0,.12l0,0,0,.09,0,0,0,0h0v0l0,0a13.69,13.69,0,0,0-.65,1.47h0l0,.08c-.12.37-.22.74-.31,1.12s-.21.83-.3,1.25a.13.13,0,0,0,0-.06,11.31,11.31,0,0,0-.19,1.3h0v.11s0,0,0-.07c0,.4,0,.8,0,1.2s0,.78,0,1.17c0,.21.06.42.1.63a12.34,12.34,0,0,0,.42,1.47l.15.36.18.3.2.27.19.18.23.18a4.25,4.25,0,0,0,.46.27l.3.12a3.58,3.58,0,0,0,.35.09,10,10,0,0,0,1.1.15h.26a.78.78,0,0,0,.22,0l.14,0a1.45,1.45,0,0,0,.22-.09,2.61,2.61,0,0,0,.28-.17c.1-.06.19-.14.29-.21l.27-.28a9.38,9.38,0,0,0,.61-.8,10,10,0,0,0,.52-.9c.19-.4.36-.8.52-1.21s.29-.77.43-1.16c0-.13.09-.26.12-.4a2.62,2.62,0,0,0,.09-.38l.15-.8a7.37,7.37,0,0,0,.13-.82c0-.09,0-.18,0-.27,0-.32,0-.65,0-1s-.09-.83-.16-1.24c0-.17-.09-.34-.14-.52s-.27-.63-.42-.95l-.33-.54,0-.07-.12-.11-.11-.09,0,0a.31.31,0,0,0-.13-.06l-.11,0h-.26l-.24,0-.2.06-.22.09-.4.25-.15.11-.23.23c-.11.13-.21.27-.31.41s-.18.27-.26.41-.15.28-.22.42-.19.39-.27.59-.13.37-.2.55c-.11.35-.2.71-.28,1.07s-.09.43-.12.64-.06.47-.08.71a15.88,15.88,0,0,0,0,2.18c0,.17,0,.33.06.49s.08.32.13.47l.06.15a1.42,1.42,0,0,0,.11.18l.06.09,0,0h0l0,0,.12.05h.14l0,0,.06,0,.14-.11.1-.1.23-.3.14-.27a.89.89,0,0,0,.08-.17h0c0-.07,0-.14.07-.2h0c.09-.31.18-.62.25-.94a16.6,16.6,0,0,0,.26-1.72,15.7,15.7,0,0,0,0-1.94v0c0-.14,0-.28,0-.41l0-.11a1,1,0,0,0-.07-.15v0a.49.49,0,0,1,.2-.95.76.76,0,0,1,.41.18,1.07,1.07,0,0,1,.27.36,3,3,0,0,1,.15.38,2.32,2.32,0,0,1,.08.58,12.36,12.36,0,0,1,0,1.61,13.74,13.74,0,0,1-.47,3c0,.11-.07.22-.11.33v0a2.46,2.46,0,0,1-.14.38,2.69,2.69,0,0,1-.19.38,2.79,2.79,0,0,1-.92,1,1.32,1.32,0,0,1-.38.13,1.13,1.13,0,0,1-.41,0,1.42,1.42,0,0,1-.7-.33,2.27,2.27,0,0,1-.59-1.07,5.76,5.76,0,0,1-.2-1.54c0-.53,0-1.05,0-1.58,0-.27,0-.55.07-.82s.09-.5.14-.75a11.4,11.4,0,0,1,.42-1.52,7.77,7.77,0,0,1,.61-1.35,4.56,4.56,0,0,1,1.44-1.7,5.15,5.15,0,0,1,.61-.33,2.84,2.84,0,0,1,.91-.19,1.85,1.85,0,0,1,1.57.8,7.65,7.65,0,0,1,.77,1.44,6.22,6.22,0,0,1,.39,1.54c0,.25.06.51.08.76a6.91,6.91,0,0,1,0,.79c0,.13,0,.25,0,.37v0a6.31,6.31,0,0,1-.09.76l-.15.82c0,.25-.09.49-.15.74a5.7,5.7,0,0,1-.25.8c-.17.47-.34.94-.53,1.39a12.9,12.9,0,0,1-.7,1.45c-.13.23-.29.45-.44.67a6.34,6.34,0,0,1-.61.76,3.86,3.86,0,0,1-.77.63,2.47,2.47,0,0,1-.9.38,2.81,2.81,0,0,1-.49.05A4.91,4.91,0,0,1,66.56,202.18Z"/><path class="cls-4" d="M86.77,215.1c-.52,0-1,0-1.54-.1a6.5,6.5,0,0,1-.77-.12c-.25-.07-.48-.15-.72-.24a10.53,10.53,0,0,1-1.39-.59,6,6,0,0,1-.66-.46,4.81,4.81,0,0,1-.58-.51,6.31,6.31,0,0,1-.55-.61,7.68,7.68,0,0,1-.47-.65,8,8,0,0,1-.69-1.41,6.49,6.49,0,0,1-.23-.75c-.06-.25-.1-.51-.14-.77a11.72,11.72,0,0,1-.13-1.56c0-.51,0-1,.06-1.52a8.79,8.79,0,0,1,.29-1.53,6.39,6.39,0,0,1,.58-1.44,5.57,5.57,0,0,1,.9-1.26c.18-.19.37-.36.57-.54a5.66,5.66,0,0,1,.6-.47,6.55,6.55,0,0,1,1.4-.7c.22-.09.43-.19.65-.27a5.7,5.7,0,0,1,.8-.25c.25-.06.52-.09.78-.13a5.16,5.16,0,0,1,.79,0,11.39,11.39,0,0,1,1.54.11,12.6,12.6,0,0,1,1.47.36,3.81,3.81,0,0,1,1,.45,1.46,1.46,0,0,1,.28.21h0a.49.49,0,0,1-.08,1h-.07a.74.74,0,0,1-.38-.12A.93.93,0,0,1,90,201l-.07,0-.37-.22-.23-.1-.69-.19-.6-.16c-.36-.06-.73-.1-1.1-.13a8.49,8.49,0,0,0-1,0c-.3,0-.6.08-.9.13l-.45.12c-.58.22-1.15.46-1.71.73a4,4,0,0,0-.44.27l-.42.33c-.23.21-.45.42-.66.65s-.28.36-.41.54a5.24,5.24,0,0,0-.32.57c-.06.12-.12.24-.17.37l-.15.41c-.09.3-.16.59-.22.89s-.1.65-.13,1a13,13,0,0,0,0,1.65,12.38,12.38,0,0,0,.19,1.49c.06.26.14.51.22.76s.17.42.27.63.24.45.37.67.37.5.57.74.3.32.45.46.45.37.69.54l.37.22c.44.2.89.36,1.33.52l.35.11c.34.06.69.11,1,.14.72,0,1.45.06,2.17,0a1.07,1.07,0,0,0,.25,0l.26-.07a3.57,3.57,0,0,0,.45-.19l.35-.21c.18-.13.35-.26.51-.4a4.27,4.27,0,0,0,.36-.38,7.42,7.42,0,0,0,.49-.62,6.5,6.5,0,0,0,.37-.63c.09-.19.17-.37.25-.57l.2-.54a6.29,6.29,0,0,0,.2-.71c.07-.41.11-.82.14-1.24s0-.53,0-.79,0-.45-.08-.68-.06-.22-.1-.33a9.37,9.37,0,0,0-.38-.86c0-.09-.1-.18-.16-.27l-.16-.21c-.2-.22-.42-.43-.64-.63l-.38-.3c-.23-.14-.46-.28-.7-.4l-.47-.21a6.77,6.77,0,0,0-.74-.2l-.45-.06h-.41l-.33.05h.06q-.36.07-.72.18a6.57,6.57,0,0,0-.61.26l-.3.16-.26.2-.32.31-.28.36c-.14.2-.26.4-.38.61s-.29.63-.41.95-.12.43-.17.65-.07.47-.09.7v.38c0,.23,0,.45.09.67s.07.25.11.37a3.92,3.92,0,0,0,.16.36c.07.12.14.24.22.36l.3.38.2.19a1.66,1.66,0,0,0,.21.16l.19.11.24.1.45.12h.26l.24,0,.25-.07.24-.09a4.85,4.85,0,0,0,.49-.29l.3-.23a2.5,2.5,0,0,0,.23-.23,3.92,3.92,0,0,0,.25-.32l.09-.17a2.55,2.55,0,0,0,.13-.29c0-.06,0-.13,0-.2s0-.21,0-.31v-.41c0-.2,0-.4-.09-.61a.23.23,0,0,0,0-.11,5.55,5.55,0,0,0-.2-.52,1,1,0,0,1-.08-.14l0,0-.08-.09-.18-.14-.27-.16-.08,0-.06,0-.1,0a.48.48,0,1,1,.13-1,2,2,0,0,1,1,.41,2.13,2.13,0,0,1,.54.54,3.41,3.41,0,0,1,.29.61,3.62,3.62,0,0,1,.13.35c0,.11,0,.24.07.36a6.88,6.88,0,0,1,.07.77,3.16,3.16,0,0,1-1.15,2.48,4.87,4.87,0,0,1-.76.52,3.05,3.05,0,0,1-1.35.42,2.75,2.75,0,0,1-.75-.09,3.89,3.89,0,0,1-.74-.28,3.07,3.07,0,0,1-1-.9,4.11,4.11,0,0,1-.74-1.44,4.41,4.41,0,0,1-.16-1.58,6.06,6.06,0,0,1,.31-1.58,8.16,8.16,0,0,1,.64-1.37,4.64,4.64,0,0,1,.44-.65,7.67,7.67,0,0,1,.56-.58,3.61,3.61,0,0,1,.91-.58,4.26,4.26,0,0,1,.7-.28,5.16,5.16,0,0,1,1.17-.23,4.15,4.15,0,0,1,.93,0,4.42,4.42,0,0,1,.5.1,5.36,5.36,0,0,1,.77.26,6.76,6.76,0,0,1,.71.36,7.65,7.65,0,0,1,.67.43,5.78,5.78,0,0,1,.59.52,4.34,4.34,0,0,1,.66.76,8.28,8.28,0,0,1,.49,1,3.33,3.33,0,0,1,.26.81,5.43,5.43,0,0,1,.09.69,6.43,6.43,0,0,1,0,.76,11.93,11.93,0,0,1-.16,1.57,4.18,4.18,0,0,1-.21.77c-.08.24-.16.47-.25.71a6.56,6.56,0,0,1-1.8,2.61,5.3,5.3,0,0,1-1.35.85,3.28,3.28,0,0,1-.8.22c-.21,0-.42,0-.63,0h-.74Z"/><path class="cls-4" d="M118,219.84a10.83,10.83,0,0,1-1.61-.15q-.39-.06-.78-.15a4,4,0,0,1-1.22-.53c-.44-.25-.9-.49-1.33-.76s-.87-.55-1.29-.84a7.52,7.52,0,0,1-.62-.5,5.68,5.68,0,0,1-.57-.53,8.14,8.14,0,0,1-.54-.63,6.85,6.85,0,0,1-.45-.61,7.39,7.39,0,0,1-.42-.66,5.46,5.46,0,0,1-.34-.74,12.37,12.37,0,0,1-.52-1.44c-.07-.25-.13-.51-.18-.76s-.11-.5-.14-.75c-.08-.53-.12-1.07-.16-1.6s0-1.06,0-1.59a10.59,10.59,0,0,1,.15-1.49,12.15,12.15,0,0,1,.34-1.59,10.69,10.69,0,0,1,.58-1.45,14.54,14.54,0,0,1,.68-1.37A6.71,6.71,0,0,1,110,201l.48-.63a9,9,0,0,1,1.16-1.23l0,0c.38-.34.77-.67,1.19-1s.85-.63,1.28-.93a14.12,14.12,0,0,1,1.34-.82,8.41,8.41,0,0,1,1.43-.66l.72-.26c.49-.17,1-.37,1.46-.53l.73-.22a5,5,0,0,1,1.28-.24l1.6-.06a12.08,12.08,0,0,1,1.59.06c.52,0,1,.09,1.54.16a13.7,13.7,0,0,1,1.54.35c.25.05.49.11.74.18s.25.09.37.13a3.68,3.68,0,0,1,.35.15l.75.37a4,4,0,0,1,.65.42,3.67,3.67,0,0,1,.47.4,1.89,1.89,0,0,1,.34.46.65.65,0,0,1,0,.13v0a.49.49,0,0,1-.26.63.48.48,0,0,1-.62-.23,1.22,1.22,0,0,1-.07-.17h0l0-.06a3.38,3.38,0,0,0-.27-.26l-.31-.24a6,6,0,0,0-.61-.34l-.51-.25a5.25,5.25,0,0,0-.55-.22l-.93-.23-.85-.2c-.73-.13-1.47-.2-2.22-.26-.45,0-.89,0-1.35,0l-1.37.05a3.47,3.47,0,0,0-.45.06,14.28,14.28,0,0,0-1.42.4l-.79.3-.83.29h0a11.31,11.31,0,0,0-1.14.46c-.31.16-.61.32-.92.5s-.55.34-.83.52l0,0-1.23.9c-.39.29-.77.6-1.14.92a1.07,1.07,0,0,1-.16.14.1.1,0,0,0,0,0l-.39.38c-.1.1-.2.22-.3.33-.34.42-.68.85-1,1.3s-.34.6-.5.92l0-.06c-.29.61-.56,1.23-.8,1.87-.06.22-.13.44-.18.67,0,0,0,0,0-.07a16.24,16.24,0,0,0-.3,2.06c0,.6,0,1.2,0,1.79,0,.33,0,.67.09,1a9,9,0,0,0,.15,1,12.19,12.19,0,0,0,.38,1.47c.18.47.37.94.59,1.39l.23.38c.27.39.56.77.86,1.14.21.22.43.43.65.63s.42.35.64.51h0c.45.29.9.59,1.36.87.22.14.46.27.69.39l.84.48.28.12c.2.06.4.1.61.15l.56.1.64.07,1,0h.89l.22,0c.51-.05,1-.11,1.53-.2l1.48-.37c.54-.14,1.08-.3,1.62-.46l.54-.2.5-.23.55-.31.54-.34c.34-.24.67-.48,1-.74l0,0,0,0,.26-.23c.24-.21.46-.44.69-.67l.75-.76c.28-.34.56-.69.81-1.05s.27-.43.39-.66.25-.48.37-.72.24-.51.35-.77.19-.52.3-.78c.22-.56.49-1.11.7-1.68s.28-.86.38-1.31.08-.68.1-1a7.44,7.44,0,0,0,0-.81v0l-.06-.18c-.08-.24-.17-.47-.25-.7h0v-.06h0l-.08-.23c-.06-.15-.11-.3-.18-.44s-.3-.5-.45-.74l-.33-.52c-.1-.15-.21-.29-.32-.43s-.33-.33-.5-.49-.37-.36-.57-.53-.26-.21-.39-.31a11.81,11.81,0,0,0-1.1-.61l0,0a4,4,0,0,0-.53-.23,13.77,13.77,0,0,0-1.76-.45l-.51-.07c-.28,0-.56,0-.84,0l-.92,0-.46,0-.47.08-.91.21c-.28.07-.57.16-.85.25l-.83.32c-.28.11-.55.25-.81.38h0l-.63.34c-.21.12-.41.25-.61.38s-.42.3-.62.47l0,0,0,0h0l-.25.22h0c-.5.47-1,1-1.42,1.49-.21.25-.4.51-.59.77l-.18.3a3.9,3.9,0,0,0-.19.35h0l0,0,0,0h0v0l0,0h0l-.09.18-.07.13,0,0,0,.1,0,0a13.54,13.54,0,0,0-.58,1.36,13,13,0,0,0-.34,1.37c-.05.28-.08.57-.11.86s0,.43,0,.65a.78.78,0,0,0,0,.22,2.81,2.81,0,0,0,.08.31,2.44,2.44,0,0,0,.1.24c.09.16.19.31.29.46a3.55,3.55,0,0,0,.23.31c.17.18.34.35.52.51h0l.16.14h0l0,0h0a9.55,9.55,0,0,0,.94.74c.47.3,1,.58,1.45.85s.76.36,1.15.5l.4.11a6,6,0,0,0,.61.08,6.77,6.77,0,0,0,.78,0l.41,0,.45-.08h0l.13,0h-.07l.11,0h0l.2,0h-.06l.13,0h0l.61-.15.63-.2.44-.18.4-.2.41-.23.36-.23.37-.27a4,4,0,0,0,.38-.32,18.37,18.37,0,0,0,1.36-1.29l.23-.3c.15-.24.28-.49.42-.75s.17-.4.26-.61.07-.23.1-.35l.12-.46c.07-.27.12-.55.18-.82l.06-.4c0-.13,0-.26,0-.39a5.77,5.77,0,0,0,0-.72,4.1,4.1,0,0,0-.06-.49,1,1,0,0,0-.06-.23,3.45,3.45,0,0,0-.14-.34,5.6,5.6,0,0,0-.38-.61l-.2-.27-.21-.22-.21-.16-.27-.15a5.93,5.93,0,0,0-.63-.26,4.13,4.13,0,0,0-.5-.15,3.7,3.7,0,0,0-.57-.07c-.65,0-1.29-.06-1.94,0-.2,0-.39,0-.59.08l-.56.14c-.22,0-.44.12-.66.19l-.21.09-.39.23a5.2,5.2,0,0,0-.44.35,2.57,2.57,0,0,0-.33.33c-.17.2-.33.42-.48.63l-.18.31c-.09.2-.17.4-.25.6a4.44,4.44,0,0,0-.15.52c0,.1,0,.19,0,.28v.1a1.37,1.37,0,0,0,0,.19c0,.09,0,.18.08.26a1.86,1.86,0,0,0,.1.25c0,.09.1.18.16.27l.26.33.22.22.21.16.27.16.26.11.07,0h0a6,6,0,0,0,.73.19l.5.07h.35l.27,0,.14,0,.2-.08a5.69,5.69,0,0,0,.74-.46l0,0,.44-.3a.49.49,0,0,1,.68.09.48.48,0,0,1-.09.68l-.45.31a5,5,0,0,1-1.2.66,3.62,3.62,0,0,1-1.67,0,5.23,5.23,0,0,1-1-.28h0a3,3,0,0,1-.68-.33,3.16,3.16,0,0,1-.53-.42c-.11-.11-.21-.23-.31-.34a3.18,3.18,0,0,1-.72-1.67,3.11,3.11,0,0,1,.2-1.24c.09-.26.2-.51.31-.75a3.72,3.72,0,0,1,.38-.64c.13-.18.27-.35.41-.52a4.68,4.68,0,0,1,1.62-1.24,3.48,3.48,0,0,1,.62-.21l.37-.1a6.25,6.25,0,0,1,1.35-.23c.27,0,.54,0,.81,0l.87,0,.75.06a4,4,0,0,1,.76.19,6.07,6.07,0,0,1,1.14.5,2.86,2.86,0,0,1,.7.6,5.26,5.26,0,0,1,.43.59,7.69,7.69,0,0,1,.39.69,3.22,3.22,0,0,1,.26,1.1,7.53,7.53,0,0,1,0,.95,8.16,8.16,0,0,1-.27,1.63,7.32,7.32,0,0,1-.43,1.45c-.11.25-.22.5-.35.73s-.13.22-.19.33a4,4,0,0,1-.5.65c-.35.38-.73.73-1.11,1.08l-.52.44-.5.38a5.14,5.14,0,0,1-.49.32l-.27.16-.25.13c-.18.09-.36.18-.54.25s-.41.17-.63.24a11.06,11.06,0,0,1-1.13.3h0l-.16,0h.06l-.2,0h.06l-.14,0,.07,0-.06,0h0a6.85,6.85,0,0,1-1.86.15,6.61,6.61,0,0,1-1-.14,5.1,5.1,0,0,1-.69-.24l-.74-.34c-.48-.23-.94-.5-1.4-.78a8.31,8.31,0,0,1-1.23-.91l-.35-.3h0a6.5,6.5,0,0,1-.68-.71,3.52,3.52,0,0,1-.36-.5,3,3,0,0,1-.36-.74,3.37,3.37,0,0,1-.16-.94,4.69,4.69,0,0,1,0-.53,7,7,0,0,1,.08-.8,11.85,11.85,0,0,1,.36-1.54,11.68,11.68,0,0,1,.62-1.51l.09-.2h0l0-.09h0l0,0h0a.08.08,0,0,0,0,0l.08-.15h0l0-.05,0,0A8.44,8.44,0,0,1,115,203a15.61,15.61,0,0,1,1.44-1.49l0,0,.31-.28,0,0a6,6,0,0,1,.62-.48,5.91,5.91,0,0,1,.61-.41,15.28,15.28,0,0,1,1.45-.75c.24-.11.48-.22.73-.31s.55-.2.83-.28c.48-.15,1-.26,1.47-.37a9.66,9.66,0,0,1,1.6-.17l.86,0a6.84,6.84,0,0,1,.79.05,6.36,6.36,0,0,1,.76.14l.74.18a5.74,5.74,0,0,1,1.13.37l.73.37a6.46,6.46,0,0,1,1.3.88c.28.26.56.52.83.79a5.62,5.62,0,0,1,.62.75c.1.14.18.29.27.44l.3.46a5.17,5.17,0,0,1,.51,1.06v0a2.25,2.25,0,0,0,.08.24c.11.31.24.62.34.94a2,2,0,0,1,0,.6l0,.39c0,.27,0,.55-.06.82a4.29,4.29,0,0,1-.12.8,15.83,15.83,0,0,1-.49,1.52c-.09.25-.21.49-.31.73s-.2.46-.29.69l-.26.69c-.1.23-.19.46-.31.69s-.23.47-.34.7-.24.46-.38.68a11,11,0,0,1-.94,1.3c-.35.41-.74.78-1.12,1.16l-.58.55,0,0-.32.28,0,0a9.5,9.5,0,0,1-1.25.94,14.27,14.27,0,0,1-1.44.79,4.87,4.87,0,0,1-.72.28c-.24.09-.48.16-.73.23-.49.14-1,.27-1.49.39l-.66.18-.76.16c-.22,0-.45.06-.67.08l-.59.07c-.28,0-.55,0-.83,0h0Z"/><path class="cls-4" d="M155.75,216.1c-.53,0-1.06-.06-1.59-.09a5.7,5.7,0,0,1-.58-.06c-.23,0-.46-.1-.68-.16l-.72-.19-.83-.24a5.24,5.24,0,0,1-1.15-.47,8,8,0,0,1-1-.67,6,6,0,0,1-.61-.52,5.69,5.69,0,0,1-.86-1c-.16-.23-.3-.46-.44-.7a7.76,7.76,0,0,1-.63-1.45,9.06,9.06,0,0,1-.41-2.37v.07a8.27,8.27,0,0,1,.1-1.65,12.06,12.06,0,0,1,.26-1.46c.06-.26.12-.51.2-.75s.09-.29.14-.42.11-.27.16-.4a3.78,3.78,0,0,1,.17-.35c.06-.13.13-.25.2-.37s.25-.41.38-.61l.44-.66a4.94,4.94,0,0,1,.43-.59c.36-.41.74-.79,1.13-1.17.2-.2.4-.39.61-.57a7.79,7.79,0,0,1,.65-.52,11.5,11.5,0,0,1,1.34-.83,8.44,8.44,0,0,1,3.88-.93c.26,0,.52,0,.78.05a4.1,4.1,0,0,1,.77.18,4.06,4.06,0,0,1,.65.27,7.44,7.44,0,0,1,.66.38l.5.32a4.27,4.27,0,0,1,.93.87c.24.29.46.58.69.87.11.12.22.24.32.37a2.51,2.51,0,0,1,.48.84,6,6,0,0,1,.25,1.58c0,.26,0,.52,0,.78s0,.26,0,.39a4,4,0,0,1-.13.91l-.11.41c0,.14-.09.27-.13.4s-.16.47-.25.71-.2.53-.31.79a5.65,5.65,0,0,1-.31.66c-.08.14-.17.27-.26.41a6.31,6.31,0,0,1-.66.88,4.52,4.52,0,0,1-1.62,1.18,10.85,10.85,0,0,1-1.65.6,6.45,6.45,0,0,1-1.38.18,4.42,4.42,0,0,1-1-.05,4,4,0,0,1-.77-.22,2.12,2.12,0,0,1-1.27-1,6.78,6.78,0,0,1-.41-.86,2.44,2.44,0,0,1-.1-.24v0h0l0-.07h0l0-.05v0l0-.11h0v0l0,0v0l0-.09v0h0a5.71,5.71,0,0,1-.19-.71,5.39,5.39,0,0,1-.12-.79c0-.13,0-.27,0-.41a4.83,4.83,0,0,1,0-.85,3.23,3.23,0,0,1,.61-1.41,4.31,4.31,0,0,1,.39-.46,3.57,3.57,0,0,1,.49-.38,3.7,3.7,0,0,1,.68-.36,1.67,1.67,0,0,1,.45-.13l.38,0a1.9,1.9,0,0,1,.86.25,2.56,2.56,0,0,1,.51.35,1.54,1.54,0,0,1,.19.17.5.5,0,0,1,.14.65.48.48,0,0,1-.66.17,2.17,2.17,0,0,1-.29-.24l-.17-.14-.19-.11-.2-.08-.13,0h-.24l-.16,0h0l-.26.11a4,4,0,0,0-.39.23l-.34.25-.08.09a2.35,2.35,0,0,0-.19.25,3.45,3.45,0,0,0-.25.41,2.56,2.56,0,0,0-.11.24,1.8,1.8,0,0,0-.05.19,2.51,2.51,0,0,0,0,.27,6,6,0,0,0,0,.85c0,.24,0,.47.09.7a6.29,6.29,0,0,0,.17.62h0l0,.08h0v0l0,.11h0v0l0,.08h0v.06c.06.13.11.27.17.41l.16.34.19.32a.76.76,0,0,0,.11.14l.09.09.07.06.16.09.4.16.38.11.34,0a5.66,5.66,0,0,0,.58,0,9,9,0,0,0,.91-.11,6.61,6.61,0,0,0,.76-.22,11,11,0,0,0,1.07-.45,3.5,3.5,0,0,0,.53-.31,2.37,2.37,0,0,0,.3-.23,4,4,0,0,0,.29-.29c.2-.24.38-.49.56-.75s.26-.42.38-.64.24-.58.35-.87.18-.48.27-.72.22-.68.3-1c0-.18,0-.36.07-.55s0-.48,0-.72,0-.49,0-.73c0,0,0,.05,0,.07,0-.24,0-.47-.1-.7s-.06-.24-.09-.36l-.08-.18a2.39,2.39,0,0,0-.13-.21,2.78,2.78,0,0,0-.27-.33l.05,0c-.17-.18-.32-.36-.47-.55s-.37-.49-.57-.72l-.25-.24a2.37,2.37,0,0,0-.3-.23,12.81,12.81,0,0,0-1.18-.72l-.22-.09a3.86,3.86,0,0,0-.58-.17l-.52-.07h-.43l-.46,0c-.18,0-.37,0-.55.06l-.48.08-1,.28-.71.31a4.92,4.92,0,0,0-.45.24l-.54.33-.45.32-.46.36c-.52.48-1,1-1.5,1.48a3.88,3.88,0,0,0-.26.31l-.27.37c-.33.49-.66,1-1,1.51L148,204c-.06.12-.1.26-.16.39s-.15.49-.22.74-.12.47-.17.71-.1.54-.13.8-.08.63-.1.95,0,.43,0,.64a.13.13,0,0,0,0-.06l0,.37a.2.2,0,0,0,0-.07,11.17,11.17,0,0,0,.17,1.16l.12.48c0,.15.09.3.14.44s.2.48.31.71a9.16,9.16,0,0,0,.46.8,6.31,6.31,0,0,0,.44.58,5.55,5.55,0,0,0,.49.48,11.76,11.76,0,0,0,1,.75c.17.11.36.22.55.32l.34.14c.36.12.73.23,1.09.33s.84.24,1.26.33c.21,0,.42.06.64.08h-.07l1.23.07c.23,0,.47,0,.7,0a6.08,6.08,0,0,0,.61,0,12.84,12.84,0,0,0,1.39-.15,5.91,5.91,0,0,0,.69-.19,7.27,7.27,0,0,0,.76-.33l.79-.45.43-.3.53-.42,1-.78c.14-.12.27-.25.4-.38s.24-.26.36-.4c.35-.41.71-.81,1.07-1.21s.65-.83,1-1.27c.1-.15.2-.3.29-.45l.28-.51c.15-.35.3-.69.43-1s.2-.59.28-.88.15-.58.21-.88c.12-.69.23-1.39.31-2.09a4.87,4.87,0,0,0,0-.54c0-.19,0-.39,0-.59a13,13,0,0,0-.15-1.37c0-.1-.05-.2-.08-.3-.15-.4-.33-.78-.5-1.16s-.35-.76-.53-1.13l-.38-.73a8.73,8.73,0,0,0-.45-.78l-.21-.31,0,.05,0,0h0a3.57,3.57,0,0,0-.3-.38c-.1-.12-.21-.22-.32-.33a6.55,6.55,0,0,0-.53-.39l-.69-.39-.59-.26-.66-.25c-.6-.19-1.21-.37-1.83-.52-.37-.07-.74-.12-1.12-.16-.2,0-.4,0-.61,0l-.7,0c-.37,0-.73.07-1.09.12s-.76.14-1.14.22-.53.11-.79.19l-.86.26c-.33.13-.65.26-1,.41l-1,.49,0,0-1,.54a9.32,9.32,0,0,0-1,.57h0l-.28.2h0c-.39.26-.78.54-1.16.82s-.75.55-1.11.85-.5.5-.74.76l-.3.36-.15.2,0,.06-.09.13,0,0h0v0c-.22.34-.44.69-.64,1l-.32.58a.57.57,0,0,1-.08.13l0,.07h0l0,0h0a.47.47,0,0,1-.53.18.48.48,0,0,1-.31-.65.33.33,0,0,1,.07-.13,1.51,1.51,0,0,0,.09-.18c.07-.11.13-.23.19-.34s.23-.4.35-.59.26-.44.41-.65v0l0,0,0,0,0,0a6.26,6.26,0,0,1,.46-.59c.24-.28.5-.56.77-.82a11.82,11.82,0,0,1,.95-.77c.62-.47,1.26-.92,1.9-1.35l0,0a10.51,10.51,0,0,1,1.3-.76l1.45-.73a11.9,11.9,0,0,1,1.42-.61,13.6,13.6,0,0,1,1.51-.43,16.29,16.29,0,0,1,3.11-.43,9.08,9.08,0,0,1,1.56.09c.27,0,.53.09.79.15l.76.2a13.88,13.88,0,0,1,2.16.77,8.12,8.12,0,0,1,1.05.56c.17.12.34.24.5.37a4.46,4.46,0,0,1,.9,1l0,0,.19.29h0a13,13,0,0,1,.77,1.37c.25.49.48,1,.71,1.49l.3.67c.05.12.1.23.14.35a2.93,2.93,0,0,1,.22.82q.11.81.15,1.62a7.92,7.92,0,0,1-.09,1.54c-.06.52-.15,1-.24,1.55a11.08,11.08,0,0,1-.4,1.53c-.09.27-.19.54-.29.81s-.2.47-.31.7a7.59,7.59,0,0,1-.44.79c-.17.27-.35.54-.55.8s-.39.52-.59.77l-.61.68,0,0,0,0h0c-.35.4-.69.8-1.06,1.18a5.37,5.37,0,0,1-.56.51l-.64.51c-.19.16-.38.32-.58.47a6.74,6.74,0,0,1-.64.45,10.38,10.38,0,0,1-1.7.85,6.59,6.59,0,0,1-1.08.28l-.32,0-.45,0c-.42,0-.85.08-1.28.08Z"/><path class="cls-4" d="M182.94,190.1a1.09,1.09,0,0,1-.49-.16,1,1,0,0,1-.41-.55,1.68,1.68,0,0,1,0-.74q0-.39.12-.78a11.24,11.24,0,0,1,.48-1.49,10,10,0,0,1,.56-1.25A8.21,8.21,0,0,1,184,184a3.62,3.62,0,0,1,.36-.42.61.61,0,0,1,.18-.28,1.44,1.44,0,0,1,.59-.3.59.59,0,0,1,.32,0h.07a2,2,0,0,1,.35,0,.73.73,0,0,1,.58.32,1.18,1.18,0,0,1,.18.45,1.77,1.77,0,0,1,0,.33c0,.12,0,.24,0,.36s0,.29-.05.44a4,4,0,0,1-.11.5,8.52,8.52,0,0,1-.33,1v0c0,.13-.09.27-.14.4l-.19.45c-.13.29-.25.59-.4.88a4.11,4.11,0,0,1-.43.73,4.59,4.59,0,0,1-.55.61,4.73,4.73,0,0,1-.57.43,1.19,1.19,0,0,1-.25.13,1.24,1.24,0,0,1-.31.1h-.32Zm.18-1,.11,0,.11-.07a4.63,4.63,0,0,0,.42-.32l.14-.14h0a4.23,4.23,0,0,0,.34-.4c.1-.17.19-.34.28-.52s.2-.43.29-.64.21-.46.3-.69.16-.48.25-.73a7.27,7.27,0,0,0,.22-.8,5.7,5.7,0,0,0,.06-.58,1.4,1.4,0,0,0,0-.29h-.09l-.18,0h0l-.07.06c-.12.11-.24.22-.35.34s-.41.53-.6.8-.27.45-.39.68c-.2.44-.39.89-.55,1.34s-.21.64-.29,1a8,8,0,0,0-.11.82v.14h0v0h0l.12,0Z"/></g></g></svg>