<svg xmlns="http://www.w3.org/2000/svg" viewBox="0 0 141.75 228.17"><defs><style>.cls-1{fill:#50555b;}</style></defs><g id="Layer_2" data-name="Layer 2"><g id="Artwork:Notebook"><polygon class="cls-1" points="55.9 85.57 55.89 85.57 55.89 85.58 55.9 85.57"/><path class="cls-1" d="M71,75.68l1.2-.65c.45-.24.89-.49,1.33-.76.82-.51,1.63-1,2.47-1.52l2.42-1.31C79.21,71,80,70.5,80.81,70l.81-.43.78-.41a.45.45,0,0,0-.38-.82c-.32.15-.64.33-1,.49l-1,.56c-.66.39-1.31.79-2,1.16l-.8.44L76,71.68c-.45.25-.9.5-1.34.77l-1.26.79c-.39.25-.79.5-1.2.73l-1.07.57c-.37.21-.75.4-1.13.61l0,0-.1,0h0l-.15.08h0l0,0h0l-.32.18,0,0,0,0h0l-1.2.65c-.39.22-.76.46-1.14.7L66,77.53l-1.18.73c-.81.51-1.59,1.07-2.41,1.57l-.57.34-.63.41c-.41.28-.82.54-1.24.81s-.75.52-1.12.78-.82.58-1.22.89l-1.12.88-1.11.85-.07,0a2.9,2.9,0,0,1-.29.19.45.45,0,0,0,.14.89h.07a1,1,0,0,0,.28-.12,4,4,0,0,0,.34-.23l.06,0,1.32-1,1.32-1,.64-.46c.4-.28.8-.57,1.2-.84l.57-.36.64-.42.58-.39.62-.37,1.2-.77c.4-.27.8-.54,1.21-.8s.85-.52,1.27-.78l1.23-.8c.41-.27.83-.52,1.26-.76h0l1.2-.65h0l0,0h0l.08,0h0l.11-.06h0l0,0h0l0,0h0l0,0,0,0Z"/><path class="cls-1" d="M27.81,61.8q.75.53,1.5,1c.5.32,1,.62,1.52.91l.81.43a8.17,8.17,0,0,0,.79.38c.28.12.56.24.85.34l.89.29c.56.18,1.13.36,1.7.52s1.14.32,1.72.43q.45.09.9.15l.85.13a9.05,9.05,0,0,0,.91.12l.89.07c.59.06,1.18.12,1.78.15l.85,0c.3,0,.6,0,.9,0l1.71-.21,1.76-.24c.59-.09,1.18-.18,1.76-.29s1.2-.24,1.78-.41,1.22-.37,1.83-.59a18.31,18.31,0,0,0,3.24-1.5c.54-.33,1.06-.68,1.58-1s1-.7,1.45-1.06.93-.73,1.39-1.11.94-.79,1.41-1.2L64,57.87a13.19,13.19,0,0,0,1.28-1.31c.2-.23.4-.47.58-.72l.53-.75c.34-.49.71-1,1-1.47s.7-1,1-1.53c.16-.25.31-.5.46-.76l.47-.88c.55-1.07,1.07-2.15,1.59-3.23.25-.53.51-1,.72-1.59s.41-1.12.58-1.69a15.58,15.58,0,0,0,.44-1.79c.12-.62.21-1.25.3-1.87s.14-1.17.17-1.75a14,14,0,0,0,0-1.83c0-.31-.06-.61-.1-.91s-.09-.63-.13-.94c-.1-.62-.23-1.23-.35-1.85s-.25-1.19-.39-1.79a15.32,15.32,0,0,0-.53-1.75c-.22-.58-.45-1.16-.7-1.72s-.56-1.16-.85-1.73a17,17,0,0,0-.91-1.55l-1.07-1.59c-.33-.49-.68-1-1-1.44s-.72-1-1.1-1.44l-1.2-1.49a18,18,0,0,0-1.25-1.37c-.22-.22-.46-.42-.69-.62s-.46-.4-.68-.61c-.45-.39-.9-.78-1.37-1.15s-.95-.76-1.43-1.12-1-.74-1.52-1.07-1.05-.68-1.59-1l-.84-.48c-.25-.13-.49-.27-.74-.38A15.92,15.92,0,0,0,52.89,10c-.61-.2-1.23-.37-1.86-.52l-1.75-.44c-.58-.15-1.17-.26-1.76-.37l-1.84-.31c-.3,0-.6-.09-.91-.12l-1-.08c-.61,0-1.22-.08-1.82-.1a16.1,16.1,0,0,0-1.84,0l-1.85.16c-.61.05-1.21.12-1.81.2A27.29,27.29,0,0,0,33,9.12a7.69,7.69,0,0,0-.85.28,7,7,0,0,0-.73.35,15.77,15.77,0,0,0-1.42.86.55.55,0,0,0-.16.18l-.15.12c-.33.27-.65.52-1,.77s-.83.58-1.26.86a14.73,14.73,0,0,0-1.32.91c-.23.18-.46.37-.68.58l-.69.66c-.21.21-.42.41-.62.62s-.41.46-.6.69c-.39.45-.75.93-1.12,1.4s-.8,1-1.18,1.54-.69,1-1,1.51-.66,1.1-1,1.66c-.15.27-.31.54-.45.82s-.28.58-.41.88a15.76,15.76,0,0,0-.68,1.77c-.2.58-.38,1.18-.54,1.77s-.28,1.24-.38,1.86A11.05,11.05,0,0,0,16.7,31c0,.63,0,1.26,0,1.89s0,1.2,0,1.81,0,1.27,0,1.9c0,.3,0,.61,0,.91l.09,1c.07.61.15,1.22.23,1.83.15,1.23.32,2.45.52,3.68a16.94,16.94,0,0,0,.4,1.82c.07.27.16.54.25.8s.19.62.29.92c.4,1.21.81,2.41,1.28,3.6.22.58.47,1.15.73,1.71.14.28.28.55.43.82s.29.53.46.79c.31.49.66,1,1,1.43s.73,1,1.13,1.5.77.88,1.17,1.32c.2.23.39.46.59.68l.6.63.56.58A11.57,11.57,0,0,0,27.81,61.8Zm-4.08-5.58-.95-1.32a12,12,0,0,1-.88-1.35l0,0,0,0h0c-.25-.47-.51-.94-.73-1.43s-.45-1-.65-1.57c-.34-.88-.65-1.77-1-2.67-.16-.48-.31-1-.47-1.46s-.27-.85-.38-1.28-.13-.55-.18-.83-.05-.31-.08-.47a1,1,0,0,0,.24,0h.16a1.06,1.06,0,0,0,.69-.45,1,1,0,0,0,.19-.16,1,1,0,0,0,.25-.72,1.07,1.07,0,0,0-.24-.63,1.16,1.16,0,0,0-1.07-.43,1,1,0,0,0-.53.27.38.38,0,0,1,0-.1c-.17-1.18-.32-2.36-.44-3.54,0-.12,0-.24,0-.36,0-.62-.08-1.24-.09-1.85s0-1.26,0-1.89v0a1.31,1.31,0,0,0,.45.33,1.17,1.17,0,0,0,.49.11A1.26,1.26,0,0,0,19,32a1,1,0,0,0-.84.06,1,1,0,0,0-.54.2s0-.09,0-.14c0-.61,0-1.22,0-1.82,0-.21,0-.42.05-.63s0-.43.08-.64.14-.71.22-1.06.17-.68.27-1c.16-.52.33-1,.51-1.54a1.36,1.36,0,0,0,.43.43,1.09,1.09,0,0,0,.56.15h0a1.41,1.41,0,0,0,.6-.19,1.23,1.23,0,0,0,.56-.83,1.61,1.61,0,0,0-.17-1.16,1.27,1.27,0,0,0-.48-.47,1.18,1.18,0,0,0-.58-.14c.07-.15.14-.29.22-.44.28-.51.57-1,.86-1.52.5-.8,1-1.58,1.58-2.33.27-.36.56-.71.84-1.06l.81-1c.25-.3.5-.59.76-.87s.54-.55.81-.82.45-.43.68-.63.49-.4.74-.59.59-.41.9-.6.62-.4.92-.61.59-.43.88-.66.53-.42.79-.63l.42-.27,0,0-.05,0a.48.48,0,0,0,.25-.21l.52-.32c.3-.16.6-.31.91-.44a12.79,12.79,0,0,1,1.34-.39c.63-.14,1.25-.23,1.88-.33s1.34-.2,2-.26h0L39,9.14a1.64,1.64,0,0,0-.28.7,1.3,1.3,0,0,0-.07.41,1.11,1.11,0,0,0,.83,1l.25,0a1.09,1.09,0,0,0,.26,0h.18a1,1,0,0,0,.79-1.1.86.86,0,0,0-.09-.27v0a1.34,1.34,0,0,0-.09-.26A.91.91,0,0,0,40.57,9L41,9c.37,0,.75,0,1.13,0,.59,0,1.18.05,1.78.1.3,0,.6,0,.9.08l.94.13h0c1.13.19,2.27.36,3.38.65l.83.21a1.45,1.45,0,0,0-.46,1.42.81.81,0,0,0,.07.22,2.46,2.46,0,0,0,.07.29,1.31,1.31,0,0,0,.51.75,1,1,0,0,0,.59.18A.91.91,0,0,0,51,13a1.08,1.08,0,0,0,.7-.78,2,2,0,0,0,0-.48,3.87,3.87,0,0,0,0-.49.93.93,0,0,0-.21-.46,1.18,1.18,0,0,0,0-.2l.85.22.86.29c.27.09.53.2.79.31l.61.28.55.31c.38.2.75.42,1.11.63.72.45,1.44.9,2.12,1.4s1.37,1.05,2,1.59l0,0c.53.43,1,.89,1.57,1.34l.78.69c.24.22.46.45.68.68s.32.34.46.52l.5.61.83,1,.17.22a1.14,1.14,0,0,0-.75.3,1,1,0,0,0-.12,1.35,1,1,0,0,0,.22.19,1,1,0,0,0,.71.42h.1a1.08,1.08,0,0,0,.87-.45,1.69,1.69,0,0,0,.13-.31l.29.39c.4.55.77,1.12,1.15,1.69l.65,1c.18.29.35.58.52.88l.46.88c.14.28.29.57.42.86.26.59.51,1.18.74,1.78.11.29.22.58.31.88s.18.6.25.9q.31,1.33.57,2.67c.08.45.16.9.22,1.35s.12.88.17,1.32,0,.94,0,1.41-.06,1.14-.13,1.71S72,41,71.86,41.57a15.21,15.21,0,0,1-.43,1.89,20.53,20.53,0,0,1-.8,2.28c-.45,1-.92,1.92-1.39,2.88h0a.8.8,0,0,0-.29-.23.89.89,0,0,0-.55-.1l-.08,0a1.18,1.18,0,0,0-.59,0,1.27,1.27,0,0,0-.63.46,1.1,1.1,0,0,0,.57,1.7.86.86,0,0,0,.23,0,1.13,1.13,0,0,0,.47-.12c-.19.36-.38.71-.59,1.06s-.47.72-.71,1.08-.46.7-.7,1-.53.71-.78,1.08-.5.71-.76,1-.4.47-.61.69-.41.43-.62.63c-.38.36-.78.7-1.18,1l-1.15,1-1.22,1-.23.17a1,1,0,0,0-.61-.85.94.94,0,0,0-.68,0,1.37,1.37,0,0,0-.31.13,1.07,1.07,0,0,0-.33,1.47,1.11,1.11,0,0,0,.45.38,26.41,26.41,0,0,1-2.45,1.6c-.36.2-.73.4-1.11.57L53.64,64a24.92,24.92,0,0,1-2.66.85c-.54.13-1.09.24-1.63.34s-1,.17-1.54.24-1.12.16-1.68.23l-1.45.18a11.76,11.76,0,0,1-1.57,0h0c-.43,0-.85,0-1.27-.09s-.8-.08-1.2-.1c-.82,0-1.63-.2-2.44-.33h0l-.71-.13L36.86,65q-.64-.17-1.29-.36c-.47-.14-.94-.28-1.41-.44-.24-.07-.47-.15-.7-.24l-.71-.28c-.76-.36-1.5-.76-2.22-1.19a30,30,0,0,1-2.65-1.79c-.4-.34-.77-.7-1.13-1.07l-.2-.2L26,58.83a.79.79,0,0,0,.33-.13,1.07,1.07,0,0,0,.47-.68,1.31,1.31,0,0,0,0-.65,1.53,1.53,0,0,0-.31-.64.94.94,0,0,0-.43-.3,1,1,0,0,0-.74,0,.94.94,0,0,0-.55.76.8.8,0,0,0-.07.2C24.39,57,24.05,56.63,23.73,56.22Z"/><path class="cls-1" d="M25.92,60.09l0,0h0Z"/><path class="cls-1" d="M99.18,95.25l0,0,0,0Z"/><path class="cls-1" d="M103.79,111h0l0,0Z"/><path class="cls-1" d="M32.44,84.92l0,0,0,0Z"/><polygon class="cls-1" points="51.74 227.1 51.74 227.1 51.74 227.09 51.74 227.1"/><path class="cls-1" d="M65.17,124.23h0l-.06,0Z"/><path class="cls-1" d="M140,225.08h0Z"/><path class="cls-1" d="M141.73,225c0-.18,0-.36-.06-.54-.13-.95-.24-1.9-.45-2.83a8.66,8.66,0,0,0-.45-1.39c-.19-.46-.37-.92-.58-1.38a8.54,8.54,0,0,0-1.73-2.4c-.17-.17-.34-.32-.52-.47s-.38-.31-.58-.44-.43-.27-.65-.39l-.69-.34c-.21-.09-.42-.19-.63-.26a6.44,6.44,0,0,0-.74-.25l-1.32-.37h0c-.45-.14-.91-.29-1.37-.41a6.25,6.25,0,0,0-.72-.17l-.62-.1h0c-.43-.08-.85-.19-1.28-.29.13-.06.25-.11.37-.18a8.21,8.21,0,0,0,.81-.48l.36-.25c.11-.09.22-.16.32-.25a5.9,5.9,0,0,0,.57-.55c.17-.2.34-.4.5-.61a5.86,5.86,0,0,0,.83-1.43,3.28,3.28,0,0,0,.21-1.88,1.57,1.57,0,0,0-1.09-1.21,1.54,1.54,0,0,0-.85.07,2.77,2.77,0,0,0-.78.46,9.47,9.47,0,0,0-.81.74,3.33,3.33,0,0,0-.25.28l0,0a5,5,0,0,0,0-.77c0-.14,0-.27-.07-.41a3.31,3.31,0,0,0-.43-1.17,1.47,1.47,0,0,0-.3-.31.84.84,0,0,0-.37-.14,1.26,1.26,0,0,0-.74.08,1.48,1.48,0,0,0-.64.52,3.21,3.21,0,0,0-.39.7c0,.12-.11.24-.16.37l-.14.39c0,.12-.07.23-.1.34s-.07.22-.09.33-.12.49-.16.73a2.93,2.93,0,0,0-.07.41l-.06.42c0,.23,0,.46,0,.69a5.65,5.65,0,0,0,0,1,4.88,4.88,0,0,0,.18.94h0a.75.75,0,0,1-.16-.15c-.15-.16-.29-.32-.43-.5h0l-.11-.14a10.14,10.14,0,0,1-.64-1.05c-.2-.34-.4-.68-.59-1-.3-.56-.56-1.14-.84-1.71-.14-.28-.29-.55-.42-.83s-.21-.47-.33-.7l.5-.13.2-.05a.46.46,0,0,0,.37-.52.19.19,0,0,0,0-.07.41.41,0,0,0,.11-.07.49.49,0,0,0,.18-.3.65.65,0,0,0,0-.39c-.07-.17-.15-.32-.23-.48-.15-.32-.29-.64-.45-.95s-.35-.66-.53-1h0l-.1-.17h0c-.27-.49-.53-1-.79-1.49s-.52-.94-.77-1.42c-.8-1.6-1.62-3.19-2.48-4.75-.44-.82-.9-1.63-1.37-2.43s-.89-1.45-1.33-2.17l-.72-1.18-.68-1.14c-.45-.75-.92-1.5-1.36-2.25-.91-1.53-1.84-3-2.72-4.6L109,177.88l-1.23-2.21v0l0-.07c-.89-1.62-1.76-3.25-2.68-4.85-.45-.78-.91-1.55-1.37-2.31s-.88-1.51-1.3-2.27h0c-.35-.65-.71-1.3-1.09-1.94s-.81-1.39-1.22-2.08c-.76-1.3-1.51-2.6-2.23-3.92-.5-.92-1-1.84-1.52-2.75s-1-1.75-1.48-2.64h0c-.57-1-1.14-2.08-1.74-3.1-.31-.53-.63-1.06-1-1.59s-.59-1-.89-1.42c-.48-.75-.93-1.52-1.39-2.28s-.94-1.48-1.43-2.21-1-1.48-1.51-2.24c-.23-.35-.45-.72-.67-1.08s-.44-.73-.66-1.08c-.46-.75-.93-1.5-1.4-2.24-.23-.38-.47-.76-.71-1.13s-.42-.7-.64-1l-.71-1.09c-.24-.36-.5-.71-.75-1.07s-.51-.71-.76-1.08l-.69-1c-1-1.47-2-2.91-3-4.36-.49-.71-.92-1.45-1.37-2.19s-.89-1.41-1.31-2.14l-.18-.36h0l1-.56c.51-.32,1-.62,1.54-.93,1-.62,2.08-1.21,3.11-1.85.49-.31,1-.63,1.45-1s1-.72,1.49-1.09c.93-.67,1.86-1.34,2.8-2s2-1.45,3-2.23l1.44-1.14c.49-.38,1-.78,1.43-1.19s.88-.83,1.3-1.26.83-.83,1.25-1.25.82-.83,1.22-1.25.84-.87,1.25-1.32l1.26-1.39a15.49,15.49,0,0,0,1.06-1.36c.18-.25.36-.49.52-.75s.34-.52.48-.79a2.74,2.74,0,0,0,.35-1,2.08,2.08,0,0,0,0-.25,1.27,1.27,0,0,0,0-.39,1.32,1.32,0,0,0-.18-.33.81.81,0,0,0-.16-.16.86.86,0,0,0-.34-.18,1.05,1.05,0,0,0-.31,0c-.22,0-.44.06-.65.1l-.72.15c.53-.47,1.06-.93,1.57-1.42.35-.34.67-.71,1-1.08l.48-.57.13-.17a.34.34,0,0,0,0,.1h0a.49.49,0,0,0,.06.17c.13.24.25.49.38.74s.28.52.42.78c.25.44.51.88.76,1.33s.46.82.7,1.23c.49.85,1,1.69,1.51,2.53s1,1.59,1.54,2.38c.26.42.52.83.77,1.26l.33.58.29.49,0,0a.51.51,0,0,0,.13.16l0,0h0a7.11,7.11,0,0,0-1.31.29l-.67.26-.63.28c-.2.09-.4.2-.6.31a4.25,4.25,0,0,0-.63.41,2.72,2.72,0,0,0-.88,1.08,2.09,2.09,0,0,0-.19.69,2.17,2.17,0,0,0,0,.36,2.47,2.47,0,0,0,.1.29.91.91,0,0,0,.2.33,1.18,1.18,0,0,0,.22.17,1.4,1.4,0,0,0,.34.13A5.54,5.54,0,0,0,105,110h.13l0,0a15.32,15.32,0,0,0-1.27,1l-.14.15,0,0,0,0h0a7.21,7.21,0,0,0-.58.66,2.17,2.17,0,0,0-.41.8.91.91,0,0,0,.14.7,1.26,1.26,0,0,0,1,.42,2.41,2.41,0,0,0,.38,0l.25,0a4.23,4.23,0,0,0-.44.51,2.84,2.84,0,0,0-.4.75,1.06,1.06,0,0,0,0,.8.73.73,0,0,0,.54.37,2,2,0,0,0,1-.19c.43-.17.85-.38,1.27-.59a2.81,2.81,0,0,0-.08.31,2.55,2.55,0,0,0,0,.39,1.13,1.13,0,0,0,.09.35.77.77,0,0,0,.57.43,1.31,1.31,0,0,0,.62,0q.34-.1.69-.24a10.13,10.13,0,0,0,1-.46,1.7,1.7,0,0,0,0,.22,1.46,1.46,0,0,0,0,.69,1.45,1.45,0,0,0,.24.44.93.93,0,0,0,.3.26.86.86,0,0,0,.35.12h.06a1.24,1.24,0,0,0,.27,0,1.58,1.58,0,0,0,.54-.22,2.4,2.4,0,0,0,.27-.16,5.42,5.42,0,0,0,1.13-1,7.5,7.5,0,0,0,.84-1.24,5.2,5.2,0,0,0,.32-.62l0,0c.11.24.23.46.36.69.23.41.48.82.73,1.22l1.62,2.56c.53.83,1.09,1.65,1.63,2.48s1,1.64,1.54,2.46l.81,1.3c.25.42.49.85.73,1.27s.47.85.73,1.26l.8,1.33c.51.82,1,1.65,1.51,2.48l1.56,2.54c.52.85,1,1.71,1.54,2.56s1.05,1.7,1.58,2.54,1,1.65,1.52,2.48l1.54,2.49c.51.85,1,1.7,1.51,2.55l1.5,2.55c.5.85,1,1.68,1.49,2.54h0c.25.46.49.91.76,1.35.51.81,1,1.6,1.55,2.4l.73,1.08.48.71v.05h0c0,.05,0,.11,0,.16s-.06.31-.1.46a7.46,7.46,0,0,1-.27.71c-.12.24-.24.48-.37.71l-.45.74-.9,1.51h0l-.18.29h0c-.16.26-.32.53-.5.78s-.36.52-.56.77h0l-.63.77c-.61.73-1.27,1.43-1.93,2.12s-1.35,1.45-2.06,2.15c-.54.51-1.09,1-1.66,1.49s-1.14.91-1.72,1.34l-.47.35c-.8.58-1.62,1.13-2.43,1.68l-1.21.82c-.4.28-.83.52-1.25.76h0l-.33.18h0l0,0h0l-1.17.65h0l0,0h0c-.12.07-.24.14-.37.2l.06,0c-.55.3-1.1.57-1.66.83l-.72.33-.8.33c-.4.14-.8.27-1.21.39l-1.17.31c-.79.21-1.57.46-2.36.66h-.05L113,179h0l-.3.08.06,0c-.59.14-1.18.26-1.77.37a.46.46,0,0,0-.38.52.48.48,0,0,0,.45.39h.08c.6-.11,1.19-.23,1.78-.37H113l.29-.07h0l.22-.06h0c.46-.11.92-.25,1.38-.38s.86-.25,1.29-.36a18.91,18.91,0,0,0,2.82-.91c.9-.4,1.8-.81,2.66-1.28l1.59-.89h0l.32-.17h0c.31-.17.62-.35.92-.54s.6-.39.9-.6c.82-.56,1.64-1.1,2.45-1.67.39-.27.77-.55,1.14-.83s.8-.57,1.17-.88.82-.67,1.22-1,.76-.68,1.12-1c.71-.71,1.38-1.45,2.08-2.18s1.31-1.38,1.93-2.11c.33-.41.66-.81,1-1.23a12.42,12.42,0,0,0,.81-1.23l0,0,.22-.36c.24-.4.48-.79.71-1.19s.52-.84.76-1.27a7.55,7.55,0,0,0,.59-1.37,3.56,3.56,0,0,0,.14-.63.46.46,0,0,0,.07-.57l-.37-.54-.72-1-.76-1.16-.78-1.21c-.25-.4-.5-.79-.73-1.2s-.37-.69-.57-1l-.62-1.06c-.52-.87-1-1.75-1.55-2.63s-1-1.64-1.45-2.46-1.06-1.77-1.6-2.64-1-1.64-1.51-2.46-1.08-1.71-1.61-2.57-1-1.67-1.52-2.51-1-1.71-1.56-2.56l-1.49-2.44-.79-1.31-.79-1.29c-.5-.85-1-1.72-1.48-2.57-.24-.4-.49-.79-.74-1.19l-.79-1.25c-.28-.45-.56-.9-.85-1.35l-.78-1.18c-.54-.82-1-1.65-1.58-2.47s-1-1.62-1.51-2.46c-.1-.19-.19-.38-.28-.57a.13.13,0,0,0,0-.06.48.48,0,0,0-.45-.33,3.55,3.55,0,0,0,.09-.47c0-.24,0-.47,0-.71s0-.48,0-.71-.06-.52-.1-.77-.11-.47-.17-.7a5.4,5.4,0,0,0-.25-.67,6.42,6.42,0,0,0-.33-.64,7.66,7.66,0,0,0-.45-.66,6.17,6.17,0,0,0-.48-.54,6.3,6.3,0,0,0-.55-.48c-.38-.3-.77-.58-1.16-.87a6.71,6.71,0,0,0-1.16-.74h0a.46.46,0,0,0-.31-.25l-.22,0-.22,0-.23-.09h0a.44.44,0,0,0,0-.47c-.06-.13-.14-.25-.21-.37-.24-.4-.46-.8-.69-1.19s-.52-.83-.78-1.25l-.76-1.15-.78-1.24c-.51-.83-1-1.67-1.49-2.52-.24-.41-.46-.83-.7-1.23s-.49-.86-.73-1.29c-.1-.19-.21-.38-.3-.57s-.2-.41-.31-.61a.47.47,0,0,0-.55-.24h0a5,5,0,0,0,.34-.59,1.21,1.21,0,0,0,.16-.67,1.11,1.11,0,0,0-.38-.6.75.75,0,0,0-.29-.16,2,2,0,0,0-.35-.08,3,3,0,0,0-.42,0l-.27.05c.15-.19.31-.39.44-.59s.2-.3.29-.46a3.76,3.76,0,0,0,.36-.79,1.56,1.56,0,0,0,0-1,1,1,0,0,0-.22-.37,1,1,0,0,0-.31-.21,1.64,1.64,0,0,0-1,0,5.07,5.07,0,0,0-.83.28l-.42.19a1.6,1.6,0,0,0,.25-.79.84.84,0,0,0-.28-.69,1,1,0,0,0-.45-.2,1.36,1.36,0,0,0-.45.06,2.51,2.51,0,0,0-.46.16,6.25,6.25,0,0,0-.85.45c-.28.17-.54.37-.8.56-.51.38-1,.8-1.46,1.22s-1,.84-1.41,1.28l-1.08,1.07.3-.59c.15-.29.28-.58.4-.88a6.34,6.34,0,0,0,.29-.87,3.72,3.72,0,0,0,.14-1,2,2,0,0,0-.07-.49A2.48,2.48,0,0,0,92,87a.84.84,0,0,0-.66-.39,1,1,0,0,0-.53.16l-.38.23a3.73,3.73,0,0,0-.73.64q-.3.34-.57.69c-.2.24-.41.47-.6.71-.38.48-.76,1-1.15,1.46s-.72.94-1.09,1.4a21.63,21.63,0,0,1-1.66,1.91l0,0-.68.65,0,0a.46.46,0,0,0-.07.07.46.46,0,0,0-.07.07,1.7,1.7,0,0,0-.19.19c-.28.28-.53.57-.8.86s-.48.51-.73.75-.64.62-1,.9-.72.59-1.08.88L79,99c-.35.28-.71.55-1.07.82l0,0s0,0,0,0l-.07,0,0,0h0l0,0-1.16.83-1.18.79c-.52.36-1,.72-1.57,1.06s-1,.67-1.57,1c-1,.65-2.12,1.27-3.2,1.88q-1.25.66-2.55,1.2l-1.24.5-1.35.55-2.25.84-.9.34c-.31.12-.63.23-1,.33-.61.21-1.23.38-1.86.56l-1.84.5-1.8.46-.91.2L53,111l-.49.07-.94.12-1.9.25-1.83.26L46,112l-1.09.08c-.36,0-.72.07-1.08.08s-.73,0-1.1,0-.73,0-1.09.08l-.38,0a1.93,1.93,0,0,0-.34,0,.46.46,0,0,0,.15.9h.44l.46,0h-.06c.42,0,.83-.06,1.25-.08h.54c.22,0,.44,0,.65,0l.59-.05.59,0c.4,0,.79-.06,1.19-.12.62-.08,1.24-.15,1.85-.24s1.27-.19,1.91-.27l.67-.08c0,.13,0,.26,0,.39l.12.94c0,.5,0,1,0,1.5,0,.71-.1,1.42-.15,2.13q-.06.77-.15,1.53l-.18,1.4c-.06.47-.13.94-.19,1.42s-.12.94-.2,1.41c-.18,1-.4,2-.66,3-.07.22-.15.43-.23.64s-.09.28-.15.42l-.21.46,0-.06c0,.06,0,.11-.08.16h0a.46.46,0,0,0,.06.61h0l-.73.13-.92.16-.87.17a.33.33,0,0,0-.14,0l-.79.08h.06a12.29,12.29,0,0,1-1.49.07l-.72,0h-.78l-1.49,0c-.51,0-1-.1-1.53-.18l-.62-.14a10.41,10.41,0,0,1-1.11-.39c-.38-.14-.74-.31-1.11-.47l-1-.5c-.35-.18-.7-.36-1-.56A20.08,20.08,0,0,1,33,125.2c-.32-.26-.64-.52-.94-.79s-.61-.58-.9-.87a13,13,0,0,1-.95-1.16c-.27-.38-.51-.77-.74-1.17a9.4,9.4,0,0,1-.5-1.07c-.08-.23-.14-.45-.2-.68a12.05,12.05,0,0,1-.25-1.56c0-.21,0-.41,0-.61a4.86,4.86,0,0,1,0-.54,9.45,9.45,0,0,1,.09-1.07,9.24,9.24,0,0,1,.21-.91,10.47,10.47,0,0,1,.38-1A11.72,11.72,0,0,1,30.81,111l0,0c.28-.33.54-.67.81-1,.13-.16.26-.31.4-.46l.39-.38.2-.19c.22-.21.44-.4.68-.59s.44-.33.65-.51c.45-.36.88-.74,1.32-1.1l1.38-1.16.67-.55.7-.58c.42-.37.87-.7,1.27-1.09l0,0h0a13.72,13.72,0,0,0,1.17-1.24,4.83,4.83,0,0,0,.48-.73l.44-.76a7.63,7.63,0,0,0,.39-.75,4.06,4.06,0,0,0,.27-.81c0-.16.07-.32.1-.48v0a.25.25,0,0,1,0,.07,4.59,4.59,0,0,0,.6.72,3.83,3.83,0,0,0,1.13.68,11.11,11.11,0,0,0,1.27.42,9.4,9.4,0,0,0,1.28.27,10.67,10.67,0,0,0,1.26.09h.69l.66-.06c.23,0,.47,0,.7-.06l.22,0h.16l.08,0h.34a12.3,12.3,0,0,0,1.35-.12,5.48,5.48,0,0,0,1.33-.31c.43-.18.84-.39,1.26-.6L55.73,99c.21-.1.42-.2.62-.32a5.56,5.56,0,0,0,.54-.42,6.49,6.49,0,0,0,1-1,3.46,3.46,0,0,0,.22-.31l.09.16c.49.84,1,1.7,1.46,2.52.26.42.52.84.8,1.25l.78,1.2c.26.4.51.8.76,1.2l.71,1.18q.36.61.72,1.2c.22.34.46.67.67,1a.46.46,0,0,0,.39.21.42.42,0,0,0,.24-.07.47.47,0,0,0,.14-.63c-.14-.23-.3-.45-.45-.68s-.33-.51-.49-.77c-.31-.53-.62-1.06-.94-1.58-.5-.82-1-1.63-1.55-2.44s-1-1.59-1.51-2.42-1-1.69-1.46-2.55c-.23-.41-.47-.81-.72-1.22l-.77-1.27c-.24-.41-.48-.82-.73-1.22s-.48-.84-.73-1.25-.48-.83-.73-1.24-.48-.8-.71-1.21-.33-.62-.47-.95a2.25,2.25,0,0,1-.08-.24.78.78,0,0,1,0-.14c0-.21,0-.42,0-.63s0-.69.08-1,.08-.71.09-1.07a10,10,0,0,0,0-1.45,13.94,13.94,0,0,0-.26-1.41,18.33,18.33,0,0,0-.85-2.82A27.25,27.25,0,0,0,51.28,76c-.22-.42-.45-.83-.66-1.25l-.35-.69,1.67-.21.84-.13c.28-.06.54-.12.81-.2.57-.17,1.14-.36,1.7-.55l.86-.29c.27-.09.55-.18.83-.29a8,8,0,0,0,1.25-.61l1-.62.33-.16h0a.46.46,0,0,0-.28-.87,6.1,6.1,0,0,0-.72.37c-.35.2-.68.43-1,.62a8.59,8.59,0,0,1-.87.4h0l-.11,0,.06,0c-.31.12-.63.22-.94.33l-1,.32c-.61.2-1.22.41-1.85.57s-1.26.2-1.89.28l-1.77.22-1,.07-1.06.06c-.7,0-1.41,0-2.11,0A9.46,9.46,0,0,1,44,73.32c-.41-.07-.81-.16-1.21-.25l-1.15-.27c-.76-.19-1.53-.36-2.29-.58a15.88,15.88,0,0,1-1.62-.62c-.55-.22-1.09-.46-1.63-.69l-1.66-.64c-.56-.21-1.13-.41-1.7-.59L31,69.15l-1.71-.47c-.56-.15-1.12-.31-1.69-.43l-.94-.17c-.31,0-.61-.08-.92-.11a14.59,14.59,0,0,0-1.87,0c-.59,0-1.17.08-1.76.14s-1.18.14-1.77.23-1.2.21-1.79.35h0a12.64,12.64,0,0,0-1.45.43c-.43.15-.86.34-1.27.53l-1.24.59c-.21.1-.42.21-.62.33l-.48.28-.31.15-.06,0H13l-.24-.13-.24-.17a2.5,2.5,0,0,1-.24-.22,7.75,7.75,0,0,1-.52-.62l-.5-.69-.54-.72h0c-.62-.85-1.17-1.73-1.74-2.61-.34-.54-.68-1.08-1-1.62s-.65-1-1-1.55c-.68-1-1.34-2.05-2-3.1-.34-.55-.65-1.1-1-1.64s-.67-1-1-1.48-.67-1-1-1.55-.62-1-1-1.44a.86.86,0,0,1-.07-.1l.09-.1c.26-.25.54-.48.8-.72s.57-.55.84-.85.58-.63.85-1a12.14,12.14,0,0,0,.78-1.1A13.27,13.27,0,0,0,5,48.45,17.54,17.54,0,0,0,6,46c.14-.42.28-.85.41-1.27s.27-.89.4-1.34c.25-.86.45-1.74.67-2.61.1-.41.21-.82.31-1.23s.18-.84.28-1.27.21-.93.3-1.4.16-.88.25-1.32.18-.87.26-1.31.16-.89.23-1.34.14-.85.22-1.27.2-.94.3-1.41c.2-.9.38-1.81.57-2.71s.41-1.73.65-2.6.49-1.79.75-2.68c.17-.58.37-1.14.58-1.7s.42-1,.64-1.53.35-.75.54-1.12.32-.65.51-1c.4-.69.81-1.37,1.23-2.06.29-.48.59-1,.92-1.42s.68-.93,1-1.39,1-1.12,1.48-1.66,1-1.09,1.55-1.6c.37-.36.74-.71,1.13-1s.78-.65,1.18-1A27.49,27.49,0,0,1,25.23,5c.46-.25.92-.48,1.39-.7L28,3.65,29.38,3l1.32-.56A23.6,23.6,0,0,1,33,1.78h0c.77-.18,1.54-.34,2.33-.45s1.66-.21,2.5-.3a28.58,28.58,0,0,1,3.7-.1c.3,0,.6,0,.9,0s.65.07,1,.13c.61.1,1.22.2,1.83.34s1.22.29,1.83.44l1.81.49c.58.15,1.15.31,1.72.48.39.12.78.24,1.17.38L53,3.66c.84.3,1.68.58,2.53.86s1.64.55,2.48.77l1.37.31c.43.1.87.17,1.31.25s.85.16,1.28.22l1.34.18c.43,0,.86.09,1.28.11s.87,0,1.3,0,.91,0,1.36-.09.92-.08,1.38-.14S69.49,6,69.92,6s.78-.12,1.17-.21a11,11,0,0,0,1.11-.35c.38-.14.76-.28,1.12-.44s.59-.26.87-.41.33-.18.49-.26a2,2,0,0,0,.14.3c.12.24.25.47.38.69s.33.52.51.77.37.49.56.73c.37.5.77,1,1.16,1.46s.75.94,1.1,1.42.71,1,1.08,1.57c.21.28.41.57.6.86l.53.82c.39.57.8,1.14,1.2,1.7l1.11,1.5c.31.43.61.86.9,1.3s.63.94.92,1.43l.8,1.38c.26.44.51.88.76,1.33s.37.68.55,1l.58,1.07c.36.69.74,1.37,1.12,2.05a6.36,6.36,0,0,1,.3.58c.09.18.16.36.24.54s.21.55.29.84c0,.11.07.22.1.33h0l-.13.13a.52.52,0,0,0-.11.1l-.24.24-.73.67-.76.69c-.54.47-1.12.89-1.65,1.37-.34.31-.67.64-1,1s-.63.63-.93,1c-.63.7-1.2,1.46-1.77,2.21a13.41,13.41,0,0,0-.8,1.17,8.55,8.55,0,0,0-.63,1.2c-.18.4-.33.81-.48,1.23s-.32.91-.46,1.37c-.27.87-.51,1.75-.73,2.63s-.41,1.83-.61,2.74c-.37,1.77-.63,3.56-.91,5.35a27.07,27.07,0,0,1-.7,3.06c-.2.64-.41,1.28-.64,1.91-.17.47-.33.94-.52,1.4a.44.44,0,0,0-.18.12.51.51,0,0,0-.11.39.2.2,0,0,0,0,.11,3,3,0,0,1-.16.31c-.06.13-.14.25-.21.37-.34.55-.68,1.1-1.06,1.63s-.75,1-1.14,1.54-.61.73-.92,1.08-.62.69-1,1-.43.37-.65.55-.48.41-.73.6l-.67.5-.62.5a6.49,6.49,0,0,1-.55.36,11.3,11.3,0,0,0-1.3.76.47.47,0,0,0-.14.63.49.49,0,0,0,.4.21.4.4,0,0,0,.23-.08c.19-.13.38-.25.58-.36A13.13,13.13,0,0,0,68.8,67c.35-.24.67-.54,1-.79l.5-.37.5-.41c.35-.29.7-.57,1-.89l.44-.46c.14-.14.27-.29.39-.43.59-.66,1.15-1.34,1.67-2s1-1.43,1.47-2.18h0a7.68,7.68,0,0,0,.54,1.45,10.27,10.27,0,0,0,.69,1.26c.27.4.55.78.85,1.15s.64.71,1,1a8.58,8.58,0,0,0,1,.95,10.65,10.65,0,0,0,1.26.74c.43.21.86.42,1.3.61a10.5,10.5,0,0,0,1.31.52c.4.13.81.23,1.21.35h0l.28.1.11.06.15.1a1.85,1.85,0,0,1,.14.14c.15.16.29.33.43.51.4.57.76,1.17,1.11,1.78L88.29,72h0v0h0v0h0l.13.23v0h0l0,0h0l.12.21v0h0l.15.27h0v0h0l.52,1c.43.86.78,1.75,1.2,2.62s.85,1.69,1.3,2.52l0,.09h0l0,0h0c.23.42.47.83.7,1.24q1.41,2.49,2.83,5a.42.42,0,0,0,.38.21.55.55,0,0,0,.25-.07.46.46,0,0,0,.13-.63l-.72-1.27L94,81.09c-.47-.83-.94-1.65-1.4-2.48v0l0-.08h0v0h0c-.22-.41-.44-.82-.65-1.23s-.43-.86-.64-1.29-.4-.85-.58-1.28-.38-.86-.61-1.28-.47-.88-.71-1.31l-.13-.23,0-.06h0l-.11-.19h0v0h0l-.2-.38c-.49-.85-1-1.71-1.48-2.55a9.45,9.45,0,0,0-.82-1.17,3,3,0,0,0-.63-.6,3.37,3.37,0,0,0-.38-.19l-.33-.12h0l-1-.27a12.91,12.91,0,0,1-1.46-.56l-1-.46c-.32-.16-.65-.32-1-.51a6.25,6.25,0,0,1-.6-.4c-.36-.31-.69-.64-1-1l-.54-.58-.5-.63a10.45,10.45,0,0,1-1.29-2.28,8.16,8.16,0,0,1-.26-.84c-.07-.33-.11-.66-.17-1,.16-.38.32-.78.46-1.17.31-.86.61-1.72.87-2.6a24.68,24.68,0,0,0,.64-2.67c.16-.88.28-1.78.42-2.66h0v0c.11-.68.22-1.35.35-2s.29-1.43.44-2.14.32-1.43.51-2.13.35-1.3.54-1.94a25.76,25.76,0,0,1,1-2.67c.09-.2.18-.4.29-.6l.33-.57c.53-.8,1.12-1.55,1.71-2.3.37-.45.74-.88,1.14-1.3s.74-.74,1.11-1.11.69-.62,1.06-.91.66-.53,1-.81l.94-.87c.16-.14.31-.27.46-.42l.34-.33h0l0,0a1.07,1.07,0,0,1,.16-.14.86.86,0,0,0,.14-.13.56.56,0,0,0,.13-.51c0-.12-.07-.24-.1-.37s-.06-.21-.1-.32a11.05,11.05,0,0,0-.52-1.35c-.13-.28-.28-.55-.43-.82L89,24.32h0l-.2-.36-1.23-2.28c-.4-.75-.82-1.48-1.25-2.22l-.65-1.12c-.23-.39-.48-.77-.73-1.15-.48-.73-1-1.44-1.51-2.14l0,0-.87-1.2c-.27-.38-.54-.75-.8-1.13s-.49-.73-.73-1.1-.5-.73-.76-1.09-.48-.71-.72-1.07c-.48-.7-1-1.36-1.55-2-.26-.34-.54-.66-.8-1l-.74-1a11.69,11.69,0,0,1-.73-1.15c-.08-.16-.16-.31-.23-.47a1.57,1.57,0,0,0-.2-.46.47.47,0,0,0-.42-.22.68.68,0,0,0-.28.07,7.73,7.73,0,0,0-.69.37,13.49,13.49,0,0,1-1.6.72,14,14,0,0,1-1.55.5c-.42.09-.85.15-1.28.21s-.93.13-1.4.18h.06c-.58.06-1.16.13-1.75.16s-1.09,0-1.63,0a25.19,25.19,0,0,1-2.87-.32l-1-.18L59.8,4.76c-.72-.15-1.44-.32-2.15-.52-1.74-.54-3.45-1.12-5.16-1.73-.8-.28-1.62-.54-2.44-.77l-1.28-.35L47.41,1c-.9-.23-1.8-.46-2.72-.63L43.32.16C42.89.09,42.44.06,42,0c-.82,0-1.64,0-2.46,0-.44,0-.89,0-1.33.07s-.93.1-1.4.15-.9.09-1.35.15-.89.14-1.33.23-.91.18-1.37.29-.86.21-1.28.33-.84.26-1.25.42-.78.32-1.17.49l-1.24.57c-.39.19-.78.36-1.18.53a23,23,0,0,0-2.32,1.18c-.39.23-.78.48-1.15.73s-.73.49-1.08.74a27.94,27.94,0,0,0-3.94,3.59c-.56.6-1.12,1.2-1.65,1.83-.27.33-.54.67-.79,1s-.51.7-.75,1.06c-.48.73-.92,1.49-1.37,2.24-.23.37-.45.74-.66,1.12s-.42.8-.62,1.21c-.37.76-.71,1.55-1,2.34s-.59,1.73-.84,2.61-.49,1.74-.72,2.62-.42,1.78-.61,2.68S8.74,30,8.54,30.94s-.32,1.81-.48,2.71-.33,1.72-.5,2.58c-.08.45-.16.9-.26,1.35L7,38.9c-.19.84-.41,1.67-.62,2.51-.11.45-.21.9-.33,1.34s-.24.84-.37,1.26-.33,1.06-.5,1.59-.34.95-.54,1.4a23.45,23.45,0,0,1-1.08,2.12,10.87,10.87,0,0,1-.74,1,17.4,17.4,0,0,1-1.36,1.49l-.88.8A4.05,4.05,0,0,0,.09,53h0a.49.49,0,0,0-.07.41s0,0,0,0a.5.5,0,0,0,0,.21A.45.45,0,0,0,.29,54l0,0c.18.24.35.5.51.76s.37.57.55.86c.36.57.73,1.13,1.11,1.69s.72,1.05,1,1.59.61,1,.93,1.53.67,1.08,1,1.61.66,1,1,1.49.7,1.11,1,1.67l1,1.5c.33.52.66,1,1,1.56s.71,1,1.08,1.48l0-.05c.28.38.54.77.85,1.12a5.44,5.44,0,0,0,.47.49,3.63,3.63,0,0,0,.55.39,1.57,1.57,0,0,0,.42.18,1,1,0,0,0,.54,0,5.61,5.61,0,0,0,1.09-.56c.43-.24.88-.45,1.33-.66l.83-.38a4.52,4.52,0,0,0-.11.53c-.05.25-.12.49-.18.74L16,73.13c-.12.51-.22,1-.32,1.55s-.18,1-.24,1.55-.12,1.27-.15,1.91c0,.31,0,.62,0,.92s0,.67,0,1c0,.61,0,1.22.07,1.82s.1,1.25.17,1.87v0h0s0,.09,0,.14a.17.17,0,0,1,0,.07l0,.22.06.51c0,.3.09.61.13.92.09.61.18,1.23.28,1.85s.23,1.27.39,1.89.33,1.21.52,1.8.4,1.21.63,1.81.46,1.14.7,1.71c.49,1.12,1,2.24,1.55,3.34s1.08,2.22,1.73,3.27c.31.5.63,1,1,1.47a1.86,1.86,0,0,0,.52.49,1.2,1.2,0,0,0,.51.15c.12,0,.24,0,.35,0l.39-.08a6.35,6.35,0,0,0,.7-.23c.54-.2,1.07-.44,1.59-.69.28-.14.55-.27.82-.42l.76-.44c.51-.27,1-.57,1.5-.85s.83-.43,1.24-.66.8-.46,1.19-.71.79-.48,1.19-.71.78-.48,1.18-.7h0l0,0h0c.22-.11.43-.23.64-.36l.62-.41a10.49,10.49,0,0,1,1.1-.73l.84-.44c.28-.14.56-.28.85-.4a6.87,6.87,0,0,1,.88-.27l.22,0H40l.07,0,.08,0,.15.09.12.08.08.07.12.15a1.67,1.67,0,0,1,.18.28c.09.16.17.33.25.5s.13.39.18.59.06.3.08.45,0,.34,0,.5a3.86,3.86,0,0,1-.06.49,4.56,4.56,0,0,1-.14.64c-.05.16-.12.33-.18.48s-.29.54-.44.8l-.46.8c-.08.12-.16.24-.25.35a13.4,13.4,0,0,1-1,1.1l-.09.1,0,0-.25.23-.53.45c-.39.31-.76.63-1.14,1s-.75.6-1.12.92l-1.34,1.13c-.44.37-.88.74-1.34,1.09-.23.18-.47.36-.69.56l-.64.62a7.45,7.45,0,0,0-.6.65l-.57.71c-.25.31-.5.61-.73.94A12.41,12.41,0,0,0,28,114.12a6.09,6.09,0,0,0-.25.83,6.64,6.64,0,0,0-.16.87,7.42,7.42,0,0,0-.06.94,3.53,3.53,0,0,0,0,.46c0,.15,0,.31,0,.47a11.48,11.48,0,0,0,.26,1.84,9,9,0,0,0,.25.89,7.32,7.32,0,0,0,.35.81,12.14,12.14,0,0,0,.95,1.59,11.89,11.89,0,0,0,1.15,1.4,16.23,16.23,0,0,0,1.36,1.26c.45.38.91.75,1.39,1.08s1,.67,1.49,1,1,.55,1.57.8l.87.38c.28.12.55.24.84.34a8.35,8.35,0,0,0,1.71.48,11.71,11.71,0,0,0,1.87.17l1.41,0a1.39,1.39,0,0,0,.12.28l.37.78c.28.58.55,1.16.82,1.74s.53,1.14.77,1.71.46,1.13.67,1.69h0l.77,2c.26.72.53,1.44.79,2.17s.48,1.41.7,2.12.4,1.4.58,2.1v0h0l.42,1.84c.14.59.25,1.18.36,1.77a2.49,2.49,0,0,0,.12.47.6.6,0,0,0,.57.35,5.05,5.05,0,0,0,.67-.06.44.44,0,0,0,.25.08h.07l.27,0,.19.29c.17.26.35.52.52.79l1.08,1.69c.36.56.74,1.12,1.12,1.67l.18.27a.55.55,0,0,0,0,.22.46.46,0,0,0,.43.38l.64.87.28.36a0,0,0,0,0,0,0,.45.45,0,0,0,.3.36l.25.3c.27.33.55.66.84,1s.6.65.92,1,.61.57.93.84a21.27,21.27,0,0,0,2,1.59c.71.49,1.44,1,2.19,1.39a25.79,25.79,0,0,0,2.34,1.2c.8.35,1.62.66,2.43,1s1.57.55,2.35.84L71,165c0,.16,0,.33,0,.49,0,.57,0,1.13,0,1.7s-.06.86-.12,1.29c0,.21-.07.42-.12.62s-.1.38-.16.56a10.38,10.38,0,0,1-.39,1.06,17.78,17.78,0,0,1-1,1.93c-.26.41-.53.8-.81,1.19-.39.55-.79,1.08-1.17,1.63s-.76,1.07-1.16,1.6-.78,1-1.16,1.54-.81,1.08-1.23,1.61-.82,1-1.22,1.47-.8,1-1.21,1.48L60,184.65c-.43.52-.86,1-1.3,1.53l-1.35,1.54c-.45.5-.88,1-1.32,1.52-.88,1-1.82,1.94-2.75,2.88s-1.92,1.93-2.89,2.89c-.49.48-1,1-1.44,1.46s-.88.92-1.33,1.37-1,1-1.47,1.46-.94.93-1.4,1.4c-1,1-1.89,2-2.81,3-.46.5-.91,1-1.38,1.51s-.87.93-1.29,1.42-.86,1-1.28,1.53-.86,1-1.29,1.53a16.18,16.18,0,0,0-1.07,1.4,1,1,0,0,0-.23.5.84.84,0,0,0,.26.59c.41.44.83.88,1.28,1.29s1,.89,1.43,1.35.65.7,1,1c0,0,0,0,0,0l.84.89c.46.47.91,1,1.39,1.41l.72.67.72.64,1.49,1.35c.49.44,1,.84,1.51,1.28s.94.86,1.42,1.29,1,.86,1.5,1.29,1,.87,1.44,1.29,1,.82,1.45,1.22a5.5,5.5,0,0,0,.75.51,6.65,6.65,0,0,0,.83.35,4.31,4.31,0,0,0,.59.16,4.35,4.35,0,0,0,.8,0h0c.59,0,1.17-.07,1.75-.12s1.25-.09,1.88-.16h0l.22,0,.29,0,.26,0c.6-.06,1.21-.1,1.81-.18l1.82-.22c.6-.07,1.2-.16,1.79-.25s1.09-.17,1.63-.23l.28,0h0l.15,0h0l1.17-.12h0l.38,0c.63-.05,1.26-.11,1.88-.2a12.47,12.47,0,0,0,1.82-.36l.8-.22a.6.6,0,0,0,.45-.38,1.41,1.41,0,0,0,0-.46v.06c0-.23,0-.46,0-.69s-.07-.68-.13-1c-.12-.64-.32-1.26-.47-1.9-.07-.31-.14-.62-.22-.93s-.16-.57-.25-.85-.2-.58-.32-.85-.24-.5-.37-.75a6.44,6.44,0,0,0-1.2-1.55,15.3,15.3,0,0,0-1.52-1.25c-.25-.18-.51-.35-.76-.51l-.52-.33c.56,0,1.13,0,1.69.06h1a5.7,5.7,0,0,0,1.09-.13,4.27,4.27,0,0,0,.9-.34,2.28,2.28,0,0,0,.73-.54,2,2,0,0,0,.38-.68,2.08,2.08,0,0,0-.19-1.69,1.48,1.48,0,0,0-.59-.6,1.63,1.63,0,0,0-.37-.13,1.56,1.56,0,0,0-.43,0,6.51,6.51,0,0,0-2,.29l-.14.05.09-.09,0,0a6.57,6.57,0,0,0,.55-.62,4.56,4.56,0,0,0,.49-.72,3,3,0,0,0,.26-.71,1.77,1.77,0,0,0,0-.76,1.22,1.22,0,0,0-.3-.6,1.35,1.35,0,0,0-1.34-.33,6.58,6.58,0,0,0-.89.28,5.32,5.32,0,0,0-1.48.85,4.09,4.09,0,0,0-.7.74,6.15,6.15,0,0,0-.37.52c-.15.23-.29.45-.42.69s-.26.48-.38.72-.21.43-.31.65l-.3.71c0,.08-.07.17-.1.26a.48.48,0,0,0-.19.35.21.21,0,0,0,0,.11l-.43-.19c-.48-.2-1-.38-1.45-.59l-.09,0,.3-.23a6.28,6.28,0,0,0,.54-.49c.32-.33.64-.66.93-1l1-1.16c.32-.36.64-.71,1-1.08s.81-1,1.24-1.42.94-1,1.4-1.47l1.37-1.47c.45-.48.88-1,1.32-1.46.9-1,1.77-2,2.64-3.07.44-.51.9-1,1.37-1.51l1.44-1.46c.48-.48,1-1,1.43-1.47s.91-1,1.35-1.49c.9-1,1.88-2,2.85-2.94l.06-.05.12-.12,0,0,.07-.07.23-.21.36-.34.74-.71c.46-.45.9-.9,1.36-1.34L86.66,186c.22-.22.44-.44.64-.66l.65-.75c.4-.47.81-.92,1.21-1.38l.16-.19c.44.77.88,1.53,1.33,2.29l.66,1.09.65,1.14v0c.33.62.66,1.25,1,1.88s.6,1.25.9,1.88.59,1.25.9,1.87l1,1.93c.8,1.53,1.52,3.1,2.22,4.68.35.79.7,1.58,1,2.38s.66,1.58,1,2.37c.43,1.13.83,2.27,1.25,3.41.28.76.53,1.54.78,2.31l.39,1.15c0,.15.09.29.15.44a1.39,1.39,0,0,0,.12.28.72.72,0,0,0,.35.27.81.81,0,0,0,.31,0h.25l.35-.06c0,.91.08,1.8.07,2.7l0,.57c-.06,1-.12,2-.14,2.94,0,.49,0,1,0,1.47v1.48c0,.51,0,1,0,1.51s0,.95,0,1.42,0,1,0,1.49c0,.26,0,.51.06.76a.62.62,0,0,0,.36.56.45.45,0,0,0,.16,0h.46l.59-.07c1-.1,1.89-.23,2.83-.37s1.88-.29,2.82-.39c.44,0,.89-.08,1.33-.1s1,0,1.46,0,.91,0,1.37,0,.91,0,1.37,0H117c.61,0,1.23,0,1.85,0h1.52l1.49,0h1.47l1.43,0,2.12.06c.47,0,.94,0,1.41,0s1,0,1.5,0l1.49,0h1.41c.49,0,1,0,1.47,0,1,0,2,0,3-.1.5,0,1-.12,1.49-.17L140,226l.18,0h0c.29,0,.57,0,.85-.09a1.08,1.08,0,0,0,.43-.13.6.6,0,0,0,.28-.48C141.75,225.17,141.74,225.06,141.73,225Zm-33.48-118.8h.09l.11,0,.42.2a2.93,2.93,0,0,1,.39.21c.33.21.65.44,1,.68l.9.67a7.15,7.15,0,0,1,.57.53,6.12,6.12,0,0,1,.4.49,5.6,5.6,0,0,1,.38.61,5.86,5.86,0,0,1,.26.57c.07.22.14.44.2.66s.09.46.12.69,0,.59,0,.89,0,.45,0,.67a6.2,6.2,0,0,1-.16.72c-.06.15-.12.3-.19.45s-.24.47-.38.7a8.87,8.87,0,0,1-.55.81c-.15.17-.31.33-.47.49a4.12,4.12,0,0,1-.4.33l-.35.22-.18.08-.07,0h-.08l0,0,0-.05,0-.09s0,0,0,0a.09.09,0,0,1,0-.05v-.08a.34.34,0,0,1,0-.1,2.79,2.79,0,0,1,.1-.39,4.28,4.28,0,0,1,.17-.46l.07-.15a.18.18,0,0,0,0-.07.46.46,0,0,0,.07-.07h0l.17-.14a.46.46,0,0,0-.59-.69l-.15.11a10.67,10.67,0,0,1-.91.57,11.57,11.57,0,0,1-1.34.62l-.52.17h-.06s0-.07,0-.1a1.16,1.16,0,0,1,0-.18.42.42,0,0,1,0-.1l0-.09.14-.19.44-.48c.23-.21.46-.42.7-.62l.69-.55a.47.47,0,0,0,0-.65.49.49,0,0,0-.3-.16.51.51,0,0,0-.34.11l-.35.26c-.31.22-.62.42-.94.61l-.07,0h0l-.19.1,0,0c-.38.21-.77.4-1.15.59s-.8.41-1.22.58l-.41.14,0-.08a.77.77,0,0,1,.1-.18,2.11,2.11,0,0,1,.21-.31c.08-.1.17-.19.26-.29a16,16,0,0,1,1.27-1l.5-.36.23-.17a1.34,1.34,0,0,0,.33-.3.45.45,0,0,0,0-.5.47.47,0,0,0-.46-.21,1.25,1.25,0,0,0-.4.2l-.3.17a7.93,7.93,0,0,1-.83.4l-.48.15-.64.11h-.3l-.28,0-.11,0h0a.76.76,0,0,0,0-.11.41.41,0,0,0,.05-.09,2.83,2.83,0,0,1,.2-.28c.15-.18.31-.35.47-.52l0,0h0l.13-.12c.21-.2.44-.38.67-.56l.76-.58.6-.42.31-.2a.9.9,0,0,0,.23-.2.44.44,0,0,0,.07-.35.47.47,0,0,0-.29-.36,1.83,1.83,0,0,0-.7,0l-.44,0q-.39,0-.78,0c-.23,0-.47,0-.7,0l-.25,0-.14,0,0,0,0,0,0-.1v-.12a1,1,0,0,1,0-.16.11.11,0,0,1,0,0,1.86,1.86,0,0,1,.1-.25,1.3,1.3,0,0,1,.08-.17L104,108a1.54,1.54,0,0,1,.17-.19c.11-.1.22-.2.34-.29l.38-.23a13.27,13.27,0,0,1,1.48-.69c.25-.09.5-.17.76-.24s.49-.1.74-.13ZM18.85,69.54h0l.39-.08Zm17.68,2.55h0l-.21.12Zm4.68,21.68a2.58,2.58,0,0,1-.4,0,2.49,2.49,0,0,1-.37-.09L40,93.47l-.54-.28a3,3,0,0,1-.36-.26c-.33-.27-.64-.55-1-.85s-.64-.58-.94-.89a6.77,6.77,0,0,1-.51-.56l-.48-.57c-.34-.41-.68-.81-1-1.23-.47-.65-.92-1.32-1.38-2l-.68-1c-.22-.31-.43-.63-.66-.93a2.48,2.48,0,0,0-.19-.26,1.6,1.6,0,0,0-.27-.25.55.55,0,0,0-.54-.07.83.83,0,0,0-.18.13h0l-.09.07a4,4,0,0,1-.43.29l-.19.09-.25.07c-.11,0-.23,0-.34.06h-.25l-.3,0L29.22,85,29,84.9l-.24-.12c-.13-.09-.25-.17-.37-.27a2.09,2.09,0,0,1-.22-.2c-.12-.13-.23-.27-.34-.41a8.48,8.48,0,0,1-.48-.74,8.65,8.65,0,0,1-.43-.93c-.08-.22-.15-.43-.21-.65a10.13,10.13,0,0,1-.18-1.08q0-.36,0-.72c0-.07,0-.13,0-.2a1.16,1.16,0,0,1,0-.18l0-.1.12-.23,0,0v0l0,0a1.46,1.46,0,0,1,.17-.24c0-.07.11-.13.17-.2l.18-.15.18-.15a1.48,1.48,0,0,0,.28-.33.76.76,0,0,0,.08-.49,3.18,3.18,0,0,0-.18-.6l-.19-.46c-.28-.64-.57-1.27-.82-1.91h0c-.14-.37-.28-.74-.39-1.12l.36.2c.26.17.51.36.75.55l.39.31h0l.09.07.71.56c.18.15.36.3.55.44l.54.43,0,0,.14.11,0,0c.22.18.44.4.74.34l.31-.07a6.81,6.81,0,0,0,1-.47c.41-.21.82-.44,1.22-.67l.6-.37.54-.31c.46-.24.93-.45,1.4-.69.23-.12.47-.24.7-.38s.4-.27.61-.39.46-.23.7-.33h.18l.4.16.79.29.87.24.88.21.81.2.86.2.89.21a.76.76,0,0,1,.16,0,1.39,1.39,0,0,0-.08.46.92.92,0,0,0,.71.91l.26,0a.78.78,0,0,0,.63-.25.9.9,0,0,0,.17-.68.79.79,0,0,0-.08-.26h.59l1.17,0c.59,0,1.18-.06,1.76-.09l.78-.06c.19.35.36.71.54,1.06l.64,1.22A26.65,26.65,0,0,1,51.69,79c.27.74.5,1.49.7,2.26A17,17,0,0,1,52.71,83c0,.32,0,.63,0,1s0,.52,0,.78-.06.52-.09.78l0,.52a.29.29,0,0,0,0,.1v0c0,.13-.05.26-.08.39l0,.08-.15.27a3.71,3.71,0,0,1-.23.32,8.09,8.09,0,0,1-.57.61c-.21.2-.45.39-.67.59a2.62,2.62,0,0,0-.25.22.44.44,0,0,0-.11.38.47.47,0,0,0,.24.33.35.35,0,0,0,.2.05.9.9,0,0,0,.5-.24l.36-.28a6.65,6.65,0,0,1,.56-.36l.19-.1.12,0,.27,0H53l.07,0h0c.22.42.46.82.71,1.23.5.84,1,1.68,1.48,2.53L56,93.37c.25.41.48.83.74,1.24s.52.84.76,1.26l.09.15,0,0c-.08.12-.15.27-.23.4a2.61,2.61,0,0,1-.19.27,6.66,6.66,0,0,1-.63.67,4.33,4.33,0,0,1-.47.4l-.22.15c-.47.25-1,.47-1.44.72s-1,.51-1.49.72l-.32.1c-.44.09-.89.15-1.34.2h0a10.44,10.44,0,0,1-1.25,0c-.34,0-.68-.07-1-.12a8.89,8.89,0,0,1-1-.23l-.4-.14-.66-.34-.38-.27a3.65,3.65,0,0,1-.3-.27c-.06-.06-.11-.13-.17-.2s-.2-.3-.3-.47a6.11,6.11,0,0,1-.27-.58,5.6,5.6,0,0,1-.17-.54c0-.14-.05-.29-.07-.44s0-.48,0-.72,0-.29,0-.44.07-.28.11-.42a3.65,3.65,0,0,1,.14-.35c.17-.35.37-.69.57-1l.12-.18a1.16,1.16,0,0,0,.13-.22.53.53,0,0,0-.24-.64.48.48,0,0,0-.26-.07,1.5,1.5,0,0,0-.59.18c-.33.17-.64.38-1,.57s-.64.39-1,.57l-.37.18-.36.11-.45.08A7.86,7.86,0,0,1,41.21,93.77Zm87.52,117.07c.14-.38.27-.77.38-1.15l0-.08.26-.36.17-.25v0l0,0h0l.08-.1.09-.11.09-.11a.27.27,0,0,1,.07-.08l0,0,.08-.1h0l.44-.48c0-.06.12-.12.18-.18l.19-.19.4-.33.29-.18a.8.8,0,0,1,.16-.08l.13,0H132l.05,0,0,0,0,0,.06.06s0,0,.05,0a.57.57,0,0,1,.08.13.47.47,0,0,1,.05.1l0,.1,0,.18a1.34,1.34,0,0,1,0,.2c0,.11,0,.23,0,.34l-.09.38a4.52,4.52,0,0,1-.18.47c-.08.17-.17.33-.27.5s-.35.5-.54.75l-.26.3-.24.25-.26.23-.27.21c-.29.2-.57.38-.87.55a6.45,6.45,0,0,1-.59.29c-.23.08-.46.14-.69.2l-.2,0,.21-.4A9.08,9.08,0,0,0,128.73,210.84Zm-2-1.2c0-.09,0-.18,0-.26l.06-.54c0-.26.09-.51.15-.76s.13-.52.2-.77.11-.3.17-.46.09-.22.14-.34.12-.24.19-.36l.13-.18.08-.09a.1.1,0,0,1,.05,0l0,0,0,0,.06,0h.18l0,0,0,0a.47.47,0,0,1,.06.09l.09.18c0,.16.1.33.14.5s.05.27.07.41a2.81,2.81,0,0,1,0,.29c0,.34-.07.67-.12,1s-.09.45-.14.68-.07.24-.1.37-.19.29-.27.44-.21.39-.31.58-.17.37-.25.55l-.23.53-.18.47-.06,0v0c0-.16-.1-.31-.14-.47a5.35,5.35,0,0,1-.11-.68,5.49,5.49,0,0,1,0-.81C126.67,209.82,126.68,209.73,126.68,209.64ZM81.51,139.46l.15-.83c.16-.94.32-1.89.43-2.84.06-.54.11-1.08.14-1.62.14.23.28.46.43.69.89,1.46,1.83,2.89,2.71,4.36l.74,1.2c.22.36.46.71.69,1.05.51.74,1,1.48,1.51,2.23s.93,1.48,1.37,2.22.93,1.5,1.4,2.24c1,1.55,1.86,3.14,2.75,4.74h0c.77,1.41,1.58,2.79,2.35,4.19s1.64,3,2.5,4.48c.43.74.86,1.48,1.3,2.22s.88,1.5,1.3,2.26.73,1.32,1.11,2,.79,1.33,1.18,2,.8,1.36,1.19,2l1.09,2c.39.71.77,1.43,1.17,2.14s.79,1.41,1.18,2.11c.6,1.11,1.18,2.22,1.81,3.31s1.26,2.11,1.89,3.17c.47.8,1,1.59,1.43,2.37s.9,1.51,1.35,2.25.94,1.52,1.4,2.28.89,1.52,1.32,2.29q1.13,2.06,2.19,4.14c.35.68.69,1.36,1,2s.69,1.31,1.05,2h0c.08.14.16.29.25.43.23.43.44.87.65,1.31.08.17.16.34.25.51a.61.61,0,0,0,.07.14.5.5,0,0,0,0,.21,17.93,17.93,0,0,0-1.9.55c-.88.31-1.71.7-2.56,1-.33.13-.65.25-1,.35l-1,.31-.59.18a.39.39,0,0,0-.07-.23c-.11-.17-.22-.35-.31-.52h0v0c-.25-.47-.48-.95-.74-1.42l-.81-1.51c-.57-1-1.16-2.07-1.73-3.1h0l-.66-1.21-.8-1.48c-.26-.48-.52-.95-.79-1.42-.53-.93-1.06-1.87-1.62-2.79q-.57-.93-1.11-1.89c-.37-.66-.75-1.32-1.13-2-.75-1.28-1.48-2.57-2.25-3.83s-1.52-2.54-2.32-3.78c-.4-.62-.79-1.23-1.16-1.85s-.73-1.25-1.1-1.88c-.74-1.26-1.44-2.56-2.19-3.82-.35-.6-.72-1.19-1.08-1.78s-.79-1.32-1.2-2-.72-1.22-1.06-1.84-.73-1.32-1.1-2-.7-1.24-1-1.86-.74-1.3-1.1-1.95c-.73-1.31-1.48-2.6-2.21-3.9-.34-.62-.69-1.23-1-1.84s-.69-1.2-1-1.8-.61-1.18-.93-1.76-.6-1-.89-1.57h0v0l-.16-.29-1-1.9c-.34-.63-.68-1.26-1.06-1.87l-1.33-2.17a.52.52,0,0,0,0-.18c0-.15,0-.31,0-.47.11-.95.21-1.9.31-2.85S81.36,140.43,81.51,139.46Zm-.19-5.6a30.27,30.27,0,0,1-.4,3.67h0v0h0c-.14.8-.29,1.6-.41,2.4-.07.49-.14,1-.19,1.46s-.11,1-.16,1.44L80,144.28c0,.11,0,.22,0,.33l-.07-.11c-.18-.29-.35-.59-.53-.87l-.55-.86-1-1.7c-.35-.56-.7-1.11-1.09-1.65l-.62-.88-.31-.42-.12-.14c.55-.4,1.1-.81,1.63-1.23s.76-.61,1.14-.93.74-.6,1.12-.9.72-.58,1.09-.86l.72-.54C81.33,133.64,81.33,133.75,81.32,133.86ZM57,148.39h0l0,0a18.67,18.67,0,0,1-1.07-1.7l0,0c.35-.19.69-.4,1-.61,0,.06.05.11.08.16l.18.36c.12.2.23.42.36.62.23.37.47.74.73,1.09l-.89.45-.29.15a.54.54,0,0,0,0-.1A.47.47,0,0,0,57,148.39Zm1-2.33c-.09-.18-.19-.36-.27-.55.58-.36,1.14-.74,1.71-1.1l1.16-.7c.41-.25.81-.52,1.21-.78s.81-.52,1.23-.77l1.22-.71c.49-.29.95-.62,1.43-.93a.44.44,0,0,0,.16.1c.2.29.38.59.55.89s.35.61.54.9a.46.46,0,0,0,.39.21.42.42,0,0,0,.24-.07.45.45,0,0,0,.14-.63c-.31-.46-.56-.95-.84-1.42l-.21-.31a1.43,1.43,0,0,0-.14-.2h0q.58-.34,1.17-.72c.09.18.19.34.28.51l.39.71c.23.39.45.77.7,1.15l-.33.22c-.39.26-.79.51-1.19.76l-1.23.79c-.82.53-1.65,1-2.5,1.55l-1.19.69-1.26.74-1.22.77c-.34.22-.68.44-1,.65l-.21-.27A17.1,17.1,0,0,1,57.92,146.06Zm10.94-6.44h0v0h0c-.09-.15-.17-.3-.25-.45s-.14-.25-.2-.38l.41-.27,1.2-.79,1.14-.7,1.2-.74c.41-.25.8-.52,1.19-.79s.79-.48,1.18-.73.66-.44,1-.67c.16.32.33.63.49.94l.3.56c.08.15.15.29.24.43l-1.06.81-2.39,1.74-1.15.81-1.1.79-1.2.87-.1.07C69.42,140.62,69.14,140.12,68.86,139.62Zm7.6-6.07c.17-.12.35-.23.53-.34l.61-.38.17.33c.21.41.41.83.63,1.24a.44.44,0,0,0,.12.15l-.64.52-.43.36-.09-.16h0C77.06,134.71,76.77,134.13,76.46,133.55Zm3.74-2.32,0,0,.32.45.61.86-1,.75c-.31.24-.62.48-.92.73-.19-.35-.36-.7-.54-1.05l-.3-.59,1-.61Zm20.3-39.36ZM50.12,127.66a6.5,6.5,0,0,0,.25-.61c.13-.36.26-.72.36-1.1.18-.75.35-1.51.5-2.28.19-.94.3-1.9.43-2.85l.18-1.38c.06-.49.12-1,.17-1.47l.12-1.47c0-.49.08-1,.09-1.48s0-1,0-1.44-.1-.91-.16-1.36c0,0,0-.09,0-.13l.4,0c.61-.08,1.22-.17,1.82-.31s1.27-.32,1.91-.49,1.25-.32,1.87-.5,1.21-.34,1.81-.53,1.22-.41,1.82-.64c1.2-.46,2.42-.89,3.6-1.38.62-.25,1.24-.49,1.85-.75s1.16-.51,1.73-.79,1.1-.58,1.64-.89l1.65-1c1-.63,2.09-1.29,3.11-2s2.1-1.41,3.12-2.16h0l0,0,0,0h0l0,0,0,0,0,0h0l.75-.57c.46-.35.89-.73,1.34-1.09s1-.76,1.42-1.18.87-.8,1.28-1.22.8-.91,1.24-1.34l.12-.12h0l0,0c.42-.4.85-.8,1.23-1.23.21-.23.4-.47.6-.71s.37-.44.55-.67c.37-.47.73-1,1.11-1.43s.72-.93,1.09-1.39l.61-.74c.21-.25.42-.51.65-.75l.32-.28.39-.25,0,0v0l0,0a.5.5,0,0,0,0,.12v.19a1.73,1.73,0,0,1,0,.32,4.66,4.66,0,0,1-.15.62c-.1.31-.22.62-.35.93s-.33.65-.5,1l-.48.94-.48.88c-.17.31-.34.61-.52.91l-.28.44a.41.41,0,0,1-.05.09,1.81,1.81,0,0,0-.19.29.45.45,0,0,0,.69.56.74.74,0,0,0,.16-.19l.06-.09c.27-.33.56-.65.84-1s.61-.69.93-1c.64-.65,1.29-1.28,1.94-1.91.23-.22.45-.43.69-.64l.73-.64c.23-.21.46-.41.7-.6s.5-.41.76-.6.32-.24.48-.34l.44-.27.38-.17a2,2,0,0,1,.34-.12l0,.06,0,.12c-.06.12-.13.24-.2.36s-.21.32-.32.48-.25.33-.38.5l-.89,1c-.32.36-.62.73-.93,1.1L93.79,92l-.13.16c-.24.28-.48.56-.71.85h0c-.09.11-.18.22-.26.34a.48.48,0,0,0,0,.45.5.5,0,0,0,.31.26c.35.09.57-.27.75-.5s.37-.46.55-.7c.79-.91,1.61-1.79,2.48-2.63l.55-.51c.17-.15.35-.29.53-.42a5.14,5.14,0,0,1,.54-.37,7.08,7.08,0,0,1,.68-.32,5.18,5.18,0,0,1,.56-.17l.16,0h.29v0h0v.06s0,.07,0,.11a.45.45,0,0,0,0,.11l0,.12-.12.32a4.67,4.67,0,0,1-.27.49c-.17.26-.35.51-.55.76s-.38.48-.59.7l-.49.51a4.84,4.84,0,0,0-.46.33c-.48.38-.92.82-1.37,1.25s-1,.94-1.45,1.43l-.34.31-.54.53-.24.26a1.23,1.23,0,0,0-.26.34.46.46,0,0,0,.17.53.47.47,0,0,0,.56,0c.21-.2.41-.42.62-.63l.55-.56,0,0c.36-.34.74-.67,1.11-1l1.32-1.21c.28-.25.57-.51.84-.77l.08,0,.41-.19.44-.13a6.63,6.63,0,0,1,.75-.15h.19l.07,0,.06,0h0l0,0h0a.61.61,0,0,1-.05.12c0,.12-.12.23-.18.35a8.05,8.05,0,0,1-.49.66,20.25,20.25,0,0,1-1.38,1.56l0,0-.13.11c-.46.45-1,.86-1.43,1.3s-.94.88-1.4,1.33h0l-.94.88c-.14.14-.28.27-.4.41A1.58,1.58,0,0,0,94,99a.47.47,0,0,0,.22.57.56.56,0,0,0,.62-.12c.14-.1.27-.22.4-.33s.53-.43.81-.64a8,8,0,0,1,.78-.51l.36-.17a6.83,6.83,0,0,1,.73-.23,9.7,9.7,0,0,1,1-.2h.1v0h0a.13.13,0,0,1,0,.06v.21a.49.49,0,0,1,0,.12s0,0,0,.07l-.12.31a6,6,0,0,1-.3.56,23.22,23.22,0,0,1-1.41,2c-.32.38-.65.74-1,1.11s-.86,1-1.3,1.4-.8.85-1.21,1.26-.82.83-1.24,1.24-.81.84-1.23,1.24h0a31.24,31.24,0,0,1-2.48,2.1c-.42.33-.84.68-1.27,1l-1.28,1,0,0c-.82.6-1.66,1.17-2.49,1.77s-1.65,1.19-2.46,1.79h0q-.7.51-1.44,1c-1,.67-2.07,1.27-3.11,1.89l-1.5.9c-.51.3-1,.61-1.52.89s-.83.45-1.26.66-.83.43-1.25.63-1.09.49-1.64.74-1.09.49-1.63.75l-1.52.68-1.57.64h0l0,0h0q-1.48.57-3,1.11c-.51.18-1,.36-1.52.52l-1.4.4-1.7.47c-.57.16-1.13.36-1.7.54l-.79.27-.88.29c-.28.09-.56.15-.84.23s-.51.15-.77.21l-1.35.33-.92.26C50,127.92,50.06,127.78,50.12,127.66Zm1.64,20-.2.07a1.4,1.4,0,0,0-.5,0l-.75.1c-.05-.26-.09-.53-.14-.79l-.27-1.21c-.19-.82-.37-1.65-.58-2.46-.11-.43-.22-.86-.35-1.28l-.39-1.2c-.27-.81-.55-1.62-.85-2.42-.59-1.58-1.17-3.17-1.82-4.73-.32-.79-.69-1.55-1-2.31l-.51-1.09-.27-.57a.21.21,0,0,0,0-.06l.6,0h.21c.36,0,.72,0,1.08-.08a.86.86,0,0,0,.17,0h.06a2.58,2.58,0,0,0,.39,0l.55-.1.79-.16.75-.13a12,12,0,0,0,1.68-.36c.54-.16,1.09-.3,1.64-.44.26-.06.51-.11.76-.18l.81-.23a7.1,7.1,0,0,0,.79-.22l.83-.28c.52-.18,1-.36,1.57-.52s1.07-.31,1.61-.46l.85-.25c.26-.07.52-.13.78-.21.59-.17,1.17-.37,1.74-.57,1.17-.4,2.32-.84,3.47-1.29.82-.31,1.65-.64,2.45-1l1.4-.65,1.26-.57,1.67-.76,1.32-.68,0,0c.09.19.2.37.3.55s.29.49.44.73l.9,1.45c.31.51.62,1,.94,1.53s.63.93.95,1.39l1.51,2.15.7,1,.67,1-.64.39-1.11.69-.12.08a.48.48,0,0,0-.31.07.45.45,0,0,0-.19.24l-.6.36c-.77.47-1.5,1-2.26,1.53-.4.26-.82.49-1.21.75s-.78.53-1.17.79l-1.17.72-1.19.73c-.78.49-1.55,1-2.32,1.51l-1.19.74-.63.37-.55.37c-.38.26-.76.52-1.15.76l-1.18.69c-.41.24-.83.49-1.23.75l-1.21.79c-.38.24-.77.46-1.16.7l-1.19.77-1.24.79c-.39.24-.78.48-1.18.71l-.56.29-.59.28c-.38.2-.74.44-1.11.65s-.48.25-.73.36S52,147.56,51.76,147.66Zm1.83,2.83c-.36-.56-.71-1.12-1.08-1.67l-.25-.38c.22-.08.43-.17.64-.27s.63-.3.92-.47.54-.34.82-.49c.12-.07.25-.13.38-.19l.19.32c.11.2.23.39.34.58.23.37.46.72.71,1.06a.41.41,0,0,0,.21.14c-.22.11-.43.24-.64.35s-.43.23-.65.33l-.71.3-.66.29Zm2.86,4.11,0,0-.54-.71-.14-.2.1-.06c.34-.22.67-.45,1-.66s.42-.2.63-.3l.65-.38c.37-.23.75-.47,1.13-.69.22-.11.43-.23.65-.36l.1.18c.17.29.33.58.51.86-.56.38-1.13.75-1.72,1.09h0l-.84.47-1,.51Zm8.43,6.18c0,.27,0,.54,0,.81l-.59-.31-1.39-.8h0c-.36-.23-.72-.45-1.07-.69l-1-.73c-.82-.67-1.61-1.36-2.37-2.1-.49-.52-1-1.06-1.43-1.61l.48-.25c.22-.1.44-.19.65-.31l.63-.34.69-.38.64-.4.6-.39.33-.22.79,1.15c.27.39.54.79.8,1.2l.77,1.17.8,1.14c.23.33.47.66.67,1h0l0,.09s0,.08,0,.13c0,.27,0,.54,0,.81S64.89,160.44,64.88,160.78Zm5.35,50.74c.24-.05.48-.08.72-.11s.44,0,.66,0l.2,0h.08l0,0,0,0,0,0a1.47,1.47,0,0,1,.1.13l.08.12,0,.09s0,.1,0,.15l0,.14v.17a1.1,1.1,0,0,1,0,.18c0,.07,0,.13,0,.2a.36.36,0,0,1,0,.09l-.06.12,0,.07-.09.1-.11.09a2.61,2.61,0,0,1-.28.17l-.34.16-.35.11-.52.08a12.18,12.18,0,0,1-1.48,0l-1,0h0c-.46,0-.92,0-1.38-.08l-1.24-.15.38-.14.53-.23.76-.34.91-.4.76-.31C69.2,211.84,69.71,211.66,70.23,211.52ZM69.84,208h0Zm-.3-.09h0Zm-4.12,4,.36-.76c.13-.26.28-.51.42-.77a10.75,10.75,0,0,1,.67-1c.09-.11.19-.22.29-.32l.35-.29a4.62,4.62,0,0,1,.55-.35l.45-.22a6.75,6.75,0,0,1,.76-.25l.24,0h.16l.07,0h.05l0,0h0l0,0,0,0,0,.06,0,.05s0,.06,0,.08a.34.34,0,0,1,0,.1s0,.1,0,.16a.94.94,0,0,1,0,.16,2.77,2.77,0,0,1-.1.26c0,.1-.1.2-.16.3s-.19.28-.29.41l-.46.51h0l-.31.3h0c-.14.13-.3.26-.45.38s-.32.26-.49.39l-.64.42c-.18.12-.38.23-.57.34a8.67,8.67,0,0,1-.82.38l-.4.14C65.27,212.25,65.35,212.07,65.42,211.88Zm-1.94,1.78.85.4.89.42c.6.29,1.19.59,1.76.93h0l1,.65c.31.22.61.46.91.7a8.53,8.53,0,0,1,.77.7c.18.19.34.39.51.6s.22.33.32.5h0v0h0a.25.25,0,0,0,0,.07v0l0,0h0a9.3,9.3,0,0,1,.43.9h0c.16.47.31.94.44,1.42s.16.75.26,1.12.17.64.25,1,.11.48.15.72.06.45.08.68h0a4.36,4.36,0,0,1,0,.51v0h0v.13h0l-.21.05-.81.22a17,17,0,0,1-2.25.34h0l-2.33.24h-.24l-.71.08-.69.1-1.6.24c-.49.07-1,.12-1.49.18s-1,.13-1.49.18l-1.82.17h.06a2.48,2.48,0,0,0-.27,0h0l-1.95.16c-.33,0-.66.07-1,.09s-.57,0-.86,0l-.36,0-.35-.08c-.18-.06-.37-.13-.55-.21a2.31,2.31,0,0,1-.35-.18,3.14,3.14,0,0,1-.48-.33h0l0,0h0c-.42-.35-.85-.69-1.26-1.06s-.8-.71-1.2-1.07l-1.31-1.13c-.43-.36-.85-.74-1.26-1.12s-1-.86-1.46-1.28-1-.84-1.46-1.27l-1.5-1.35c-.48-.43-.95-.88-1.4-1.34s-1.1-1.17-1.66-1.75l-.78-.83c-.25-.26-.52-.51-.78-.76l-.84-.77q-.37-.34-.72-.72l-.33-.35,0,0,.2-.28c.14-.2.28-.39.43-.58.33-.41.68-.8,1-1.2s.73-.89,1.1-1.34.84-1,1.28-1.49.88-.94,1.3-1.41c.9-1,1.8-2,2.73-2.94l1.76-1.78.05,0,.31.33c.23.25.47.49.7.73s.63.68.95,1,.65.68,1,1l1,.9,1,.95c.7.65,1.46,1.22,2.2,1.83l.31.25.16.13.15.12.57.45,2.33,1.79c.39.3.77.59,1.18.86a9.71,9.71,0,0,0,1.27.69l0,0,.15.07h0l1,.4.52.2a.61.61,0,0,0,.05.18.8.8,0,0,0,.36.32C62,213.1,62.77,213.34,63.48,213.66ZM88.76,182.3c-.15.19-.31.37-.48.55-.4.46-.81.92-1.21,1.39-.22.26-.45.52-.69.77s-.45.45-.67.67c-1,.92-1.89,1.86-2.84,2.78l-.84.79-.21.21-.11.1-.06.05v0l0,0h0v0l-.18.17-.33.33c-.5.49-1,1-1.49,1.5s-.93,1-1.38,1.53-.92,1-1.39,1.48l-1.38,1.41c-.5.5-1,1-1.48,1.52s-.88,1-1.31,1.51c-.86,1-1.74,2-2.63,3-.46.52-.92,1-1.39,1.53s-.91,1-1.37,1.47-.88.89-1.29,1.36-.87,1-1.31,1.53-.86.95-1.28,1.44-.81.93-1.25,1.37a7.34,7.34,0,0,1-.6.51l-.15.1c-.55-.19-1.09-.41-1.62-.64h0l-.14-.06h0a8.07,8.07,0,0,1-.87-.46c-.38-.24-.74-.5-1.11-.78l-1.06-.8c-.73-.57-1.46-1.13-2.18-1.71l0,0-.17-.14h0l-1.3-1c-.39-.31-.76-.63-1.13-1l-1-1c-.35-.32-.71-.63-1.05-1s-.68-.67-1-1c-.46-.5-.93-1-1.4-1.48l-.34-.36-.22-.22.47-.47c.49-.48,1-1,1.46-1.45l1.4-1.45c.45-.47.91-.92,1.37-1.37L53,193.68c1-1,1.94-1.94,2.88-2.94.46-.49.9-1,1.34-1.5s.86-1,1.3-1.48l1.37-1.56c.41-.49.81-1,1.23-1.47s.89-1,1.32-1.57.84-1,1.28-1.55.89-1.08,1.32-1.64l1.16-1.57c.4-.51.8-1,1.18-1.55l1.15-1.62c.41-.57.82-1.13,1.22-1.71a15.71,15.71,0,0,0,1-1.69,11.77,11.77,0,0,0,.74-1.75,9.67,9.67,0,0,0,.27-1c.06-.34.11-.68.16-1a13.41,13.41,0,0,0,.07-1.9c0-.29,0-.57,0-.85l.87.36q.53.24,1,.51c.33.18.66.37,1,.57l1.14.71,1.22.78q1.14.75,2.19,1.59l.86.74.32.3a5.23,5.23,0,0,1,0,.56v-.06s0,.07,0,.1v.06a6,6,0,0,1-.08.74,10,10,0,0,1-.27,1.08c-.07.22-.14.45-.22.67s-.17.41-.26.62-.24.5-.38.75l-.45.77c-.33.51-.67,1-1,1.5s-.73.94-1.1,1.41h0v0h0c-.52.65-1,1.3-1.57,1.93s-1.18,1.35-1.77,2l-1,1.11-.89,1.06c-.65.79-1.3,1.57-1.93,2.38l0,0c-.39.48-.78,1-1.19,1.43s-.87.94-1.3,1.42-.62.69-.92,1-.65.73-1,1.09c-.67.74-1.32,1.5-2,2.27-.31.38-.63.76-.95,1.13s-.66.68-1,1-.63.75-.94,1.12l-.87,1.1-.79,1-.6.74a.46.46,0,0,0,0,.64.47.47,0,0,0,.32.12.41.41,0,0,0,.32-.15c.36-.43.71-.87,1.06-1.31l.93-1.17,1.07-1.3c.35-.41.74-.79,1.1-1.2.66-.74,1.27-1.52,1.92-2.27s1.31-1.45,2-2.19l.93-1.05,1-1.1c.35-.39.7-.79,1-1.19l.91-1.14c1-1.2,1.94-2.39,3-3.55.63-.72,1.27-1.42,1.89-2.15s1.26-1.51,1.87-2.27,1-1.28,1.5-1.95q.34-.48.66-1c.2-.33.41-.67.6-1a11.38,11.38,0,0,0,.64-1.37c.08-.23.15-.46.23-.69s.14-.47.2-.71.11-.51.15-.78c0-.12,0-.24,0-.37v0c.28.29.55.59.82.89s.59.65.87,1c.57.69,1.11,1.4,1.65,2.12.65.9,1.3,1.81,1.91,2.75.48.74.93,1.51,1.38,2.28l.78,1.35Zm15.5,29.09a7,7,0,0,1-.8.14h-.06c-.1-.28-.18-.56-.28-.83l-.39-1.21-.41-1.2c-.14-.41-.3-.82-.45-1.23-.29-.8-.56-1.61-.87-2.4s-.63-1.61-1-2.4-.68-1.58-1-2.37-.72-1.64-1.1-2.45-.72-1.53-1.1-2.28-.84-1.58-1.24-2.38-.76-1.56-1.13-2.35-.76-1.57-1.16-2.34-.85-1.57-1.3-2.34-.9-1.49-1.33-2.24-.84-1.48-1.27-2.22S88.48,179.75,88,179s-.89-1.4-1.36-2.08-1-1.4-1.5-2.08-1-1.33-1.54-2-1.15-1.3-1.75-1.92l0,0-.31-.33,0,.05-.22-.23s0-.06,0-.1a.47.47,0,0,0-.47-.39h0l-.66-.58c-.53-.44-1.08-.86-1.64-1.26s-1.12-.77-1.69-1.13-1.1-.7-1.65-1c-.38-.23-.76-.45-1.16-.66s-.75-.37-1.14-.54l-1.1-.46a.45.45,0,0,0-.2-.23.53.53,0,0,0-.35,0l0,0-.72-.27c-.82-.31-1.66-.59-2.48-.89s-1.56-.6-2.32-.92h0a.85.85,0,0,0,0-.17c0-.29,0-.59,0-.88l0-.52a9.48,9.48,0,0,0,0-1.41,1.81,1.81,0,0,0-.2-.79c-.1-.17-.21-.34-.32-.51-.51-.76-1.06-1.49-1.56-2.26l-.78-1.2c-.26-.39-.54-.77-.8-1.15s-.54-.79-.8-1.2-.48-.78-.71-1.19l-.08-.16v0a.45.45,0,0,0-.52-.37.39.39,0,0,0-.24.12.4.4,0,0,0-.18.07l-.57.33-.51.28-.47.29c-.3.19-.61.37-.92.55-.16.09-.33.16-.5.24s-.4.22-.59.34-.56.38-.85.56l0,0-1.1-1.65.35-.16.77-.32.81-.38.69-.38,1.36-.7c.44-.22.87-.43,1.3-.67s.81-.5,1.22-.76c.81-.52,1.63-1,2.47-1.51.4-.23.8-.45,1.2-.69l1.26-.76,1.22-.77,1.26-.82c.39-.25.79-.49,1.18-.76s.79-.54,1.18-.82c.76-.55,1.52-1.11,2.29-1.65l1.14-.81,1.1-.79.32.4.68,1c.22.31.44.62.65.94.41.65.8,1.31,1.21,2s.71,1.11,1.06,1.68.73,1.2,1.1,1.8L81,148l.54.88.5.88L83.21,152l1.2,2.14h0l.73,1.37c.25.47.51.94.78,1.4.51.9,1,1.8,1.52,2.7.74,1.3,1.48,2.59,2.21,3.9l1.1,2c.36.61.71,1.23,1.06,1.85l1.09,2c.35.62.69,1.24,1.06,1.84s.81,1.31,1.21,2,.72,1.19,1.07,1.78c.75,1.27,1.45,2.56,2.19,3.83l1.1,1.87c.37.63.77,1.24,1.16,1.85.8,1.25,1.56,2.51,2.33,3.78s1.49,2.56,2.24,3.83c.38.66.76,1.31,1.13,2s.74,1.26,1.12,1.89.73,1.24,1.09,1.87.71,1.24,1.06,1.87l0,.05,0,0c.4.76.81,1.52,1.22,2.27v0l.88,1.61c.3.53.6,1,.9,1.59h0l.69,1.26.67,1.25c.31.59.59,1.21,1,1.77h0l-.69.26c-1.39.54-2.76,1.16-4.14,1.72-1,.39-2.12.73-3.17,1.13l.06,0-.16.06h0l-.13.05h0A23.82,23.82,0,0,1,104.26,211.39Zm36.12,13.66-.33,0-2.84.32c-.67.06-1.34.08-2,.09s-1.38,0-2.06,0c-1,0-1.93,0-2.9,0l-1.5,0c-.48,0-1,0-1.43,0l-1.66,0h.06l-1.38-.05h-1.42q-.73,0-1.47,0c-.5,0-1,0-1.49,0-1,0-1.93,0-2.89,0h-.43l-.72,0c-.48,0-1,0-1.44,0h-1.38a24.75,24.75,0,0,0-3,.23c-1,.12-1.91.28-2.86.42s-1.63.21-2.44.3h-.06a23.23,23.23,0,0,1,0-2.36c0-.5,0-1,0-1.5s0-1,0-1.43,0-1,0-1.55,0-.93,0-1.39v-.21c0-.51,0-1,.07-1.52s.07-1,.08-1.44c0-.9,0-1.8-.06-2.69,0,0,0-.08,0-.11.77-.22,1.53-.49,2.27-.78l-.06,0,.12-.05.12,0h0l.06,0h0c.57-.22,1.15-.42,1.73-.62s1.29-.45,1.92-.71c1.2-.5,2.39-1,3.6-1.5h0c.51-.19,1-.36,1.54-.52l1.56-.47c1-.31,1.94-.77,2.91-1.16l.92-.34a.54.54,0,0,0,.1.16c.1.18.18.36.26.54.2.44.43.85.64,1.28s.39.86.62,1.28.47.82.7,1.23c.12.22.24.43.37.64a7.07,7.07,0,0,0,.44.63,4.1,4.1,0,0,0,1,1,5.71,5.71,0,0,0,.64.35,5.93,5.93,0,0,0,.71.24,7,7,0,0,0,.69.19c.23.06.47.1.7.15.47.09.93.21,1.39.32q.35.09.69.15l.63.1c.43.09.84.21,1.26.33l1.16.35,1.07.31c.34.11.67.24,1,.38.17.08.35.15.52.24l.5.28c.22.15.44.3.64.46s.49.42.72.64l.34.38.3.38c.11.15.21.29.31.45s.19.32.28.48c.17.32.32.65.46,1l.37.93h0a8.14,8.14,0,0,1,.29.92c.12.56.21,1.12.29,1.69s.15,1,.21,1.5V225l-.44.05Z"/><path class="cls-1" d="M1,53.44l0,0,0,0Z"/><polygon class="cls-1" points="56.98 72.4 56.98 72.4 56.98 72.4 56.98 72.4"/><path class="cls-1" d="M121.63,176.86h0Z"/><path class="cls-1" d="M30.39,110.09h0l0,0Z"/><path class="cls-1" d="M47.77,100.82h0Z"/><path class="cls-1" d="M138.49,162.14h0l0,0Z"/><path class="cls-1" d="M71.3,218.16l0,0h0Z"/><path class="cls-1" d="M37.08,78.19a.48.48,0,0,0-.17-.23.37.37,0,0,0-.2-.07,1.17,1.17,0,0,0-.26,0,.88.88,0,0,0-.28.06A1,1,0,0,0,36,78a.63.63,0,0,0-.11.12.41.41,0,0,0-.07.11.92.92,0,0,0-.1.32,1.2,1.2,0,0,0,.09.65.86.86,0,0,0,.23.34,1.48,1.48,0,0,0,.34.21,1.13,1.13,0,0,0,.32,0,.86.86,0,0,0,.28,0,.79.79,0,0,0,.53-.77,1.28,1.28,0,0,0-.22-.68A1.21,1.21,0,0,0,37.08,78.19Z"/><polygon class="cls-1" points="34 75.96 34 75.96 34 75.96 34 75.96"/><path class="cls-1" d="M36,75.91h.12a.32.32,0,0,0,.13-.62,2,2,0,0,0-.43,0,2.46,2.46,0,0,0-.66.11,3.14,3.14,0,0,0-.58.22A3.85,3.85,0,0,0,34,76a4.88,4.88,0,0,0-.89.87,2.68,2.68,0,0,0-.18.28,2.55,2.55,0,0,0-.13.29.86.86,0,0,0-.06.39.31.31,0,0,0,.31.26h.06a.32.32,0,0,0,.26-.31s0,0,0-.08l.07-.18a.8.8,0,0,0,.08-.16l.12-.16.3-.32a5.46,5.46,0,0,1,.44-.38h0a3.07,3.07,0,0,1,.39-.23l.34-.16.31-.1.32-.06Z"/><path class="cls-1" d="M42.07,77.19l.33.45c.11.13.23.27.33.41h0l0,0,0,0a6.42,6.42,0,0,1,.41.65,6.89,6.89,0,0,1,.34.73,3.22,3.22,0,0,1,.14.44,1.91,1.91,0,0,1,.06.33,2.18,2.18,0,0,1,0,.25s0,.1,0,.15l0,.14-.08.21a.83.83,0,0,1-.07.13l0,0-.09.1-.11.1-.15.09a.32.32,0,0,0-.09.44.31.31,0,0,0,.26.14.31.31,0,0,0,.18,0l.2-.12.14-.13a.86.86,0,0,0,.18-.2,1.69,1.69,0,0,0,.26-.58,1.63,1.63,0,0,0,.07-.45,4.15,4.15,0,0,0-.53-1.88,6.52,6.52,0,0,0-.48-.8c-.19-.26-.4-.5-.59-.75l-.13-.18a.31.31,0,0,0-.35-.22A.32.32,0,0,0,42,77a.58.58,0,0,0,.12.25Z"/><path class="cls-1" d="M39.15,86.71h0Z"/><path class="cls-1" d="M43.24,87h.41a.32.32,0,0,0,.08.12l.14.1a2.12,2.12,0,0,0,.37.18,2.83,2.83,0,0,0,.41.14,2.15,2.15,0,0,0,.62.08h.27a2.52,2.52,0,0,0,.9-.21A3.66,3.66,0,0,0,47.94,86a2.08,2.08,0,0,0,.22-.45,3.37,3.37,0,0,0,.12-.53,3,3,0,0,0,0-.6c.07-.11.14-.2.2-.31a3.92,3.92,0,0,0,.45-.89,5.55,5.55,0,0,0,.26-1c0-.14,0-.29.05-.44s0-.14,0-.21a.31.31,0,0,0-.06-.21l.05,0a1.27,1.27,0,0,0,.31-.2,1,1,0,0,0,.28-.34.32.32,0,0,0-.14-.43.32.32,0,0,0-.42.13l-.07.1,0,0,0,0-.2.13-.08,0-.09,0-.19,0h-.35l-.11-.06h0l0,0a.34.34,0,0,0-.23-.08.32.32,0,0,0-.31.37.33.33,0,0,0,.11.19.48.48,0,0,0,.11.09,1.12,1.12,0,0,0,.7.21h.16a1.94,1.94,0,0,0,0,.24,3.15,3.15,0,0,1,0,.43,4.77,4.77,0,0,1-.17.65c0,.14-.09.27-.14.41s-.17.32-.26.48h0a.34.34,0,0,0-.28,0l-.16.09-.07,0H47.1a5.24,5.24,0,0,0-.56,0,1,1,0,0,0-.43.17,1.92,1.92,0,0,0-.45.45c0,.06-.09.11-.13.18l-.15.26-.07.11,0,0h0a2.29,2.29,0,0,0-.28-.07,1,1,0,0,0-.25,0,.88.88,0,0,0-.26.12,2.51,2.51,0,0,0-.44.48c-.15.2-.27.42-.42.63a.27.27,0,0,0-.07.08h-.07l-.5,0a4.34,4.34,0,0,1-.52-.07,7.43,7.43,0,0,1-1-.22L41.14,86l.13-.24.08-.29a.31.31,0,0,0-.24-.38.32.32,0,0,0-.38.24.65.65,0,0,0,0,.13l-.06.16a1,1,0,0,1-.08.14l-.11.16a1.75,1.75,0,0,1-.23.24,2.25,2.25,0,0,1-.24.21l0,0-.1,0-.18.06h-.13a.32.32,0,0,0-.38.22.33.33,0,0,0,.17.38.43.43,0,0,0,.19,0h.1a1.21,1.21,0,0,0,.33-.07,1.28,1.28,0,0,0,.36-.16,3.86,3.86,0,0,0,.44-.38.18.18,0,0,0,.1,0l.07,0,.33.1.37.1c.29.07.57.12.86.17Zm4.18-1.39a3.07,3.07,0,0,1-.28.42c-.11.12-.21.24-.33.35l-.23.2-.27.18-.27.13-.13,0-.3,0a2.71,2.71,0,0,1-.4,0l-.31,0-.14,0-.07,0a4.25,4.25,0,0,0,.92-.28,7.1,7.1,0,0,0,.88-.42,5.48,5.48,0,0,0,.8-.56l.24-.23v0Zm-2.79.3c0-.06.1-.13.15-.18l0,0h0l.08,0h0l.24.06a.66.66,0,0,0,.43-.08,1.76,1.76,0,0,0,.48-.63,1.09,1.09,0,0,1,.13-.17,1.71,1.71,0,0,1,.18-.2l.06,0,.08-.05,0,0h.24a5,5,0,0,0,.67,0l0,0c-.14.16-.28.32-.43.47s-.26.22-.4.32a5,5,0,0,1-.54.35,9.17,9.17,0,0,1-.9.41c-.13,0-.26.08-.39.12l-.44.09h0a.41.41,0,0,1,.07-.11A1.94,1.94,0,0,1,44.63,85.93Z"/><path class="cls-1" d="M25.07,20.84l.19.06.22,0a1.07,1.07,0,0,0,.71-.26,1.17,1.17,0,0,0,.37-.75,1.32,1.32,0,0,0-.44-1.1,1,1,0,0,0-.78-.36,1,1,0,0,0-1,.47,1.32,1.32,0,0,0,0,1.43A1.06,1.06,0,0,0,25.07,20.84Z"/><path class="cls-1" d="M31.1,15.71a1.11,1.11,0,0,0,.82.38,1,1,0,0,0,.3,0,1.13,1.13,0,0,0,.5-.33,1,1,0,0,0,.25-.26,1.45,1.45,0,0,0,.25-.83,1.27,1.27,0,0,0-.3-.81,1.1,1.1,0,0,0-1-.39,1.15,1.15,0,0,0-.78.55,1,1,0,0,0-.27,1.12A1.14,1.14,0,0,0,31.1,15.71Z"/><path class="cls-1" d="M25.51,26.82a1.07,1.07,0,0,0-.45.68,1.3,1.3,0,0,0,.52,1.3,1.16,1.16,0,0,0,.62.19,1,1,0,0,0,.3,0,1,1,0,0,0,.66-.63,1.11,1.11,0,0,0,0-.72,1.09,1.09,0,0,0-.73-.87A1.06,1.06,0,0,0,25.51,26.82Z"/><path class="cls-1" d="M32.3,22.16a1.28,1.28,0,0,0,.33,2.13.92.92,0,0,0,.36.07,1.41,1.41,0,0,0,1.07-.59,1.14,1.14,0,0,0,.23-.85,1,1,0,0,0-.59-.76,1.26,1.26,0,0,0-.45-.22A1.08,1.08,0,0,0,32.3,22.16Z"/><path class="cls-1" d="M40,19a.91.91,0,0,0,.23,0,1.25,1.25,0,0,0,1-.53,1.11,1.11,0,0,0,0-1.36,1.56,1.56,0,0,0-1.84-.28,1.18,1.18,0,0,0-.27,1.36A1.26,1.26,0,0,0,40,19Z"/><path class="cls-1" d="M25.47,39.07a1,1,0,0,0,.47.12,1.06,1.06,0,0,0,.31,0,1,1,0,0,0,.69-.89,1,1,0,0,0-.07-1.34,1.24,1.24,0,0,0-1.76.13,1.31,1.31,0,0,0-.32.79,1,1,0,0,0,0,.35,1.27,1.27,0,0,0,.11.38A1,1,0,0,0,25.47,39.07Z"/><path class="cls-1" d="M33.86,31.4a1,1,0,0,0-1.31.21,1,1,0,0,0-.43.63,1.18,1.18,0,0,0,.08.69,1,1,0,0,0,.49.48,1,1,0,0,0,.57.12h.11l.18,0a1.05,1.05,0,0,0,.86-.93,1.06,1.06,0,0,0-.17-.64A1,1,0,0,0,33.86,31.4Z"/><path class="cls-1" d="M40.34,26.13a1.19,1.19,0,0,0-.4.92,2.31,2.31,0,0,0,.06.52c0,.05,0,.1,0,.14a1,1,0,0,0,.95.8h.15a.91.91,0,0,0,.62-.4,1.07,1.07,0,0,0,.3-.93,1.27,1.27,0,0,0,0-.48,1,1,0,0,0-.77-.82A1.06,1.06,0,0,0,40.34,26.13Z"/><path class="cls-1" d="M49.27,23a1.12,1.12,0,0,0,.44-.09,1.05,1.05,0,0,0,.58-1v-.1a1,1,0,0,0-1.54-1.12,1.77,1.77,0,0,0-.3.45,1.21,1.21,0,0,0-.22.57,1.18,1.18,0,0,0,.36,1A1,1,0,0,0,49.27,23Z"/><path class="cls-1" d="M57.68,17.25a1.11,1.11,0,0,0,.46.11,1.09,1.09,0,0,0,.86-.44l0,0,.06,0h0a1,1,0,0,0,.42-1.1.42.42,0,0,0,0-.1v0a1,1,0,0,0-1.1-.79,1.46,1.46,0,0,0-.74.38,1.38,1.38,0,0,0-.32.44,1.43,1.43,0,0,0-.16.81A1.06,1.06,0,0,0,57.68,17.25Z"/><path class="cls-1" d="M27,47.44l0-.07a1.18,1.18,0,0,0-.29-.3l-.24-.17a1,1,0,0,0-.86,0A1,1,0,0,0,25,47.92h0a.84.84,0,0,0,.05.17,1.29,1.29,0,0,0,.37,1,1.1,1.1,0,0,0,.73.29h0a1.18,1.18,0,0,0,.7-.26,1.29,1.29,0,0,0,.37-1.29A1.46,1.46,0,0,0,27,47.44Z"/><path class="cls-1" d="M33.34,41.56a1.2,1.2,0,0,0-.53,1.19,1.26,1.26,0,0,0,.76,1,1.22,1.22,0,0,0,.43.08.75.75,0,0,0,.21,0,1.15,1.15,0,0,0,.68-.44,1.16,1.16,0,0,0,.22-.75,1.18,1.18,0,0,0-.45-1A1.16,1.16,0,0,0,33.34,41.56Z"/><path class="cls-1" d="M41,36.44a1.25,1.25,0,0,0-.08.42,1.2,1.2,0,0,0,.13.93,1.11,1.11,0,0,0,.89.48,1,1,0,0,0,.56-.18,1.18,1.18,0,0,0,.46-.66,1,1,0,0,0,0-.37V37a1,1,0,0,0-.15-.57,1.21,1.21,0,0,0-.21-.24,1.1,1.1,0,0,0-.42-.31A1,1,0,0,0,41,36.44Z"/><path class="cls-1" d="M48.82,31.14a1.36,1.36,0,0,0,0,1.3,1,1,0,0,0,.92.51,1.25,1.25,0,0,0,.46-.09,1.15,1.15,0,0,0,.55-.6,1.1,1.1,0,0,0,.24-.85,1.16,1.16,0,0,0-2.19-.27Z"/><path class="cls-1" d="M57.19,26.43a1.18,1.18,0,0,0,.3.47,1,1,0,0,0,.58.26h.1a1.15,1.15,0,0,0,.54-.15,1,1,0,0,0,.46-.66,1.31,1.31,0,0,0,.08-.21,1,1,0,0,0,0-.58,1,1,0,0,0-1-.83h0l-.26.05a1,1,0,0,0-.88.56,1,1,0,0,0,0,1A.65.65,0,0,0,57.19,26.43Z"/><path class="cls-1" d="M34.57,53.53a1.17,1.17,0,0,0,.41-1,1,1,0,0,0-.62-1l-.2-.06-.15,0a1.08,1.08,0,0,0-1.3.79,1.29,1.29,0,0,0,.39,1.2,1.12,1.12,0,0,0,.76.31A1,1,0,0,0,34.57,53.53Z"/><path class="cls-1" d="M42.56,46.12A1.34,1.34,0,0,0,42,46a1.21,1.21,0,0,0-1.12,1.09,1.3,1.3,0,0,0,.55,1.22,1.19,1.19,0,0,0,.63.19,1,1,0,0,0,.3,0,1.16,1.16,0,0,0,.55-.35,1.1,1.1,0,0,0,.26-1.51.56.56,0,0,0-.05-.08A1,1,0,0,0,42.56,46.12Z"/><path class="cls-1" d="M50.5,40.78a1,1,0,0,0-.43.29,1.18,1.18,0,0,0-.48.84,1.19,1.19,0,0,0,.3.9,1.08,1.08,0,0,0,.82.38,1.06,1.06,0,0,0,.31,0,1.2,1.2,0,0,0,.73-.68,1.3,1.3,0,0,0,.09-.55.75.75,0,0,0,0-.21.19.19,0,0,0,0-.07.19.19,0,0,0,0-.08,1,1,0,0,0-.58-.73A1,1,0,0,0,50.5,40.78Z"/><path class="cls-1" d="M59.16,35.2l-.23.07a1.09,1.09,0,0,0-.89.34,1.11,1.11,0,0,0-.16,1.23,1.37,1.37,0,0,0,.72.7,1.2,1.2,0,0,0,.42.08,1.38,1.38,0,0,0,1.27-1A1.17,1.17,0,0,0,60,35.46,1,1,0,0,0,59.16,35.2Z"/><path class="cls-1" d="M65.83,32.52a1.45,1.45,0,0,0,.28,0,1.08,1.08,0,0,0,.61-.5l0,0a1.06,1.06,0,0,0,.12-1.29,1.1,1.1,0,0,0-1.1-.46,1.26,1.26,0,0,0-.87,1.71A1,1,0,0,0,65.83,32.52Z"/><path class="cls-1" d="M33.84,60.72a1,1,0,0,0-.2.77.84.84,0,0,0,.15.38,1,1,0,0,0,.18.23.94.94,0,0,0,.66.25,1,1,0,0,0,.73-.31l0,0a1.14,1.14,0,0,0,.18-.25,1,1,0,0,0-.43-1.35A1,1,0,0,0,33.84,60.72Z"/><path class="cls-1" d="M42.93,55.51a1.08,1.08,0,0,0-.64-.11,1.1,1.1,0,0,0-.89,1.1,1.23,1.23,0,0,0,.65,1,1.19,1.19,0,0,0,.58.15,1.1,1.1,0,0,0,.64-.19,1.1,1.1,0,0,0,0-1.83A1.19,1.19,0,0,0,42.93,55.51Z"/><path class="cls-1" d="M50.92,52.39a1.24,1.24,0,0,0,.64-1.84,1.1,1.1,0,0,0-.2-.23.74.74,0,0,0-.29-.23,1.15,1.15,0,0,0-1.22.13,1.29,1.29,0,0,0-.44.87,1.23,1.23,0,0,0,.41,1,1.16,1.16,0,0,0,.79.3A1.1,1.1,0,0,0,50.92,52.39Zm.63-1.09,0,.07h0s0,.07-.05.1l0,0A1.89,1.89,0,0,0,51.55,51.3Z"/><path class="cls-1" d="M59.76,44.38a.78.78,0,0,0-.22,0,1.09,1.09,0,0,0-1,.47,1.24,1.24,0,0,0-.13,1.11,1.3,1.3,0,0,0,.79.83,1.16,1.16,0,0,0,.36.05,1.32,1.32,0,0,0,.39-.06,1,1,0,0,0,.72-1.09.91.91,0,0,0-.12-.31A1,1,0,0,0,59.76,44.38Z"/><path class="cls-1" d="M66.7,39.46A1.1,1.1,0,0,0,66,40.65a1,1,0,0,0,.36.61,1,1,0,0,0,.77.37A.94.94,0,0,0,68,41a1,1,0,0,0,.17-.71,1,1,0,0,0-.33-.57,1,1,0,0,0-1.09-.28Z"/><path class="cls-1" d="M43.32,62.63A1.18,1.18,0,0,0,43,63.79s0,.07,0,.11a1,1,0,0,0,1,.8h.15a1.07,1.07,0,0,0,.27-.09l.17-.09A1,1,0,0,0,45,63.37a.71.71,0,0,0,0-.14,1,1,0,0,0-.49-.7,1,1,0,0,0-.52-.13.41.41,0,0,0-.16,0A1,1,0,0,0,43.32,62.63Z"/><path class="cls-1" d="M50.78,57.82a1.55,1.55,0,0,0-.27.24.75.75,0,0,0-.16.15,1.06,1.06,0,0,0-.23,1,1.12,1.12,0,0,0,.8.76.9.9,0,0,0,.23,0,1,1,0,0,0,.88-.46,1.32,1.32,0,0,0,.22-.84,1,1,0,0,0-1.47-.91Z"/><path class="cls-1" d="M59.08,53a1.46,1.46,0,0,0-.25.41.87.87,0,0,0-.14.27,1.06,1.06,0,0,0,.69,1.4,1.05,1.05,0,0,0,.49.13H60a1,1,0,0,0,.8-.93v0h0v0a1.14,1.14,0,0,0,0-.26,1.65,1.65,0,0,0-.06-.32.94.94,0,0,0-.31-.7A1,1,0,0,0,59.08,53Z"/></g></g></svg>