<svg xmlns="http://www.w3.org/2000/svg" viewBox="0 0 388.03 196.17"><defs><style>.cls-1{fill:#50555b;}.cls-2{fill:#57585c;}.cls-3{fill:none;stroke:#57585c;stroke-miterlimit:10;stroke-width:1.21px;}.cls-4{fill:#fff;}</style></defs><g id="Layer_2" data-name="Layer 2"><g id="Artwork:Notebook"><path class="cls-1" d="M153.7,185.83c.62-.05,1.23-.14,1.85-.23s1.17-.18,1.75-.3h0l.09,0h0c.52-.1,1-.22,1.56-.34a14.33,14.33,0,0,0,1.55-.44l0,0a14.12,14.12,0,0,0,1.56-.63h0a11.74,11.74,0,0,0,1.15-.65c.65-.44,1.32-.85,2-1.29L165,182a10.5,10.5,0,0,0,1-.77l.47-.47a6.55,6.55,0,0,0,.39-.53,3.81,3.81,0,0,0,.28-.62,4.18,4.18,0,0,0,.16-.58c0-.22.07-.43.09-.65s0-.4,0-.6a5,5,0,0,0-.08-.54v-.07s0,0,0,.06a.9.9,0,0,0-.06-.22,2.72,2.72,0,0,0-.16-.35,4.54,4.54,0,0,0-.39-.48l.06.06c-.4-.46-.77-.94-1.16-1.4v0a4.68,4.68,0,0,0-.38-.39c-.24-.2-.49-.4-.75-.58l0,0,0,0,0,0,0,0c-.31-.2-.64-.39-1-.56h0a18.53,18.53,0,0,0-1.86-.75l.08,0a17.82,17.82,0,0,0-2.25-.61,11.57,11.57,0,0,0-1.55-.22H158a9.19,9.19,0,0,0-1,0h-.08l-.26,0-.6.07-1.05.18h0a7,7,0,0,0-1.08.31,23,23,0,0,0-2.65,1.14l0,0c-.29.15-.58.32-.86.5a13.51,13.51,0,0,0-1.11.89l.06-.06c-.34.3-.67.61-1,.92s-.71.68-1,1a5.9,5.9,0,0,0-.37.47c-.13.2-.26.42-.38.65l0,0,0,0v0h0a5.05,5.05,0,0,0-.24.53,1.21,1.21,0,0,1,0,.19c0,.19-.06.37-.07.55,0,.76-.17,1.51-.22,2.26v-.08c0,.25,0,.5,0,.74s0,.33.07.49a4.36,4.36,0,0,0,.17.59l0-.08a3.87,3.87,0,0,0,.25.55,3.19,3.19,0,0,0,.32.43,2.83,2.83,0,0,0,.3.3,5.12,5.12,0,0,0,.52.4l.45.27,0,0,0,0,0,0h0c.19.08.37.16.57.23h0a12.5,12.5,0,0,0,1.48.42,8.28,8.28,0,0,0,1,.12A22.38,22.38,0,0,0,153.7,185.83Zm-1.09,1.56c-.49,0-1,0-1.45-.07a11.59,11.59,0,0,1-2.81-.5,5.86,5.86,0,0,1-1.38-.61,4.34,4.34,0,0,1-1.2-1.1,4.16,4.16,0,0,1-.67-1.41,5.87,5.87,0,0,1-.16-1.31,10.64,10.64,0,0,1,.11-2,5.43,5.43,0,0,1,0-.57c0-.21,0-.42,0-.63a6.07,6.07,0,0,1,.42-1.57,10.3,10.3,0,0,1,.56-1.16,5.42,5.42,0,0,1,.9-1.18c.31-.32.65-.61,1-.92s.7-.64,1.06-.94a10.84,10.84,0,0,1,2.3-1.41c.41-.19.83-.36,1.26-.52a7.61,7.61,0,0,1,.72-.25,4.88,4.88,0,0,1,.66-.16,17.53,17.53,0,0,1,2.79-.4,16.55,16.55,0,0,1,2.72.16c.3,0,.6.1.89.16l-.07,0c.69.14,1.38.32,2.07.47l.19,0a11.72,11.72,0,0,1,2.08.83,6.49,6.49,0,0,1,1.31.9,20,20,0,0,1,1.84,2.07,5.81,5.81,0,0,1,.79.93,3.34,3.34,0,0,1,.39,1.19A5.79,5.79,0,0,1,169,179a5.71,5.71,0,0,1-.41,1.56,5.9,5.9,0,0,1-.65,1.18,5.29,5.29,0,0,1-.47.59,6.93,6.93,0,0,1-.58.5,10.46,10.46,0,0,1-1.26.82c-.44.25-.89.49-1.34.7s-.72.28-1.08.43l-1.17.46c-.37.16-.73.34-1.1.49a11.38,11.38,0,0,1-1.1.43l.08,0-.13,0a24.07,24.07,0,0,1-2.74.73c-.92.19-1.86.33-2.79.44a12.58,12.58,0,0,1-1.5.09Z"/><path class="cls-1" d="M148.46,182.49l-.66-.12-.22,0a3.09,3.09,0,0,0-.43,0h0a2.29,2.29,0,0,1-.52.05.28.28,0,0,1-.23-.2.41.41,0,0,1,.09-.32,1.79,1.79,0,0,1,1.36-.53h0l.42,0,.24-.06.09,0,.13-.07.26-.2a.27.27,0,0,1,.08-.07l-.06,0c.2-.18.42-.35.63-.53l-.08.06.42-.35h0l.77-.62c.6-.53,1.14-1.11,1.69-1.7a7.53,7.53,0,0,1,1-.83,8,8,0,0,1,1.3-.75,6.32,6.32,0,0,1,1.33-.45,8,8,0,0,1,.84-.1h3c.4,0,.8,0,1.2,0,.24,0,.47-.07.7-.11s.67-.18,1-.23l.76-.1c.1,0,.21-.05.31-.09l.33-.11.2-.08.33-.1h0a1.21,1.21,0,0,1,.72-.09.56.56,0,0,1,.47,0,.59.59,0,0,1,.26.66c0,.12-.09.25-.14.37v0l0,0h0a1.71,1.71,0,0,1-.17.33,2.94,2.94,0,0,1-.35.44,3,3,0,0,1-.48.38c-.16.1-.35.17-.5.26a13.54,13.54,0,0,1-1.36.45,8,8,0,0,1-1.11.2,6.12,6.12,0,0,1-1.21,0h.11l-1.34-.11h.11a13.87,13.87,0,0,0-1.58,0,10.07,10.07,0,0,0-1.34.2h0l-.09,0h0a5.71,5.71,0,0,0-.71.19l-.68.29a6.32,6.32,0,0,0-.56.33c-.23.16-.45.34-.67.52s-.48.38-.71.58h0l-1.2,1a13.3,13.3,0,0,1-1.21.92,3.61,3.61,0,0,1-1.3.57,3.39,3.39,0,0,1-.78.09A3.92,3.92,0,0,1,148.46,182.49Z"/><path class="cls-1" d="M119.39,194.61c.62-.05,1.23-.14,1.85-.23s1.17-.18,1.75-.3h0l.09,0h0c.52-.1,1-.22,1.56-.34a14.33,14.33,0,0,0,1.55-.44l0,0a14.12,14.12,0,0,0,1.56-.63h0a11.74,11.74,0,0,0,1.15-.65c.65-.44,1.32-.85,2-1.29l-.09.06a9.07,9.07,0,0,0,1-.77l.47-.47a6.55,6.55,0,0,0,.39-.53,4.14,4.14,0,0,0,.44-1.2c0-.21.07-.43.09-.65s0-.4,0-.6A5,5,0,0,0,133,186V186s0,0,0,.06a1,1,0,0,0-.06-.22,2.72,2.72,0,0,0-.16-.35,3.56,3.56,0,0,0-.39-.48l.06.06c-.4-.45-.76-.94-1.16-1.4v0c-.12-.14-.25-.26-.38-.39s-.49-.39-.75-.58l0,0,0,0,0,0,0,0c-.31-.2-.64-.39-1-.56h0a17.62,17.62,0,0,0-1.86-.75l.08,0a17.82,17.82,0,0,0-2.25-.61,11.57,11.57,0,0,0-1.55-.22h.07a9.2,9.2,0,0,0-1,0h-.08l-.26,0-.6.07-1,.18h0a7,7,0,0,0-1.08.31A23,23,0,0,0,117,182.3l.05,0c-.29.15-.58.32-.86.5a13.51,13.51,0,0,0-1.11.89l.06-.06c-.34.3-.67.61-1,.92s-.71.68-1,1c-.13.15-.25.31-.37.47a5.79,5.79,0,0,0-.37.65v0l0,0v0h0a5.05,5.05,0,0,0-.24.53,1.21,1.21,0,0,1,0,.19c0,.19-.06.37-.07.55,0,.76-.17,1.51-.22,2.26v-.07c0,.24,0,.49,0,.73s0,.33.07.49.1.39.17.59l0-.08a3.87,3.87,0,0,0,.25.55,3.19,3.19,0,0,0,.32.43,2.13,2.13,0,0,0,.3.3,4.81,4.81,0,0,0,.52.4l.45.27,0,0,0,0,0,0h0c.19.08.37.16.57.23h0a12.14,12.14,0,0,0,1.49.42,7.87,7.87,0,0,0,1,.12A22.36,22.36,0,0,0,119.39,194.61Zm-1.09,1.56c-.49,0-1,0-1.45-.07a11.59,11.59,0,0,1-2.81-.5,5.86,5.86,0,0,1-1.38-.61,4.34,4.34,0,0,1-1.2-1.1,4.16,4.16,0,0,1-.67-1.41,5.8,5.8,0,0,1-.16-1.31,10.64,10.64,0,0,1,.11-2,5.43,5.43,0,0,1,0-.57c0-.21,0-.42,0-.63a5.9,5.9,0,0,1,.42-1.56,9.67,9.67,0,0,1,.56-1.17,5.14,5.14,0,0,1,.9-1.17c.31-.33.65-.62,1-.93s.7-.64,1.06-.94a10.84,10.84,0,0,1,2.3-1.41c.41-.19.83-.36,1.26-.52.23-.09.48-.18.72-.25a5.28,5.28,0,0,1,.66-.16,17.53,17.53,0,0,1,2.79-.4,16.49,16.49,0,0,1,2.72.16c.3,0,.6.1.89.16l-.07,0c.69.14,1.38.32,2.07.47l.19,0a11.72,11.72,0,0,1,2.08.83,6.49,6.49,0,0,1,1.31.9,19.13,19.13,0,0,1,1.84,2.08,5.33,5.33,0,0,1,.79.92,3.34,3.34,0,0,1,.39,1.19,5.79,5.79,0,0,1,.05,1.5,6.07,6.07,0,0,1-.4,1.56,6.48,6.48,0,0,1-.66,1.18,5.29,5.29,0,0,1-.47.59,6.93,6.93,0,0,1-.58.5,10.46,10.46,0,0,1-1.26.82c-.44.25-.89.49-1.34.7s-.72.28-1.08.43l-1.17.46-1.1.5c-.36.15-.73.3-1.1.42l.08,0-.13,0a24.07,24.07,0,0,1-2.74.73c-.92.19-1.86.33-2.79.44a12.58,12.58,0,0,1-1.5.09Z"/><path class="cls-1" d="M114.16,191.27l-.67-.11a1.66,1.66,0,0,0-.22,0,3.09,3.09,0,0,0-.43,0h0a2.29,2.29,0,0,1-.52.05.29.29,0,0,1-.23-.2.41.41,0,0,1,.09-.32,1.79,1.79,0,0,1,1.36-.53h0l.42,0,.24-.06.09,0,.13-.07.26-.2a.27.27,0,0,1,.08-.07l-.06.05c.2-.18.42-.35.63-.53l-.08.06.42-.35h0l.77-.62c.6-.53,1.14-1.1,1.69-1.69a6.91,6.91,0,0,1,1-.84,8,8,0,0,1,1.3-.75,6.94,6.94,0,0,1,1.33-.45,8,8,0,0,1,.84-.1h3c.4,0,.8,0,1.2,0,.24,0,.47-.07.7-.11s.67-.18,1-.23l.76-.1.31-.08.33-.12.2-.08a1.78,1.78,0,0,1,.33-.09h0l.07,0h-.05a1.21,1.21,0,0,1,.72-.09.6.6,0,0,1,.47,0,.59.59,0,0,1,.26.66c0,.12-.09.25-.14.37v0l0,0h0a2,2,0,0,1-.17.32,2.94,2.94,0,0,1-.35.44,3,3,0,0,1-.48.38c-.16.1-.35.17-.5.26a13.54,13.54,0,0,1-1.36.45,9.9,9.9,0,0,1-1.11.21,7,7,0,0,1-1.21,0h.11l-1.34-.11h.12a14.06,14.06,0,0,0-1.59,0,10.32,10.32,0,0,0-1.34.2h0l-.09,0h.05a5.71,5.71,0,0,0-.71.19l-.68.29a6.32,6.32,0,0,0-.56.33c-.23.16-.45.34-.67.52s-.48.38-.71.58h0c-.4.35-.8.68-1.2,1s-.79.64-1.21.93a4,4,0,0,1-1.3.57,4,4,0,0,1-.78.08A3.68,3.68,0,0,1,114.16,191.27Z"/><path class="cls-1" d="M135.11,177.73c.11-.1.22-.2.32-.31s.21-.24.3-.36.24-.36.34-.54v0l0,0v0a3.82,3.82,0,0,0,.21-.46h0a1.8,1.8,0,0,0,.05-.19,1.62,1.62,0,0,0,0-.19,4,4,0,0,0,0-.49,4.7,4.7,0,0,0-.12-.51,9.59,9.59,0,0,0-.57-1.16c-.21-.34-.45-.68-.68-1s-.49-.65-.73-1c-.51-.68-1-1.33-1.56-2-.77-1-1.48-2-2.27-3l.07.08-.48-.59h0l0-.06v0h0l-.7-.87a5.07,5.07,0,0,0-.49-.55h0l0,0,0,0h0l0,0,0,0c-.12-.1-.23-.2-.36-.29l-.18-.13-.16-.06h0l-.05,0h0l-.35-.11.07,0-.07,0h0l-.18,0a1.07,1.07,0,0,1-.38-.2l-.09-.08,0,.05,0,.07-.06.15s0,.1,0,.14-.06.37-.09.55-.07.43-.1.65c-.07.46-.13.91-.18,1.37a6.26,6.26,0,0,0,0,.75,8.47,8.47,0,0,0,.1,1s0-.06,0-.09a14.1,14.1,0,0,0,.33,1.43l0-.07c.12.41.25.81.4,1.2s.25.63.38.94h0l0,.08,0,0a10.87,10.87,0,0,0,.63,1.16l0-.07s.05.08.07.13c.2.3.4.6.63.88s.5.56.76.84l.9.95c.55.58,1.11,1.14,1.66,1.72.09.1.19.19.29.29l.28.24.14.08.2.09.15,0,.2,0h.2l.36,0,.21-.05.37-.14C134.85,177.91,135,177.82,135.11,177.73Zm-.26,1.37a2.89,2.89,0,0,1-2.53-.25,6.57,6.57,0,0,1-.92-.83q-.37-.37-.75-.72c-.64-.6-1.29-1.19-1.9-1.83a12.52,12.52,0,0,1-1.51-1.89c-.3-.45-.56-.93-.83-1.4s-.5-1.17-.72-1.77a6.43,6.43,0,0,1-.35-1.21,10.62,10.62,0,0,1-.11-2.39,11.34,11.34,0,0,1,.19-1.32c.08-.38.15-.76.23-1.14a4,4,0,0,1,.3-1,2.1,2.1,0,0,1,.91-.93c.29,0,.58-.23.9-.16a.36.36,0,0,1,.26.19l.07,0a.69.69,0,0,1,.27.17,2.41,2.41,0,0,1,.59.26,5.67,5.67,0,0,1,1.37,1.17c.55.62,1.09,1.24,1.6,1.89s1,1.35,1.54,2,1,1.3,1.49,2,.9,1.45,1.3,2.2c.18.34.34.69.5,1l0-.06,0,.09a9.6,9.6,0,0,1,.48,1.26,3.61,3.61,0,0,1,.2,1.07,2.91,2.91,0,0,1-.15.78,4.42,4.42,0,0,1-.49,1,4.56,4.56,0,0,1-1.21,1.34A3.09,3.09,0,0,1,134.85,179.1Z"/><path class="cls-1" d="M138.19,177.27c-.26.16-.52.29-.78.45l.07,0-.1.06.07,0c-.16.09-.33.2-.49.28a1.34,1.34,0,0,1-.67.2.52.52,0,0,1-.38-.21.51.51,0,0,1,0-.49.91.91,0,0,1,.25-.3l.12-.08a4.94,4.94,0,0,1,.42-.27c.26-.21.53-.4.8-.59s.57-.39.84-.61l0,0,0,0,.06,0h0a4.6,4.6,0,0,0,.56-.52q.28-.31.54-.66l0,.06q.16-.24.3-.48c0-.08.07-.16.11-.23s0-.1,0-.15l0-.2v0c0-.11,0-.21,0-.32a4.4,4.4,0,0,0-.05-.51,9.37,9.37,0,0,0-.19-.92h0v-.07h0v0q-.13-.42-.3-.84c-.25-.54-.51-1.08-.81-1.59l0,0,0-.05,0,0,0,0a18,18,0,0,0-1.29-1.81.1.1,0,0,1,0,.05l0-.06h0a11.76,11.76,0,0,0-.89-1,9.16,9.16,0,0,0-1-.79,17.79,17.79,0,0,0-1.89-1.09l.1,0-1-.56-.94-.52c-.27-.14-.54-.27-.83-.39l-.62-.19-.47-.13-.24,0h-.11l-.06,0,0,0,0,.06,0,.13c0,.06,0,.13,0,.19v0a1,1,0,0,1,0,.17h0a.29.29,0,0,1,0,.09l0,0c.07.1-.09.22-.17.11h0l-.09,0a.59.59,0,0,1-.19-.13h0v0h0l0,0,0,0h0l0,0h0a1.38,1.38,0,0,1-.17-.25v0a.8.8,0,0,1-.11-.48,1.1,1.1,0,0,1,.16-.47,1.48,1.48,0,0,1,.83-.56,4.71,4.71,0,0,1,.75,0,5.9,5.9,0,0,1,1.32.24,10.28,10.28,0,0,1,1.15.47c.45.19.9.41,1.36.6l.19.08a8.34,8.34,0,0,1,1.89,1.19,7.28,7.28,0,0,1,1,1l1,1.12.76.89c.15.17.29.35.43.54s.27.42.4.63a6.65,6.65,0,0,1,.33.58c.1.2.19.4.28.6a7.44,7.44,0,0,1,.43,1.31c.06.28.09.58.16.86a7,7,0,0,1-.05,2.28,4.55,4.55,0,0,1-.39.94,6.17,6.17,0,0,1-.74,1,7.42,7.42,0,0,1-.72.76,4.12,4.12,0,0,1-.4.33Z"/><path class="cls-1" d="M137.77,176.91a.57.57,0,0,1-.55-.09.57.57,0,0,1-.17-.6,1.54,1.54,0,0,1,.08-.19h0a.57.57,0,0,0,0-.18s0,0,0-.06l0-.3a3.1,3.1,0,0,0-.08-.42,3.17,3.17,0,0,0-.14-.4,5.83,5.83,0,0,0-.32-.6c-.15-.26-.28-.52-.43-.77s-.35-.55-.53-.82-.4-.61-.61-.9c-.46-.64-.95-1.27-1.45-1.88l0,0c-.51-.63-1.05-1.24-1.53-1.89s-1.05-1.4-1.58-2.09c-.28-.36-.54-.72-.78-1.1s-.41-.63-.57-1a2.06,2.06,0,0,1-.12-.35.58.58,0,0,1,0-.29h0s0,0,0,0a.39.39,0,0,1,.44-.26.62.62,0,0,1,.39.34c.08.14.15.29.24.43l0,0c.41.66.85,1.3,1.31,1.92s1,1.28,1.5,1.91l.09.12,0,0c.51.62,1,1.27,1.46,1.92s.94,1.28,1.43,1.91l.66.84.61.84c.12.17.25.33.36.5s.33.55.49.82a4.64,4.64,0,0,1,.37,1.37,1.61,1.61,0,0,1-.05.69,1.39,1.39,0,0,1-.1.26.83.83,0,0,1-.25.33Z"/><path class="cls-1" d="M128.71,163.28h0c-.16.05-.21-.13-.25-.25h0a.36.36,0,0,0,0-.09h0a.45.45,0,0,1-.3-.05.45.45,0,0,1-.17-.82.53.53,0,0,1,.17-.08l0,0a1.19,1.19,0,0,1,.15-.09.76.76,0,0,1,.16-.06.46.46,0,0,1,.46.75.36.36,0,0,1-.11.1.49.49,0,0,1,0,.12v0c0,.09,0,.18,0,.27s0,.19-.08.24Z"/><path class="cls-1" d="M29.13,187.66c0-.15,0-.3,0-.45s0-.31,0-.47a4.56,4.56,0,0,0-.13-.62v0a4.59,4.59,0,0,0-.17-.48h0a1.42,1.42,0,0,0-.08-.18l-.11-.16a3.73,3.73,0,0,0-.32-.36,3.46,3.46,0,0,0-.45-.29,8.63,8.63,0,0,0-1.2-.44q-.6-.15-1.2-.27c-.4-.08-.81-.13-1.21-.2-.83-.14-1.67-.24-2.51-.36-1.23-.18-2.45-.42-3.69-.58h.1l-.75-.09h-.08l-1.11-.15a5.84,5.84,0,0,0-.73-.05h0l-.46,0-.22,0-.15.06h0l-.32.16.05,0-.06,0h0l-.15.1a1.14,1.14,0,0,1-.41.12h-.12v.06a.31.31,0,0,1,0,.08c0,.05,0,.11.06.15l.06.14.31.45.38.55c.27.37.54.75.82,1.12.16.19.33.37.5.55a8,8,0,0,0,.77.65l-.07-.05a12.82,12.82,0,0,0,1.22.8l-.06,0c.37.22.74.42,1.12.6l.92.41h0l.07,0,0,0a11.57,11.57,0,0,0,1.26.41l-.08,0,.15,0a9.46,9.46,0,0,0,1.06.21c.37,0,.75.06,1.13.08l1.31.06c.79,0,1.59.06,2.38.09h.42l.36,0,.16,0,.21-.07.14-.07.16-.11.15-.13a2.09,2.09,0,0,0,.24-.28l.12-.18c.06-.12.12-.23.17-.35S29.1,187.82,29.13,187.66Zm.76,1.17a2.9,2.9,0,0,1-2,1.57,6.43,6.43,0,0,1-1.24,0h-1c-.88,0-1.76,0-2.63,0a12.94,12.94,0,0,1-2.4-.32c-.53-.12-1-.28-1.57-.44s-1.18-.49-1.75-.77a6.83,6.83,0,0,1-1.08-.64,10.07,10.07,0,0,1-1.74-1.65,11.84,11.84,0,0,1-.78-1.08c-.2-.33-.41-.66-.62-1a4.36,4.36,0,0,1-.45-.92,2,2,0,0,1,0-1.29c.18-.23.25-.57.53-.74a.36.36,0,0,1,.32,0l.06,0a.91.91,0,0,1,.32-.06,2.54,2.54,0,0,1,.6-.22,5.43,5.43,0,0,1,1.8-.1c.82.06,1.65.14,2.47.25s1.66.28,2.5.39,1.65.23,2.46.42,1.65.42,2.46.69c.37.12.73.26,1.09.41l-.07,0,.09,0a9.2,9.2,0,0,1,1.23.58,3.45,3.45,0,0,1,.88.63,2.68,2.68,0,0,1,.44.67,6,6,0,0,1,.32,1,4.79,4.79,0,0,1,.05,1.81A3.21,3.21,0,0,1,29.89,188.83Z"/><path class="cls-1" d="M31,185.2c-.07.29-.17.57-.25.86l0-.08,0,.12,0-.08c-.05.18-.09.37-.15.55a1.28,1.28,0,0,1-.35.59.49.49,0,0,1-.42.12.51.51,0,0,1-.37-.33.8.8,0,0,1,0-.38l0-.14a4.8,4.8,0,0,1,.12-.48c0-.33.11-.66.17-1s.13-.67.18-1v-.07h0a6.47,6.47,0,0,0,.05-.76,7.9,7.9,0,0,0-.07-.85s0,0,0,.07a5.05,5.05,0,0,0-.12-.56,2.25,2.25,0,0,0-.08-.24l-.07-.14-.12-.17,0,0,0,.05a2.62,2.62,0,0,0-.22-.25l-.38-.33a8.23,8.23,0,0,0-.78-.53h0l0,0h-.05a8.36,8.36,0,0,0-.79-.4,16.9,16.9,0,0,0-1.69-.59h0a18,18,0,0,0-2.19-.43h0a11.69,11.69,0,0,0-1.32-.08,8.66,8.66,0,0,0-1.25.1c-.72.12-1.42.33-2.12.52l.11,0-1.12.31c-.35.09-.7.17-1,.27a8.07,8.07,0,0,0-.87.29,6.36,6.36,0,0,0-.58.3l-.43.23-.2.13,0,0,0,0v0l0,0h0s0,0,0,.07v0a.24.24,0,0,0,0,.08l.07.1.15.13,0,0,.15.09h0l.08,0h0a.11.11,0,0,1,0,.21h0l-.1,0a.54.54,0,0,1-.22,0h-.14a1.07,1.07,0,0,1-.3-.06h0a.9.9,0,0,1-.42-.27,1.06,1.06,0,0,1-.2-.46,1.44,1.44,0,0,1,.21-1,4.42,4.42,0,0,1,.52-.54,5.57,5.57,0,0,1,1.12-.74,8.89,8.89,0,0,1,1.15-.46c.46-.17.93-.32,1.4-.51l.19-.07a8.06,8.06,0,0,1,2.18-.45,8.4,8.4,0,0,1,1.42,0l1.47.15c.39,0,.78.07,1.16.12a5.46,5.46,0,0,1,.69.1c.24,0,.49.11.73.17l.64.19c.2.07.41.15.61.24a6.7,6.7,0,0,1,1.21.65c.25.16.47.36.72.51A7,7,0,0,1,30.65,181a4.79,4.79,0,0,1,.37,1,5.88,5.88,0,0,1,.17,1.25,9.2,9.2,0,0,1,0,1,4.46,4.46,0,0,1-.07.51C31.1,184.91,31.07,185.05,31,185.2Z"/><path class="cls-1" d="M30.48,185.23a.57.57,0,0,1-.45.31.58.58,0,0,1-.55-.31c0-.06,0-.13-.07-.19v0l-.1-.14,0,0-.23-.2-.35-.25-.37-.19c-.21-.08-.43-.15-.65-.21l-.85-.26-.95-.23c-.35-.07-.7-.16-1.06-.22-.78-.15-1.56-.26-2.35-.36h.06c-.8-.1-1.61-.17-2.41-.3l-2.59-.42c-.45-.07-.89-.16-1.33-.27a8.7,8.7,0,0,1-1.08-.3,2.49,2.49,0,0,1-.33-.16.67.67,0,0,1-.22-.19h0s0,0,0-.05a.37.37,0,0,1,.13-.49.63.63,0,0,1,.52,0l.46.14h0a22,22,0,0,0,2.28.48c.79.14,1.6.24,2.4.35l.14,0h-.06c.8.1,1.59.24,2.39.38s1.56.27,2.35.38l1.06.16,1,.18c.2,0,.39.06.59.11l.92.25a4.7,4.7,0,0,1,1.22.73,1.77,1.77,0,0,1,.44.54,1.12,1.12,0,0,1,.11.25.76.76,0,0,1,0,.42A1,1,0,0,1,30.48,185.23Z"/><path class="cls-1" d="M14.51,181.65h0c-.07.15-.24.06-.35,0h0l-.09,0,0,0,0,0a.5.5,0,0,1-.94-.3.87.87,0,0,1,.07-.17s0,0,0-.06a.75.75,0,0,1,.05-.16.46.46,0,0,1,.07-.16.48.48,0,0,1,.48-.2.46.46,0,0,1,.37.42.75.75,0,0,1,0,.15l.08.09,0,0,.17.21c0,.06.13.14.12.23Z"/><path class="cls-1" d="M283.81,181.71c.37-.41.72-.85,1.07-1.29s.65-.85,1-1.29h0l0-.07h0c.27-.39.54-.79.8-1.2a14.08,14.08,0,0,0,.75-1.24l0,0a12.21,12.21,0,0,0,.63-1.38h0a10.76,10.76,0,0,0,.35-1.14c.15-.69.33-1.37.48-2.06a.29.29,0,0,1,0,.09,10.43,10.43,0,0,0,.17-1.12c0-.2,0-.4,0-.6a2.83,2.83,0,0,0-.27-1.17,4.45,4.45,0,0,0-.26-.48,5.22,5.22,0,0,0-.34-.48c-.12-.13-.25-.27-.38-.39s-.25-.21-.38-.31l0,0,0,0-.06,0,.05,0-.17-.11-.33-.13a3.45,3.45,0,0,0-.55-.07h.07c-.54,0-1.08-.14-1.63-.19h0a4,4,0,0,0-.49,0,8.4,8.4,0,0,0-.85.08h0a8.9,8.9,0,0,0-1,.24h0c-.57.19-1.13.42-1.68.66l.07,0a18.46,18.46,0,0,0-1.86,1,10.29,10.29,0,0,0-1.14.82l.05,0a8.64,8.64,0,0,0-.69.66l-.05,0-.16.18c-.12.13-.24.27-.35.41s-.39.51-.58.77h0a9.42,9.42,0,0,0-.51.87,23.11,23.11,0,0,0-1,2.4l0,0a8.47,8.47,0,0,0-.25.86,11.09,11.09,0,0,0-.18,1.27.17.17,0,0,0,0-.07c0,.4-.07.81-.08,1.22s-.05.89,0,1.34a5.06,5.06,0,0,0,.06.53q.06.33.15.66v0h0c.06.17.11.33.17.49a.75.75,0,0,1,.12.14c.11.13.19.27.29.4.44.53.83,1.09,1.27,1.62l-.05-.05c.14.16.29.33.45.48s.23.19.35.28a5.5,5.5,0,0,0,.48.28l-.07,0a3.11,3.11,0,0,0,.5.21l.48.09h.38a5.61,5.61,0,0,0,.59-.06l.46-.11h0l0,0h0a4.65,4.65,0,0,0,.52-.2l0,0a12.06,12.06,0,0,0,1.23-.65c.25-.16.48-.34.71-.52A18.47,18.47,0,0,0,283.81,181.71Zm.26,1.7c-.32.3-.65.59-1,.86a10.9,10.9,0,0,1-2.14,1.42,5.36,5.36,0,0,1-1.29.46,3.82,3.82,0,0,1-1.47,0,3.53,3.53,0,0,1-1.31-.5,5.23,5.23,0,0,1-.93-.76,9.81,9.81,0,0,1-1.14-1.35c-.13-.11-.25-.24-.37-.36a5,5,0,0,1-.37-.43,5.13,5.13,0,0,1-.7-1.28,7.19,7.19,0,0,1-.36-1.11,5,5,0,0,1-.14-1.33c0-.4,0-.81.07-1.21s.05-.86.11-1.28a9.59,9.59,0,0,1,.62-2.35c.15-.38.32-.76.5-1.12s.2-.42.31-.62a5.8,5.8,0,0,1,.34-.52,13,13,0,0,1,3.46-3.58c.22-.16.45-.3.68-.45l-.06,0c.54-.34,1.1-.65,1.64-1l.16-.08a10.78,10.78,0,0,1,1.87-.76,6.19,6.19,0,0,1,1.42-.23,19,19,0,0,1,2.5.22,5.76,5.76,0,0,1,1.09.11,3.08,3.08,0,0,1,1,.54,5.82,5.82,0,0,1,1,.95,5.32,5.32,0,0,1,.7,1.28,5.26,5.26,0,0,1,.31,1.18,3.78,3.78,0,0,1,.05.67,4,4,0,0,1-.06.69,8.47,8.47,0,0,1-.32,1.32,12.43,12.43,0,0,1-.44,1.3c-.13.32-.29.63-.44,1s-.32.68-.47,1-.28.67-.42,1-.29.65-.45,1a.25.25,0,0,1,0-.07l-.06.11a22,22,0,0,1-1.35,2.18,25.15,25.15,0,0,1-1.55,2,10.9,10.9,0,0,1-.92,1Z"/><path class="cls-1" d="M278.31,182.79l-.51.33-.16.12a3.57,3.57,0,0,0-.28.27l0,0a2.11,2.11,0,0,1-.31.36.24.24,0,0,1-.27,0,.37.37,0,0,1-.15-.27,1.64,1.64,0,0,1,.56-1.19h0a3.5,3.5,0,0,0,.24-.3,1.22,1.22,0,0,0,.12-.19.2.2,0,0,0,0-.08s0-.08,0-.13a2.54,2.54,0,0,0,0-.29s0-.06,0-.09,0,0,0,.07c0-.25.06-.49.08-.74v.09c0-.17,0-.33.05-.49v0c0-.3.08-.59.11-.89.06-.71.06-1.43.05-2.15a6.8,6.8,0,0,1,.15-1.19,6.4,6.4,0,0,1,.39-1.29,6.07,6.07,0,0,1,.59-1.13,6.66,6.66,0,0,1,.49-.59l.38-.37.87-.82.74-.69c.26-.25.53-.49.78-.76s.26-.33.39-.5.33-.54.52-.78.3-.36.44-.54l.15-.25c.05-.1.09-.19.14-.28l.08-.18a2.26,2.26,0,0,1,.16-.26h0a.21.21,0,0,1,0-.06l0,0h0v0l0,0a1.12,1.12,0,0,1,.42-.51.5.5,0,0,1,.33-.25.51.51,0,0,1,.58.26,2.33,2.33,0,0,1,.14.33v.06h0a1.7,1.7,0,0,1,.1.32,2.81,2.81,0,0,1,0,.5,2.61,2.61,0,0,1-.08.55c0,.17-.12.33-.17.49a12.5,12.5,0,0,1-.61,1.13,6.92,6.92,0,0,1-.59.83,6.32,6.32,0,0,1-.79.76l.08-.07-.94.77.08-.06a9.55,9.55,0,0,0-1,1,10.13,10.13,0,0,0-.76,1h0l0,0,0,.06,0,0a5.84,5.84,0,0,0-.35.57,5.32,5.32,0,0,0-.26.61c-.07.19-.12.38-.17.57s-.09.5-.12.75-.07.55-.09.83v0c-.05.47-.1.94-.16,1.41a12.6,12.6,0,0,1-.21,1.35,3.53,3.53,0,0,1-.5,1.18,3,3,0,0,1-.46.54A3.21,3.21,0,0,1,278.31,182.79Z"/><path class="cls-1" d="M361.08,190.4c.56-.05,1.12-.13,1.67-.22s1.06-.18,1.58-.3h0l.08,0h0c.47-.1.94-.22,1.4-.33s.94-.25,1.4-.41h0a12,12,0,0,0,1.39-.58h0c.35-.19.7-.38,1-.6.58-.41,1.18-.79,1.76-1.19l-.08.06a10.11,10.11,0,0,0,.88-.71,5.66,5.66,0,0,0,.42-.43,5.48,5.48,0,0,0,.35-.49,4,4,0,0,0,.25-.56,4.56,4.56,0,0,0,.13-.53,3.68,3.68,0,0,0,.07-.58,5,5,0,0,0,0-.55c0-.16-.05-.32-.08-.48v-.06a.43.43,0,0,1,0,.05c0-.06,0-.13-.06-.2s-.09-.21-.14-.31-.24-.29-.36-.43l0,0c-.37-.4-.7-.84-1.07-1.24h0c-.11-.12-.22-.23-.34-.34a8.17,8.17,0,0,0-.68-.52l0,0,0,0,0,0,0,0a9.5,9.5,0,0,0-.88-.5h0a17.31,17.31,0,0,0-1.69-.65l.07,0a15.94,15.94,0,0,0-2-.53,9.52,9.52,0,0,0-1.41-.17h.07c-.32,0-.63,0-.95,0h-.07a2,2,0,0,1-.24,0l-.54.07c-.31,0-.63.1-1,.17h0a6.74,6.74,0,0,0-1,.29,21.19,21.19,0,0,0-2.39,1.06l.05,0a8.69,8.69,0,0,0-.77.46,10.93,10.93,0,0,0-1,.81l.06,0c-.31.28-.61.55-.9.84s-.63.63-.93,1c-.11.14-.22.28-.32.43a4.75,4.75,0,0,0-.33.59v0l0,0v0h0l-.21.48V184c0,.17-.05.33-.06.5,0,.68-.14,1.36-.17,2v-.07a5,5,0,0,0,0,.67,3.21,3.21,0,0,0,.07.43,3.35,3.35,0,0,0,.16.54l0-.08a3.22,3.22,0,0,0,.23.5,3.47,3.47,0,0,0,.29.38,2.37,2.37,0,0,0,.28.27,5.32,5.32,0,0,0,.47.36l.41.23h0l0,0,0,0a4.71,4.71,0,0,0,.52.21l0,0a12.22,12.22,0,0,0,1.35.37,8.58,8.58,0,0,0,.87.1A20.09,20.09,0,0,0,361.08,190.4Zm-1,1.43c-.44,0-.87,0-1.31-.05a11,11,0,0,1-2.54-.41,5.76,5.76,0,0,1-1.25-.54,3.7,3.7,0,0,1-1.1-1,4,4,0,0,1-.63-1.26,5.31,5.31,0,0,1-.15-1.19,9.5,9.5,0,0,1,.07-1.77,4.35,4.35,0,0,1,0-.51c0-.19,0-.38,0-.57a5,5,0,0,1,.36-1.42,8.46,8.46,0,0,1,.49-1.06,5.53,5.53,0,0,1,.8-1.07c.27-.29.58-.56.87-.84s.63-.59.95-.86a9.42,9.42,0,0,1,2.06-1.3c.37-.18.74-.34,1.13-.49l.65-.24c.19-.06.39-.1.6-.15a17.57,17.57,0,0,1,2.5-.39,14.6,14.6,0,0,1,2.47.12l.8.12h-.07c.63.12,1.25.27,1.88.4l.17,0a11.63,11.63,0,0,1,1.89.71,6,6,0,0,1,1.19.8,17.51,17.51,0,0,1,1.69,1.86,4.32,4.32,0,0,1,.72.82,3.1,3.1,0,0,1,.37,1.07,5.16,5.16,0,0,1,.06,1.36,5.3,5.3,0,0,1-.35,1.41,6.09,6.09,0,0,1-.57,1.07,4.45,4.45,0,0,1-.42.53,5.8,5.8,0,0,1-.52.47,10.54,10.54,0,0,1-1.13.75c-.39.24-.79.45-1.2.65s-.65.26-1,.4l-1.05.43-1,.46c-.32.14-.65.28-1,.4l.07,0-.12.05a24.3,24.3,0,0,1-2.46.68c-.84.19-1.68.33-2.52.44-.45.05-.9.09-1.35.1Z"/><path class="cls-1" d="M356.32,187.45l-.6-.09-.2,0-.39,0h0a2.42,2.42,0,0,1-.47.06.26.26,0,0,1-.21-.19.39.39,0,0,1,.08-.29,1.61,1.61,0,0,1,1.22-.49h0l.38-.05.22-.06.08,0,.12-.07.22-.19.07-.06s0,0-.05.05c.18-.17.38-.32.56-.49l-.06.06.37-.32h0c.22-.2.46-.38.69-.57.53-.49,1-1,1.5-1.55a6.73,6.73,0,0,1,.91-.77,7.64,7.64,0,0,1,1.17-.69,5,5,0,0,1,1.95-.52h2.75c.36,0,.72,0,1.08,0s.42-.06.63-.1.61-.17.92-.22l.68-.1.28-.08.3-.11.17-.07.3-.09h0l.07,0-.06,0h0a1.14,1.14,0,0,1,.65-.08.48.48,0,0,1,.42,0,.51.51,0,0,1,.25.58,2,2,0,0,1-.13.34v.05h0a1.4,1.4,0,0,1-.15.3,2.38,2.38,0,0,1-.31.4,2.86,2.86,0,0,1-.43.35,4.92,4.92,0,0,1-.45.24,10.92,10.92,0,0,1-1.22.42,6.81,6.81,0,0,1-1,.2,5.68,5.68,0,0,1-1.09,0h.1l-1.21-.07h.1a13.64,13.64,0,0,0-1.43,0,9.85,9.85,0,0,0-1.21.2h0l-.08,0h0a5.25,5.25,0,0,0-.65.18l-.6.27a5.09,5.09,0,0,0-.5.3c-.21.15-.41.31-.6.47l-.63.54h0c-.35.32-.71.62-1.07.93a12.49,12.49,0,0,1-1.08.84,3.37,3.37,0,0,1-1.17.54,3.27,3.27,0,0,1-.7.08A3.08,3.08,0,0,1,356.32,187.45Z"/><path class="cls-1" d="M250.76,184.23c.62,0,1.23-.13,1.85-.22s1.17-.19,1.75-.31h0l.09,0h0l1.57-.35a15.93,15.93,0,0,0,1.54-.43h0a13,13,0,0,0,1.56-.63h0a11,11,0,0,0,1.15-.66c.65-.44,1.32-.85,2-1.28l-.09.06a12.3,12.3,0,0,0,1-.77,5.44,5.44,0,0,0,.48-.48,5.17,5.17,0,0,0,.39-.53,4.78,4.78,0,0,0,.28-.61c.06-.2.12-.39.16-.59s.07-.43.09-.64,0-.41,0-.61-.05-.36-.08-.53v-.08a.17.17,0,0,0,0,.07l-.06-.22a3.73,3.73,0,0,0-.16-.35,6,6,0,0,0-.39-.49l.05.06c-.4-.45-.76-.94-1.16-1.39h0c-.13-.13-.25-.26-.39-.38a7,7,0,0,0-.74-.58l0,0,0,0,0,0,0,0a8.64,8.64,0,0,0-1-.57h0a17.46,17.46,0,0,0-1.85-.75l.08,0a17.87,17.87,0,0,0-2.25-.62,13.73,13.73,0,0,0-1.55-.21h.07a9.19,9.19,0,0,0-1,0H254l-.27,0-.59.07-1.06.17h0a10.22,10.22,0,0,0-1.08.31,23.91,23.91,0,0,0-2.66,1.14l.06,0a9.09,9.09,0,0,0-.86.49,12,12,0,0,0-1.11.89l.06-.05c-.34.3-.68.6-1,.92s-.72.68-1.05,1a5.32,5.32,0,0,0-.36.47c-.14.21-.26.43-.38.65v0l0,.05v0h0c-.08.17-.16.34-.23.52a1.34,1.34,0,0,1,0,.2c0,.18-.06.36-.08.55,0,.75-.16,1.5-.21,2.26v-.08a6.06,6.06,0,0,0,0,.74,4.05,4.05,0,0,0,.24,1.07l0-.08a5.38,5.38,0,0,0,.24.55,3.7,3.7,0,0,0,.32.43l.3.31c.17.14.35.27.53.4a4.83,4.83,0,0,0,.45.26l0,0,.05,0,0,0,0,0a4.87,4.87,0,0,0,.57.24l0,0a11.41,11.41,0,0,0,1.49.42,8.06,8.06,0,0,0,1,.13A20.35,20.35,0,0,0,250.76,184.23Zm-1.09,1.57c-.49,0-1,0-1.46-.07a12.66,12.66,0,0,1-2.8-.5,6.3,6.3,0,0,1-1.38-.61,4.42,4.42,0,0,1-1.21-1.11,4.31,4.31,0,0,1-.67-1.4,5.35,5.35,0,0,1-.15-1.32,9.92,9.92,0,0,1,.11-2,5.43,5.43,0,0,1,0-.57c0-.21,0-.42,0-.62a5.7,5.7,0,0,1,.42-1.57,10.37,10.37,0,0,1,.55-1.17,6.39,6.39,0,0,1,.9-1.17c.31-.32.66-.62,1-.92s.69-.65,1.06-.94a10.77,10.77,0,0,1,2.29-1.41c.42-.19.84-.37,1.26-.53l.72-.25c.22-.07.45-.11.67-.16a17.55,17.55,0,0,1,2.78-.39,16.61,16.61,0,0,1,2.73.16c.3,0,.6.09.89.15h-.07c.69.14,1.38.32,2.06.46l.19.05a11.78,11.78,0,0,1,2.09.82,6.92,6.92,0,0,1,1.31.9,20.26,20.26,0,0,1,1.84,2.08,5.74,5.74,0,0,1,.79.92,3.62,3.62,0,0,1,.39,1.19,5.36,5.36,0,0,1-.36,3.06,6.53,6.53,0,0,1-.65,1.19,4.41,4.41,0,0,1-.47.58,4.52,4.52,0,0,1-.58.5,9.48,9.48,0,0,1-1.27.82,13.1,13.1,0,0,1-1.34.7c-.35.16-.72.29-1.08.43l-1.16.47c-.37.15-.74.33-1.1.49s-.73.3-1.1.43l.08,0-.14,0a25.48,25.48,0,0,1-2.73.72c-.93.2-1.86.33-2.8.44a12.46,12.46,0,0,1-1.5.1Z"/><path class="cls-1" d="M245.52,180.9c-.22,0-.44-.07-.66-.12l-.22,0a3.05,3.05,0,0,0-.43,0h0a4.57,4.57,0,0,1-.52.05.27.27,0,0,1-.23-.21.38.38,0,0,1,.09-.32,1.76,1.76,0,0,1,1.35-.53h0a3.15,3.15,0,0,0,.43-.05,1.05,1.05,0,0,0,.24-.06l.09,0,.13-.08.26-.2.07-.07-.06.05c.21-.18.43-.34.63-.52l-.07.06.41-.36v0c.25-.22.51-.41.77-.63a22.33,22.33,0,0,0,1.68-1.69,8.13,8.13,0,0,1,1-.84,8,8,0,0,1,1.31-.74,6.13,6.13,0,0,1,1.33-.45,6,6,0,0,1,.84-.1h3c.4,0,.8,0,1.2,0a5.65,5.65,0,0,0,.7-.11c.34-.07.67-.17,1-.22s.51-.06.76-.11l.31-.08.33-.12.19-.08a2.34,2.34,0,0,1,.33-.09h0l.08,0-.07,0h0a1.2,1.2,0,0,1,.72-.08.54.54,0,0,1,.46,0,.57.57,0,0,1,.27.65,2.39,2.39,0,0,1-.15.37v.06h0a2.59,2.59,0,0,1-.17.33,2.44,2.44,0,0,1-.35.43,2.56,2.56,0,0,1-.48.39c-.16.1-.35.16-.51.26a13.33,13.33,0,0,1-1.35.44,7.23,7.23,0,0,1-1.11.21,6.12,6.12,0,0,1-1.21,0h.11l-1.34-.1h.11a11.9,11.9,0,0,0-1.58,0,10.22,10.22,0,0,0-1.35.2h0l-.09,0,0,0c-.24.06-.48.12-.72.2a5.65,5.65,0,0,0-.67.29,6.32,6.32,0,0,0-.56.33c-.24.16-.46.33-.68.51l-.7.59h0c-.39.34-.8.67-1.2,1s-.78.64-1.2.92a4,4,0,0,1-1.3.57,3.44,3.44,0,0,1-.78.08A3.81,3.81,0,0,1,245.52,180.9Z"/><path class="cls-1" d="M98.74,172.77c.62-.05,1.23-.13,1.85-.22s1.17-.19,1.75-.31h0l.09,0h0l1.56-.35c.52-.12,1-.26,1.55-.43h0a14.12,14.12,0,0,0,1.56-.63h0a10.74,10.74,0,0,0,1.15-.66c.65-.44,1.32-.85,2-1.28l-.09.06a12.46,12.46,0,0,0,1-.77c.16-.15.32-.31.47-.48a5.17,5.17,0,0,0,.39-.53,3.46,3.46,0,0,0,.28-.62,3.83,3.83,0,0,0,.16-.58c0-.21.07-.43.09-.64s0-.41,0-.61a4.51,4.51,0,0,0-.08-.53v-.08s0,0,0,.07a1.42,1.42,0,0,0-.05-.22c0-.12-.11-.24-.17-.36a4.31,4.31,0,0,0-.39-.48l.06.06c-.4-.45-.76-.94-1.16-1.39h0l-.38-.38a8.34,8.34,0,0,0-.75-.58l0,0,0,0,0,0,0,0a9.46,9.46,0,0,0-1-.57h0a17.62,17.62,0,0,0-1.86-.75l.08,0a19.14,19.14,0,0,0-2.25-.61,11.55,11.55,0,0,0-1.55-.21h.07a9.19,9.19,0,0,0-1,0H102a2.3,2.3,0,0,1-.26,0c-.2,0-.4,0-.6.07-.35,0-.7.1-1,.17h0a9.41,9.41,0,0,0-1.07.31,23.13,23.13,0,0,0-2.66,1.14l0,0c-.29.15-.58.31-.86.49a13.51,13.51,0,0,0-1.11.89l.06,0c-.34.3-.67.6-1,.92s-.71.68-1,1c-.13.15-.25.31-.37.47s-.26.43-.37.65v0l0,0v0h0a4.9,4.9,0,0,0-.24.52,1.34,1.34,0,0,1,0,.2c0,.18-.06.36-.07.55,0,.75-.17,1.5-.22,2.26v-.08c0,.24,0,.49,0,.74s0,.32.07.48.11.4.17.59l0-.08a5.45,5.45,0,0,0,.25.55,2.67,2.67,0,0,0,.32.43,2.13,2.13,0,0,0,.3.3c.17.15.34.28.52.41l.45.26,0,0,0,0,0,0,0,0,.57.24,0,0a12.66,12.66,0,0,0,1.49.42c.32.06.64.1,1,.13A22.21,22.21,0,0,0,98.74,172.77Zm-1.09,1.57c-.48,0-1,0-1.45-.07a12.74,12.74,0,0,1-2.81-.5,6.3,6.3,0,0,1-1.38-.61,4.38,4.38,0,0,1-1.2-1.11,4.08,4.08,0,0,1-.67-1.41,5.73,5.73,0,0,1-.16-1.31,10.74,10.74,0,0,1,.11-2,5.43,5.43,0,0,1,0-.57c0-.21,0-.42,0-.63a6.11,6.11,0,0,1,.42-1.56,10.45,10.45,0,0,1,.56-1.17,5.62,5.62,0,0,1,.9-1.17c.31-.33.65-.62,1-.92s.7-.65,1.06-.94a11.09,11.09,0,0,1,2.3-1.41c.41-.19.83-.37,1.26-.53l.72-.25c.22-.07.44-.11.66-.16a17.51,17.51,0,0,1,2.79-.39,15.47,15.47,0,0,1,2.72.16,8.7,8.7,0,0,1,.89.15l-.07,0,2.07.47.19,0a11,11,0,0,1,2.08.82,6.92,6.92,0,0,1,1.31.9,19.13,19.13,0,0,1,1.84,2.08,6.36,6.36,0,0,1,.8.92,3.53,3.53,0,0,1,.38,1.19,5.47,5.47,0,0,1-.35,3.06,6.57,6.57,0,0,1-.66,1.19,4.41,4.41,0,0,1-.47.58,5.47,5.47,0,0,1-.58.5,9.37,9.37,0,0,1-1.26.82,14.23,14.23,0,0,1-1.34.7c-.35.16-.72.29-1.08.43s-.78.3-1.17.47-.73.33-1.1.49-.73.3-1.1.43l.08,0-.13.05a26.3,26.3,0,0,1-2.74.72c-.92.2-1.85.33-2.79.44a12.59,12.59,0,0,1-1.5.1Z"/><path class="cls-1" d="M93.51,169.44l-.67-.12-.22,0a3.09,3.09,0,0,0-.43,0h0a4.36,4.36,0,0,1-.52,0,.29.29,0,0,1-.23-.21.41.41,0,0,1,.09-.32,1.79,1.79,0,0,1,1.36-.53h0a3,3,0,0,0,.42,0l.24-.06.09,0,.13-.07.26-.2.08-.07-.06,0c.2-.18.42-.35.63-.53l-.07.06L95,167l0,0c.25-.22.52-.41.77-.63.6-.53,1.14-1.1,1.69-1.69a6.91,6.91,0,0,1,1-.84,7.93,7.93,0,0,1,1.3-.74,7,7,0,0,1,1.33-.46c.28-.05.56-.07.84-.1h3c.4,0,.8,0,1.2,0a5.37,5.37,0,0,0,.7-.11c.34-.07.67-.17,1-.23s.51-.05.76-.1l.31-.08.33-.12.2-.08a1.78,1.78,0,0,1,.33-.09h0l.07,0-.07,0h0a1.21,1.21,0,0,1,.72-.08.57.57,0,0,1,.73.7,2.35,2.35,0,0,1-.14.37v0l0,0h0a2.59,2.59,0,0,1-.17.33,2.36,2.36,0,0,1-.35.43,2.56,2.56,0,0,1-.48.39c-.16.1-.34.16-.5.26a13.53,13.53,0,0,1-1.36.44,6.8,6.8,0,0,1-1.11.21,7,7,0,0,1-1.21,0h.11l-1.34-.1h.12a10.55,10.55,0,0,0-1.59,0,10.29,10.29,0,0,0-1.34.19h0c-.25.06-.49.12-.72.2a5.79,5.79,0,0,0-.68.29l-.56.32c-.23.16-.45.34-.67.52l-.71.59,0,0c-.4.35-.8.68-1.2,1s-.79.64-1.21.92a3.79,3.79,0,0,1-1.3.57,4,4,0,0,1-.78.08A3.69,3.69,0,0,1,93.51,169.44Z"/><path class="cls-2" d="M51.58,109.71a76.86,76.86,0,0,0-20.23,2.93c-4.48,1.3-10.29,3.19-13.06,7.26-2,3-.67,6.31,1.67,8.66,3.55,3.57,8.66,5.55,13.41,6.89A71.54,71.54,0,0,0,55,137.86a53.74,53.74,0,0,0,18.76-3.67c4.67-1.94,14.49-7.6,10.7-14.06C82.62,117,79,115,75.68,113.59a55,55,0,0,0-18.05-3.75c-2-.12-4-.15-6.05-.13-.62,0-1.9,1-.71.94A64.78,64.78,0,0,1,70.31,113c3.87,1.16,8,2.83,10.87,5.72,1.77,1.75,2.89,3.94,2,6.4-1.09,3-3.93,5.16-6.57,6.69a40.4,40.4,0,0,1-15.4,4.69,71.39,71.39,0,0,1-21.44-.74c-5.28-1-10.75-2.58-15.28-5.58C22,128.52,19,126,19,122.66c0-4.87,6.86-7.35,10.56-8.6a70.49,70.49,0,0,1,21.28-3.41C51.49,110.64,52.77,109.69,51.58,109.71Z"/><path class="cls-2" d="M17.26,122.48a31.84,31.84,0,0,0-.18,11.1c1,7.8,4.74,14.79,8.23,21.73,1.79,3.55,3.63,7.1,5.1,10.8a30.54,30.54,0,0,1,1.58,5c.21,1,.19,2,.31,3a6,6,0,0,0,2.46,3.57c3.68,2.85,9,3.44,13.47,3.66,5.83.29,12.15.23,17.74-1.65,2.36-.8,5-2.06,6.24-4.4.72-1.41.49-3.13.46-4.66,0-3.34.27-6.67,2-9.63,1.15-2,2.49-3.9,3.6-5.93a59.7,59.7,0,0,0,3.42-7.29,55.43,55.43,0,0,0,3.85-19.29c0-1.85,0-3.7-.19-5.55-.07-.84-1.85-.41-1.78.48a57,57,0,0,1-8.61,34.18c-1.44,2.36-2.93,4.52-3.57,7.26s-.42,5.32-.45,8c0,2.38-1.29,3.71-3.38,4.75-4.26,2.14-9.48,2.38-14.14,2.44-5.22.08-11.37,0-16.06-2.64-1.42-.81-2.89-2-3.22-3.65,0,0,0-.09,0-.13.08.48,0-.7,0-.79a18,18,0,0,0-.77-4,63.8,63.8,0,0,0-4.16-9.88c-3.71-7.57-8.28-15.09-9.9-23.46a32.47,32.47,0,0,1-.18-13.1c.21-.9-1.61-.7-1.8.12Z"/><path class="cls-2" d="M19,134.16c-2.76-2.39-6.83-2.29-10.15-1.35S1.89,136,.55,139.44c-1.68,4.35.75,9.38,3.73,12.55,3.52,3.75,8.54,5.66,13.51,6.52,2.2.38,4.26.71,5.93,2.25,1.45,1.35,3.42,1.45,5.32,1.59.35,0,2-.61,1.16-.67-1.6-.12-3.37-.22-4.63-1.34a7.54,7.54,0,0,0-2.87-1.74c-2.34-.74-4.83-.9-7.19-1.61a23.55,23.55,0,0,1-6.44-3c-3.7-2.48-6.77-6.59-7.25-11.12a9,9,0,0,1,4.88-8.65c3.22-1.81,7.68-2,10.6.5.33.29,1.89-.4,1.68-.59Z"/><path class="cls-2" d="M17.1,140.41c-3.15-2.51-8.81-3.92-12-.57a5.16,5.16,0,0,0-1.27,5,9.74,9.74,0,0,0,3.24,4A34.74,34.74,0,0,0,18,154.64a8.69,8.69,0,0,0,3.65.66c1.59-.23,1.77-1.57,1.55-2.91a23.13,23.13,0,0,0-2.36-6.53,16.72,16.72,0,0,0-3.7-5.45c-.53-.44-2.19.27-1.64.73A13.59,13.59,0,0,1,18.3,145a32.41,32.41,0,0,1,2.43,5.41,16,16,0,0,1,.63,2.35,5.51,5.51,0,0,1,.1.9,4.3,4.3,0,0,0-.08.69c0,.1-.11.05,0,.07s.39-.19.36-.17-.11,0,.05,0c-.1,0-.2,0-.3,0a10.37,10.37,0,0,1-1.44-.31,34.2,34.2,0,0,1-9.32-4.36c-2.14-1.4-5.66-3.84-5.2-6.84.81-5.18,6.94-4,10-1.55a1.16,1.16,0,0,0,1.18.06C16.84,141.11,17.44,140.68,17.1,140.41Z"/><path class="cls-2" d="M80,129.77c.2-2.24-5.92-8-28-8.77s-29.8,8.36-29.8,8.36A52.65,52.65,0,0,0,49,137.53C72.45,137.73,79.8,130.59,80,129.77Z"/><path class="cls-2" d="M324.3,93.83a115.11,115.11,0,0,1,20.82,1.27c3.48.6,7.38,1.4,10.34,3.45,1.23.85,2.65,2.29,1.86,3.89-1.11,2.24-4.43,3.31-6.59,4a68.24,68.24,0,0,1-16.91,2.78,165.61,165.61,0,0,1-23.15-.18c-4.59-.35-9.41-.8-13.72-2.5-2.07-.81-4.29-2.12-4.91-4.4-.88-3.2,3.71-4.62,6-5.31,6.42-1.93,13.3-2.48,20-2.81,2.11-.11,4.22-.17,6.33-.2.66,0,2.31-1,.89-1a121.76,121.76,0,0,0-23.64,2.24,35.68,35.68,0,0,0-7.62,2.39,7.94,7.94,0,0,0-3.83,3c-1.13,2.12.73,4.46,2.42,5.6,3.26,2.2,7.57,2.87,11.38,3.38a149.24,149.24,0,0,0,23.15,1,96.06,96.06,0,0,0,20.84-2.34c2.73-.67,15.08-4,11-9.05-1.87-2.34-5.42-3.34-8.18-4a83.89,83.89,0,0,0-19-2.15c-2.2-.05-4.39-.06-6.59,0C324.53,92.85,322.88,93.85,324.3,93.83Z"/><path class="cls-2" d="M357.76,109.23c1,1.74,4.17,1.66,5.83,1.51,1.92-.19,3.82-.57,5.75-.69,6-.35,11.41,1.84,14.45,7.22,5.7,10.06,1.26,22.74-6.59,30.25-5.94,5.68-13.78,8.73-21.86,9.69-.83.1-1.35,1.12-.21,1,13.43-1.59,26.51-9.11,31.29-22.33a24.1,24.1,0,0,0,.61-15.44C385,114.3,380.4,110,374,109.17a30.84,30.84,0,0,0-8,.29c-1.89.27-5.49,1.12-6.69-.89-.3-.5-1.91,0-1.53.66Z"/><path class="cls-2" d="M358.57,121.48c4.06-4.81,14.78-6.45,18.39-.31,2.72,4.62.67,11.34-1.55,15.72A18.09,18.09,0,0,1,365,146.21a14.17,14.17,0,0,1-4.7.73,3.79,3.79,0,0,1-3.39-2.9c-.19-.56-1.84-.09-1.66.45a4.64,4.64,0,0,0,3.56,3.3,14.21,14.21,0,0,0,4.55-.29,19.45,19.45,0,0,0,12-7.93,26.22,26.22,0,0,0,4.1-10,14,14,0,0,0-.35-7.87c-1.61-4-5.81-5.47-9.82-5.38-4.35.1-9.37,1.68-12.26,5.1-.45.54,1.2.43,1.54,0Z"/><path class="cls-2" d="M290,102.17q1.34,17,2.73,34c.6,7.28,1.19,14.56,1.85,21.83.36,3.95.3,8.37,2.41,11.87,4.12,6.81,13.3,8.58,20.58,9.16a81.79,81.79,0,0,0,18.76-.61,32.51,32.51,0,0,0,11.84-3.8,13.73,13.73,0,0,0,5.76-6.34,21.36,21.36,0,0,0,1.32-6.47c.63-6.64,1.07-13.31,1.53-20q1.4-20.07,2.6-40.15c0-.26,0-.51,0-.77s-1.63,0-1.66.44q-1,16.86-2.15,33.71c-.5,7.43-1,14.86-1.61,22.29-.37,4.64-.27,9.92-3.2,13.8a16.43,16.43,0,0,1-8.31,5.33c-5.26,1.67-10.95,2-16.43,2.07-5.79.07-11.72-.26-17.27-2a19.48,19.48,0,0,1-8.8-5.29c-2.86-3.23-3.15-7.16-3.53-11.24-.63-6.61-1.17-13.24-1.72-19.86q-1.56-18.84-3-37.69l-.06-.71c0-.3-1.69,0-1.66.45Z"/><path class="cls-3" d="M295.15,106.3s5.24-5.41,30.29-5.9,31.27,3.6,31.27,3.6-5.4,6.06-31.11,5.9S295.15,106.3,295.15,106.3Z"/><polygon class="cls-1" points="130.44 91.97 130.44 91.98 130.44 91.98 130.44 91.97"/><path class="cls-1" d="M128.76,87.9v0h0Z"/><path class="cls-1" d="M127.55,123.9h0Z"/><polygon class="cls-1" points="137.95 128.32 137.95 128.32 137.95 128.32 137.95 128.32"/><path class="cls-1" d="M138.91,127.78a3.54,3.54,0,0,0-.16-.34l-.17-.32a1.69,1.69,0,0,1-.11-.27,3.58,3.58,0,0,1-.09-.35,1.82,1.82,0,0,0-.08-.29,2,2,0,0,0-.11-.26l-.08-.13h0l0,0c0-.1,0-.2-.07-.3-.12-.45-.23-.9-.34-1.34-.22-.85-.44-1.7-.63-2.55l-.6-2.63c-.2-.89-.42-1.77-.62-2.66s-.39-1.77-.58-2.65-.35-1.78-.53-2.67-.37-1.74-.57-2.62-.41-1.85-.61-2.78-.37-1.72-.57-2.58-.43-1.79-.63-2.69c-.1-.42-.19-.85-.29-1.27s-.23-1-.35-1.42-.21-.89-.31-1.33a.32.32,0,0,0,0-.17c-.07-.23-.12-.46-.18-.7,0-.08-.05-.17-.08-.25-.21-.91-.4-1.82-.58-2.73v0h0v0h0v0h0v0h0l-.05-.27v0c-.1-.54-.21-1.09-.34-1.63-.07-.29-.14-.59-.22-.88s-.12-.52-.17-.79a7.35,7.35,0,0,1-.11-.82h0v-.13a.43.43,0,0,0-.42-.43.41.41,0,0,0-.42.41,1,1,0,0,0,0,.17,7.48,7.48,0,0,0,.13,1,.87.87,0,0,1-.1-.08c-.21-.16-.43-.32-.65-.46l-.34-.21-.38-.17a6.66,6.66,0,0,0-1.33-.34c-.21,0-.42-.08-.63-.1l-.71-.06c-.57,0-1.14,0-1.71,0l-.94,0-1.35,0-1.37-.09c-.9,0-1.79-.07-2.69-.09-1.8,0-3.61-.06-5.41-.06-.92,0-1.84,0-2.76,0l-1.34,0-1.41.06h.06c-.75,0-1.5.07-2.25.12s-1.32,0-2,.08l-1.31.1c-.43,0-.86.07-1.29.15a2.1,2.1,0,0,0-.81.27l-.29.2a3,3,0,0,0-.25.25,1.49,1.49,0,0,0-.2.29,1.26,1.26,0,0,0-.13.26,4.06,4.06,0,0,0-.19.59h0v0h0l0,.07h0v0A10,10,0,0,0,97,92.2c0,.4.06.8.1,1.2s.08.87.11,1.3.07.86.1,1.28l.09,1.36c0,.88.12,1.75.2,2.63s.16,1.77.22,2.65c0,.43.08.86.11,1.28s.08.9.11,1.35c.07.86.15,1.72.22,2.58,0,.45.07.91.11,1.36s.08.84.14,1.26a8.82,8.82,0,0,0,.21,1.12,3.17,3.17,0,0,0,.17.49,3.47,3.47,0,0,0,.37.57,3.72,3.72,0,0,0,.42.47,5.15,5.15,0,0,0,.5.43,12,12,0,0,0,1.11.75,13.25,13.25,0,0,0,1.18.62c.4.18.8.34,1.21.49l1.24.5c.42.17.84.35,1.26.55l1.24.58,1.18.53c.82.36,1.66.68,2.49,1l2.53,1c.85.33,1.72.61,2.58.91l0,0,.38.14c.5.19,1,.39,1.49.6s1,.4,1.51.59l-.05,0,.28.1,0,0,.11,0,1.19.45c.4.15.8.3,1.2.47l1.23.52,1.31.5c.43.15.86.31,1.3.45l1.21.41h.06l.06,0,.16.05h0l.74.28,1.28.47c.4.15.81.27,1.22.38s.88.23,1.31.36.85.26,1.27.4c.84.28,1.69.53,2.53.82.41.13.81.28,1.23.4l.44.12.22.05,0,0,0,0a1.33,1.33,0,0,1,.14.19h0l.27.43a.35.35,0,0,0,.05.08.5.5,0,0,0,.22.21.32.32,0,0,0,.16,0,.44.44,0,0,0,.44-.43,2.65,2.65,0,0,0-.07-.48A2.85,2.85,0,0,0,138.91,127.78Zm-1.75-.75c-.43-.12-.84-.28-1.26-.42l-1.3-.41-1.23-.4c-.41-.13-.83-.27-1.25-.39s-.89-.24-1.33-.36-.8-.25-1.2-.39l-1.81-.68,0,0-.11,0h0l-.08,0-1.26-.42L125,123l-1.27-.49c-.41-.16-.8-.33-1.2-.5s-.82-.32-1.24-.48l-1.2-.46h0l-.16-.06,0,0-.54-.2c-.51-.19-1-.4-1.5-.61s-1-.39-1.5-.57L114.4,119c-.75-.28-1.51-.58-2.26-.88l-1.21-.48-1.3-.53c-.83-.34-1.65-.72-2.46-1.1-.4-.18-.78-.38-1.18-.55l-1.29-.53-1.21-.48a10.84,10.84,0,0,1-1.16-.52q-.64-.35-1.26-.75c-.24-.18-.47-.35-.69-.55l-.36-.36c-.09-.11-.17-.22-.25-.34a1.62,1.62,0,0,1-.1-.18,1.8,1.8,0,0,1-.08-.21,5.27,5.27,0,0,1-.14-.57v0c-.1-.53-.16-1-.22-1.58s-.08-1.17-.14-1.76c-.07-.87-.15-1.75-.22-2.62,0-.42-.06-.84-.1-1.26s-.09-.92-.12-1.38c-.06-.85-.13-1.71-.22-2.57s-.14-1.81-.2-2.71c0-.43,0-.85-.08-1.27s-.07-.9-.11-1.35-.07-.85-.11-1.27-.07-.84-.1-1.26c0-.26,0-.51,0-.77s0-.47,0-.71a4.69,4.69,0,0,1,.09-.64v0h0l0-.08v0h0v0s0,0,0,0h0c0-.12.07-.25.11-.37s0-.13.08-.19l.12-.2.07-.09.11-.1.12-.09.14-.08.09,0,.25-.06c.49-.09,1-.14,1.48-.18l1.56-.11,1.23,0c.4,0,.8,0,1.21-.07L106.2,88c.87,0,1.74-.06,2.61-.07.43,0,.86,0,1.29,0h1.4l2.73,0c1.81,0,3.62,0,5.43.15.89.06,1.79.11,2.68.13s1.77,0,2.66.07l.65.07.7.13a7.08,7.08,0,0,1,.75.22,1.59,1.59,0,0,1,.27.12,3.94,3.94,0,0,1,.51.32l.05,0a.37.37,0,0,0,.12.2l.06.09,0,0,0,0v0l.15.24v0c.06.09.1.18.16.27a2.75,2.75,0,0,0,.17.29l.24.48.12.25c.1.21.18.42.26.64s.15.38.21.58c.12.37.22.76.32,1.14.06.2.1.4.15.6s.15.57.24.85a4.1,4.1,0,0,1,.14.5.14.14,0,0,1,0,.07c0,.06,0,.12.05.19.21.89.42,1.77.64,2.66s.43,1.81.63,2.72.41,1.72.61,2.58.4,1.8.59,2.71c.38,1.76.79,3.51,1.15,5.28.18.92.37,1.84.55,2.76s.38,1.75.58,2.62.41,1.74.61,2.61.39,1.74.6,2.62.42,1.7.64,2.56l.3,1.19.3,1.17a.27.27,0,0,0,.07.14Z"/><polygon class="cls-1" points="129.6 87.86 129.6 87.86 129.6 87.86 129.6 87.86"/><polygon class="cls-1" points="127.33 124.72 127.33 124.71 127.33 124.71 127.33 124.72"/><path class="cls-1" d="M116.45,119.68h0Z"/><path class="cls-1" d="M164.44,53v0l-.49.08h.11Z"/><path class="cls-1" d="M199.67,13.8h0Z"/><path class="cls-1" d="M195.82,15a.23.23,0,0,0,.18,0,2.15,2.15,0,0,1,.24-.18,4.09,4.09,0,0,1,.46-.25,4.6,4.6,0,0,1,.61-.25,5.18,5.18,0,0,1,.53-.14l.48-.06h.24a5.39,5.39,0,0,1,.56.08l.11,0,.08,0,.05,0,0,0a.34.34,0,0,0,.19.07.28.28,0,0,0,.29-.28.29.29,0,0,0-.14-.24,1.14,1.14,0,0,0-.31-.16l-.37-.07-.44-.05a4.27,4.27,0,0,0-.87.08,5.54,5.54,0,0,0-.88.26,5.23,5.23,0,0,0-1.15.65.29.29,0,0,0-.05.4A.28.28,0,0,0,195.82,15Z"/><path class="cls-1" d="M203.31,14.64a.28.28,0,0,0,.2-.08l.1-.06.23-.09.39-.1.45-.05h.08a5.58,5.58,0,0,1,.71,0l.3.05c.19,0,.38.1.57.16l.45.2a1.75,1.75,0,0,1,.29.18.23.23,0,0,0,.14,0,.29.29,0,0,0,.25-.14.28.28,0,0,0,0-.22.3.3,0,0,0-.12-.17,4.25,4.25,0,0,0-1-.48,3.88,3.88,0,0,0-.82-.18,6,6,0,0,0-.85,0h0a4.21,4.21,0,0,0-1.1.22,1.62,1.62,0,0,0-.37.19.29.29,0,0,0,.13.54Z"/><polygon class="cls-1" points="204.7 13.69 204.7 13.69 204.71 13.69 204.7 13.69"/><path class="cls-1" d="M199.65,16.88l-.16-.07a3.91,3.91,0,0,0-.83-.15,4.51,4.51,0,0,0-.9,0,3.7,3.7,0,0,0-.86.2,1.92,1.92,0,0,0-.46.21.28.28,0,0,0-.11.38.29.29,0,0,0,.25.15.23.23,0,0,0,.14,0l.1-.06.31-.12a4.6,4.6,0,0,1,.5-.13l.33,0h.39a5.31,5.31,0,0,1,.8.11l.17,0,.08,0,0,0h0a.42.42,0,0,0,.19.06.28.28,0,0,0,.29-.28.29.29,0,0,0-.18-.27Z"/><path class="cls-1" d="M203.16,17.73a.27.27,0,0,0,.17-.06h0a4.37,4.37,0,0,1,.49-.12c.21,0,.41-.06.62-.08H205l.52.07.33.11a.29.29,0,0,0,.16-.55l-.18-.06a2.94,2.94,0,0,0-.67-.12,4.41,4.41,0,0,0-.89,0,5.25,5.25,0,0,0-.87.14c-.2.05-.52.11-.52.38A.29.29,0,0,0,203.16,17.73Z"/><path class="cls-1" d="M200.15,22.11l.27,0h.38l.37-.06a1.82,1.82,0,0,0,.39-.14,2.5,2.5,0,0,0,.35-.21,1.11,1.11,0,0,0,.29-.32,2.09,2.09,0,0,0,.08-.23c0-.1.06-.21.08-.31a9.9,9.9,0,0,0,0-1.54c0-.29,0-.57-.06-.86a3,3,0,0,0-.08-.41,1.46,1.46,0,0,0,0-.2.09.09,0,0,0,0-.05.28.28,0,0,0-.28-.29.29.29,0,0,0-.28.28.75.75,0,0,0,0,.21l.09.34a6,6,0,0,1,.06.61h0v0h0c0,.29,0,.57,0,.85a7.3,7.3,0,0,1,0,.81l0,.24-.06.2a.36.36,0,0,1,0,.09h0l0,0,0,0-.1.07-.22.13h0l-.13,0-.23.06-.29,0h-.11l-.29,0a.29.29,0,0,0-.33.23A.3.3,0,0,0,200.15,22.11Zm1.15-.68Z"/><path class="cls-1" d="M201.25,25.73l-.59,0a5.84,5.84,0,0,1-.73-.11c-.15,0-.28-.08-.42-.12l-.35-.16,0,0-.06,0h0c-.12-.06-.24-.14-.36-.21l-.23-.18-.14-.11a.47.47,0,0,0-.25-.11.29.29,0,0,0-.29.28.31.31,0,0,0,.16.26,2.43,2.43,0,0,1,.25.2c.19.13.38.26.58.37a3.76,3.76,0,0,0,1,.35,5.17,5.17,0,0,0,1,.12H201a7.34,7.34,0,0,0,.81-.05,5.35,5.35,0,0,0,.8-.14,3.4,3.4,0,0,0,1.07-.59.3.3,0,0,0,.06-.4.28.28,0,0,0-.4-.06l-.31.22a2,2,0,0,1-.32.18l-.2.08-.29.08C201.89,25.67,201.57,25.71,201.25,25.73Z"/><path class="cls-1" d="M198,23.13a.29.29,0,0,0-.35-.21l-.13.07-.28.21a3.41,3.41,0,0,0-.58.62,3.89,3.89,0,0,0-.38.73,2.64,2.64,0,0,0-.17.47.29.29,0,0,0,.2.35h.07a.27.27,0,0,0,.28-.2,2,2,0,0,1,.07-.23,4.43,4.43,0,0,1,.2-.45,3.72,3.72,0,0,1,.19-.34l.21-.26a3.07,3.07,0,0,1,.26-.25,2.69,2.69,0,0,1,.27-.2h0A.29.29,0,0,0,198,23.13Z"/><path class="cls-1" d="M206.49,24.41a2.65,2.65,0,0,0-.18-.42,2.35,2.35,0,0,0-.24-.37,1.67,1.67,0,0,0-.33-.32,2.8,2.8,0,0,0-.35-.25,2.65,2.65,0,0,0-.42-.18,1,1,0,0,0-.34-.05.29.29,0,0,0-.29.28.3.3,0,0,0,.28.29h.12l.09,0,.23.1.18.12.25.18.11.12.12.16.1.18a2.44,2.44,0,0,1,.1.24,2.86,2.86,0,0,1,.07.28c0,.12,0,.24,0,.37v.06a.29.29,0,0,0,.24.31h0a.28.28,0,0,0,.29-.24.67.67,0,0,0,0-.2A3.2,3.2,0,0,0,206.49,24.41Z"/><path class="cls-1" d="M194.16,18.17h.08l.43-.13.35-.12c.15-.05.35-.13.37-.32a.38.38,0,0,0-.15-.32l-.12-.09c-.16-.12-.32-.24-.49-.35l-.13-.1a.28.28,0,0,0-.15,0,.28.28,0,0,0-.29.28.3.3,0,0,0,.08.2.18.18,0,0,0,.07,0l.31.22h0l.05,0-.46.15a.29.29,0,0,0-.2.35A.29.29,0,0,0,194.16,18.17Z"/><polygon class="cls-1" points="194.49 16.73 194.5 16.73 194.5 16.73 194.49 16.73"/><path class="cls-1" d="M207.18,17.78c0,.21.25.28.41.37s.4.22.59.34a.23.23,0,0,0,.14,0,.29.29,0,0,0,.25-.14.28.28,0,0,0-.09-.39l-.4-.23h0l.36-.16a.52.52,0,0,1,.13-.06h-.05a.28.28,0,0,0-.09-.56l-.13.05-.29.13-.52.22-.15.07A.34.34,0,0,0,207.18,17.78Z"/><path class="cls-1" d="M164.35,67.15h0Z"/><path class="cls-1" d="M281.7,159.44h0Z"/><path class="cls-1" d="M295.05,159.48c-1.67.09-5.49-.37-7.16-.27-1,0-2.07.09-3.11.12s-2,.06-3,.11h-.35l-.47,0h-.2c-1.12.06-2.25.13-3.38.23l-1.66.13c-.56.05-1.13.08-1.69.12-.38,0-.77,0-1.15,0l-1.38,0-2.42,0c-1.64,0-3.29,0-4.93,0l-2.68.09-2.47.1-1.36,0c-.38,0-.77,0-1.16,0l-2.53,0c-1.61,0-3.22-.05-4.83-.17l-.7-.1c.11-.21.21-.43.31-.64a18.17,18.17,0,0,0,.67-1.73c.23-.67.44-1.34.65-2s.37-1.25.56-1.88c.43-1.34.89-2.67,1.31-4s.82-2.57,1.26-3.85l.61-1.8c.22-.67.43-1.33.64-2,.4-1.25.79-2.5,1.15-3.77s.72-2.6,1.09-3.89c.74-2.58,1.53-5.15,2.32-7.71.42-1.33.82-2.65,1.21-4,.2-.69.4-1.38.59-2.07s.38-1.27.56-1.91c.38-1.32.79-2.63,1.22-3.93l.66-2c.21-.67.41-1.35.62-2l.54-1.83c.2-.65.41-1.29.61-1.94.4-1.32.75-2.65,1.12-4s.74-2.57,1.15-3.84.87-2.62,1.34-3.92v0c.26-.69.52-1.37.77-2.06l.72-2c.24-.66.47-1.33.7-2s.49-1.38.74-2.07v0c.37-1,.73-2,1.09-3.09.25-.69.5-1.38.74-2.07a.37.37,0,0,0,.09-.24c.08-.24.17-.49.25-.74.22-.63.43-1.26.64-1.89s.42-1.3.63-1.95.41-1.28.61-1.92.4-1.22.56-1.84.27-1.1.37-1.65c0-.24.06-.47.07-.7v-.35c0-.27,0-.54,0-.81a.54.54,0,0,0-.11-.32.42.42,0,0,0-.18-.14,2.4,2.4,0,0,0-.12-.38c-.14-.43-.3-.84-.47-1.26a9.23,9.23,0,0,0-.65-1.39,11.52,11.52,0,0,0-.77-1.15c-.31-.4-.63-.8-1-1.18a10,10,0,0,0-1-1,14.79,14.79,0,0,0-1.76-1.3c-.67-.41-1.35-.78-2-1.13s-1.3-.62-2-.91-1.36-.56-2-.81c-1.42-.51-2.86-.94-4.31-1.31l-1-.26c-.37-.91-.74-1.82-1.14-2.71a30.35,30.35,0,0,0-1.47-2.83c-.26-.43-.53-.87-.81-1.29s-.6-.88-.94-1.29-.69-.84-1.05-1.25-.73-.76-1.12-1.12a21.31,21.31,0,0,0-2.55-2.09,16,16,0,0,0-2.75-1.52c-.5-.21-1-.42-1.51-.6s-1-.34-1.46-.5c-1-.32-2-.64-3.07-.91s-1.91-.48-2.87-.71v0h-.06l-.16,0-.54-.14s0,0,0,0c-.83-.2-1.67-.39-2.51-.56-1.05-.21-2.09-.4-3.15-.56l-1.48-.2-1.53-.2c-1-.11-2.09-.21-3.14-.3s-2.06-.17-3.09-.22-2.09-.1-3.13-.19-2.06-.19-3.08-.36l-.21,0L215.18,37l-2-1.4c-.71-.51-1.41-1-2.08-1.6l-.53-.47-.15-.15V33s0-.11,0-.17h0v-.07h0c0-.26,0-.52.05-.79s0-.54,0-.81l.06-.6h0a.38.38,0,0,1,0-.1h0v-.07l0-.3c0-.31,0-.62.05-.92l0-.89c0-.31,0-.63,0-.94V27l0-.34c0-.19,0-.39.05-.59s0-.25,0-.38h0s0-.08,0-.12c.09-.81.16-1.61.21-2.42,0-.06,0-.13,0-.19,0-.23,0-.46.07-.68a.13.13,0,0,0,.06-.07c0-.14.07-.28.11-.43s.06-.23.1-.34l0-.1h0l.06-.11,0-.05.2-.07A1.57,1.57,0,0,0,212,21a2.27,2.27,0,0,0,.34-.19h0l.33-.23.3-.25h0a3,3,0,0,0,.25-.25h0l0,0h0a2.09,2.09,0,0,0,.14-.17l0,0c.11-.11.21-.22.31-.34a1.61,1.61,0,0,0,.21-.3l.09-.19a2.54,2.54,0,0,0,.17-.46,3,3,0,0,0,.07-.51,4.56,4.56,0,0,0,0-.64,3.41,3.41,0,0,0-.1-.64,3.46,3.46,0,0,0-.56-1.14,1.29,1.29,0,0,0-.16-.17c0-.44,0-.88,0-1.32s0-1.07.06-1.61c0-.83,0-1.65,0-2.48s-.05-1.66-.08-2.49-.06-1.64-.11-2.46c0-.4-.06-.81-.11-1.22a6.46,6.46,0,0,0-.21-1.15,2,2,0,0,0-.26-.57,1.9,1.9,0,0,0-.35-.4,2.81,2.81,0,0,0-1-.57c-.37-.13-.74-.24-1.12-.34s-.83-.22-1.25-.31a16.71,16.71,0,0,0-2.44-.27l-1.2-.07c-.42,0-.84-.06-1.25-.1C203.37,0,202.56,0,201.74,0s-1.66.06-2.49.11-1.63.12-2.44.21l-2.44.27a16.84,16.84,0,0,0-2.44.43,3.9,3.9,0,0,0-.57.21,2.9,2.9,0,0,0-.53.36,3.79,3.79,0,0,0-.8,1,3.26,3.26,0,0,0-.26.53,5.66,5.66,0,0,0-.2.58,8.65,8.65,0,0,0-.31,1.24c-.15.83-.23,1.67-.3,2.51s-.09,1.63-.1,2.45,0,1.68-.05,2.53,0,1.65-.05,2.48c0,.41,0,.83,0,1.25,0,.2,0,.4-.05.61l0,.34-.19.26a4.21,4.21,0,0,0-.3.55,4.76,4.76,0,0,0-.21.6,3.5,3.5,0,0,0-.12.63,4.56,4.56,0,0,0,0,.64,4.31,4.31,0,0,0,.1.61,3.77,3.77,0,0,0,.18.57,5,5,0,0,0,.27.57,2.88,2.88,0,0,0,.55.66,4.91,4.91,0,0,0,.51.39,2.73,2.73,0,0,0,.54.27,3.25,3.25,0,0,0,.63.17l.31,0h.25c0,.15,0,.31,0,.46s0,.47,0,.7c0,.49,0,1,0,1.46l0,1.79c0,.56,0,1.12,0,1.68,0,1.17,0,2.33,0,3.49,0,.29,0,.58,0,.87l-.16.14-.54.46c-.68.55-1.4,1-2.13,1.54l-2,1.33-.89.58-.07,0h-.42l-.44,0-.9.06c-.64.05-1.28.08-1.92.14s-1.5.13-2.25.18l-1.12.07c-.38,0-.77.06-1.15.1l-1.05.12-.48,0c-1.05.06-2.1.12-3.15.21l-1.53.14-1.49.16c-.92.11-1.83.24-2.74.39l-.82.09-1.18.17a.31.31,0,0,0-.25,0l-.38.1-.29.07c-.68.09-1.37.2-2,.33l-.4.09c-.26,0-.51.07-.76.12a19.39,19.39,0,0,0-2.16.51l-2.2.68c-.73.24-1.45.52-2.17.82l-1.06.47-1,.49c-.67.35-1.34.72-2,1.13s-1.29.84-1.9,1.32l-.88.73c-.3.26-.58.53-.87.81-.55.53-1.09,1.07-1.6,1.65l-.75.87c-.27.32-.52.64-.78,1s-.44.58-.65.88-.45.62-.66.94-.43.65-.63,1-.4.67-.58,1-.37.68-.53,1-.36.72-.51,1.08-.28.67-.4,1l-.07.14a16,16,0,0,0-.86,2.1c-.06.18-.11.37-.16.56a1.57,1.57,0,0,0,0,.23l-.59.33c-.63.35-1.24.72-1.85,1.09-.35.21-.69.42-1,.65s-.63.43-.94.65A13.3,13.3,0,0,0,132,64.52a11.52,11.52,0,0,0-.82.89l-.21.21-.76.84a9,9,0,0,0-.73.9c-.24.34-.46.69-.67,1a5.5,5.5,0,0,0-.45.91l-.07.13a2.56,2.56,0,0,0-.11.24c0,.1-.09.19-.13.28s-.07.21-.1.32a2.76,2.76,0,0,1-.08.27c0,.08,0,.15-.07.24s-.09.33-.14.49c-.13.41-.22.83-.36,1.23a5.48,5.48,0,0,1-.23.56c-.11.2-.23.39-.36.58s-.22.31-.34.45l-.13.13-.18.14-.45.14h0l-.75.25-.23.06c-.46.08-.93.15-1.39.24h0l-.5.09-.58.07-.59.07-.65.1c-.43.06-.87.09-1.31.12l-1.28.08-1.28.1c-.43,0-.86.07-1.29.12l-2.6.28-1.34.14c-.44.05-.88.08-1.32.1h-.18l-.85,0-.9.05-.89,0-.85.06-1.3.08-1.28.1c-.85.07-1.7.17-2.55.22l-1.32,0q-.64,0-1.29.12c-.42.06-.84.12-1.26.16l-1.26.13-1.26.16L94,77.71a12.71,12.71,0,0,0-2.52.54,4.91,4.91,0,0,0-.57.25,3.37,3.37,0,0,0-.59.32,4.71,4.71,0,0,0-.89.71,4,4,0,0,0-.65.72,3.26,3.26,0,0,0-.24.4,2,2,0,0,0-.13.25.36.36,0,0,0,0,.09A6.65,6.65,0,0,0,88,82.12a17,17,0,0,0-.24,2.26c0,.73-.09,1.46-.12,2.18s-.05,1.45-.06,2.18,0,1.42,0,2.13c0,1.47,0,2.95,0,4.42,0,.37,0,.74,0,1.11s0,.75,0,1.13c0,.76,0,1.52,0,2.27s0,1.44,0,2.15.05,1.56.06,2.34,0,1.53,0,2.3.06,1.53.11,2.3c.08,1.48.21,3,.41,4.42.1.73.19,1.46.33,2.18a10.12,10.12,0,0,0,.54,2.1,8.38,8.38,0,0,0,1.1,1.93,11,11,0,0,0,1.47,1.5c.28.25.57.49.87.73s.59.42.89.62c.62.39,1.25.74,1.89,1.09s1.36.7,2.05,1,1.29.66,1.95,1,1.38.63,2.08.92l2,.82c.71.3,1.43.58,2.16.85s1.43.49,2.15.72c1.38.44,2.77.9,4.13,1.4l1.84.71c.67.27,1.32.55,2,.84s1.39.6,2.09.9,1.36.59,2,.86l2.16.84c.69.26,1.39.5,2.09.75h0l1.52.58c1.41.55,2.82,1.12,4.23,1.66l2.1.83c.69.28,1.39.52,2.09.77h0l1.11.42c.37.15.74.3,1.11.43.69.26,1.37.53,2.07.78l2.07.74c.65.23,1.3.44,1.95.65l.78.25c.24.58.48,1.15.74,1.72s.51,1.16.76,1.73.51,1.14.78,1.69.59,1.16.89,1.74.56,1.09.83,1.65.61,1.3,1,1.93.62,1.13.95,1.69l1,1.68c.32.54.66,1.07,1,1.6h-.39l-.66,0c-.78,0-1.56.05-2.34.05s-1.69,0-2.53,0l-2.66,0c-.92,0-1.84,0-2.76-.05s-2-.11-3-.15-1.9-.06-2.86-.07c-.43,0-.87,0-1.31,0l-1.45,0c-1,0-1.93.05-2.89,0l-2.79,0c-2,0-3.93-.1-5.9-.13s-3.78-.07-5.68-.08h-2.9l-2.83,0-2.94,0-1.06,0-1.84,0c-1,0-2,0-3,0H96.27l-2.82,0c-.94,0-1.88,0-2.83,0l-3.06,0-2.9.07c-1.91,0-3.82.06-5.72.06-1,0-1.89,0-2.84,0l.31.85,2.84,0,2.86,0c1.89,0,3.78-.08,5.66-.11s4-.06,6-.05l2.75,0,2.84,0h2.85l2.91,0c1,0,2,0,3,0l2.82,0c2,0,3.94,0,5.91,0s3.88.07,5.81.12,3.76.09,5.64.09l3-.06c.9,0,1.8-.05,2.7,0s1.94,0,2.91.08l2.93.15c.94,0,1.88,0,2.82,0s1.85,0,2.77,0h2.91l1.43,0,.69,0H151a.41.41,0,0,0,.18,0,.43.43,0,0,0,.27-.1l.6.85c.38.52.76,1.05,1.17,1.54a13.89,13.89,0,0,0,1.24,1.41,10.45,10.45,0,0,0,1.43,1.13,16.85,16.85,0,0,0,1.56.87c.28.14.57.28.87.4s.55.22.84.31c.58.18,1.18.32,1.78.45s1.33.25,2,.36,1.25.17,1.88.22,1.29.05,1.94.06l2,0,4.16.06c2.71,0,5.43.09,8.14.22s5.48.25,8.22.46l3.26.27,3.45.25c2.32.2,4.64.41,7,.49l.65,0h2.87c.57,0,1.14,0,1.71-.07l1.76-.11,1.88-.07,1.8,0c1.26,0,2.52,0,3.78,0,.65,0,1.3,0,1.95,0l1.88-.09,3.74-.22,2.62-.11c.85,0,1.69-.05,2.54-.1l2.65-.2,2.36-.17,1.2-.06c.46,0,.93-.08,1.39-.15s.84-.12,1.25-.2.85-.2,1.27-.3,1.12-.29,1.68-.47,1.08-.41,1.62-.61l.71-.31a5.77,5.77,0,0,0,.56-.27,6.41,6.41,0,0,0,1.07-.71,4.78,4.78,0,0,0,.6-.59c.17-.21.33-.42.48-.64s.32-.45.46-.69.3-.47.44-.71l.12-.23a5.05,5.05,0,0,0,.85.15c.63.07,1.27.09,1.9.12,1.66.05,3.31.08,5,.11h1.84l.75,0,1.21-.05,1.19,0c1.73-.07,3.47-.13,5.2-.15s3.3,0,5,0c.79,0,1.59,0,2.38,0,.44,0,.89,0,1.33-.06l1.3-.1c1.63-.13,3.26-.27,4.9-.35H281l.56,0h.21l1.12-.05c1.7,0,3.4-.08,5.1-.18s6.65.21,7.41.18ZM264.2,59.75c.73.28,1.46.56,2.18.88s1.41.64,2.11,1q.6.32,1.2.66c.35.2.68.42,1,.65s.73.55,1.08.85c.18.17.36.34.53.53l.53.6h0q.29.33.54.66c.19.25.38.5.55.76l.29.45.26.49c.16.37.32.74.47,1.11s.23.61.34.92a.39.39,0,0,0,0,.35c.06.15.12.29.17.44a.44.44,0,0,1,0,.1v.06c0,.26,0,.53,0,.79v0a.44.44,0,0,0-.07.22.58.58,0,0,0,0,.19,10,10,0,0,1-.2,1.2,3,3,0,0,1-.12.43,8.67,8.67,0,0,1-.38.82l-.56,1a7.42,7.42,0,0,1-.44.7c-.26.37-.55.7-.82,1.06s-.58.77-.9,1.14a10.58,10.58,0,0,1-.83.81c-.63.51-1.31,1-2,1.42-.29.19-.59.38-.89.54s-.63.34-.94.49-.67.32-1,.46l-1.11.44-2.1.79-.93.34a3.07,3.07,0,0,0-.23-.64c-.17-.36-.37-.71-.57-1.06a14.49,14.49,0,0,0-1.49-2.07,24,24,0,0,0-1.86-1.91c-.33-.31-.68-.61-1-.9s-.68-.51-1-.75c-.72-.49-1.46-1-2.23-1.39l-1.25-.66c-.38-.2-.76-.38-1.15-.56-.82-.4-1.65-.79-2.48-1.15s-1.65-.69-2.5-1-1.65-.53-2.48-.77-1.72-.49-2.59-.72l-2.67-.71c-.82-.22-1.64-.43-2.47-.62s-1.8-.41-2.7-.59-1.71-.35-2.57-.51l-2.78-.5c-.86-.15-1.72-.28-2.57-.4h0q-1.09-.17-2.19-.27c-.34,0-.69,0-1,0h0c0-.1,0-.2.05-.3.06-.27.11-.55.18-.83s.14-.54.23-.81.26-.65.4-1l.24-.48c.09-.16.19-.31.29-.47s.26-.36.39-.54l0,0h0l.14-.19.12-.15.16-.17.08-.09.05,0,0,0,.16-.13h0v0l.09-.08.09-.08h0l.16-.14.09-.07h0l.16-.15h0l.35-.25c.21-.14.41-.28.63-.4l.66-.3.36-.09a4.5,4.5,0,0,1,.64-.11h.05l.06,0q.7-.06,1.41-.06l.48,0,.5.07h0c.3,0,.59.1.89.16l.83.19.07,0h0l.08,0h0l.14,0,.11,0h.12a.23.23,0,0,0,.11,0,.18.18,0,0,0,.08-.09.7.7,0,0,0,.06-.19l0-.17c0-.18.07-.36.1-.54v0a.31.31,0,0,0,0-.13c.06-.3.07-.6.1-.9l.06-.6a5.6,5.6,0,0,0,.07-.59c0-.15,0-.31.05-.46s.06-.35.09-.53l.06-.34,2.44.23,3.57.3c1.54.13,3.08.27,4.62.44s3.1.34,4.64.55,3.05.42,4.57.67c.77.13,1.54.29,2.31.44l2.06.44A54,54,0,0,1,264.2,59.75ZM238.05,41.29l2.11.5c1.46.37,2.9.8,4.33,1.27.53.17,1.06.35,1.58.55s1.07.46,1.61.71c.31.15.61.31.91.48s.58.35.87.53.55.38.81.58l.86.7,1.05,1c.33.3.65.63,1,1s.57.66.85,1,.57.74.84,1.12.65,1,1,1.49.57,1,.84,1.51.67,1.34,1,2c.21.49.41,1,.61,1.48l-.22,0-2.28-.49c-.78-.15-1.56-.3-2.35-.43s-1.52-.25-2.29-.36c-1.53-.21-3.06-.42-4.59-.59s-3.16-.35-4.74-.5l-4.53-.39h0L233.77,54v-.13c0-.3.09-.6.14-.9a7.53,7.53,0,0,0,.11-.83.13.13,0,0,1,0,.06c0-.21.06-.41.1-.62s.1-.56.16-.85a1.17,1.17,0,0,0,.05-.2.42.42,0,0,0,0-.27l.27-1.16c.13-.54.28-1.07.45-1.6s.39-1.12.61-1.67.48-1.13.74-1.68a20.65,20.65,0,0,1,1.09-1.95ZM220.85,39c1,.06,2.08.1,3.13.18s2.06.16,3.09.26,2.05.21,3.07.34c1.29.17,2.58.36,3.86.6,1,.2,2.06.42,3.08.65l.17,0-.24.39c-.21.33-.41.66-.61,1s-.4.72-.59,1.09-.37.78-.54,1.18-.34.78-.49,1.17-.29.77-.42,1.16-.26.8-.37,1.2-.22.87-.32,1.3-.21,1-.29,1.45l-.09.44c0,.15,0,.3-.07.46h0c0,.11,0,.21,0,.32l-.07.38,0,.23c0,.13-.05.25-.07.38s0,.06,0,.09l0,0a.15.15,0,0,0,0,.07.36.36,0,0,0,0,.11c0,.34-.09.67-.14,1l0,.14c0,.16,0,.31-.08.47a9,9,0,0,0-.14,1c0,.17,0,.34-.06.51l-.06.51c0,.18,0,.35,0,.52s0,.25,0,.36a.51.51,0,0,0,0,.17.31.31,0,0,0,0,.1s0,.1,0,.15h0v0l-.12,0-.71-.16c-.38-.08-.77-.14-1.16-.2-.2,0-.41,0-.62,0h-.07a7.34,7.34,0,0,0-1.24,0h0l-.28.08a6.5,6.5,0,0,0-.77.12l-.58.14c-.14,0-.29.09-.43.15l-.22.11,0,0-.23.12a4.63,4.63,0,0,0-.46.31l-.36.28-.1.07c-.33.27-.65.55-.95.85a8.76,8.76,0,0,0-.83,1,7.27,7.27,0,0,0-.65,1.07,9.61,9.61,0,0,0-.5,1.14,8.5,8.5,0,0,0-.35,1.19c-.09.39-.16.78-.23,1.18h-.07c0,.23-.07.47-.1.7h.06l-.09.66c0,.42-.09.83-.12,1.24,0,.18,0,.35,0,.53a2,2,0,0,1-.09.73c-.06.86-.1,1.73-.11,2.59,0,1.1,0,2.19,0,3.29l-.28.07h0c-1.15.3-2.3.56-3.46.8-.94.2-1.89.37-2.84.53s-2,.32-3,.45h0l-.65.08h0l-1.24.15c0-.14,0-.28,0-.41h0l0-.21v-.07h0v0h0c-.06-.51-.11-1-.17-1.53h0c0-.1,0-.2,0-.3V74.16c0-.22,0-.43,0-.65,0-.5,0-1,.05-1.52,0-.2,0-.4,0-.61q0-.82,0-1.65c0-.88-.06-1.75-.08-2.62s0-1.65,0-2.49,0-1.68,0-2.52.06-1.64.08-2.46.05-1.73.06-2.6v-.92c.06-.89.11-1.77.16-2.66,0-.67.08-1.33.11-2l.17-.59c.1-.28.21-.56.33-.83s.17-.31.26-.47a5.32,5.32,0,0,1,.45-.61l0,0a1.34,1.34,0,0,0,.11-.14h0l.29-.3.35-.29.39-.28.55-.33c.3-.15.6-.28.91-.4l.61-.2a5.66,5.66,0,0,1,.59-.15c.4-.09.8-.15,1.19-.21l1.17-.15a6,6,0,0,0,.61-.1,2,2,0,0,0,1-.44,1.09,1.09,0,0,0,.31-.5,3,3,0,0,0,.05-.43c0-.2,0-.4,0-.6,0-.81,0-1.62,0-2.42,0-.41-.06-.83-.1-1.24l-.09-.61a3,3,0,0,0-.14-.59,2,2,0,0,0-.2-.41,1.64,1.64,0,0,0-.26-.33l-.1-.08C218.9,38.89,219.87,39,220.85,39Zm-9.42,39.2h0l.56-.07-.58.07Zm-1-42c0-.3.08-.6.14-.9h0a1,1,0,0,1,0-.17h0v0h0l0-.12h0l0,0,0,0h0l0,0h0l0,0H211l.09,0h0a.59.59,0,0,1,.19,0l.23.12.17.13.36.3c.11.11.23.21.35.31l.34.28.2.15.35.29.35.25.57.41.32.18h0c.25.15.5.29.74.45l.36.25.39.26c.14.1.29.19.42.29h0l.33.23.2.14.18.13a1.14,1.14,0,0,1,.17.15.59.59,0,0,1,.13.18l0,0h0l0,0,.07.09.06.12a.61.61,0,0,1,.07.14c0,.11.07.22.1.33.08.46.13.92.17,1.38a16.28,16.28,0,0,1,.05,1.71c0,.31,0,.61,0,.92s0,.57,0,.86a1.94,1.94,0,0,1,0,.24v0s0,0,0,.06l0,0,0,0,0,0-.06.05-.11.06-.13.06-.26.07c-.39.08-.79.13-1.18.17L215,46c-.4.07-.8.15-1.2.26a10.53,10.53,0,0,0-1.19.42,6.37,6.37,0,0,0-1.28.7c-.2.14-.41.29-.6.45a4.64,4.64,0,0,0-.5.49h0a1.34,1.34,0,0,1-.11.14h0v0a6.46,6.46,0,0,0-.44.59v0l.21-2.59c.2-2.33.34-4.68.43-7,0-.72.06-1.45.1-2.17a.37.37,0,0,1,0-.11C210.41,36.84,210.44,36.53,210.48,36.23Zm-19.39-14-.38,0-.21,0-.21-.07L190,22l-.31-.21a3.88,3.88,0,0,1-.31-.26,1.07,1.07,0,0,1-.14-.16c-.06-.07-.11-.15-.17-.23s-.09-.16-.13-.25a4.6,4.6,0,0,1-.19-.52,4.36,4.36,0,0,1-.11-.52,2,2,0,0,1,0-.25,3.54,3.54,0,0,1,0-.46c0-.09,0-.17,0-.25s.13-.44.21-.65l.09-.19c.07-.13.15-.24.23-.36s.27-.34.41-.5.27-.25.41-.37l.11-.08v.1a2.94,2.94,0,0,0,0,.42,2.26,2.26,0,0,0,.08.44,1.39,1.39,0,0,0,.06.19l.09.17a1.83,1.83,0,0,0,.24.31.69.69,0,0,0,.13.11.61.61,0,0,0,.18.09.78.78,0,0,0,.22,0h0a.75.75,0,0,0,.21,0,1,1,0,0,0,.21-.11l.14-.11a3.47,3.47,0,0,0,.29-.25l.09-.08a1.24,1.24,0,0,0,0-.16,2,2,0,0,0,0-.24v0a1.07,1.07,0,0,0,.07-.19h0l0-.05v0a.08.08,0,0,0,0,0s0,0,0-.06l0-.16c0-.12,0-.24.06-.35s0-.23,0-.34c0-.3,0-.59.05-.89l0-.92c0-.31,0-.61.07-.91l.06-.45c0-.15,0-.3.05-.44s0-.29,0-.44,0-.29.05-.44l.06-.46c0-.16,0-.32.05-.48a.06.06,0,0,0,0-.07c0-.36.08-.72.13-1.08a8.86,8.86,0,0,1,.38-1.6c.14-.43.29-.86.46-1.28a5.07,5.07,0,0,1,.35-.65,6,6,0,0,1,.44-.59,1.82,1.82,0,0,1,.31-.31,2.49,2.49,0,0,1,.5-.35,2,2,0,0,1,.41-.13l.17-.08.36-.14.28-.06.19,0h.32c.4.06.79.18,1.19.26s.85.17,1.28.24a8,8,0,0,0,1.2.14h.66a4.55,4.55,0,0,0,.63-.09,11,11,0,0,0,1.25-.33c.39-.12.77-.25,1.16-.36a13.5,13.5,0,0,1,1.67-.39,4.64,4.64,0,0,1,.64-.07l.33,0,.58.11.33.11.22.1.14.1.17.14.13.14v0h0a2,2,0,0,1,.41.54,2.53,2.53,0,0,1,.18.42,3.87,3.87,0,0,1,.25.55,3.63,3.63,0,0,1,.1.45l.09.5h0v0h0l.09.75c0,.26,0,.53.06.8v.76c0,.3,0,.6,0,.9V11c0,.44,0,.88,0,1.33s0,1,0,1.46v0c0,.26,0,.52,0,.77h0v0a1.93,1.93,0,0,0,0,.24v.06c0,.23,0,.45,0,.68l0,.92c0,.3,0,.6,0,.9a.14.14,0,0,0,0,.07,1.88,1.88,0,0,0,.05.33h0a1,1,0,0,0,.06.18.78.78,0,0,0,.1.15.45.45,0,0,0,.13.11.27.27,0,0,0,.13,0h.06a.65.65,0,0,0,.2-.05.67.67,0,0,0,.18-.07l.16-.13.12-.16c0-.07.07-.13.1-.2a1.8,1.8,0,0,0,.08-.21,3.2,3.2,0,0,0,.1-.42l.09-.44c.05-.29.11-.59.19-.88h0a.65.65,0,0,1,0-.13l.3.07.33.1.32.15.11.07a.35.35,0,0,0,.15.12l.1.11.12.16.16.32a3.39,3.39,0,0,1,.15.41c0,.07,0,.15.05.22s0,.32,0,.48a3.91,3.91,0,0,1,0,.49l0,.16a1.42,1.42,0,0,1-.07.22,2.55,2.55,0,0,1-.13.29.35.35,0,0,0-.05.08c-.09.11-.19.22-.29.32a3.92,3.92,0,0,1-.37.34,2.52,2.52,0,0,1-.33.24c-.16.1-.32.18-.48.26h-.13l-.35,0-.24,0-.28,0a.4.4,0,0,0-.35.43.09.09,0,0,0,0,.05,1.62,1.62,0,0,0,0,.22c0,.36,0,.72,0,1.08l-.06,1-.09,1c-.06.68-.12,1.36-.19,2s-.17,1.24-.28,1.86-.25,1.38-.42,2.07c0,.16-.09.32-.15.48a.5.5,0,0,1,0,.13.21.21,0,0,0,0,.06l-.1.11-.09.09-.16.11-.21.11-.41.15h0a.27.27,0,0,0-.12,0h-.07c-.2,0-.4.07-.61.11l-.52.09-.65.09a.4.4,0,0,0-.36.42s0,0,0,.06a.27.27,0,0,0,0,.12.25.25,0,0,0,.06.14l.09.06.2.07a.76.76,0,0,0,.21,0h0a3.15,3.15,0,0,0,.44,0,6.09,6.09,0,0,0,.87-.17l.45-.13a3.16,3.16,0,0,0,.43-.16l.24-.11.19-.09a2.3,2.3,0,0,0,.43-.25v1.06a.86.86,0,0,0,0,.16v0l0,1c0,.32,0,.64,0,1-.05.57-.1,1.15-.14,1.72-.06.84-.11,1.68-.16,2.52l-.12,2.46c0,.19,0,.39,0,.58s-.05.6-.06.9c-.05.73-.07,1.46-.1,2.19,0,.22-.09.43-.15.65a9.42,9.42,0,0,1-.41,1.12,18.45,18.45,0,0,1-.84,1.66c-.12.19-.24.37-.37.55s-.25.33-.37.49l-.51.62-.54.57c-.18.18-.37.35-.56.52s-.37.26-.57.38-.48.24-.72.35l-.1,0-.09,0-.67.25a6.32,6.32,0,0,1-.62.18l-.63.16-.68.11a10.48,10.48,0,0,1-1.12,0h-.4l-.36,0h0l-.21,0h0l-.51-.1-.53-.13-.58-.18-.57-.22-.48-.22a4.09,4.09,0,0,1-.46-.25c-.22-.14-.44-.27-.65-.42s-.24-.19-.35-.3-.25-.23-.37-.35-.17-.18-.25-.28a3.76,3.76,0,0,1-.25-.31l-.14-.19-.11-.18c-.08-.14-.16-.28-.23-.43s-.14-.3-.2-.45-.13-.31-.18-.48-.09-.32-.13-.48c-.09-.34-.16-.67-.22-1s-.07-.48-.1-.72c0-1,0-2,0-3s-.07-1.67-.11-2.5c0-.43,0-.87-.08-1.3,0-.2,0-.4,0-.6a1.09,1.09,0,0,1,0-.18v-.21a3.59,3.59,0,0,0,0-.47,2.54,2.54,0,0,0,0-.29c0-.4,0-.79,0-1.18,0-.8,0-1.61,0-2.42s0-1.61,0-2.42h0V31.3h0s0-.06,0-.1v0s0-.09,0-.13v-.42a2.7,2.7,0,0,0,.25.34,4.78,4.78,0,0,0,.45.45,2.81,2.81,0,0,0,.5.35,4.27,4.27,0,0,0,1.19.44,5.93,5.93,0,0,0,1.12.16h0a.4.4,0,0,0,0-.79l-.29,0a7.14,7.14,0,0,1-.78-.15h0a5.05,5.05,0,0,1-.55-.18l-.31-.14L193.5,31l-.21-.17-.33-.35-.19-.28a2.44,2.44,0,0,1-.14-.28,5.49,5.49,0,0,1-.2-.57c-.05-.21-.1-.41-.13-.62s-.07-.5-.1-.75,0-.32,0-.48c0-.8.06-1.61.08-2.41s0-1.53,0-2.29a.53.53,0,0,0,.08-.27.4.4,0,0,0-.43-.36l-.13,0-.21,0A5.07,5.07,0,0,1,191.09,22.26Zm1,56.18H192v-.22c0-.69,0-1.37,0-2.06,0-.32,0-.64,0-1s0-.67,0-1l.06-1.12c.06-.85.15-1.7.23-2.55s.14-1.66.2-2.5.1-1.7.13-2.55.07-1.68.08-2.51c0-1.7,0-3.39,0-5.09q0-1.24.06-2.49c0-.85,0-1.69,0-2.54,0-.59,0-1.17-.06-1.76s-.06-1-.1-1.58c.06.13.12.25.19.37a4.32,4.32,0,0,0,.33.5,4.7,4.7,0,0,0,.35.43c.13.14.27.29.42.43s.26.25.41.37a5.09,5.09,0,0,0,.47.34c.17.11.34.22.52.32a9.26,9.26,0,0,0,1.05.51c.37.14.74.27,1.13.38s.73.19,1.1.25l.32,0,.35,0h.38c.26,0,.52,0,.79,0a7.67,7.67,0,0,0,1.16-.15c.38-.08.76-.18,1.14-.29s.68-.24,1-.37l0,0h0a7.93,7.93,0,0,0,.83-.4c.13-.07.26-.16.38-.24l.36-.26A11.88,11.88,0,0,0,207,50.05a9.54,9.54,0,0,0,.67-.9,10.38,10.38,0,0,0,.59-1c.08-.14.15-.29.22-.43,0,.21,0,.42-.07.64-.1.85-.2,1.7-.27,2.55-.05.59-.09,1.19-.12,1.79h0c0,.84,0,1.68-.05,2.51s0,1.66,0,2.49c0,1.7-.13,3.39-.16,5.09,0,.84,0,1.68,0,2.52s0,1.7,0,2.55.07,1.67.12,2.5.12,1.7.15,2.56,0,1.66,0,2.49v.07h0c0,.28,0,.56,0,.84s0,.72,0,1.07c0,.16,0,.31,0,.46v0l-1.4.14c-1,.08-2,.17-3,.23l-3.09.17c-2,.09-3.91.12-5.87.1h0C194,78.5,193.05,78.49,192.13,78.44ZM183.5,40c0-.11.07-.21.11-.32l.07-.15.07-.11.07-.08,0,0h.06a.86.86,0,0,1,.14-.18l.18-.15.18-.12.2-.13.34-.22h0l.43-.27.4-.26.37-.23,0,0,.7-.4h0l.33-.17.59-.39.35-.24.37-.28.19-.14.36-.27.36-.3.36-.29a1.88,1.88,0,0,1,.18-.12,1.2,1.2,0,0,1,.23-.11.45.45,0,0,1,.19-.05h0l.1,0a.27.27,0,0,1,.09,0l.11.07,0,0,0,0h0l0,0s0,0,0,.06a.83.83,0,0,1,0,.15h0l0,.24,0,.24c0,.19,0,.38,0,.57l.06,1.8c0,.31,0,.61,0,.91v.13c0,.11,0,.22,0,.34,0,2.34.08,4.68.2,7,.05.87.09,1.74.13,2.62h0a5,5,0,0,0-.42-.6v0l0,0h0l-.11-.13h0a5.79,5.79,0,0,0-.48-.51c-.2-.16-.39-.32-.6-.47a6,6,0,0,0-1.25-.73,9.94,9.94,0,0,0-1.18-.46,12.18,12.18,0,0,0-1.19-.3l-1.19-.2c-.39-.06-.79-.12-1.18-.21l-.25-.08-.14-.06-.1-.07-.06-.05,0,0,0,0v0l0-.07v0c0-.08,0-.16,0-.24,0-.28,0-.57,0-.85s0-.62,0-.92c0-.57,0-1.14.1-1.71S183.41,40.49,183.5,40Zm-19.27.32c1-.21,2.06-.39,3.1-.56l.75-.11,1.14-.12a.2.2,0,0,0,.11,0h.17c.75-.08,1.5-.12,2.26-.19l2.23-.2,1-.1c.79-.05,1.58-.09,2.38-.12,1,0,2.08,0,3.13-.08s1.95-.08,2.92-.15l-.11.07a1.35,1.35,0,0,0-.26.32,3,3,0,0,0-.21.4,2.46,2.46,0,0,0-.16.59c0,.2-.08.4-.11.61-.06.41-.11.82-.14,1.23-.06.8-.06,1.61-.08,2.42,0,.2,0,.4,0,.6a2,2,0,0,0,0,.43,1.13,1.13,0,0,0,.29.51,2.12,2.12,0,0,0,1,.48l.6.12,1.17.18c.39.07.79.15,1.18.24l.59.17.61.23c.3.13.6.27.89.42l.54.35c.13.1.26.19.38.3s.23.19.34.29l.28.32h0v0h0l.12.14,0,0a5.27,5.27,0,0,1,.43.62c.09.16.17.32.25.48s.21.55.3.84.1.39.14.59c0,.67,0,1.34,0,2,0,.9.05,1.79.08,2.68,0,.3,0,.61,0,.91s0,.82,0,1.22c0,.18,0,.36,0,.55l0,.44c0,.06,0,.11,0,.17l0,.38c0,.15,0,.31,0,.46h0v.11c0,.37,0,.74,0,1.12,0,.75,0,1.5,0,2.24,0,.53,0,1-.07,1.58s0,1-.07,1.53h0v0h0v0h0c0,.08,0,.16,0,.24h0a3.37,3.37,0,0,1-.09.71v.41c0,.75,0,1.51-.06,2.26h0v.05h0v.06h0v0c0,.45,0,.91-.05,1.37s-.06.84-.1,1.27h0v0h0v.06c0,.16,0,.31,0,.47l0,.26c0,.18,0,.36-.05.54h0c0,.1,0,.21,0,.32,0,.33-.07.67-.11,1l-.09,1c0,.34-.05.68-.1,1,0,0,0,0,0,.06l-.33,0-.59,0-.74-.06-1.55-.16-1.47-.19-.93-.15-.92-.16-.84-.17-.86-.18c-1-.2-1.92-.38-2.88-.59l-.46-.1c.06-1.46.12-2.92.14-4.38,0-1.7,0-3.4-.19-5.09,0-.44-.09-.87-.14-1.31s-.05-.66-.07-1,0-.4,0-.6a3.86,3.86,0,0,0-.12-.59,12.14,12.14,0,0,0-.36-1.17c-.14-.4-.31-.79-.49-1.18a5.92,5.92,0,0,0-.56-1,8.19,8.19,0,0,0-.77-.89,6.88,6.88,0,0,0-.91-.79,5.6,5.6,0,0,0-.84-.44l-.51-.15-.17,0h0l-.36-.07-.34-.07c-.22,0-.44-.09-.67-.12l-.43,0-.38,0H172l-.13,0a4.18,4.18,0,0,0-.79,0c-.4,0-.8.08-1.19.14h0l-.21,0h0l-.56.09h0l-.55.08-.17,0V58h0c-.07-.66-.13-1.32-.19-2l-.12-1.43h0a.24.24,0,0,1,0-.08c0-.15,0-.3-.05-.46s0-.21.05-.31H168c0-.31-.06-.62-.1-.93l.05,0,0-.09c0-.13,0-.26-.05-.38l0-.27h0c0-.12,0-.23,0-.35a3.11,3.11,0,0,1,0-.32h0c-.1-.79-.22-1.58-.37-2.36-.09-.43-.18-.87-.28-1.31s-.21-.81-.33-1.21-.24-.79-.38-1.17l-.45-1.19c-.16-.4-.32-.8-.51-1.2s-.36-.74-.56-1.1-.38-.68-.57-1c-.08-.13-.16-.26-.23-.4ZM191,78.27l0,0h.06a.37.37,0,0,0-.18.08h0l0,0h0ZM139.47,58.75c.11-.35.24-.71.37-1.06s.42-.88.65-1.31c.34-.65.7-1.3,1.08-1.93h0a2.26,2.26,0,0,0,.16-.26c.39-.64.78-1.29,1.2-1.91s.87-1.22,1.33-1.81c.32-.41.65-.8,1-1.18l1.07-1.11c.47-.46,1-.91,1.47-1.32s1-.81,1.49-1.2A27.42,27.42,0,0,1,151.76,44c.67-.38,1.35-.74,2.05-1.05l.86-.34,1.08-.41,1.07-.37c.69-.22,1.39-.42,2.1-.61s1.52-.36,2.29-.52l1.64-.31.37,0h0v0h0a1.21,1.21,0,0,1,.05.18c.17.32.36.63.54.94q.56,1,1,2c.25.57.47,1.14.68,1.71s.39,1.12.57,1.69.28,1.07.4,1.61.22,1.14.32,1.71.14,1,.2,1.48a1.46,1.46,0,0,1,.07.19v0s0,.08,0,.13v0h0v0h0v0h0a2,2,0,0,1,.07.35l0,.18v.08a4.07,4.07,0,0,1,0,.78s0,.06,0,.09v.11c-1,.11-2,.24-3.07.37-3,.38-6,.79-9.06,1.31-1.57.26-3.13.54-4.69.85s-3,.67-4.43,1.12-2.94.94-4.4,1.47c-.68.24-1.37.49-2,.8l-.44.21C139.22,59.52,139.34,59.14,139.47,58.75ZM129.34,71.61c0-.25,0-.5.08-.75s.07-.49.12-.73l.09-.39.12-.41,0-.09a.08.08,0,0,1,0,0l0-.12h0l0,0c0-.09.08-.19.12-.28a4.44,4.44,0,0,1,.24-.49c.12-.23.24-.46.38-.68s.26-.41.4-.61.42-.56.65-.83l.1-.12.27-.28c.32-.33.64-.65,1-1l0,0a.39.39,0,0,0,.14-.2c.31-.25.61-.49.93-.72l1.11-.76,2.16-1.3c.68-.4,1.36-.76,2.06-1.11l1.21-.53c.39-.16.79-.3,1.2-.44.79-.29,1.59-.57,2.39-.84h0c1.09-.36,2.19-.71,3.31-1,.59-.15,1.18-.31,1.78-.44.3-.07.61-.15.92-.21l1-.19h0c2.39-.45,4.79-.87,7.2-1.23l3.68-.52c1.22-.15,2.43-.32,3.65-.46l1.57-.19c0,.29.05.56.07.84.07.86.14,1.71.24,2.56a.17.17,0,0,0,0,.07s0,.05,0,.07a1,1,0,0,0,0,.17.38.38,0,0,0,.13.36l0,0,0,0a.58.58,0,0,0,.18.08l.15,0h0l.19,0,.36,0h.11l.12,0h0l.14,0a6.56,6.56,0,0,1,.76-.09h0l.23,0,.89-.1.47,0h.08l.37,0H172l.38,0,.22,0,.23,0h0a5.68,5.68,0,0,1,.7.22,6,6,0,0,1,.72.35c.21.13.42.27.62.42s.56.46.83.71.41.41.6.63a8.56,8.56,0,0,1,.66.92c.09.16.19.32.27.48s.15.33.23.49c.13.32.26.65.37,1s.14.54.2.82.1.53.15.8a.25.25,0,0,0-.12,0h-1l-1.12,0c-.77,0-1.53.07-2.29.15s-1.58.17-2.36.29l-2.45.38c-.77.13-1.55.27-2.32.43-.37.07-.74.16-1.1.24l-1.12.28-.62.16h-.07l-1.16.32c-.74.21-1.47.46-2.2.71s-1.45.54-2.16.84-1.45.61-2.15,1-1.38.7-2.06,1.07-1.45.81-2.16,1.24l-.94.58-1,.63c-.66.45-1.31.91-1.94,1.39-.32.25-.64.5-.95.76s-.57.53-.85.8h0l0,0h0c-.28.27-.54.55-.8.82s-.58.61-.86.93c-.52.59-1.05,1.18-1.52,1.81-.24.31-.47.63-.68,1s-.41.62-.6.94v0l-.06.11a1.71,1.71,0,0,0-.13.23s0,0,0,.07a1.71,1.71,0,0,0-.13.23v0c-.07.14-.15.27-.22.4s-.14.28-.21.42l-.16.3-1.2-.49c-.58-.25-1.15-.53-1.72-.82s-1.08-.6-1.6-.93q-.45-.27-.9-.57l-.67-.47c-.31-.22-.62-.44-.92-.68l-.91-.76-.65-.62-.59-.65c-.16-.19-.32-.39-.47-.59l-.31-.44-.35-.57-.27-.5c-.11-.23-.23-.47-.33-.71s-.18-.49-.27-.75-.08-.25-.11-.37l-.06-.3c0-.22-.06-.44-.08-.66s0-.42,0-.64S129.32,71.85,129.34,71.61Zm109.2,93.86-.51.08.53-.09Zm10-65.52h0c-.22.61-.45,1.21-.68,1.82s-.49,1.28-.73,1.93c-.32.85-.66,1.69-1,2.54l-.93,2.49c-.33.87-.66,1.74-1,2.62s-.61,1.67-.91,2.51-.57,1.52-.87,2.27-.64,1.54-.95,2.31-.67,1.62-1,2.42-.77,1.75-1.17,2.61-.77,1.62-1.14,2.43-.75,1.63-1.12,2.45-.81,1.77-1.21,2.66-.7,1.58-1,2.38-.74,1.71-1.13,2.56-.77,1.61-1.17,2.4c-.69,1.31-1.41,2.6-2.1,3.91h0v0h0l-.21.39h0l0,.06c-.29.55-.59,1.1-.89,1.65s-.6,1-.91,1.55c-.62,1-1.29,2-2,3-.59.84-1.2,1.69-1.83,2.5s-1.28,1.58-2,2.33-1.21,1.25-1.83,1.86-1.27,1.18-1.92,1.74h0c-.36.3-.72.59-1.1.87l-1.1.82-1.05.79c-.33.26-.67.5-1,.73s-1,.63-1.5.92l-1.6.9-1.57.89c-.5.27-1,.54-1.51.79l-.86.4c-.29.13-.58.25-.88.36-.53.17-1.07.33-1.62.45l-.86.2-.73.2-1.55.44c-.45.13-.91.27-1.37.36l-.74.12-.56.13,0,0-1-.08c-1.18-.11-2.35-.21-3.53-.3l-3.4-.25h.06l-2.63-.22c-.9-.07-1.79-.12-2.68-.17l-5.11-.25c-2.7-.13-5.4-.17-8.11-.21l-4.14-.07-2,0c-.64,0-1.28,0-1.93-.07s-1.19-.13-1.79-.23-1.24-.21-1.86-.34h0q-.5-.1-1-.24c-.32-.08-.63-.18-.94-.28l-.75-.3-.83-.4c-.49-.26-1-.54-1.42-.84-.14-.1-.29-.2-.43-.32l-.44-.38c-.15-.14-.3-.27-.44-.42l-.43-.48a40.43,40.43,0,0,1-2.85-3.89h0c-.29-.44-.57-.89-.84-1.34s-.53-.91-.79-1.36c-.53-.91-1.05-1.81-1.52-2.75-.18-.38-.36-.77-.55-1.16s-.41-.83-.62-1.25L146,146.73c-.38-.81-.74-1.64-1.11-2.46s-.63-1.43-.93-2.15a.42.42,0,0,0,0-.1.41.41,0,0,0-.28-.52h0c-.31-.75-.62-1.49-1-2.22-.17-.36-.34-.72-.5-1.08s-.21-.43-.31-.65a.42.42,0,0,0-.54-.23.44.44,0,0,0-.24.55l.21.43c.08.19.17.38.26.56.25.53.5,1.06.73,1.61.11.23.21.47.31.71l-1.13-.36-1.6-.56-1.56-.55-1.24-.48-1.28-.48c-.42-.17-.83-.34-1.25-.49l-1.3-.47c-.8-.3-1.59-.62-2.39-.94l-2.07-.8-2.07-.82-2.15-.82c-.69-.26-1.39-.5-2.09-.75-1.4-.52-2.78-1.07-4.15-1.67l-2-.86c-.67-.29-1.34-.59-2-.87-1.38-.55-2.77-1.08-4.19-1.55L108,128c-.69-.23-1.38-.45-2.07-.69-.51-.19-1-.38-1.51-.59-.67-.26-1.32-.54-2-.81s-1.38-.58-2.06-.89-1.33-.64-2-1l-2-1c-.51-.27-1-.54-1.52-.83s-.95-.56-1.4-.87c-.27-.2-.54-.4-.8-.61l-.68-.6c-.31-.29-.61-.59-.89-.91a8.05,8.05,0,0,1-.49-.66,8.34,8.34,0,0,1-.52-.92c-.1-.21-.18-.43-.27-.65a16.16,16.16,0,0,1-.39-1.67h0v0c-.1-.56-.18-1.12-.26-1.68s-.16-1.15-.22-1.72-.12-1.19-.16-1.79-.08-1.13-.11-1.69q-.09-1.86-.12-3.72c0-1.2-.07-2.4-.08-3.6,0-1.49,0-3,0-4.47,0-.75,0-1.49,0-2.24s0-1.5,0-2.26c0-1.42,0-2.85.06-4.28,0-.71,0-1.43.09-2.14s.08-1.49.13-2.23c0-.22,0-.45.07-.67l.12-.65c0-.2.11-.39.17-.59s.14-.36.23-.54l0-.05c0-.07.09-.14.14-.21a6.19,6.19,0,0,1,.47-.55l.09-.09a3.92,3.92,0,0,1,.32-.25c.15-.09.3-.18.46-.26.39-.18.79-.33,1.19-.47s.65-.19,1-.27l1-.23.18,0c.75-.13,1.51-.21,2.27-.28s1.5-.12,2.25-.17l2.23-.16L102,78l.59,0,.31,0h0a1.37,1.37,0,0,0,.29,0h0l.25,0h.13l1.35-.06h-.06l.66,0,2.29-.16c.74-.06,1.47-.14,2.21-.19,1.51-.12,3-.17,4.54-.29l1.14-.11,1.11-.15,2.18-.25c.75-.09,1.51-.18,2.27-.25s1.46-.13,2.18-.25c.36-.06.71-.13,1.06-.21s.7-.15,1.05-.24a6.33,6.33,0,0,0,1-.32,4.44,4.44,0,0,0,.49-.24,2,2,0,0,0,.59-.58,5.46,5.46,0,0,0,.82-1.72c0,.09,0,.19,0,.29s0,.38.07.58l0,.16c0,.09,0,.18.06.28.1.33.19.66.32,1s.27.65.43,1,.3.58.47.86.36.56.56.82a12.68,12.68,0,0,0,1.5,1.69,20.25,20.25,0,0,0,1.74,1.45c.6.43,1.21.86,1.84,1.26s1.24.74,1.87,1.09a22.72,22.72,0,0,0,2.06,1c.67.29,1.35.55,2,.81s1.53.51,2.3.74,1.48.39,2.22.57,1.43.34,2.15.51l1.1.25,1.15.22,4.48.89c.72.13,1.43.28,2.15.42l2.19.41,2.27.41,2.21.41,2.27.43c.74.12,1.48.25,2.22.33,1.55.18,3.11.3,4.66.41.76.06,1.51.09,2.26.13l2.18.09,4.63.18c1.57.06,3.13.12,4.7.15l3.6.07h1c1.54,0,3.09,0,4.63,0l2.28-.05c.83,0,1.66,0,2.5,0,1.55,0,3.11,0,4.66,0l2.2.06,1.29,0,1,0,1.23,0,1.21,0,2.16-.12,4.61-.3c1.64-.11,3.28-.24,4.92-.38s3.15-.32,4.73-.48,3.09-.29,4.64-.45,3-.34,4.49-.6,3-.55,4.56-.8,3.06-.48,4.59-.71,3.12-.45,4.66-.77l2.41-.53,2.13-.49c.73-.19,1.46-.37,2.18-.6l1.14-.37,1.12-.4,2.06-.76,2.07-.77c.7-.27,1.4-.52,2.09-.82.34-.15.68-.29,1-.46s.64-.32,1-.5l.94-.58c.31-.21.62-.41.92-.63s.6-.41.88-.64a7.31,7.31,0,0,0,.72-.64,7.08,7.08,0,0,0,.64-.7c.19-.23.37-.47.55-.71.32-.41.66-.8,1-1.22-.31,1-.61,2-.94,2.92-.21.61-.41,1.22-.62,1.82,0,.13-.09.26-.13.39a.32.32,0,0,0-.18.1.43.43,0,0,0-.13.26c-.32.23-.64.47-1,.69s-.91.55-1.37.81-.87.46-1.31.67c-.94.44-1.9.87-2.85,1.29l-1.5.65c-.45.19-.9.35-1.36.5-.74.23-1.48.44-2.22.65l-1.08.32c-.33.09-.66.18-1,.29h0l-.38.12h0l-.84.28a22.78,22.78,0,0,1-2.69.74l-1.15.21a7.43,7.43,0,0,0-1,.23,1.11,1.11,0,0,0-.72.46,1.25,1.25,0,0,0-.13.57,4.22,4.22,0,0,1-.1.62,28.59,28.59,0,0,1-1,3.27c-.37,1-.77,2-1.16,3-.19.47-.36.95-.54,1.43S248.7,99.46,248.52,100Z"/><path class="cls-1" d="M281.39,159.46h0Z"/><polygon class="cls-1" points="210.65 77.61 210.65 77.61 210.65 77.61 210.65 77.61"/><path class="cls-1" d="M211.81,21.08Z"/><path class="cls-1" d="M280.69,159.49h0Z"/><path class="cls-1" d="M192.86,52.82v0Z"/><path class="cls-1" d="M210.65,77.61Z"/><polygon class="cls-1" points="203.9 52.62 203.89 52.62 203.89 52.62 203.9 52.62"/><path class="cls-1" d="M217.56,121.81h0a.39.39,0,0,0-.09-.4l-1.59-1.53c-.55-.53-1.1-1-1.66-1.56s-1.34-1.22-2-1.85-1.25-1.23-1.86-1.86c-1.28-1.31-2.56-2.6-3.86-3.88-.64-.63-1.3-1.25-2-1.86s-1.29-1.21-1.95-1.8l0,0-.19-.17,0,0-.05,0,0,0-.22-.2,0,0c-.61-.57-1.24-1.12-1.86-1.69a4.16,4.16,0,0,1-.42-.42.79.79,0,0,0-.55-.39.41.41,0,0,0-.22.07h0a.68.68,0,0,0-.34.08,1.58,1.58,0,0,0-.38.35l0,0c-.16.18-.31.36-.47.53-.94,1-2,1.88-3,2.77-.82.7-1.65,1.38-2.48,2.07l-2.15,1.79c-.67.56-1.34,1.12-2,1.67l-2.14,1.75c-.68.56-1.37,1.11-2.07,1.64l-2.12,1.62-.48.38-.5.38-.47.34-.29.23a.42.42,0,0,0-.1.17.4.4,0,0,0-.21.46c0,.15.15.23.26.33l.21.19.51.45,1,.85,2,1.75c1,1,2,1.93,3.1,2.84.68.59,1.38,1.16,2.07,1.73s1.4,1.18,2.09,1.78l2,1.72c.68.59,1.37,1.19,2,1.79l2,1.72c.32.27.64.56,1,.81a4.6,4.6,0,0,0,.78.52,1.89,1.89,0,0,0,.46.2.86.86,0,0,0,.28,0,1.26,1.26,0,0,0,.38-.06,1.52,1.52,0,0,0,.55-.35l.06-.07a.33.33,0,0,0,.14,0,1.39,1.39,0,0,0,.27-.21l.39-.35h0c.53-.45,1.08-.87,1.63-1.29s1.1-.84,1.64-1.27c.7-.55,1.4-1.11,2.09-1.68s1.41-1.18,2.1-1.78l0,0,.32-.27,0,0,2-1.73,2-1.77h0l.33-.28,1-.84h0l.35-.29,0,0c.46-.4.93-.79,1.38-1.21s.91-.83,1.38-1.23l.11-.09a.4.4,0,0,0,.2-.35A.42.42,0,0,0,217.56,121.81Zm-.54.31-.34.31c-.26.22-.51.45-.76.68l-1.52,1.34-.3.25h0l0,0-1,.86c-1.26,1.08-2.51,2.18-3.78,3.27h0l-.84.71a.08.08,0,0,0,0,0l-1.17,1c-.46.39-.93.77-1.4,1.15l-1.46,1.17-2.09,1.61c-.35.27-.7.54-1,.83l-.48.4,0,0a.43.43,0,0,0-.41.18,3.76,3.76,0,0,1-.25.31l-.07.07-.06,0-.11.07h-.2l-.24-.11-.39-.23-.4-.3-1-.82-1-.85-2-1.78c-.67-.58-1.34-1.16-2-1.73s-1.33-1.15-2-1.71l-2.13-1.79c-.68-.56-1.34-1.14-2-1.73l-1.75-1.62c-.68-.62-1.37-1.23-2.07-1.84l-1.06-.93-.62-.55.6-.44c.33-.24.63-.5,1-.74,1.41-1.07,2.82-2.13,4.18-3.26l2.16-1.76c.68-.54,1.35-1.1,2-1.66l2.15-1.79c.7-.59,1.41-1.16,2.1-1.75s1.34-1.15,2-1.74c.34-.31.68-.63,1-1l.45-.46.43-.48.06-.06.13-.14a.19.19,0,0,0,.13,0,2.43,2.43,0,0,0,.3.34l.64.59,1.24,1.11h0l.15.14h0l.2.18h0l0,0,0,0,.16.15,0,0,1.65,1.52,1.71,1.61c.63.61,1.25,1.23,1.87,1.85s1.27,1.27,1.89,1.91,1.26,1.3,1.9,1.93,1.33,1.27,2,1.88,1.31,1.2,1.94,1.81,1.23,1.2,1.85,1.78a.58.58,0,0,0,.19.1Z"/><path class="cls-1" d="M213,125.62h0l0,0Z"/><path class="cls-1" d="M210.34,118.63a6,6,0,0,0-.09-.61,4.13,4.13,0,0,0-.13-.61.74.74,0,0,0-.28-.48.77.77,0,0,0-.42-.08l-.45,0-1.23.11-1.25.16-.39,0h-.2l-.45,0h0l-.35,0c-.3,0-.6,0-.9,0l-.45,0a.46.46,0,0,0-.28-.11.42.42,0,0,0-.33.16.44.44,0,0,0-.29.21.61.61,0,0,0-.08.4v.21c0,.71,0,1.43,0,2.14,0,.46,0,.92.1,1.37,0,.22.07.44.12.65a.59.59,0,0,0,.2.36.52.52,0,0,0,.38.09c.31,0,.62-.07.93-.12l1.28-.23-.09.5a10.45,10.45,0,0,1-.32,1.09c-.05.13-.1.25-.16.37l-.11.2-.22.27-.47.44-.49.37c-.1.07-.21.13-.31.21a.5.5,0,0,0-.19.37.55.55,0,0,0,.11.3.63.63,0,0,0,.42.23h.23a2.17,2.17,0,0,0,.36,0l.67,0c.23,0,.44-.08.66-.13a4.06,4.06,0,0,0,.62-.19,4.3,4.3,0,0,0,.6-.32,2.27,2.27,0,0,0,.4-.29,3.24,3.24,0,0,0,.38-.36,3.28,3.28,0,0,0,.42-.5c.14-.19.28-.38.4-.57a11.89,11.89,0,0,0,.68-1.2,9.22,9.22,0,0,0,.56-1.24,5.34,5.34,0,0,0,.32-1.31,11.3,11.3,0,0,0,.05-1.3C210.36,119.06,210.36,118.84,210.34,118.63Zm-.84,1.72c0,.22-.07.45-.11.67s-.1.36-.16.54c-.16.43-.36.83-.56,1.24s-.51.91-.8,1.35c-.17.22-.34.45-.52.66l-.27.26-.35.26-.35.2-.32.13c-.22.06-.44.12-.67.16l-.34,0a4.14,4.14,0,0,0,.89-1,5.26,5.26,0,0,0,.48-1.21,6.94,6.94,0,0,0,.27-1.28,1.71,1.71,0,0,0,0-.39.5.5,0,0,0-.48-.51h-.05a2.09,2.09,0,0,0-.35,0l-.64.12h0c-.32.06-.64.12-1,.16l-.39,0a12.18,12.18,0,0,1-.13-1.23c0-.64,0-1.28-.06-1.93v-.6H205a5.07,5.07,0,0,0,.68,0c.42,0,.84-.1,1.26-.15.77-.1,1.56-.2,2.34-.24h.05c0,.11,0,.23.07.35a6.86,6.86,0,0,1,.12.91A12.93,12.93,0,0,1,209.5,120.35Z"/><path class="cls-1" d="M201.65,125c-.05-1.06,0-2.12,0-3.18a4.36,4.36,0,0,0,0-.51.79.79,0,0,0-.1-.33.65.65,0,0,0-.27-.25,1.29,1.29,0,0,0-.58-.12h-.18a.45.45,0,0,0-.29-.12h-.06a.64.64,0,0,0-.18.06.37.37,0,0,0-.3.08c-.34.05-.68.07-1,.09-.61,0-1.21,0-1.82.06-.29,0-.59,0-.88.07s-.47.05-.71.09a.6.6,0,0,0-.47.26.91.91,0,0,0-.08.37,2.71,2.71,0,0,0,0,.29c0,.43,0,.86,0,1.29,0,.9,0,1.81.07,2.71a11.58,11.58,0,0,0,.54,2.55,3.43,3.43,0,0,0,.94,1.52,6.8,6.8,0,0,0,.6.46l.57.36a5.39,5.39,0,0,0,.58.32,3.66,3.66,0,0,0,.62.25,4.52,4.52,0,0,0,1.15.18h.21a2.66,2.66,0,0,0,.63-.09,2,2,0,0,0,.35-.11.47.47,0,0,0,.28-.3.42.42,0,0,0-.19-.48.86.86,0,0,0-.32-.1,1.52,1.52,0,0,1-.28-.09l-.12-.05-.17-.11-.55-.43-.22-.23a1.84,1.84,0,0,1-.17-.22c-.08-.13-.15-.27-.22-.41a9.7,9.7,0,0,1-.44-1.1c-.06-.21-.13-.42-.17-.64,0,0,0-.07,0-.1h.2l.64,0c.43,0,.86,0,1.29,0,.28,0,.56-.09.84-.13a.48.48,0,0,0,.45-.36,1.58,1.58,0,0,0,0-.38,3.51,3.51,0,0,0,0-.56C201.68,125.4,201.66,125.18,201.65,125Zm-1.37,1.25c-.38,0-.77,0-1.15,0s-.71,0-1.07,0a.77.77,0,0,0-.39.07.52.52,0,0,0-.24.48,3.23,3.23,0,0,0,.07.69,9.89,9.89,0,0,0,.39,1.2,4.29,4.29,0,0,0,.88,1.54,5.08,5.08,0,0,0,.5.44l-.26,0-.39-.12-.45-.2h0l0,0h0a11.17,11.17,0,0,1-1-.64,3.32,3.32,0,0,1-.42-.32l-.15-.15a1.77,1.77,0,0,1-.16-.22,2.82,2.82,0,0,1-.21-.38,5.83,5.83,0,0,1-.23-.58c-.12-.41-.22-.83-.31-1.25s-.14-1-.17-1.54,0-1.22,0-1.82c0-.33,0-.66,0-1s0-.41,0-.62l.59-.06c.32,0,.63-.06.95-.07.57,0,1.14,0,1.72,0,.29,0,.58,0,.86-.08l.39-.07c.12,0,.24,0,.37,0h.4s0,.1,0,.15v0c0,.22,0,.44,0,.67v1.26c0,.43,0,.86,0,1.3s.07.82.09,1.23v.07A6,6,0,0,1,200.28,126.21Z"/><path class="cls-1" d="M202.4,111.82a.42.42,0,0,0-.4-.36l-.12,0-.14,0a3.38,3.38,0,0,0-.45,0c-.37,0-.75,0-1.12,0l-1.29,0c-.43,0-.86,0-1.3.05H197a4.7,4.7,0,0,0-.53,0,.6.6,0,0,0-.41.22,1,1,0,0,0-.16.36c-.1.39-.17.78-.23,1.17s-.14.87-.18,1.31a7.49,7.49,0,0,0,0,1.34c0,.23,0,.45.08.68s.07.46.12.68a4.48,4.48,0,0,0,.16.52,2.23,2.23,0,0,0,.31.54,3.64,3.64,0,0,0,.42.46,3.18,3.18,0,0,0,.37.27,1.18,1.18,0,0,0,.62.23h.12a.73.73,0,0,0,.29-.11.45.45,0,0,0,.19-.37,1.55,1.55,0,0,0-.27-.6l-.09-.25a3.45,3.45,0,0,1-.12-.43c0-.1,0-.2,0-.3V117c0-.1,0-.2,0-.31s0-.16.07-.25a7.69,7.69,0,0,1,.4-.88l.07,0,.07,0h.06a4.07,4.07,0,0,1,.6-.06H199l.21,0c.46,0,.93,0,1.39,0l.35,0,.09,0h.59a.73.73,0,0,0,.25,0,.49.49,0,0,0,.27-.28,1.89,1.89,0,0,0,.1-.41c0-.14,0-.29,0-.43l.06-.61c0-.26.05-.52.07-.78s0-.35,0-.53h0a.39.39,0,0,0,0-.26A.4.4,0,0,0,202.4,111.82Zm-1,.67a6,6,0,0,0-.11.61c-.05.36-.09.72-.16,1.08l0,.09s0,0,0,.06l0,0a1.71,1.71,0,0,0-.11.14h-.34a5.15,5.15,0,0,0-.56,0l-.35,0h.06l-.25,0H199a4.68,4.68,0,0,0-.83.09,1.52,1.52,0,0,0-.42.16.74.74,0,0,0-.3.28c-.08.14-.15.29-.22.43a4,4,0,0,0-.41,1.26,2.88,2.88,0,0,0,0,.93l.06.21h0a1.84,1.84,0,0,1-.17-.22l-.09-.15-.08-.2a4.54,4.54,0,0,1-.12-.5,9.85,9.85,0,0,1-.15-1.09,3.69,3.69,0,0,1,0-.47,5.72,5.72,0,0,1,0-.58,17.9,17.9,0,0,1,.33-2.16v0h0c0-.07,0-.14.05-.22h.59l.66,0,.64,0,1.28,0c.41,0,.83,0,1.24,0h.39A1.55,1.55,0,0,0,201.39,112.49Z"/><path class="cls-1" d="M193.41,121.4c0-.42,0-.84,0-1.27s0-.89,0-1.33a3.6,3.6,0,0,0-.06-.66.53.53,0,0,0-.28-.37.78.78,0,0,0-.3,0h.06l-.43,0h.06c-.43,0-.87,0-1.3,0l-1.45-.08a2.32,2.32,0,0,1-.38-.05h-.11a.39.39,0,0,0-.24.06.76.76,0,0,0-.3,0,.58.58,0,0,0-.33.44,7.83,7.83,0,0,0-.18,2c0,.45,0,.9.08,1.34a8,8,0,0,0,.25,1.29,7.65,7.65,0,0,0,.42,1.22,2.65,2.65,0,0,0,.8,1,1.09,1.09,0,0,0,.47.23h.17a.71.71,0,0,0,.48-.15.45.45,0,0,0,.14-.38.75.75,0,0,0-.11-.28c0-.07-.11-.14-.16-.22a1.09,1.09,0,0,1-.08-.15s0-.07-.05-.1a.29.29,0,0,0,0-.09,2,2,0,0,1,0-.23,6.26,6.26,0,0,1,0-.75v-.11h0s0-.1,0-.16h.14c.29,0,.58,0,.86,0s.64,0,1,0a2.53,2.53,0,0,0,.48-.08.53.53,0,0,0,.39-.36,1.54,1.54,0,0,0,0-.37Zm-1,.48c-.28,0-.56,0-.84,0s-.54,0-.81,0h-.41a.58.58,0,0,0-.36.1.77.77,0,0,0-.24.45c0,.13-.05.27-.06.41v.06c0,.22,0,.45,0,.68a.76.76,0,0,0,0,.15c-.08-.18-.16-.36-.22-.54-.13-.4-.23-.8-.33-1.21a11.25,11.25,0,0,1-.12-1.29,13.2,13.2,0,0,1,0-1.54q0-.32.09-.63h.16l.35,0h.29a.48.48,0,0,0,.18,0l.83,0c.54,0,1.08,0,1.62,0,0,.09,0,.18,0,.27,0,.62,0,1.24,0,1.86,0,.31,0,.61,0,.91v.25Z"/><path class="cls-4" d="M156.15,75.32a.44.44,0,0,0-.27-.17.77.77,0,0,0-.55.24,3.23,3.23,0,0,0-.49.41l-.39.43c-.2.22-.42.42-.62.64a5.92,5.92,0,0,0-.56.82,8.65,8.65,0,0,0-.86,1.91,7.47,7.47,0,0,0-.3,1.15A10.69,10.69,0,0,0,152,82a4.25,4.25,0,0,0,.09,1.18c.06.23.14.46.22.69,0,0,0,.05,0,.07a.41.41,0,0,0,.41.31h.1a.43.43,0,0,0,.31-.51c0-.11-.07-.22-.11-.33l0,0a5.54,5.54,0,0,1-.17-.58,2.21,2.21,0,0,1,0-.35,9.49,9.49,0,0,1,0-1.07,6,6,0,0,1,.12-.85c.1-.42.24-.83.38-1.24v0h0c.11-.27.22-.55.35-.81l.27-.46.28-.44.19-.24.42-.43c.16-.16.31-.33.46-.49l.25-.26.22-.16a.35.35,0,0,0,.22-.12l0-.06,0,0a.45.45,0,0,0,.16-.28A.4.4,0,0,0,156.15,75.32Z"/><path class="cls-4" d="M167.42,71.5l.53-.32.25-.13.17-.09a.67.67,0,0,0,.12-.06l1-.47c.37-.16.74-.31,1.12-.44l1.11-.31c.36-.1.7-.24,1.05-.36l.13,0a.43.43,0,0,0,.34-.41.42.42,0,0,0-.41-.43,1,1,0,0,0-.25,0l-.31.11-.54.19-1.1.31a10.82,10.82,0,0,0-1.09.38c-.34.14-.66.29-1,.44l-.48.22-.17.09-.16.08-.27.15a10.24,10.24,0,0,0-1.12.73c-.35.27-.67.57-1,.87l-1,.89c-.33.31-.66.6-1,.92a4.39,4.39,0,0,0-.75,1.12c-.2.4-.4.8-.57,1.2a9.78,9.78,0,0,0-.44,1.25c-.12.42-.23.83-.32,1.26s-.14.83-.19,1.24,0,.82-.06,1.23c0,.22,0,.44,0,.66a.44.44,0,0,0,.42.37h.05a.42.42,0,0,0,.37-.46v-.07a5.42,5.42,0,0,1,0-.57c0-.3,0-.6,0-.91a12.82,12.82,0,0,1,.24-1.51,16.25,16.25,0,0,1,.52-1.81c.21-.53.46-1,.71-1.54.09-.16.18-.32.28-.48a3.07,3.07,0,0,1,.28-.35c.42-.43.87-.83,1.31-1.24l.66-.59.63-.58C166.88,71.88,167.15,71.68,167.42,71.5Z"/><path class="cls-4" d="M179.89,84.4h0Z"/><path class="cls-4" d="M185.39,83.59c-.27,0-.55,0-.82,0q-1.08,0-2.16,0c-.75,0-1.5,0-2.24-.09h0l-.22,0q-1.44-.12-2.85-.33L175.74,83c-.43-.08-.85-.15-1.28-.21l-1.38-.22c-.43-.07-.86-.14-1.29-.23s-1.06-.29-1.58-.47-.93-.39-1.38-.62l-.27-.15-.22-.16a4.16,4.16,0,0,1-.39-.32l-.29-.3-.31-.42-.23-.4c-.06-.14-.11-.27-.16-.41a3.57,3.57,0,0,1-.1-.35c0-.1,0-.2,0-.3v-.07q0-.33.09-.66c0-.12.06-.23.1-.35l.15-.34c.17-.32.36-.64.56-1l.28-.33c.21-.23.43-.44.66-.65s.42-.33.64-.48c.41-.26.83-.5,1.26-.73s1-.4,1.48-.58l1.52-.53a15.94,15.94,0,0,1,1.68-.44q.5-.09,1-.15c.31,0,.62,0,.93-.06l.55,0c.14,0,.27,0,.41,0h.17a.44.44,0,0,0,.43-.41.43.43,0,0,0-.42-.43,7.31,7.31,0,0,0-.8.05l-1,0c-.33,0-.66.06-1,.11a13,13,0,0,0-2,.45c-.42.12-.84.28-1.26.42s-.83.29-1.24.45a8.57,8.57,0,0,0-1.16.52,13.56,13.56,0,0,0-1.22.73,6.12,6.12,0,0,0-1,.83c-.16.16-.32.32-.46.48a5.89,5.89,0,0,0-.41.57,5.54,5.54,0,0,0-.3.53,3.64,3.64,0,0,0-.3.63,3.72,3.72,0,0,0-.19.65,4.88,4.88,0,0,0-.07.76,3.26,3.26,0,0,0,.33,1.33,5,5,0,0,0,.73,1.14c.17.18.34.34.52.5a3.15,3.15,0,0,0,.29.22,2.2,2.2,0,0,0,.25.17c.21.13.42.24.64.35l.56.25a13.3,13.3,0,0,0,2.6.82c.43.09.87.15,1.31.22l1.32.2c.9.14,1.79.32,2.69.46s1.76.22,2.64.29l.23,0h-.06l.39,0c.57,0,1.15.06,1.72.07h.9c.45,0,.89,0,1.34,0s.73,0,1.09-.07a.43.43,0,0,0,.37-.47A.42.42,0,0,0,185.39,83.59Z"/><path class="cls-4" d="M214.25,83.83h0a11.13,11.13,0,0,0,1.16,0l1.26-.13,1.36-.11,1.27-.14a23.65,23.65,0,0,0,2.63-.44l1.27-.29q.65-.14,1.29-.3c.45-.11.89-.23,1.33-.36l.64-.2c.21-.07.43-.15.63-.24A6.86,6.86,0,0,0,229.33,80c.12-.13.24-.27.35-.41a2.58,2.58,0,0,0,.43-.69,4.16,4.16,0,0,0,.25-1.11v-.08c0-.23,0-.47,0-.7s0-.25,0-.37,0-.22-.06-.33a6.42,6.42,0,0,0-.5-1.21A5.26,5.26,0,0,0,229,74c-.31-.32-.62-.65-1-.94-.16-.14-.32-.28-.5-.41a5.5,5.5,0,0,0-.56-.38,3.83,3.83,0,0,0-.61-.3l-.59-.2-.66-.27c-.24-.1-.48-.21-.73-.29s-.48-.13-.72-.2l-.66-.2h0a.38.38,0,0,0-.26-.1.43.43,0,0,0-.42.41.41.41,0,0,0,.15.33.5.5,0,0,0,.14.1,1.45,1.45,0,0,0,.29.11c.13,0,.26.09.4.12s.57.15.85.24.62.25.92.37.63.24,1,.34l.38.17.43.28a7.4,7.4,0,0,1,.82.66c.3.28.58.58.86.89a4.82,4.82,0,0,1,.38.51c.09.15.17.3.25.46s.19.44.27.67l.09.34c0,.11,0,.23,0,.35a4.17,4.17,0,0,1,0,.5v.16a5.24,5.24,0,0,1-.08.53c0,.1-.05.19-.08.29s-.05.12-.08.19l-.14.21c-.11.14-.21.28-.33.41l-.14.15,0,0-.44.41-.33.27-.34.24-.61.34-.8.31.05,0-.22.08c-.84.27-1.7.49-2.56.68s-1.72.4-2.58.57l-.91.14c-.45.07-.89.12-1.33.17s-.84.09-1.27.12-.88.07-1.32.12-.83.09-1.24.11h-.54a.42.42,0,0,0-.43.42A.41.41,0,0,0,214.25,83.83Z"/><path class="cls-4" d="M230.37,77.69v0h0Z"/><path class="cls-4" d="M229.34,80h0l0,0Z"/><path class="cls-4" d="M236.72,79a.61.61,0,0,0-.47.26,2.07,2.07,0,0,0-.19.32c-.06.11-.13.21-.19.31s-.31.41-.47.6-.55.56-.84.84l-.88.82-.31.23c-.36.22-.73.41-1.12.6s-.8.35-1.2.51l-1.17.49c-.76.33-1.54.61-2.33.87-.5.16-1,.3-1.52.42s-.95.21-1.42.3l-2,.35c-.87.16-1.75.32-2.64.44s-1.78.19-2.67.27l-1.39.11-1.34.12c-.88.08-1.76.13-2.65.18h0l-.35,0h.05l-.74,0-2.7.07-1.31,0h-1.3a.43.43,0,0,0,0,.85h0l.8,0,1.28,0L209,88c.9,0,1.79,0,2.68-.09h-.05l.35,0h.13c.88,0,1.76-.1,2.64-.18l2.71-.24c.9-.08,1.8-.14,2.69-.27s1.82-.29,2.72-.45,1.81-.31,2.7-.5c.44-.09.88-.18,1.31-.3s.89-.26,1.33-.41l1.27-.46,1.27-.53c.41-.18.82-.33,1.22-.5s.84-.38,1.25-.59l.6-.35a6,6,0,0,0,.56-.44l.46-.43.46-.44a11.38,11.38,0,0,0,.9-.94c.15-.18.29-.37.42-.56s.12-.19.17-.29l.11-.2a.41.41,0,0,0,.24-.36A.43.43,0,0,0,236.72,79Z"/><polygon class="cls-4" points="211.92 87.03 211.92 87.03 211.92 87.03 211.92 87.03"/><path class="cls-4" d="M245.88,77.57a3.67,3.67,0,0,0-.13-.66,2.13,2.13,0,0,0-.14-.35,2,2,0,0,0-.2-.31,6.3,6.3,0,0,0-.93-1,5,5,0,0,0-.51-.4,6.19,6.19,0,0,0-.57-.3q-.28-.15-.57-.27c-.2-.09-.41-.16-.61-.24l-.65-.24-.56-.18-.18-.07a.42.42,0,0,0-.35-.2.46.46,0,0,0-.43.27.43.43,0,0,0,.06.45.79.79,0,0,0,.34.23c.37.16.75.26,1.12.4s.62.22.92.35.52.24.78.37l.27.16.51.41a6.14,6.14,0,0,1,.5.52l.29.39,0,0,0,0h0l0,0,.09.24a1.55,1.55,0,0,1,.06.23,5.41,5.41,0,0,1,.07.58,5.61,5.61,0,0,1,0,.71,5.06,5.06,0,0,1-.1.68,4.21,4.21,0,0,1-.16.61,6.57,6.57,0,0,1-.26.61,3.45,3.45,0,0,1-.2.32c-.26.35-.55.68-.84,1a9.45,9.45,0,0,1-.79.76,9.74,9.74,0,0,1-1,.72c-.3.19-.61.36-.92.54s-.66.36-1,.52a19.82,19.82,0,0,1-2.12.9c-.11,0-.22.06-.33.09a.42.42,0,0,0,.1.83h.11a12.27,12.27,0,0,0,1.75-.65c.61-.27,1.22-.57,1.81-.9.38-.21.77-.43,1.14-.67a11.4,11.4,0,0,0,1.1-.84,9,9,0,0,0,.92-.93c.14-.15.27-.3.4-.46a4.73,4.73,0,0,0,.43-.57,3,3,0,0,0,.29-.56,4.07,4.07,0,0,0,.22-.58,5.74,5.74,0,0,0,.26-1.31,4.14,4.14,0,0,0,0-.61A4.32,4.32,0,0,0,245.88,77.57Z"/></g></g></svg>