<?xml version="1.0" encoding="UTF-8" standalone="no"?>
<svg
   xmlns:dc="http://purl.org/dc/elements/1.1/"
   xmlns:cc="http://creativecommons.org/ns#"
   xmlns:rdf="http://www.w3.org/1999/02/22-rdf-syntax-ns#"
   xmlns:svg="http://www.w3.org/2000/svg"
   xmlns="http://www.w3.org/2000/svg"
   id="svg16"
   version="1.1"
   viewBox="0 0 99.749997 18.175384"
   height="77.894501"
   width="214.46249">
  <metadata
     id="metadata22">
    <rdf:RDF>
      <cc:Work
         rdf:about="">
        <dc:format>image/svg+xml</dc:format>
        <dc:type
           rdf:resource="http://purl.org/dc/dcmitype/StillImage" />
        <dc:title></dc:title>
      </cc:Work>
    </rdf:RDF>
  </metadata>
  <defs
     id="defs20" />
  <path
     id="path2"
     d="m 6.61,5.782692 c 0,-0.89 0.66,-1.56 2,-1.56 a 2.42,2.42 0 0 1 2.39,1.75 l 5.75,-0.43 c -0.67,-3.52 -3.28,-6.18000004 -8.6,-6.18000004 -4.83,0.01 -7.72,2.87000004 -7.72,6.19000004 0,7.31 10.4,6.18 10.4,8.4 0,0.86 -0.9,1.76 -2.43,1.76 a 2.46,2.46 0 0 1 -2.65,-2.19 l -5.75,0.45 c 0.66,4 3.32,6.61 8.83,6.61 5.09,0 8.17,-3.09 8.17,-6.41 0,-7.29 -10.39,-6.2000001 -10.39,-8.39 z" />
  <path
     id="path4"
     d="M 30,-0.38730804 A 8.78,8.78 0 0 0 24.25,1.802692 L 23.36,-0.19730804 H 19 V 27.202692 h 6 v -8.63 a 8.13,8.13 0 0 0 5,1.79 c 5.08,0 9.5,-4.41 9.5,-10.39 0,-5.98 -4.4,-10.36000004 -9.5,-10.36000004 z M 29.1,14.812692 a 4.53,4.53 0 0 1 -4.4,-4.84 4.44,4.44 0 1 1 8.84,0 c 0,2.89 -1.96,4.84 -4.42,4.84 z" />
  <rect
     id="rect6"
     height="27.83"
     width="5.98"
     y="-7.6973076"
     x="41.470001" />
  <path
     id="path8"
     d="m 53.63,0.88269196 a 6.28,6.28 0 0 1 -3.09,-0.84 V 20.132692 h 6 V 0.13269196 a 6.26,6.26 0 0 1 -2.91,0.75 z" />
  <path
     id="path10"
     d="m 68.84,4.892692 a 4.1,4.1 0 0 1 3.75,2.8899999 l 6,-0.4699999 c 0,0 -1.59,-7.94000004 -9.75,-7.94000004 A 10.44,10.44 0 0 0 58.48,9.972692 a 10.4,10.4 0 0 0 10.36,10.59 c 8.16,0 9.73,-7.94 9.73,-7.94 l -6,-0.43 a 4.09,4.09 0 0 1 -3.75,2.86 c -2.43,0 -4.42,-2 -4.42,-5.08 0,-3.08 2.01,-5.08 4.44,-5.08 z" />
  <path
     id="path12"
     d="m 99.75,9.972692 c 0,-6.41 -4.41,-10.60000004 -10,-10.60000004 A 10.44,10.44 0 0 0 79.43,9.972692 a 10.36,10.36 0 0 0 10.16,10.59 c 5.28,0 8.37,-3.09 9.5,-6.41 l -6.18,-0.43 a 3.73,3.73 0 0 1 -3.12,1.33 4.34,4.34 0 0 1 -4.19,-3.08 h 13.92 a 11.52,11.52 0 0 0 0.23,-2 z M 85.6,8.2126919 a 4.32,4.32 0 0 1 8.41,0 z" />
  <path
     id="path14"
     d="m 53.53,-9.0273081 a 3.42,3.42 0 0 0 -3.32,3.32 3.32,3.32 0 0 0 6.64,0 3.42,3.42 0 0 0 -3.32,-3.32 z" />
</svg>
