<svg width="16" height="13" viewBox="0 0 16 13" fill="none" xmlns="http://www.w3.org/2000/svg">
<path d="M8.306 0.107002C8.21728 0.0378319 8.108 0.000267029 7.9955 0.000267029C7.883 0.000267029 7.77372 0.0378319 7.685 0.107002L0.5 5.7095L1.1215 6.4955L2 5.8105V12C2.00053 12.2651 2.10606 12.5191 2.29348 12.7065C2.4809 12.8939 2.73495 12.9995 3 13H13C13.2651 12.9995 13.5191 12.8939 13.7065 12.7065C13.8939 12.5191 13.9995 12.2651 14 12V5.815L14.8785 6.5L15.5 5.714L8.306 0.107002ZM9 12H7V8H9V12ZM10 12V8C9.99973 7.73487 9.89429 7.48067 9.70681 7.29319C9.51934 7.10571 9.26513 7.00027 9 7H7C6.73486 7.00027 6.48066 7.10571 6.29319 7.29319C6.10571 7.48067 6.00026 7.73487 6 8V12H3V5.031L8 1.136L13 5.036V12H10Z" fill="#F1D5D5"/>
</svg>
