<svg width="14" height="14" viewBox="0 0 14 14" fill="none" xmlns="http://www.w3.org/2000/svg">
<path d="M9.16482 9.74L10.2848 8.62C10.4357 8.47102 10.6265 8.36904 10.8342 8.32644C11.0419 8.28383 11.2575 8.30244 11.4548 8.38L12.8198 8.925C13.0192 9.00594 13.1902 9.14409 13.3112 9.32205C13.4322 9.50001 13.4979 9.7098 13.4998 9.925V12.425C13.4987 12.5714 13.4679 12.716 13.4094 12.8502C13.3508 12.9844 13.2657 13.1053 13.1592 13.2058C13.0527 13.3062 12.927 13.3841 12.7896 13.4346C12.6522 13.4852 12.506 13.5074 12.3598 13.5C2.79482 12.905 0.864823 4.805 0.499823 1.705C0.482879 1.55277 0.49836 1.39867 0.545247 1.25285C0.592134 1.10704 0.669364 0.972796 0.771856 0.858967C0.874349 0.745139 0.999781 0.654302 1.1399 0.592431C1.28002 0.530561 1.43165 0.499059 1.58482 0.499999H3.99982C4.21533 0.500637 4.42571 0.565733 4.60392 0.686914C4.78213 0.808095 4.92001 0.979819 4.99982 1.18L5.54482 2.545C5.62495 2.74153 5.64539 2.95732 5.6036 3.16541C5.5618 3.37349 5.45962 3.56465 5.30982 3.715L4.18982 4.835C4.18982 4.835 4.83482 9.2 9.16482 9.74Z" fill="#F1D5D5"/>
</svg>
