<svg width="14" height="12" viewBox="0 0 14 12" fill="none" xmlns="http://www.w3.org/2000/svg">
<path d="M4.40364 11.9998C5.47854 12.007 6.5441 11.7889 7.53849 11.3583C8.53288 10.9277 9.43632 10.2931 10.1964 9.49132C10.9565 8.68956 11.5581 7.73659 11.9663 6.68769C12.3746 5.63878 12.5813 4.51481 12.5745 3.38098V2.98494C13.1317 2.55432 13.614 2.02517 14 1.42093C13.4753 1.66298 12.9202 1.82351 12.3518 1.89751C12.9544 1.51878 13.4065 0.922635 13.6245 0.219387C13.063 0.574774 12.4472 0.82461 11.8045 0.957762C11.3718 0.471352 10.7991 0.148943 10.1751 0.0404223C9.55114 -0.0680986 8.91064 0.0433178 8.35274 0.357432C7.79484 0.671547 7.35063 1.17085 7.08884 1.77808C6.82705 2.38531 6.76228 3.06663 6.90455 3.7166C5.76293 3.65749 4.64591 3.34541 3.62623 2.80068C2.60655 2.25595 1.70707 1.49079 0.986364 0.555012C0.622951 1.22034 0.512799 2.00647 0.678211 2.75424C0.843623 3.50202 1.27224 4.15555 1.87727 4.58251C1.43094 4.56436 0.994924 4.43558 0.604545 4.20661V4.24018C0.600579 4.93548 0.822641 5.61122 1.23372 6.15476C1.6448 6.69831 2.22006 7.07683 2.86364 7.22724C2.4485 7.34502 2.01364 7.36337 1.59091 7.28094C1.77723 7.87391 2.13289 8.39157 2.60912 8.76292C3.08535 9.13426 3.65883 9.34111 4.25091 9.3551C3.23859 10.2147 1.98042 10.6878 0.680909 10.6976C0.453061 10.6906 0.225748 10.6705 0 10.6372C1.31534 11.5212 2.84404 11.9872 4.40364 11.9797" fill="#3BA094"/>
</svg>
