<svg width="764" height="24" viewBox="0 0 764 24" fill="none" xmlns="http://www.w3.org/2000/svg">
<mask id="path-1-inside-1_55_1086" fill="white">
<path fill-rule="evenodd" clip-rule="evenodd" d="M23.6219 15C22.2898 20.1757 17.5915 24 12 24C5.37258 24 0 18.6274 0 12C0 5.37258 5.37258 0 12 0C17.5915 0 22.2898 3.82432 23.6219 9H148.378C149.71 3.82432 154.408 0 160 0C165.592 0 170.29 3.82432 171.622 9H296.378C297.71 3.82432 302.408 0 308 0C313.592 0 318.29 3.82432 319.622 9H444.378C445.71 3.82432 450.408 0 456 0C461.592 0 466.29 3.82432 467.622 9H592.378C593.71 3.82432 598.408 0 604 0C609.592 0 614.29 3.82432 615.622 9H740.378C741.71 3.82432 746.408 0 752 0C758.627 0 764 5.37258 764 12C764 18.6274 758.627 24 752 24C746.408 24 741.71 20.1757 740.378 15H615.622C614.29 20.1757 609.592 24 604 24C598.408 24 593.71 20.1757 592.378 15H467.622C466.29 20.1757 461.592 24 456 24C450.408 24 445.71 20.1757 444.378 15H319.622C318.29 20.1757 313.592 24 308 24C302.408 24 297.71 20.1757 296.378 15H171.622C170.29 20.1757 165.592 24 160 24C154.408 24 149.71 20.1757 148.378 15H23.6219Z"/>
</mask>
<path d="M23.6219 15V14H22.8467L22.6535 14.7507L23.6219 15ZM23.6219 9L22.6535 9.24926L22.8467 10H23.6219V9ZM148.378 9V10H149.153L149.346 9.24926L148.378 9ZM171.622 9L170.654 9.24926L170.847 10H171.622V9ZM296.378 9V10H297.153L297.346 9.24926L296.378 9ZM319.622 9L318.654 9.24926L318.847 10H319.622V9ZM444.378 9V10H445.153L445.346 9.24926L444.378 9ZM467.622 9L466.654 9.24926L466.847 10H467.622V9ZM592.378 9V10H593.153L593.346 9.24926L592.378 9ZM615.622 9L614.654 9.24926L614.847 10H615.622V9ZM740.378 9V10H741.153L741.346 9.24926L740.378 9ZM740.378 15L741.346 14.7507L741.153 14H740.378V15ZM615.622 15V14H614.847L614.654 14.7507L615.622 15ZM592.378 15L593.346 14.7507L593.153 14H592.378V15ZM467.622 15V14H466.847L466.654 14.7507L467.622 15ZM444.378 15L445.346 14.7507L445.153 14H444.378V15ZM319.622 15V14H318.847L318.654 14.7507L319.622 15ZM296.378 15L297.346 14.7507L297.153 14H296.378V15ZM171.622 15V14H170.847L170.654 14.7507L171.622 15ZM148.378 15L149.346 14.7507L149.153 14H148.378V15ZM12 25C18.0588 25 23.1473 20.856 24.5904 15.2493L22.6535 14.7507C21.4323 19.4953 17.1242 23 12 23V25ZM-1 12C-1 19.1797 4.8203 25 12 25V23C5.92487 23 1 18.0751 1 12H-1ZM12 -1C4.8203 -1 -1 4.8203 -1 12H1C1 5.92487 5.92487 1 12 1V-1ZM24.5904 8.75074C23.1473 3.14397 18.0588 -1 12 -1V1C17.1242 1 21.4323 4.50467 22.6535 9.24926L24.5904 8.75074ZM23.6219 10H148.378V8H23.6219V10ZM160 -1C153.941 -1 148.853 3.14397 147.41 8.75074L149.346 9.24926C150.568 4.50467 154.876 1 160 1V-1ZM172.59 8.75074C171.147 3.14397 166.059 -1 160 -1V1C165.124 1 169.432 4.50467 170.654 9.24926L172.59 8.75074ZM171.622 10H296.378V8H171.622V10ZM297.346 9.24926C298.568 4.50467 302.876 1 308 1V-1C301.941 -1 296.853 3.14397 295.41 8.75074L297.346 9.24926ZM308 1C313.124 1 317.432 4.50467 318.654 9.24926L320.59 8.75074C319.147 3.14397 314.059 -1 308 -1V1ZM319.622 10H444.378V8H319.622V10ZM456 -1C449.941 -1 444.853 3.14397 443.41 8.75074L445.346 9.24926C446.568 4.50467 450.876 1 456 1V-1ZM468.59 8.75074C467.147 3.14397 462.059 -1 456 -1V1C461.124 1 465.432 4.50467 466.654 9.24926L468.59 8.75074ZM467.622 10H592.378V8H467.622V10ZM593.346 9.24926C594.568 4.50466 598.876 1 604 1V-1C597.941 -1 592.853 3.14397 591.41 8.75074L593.346 9.24926ZM604 1C609.124 1 613.432 4.50466 614.654 9.24926L616.59 8.75074C615.147 3.14397 610.059 -1 604 -1V1ZM615.622 10H740.378V8H615.622V10ZM752 -1C745.941 -1 740.853 3.14397 739.41 8.75074L741.346 9.24926C742.568 4.50466 746.876 1 752 1V-1ZM765 12C765 4.8203 759.18 -1 752 -1V1C758.075 1 763 5.92487 763 12H765ZM752 25C759.18 25 765 19.1797 765 12H763C763 18.0751 758.075 23 752 23V25ZM739.41 15.2493C740.853 20.856 745.941 25 752 25V23C746.876 23 742.568 19.4953 741.346 14.7507L739.41 15.2493ZM740.378 14H615.622V16H740.378V14ZM614.654 14.7507C613.432 19.4953 609.124 23 604 23V25C610.059 25 615.147 20.856 616.59 15.2493L614.654 14.7507ZM604 23C598.876 23 594.568 19.4953 593.346 14.7507L591.41 15.2493C592.853 20.856 597.941 25 604 25V23ZM592.378 14H467.622V16H592.378V14ZM456 25C462.059 25 467.147 20.856 468.59 15.2493L466.654 14.7507C465.432 19.4953 461.124 23 456 23V25ZM443.41 15.2493C444.853 20.856 449.941 25 456 25V23C450.876 23 446.568 19.4953 445.346 14.7507L443.41 15.2493ZM444.378 14H319.622V16H444.378V14ZM318.654 14.7507C317.432 19.4953 313.124 23 308 23V25C314.059 25 319.147 20.856 320.59 15.2493L318.654 14.7507ZM308 23C302.876 23 298.568 19.4953 297.346 14.7507L295.41 15.2493C296.853 20.856 301.941 25 308 25V23ZM296.378 14H171.622V16H296.378V14ZM160 25C166.059 25 171.147 20.856 172.59 15.2493L170.654 14.7507C169.432 19.4953 165.124 23 160 23V25ZM147.41 15.2493C148.853 20.856 153.941 25 160 25V23C154.876 23 150.568 19.4953 149.346 14.7507L147.41 15.2493ZM148.378 14H23.6219V16H148.378V14Z" fill="#94160E" mask="url(#path-1-inside-1_55_1086)"/>
</svg>
