<svg width="14" height="14" viewBox="0 0 14 14" fill="none" xmlns="http://www.w3.org/2000/svg">
<path d="M7 0C5.61553 0 4.26216 0.410543 3.11101 1.17971C1.95987 1.94888 1.06266 3.04213 0.532846 4.32122C0.00303298 5.6003 -0.13559 7.00776 0.134506 8.36563C0.404603 9.7235 1.07129 10.9708 2.05026 11.9497C3.02922 12.9287 4.2765 13.5954 5.63437 13.8655C6.99224 14.1356 8.3997 13.997 9.67879 13.4672C10.9579 12.9373 12.0511 12.0401 12.8203 10.889C13.5895 9.73785 14 8.38447 14 7C13.9979 5.14413 13.2597 3.36489 11.9474 2.05259C10.6351 0.740295 8.85587 0.00211736 7 0ZM9.5 1.553C10.0295 1.79707 10.5207 2.11692 10.958 2.5025L10.7515 3H9.5V1.553ZM5.689 12.8515C4.60702 12.6111 3.61299 12.0751 2.81759 11.3032C2.0222 10.5313 1.45665 9.55379 1.18392 8.4795C0.911186 7.4052 0.941973 6.2763 1.27285 5.21847C1.60373 4.16064 2.22172 3.2154 3.058 2.488L3.7325 3.5H5.4035L4.6535 5.5H2.64L1.949 7.574L3.2325 9.5H5.7325L6.4485 10.5735L5.689 12.8515ZM7 13C6.8985 13 6.799 12.99 6.6985 12.985L7.397 10.89C7.44556 10.7457 7.46031 10.5921 7.44011 10.4412C7.41991 10.2903 7.3653 10.146 7.2805 10.0195L6.5645 8.9455C6.47334 8.80837 6.34966 8.69592 6.20449 8.61819C6.05932 8.54046 5.89717 8.49985 5.7325 8.5H3.7675L3.0515 7.426L3.3605 6.5H4.5V7.5H5.5V6.0905L6.968 2.1755L6.032 1.8245L5.7785 2.5H4.2675L3.864 1.895C4.54797 1.46786 5.31226 1.18554 6.10966 1.06549C6.90705 0.94543 7.72059 0.99019 8.5 1.197V3C8.50027 3.26514 8.60571 3.51934 8.79319 3.70681C8.98067 3.89429 9.23487 3.99974 9.5 4H10.793C10.9244 4.00036 11.0545 3.97464 11.1759 3.92435C11.2972 3.87405 11.4074 3.80018 11.5 3.707L11.57 3.637L11.711 3.297C12.1147 3.80973 12.4318 4.38498 12.65 5H10.2995C10.0631 4.99927 9.83417 5.08259 9.65355 5.23509C9.47293 5.38759 9.35241 5.59934 9.3135 5.8325L9.015 7.553C8.97886 7.75679 9.00716 7.96678 9.09598 8.15373C9.18479 8.34068 9.32969 8.49528 9.5105 8.596L10.593 9.328L11.322 11.151C10.7639 11.7352 10.0932 12.2003 9.35034 12.5181C8.60751 12.8359 7.80796 12.9998 7 13ZM11.4075 8.672L10.05 7.7545L10 7.7245L10.2995 6H12.9095C13.1714 7.47523 12.8595 8.99479 12.0375 10.2475L11.4075 8.672Z" fill="#F1D5D5"/>
</svg>
