<svg xmlns="http://www.w3.org/2000/svg" viewBox="0 0 47.01 48.65"><defs><style>.cls-1{fill:#50555b;}</style></defs><g id="Layer_2" data-name="Layer 2"><g id="Artwork:Notebook"><path class="cls-1" d="M25.65,0c-1-.18-1.8,1.05-2.13,1.8a53.46,53.46,0,0,0-4.09,21.81c-5.73-.17-11.47-.1-17.19.26A2.6,2.6,0,0,0,.17,25.73c-.2.51-.42,2.12.58,2.06a183.64,183.64,0,0,1,18.77-.19A176,176,0,0,0,22.05,48c.17,1,1.44.7,2,.27a2.93,2.93,0,0,0,1-2.77c-1-5.78-1.92-11.76-2.32-17.73a184.17,184.17,0,0,1,22,2.58c1.58.28,3.36-3.56,1.49-3.9a184.1,184.1,0,0,0-23.63-2.65c-.15-7.4.75-14.74,3.77-21.63C26.67,1.41,26.61.19,25.65,0Z"/></g></g></svg>