<svg width="1440" height="825" viewBox="0 0 1440 825" fill="none" xmlns="http://www.w3.org/2000/svg">
<g opacity="0.4">
<path d="M1.32031 823.93H1439.65" stroke="white" stroke-width="0.71" stroke-miterlimit="10"/>
<path d="M1.32031 801.562C16.3645 800.493 1439.72 811.127 1439.72 811.127" stroke="white" stroke-width="0.71" stroke-miterlimit="10"/>
<path d="M1.32031 781.333L1439.65 797.315" stroke="white" stroke-width="0.71" stroke-miterlimit="10"/>
<path d="M1.32031 762.173C730.11 774.671 1439.72 786.161 1439.72 786.161" stroke="white" stroke-width="0.71" stroke-miterlimit="10"/>
<path d="M1.32031 746.222C149.121 748.758 332.014 756 471.337 758.445C966.161 766.757 1439.65 775.191 1439.65 775.191" stroke="white" stroke-width="0.71" stroke-miterlimit="10"/>
<path d="M1.32031 730.332C136.822 732.654 343.34 744.48 471.094 746.619C924.677 754.259 1439.65 764.129 1439.65 764.129" stroke="white" stroke-width="0.71" stroke-miterlimit="10"/>
<path d="M1.32031 714.289C124.488 716.428 354.702 732.807 470.816 734.763C883.158 741.699 1439.65 753.098 1439.65 753.098" stroke="white" stroke-width="0.71" stroke-miterlimit="10"/>
<path d="M1.32031 698.338C112.188 700.263 366.132 721.195 470.573 722.967C841.674 729.079 1439.65 741.974 1439.65 741.974" stroke="white" stroke-width="0.71" stroke-miterlimit="10"/>
<path d="M1.32031 682.387C99.8543 684.098 377.389 709.614 470.364 711.172C800.224 716.703 1439.72 730.913 1439.72 730.913" stroke="white" stroke-width="0.71" stroke-miterlimit="10"/>
<path d="M1.32031 666.436C87.5549 667.933 388.751 698.002 470.017 699.377C758.67 704.236 1439.65 719.881 1439.65 719.881" stroke="white" stroke-width="0.71" stroke-miterlimit="10"/>
<path d="M1.32031 650.484C75.2208 651.737 400.077 686.39 469.774 687.582C717.186 691.737 1439.65 708.972 1439.65 708.972" stroke="white" stroke-width="0.71" stroke-miterlimit="10"/>
<path d="M1.32031 634.533C62.8867 635.572 411.3 674.808 469.496 675.786C675.667 679.239 1439.65 697.788 1439.65 697.788" stroke="white" stroke-width="0.71" stroke-miterlimit="10"/>
<path d="M1.32031 618.582C50.5873 619.407 422.8 663.196 469.253 663.991C634.182 666.741 1439.65 686.726 1439.65 686.726" stroke="white" stroke-width="0.71" stroke-miterlimit="10"/>
<path d="M1.32031 602.631C38.2532 603.242 434.126 651.523 468.975 652.196C592.663 654.274 1439.65 675.695 1439.65 675.695" stroke="white" stroke-width="0.71" stroke-miterlimit="10"/>
<path d="M1.32031 586.71C25.9538 587.138 445.488 640.064 468.697 640.461C551.179 641.837 1439.65 664.694 1439.65 664.694" stroke="white" stroke-width="0.71" stroke-miterlimit="10"/>
<path d="M1.32031 570.698C13.6197 570.912 456.849 628.391 468.453 628.574C509.695 629.277 1439.65 653.601 1439.65 653.601" stroke="white" stroke-width="0.71" stroke-miterlimit="10"/>
<path d="M1.32031 554.747L468.175 616.779L1439.65 642.539" stroke="white" stroke-width="0.71" stroke-miterlimit="10"/>
<path d="M1.32031 541.362C1.32031 541.362 327.393 584.693 342.541 583.838C346.016 583.624 466.647 599.117 468.697 599.117C476.062 598.78 641.062 603.334 643.98 603.609C647.767 603.975 1060.11 617.726 1071.12 619.743C1082.83 621.882 1439.65 631.966 1439.65 631.966" stroke="white" stroke-width="0.71" stroke-miterlimit="10"/>
<path d="M1.32039 527.978C-5.07251 527.764 376.347 578.459 469.253 581.393C483.984 581.882 638.769 585.182 644.606 585.732C652.145 586.466 1049.16 602.631 1071.23 606.664C1094.61 610.912 1439.51 621.485 1439.51 621.485" stroke="white" stroke-width="0.71" stroke-miterlimit="10"/>
<path d="M1.32031 514.594C1.32031 514.594 411.056 562.753 469.774 563.7C491.906 564.067 636.545 567.031 645.231 567.887C656.557 568.987 1038.22 587.566 1071.3 593.586C1106.42 599.972 1439.58 610.943 1439.58 610.943" stroke="white" stroke-width="0.71" stroke-miterlimit="10"/>
<path d="M1.32031 501.148C1.32031 501.148 400.876 543.715 470.364 545.946C499.827 546.893 634.182 548.849 645.856 549.98C660.97 551.446 1027.31 572.44 1071.4 580.537C1118.24 589.033 1439.69 600.4 1439.69 600.4" stroke="white" stroke-width="0.71" stroke-miterlimit="10"/>
<path d="M1.32031 487.825C1.32031 487.825 315.337 516.152 436.315 523.211C488.709 526.267 634.599 535.77 649.192 537.206C668.058 539.04 1016.33 557.436 1071.47 567.459C1129.98 578.123 1439.76 589.858 1439.76 589.858" stroke="white" stroke-width="0.71" stroke-miterlimit="10"/>
<path d="M1.32031 474.41C102.912 487.856 205.048 497.115 307.728 502.187C411.022 507.229 514.628 506.588 617.818 512.149C627.581 512.699 637.344 513.402 647.072 514.349C669.725 516.549 1005.39 542.371 1071.54 554.411C1141.79 567.184 1439.83 579.346 1439.83 579.346" stroke="white" stroke-width="0.71" stroke-miterlimit="10"/>
<path d="M1.32031 461.026C41.4844 466.343 81.8222 470.896 122.16 474.96C224.62 485.319 326.872 488.253 429.853 490.239C482.455 491.248 535.058 492.225 587.625 493.631C607.603 494.151 627.789 494.578 647.663 496.534C674.103 499.101 994.478 527.336 1071.54 541.362C1153.47 556.275 1439.55 568.864 1439.55 568.864" stroke="white" stroke-width="0.71" stroke-miterlimit="10"/>
<path d="M1.32031 447.642C41.0675 452.898 81.0231 457.206 121.013 460.965C171.184 465.701 221.771 470.377 272.254 471.11C375.409 472.577 478.599 472.882 581.649 475.021C603.92 475.48 626.156 476.488 648.288 478.658C678.481 481.714 983.533 512.271 1071.71 528.284C1165.52 545.304 1439.65 558.261 1439.65 558.261" stroke="white" stroke-width="0.71" stroke-miterlimit="10"/>
<path d="M1.32031 434.257C44.0902 439.88 87.1033 444.188 130.151 447.794C231.604 456.228 334.168 452.531 436.107 455.953C506.88 458.306 578.557 453.906 648.879 460.812C682.893 464.112 972.589 497.176 1071.82 515.205C1177.16 534.364 1439.65 547.718 1439.65 547.718" stroke="white" stroke-width="0.71" stroke-miterlimit="10"/>
<path d="M1.32031 420.873C51.039 427.382 101.175 431.843 151.31 435.143C246.648 441.438 341.534 437.955 436.975 438.596C507.714 439.085 578.974 436.06 649.504 442.966C687.271 446.633 961.645 482.111 1071.89 502.157C1188.94 523.547 1439.65 537.206 1439.65 537.206" stroke="white" stroke-width="0.71" stroke-miterlimit="10"/>
<path d="M1.32031 407.489C51.1085 413.997 101.453 417.97 151.692 420.751C254.708 426.404 358.211 422.401 461.366 421.484C524.287 420.934 587.452 418.978 650.13 425.09C691.649 429.154 950.7 467.046 1071.99 489.078C1200.75 512.516 1439.65 526.664 1439.65 526.664" stroke="white" stroke-width="0.71" stroke-miterlimit="10"/>
<path d="M1.32031 394.196C45.7926 399.971 90.8556 403.21 135.71 405.533C232.437 410.514 328.539 405.349 425.197 404.463C500.279 404.463 575.882 400.032 650.72 407.336C695.888 411.767 939.756 452.072 1072.06 476.121C1212.53 501.668 1439.65 516.213 1439.65 516.213" stroke="white" stroke-width="0.71" stroke-miterlimit="10"/>
<path d="M1.32031 380.72C38.6701 385.548 76.5063 388.054 114.169 389.887C205.198 394.502 295.22 389.887 386.214 387.779C471.198 385.762 558.301 380.598 643.32 388.543L651.207 389.307C700.439 394.196 928.812 436.977 1072.17 462.982C1224.31 490.636 1439.65 505.579 1439.65 505.579" stroke="white" stroke-width="0.71" stroke-miterlimit="10"/>
<path d="M1.32031 367.305C1.32031 367.305 135.675 385.273 347.614 372.989C394.275 370.269 446.53 370.391 475.645 369.047C578.766 364.249 611.147 367.549 651.937 371.552C704.817 376.717 917.867 421.82 1072.34 449.903C1236.12 479.758 1439.65 495.037 1439.65 495.037" stroke="white" stroke-width="0.71" stroke-miterlimit="10"/>
<path d="M1.32031 353.921C1.32031 353.921 120.909 369.933 347.996 356.763C397.993 353.707 445.001 352.821 476.167 351.354C586.687 346.19 608.785 349.429 652.562 353.707C709.195 359.238 906.958 406.755 1072.34 436.855C1247.9 468.788 1439.65 484.525 1439.65 484.525" stroke="white" stroke-width="0.71" stroke-miterlimit="10"/>
<path d="M1.32031 340.536C1.32031 340.536 106.178 354.593 348.413 340.536C590.648 326.48 593.289 330.024 653.187 335.861C713.086 341.698 896.013 391.69 1072.41 423.776C1259.68 457.848 1439.65 473.982 1439.65 473.982" stroke="white" stroke-width="0.71" stroke-miterlimit="10"/>
<path d="M1.32031 1.06958C1.32031 1.06958 341.812 6.93668 432.146 31.6274C530.68 58.396 689.008 175.616 899.279 248.191C1109.55 320.765 1439.65 330.024 1439.65 330.024" stroke="white" stroke-width="0.71" stroke-miterlimit="10"/>
<path d="M1.32031 17.3875C1.32031 17.3875 329.721 21.5433 446.044 50.0232C542.806 73.7055 702.037 188.481 910.224 258.55C1119.07 328.833 1439.65 338.489 1439.65 338.489" stroke="white" stroke-width="0.71" stroke-miterlimit="10"/>
<path d="M1.32031 33.6138C1.32031 33.6138 277.952 34.0721 420.402 66.2801C515.045 87.6706 714.997 201.498 921.064 269.001C1128.45 336.747 1439.69 346.984 1439.69 346.984" stroke="white" stroke-width="0.71" stroke-miterlimit="10"/>
<path d="M1.32031 49.9622C1.32031 49.9622 238.448 51.9484 406.957 87.7622C499.341 107.38 727.887 214.485 931.834 279.451C1137.8 344.815 1439.65 355.449 1439.65 355.449" stroke="white" stroke-width="0.71" stroke-miterlimit="10"/>
<path d="M1.32017 66.28C1.11171 66.28 307.762 75.9669 443.611 115.173C509 134.027 740.846 227.473 942.639 289.933C1147.18 352.882 1439.65 363.944 1439.65 363.944" stroke="white" stroke-width="0.71" stroke-miterlimit="10"/>
<path d="M1.32031 82.5061C1.32031 82.5061 210.062 89.1677 431.104 131.399C518.693 148.205 753.945 240.49 953.445 300.383C1156.56 360.949 1439.65 372.408 1439.65 372.408" stroke="white" stroke-width="0.71" stroke-miterlimit="10"/>
<path d="M1.32031 98.8545C1.32031 98.8545 181.989 102.674 429.297 147.747C514.454 163.27 766.696 253.477 964.355 310.865C1165.87 368.925 1439.72 380.903 1439.72 380.903" stroke="white" stroke-width="0.71" stroke-miterlimit="10"/>
<path d="M1.32031 115.172C1.32031 115.172 150.997 116.395 424.85 164.065C507.54 178.458 762.909 266.342 958.379 321.224C1158.61 376.931 1439.65 389.368 1439.65 389.368" stroke="white" stroke-width="0.71" stroke-miterlimit="10"/>
<path d="M1.32031 131.399C1.32031 131.399 111.98 130.39 412.342 180.291C492.531 193.614 730.006 268.909 943.925 330.666C1141.44 387.595 1439.51 397.893 1439.51 397.893" stroke="white" stroke-width="0.71" stroke-miterlimit="10"/>
<path d="M1.32031 147.747C1.32031 147.747 153.881 153.4 390.175 191.414C475.541 205.135 692.935 275.601 902.962 330.727C1126.4 389.368 1439.65 406.419 1439.65 406.419" stroke="white" stroke-width="0.71" stroke-miterlimit="10"/>
<path d="M1.32031 164.065C1.32031 164.065 333.23 191.75 432.146 215.097C589.467 252.285 778.022 308.634 982.699 355.449C1179.66 400.521 1439.83 414.822 1439.83 414.822" stroke="white" stroke-width="0.71" stroke-miterlimit="10"/>
<path d="M1.32031 180.291C1.32031 180.291 93.2877 183.653 417.692 229.184C490.481 239.421 793.136 324.28 981.622 363.883C1192.8 408.222 1439.65 423.256 1439.65 423.256" stroke="white" stroke-width="0.71" stroke-miterlimit="10"/>
<path d="M1.32031 196.64C1.32031 196.64 158.78 212.988 414.114 245.532C484.47 254.516 810.751 331.95 995.624 374.15C1188.66 417.848 1439.65 431.782 1439.65 431.782" stroke="white" stroke-width="0.71" stroke-miterlimit="10"/>
<path d="M1.32031 212.958C1.32031 212.958 27.7953 214.058 461.47 269.337C529.255 277.985 859.219 346.342 1039.96 384.112C1171.49 411.003 1305 429.771 1439.51 440.277" stroke="white" stroke-width="0.71" stroke-miterlimit="10"/>
<path d="M1.32031 229.184C1.32031 229.184 40.1641 234.562 500.8 289.382C566.119 297.144 870.129 357.374 1050.8 394.532C1240.95 433.401 1439.65 448.711 1439.65 448.711" stroke="white" stroke-width="0.71" stroke-miterlimit="10"/>
<path d="M1.32031 245.532C1.32031 245.532 115.976 260.505 603.573 314.226C666.425 321.132 883.088 370.452 1061.6 405.044C1250.3 441.53 1439.65 457.237 1439.65 457.237" stroke="white" stroke-width="0.71" stroke-miterlimit="10"/>
<path d="M1.32031 261.85L653.187 327.611C713.572 333.722 896.013 383.44 1072.41 415.525C1259.68 449.597 1439.65 465.732 1439.65 465.732" stroke="white" stroke-width="0.71" stroke-miterlimit="10"/>
<path d="M1.21606 330.025C1.21606 330.025 60.2809 339.192 282.642 338.52C494.581 338.031 577.237 307.717 736.92 351.415" stroke="white" stroke-width="0.71" stroke-miterlimit="10"/>
<path d="M1.25073 320.429C1.25073 320.429 99.4373 332.653 303.315 333.508C497.673 334.394 591.308 311.507 734.592 350.743" stroke="white" stroke-width="0.71" stroke-miterlimit="10"/>
<path d="M1.25073 310.865C108.374 321.558 216.045 327.464 323.849 328.558C501.043 330.788 605.275 315.357 732.195 349.948" stroke="white" stroke-width="0.71" stroke-miterlimit="10"/>
<path d="M1.28564 301.3C1.28564 301.3 177.959 319.879 344.417 323.577C504.031 327.183 619.312 319.207 729.763 349.49" stroke="white" stroke-width="0.71" stroke-miterlimit="10"/>
<path d="M1.28564 291.705C1.28564 291.705 217.185 313.493 364.986 318.596C507.228 323.577 633.279 323.057 727.331 348.848" stroke="white" stroke-width="0.71" stroke-miterlimit="10"/>
<path d="M1.28564 282.14C1.28564 282.14 256.446 307.137 385.554 313.615C510.39 319.94 647.281 326.969 724.934 348.359" stroke="white" stroke-width="0.71" stroke-miterlimit="10"/>
<path d="M1.32031 272.576C1.32031 272.576 295.672 300.75 406.123 308.634C513.586 316.304 661.283 330.697 722.502 347.534" stroke="white" stroke-width="0.71" stroke-miterlimit="10"/>
<path d="M454.174 38.564C456.779 39.5113 582.9 84.4007 678.655 110.558C744.495 128.587 866.064 141.849 1016.19 156.028C1159.67 169.682 1301.42 194.906 1439.65 231.384" stroke="white" stroke-width="0.71" stroke-miterlimit="10"/>
<path d="M457.023 39.7251C459.42 40.6113 583.387 85.3785 683.38 115.111C750.471 135.096 869.747 149.733 1018 164.798C1220.56 184.814 1385.83 225.914 1439.79 237.984" stroke="white" stroke-width="0.71" stroke-miterlimit="10"/>
<path d="M459.872 40.9475C462.095 41.7726 583.908 86.3564 688.07 119.756C756.203 141.574 873.395 158.076 1019.53 173.568C1214.55 194.256 1377.08 232.942 1439.65 244.463" stroke="white" stroke-width="0.71" stroke-miterlimit="10"/>
<path d="M462.686 42.1394C464.736 42.9033 584.29 87.3039 692.795 124.34C762.04 148.022 876.939 166.143 1021.2 182.4C1208.81 203.454 1368.43 240.001 1439.65 251.247" stroke="white" stroke-width="0.71" stroke-miterlimit="10"/>
<path d="M465.57 43.3311C467.411 44.0339 584.985 88.1899 697.555 128.893C767.843 154.439 880.726 174.18 1022.86 191.078C1202.87 212.469 1359.88 246.877 1439.79 257.755" stroke="white" stroke-width="0.71" stroke-miterlimit="10"/>
<path d="M468.384 44.5227C470.052 45.1339 585.506 89.0149 702.246 133.538C773.784 160.826 884.409 182.247 1024.57 199.848C1197.04 221.544 1351.16 253.844 1439.65 264.356" stroke="white" stroke-width="0.71" stroke-miterlimit="10"/>
<path d="M471.198 45.8367C472.692 46.3562 586.062 89.9316 706.971 138.213C779.656 167.273 888.092 190.345 1026.23 208.71C1191.2 230.65 1342.4 260.903 1439.69 271.048" stroke="white" stroke-width="0.71" stroke-miterlimit="10"/>
<path d="M474.047 46.9368C475.333 47.3951 586.653 90.6039 711.696 142.736C785.562 173.507 891.774 198.229 1027.87 217.388C1185.33 239.512 1333.61 267.748 1439.62 277.557" stroke="white" stroke-width="0.71" stroke-miterlimit="10"/>
<path d="M476.896 48.1287C478.008 48.5259 587.243 91.3374 716.387 147.319C791.469 179.833 895.457 206.174 1029.57 226.128C1179.56 248.435 1325.21 274.684 1439.55 284.188" stroke="white" stroke-width="0.71" stroke-miterlimit="10"/>
<path d="M479.71 49.3203C480.649 49.6564 587.834 92.1013 721.112 151.903C797.375 186.158 899.14 214.088 1031.27 234.898C1173.72 257.358 1316.55 281.682 1439.65 290.758" stroke="white" stroke-width="0.71" stroke-miterlimit="10"/>
<path d="M482.559 50.5122C483.289 50.7872 588.494 92.7737 725.767 156.517C803.316 192.514 902.823 221.972 1032.94 243.668C1167.92 266.189 1307.9 288.649 1439.65 297.358" stroke="white" stroke-width="0.71" stroke-miterlimit="10"/>
<path d="M485.409 51.7039C485.964 51.9178 589.119 93.4458 730.562 161.101C809.223 198.626 906.541 229.764 1034.61 252.438C1162.67 275.112 1299.43 295.616 1439.65 303.959" stroke="white" stroke-width="0.71" stroke-miterlimit="10"/>
<path d="M488.223 52.8958C488.605 53.0485 589.78 94.0877 735.287 165.685C815.199 205.043 910.258 237.526 1036.27 261.208C1169.13 286.545 1303.97 303.042 1439.65 310.559" stroke="white" stroke-width="0.71" stroke-miterlimit="10"/>
<path d="M491.072 54.0874C491.072 54.0874 590.648 94.546 740.047 170.299C821.244 211.216 914.08 245.227 1038.05 269.978C1150.69 292.469 1282.02 309.704 1439.72 317.129" stroke="white" stroke-width="0.71" stroke-miterlimit="10"/>
<path d="M493.921 55.2791C493.921 55.2791 591.204 95.3403 744.703 174.882C898.202 254.424 1080.75 308.176 1439.58 323.729" stroke="white" stroke-width="0.71" stroke-miterlimit="10"/>
</g>
</svg>
