<?xml version="1.0" standalone="no"?>
<!DOCTYPE svg PUBLIC "-//W3C//DTD SVG 20010904//EN" "http://www.w3.org/TR/2001/REC-SVG-20010904/DTD/svg10.dtd">
<svg version="1.0" xmlns="http://www.w3.org/2000/svg" width="600.000000pt" height="177.000000pt" viewBox="0 0 600.000000 177.000000" preserveAspectRatio="xMidYMid meet">
	<g transform="translate(0.000000,177.000000) scale(0.100000,-0.100000)" fill="#000000" stroke="none">
		<path d="M1110 1654 c-394 -48 -719 -313 -850 -694 -39 -116 -71 -344 -56
-404 l6 -26 228 0 227 0 247 248 247 247 3 168 c2 92 3 167 3 167 0 0 -165
-164 -365 -365 -230 -230 -366 -360 -368 -350 -7 30 19 161 47 243 84 244 280
430 536 508 46 14 93 18 200 18 131 1 145 -1 228 -31 l87 -31 0 128 0 128 -89
21 c-86 21 -261 33 -331 25z" />
		<path d="M1666 1528 c-3 -46 -8 -163 -10 -260 l-6 -178 55 0 55 0 -2 53 c-5
104 2 360 10 353 4 -4 32 -96 63 -204 l56 -197 69 -3 69 -3 55 201 c30 110 58
200 63 200 6 0 13 -233 10 -352 l-1 -48 53 0 53 0 -5 248 c-2 136 -6 253 -9
260 -3 9 -25 12 -85 10 l-81 -3 -57 -197 c-31 -109 -58 -198 -61 -198 -3 0
-30 89 -60 198 l-55 197 -87 3 -86 3 -6 -83z" />
		<path d="M3180 1545 l0 -45 55 0 55 0 0 45 0 45 -55 0 -55 0 0 -45z" />
		<path d="M2755 1553 c-11 -2 -30 -6 -42 -8 -16 -4 -23 -14 -25 -38 -3 -28 -6
-32 -30 -29 -26 3 -28 1 -28 -35 l0 -38 -20 32 c-11 18 -32 36 -47 40 -36 10
-147 10 -194 0 -34 -7 -37 -11 -42 -50 -3 -23 -4 -43 -2 -46 2 -2 22 4 45 13
52 21 123 21 141 0 22 -27 -3 -47 -97 -76 -106 -32 -134 -58 -134 -121 0 -75
50 -117 140 -117 45 0 52 3 60 26 20 51 14 59 -34 56 -37 -3 -46 0 -56 18 -9
16 -9 25 0 35 10 13 109 55 128 55 4 0 6 -40 4 -90 l-3 -90 55 0 56 0 0 155 0
155 25 0 25 0 0 -125 c0 -69 5 -135 11 -148 16 -34 49 -47 123 -47 68 0 75 7
76 68 0 21 -3 22 -35 16 -58 -11 -65 3 -65 127 l0 109 45 0 45 0 0 40 0 40
-45 0 -45 0 0 40 c0 22 -3 39 -7 39 -5 -1 -17 -3 -28 -6z" />
		<path d="M3064 1476 c-17 -8 -35 -22 -39 -32 -7 -17 -8 -16 -14 6 -6 22 -13
25 -54 28 l-47 3 0 -195 0 -196 55 0 55 0 0 124 c0 116 2 127 23 152 18 21 32
27 65 27 46 0 48 4 36 66 -7 35 -28 39 -80 17z" />
		<path d="M3330 1475 c0 -2 28 -43 61 -90 l62 -86 -72 -105 -72 -104 65 0 64 0
38 65 c21 36 43 64 48 62 5 -2 25 -31 45 -65 l36 -61 68 -1 68 0 -76 101 c-42
55 -74 106 -72 112 3 7 30 45 61 86 31 41 56 78 56 83 0 4 -27 8 -59 8 l-59 0
-31 -50 c-17 -27 -35 -50 -39 -50 -5 0 -21 23 -36 50 l-27 50 -65 0 c-35 0
-64 -2 -64 -5z" />
		<path d="M3184 1280 l1 -191 55 3 c30 2 54 6 53 11 -2 4 -3 88 -3 187 l0 180
-53 0 -53 0 0 -190z" />
		<path d="M1125 930 l-400 -400 160 0 160 0 243 243 243 243 -3 157 -3 157
-400 -400z" />
		<path d="M1823 1042 l-203 -2 0 -40 0 -40 75 0 75 0 0 -215 0 -215 58 0 57 0
-3 215 -3 215 80 0 81 0 0 39 c0 22 -3 41 -7 43 -5 2 -99 2 -210 0z" />
		<path d="M2634 1014 c3 -9 6 -121 6 -250 l0 -234 55 0 55 0 -6 73 c-8 94 9
184 40 216 18 17 34 23 66 23 70 -1 75 -12 78 -172 l4 -140 53 0 54 0 -6 148
c-8 213 -29 246 -161 246 -48 0 -69 -5 -92 -22 -16 -12 -32 -22 -35 -22 -3 0
-5 34 -5 75 l0 75 -56 0 c-47 0 -55 -3 -50 -16z" />
		<path d="M3945 780 l0 -250 59 0 59 0 -7 38 c-3 20 -6 133 -6 250 l0 212 -52
0 -53 0 0 -250z" />
		<path d="M4930 985 l0 -45 55 0 55 0 0 45 0 45 -55 0 -55 0 0 -45z" />
		<path d="M1315 740 l-210 -210 155 0 155 0 58 53 58 52 -3 158 -3 157 -210
-210z" />
		<path d="M2457 919 c-34 -4 -70 -15 -85 -26 -66 -49 -94 -134 -72 -221 28
-112 91 -157 215 -150 40 2 76 6 79 9 3 3 9 27 12 52 l7 47 -32 -11 c-47 -16
-128 -6 -153 19 -28 28 -36 108 -14 150 21 41 75 58 139 44 l47 -10 0 44 c0
40 -3 44 -27 49 -49 11 -57 11 -116 4z" />
		<path d="M3252 920 c-18 -4 -41 -15 -51 -24 -23 -21 -31 -20 -31 4 0 17 -7 20
-50 20 l-50 0 0 -195 0 -195 54 0 53 0 0 113 c-1 154 24 199 111 199 63 0 72
-22 72 -178 l0 -134 56 0 55 0 -6 153 c-8 161 -15 189 -55 218 -30 21 -111 31
-158 19z" />
		<path d="M3629 914 c-160 -48 -168 -315 -12 -380 75 -32 210 -9 256 44 59 66
61 194 5 275 -42 60 -158 88 -249 61z m146 -98 c42 -42 46 -149 7 -189 -11
-10 -37 -21 -58 -24 -51 -6 -89 22 -105 79 -23 88 17 158 91 158 30 0 47 -6
65 -24z" />
		<path d="M4219 921 c-96 -20 -149 -89 -149 -196 1 -134 73 -205 210 -205 71 0
115 16 151 56 86 95 54 284 -57 330 -41 17 -110 24 -155 15z m117 -105 c24
-20 28 -32 32 -89 4 -63 3 -68 -27 -98 -29 -28 -36 -31 -74 -26 -64 9 -87 42
-87 123 0 56 4 68 25 89 33 34 93 34 131 1z" />
		<path d="M4619 915 c-107 -34 -157 -161 -113 -288 22 -64 68 -99 138 -105 47
-4 77 4 139 36 17 9 6 -67 -14 -92 -18 -23 -28 -26 -80 -26 -34 0 -80 8 -110
20 l-51 19 6 -37 c3 -20 6 -42 6 -48 0 -27 201 -44 272 -22 77 23 79 30 76
297 l-3 235 -35 8 c-79 16 -185 18 -231 3z m169 -155 c4 -79 -2 -104 -30 -130
-22 -20 -78 -27 -113 -14 -24 10 -45 58 -45 105 0 33 6 47 35 76 32 32 37 34
92 31 l58 -3 3 -65z" />
		<path d="M5219 917 c-85 -22 -129 -88 -129 -192 0 -36 6 -80 14 -98 18 -44 78
-95 121 -103 46 -8 162 -1 174 11 5 6 11 29 15 52 6 42 6 43 -20 33 -14 -6
-50 -10 -80 -10 -48 0 -60 4 -85 29 -17 18 -29 40 -29 56 l0 26 123 -2 122 -1
3 29 c4 43 -29 123 -61 146 -32 24 -119 37 -168 24z m101 -87 c38 -38 27 -50
-50 -50 -77 0 -84 7 -45 45 29 30 68 32 95 5z" />
		<path d="M5546 919 c-44 -12 -76 -48 -76 -84 0 -42 24 -71 110 -135 38 -29 70
-58 70 -66 0 -26 -46 -38 -98 -26 -26 6 -55 14 -64 17 -15 6 -18 1 -18 -27 0
-64 16 -73 125 -73 96 0 97 0 126 33 56 63 35 123 -71 202 -72 53 -87 79 -47
81 40 2 80 -3 105 -12 23 -9 24 -8 17 33 -8 47 -17 57 -55 59 -14 1 -41 2 -60
4 -19 1 -48 -2 -64 -6z" />
		<path d="M2004 901 c-126 -77 -123 -293 6 -359 39 -20 56 -23 127 -20 46 3 85
7 88 9 3 3 8 27 11 53 7 47 6 48 -14 37 -11 -6 -48 -11 -82 -11 -51 0 -65 4
-85 25 -16 15 -25 36 -25 55 l0 31 120 -3 120 -3 0 44 c0 57 -31 121 -69 144
-41 24 -155 23 -197 -2z m145 -77 c11 -15 18 -30 15 -35 -3 -5 -34 -9 -70 -9
-71 0 -82 12 -44 50 29 29 74 26 99 -6z" />
		<path d="M4939 906 c-2 -2 -3 -88 -1 -190 l3 -186 55 0 56 0 -5 63 c-4 34 -6
119 -6 190 l-1 127 -48 0 c-27 0 -51 -2 -53 -4z" />
		<path d="M5760 881 c0 -4 9 -12 19 -18 16 -10 18 -9 14 6 -4 16 -33 26 -33 12z" />
		<path d="M210 410 c0 -7 722 -10 2145 -10 1423 0 2145 3 2145 10 0 7 -722 10
-2145 10 -1423 0 -2145 -3 -2145 -10z" />
		<path d="M4920 410 c0 -7 146 -10 419 -10 269 0 422 4 426 10 4 7 -138 10
-419 10 -277 0 -426 -3 -426 -10z" />
		<path d="M3653 252 c-50 -8 -72 -93 -33 -132 21 -21 84 -28 95 -10 4 6 -9 10
-32 10 -47 0 -63 14 -63 55 0 43 30 70 70 62 16 -4 30 -3 30 2 0 11 -37 18
-67 13z" />
		<path d="M3874 246 c-49 -22 -59 -74 -23 -120 43 -54 139 -18 139 54 0 28 -29
70 -49 70 -5 0 -15 2 -23 5 -7 2 -27 -2 -44 -9z m76 -26 c40 -40 19 -100 -35
-100 -40 0 -65 22 -65 57 0 57 61 82 100 43z" />
		<path d="M4565 252 c-55 -11 -76 -91 -35 -132 25 -25 80 -26 109 -3 64 54 10
151 -74 135z m65 -32 c39 -39 12 -100 -44 -100 -41 0 -56 15 -56 56 0 60 59
85 100 44z" />
		<path d="M3200 175 c0 -43 4 -75 10 -75 6 0 10 32 10 75 0 43 -4 75 -10 75 -6
0 -10 -32 -10 -75z" />
		<path d="M3350 173 c0 -88 17 -91 22 -3 l3 55 38 -62 c53 -86 67 -83 67 12 0
90 -18 101 -22 13 l-3 -62 -38 62 c-53 86 -67 82 -67 -15z" />
		<path d="M4100 175 c0 -43 4 -75 10 -75 6 0 10 30 10 70 0 60 2 70 18 70 27 0
46 -16 39 -34 -4 -9 -16 -16 -27 -16 -26 0 -25 -8 6 -53 30 -45 43 -43 19 2
-14 28 -14 32 -1 37 21 8 30 42 16 59 -7 9 -30 15 -51 15 l-39 0 0 -75z" />
		<path d="M4308 205 c-3 -86 -3 -95 5 -95 5 0 10 28 12 61 3 34 6 64 9 66 2 3
14 2 25 -2 29 -9 26 -33 -4 -45 -29 -11 -32 -20 -7 -20 34 0 56 24 48 53 -6
24 -11 27 -46 27 l-40 0 -2 -45z" />
		<path d="M4770 174 c0 -47 4 -73 10 -69 6 3 10 33 10 65 0 64 9 77 39 60 24
-12 17 -40 -10 -40 -10 0 -19 -3 -19 -6 0 -13 44 -84 52 -84 12 0 10 13 -8 38
-14 20 -14 24 5 48 30 38 13 64 -39 64 l-40 0 0 -76z" />
		<path d="M4994 183 c-16 -37 -30 -71 -32 -75 -2 -4 1 -8 7 -8 6 0 17 16 25 35
12 28 20 35 43 35 24 0 31 -6 42 -35 7 -19 17 -35 22 -35 12 0 13 -2 -19 76
-16 38 -35 70 -44 72 -10 2 -24 -19 -44 -65z m58 18 c2 -7 -5 -15 -14 -16 -19
-3 -22 4 -12 30 7 17 20 10 26 -14z" />
		<path d="M5194 243 c4 -4 15 -8 24 -8 14 0 18 -12 20 -67 2 -38 7 -68 12 -68
5 0 10 30 12 68 3 57 6 67 21 66 9 -1 17 2 17 7 0 5 -25 9 -57 9 -31 0 -53 -3
-49 -7z" />
		<path d="M5410 175 l0 -75 44 0 c25 0 48 5 51 10 4 6 -10 10 -34 10 -37 0 -41
2 -41 25 0 22 4 25 35 25 19 0 35 5 35 10 0 6 -16 10 -35 10 -28 0 -35 4 -35
20 0 16 7 20 34 20 19 0 38 5 41 10 4 6 -13 10 -44 10 l-51 0 0 -75z" />
		<path d="M5622 178 l3 -73 42 -3 c35 -3 48 2 68 22 29 29 33 71 9 104 -12 18
-25 22 -70 22 l-55 0 3 -72z m98 42 c41 -41 13 -100 -48 -100 l-35 0 7 46 c3
26 6 53 6 60 0 21 47 17 70 -6z" />
	</g>
</svg>
