<svg width="67" height="50" viewBox="0 0 67 50" fill="none" xmlns="http://www.w3.org/2000/svg">
<path d="M3.55241 31.9225L0.120405 39.9025H0.984405C1.06841 39.4825 1.17641 39.0865 1.34441 38.6905L2.08841 36.9625H4.88441L6.13241 39.9025H7.32041L3.87641 31.9225H3.55241ZM3.48041 33.6625L4.69241 36.4825H2.26841L3.45641 33.6625H3.48041ZM9.98281 31.9225H9.62281L9.62281 39.9025H10.4268C10.3308 39.4945 10.2948 39.0625 10.2948 38.5825L10.2468 34.7305H10.2828L12.9708 39.9625H13.3188L15.9708 34.7305H16.0068L15.9468 39.9025H17.0508L17.0508 31.9825H16.6908L13.3788 38.5585H13.3308L9.98281 31.9225ZM24.9577 39.9025V39.3025C24.5617 39.3865 24.1177 39.4225 23.6377 39.4225H21.5737L21.5737 35.9785H24.5737V35.4985H21.5737V32.4625H23.5777C24.0577 32.4625 24.5017 32.4985 24.8977 32.5825V31.9825H20.4097L20.4097 39.9025H24.9577ZM33.3519 31.9825C33.4359 32.4025 33.4599 32.8585 33.4719 33.3025L33.5559 38.0665H33.5079L28.1319 31.9225H27.7719L27.7719 39.9025H28.5519C28.4439 39.5305 28.4439 39.0385 28.4319 38.5825L28.3359 33.9145H28.3839L33.7719 39.9625H34.1319V31.9825H33.3519ZM37.4338 31.9825V39.9025H38.5978V31.9825H37.4338ZM44.7814 32.4625H45.8974C46.3774 32.4625 46.8214 32.4985 47.2174 32.5825V31.9825H41.1814V32.5825C41.5774 32.4985 42.0214 32.4625 42.5014 32.4625H43.6174V39.9025H44.7814V32.4625ZM49.7937 31.9825V39.9025H50.9577V31.9825H49.7937ZM58.8694 39.9025V39.3025C58.4734 39.3865 58.0294 39.4225 57.5494 39.4225H55.4854V35.9785H58.4854V35.4985H55.4854V32.4625H57.4894C57.9694 32.4625 58.4134 32.4985 58.8094 32.5825V31.9825L54.3214 31.9825V39.9025H58.8694ZM61.3836 39.2665C62.0436 39.7585 62.8596 40.0225 63.7836 40.0225C65.4876 40.0225 66.5556 39.0745 66.5556 37.6225C66.5556 36.2665 65.4876 35.6305 64.3476 35.3305C63.4956 35.1145 62.5596 34.6945 62.5596 33.6985C62.5596 32.8945 63.1956 32.3785 64.0476 32.3785C64.9476 32.3785 65.6676 32.9425 66.1836 33.7945V32.5585C65.5236 32.1025 64.8156 31.8625 64.0356 31.8625C62.5236 31.8625 61.4676 32.7745 61.4676 34.0585C61.4676 35.4505 62.6316 36.1345 63.7596 36.4105C64.6116 36.6265 65.4396 37.0345 65.4396 38.0425C65.4396 38.9425 64.7796 39.4945 63.8316 39.4945C62.8956 39.4945 62.0076 38.9545 61.3836 38.0185V39.2665Z" fill="white"/>
<path d="M29.3985 10.8087V7.52744C29.3985 7.39691 29.4503 7.27172 29.5426 7.17941C29.6349 7.08711 29.7601 7.03525 29.8907 7.03525C30.0212 7.03525 30.1464 7.08711 30.2387 7.17941C30.331 7.27172 30.3828 7.39691 30.3828 7.52744V10.8087C30.3828 10.9392 30.331 11.0644 30.2387 11.1567C30.1464 11.249 30.0212 11.3009 29.8907 11.3009C29.7601 11.3009 29.6349 11.249 29.5426 11.1567C29.4503 11.0644 29.3985 10.9392 29.3985 10.8087ZM32.6715 7.44541C32.6419 7.32465 32.5676 7.21957 32.4637 7.15131C32.3598 7.08304 32.2339 7.05665 32.1113 7.07743C31.9887 7.09821 31.8785 7.16462 31.8028 7.26332C31.7272 7.36202 31.6917 7.48569 31.7035 7.60947L32.3516 11.506C32.3516 12.1586 32.0923 12.7846 31.6308 13.2461C31.1693 13.7076 30.5433 13.9669 29.8907 13.9669C29.238 13.9669 28.612 13.7076 28.1505 13.2461C27.689 12.7846 27.4297 12.1586 27.4297 11.506L28.0778 7.60947C28.0939 7.54377 28.0963 7.47546 28.0848 7.40879C28.0734 7.34212 28.0483 7.27853 28.0111 7.22199C27.974 7.16544 27.9256 7.11716 27.869 7.08016C27.8123 7.04316 27.7487 7.01823 27.682 7.00692C27.6153 6.99562 27.547 6.99818 27.4813 7.01446C27.4157 7.03073 27.3541 7.06037 27.3004 7.10152C27.2467 7.14266 27.202 7.19444 27.1693 7.25361C27.1365 7.31278 27.1162 7.37807 27.1098 7.44541L26.4535 11.3829C26.4468 11.4097 26.444 11.4373 26.4453 11.4649C26.4481 12.2929 26.7476 13.0925 27.2894 13.7186C27.8312 14.3446 28.5795 14.7558 29.3985 14.8774V23.2774C29.3985 23.408 29.4503 23.5332 29.5426 23.6255C29.6349 23.7178 29.7601 23.7696 29.8907 23.7696C30.0212 23.7696 30.1464 23.7178 30.2387 23.6255C30.331 23.5332 30.3828 23.408 30.3828 23.2774V14.8774C31.2018 14.7558 31.9501 14.3446 32.4919 13.7186C33.0337 13.0925 33.3332 12.2929 33.336 11.4649C33.3373 11.4373 33.3345 11.4097 33.3278 11.3829L32.6715 7.44541ZM40.2266 7.52744V23.2774C40.2266 23.408 40.1747 23.5332 40.0824 23.6255C39.9901 23.7178 39.8649 23.7696 39.7344 23.7696C39.6039 23.7696 39.4787 23.7178 39.3864 23.6255C39.2941 23.5332 39.2422 23.408 39.2422 23.2774V18.5196H35.1407C35.0711 18.5194 35.0024 18.5048 34.9388 18.4765C34.8752 18.4483 34.8183 18.4071 34.7715 18.3556C34.6827 18.2507 34.6385 18.1153 34.6485 17.9782C34.8502 16.3437 35.1709 14.7261 35.6082 13.1384C36.5844 9.70947 37.9133 7.66689 39.5621 7.06807C39.6365 7.0403 39.7164 7.03091 39.7951 7.04069C39.8738 7.05048 39.949 7.07915 40.0143 7.12427C40.0796 7.16939 40.1329 7.22961 40.1699 7.29981C40.2069 7.37001 40.2263 7.44811 40.2266 7.52744ZM39.2422 8.35596C37.134 9.94736 36.0348 15.0087 35.6985 17.5353H39.2422V8.35596Z" fill="white"/>
</svg>
