<svg width="65" height="50" viewBox="0 0 65 50" fill="none" xmlns="http://www.w3.org/2000/svg">
<path d="M2.38188 41.5086L2.38188 49.4286H4.81788C7.26588 49.4286 7.91388 48.1566 7.91388 47.2086C7.91388 46.2846 7.32588 45.4326 5.98188 45.2526V45.2286C6.95388 45.0366 7.49388 44.2206 7.49388 43.3926C7.49388 42.4326 6.79788 41.5086 4.74588 41.5086H2.38188ZM3.54588 41.9886H4.42188C5.64588 41.9886 6.29388 42.5286 6.29388 43.4766C6.29388 44.4726 5.63388 45.0606 4.50588 45.0606H3.54588L3.54588 41.9886ZM3.54588 45.5286H4.50588C6.17388 45.5286 6.70188 46.2486 6.70188 47.1846C6.70188 48.1086 6.23388 48.9366 4.55388 48.9366H3.54588L3.54588 45.5286ZM16.4647 42.8286V46.4886C16.4647 48.0966 15.5167 49.0206 14.1247 49.0206C12.8887 49.0206 11.9407 48.2646 11.9407 46.8126L11.9407 41.5086H10.7767L10.7767 46.5366C10.7767 48.6246 12.2287 49.5486 14.0287 49.5486C15.8647 49.5486 17.1247 48.5526 17.1247 46.5246V41.5086H16.3447C16.4287 41.9286 16.4647 42.3846 16.4647 42.8286ZM20.4255 41.5086L20.4255 49.4286H21.5895L21.5895 41.5086H20.4255ZM24.9531 49.4286L29.3331 49.4286V48.8286C28.9371 48.9126 28.4931 48.9486 28.0131 48.9486H26.1171L26.1171 41.5086H24.9531L24.9531 49.4286ZM32.0355 41.5086V49.4286H34.5915C37.2195 49.4286 38.9475 47.8446 38.9475 45.4686C38.9475 43.0926 37.2195 41.5086 34.5915 41.5086H32.0355ZM33.1995 41.9886H34.0275C36.7035 41.9886 37.7355 43.3326 37.7355 45.4566C37.7355 47.5326 36.7155 48.9486 34.0275 48.9486H33.1995V41.9886ZM41.9538 41.5086V49.4286H43.1178V41.5086H41.9538ZM52.0014 41.5086C52.0854 41.9286 52.1094 42.3846 52.1214 42.8286L52.2054 47.5926H52.1574L46.7814 41.4486H46.4214V49.4286H47.2014C47.0934 49.0566 47.0934 48.5646 47.0814 48.1086L46.9854 43.4406H47.0334L52.4214 49.4886H52.7814V41.5086H52.0014ZM60.1153 48.9966C58.0393 48.9966 56.9473 47.3406 56.9473 45.4326C56.9473 43.5486 57.8833 41.9046 59.8153 41.9046C60.9793 41.9046 61.8433 42.4566 62.4913 43.3566V42.1206C61.6993 41.5686 60.8713 41.3886 59.8153 41.3886C57.3913 41.3886 55.7353 43.1166 55.7353 45.4326C55.7353 47.8326 57.4273 49.5486 60.0793 49.5486C61.0033 49.5246 62.0833 49.3566 62.8393 48.8166V45.5526L61.6393 45.5526C61.6873 46.0926 61.6993 46.6206 61.6993 47.1126V48.6726C61.2313 48.8766 60.6913 48.9966 60.1153 48.9966Z" fill="white"/>
<path d="M41 4.39566V33.9286H24V1.58931L41 4.39566Z" stroke="white"/>
<mask id="path-3-inside-1_31_659" fill="white">
<path d="M24.3571 8.71427L32.5 3.57141L40.6428 8.71427L32.5 13.8571L24.3571 8.71427Z"/>
</mask>
<path d="M24.3571 8.71427L24.0367 8.20697L23.2335 8.71427L24.0367 9.22156L24.3571 8.71427ZM32.5 3.57141L32.8204 3.06412L32.5 2.86176L32.1796 3.06412L32.5 3.57141ZM40.6428 8.71427L40.9632 9.22156L41.7664 8.71427L40.9632 8.20697L40.6428 8.71427ZM32.5 13.8571L32.1796 14.3644L32.5 14.5668L32.8204 14.3644L32.5 13.8571ZM24.6775 9.22156L32.8204 4.0787L32.1796 3.06412L24.0367 8.20697L24.6775 9.22156ZM32.1796 4.0787L40.3224 9.22156L40.9632 8.20697L32.8204 3.06412L32.1796 4.0787ZM40.3224 8.20697L32.1796 13.3498L32.8204 14.3644L40.9632 9.22156L40.3224 8.20697ZM32.8204 13.3498L24.6775 8.20697L24.0367 9.22156L32.1796 14.3644L32.8204 13.3498Z" fill="white" mask="url(#path-3-inside-1_31_659)"/>
<mask id="path-5-inside-2_31_659" fill="white">
<path d="M24.3571 18.5715L32.5 13.8572L40.6428 18.5715L32.5 23.2857L24.3571 18.5715Z"/>
</mask>
<path d="M24.3571 18.5715L24.0565 18.0522L23.1596 18.5715L24.0565 19.0907L24.3571 18.5715ZM32.5 13.8572L32.8006 13.3379L32.5 13.1639L32.1994 13.3379L32.5 13.8572ZM40.6428 18.5715L40.9435 19.0907L41.8403 18.5715L40.9435 18.0522L40.6428 18.5715ZM32.5 23.2857L32.1994 23.805L32.5 23.979L32.8006 23.805L32.5 23.2857ZM24.6577 19.0907L32.8006 14.3764L32.1994 13.3379L24.0565 18.0522L24.6577 19.0907ZM32.1994 14.3764L40.3422 19.0907L40.9435 18.0522L32.8006 13.3379L32.1994 14.3764ZM40.3422 18.0522L32.1994 22.7665L32.8006 23.805L40.9435 19.0907L40.3422 18.0522ZM32.8006 22.7665L24.6577 18.0522L24.0565 19.0907L32.1994 23.805L32.8006 22.7665Z" fill="white" mask="url(#path-5-inside-2_31_659)"/>
<mask id="path-7-inside-3_31_659" fill="white">
<path d="M24.3571 28.4286L32.5 23.2858L40.6428 28.4286L32.5 33.5715L24.3571 28.4286Z"/>
</mask>
<path d="M24.3571 28.4286L24.0367 27.9213L23.2335 28.4286L24.0367 28.9359L24.3571 28.4286ZM32.5 23.2858L32.8204 22.7785L32.5 22.5761L32.1796 22.7785L32.5 23.2858ZM40.6428 28.4286L40.9632 28.9359L41.7664 28.4286L40.9632 27.9213L40.6428 28.4286ZM32.5 33.5715L32.1796 34.0788L32.5 34.2811L32.8204 34.0788L32.5 33.5715ZM24.6775 28.9359L32.8204 23.7931L32.1796 22.7785L24.0367 27.9213L24.6775 28.9359ZM32.1796 23.7931L40.3224 28.9359L40.9632 27.9213L32.8204 22.7785L32.1796 23.7931ZM40.3224 27.9213L32.1796 33.0642L32.8204 34.0788L40.9632 28.9359L40.3224 27.9213ZM32.8204 33.0642L24.6775 27.9213L24.0367 28.9359L32.1796 34.0788L32.8204 33.0642Z" fill="white" mask="url(#path-7-inside-3_31_659)"/>
</svg>
