<svg width="64" height="50" viewBox="0 0 64 50" fill="none" xmlns="http://www.w3.org/2000/svg">
<path d="M1.88188 41.5087L1.88188 49.4287H4.31788C6.76588 49.4287 7.41388 48.1567 7.41388 47.2087C7.41388 46.2847 6.82588 45.4327 5.48188 45.2527V45.2287C6.45388 45.0367 6.99388 44.2207 6.99388 43.3927C6.99388 42.4327 6.29788 41.5087 4.24588 41.5087H1.88188ZM3.04588 41.9887H3.92188C5.14588 41.9887 5.79388 42.5287 5.79388 43.4767C5.79388 44.4727 5.13388 45.0607 4.00588 45.0607H3.04588L3.04588 41.9887ZM3.04588 45.5287H4.00588C5.67388 45.5287 6.20188 46.2487 6.20188 47.1847C6.20188 48.1087 5.73388 48.9367 4.05388 48.9367H3.04588L3.04588 45.5287ZM15.9647 42.8287L15.9647 46.4887C15.9647 48.0967 15.0167 49.0207 13.6247 49.0207C12.3887 49.0207 11.4407 48.2647 11.4407 46.8127L11.4407 41.5087H10.2767L10.2767 46.5367C10.2767 48.6247 11.7287 49.5487 13.5287 49.5487C15.3647 49.5487 16.6247 48.5527 16.6247 46.5247V41.5087H15.8447C15.9287 41.9287 15.9647 42.3847 15.9647 42.8287ZM19.9255 41.5087L19.9255 49.4287H21.0895L21.0895 41.5087H19.9255ZM24.4531 49.4287L28.8331 49.4287V48.8287C28.4371 48.9127 27.9931 48.9487 27.5131 48.9487H25.6171L25.6171 41.5087H24.4531L24.4531 49.4287ZM31.5355 41.5087L31.5355 49.4287H34.0915C36.7195 49.4287 38.4475 47.8447 38.4475 45.4687C38.4475 43.0927 36.7195 41.5087 34.0915 41.5087H31.5355ZM32.6995 41.9887H33.5275C36.2035 41.9887 37.2355 43.3327 37.2355 45.4567C37.2355 47.5327 36.2155 48.9487 33.5275 48.9487H32.6995V41.9887ZM41.4538 41.5087V49.4287H42.6178V41.5087H41.4538ZM51.5014 41.5087C51.5854 41.9287 51.6094 42.3847 51.6214 42.8287L51.7054 47.5927H51.6574L46.2814 41.4487H45.9214V49.4287H46.7014C46.5934 49.0567 46.5934 48.5647 46.5814 48.1087L46.4854 43.4407H46.5334L51.9214 49.4887H52.2814V41.5087H51.5014ZM59.6153 48.9967C57.5393 48.9967 56.4473 47.3407 56.4473 45.4327C56.4473 43.5487 57.3833 41.9047 59.3153 41.9047C60.4793 41.9047 61.3433 42.4567 61.9913 43.3567V42.1207C61.1993 41.5687 60.3713 41.3887 59.3153 41.3887C56.8913 41.3887 55.2353 43.1167 55.2353 45.4327C55.2353 47.8327 56.9273 49.5487 59.5793 49.5487C60.5033 49.5247 61.5833 49.3567 62.3393 48.8167V45.5527L61.1393 45.5527C61.1873 46.0927 61.1993 46.6207 61.1993 47.1127V48.6727C60.7313 48.8767 60.1913 48.9967 59.6153 48.9967Z" fill="#242C60"/>
<path d="M40.5 4.39572V33.9286H23.5V1.58937L40.5 4.39572Z" stroke="#242C60"/>
<mask id="path-3-inside-1_31_754" fill="white">
<path d="M23.8572 8.71433L32 3.57147L40.1429 8.71433L32 13.8572L23.8572 8.71433Z"/>
</mask>
<path d="M23.8572 8.71433L23.5368 8.20704L22.7336 8.71433L23.5368 9.22162L23.8572 8.71433ZM32 3.57147L32.3204 3.06418L32 2.86182L31.6796 3.06418L32 3.57147ZM40.1429 8.71433L40.4633 9.22162L41.2665 8.71433L40.4633 8.20704L40.1429 8.71433ZM32 13.8572L31.6796 14.3645L32 14.5668L32.3204 14.3645L32 13.8572ZM24.1776 9.22162L32.3204 4.07877L31.6796 3.06418L23.5368 8.20704L24.1776 9.22162ZM31.6796 4.07877L39.8225 9.22162L40.4633 8.20704L32.3204 3.06418L31.6796 4.07877ZM39.8225 8.20704L31.6796 13.3499L32.3204 14.3645L40.4633 9.22162L39.8225 8.20704ZM32.3204 13.3499L24.1776 8.20704L23.5368 9.22162L31.6796 14.3645L32.3204 13.3499Z" fill="#242C60" mask="url(#path-3-inside-1_31_754)"/>
<mask id="path-5-inside-2_31_754" fill="white">
<path d="M23.8572 18.5715L32 13.8572L40.1429 18.5715L32 23.2857L23.8572 18.5715Z"/>
</mask>
<path d="M23.8572 18.5715L23.5566 18.0522L22.6597 18.5715L23.5566 19.0907L23.8572 18.5715ZM32 13.8572L32.3007 13.3379L32 13.1639L31.6994 13.3379L32 13.8572ZM40.1429 18.5715L40.4435 19.0907L41.3404 18.5715L40.4435 18.0522L40.1429 18.5715ZM32 23.2857L31.6994 23.805L32 23.979L32.3007 23.805L32 23.2857ZM24.1578 19.0907L32.3007 14.3764L31.6994 13.3379L23.5566 18.0522L24.1578 19.0907ZM31.6994 14.3764L39.8423 19.0907L40.4435 18.0522L32.3007 13.3379L31.6994 14.3764ZM39.8423 18.0522L31.6994 22.7665L32.3007 23.805L40.4435 19.0907L39.8423 18.0522ZM32.3007 22.7665L24.1578 18.0522L23.5566 19.0907L31.6994 23.805L32.3007 22.7665Z" fill="#242C60" mask="url(#path-5-inside-2_31_754)"/>
<mask id="path-7-inside-3_31_754" fill="white">
<path d="M23.8572 28.4286L32 23.2858L40.1429 28.4286L32 33.5715L23.8572 28.4286Z"/>
</mask>
<path d="M23.8572 28.4286L23.5368 27.9213L22.7336 28.4286L23.5368 28.9359L23.8572 28.4286ZM32 23.2858L32.3204 22.7785L32 22.5761L31.6796 22.7785L32 23.2858ZM40.1429 28.4286L40.4633 28.9359L41.2665 28.4286L40.4633 27.9213L40.1429 28.4286ZM32 33.5715L31.6796 34.0788L32 34.2811L32.3204 34.0788L32 33.5715ZM24.1776 28.9359L32.3204 23.7931L31.6796 22.7785L23.5368 27.9213L24.1776 28.9359ZM31.6796 23.7931L39.8225 28.9359L40.4633 27.9213L32.3204 22.7785L31.6796 23.7931ZM39.8225 27.9213L31.6796 33.0642L32.3204 34.0788L40.4633 28.9359L39.8225 27.9213ZM32.3204 33.0642L24.1776 27.9213L23.5368 28.9359L31.6796 34.0788L32.3204 33.0642Z" fill="#242C60" mask="url(#path-7-inside-3_31_754)"/>
</svg>