<svg width="61" height="50" viewBox="0 0 61 50" fill="none" xmlns="http://www.w3.org/2000/svg">
<path d="M10.8316 32.08L10.8316 40H11.9956V36.1H14.9596V35.62H11.9956L11.9956 32.56H14.0356C14.5156 32.56 14.9596 32.596 15.3556 32.68V32.08H10.8316ZM18.0897 40H22.4697V39.4C22.0737 39.484 21.6297 39.52 21.1497 39.52H19.2537V32.08H18.0897V40ZM28.1641 31.96C25.6321 31.96 24.1561 33.748 24.1561 36.028C24.1561 38.308 25.5961 40.12 28.1521 40.12C30.6841 40.12 32.1721 38.308 32.1721 36.028C32.1721 33.76 30.6841 31.96 28.1641 31.96ZM28.1521 39.592C26.1721 39.592 25.3681 37.828 25.3681 36.028C25.3681 34.24 26.1961 32.452 28.1641 32.452C30.1321 32.452 30.9601 34.24 30.9601 36.028C30.9601 37.828 30.1321 39.592 28.1521 39.592ZM38.8441 31.96C36.3121 31.96 34.8361 33.748 34.8361 36.028C34.8361 38.308 36.2761 40.12 38.8321 40.12C41.3641 40.12 42.8521 38.308 42.8521 36.028C42.8521 33.76 41.3641 31.96 38.8441 31.96ZM38.8321 39.592C36.8521 39.592 36.0481 37.828 36.0481 36.028C36.0481 34.24 36.8761 32.452 38.8441 32.452C40.8121 32.452 41.6401 34.24 41.6401 36.028C41.6401 37.828 40.8121 39.592 38.8321 39.592ZM45.8641 32.08V40H47.0281V36.184L50.5561 40H51.9721L48.5641 36.412H48.6961C50.2561 36.412 51.3841 35.38 51.3841 34.156C51.3841 32.86 50.1841 32.08 48.5641 32.08H45.8641ZM50.1721 34.204C50.1721 35.14 49.5721 36.028 47.9761 36.028H47.0281V32.56H47.9881C49.6801 32.56 50.1721 33.34 50.1721 34.204Z" fill="#242C60"/>
<path d="M18.731 6V20.9346L21.9793 23L31.2814 20.9346H46.1942V6H31.2814L27.4424 7.42991L18.731 6Z" stroke="#242C60"/>
<path d="M38.664 20.9346L46.1943 9.81308L42.3553 6" stroke="#242C60" stroke-dasharray="1.4 1.4"/>
</svg>
