<svg width="67" height="50" viewBox="0 0 67 50" fill="none" xmlns="http://www.w3.org/2000/svg">
<path d="M1.52445 43.2305H5.90445V42.6305C5.50845 42.7145 5.06445 42.7505 4.58445 42.7505H2.68845L2.68845 35.3105H1.52445L1.52445 43.2305ZM11.5988 35.1905C9.06683 35.1905 7.59083 36.9785 7.59083 39.2585C7.59083 41.5385 9.03083 43.3505 11.5868 43.3505C14.1188 43.3505 15.6068 41.5385 15.6068 39.2585C15.6068 36.9905 14.1188 35.1905 11.5988 35.1905ZM11.5868 42.8225C9.60683 42.8225 8.80283 41.0585 8.80283 39.2585C8.80283 37.4705 9.63083 35.6825 11.5988 35.6825C13.5668 35.6825 14.3948 37.4705 14.3948 39.2585C14.3948 41.0585 13.5668 42.8225 11.5868 42.8225ZM22.4588 42.7985C20.7308 42.7985 19.4828 41.4545 19.4828 39.2345C19.4828 37.0385 20.6348 35.7065 22.3268 35.7065C23.3468 35.7065 24.2348 36.1265 24.9548 37.1585V35.9225C24.2468 35.4425 23.3588 35.1905 22.3868 35.1905C19.9748 35.1905 18.2708 36.8825 18.2708 39.2465C18.2708 41.6585 19.9628 43.3505 22.4228 43.3505C23.3948 43.3505 24.2828 43.0865 24.9548 42.6185L24.9548 41.3825C24.3428 42.3785 23.4908 42.7985 22.4588 42.7985ZM30.4851 35.2505L27.0531 43.2305H27.9171C28.0011 42.8105 28.1091 42.4145 28.2771 42.0185L29.0211 40.2905H31.8171L33.0651 43.2305H34.2531L30.8091 35.2505H30.4851ZM30.4131 36.9905L31.6251 39.8105H29.2011L30.3891 36.9905H30.4131ZM39.0137 35.7905H40.1297C40.6097 35.7905 41.0537 35.8265 41.4497 35.9105V35.3105H35.4137V35.9105C35.8097 35.8265 36.2537 35.7905 36.7337 35.7905H37.8497V43.2305H39.0137V35.7905ZM44.026 35.3105V43.2305H45.19V35.3105H44.026ZM52.2137 35.1905C49.6817 35.1905 48.2057 36.9785 48.2057 39.2585C48.2057 41.5385 49.6457 43.3505 52.2017 43.3505C54.7337 43.3505 56.2217 41.5385 56.2217 39.2585C56.2217 36.9905 54.7337 35.1905 52.2137 35.1905ZM52.2017 42.8225C50.2217 42.8225 49.4177 41.0585 49.4177 39.2585C49.4177 37.4705 50.2457 35.6825 52.2137 35.6825C54.1817 35.6825 55.0097 37.4705 55.0097 39.2585C55.0097 41.0585 54.1817 42.8225 52.2017 42.8225ZM64.7537 35.3105C64.8377 35.7305 64.8617 36.1865 64.8737 36.6305L64.9577 41.3945H64.9097L59.5337 35.2505H59.1737V43.2305H59.9537C59.8457 42.8585 59.8457 42.3665 59.8337 41.9105L59.7377 37.2425H59.7857L65.1737 43.2905H65.5337V35.3105H64.7537Z" fill="white"/>
<g clip-path="url(#clip0_31_668)">
<path d="M33 15.4276C32.351 15.4276 31.7166 15.2352 31.177 14.8746C30.6374 14.5141 30.2169 14.0016 29.9685 13.402C29.7202 12.8025 29.6552 12.1427 29.7818 11.5062C29.9084 10.8697 30.2209 10.2851 30.6798 9.82617C31.1387 9.36728 31.7234 9.05477 32.3599 8.92816C32.9964 8.80155 33.6561 8.86653 34.2557 9.11488C34.8553 9.36323 35.3677 9.7838 35.7283 10.3234C36.0888 10.863 36.2813 11.4974 36.2813 12.1464C36.2802 13.0163 35.9342 13.8503 35.319 14.4654C34.7039 15.0805 33.8699 15.4266 33 15.4276ZM33 10.1776C32.6106 10.1776 32.23 10.2931 31.9062 10.5094C31.5825 10.7257 31.3301 11.0332 31.1811 11.393C31.0321 11.7527 30.9931 12.1485 31.0691 12.5304C31.145 12.9123 31.3326 13.2631 31.6079 13.5385C31.8832 13.8138 32.234 14.0013 32.6159 14.0773C32.9978 14.1532 33.3937 14.1143 33.7534 13.9653C34.1132 13.8162 34.4206 13.5639 34.637 13.2401C34.8533 12.9164 34.9688 12.5357 34.9688 12.1464C34.9682 11.6244 34.7606 11.1239 34.3915 10.7548C34.0224 10.3857 33.522 10.1781 33 10.1776Z" fill="white"/>
<path d="M33 23.3026L27.4639 16.7736C27.387 16.6755 27.3108 16.5769 27.2355 16.4776C26.2898 15.2319 25.779 13.7104 25.7813 12.1464C25.7813 10.2318 26.5418 8.39571 27.8956 7.04194C29.2494 5.68816 31.0855 4.92761 33 4.92761C34.9145 4.92761 36.7507 5.68816 38.1044 7.04194C39.4582 8.39571 40.2188 10.2318 40.2188 12.1464C40.221 13.7096 39.7104 15.2305 38.7652 16.4756L38.7645 16.4776C38.7645 16.4776 38.5676 16.7362 38.5381 16.771L33 23.3026ZM28.2829 15.6868C28.2829 15.6868 28.4364 15.889 28.4712 15.9323L33 21.2735L37.5347 15.925C37.5636 15.889 37.7178 15.6849 37.7178 15.6849C38.4903 14.6671 38.9078 13.4241 38.9063 12.1464C38.9063 10.5799 38.284 9.07765 37.1764 7.97001C36.0687 6.86238 34.5664 6.24011 33 6.24011C31.4336 6.24011 29.9313 6.86238 28.8237 7.97001C27.716 9.07765 27.0938 10.5799 27.0938 12.1464C27.0924 13.4249 27.5097 14.6686 28.2829 15.6868Z" fill="white"/>
</g>
<path d="M27.3461 26.2305H38.6538" stroke="white" stroke-width="1.61538"/>
<defs>
<clipPath id="clip0_31_668">
<rect width="21" height="21" fill="white" transform="translate(22.5 3.61523)"/>
</clipPath>
</defs>
</svg>
