<svg width="61" height="50" viewBox="0 0 61 50" fill="none" xmlns="http://www.w3.org/2000/svg">
<path d="M1.32852 42.364C1.98852 42.856 2.80452 43.12 3.72852 43.12C5.43252 43.12 6.50052 42.172 6.50052 40.72C6.50052 39.364 5.43252 38.728 4.29252 38.428C3.44052 38.212 2.50452 37.792 2.50452 36.796C2.50452 35.992 3.14052 35.476 3.99252 35.476C4.89252 35.476 5.61252 36.04 6.12852 36.892V35.656C5.46852 35.2 4.76052 34.96 3.98052 34.96C2.46852 34.96 1.41252 35.872 1.41252 37.156C1.41252 38.548 2.57652 39.232 3.70452 39.508C4.55652 39.724 5.38452 40.132 5.38452 41.14C5.38452 42.04 4.72452 42.592 3.77652 42.592C2.84052 42.592 1.95252 42.052 1.32852 41.116V42.364ZM13.9059 43H15.3459L11.4819 38.668L15.3459 35.08H14.3739L10.4859 39.04V39.052L13.9059 43ZM9.30992 35.08L9.30992 43H10.4739L10.4739 35.08H9.30992ZM17.1935 35.08L19.7495 39.568L19.7495 43H20.9015L20.9015 39.568L23.4575 35.08H22.6175C22.4375 35.56 22.2335 35.944 21.9935 36.4L20.6375 39.064H20.6135L18.4295 35.08H17.1935ZM31.0061 43L31.0061 39.712H32.2301C34.1021 39.712 35.2301 38.764 35.2301 37.384C35.2301 35.992 34.2101 35.08 32.2421 35.08H29.8421L29.8421 43H31.0061ZM31.9301 35.56C33.4781 35.56 34.0781 36.316 34.0781 37.36C34.0781 38.44 33.4781 39.232 31.7741 39.232H31.0061V35.56H31.9301ZM39.353 35.02L35.921 43H36.785C36.869 42.58 36.977 42.184 37.145 41.788L37.889 40.06H40.685L41.933 43H43.121L39.677 35.02H39.353ZM39.281 36.76L40.493 39.58H38.069L39.257 36.76H39.281ZM45.4834 35.08V43H46.6474V39.184L50.1754 43H51.5914L48.1834 39.412H48.3154C49.8754 39.412 51.0034 38.38 51.0034 37.156C51.0034 35.86 49.8034 35.08 48.1834 35.08H45.4834ZM49.7914 37.204C49.7914 38.14 49.1914 39.028 47.5954 39.028H46.6474V35.56H47.6074C49.2994 35.56 49.7914 36.34 49.7914 37.204ZM58.6851 43H60.1251L56.2611 38.668L60.1251 35.08H59.1531L55.2651 39.04V39.052L58.6851 43ZM54.0891 35.08V43H55.2531V35.08H54.0891Z" fill="white"/>
<path d="M30.24 26.5484V16.6749V13.5975M30.24 13.5975H42.4161V9.84193L30.24 4L18.0638 9.84193V13.5975H30.24Z" stroke="white"/>
<path d="M16.26 16L18.0639 21.4116H22.5736L24.3774 26.3723" stroke="white"/>
<path d="M18.0639 21.4116L16.26 26.3723" stroke="white"/>
<path d="M44.22 16L42.4161 21.4116H37.9064L36.1026 26.3723" stroke="white"/>
<path d="M42.4161 21.4116L44.22 26.3723" stroke="white"/>
</svg>
