<svg width="60" height="50" viewBox="0 0 60 50" fill="none" xmlns="http://www.w3.org/2000/svg">
<path d="M0.828516 42.364C1.48852 42.856 2.30452 43.12 3.22852 43.12C4.93252 43.12 6.00052 42.172 6.00052 40.72C6.00052 39.364 4.93252 38.728 3.79252 38.428C2.94052 38.212 2.00452 37.792 2.00452 36.796C2.00452 35.992 2.64052 35.476 3.49252 35.476C4.39252 35.476 5.11252 36.04 5.62852 36.892V35.656C4.96852 35.2 4.26052 34.96 3.48052 34.96C1.96852 34.96 0.912516 35.872 0.912516 37.156C0.912516 38.548 2.07652 39.232 3.20452 39.508C4.05652 39.724 4.88452 40.132 4.88452 41.14C4.88452 42.04 4.22452 42.592 3.27652 42.592C2.34052 42.592 1.45252 42.052 0.828516 41.116L0.828516 42.364ZM13.4059 43H14.8459L10.9819 38.668L14.8459 35.08H13.8739L9.98592 39.04V39.052L13.4059 43ZM8.80992 35.08L8.80992 43H9.97392L9.97392 35.08H8.80992ZM16.6935 35.08L19.2495 39.568L19.2495 43H20.4015L20.4015 39.568L22.9575 35.08H22.1175C21.9375 35.56 21.7335 35.944 21.4935 36.4L20.1375 39.064H20.1135L17.9295 35.08H16.6935ZM30.5061 43L30.5061 39.712H31.7301C33.6021 39.712 34.7301 38.764 34.7301 37.384C34.7301 35.992 33.7101 35.08 31.7421 35.08H29.3421L29.3421 43H30.5061ZM31.4301 35.56C32.9781 35.56 33.5781 36.316 33.5781 37.36C33.5781 38.44 32.9781 39.232 31.2741 39.232H30.5061V35.56H31.4301ZM38.853 35.02L35.421 43H36.285C36.369 42.58 36.477 42.184 36.645 41.788L37.389 40.06H40.185L41.433 43H42.621L39.177 35.02H38.853ZM38.781 36.76L39.993 39.58H37.569L38.757 36.76H38.781ZM44.9834 35.08V43H46.1474V39.184L49.6754 43H51.0914L47.6834 39.412H47.8154C49.3754 39.412 50.5034 38.38 50.5034 37.156C50.5034 35.86 49.3034 35.08 47.6834 35.08H44.9834ZM49.2914 37.204C49.2914 38.14 48.6914 39.028 47.0954 39.028H46.1474V35.56H47.1074C48.7994 35.56 49.2914 36.34 49.2914 37.204ZM58.1851 43H59.6251L55.7611 38.668L59.6251 35.08H58.6531L54.7651 39.04V39.052L58.1851 43ZM53.5891 35.08V43H54.7531V35.08H53.5891Z" fill="#242C60"/>
<path d="M29.74 26.5484V16.6749V13.5975M29.74 13.5975H41.9161V9.84193L29.74 4L17.5638 9.84193V13.5975H29.74Z" stroke="#242C60"/>
<path d="M15.76 16L17.5639 21.4116H22.0736L23.8774 26.3723" stroke="#242C60"/>
<path d="M17.5639 21.4116L15.76 26.3723" stroke="#242C60"/>
<path d="M43.72 16L41.9161 21.4116H37.4064L35.6026 26.3723" stroke="#242C60"/>
<path d="M41.9161 21.4116L43.72 26.3723" stroke="#242C60"/>
</svg>
