<svg width="64" height="50" viewBox="0 0 64 50" fill="none" xmlns="http://www.w3.org/2000/svg">
<path d="M19.1361 41.9886H20.2521C20.7321 41.9886 21.1761 42.0246 21.5721 42.1086V41.5086H15.5361V42.1086C15.9321 42.0246 16.3761 41.9886 16.8561 41.9886H17.9721V49.4286H19.1361V41.9886ZM28.6964 49.4286V48.8286C28.3004 48.9126 27.8564 48.9486 27.3764 48.9486H25.3124V45.5046H28.3124V45.0246H25.3124V41.9886H27.3164C27.7964 41.9886 28.2404 42.0246 28.6364 42.1086V41.5086H24.1484V49.4286H28.6964ZM34.1866 41.4486L30.7546 49.4286H31.6186C31.7026 49.0086 31.8106 48.6126 31.9786 48.2166L32.7226 46.4886H35.5186L36.7666 49.4286H37.9546L34.5106 41.4486H34.1866ZM34.1146 43.1886L35.3266 46.0086H32.9026L34.0906 43.1886H34.1146ZM40.617 41.4486H40.257V49.4286H41.061C40.965 49.0206 40.929 48.5886 40.929 48.1086L40.881 44.2566H40.917L43.605 49.4886H43.953L46.605 44.2566H46.641L46.581 49.4286H47.685V41.5086H47.325L44.013 48.0846H43.965L40.617 41.4486Z" fill="#242C60"/>
<path d="M25.2941 34V29.8571H22L28.1176 5H24.8235L30 29.8571H27.1765V34" stroke="#242C60"/>
<path d="M35.8421 34V21.5714H33V12.8254H36.7895L39.6316 5H35.8421L38.6842 12.8254H42V21.5714H39.1579V34" stroke="#242C60"/>
</svg>
