<?xml version="1.0" encoding="utf-8"?>
<!-- Generator: Adobe Illustrator 26.0.3, SVG Export Plug-In . SVG Version: 6.00 Build 0)  -->
<svg version="1.1" id="Layer_1" xmlns="http://www.w3.org/2000/svg" xmlns:xlink="http://www.w3.org/1999/xlink" x="0px" y="0px"
	 viewBox="0 0 157 83" style="enable-background:new 0 0 157 83;" xml:space="preserve">
<style type="text/css">
	.st0{fill-rule:evenodd;clip-rule:evenodd;fill:#017EAD;}
	.st1{fill-rule:evenodd;clip-rule:evenodd;fill:#F48549;}
	.st2{enable-background:new    ;}
	.st3{fill:#017EAD;}
	.st4{fill:#F48549;}
</style>
<g>
	<polygon class="st0" points="37.9,43.1 13.5,11.5 6.1,11.5 6.1,57.2 14,57.2 14,24.7 39.2,57.2 46,57.2 46,11.5 37.9,11.5 	"/>
	<path class="st0" d="M150.9,34.2c0-3.2-0.5-6.2-1.7-9s-2.8-5.2-4.9-7.2s-4.7-3.7-7.7-4.8s-6.2-1.7-9.8-1.7h-17.1v45.8h17.1
		c3.5,0,6.9-0.5,9.8-1.7c3-1.2,5.6-2.8,7.7-4.8s3.9-4.5,4.9-7.3C150.3,40.5,150.9,37.5,150.9,34.2L150.9,34.2z M142.4,34.5
		c0,2.3-0.4,4.4-1.2,6.2c-0.8,1.9-1.8,3.5-3.2,4.9s-3,2.5-5,3.2c-1.9,0.8-4.2,1.2-6.6,1.2h-9V18.9h9c2.4,0,4.6,0.4,6.6,1.2
		c1.9,0.8,3.7,1.9,5,3.3c1.4,1.4,2.5,3,3.2,4.9C142.1,30.1,142.4,32.1,142.4,34.5z"/>
	<path class="st1" d="M53.4,39C57,58.1,81.6,65.2,93.9,49.5l1.5,5.6l1.8-7.4l7.5-2L97.3,44l-2-7.5l-1.8,7.4l-7.5,2l6.3,1.6
		C80.4,58.7,59.5,54.6,53.4,39z"/>
	<path class="st0" d="M76,19.2c6,0,11.3,3.7,13.8,9l7.9-2.1C94.5,17,86,10.4,76,10.4c-5.8,0-11,2.1-15,5.8
		c-11.9,10.6-5.9,31.5,9.8,33.2C55,39.8,60.7,19.2,76,19.2z"/>
</g>
<g class="st2">
	<path class="st3" d="M6.2,71.6L7.5,70c0.8,0.7,1.8,1,2.8,1c0.6,0,1-0.2,1-0.6l0,0c0-0.4-0.3-0.5-1.4-0.8c-1.8-0.4-3.2-0.9-3.2-2.7
		l0,0c0-1.6,1.3-2.7,3.3-2.7c1.4,0,2.6,0.4,3.5,1.1L12.2,67c-0.8-0.5-1.6-0.8-2.4-0.8c-0.6,0-0.9,0.2-0.9,0.5l0,0
		c0,0.4,0.3,0.6,1.5,0.8c2,0.4,3.2,1.1,3.2,2.6l0,0c0,1.7-1.4,2.8-3.4,2.8C8.7,73,7.3,72.5,6.2,71.6z"/>
	<path class="st3" d="M14.8,64.3h3.6c2.1,0,3.5,1.1,3.5,3l0,0c0,2-1.5,3.1-3.7,3.1H17v2.4h-2.4v-8.5H14.8z M18.3,68.6
		c0.8,0,1.3-0.4,1.3-1.1l0,0c0-0.7-0.5-1.1-1.4-1.1h-1.1v2.2H18.3z"/>
	<path class="st3" d="M23,64.3h4c1.3,0,2.2,0.3,2.8,0.9c0.5,0.5,0.8,1.1,0.8,2l0,0c0,1.3-0.7,2.2-1.7,2.6l2,3h-2.7l-1.7-2.6l0,0h-1
		v2.6H23V64.3z M26.9,68.4c0.8,0,1.3-0.4,1.3-1l0,0c0-0.7-0.5-1-1.3-1h-1.5v2H26.9z"/>
	<path class="st3" d="M31.7,64.3h6.8v2H34v1.3h4.1v1.9H34v1.3h4.6v2h-6.9C31.7,72.8,31.7,64.3,31.7,64.3z"/>
	<path class="st3" d="M42.7,64.3H45l3.6,8.6h-2.5l-0.6-1.5h-3.3l-0.6,1.5h-2.5L42.7,64.3z M44.8,69.5l-0.9-2.4l-1,2.4H44.8z"/>
	<path class="st3" d="M49.4,64.3h3.3c3,0,4.8,1.7,4.8,4.2l0,0c0,2.5-1.8,4.3-4.8,4.3h-3.2L49.4,64.3L49.4,64.3z M52.8,70.7
		c1.4,0,2.3-0.8,2.3-2.2l0,0c0-1.4-0.9-2.1-2.3-2.1h-1v4.3C51.8,70.7,52.8,70.7,52.8,70.7z"/>
	<path class="st3" d="M58.8,64.3h2.4v8.5h-2.4V64.3z"/>
	<path class="st3" d="M62.7,64.3h2.2l3.5,4.5v-4.5h2.3v8.5h-2.1L65,68.2v4.7h-2.3V64.3z"/>
	<path class="st3" d="M71.9,68.6L71.9,68.6c0-2.5,1.9-4.4,4.6-4.4c1.5,0,2.6,0.5,3.4,1.2l-1.4,1.7c-0.6-0.5-1.2-0.8-2.1-0.8
		c-1.2,0-2.2,1-2.2,2.3l0,0c0,1.4,1,2.4,2.3,2.4c0.6,0,1-0.1,1.4-0.4v-1h-1.7v-1.7h3.9v3.8C79.2,72.4,78,73,76.4,73
		C73.9,73,71.9,71.2,71.9,68.6z"/>
	<path class="st3" d="M87,66.4h-2.6v-2.1h7.5v2.1h-2.6v6.4H87V66.4z"/>
	<path class="st3" d="M92.9,64.3h2.4v3.2h3v-3.2h2.4v8.5h-2.4v-3.2h-3v3.2h-2.4V64.3z"/>
	<path class="st3" d="M102.2,64.3h6.8v2h-4.5v1.3h4.1v1.9h-4.1v1.3h4.6v2h-6.9V64.3z"/>
</g>
<g class="st2">
	<path class="st4" d="M113,71.6l1.3-1.6c0.8,0.7,1.8,1,2.8,1c0.6,0,1-0.2,1-0.6l0,0c0-0.4-0.3-0.5-1.4-0.8c-1.8-0.4-3.2-0.9-3.2-2.7
		l0,0c0-1.6,1.3-2.7,3.3-2.7c1.4,0,2.6,0.4,3.5,1.1L119,67c-0.8-0.5-1.6-0.8-2.4-0.8c-0.6,0-0.9,0.2-0.9,0.5l0,0
		c0,0.4,0.3,0.6,1.5,0.8c2,0.4,3.2,1.1,3.2,2.6l0,0c0,1.7-1.4,2.8-3.4,2.8C115.5,73,114.1,72.5,113,71.6z"/>
	<path class="st4" d="M121.6,64.3h2.5l2,3.3l2-3.3h2.5v8.5h-2.3v-4.9l-2.2,3.3l0,0l-2.2-3.3v4.9h-2.3
		C121.6,72.8,121.6,64.3,121.6,64.3z"/>
	<path class="st4" d="M132.2,64.3h2.4v8.5h-2.4V64.3z"/>
	<path class="st4" d="M136.1,64.3h2.4v6.4h4.1v2.1h-6.5V64.3z"/>
	<path class="st4" d="M143.6,64.3h6.8v2h-4.5v1.3h4.1v1.9h-4.1v1.3h4.6v2h-6.9L143.6,64.3L143.6,64.3z"/>
</g>
</svg>
