<svg width="18" height="18" viewBox="0 0 18 18" fill="none" xmlns="http://www.w3.org/2000/svg">
<g clip-path="url(#clip0_104_601)">
<path d="M8.99997 18C4.03743 18 0 13.9629 0 8.99997C0 4.03701 4.03743 0 8.99997 0C13.9625 0 17.9999 4.03743 17.9999 8.99997C17.9999 13.9625 13.9629 18 8.99997 18ZM8.99997 1.45061C4.83718 1.45061 1.45061 4.83718 1.45061 8.99997C1.45061 13.1628 4.83718 16.5493 8.99997 16.5493C13.1628 16.5493 16.5493 13.1628 16.5493 8.99997C16.5493 4.83718 13.1631 1.45061 8.99997 1.45061Z" fill="#017EAD"/>
<path d="M6.9271 7.01779C7.03375 6.74408 7.1824 6.50756 7.37335 6.30716C7.56496 6.10581 7.79601 5.94974 8.06652 5.83792C8.33666 5.7248 8.63884 5.66889 8.97327 5.66889C9.40466 5.66889 9.76464 5.72801 10.0536 5.84695C10.3421 5.96554 10.5745 6.11324 10.7509 6.28904C10.927 6.4655 11.0534 6.6555 11.1293 6.85845C11.205 7.06235 11.2431 7.25271 11.2431 7.42851C11.2431 7.71969 11.205 7.96007 11.1293 8.14847C11.0534 8.33687 10.9591 8.49782 10.8466 8.63155C10.7338 8.76535 10.6097 8.87942 10.4727 8.97347C10.3364 9.06782 10.2071 9.16187 10.0856 9.25622C9.96409 9.35027 9.85614 9.45786 9.76209 9.57936C9.66774 9.70056 9.60827 9.85272 9.58438 10.0347V10.3811H8.35383V9.97071C8.37196 9.70959 8.42234 9.49113 8.50409 9.31503C8.5862 9.13893 8.68179 8.98832 8.79105 8.86362C8.90061 8.73951 9.01599 8.63126 9.13778 8.54012C9.25898 8.44868 9.37109 8.35754 9.47483 8.26735C9.57761 8.17556 9.66162 8.07575 9.72561 7.96619C9.78924 7.85729 9.81805 7.71963 9.81187 7.55577C9.81187 7.27624 9.74367 7.06978 9.60666 6.93628C9.47031 6.80219 9.28031 6.73558 9.03696 6.73558C8.8731 6.73558 8.73193 6.76725 8.61329 6.83094C8.49464 6.89463 8.39774 6.98024 8.32151 7.08653C8.24558 7.19318 8.18932 7.31789 8.15314 7.46012C8.1166 7.6036 8.09854 7.75611 8.09854 7.92092H6.75879C6.76455 7.59201 6.82046 7.2918 6.9271 7.01779ZM9.6571 10.9282V12.3313H8.22586V10.9282H9.6571Z" fill="#017EAD"/>
</g>
<defs>
<clipPath id="clip0_104_601">
<rect width="18" height="18" fill="white"/>
</clipPath>
</defs>
</svg>
