<svg xmlns="http://www.w3.org/2000/svg" viewBox="0 0 168.61 45.18"><defs><style>.cls-1{fill:#fff;}</style></defs><g id="Layer_2" data-name="Layer 2"><g id="Artwork"><path id="_12" data-name="12" class="cls-1" d="M168.26,21.23a9.44,9.44,0,0,1-.59,1.59c-2.3,4.89-7.31,8.16-11.53,11.23-4.85,3.54-9.89,6.8-15,9.92l-1.58,1c-1.17.73-2.14-.31-2.17-2.3s.89-4.21,2.06-4.93c3.38-2.1,6.72-4.28,10.05-6.48l5-3.32c1.47-1,2.86-2.06,4.28-3.06l.51-.4.08-.06-1.65.51c-5.44,1.81-10.75,4-16.23,5.84a162.74,162.74,0,0,1-18.81,5c-10.59,2.14-22.31-.61-32.2-4.5C75.75,25.45,63,15.77,48,10.58A45.55,45.55,0,0,0,30.87,7.8a32.44,32.44,0,0,0-4,.46A32.05,32.05,0,0,0,23,9.19a33.54,33.54,0,0,0-3.67,1.35,36.67,36.67,0,0,0-3.49,1.75c-1.14.64-2.24,1.35-3.31,2.09s-2.13,1.56-3.14,2.4-2,1.75-3,2.67-2,2-2.95,3l-.69.77C1.63,24.5.45,24.12.1,22.4A6.93,6.93,0,0,1,1.47,17,71.15,71.15,0,0,1,8,10.48,42.65,42.65,0,0,1,23.3,1.58c.85-.26,1.7-.49,2.57-.69C42.58-2.95,58.84,6.42,73,14.06,81,18.31,88.91,22.62,97.46,25.49a55.75,55.75,0,0,0,25.4,2.64q1.42-.19,2.85-.45c9.16-1.67,17.81-5.15,26.54-8.27l3-1.06.53-.17-.94-.2c-6.73-1.27-13.51-2.34-20.27-3.49l-3.42-.59c-1.07-.18-2.18-.5-3.24-.62L127,13.1c-1.07-.21-1.55-2.09-1.07-4.21s1.71-3.64,2.78-3.44c10.17,1.9,20.43,3.49,30.6,5.46,3.06.59,6.42,1.4,8.18,4A7.63,7.63,0,0,1,168.26,21.23Z"/></g></g></svg>