<svg xmlns="http://www.w3.org/2000/svg" viewBox="0 0 261.9 44.57"><defs><style>.cls-1{fill:#50555b;}.cls-2{fill:#e77300;}.cls-3{fill:#919200;}.cls-4{fill:#cb122d;}.cls-5{fill:#0074c9;}</style></defs><g id="Layer_2" data-name="Layer 2"><g id="Artwork"><path class="cls-1" d="M52,11.59h4.21V34.16a9,9,0,0,1,.87-1.1l7.69-8.35h4.72l-5.83,6.42,6.43,13H65.45l-5-10L56.19,39v5.13H52Z"/><path class="cls-1" d="M72.94,11.59h4.38V44.14H72.94Z"/><path class="cls-1" d="M94.82,44.14a17,17,0,0,1-.67-4A6.52,6.52,0,0,1,92.3,43a7.5,7.5,0,0,1-4.73,1.58c-3.79,0-6.43-2.44-6.43-6,0-3,2-5.12,5.6-6a28.79,28.79,0,0,1,7.41-.67V30.42c0-2-1.38-3-4.14-3s-4,.9-4.49,3l-3.75-.55a5.35,5.35,0,0,1,2.57-4,10.71,10.71,0,0,1,6.22-1.54c3.35,0,5.4.67,6.66,2.13,1,1.1,1.22,2.17,1.22,5v8.74a14.9,14.9,0,0,0,.59,4Zm-.67-9.9c-5.6,0-8.51,1.38-8.51,4.06,0,1.82,1.3,2.92,3.42,2.92A4.87,4.87,0,0,0,94.15,36Z"/><path class="cls-1" d="M112.4,44.14a17,17,0,0,1-3.08.43A5.89,5.89,0,0,1,105.19,43c-1-1-1.34-2.21-1.34-4.85l.27-10h-2.68V24.71h2.68V19.66h4v5.05H112v3.43H108.1v9.45c0,2.45.71,3.16,3.19,3.16.16,0,.63,0,1.11,0Z"/><path class="cls-1" d="M131.08,37.4a9.43,9.43,0,0,1-1.81,4.29,7.44,7.44,0,0,1-6.15,2.84c-5,0-8.28-4.06-8.28-10.13s3.51-10.09,8.67-10.09a7.28,7.28,0,0,1,5.79,2.45A7.57,7.57,0,0,1,131.08,31l-3.79.51c-.31-2.4-1.53-3.62-3.54-3.62-2.68,0-4.26,2.52-4.26,6.7,0,3.82,1.5,6.11,4,6.11,1.93,0,3.23-1.26,3.82-3.71Z"/><path class="cls-1" d="M134.47,11.59h4.37V28.1c1.23-2.92,3-4.22,5.8-4.22a5.42,5.42,0,0,1,5,2.48,7.52,7.52,0,0,1,1,4.42V44.14h-4.38V31.41c0-2.45-1.06-3.75-3-3.75a4.17,4.17,0,0,0-3.55,2.13,8.8,8.8,0,0,0-.83,4.26V44.14h-4.37Z"/><path class="cls-1" d="M177.27,37.49a9.26,9.26,0,0,1-1.79,4.24,7.35,7.35,0,0,1-6.08,2.81c-4.91,0-8.18-4-8.18-10s3.47-10,8.57-10A7.2,7.2,0,0,1,175.52,27a7.52,7.52,0,0,1,1.75,4.21l-3.74.5c-.31-2.37-1.52-3.58-3.51-3.58-2.64,0-4.2,2.49-4.2,6.62,0,3.78,1.48,6,3.93,6,1.91,0,3.2-1.25,3.78-3.66Z"/><path class="cls-1" d="M179.37,34.49c0-5.84,3.74-9.93,9-9.93a7.92,7.92,0,0,1,7.28,4,10.43,10.43,0,0,1,1.6,6c0,5.88-3.74,10-9.12,10A7.8,7.8,0,0,1,181.28,41,11.57,11.57,0,0,1,179.37,34.49Zm13.28,0c0-4.13-1.52-6.35-4.28-6.35s-4.4,2.3-4.4,6.43S185.56,41,188.29,41,192.65,38.66,192.65,34.45Z"/><path class="cls-1" d="M201.45,28.33H198.6V24.94h2.85c0-3,.31-4.28,1.44-5.53s2.57-1.67,5.45-1.67c.58,0,.82,0,1.56,0v3.43a7.06,7.06,0,0,0-1.17-.08c-1.36,0-2.26.27-2.69.85s-.43.74-.43,3h4.29v3.39h-4.29V44.15h-4.16Z"/><path class="cls-1" d="M214.08,28.33h-2.84V24.94h2.84c0-3,.31-4.28,1.44-5.53s2.57-1.67,5.45-1.67c.59,0,.82,0,1.56,0v3.43a6.94,6.94,0,0,0-1.17-.08c-1.36,0-2.26.27-2.68.85s-.43.74-.43,3h4.28v3.39h-4.28V44.15h-4.17Z"/><path class="cls-1" d="M241.18,38.54c-1.28,3.89-4.25,6-8.53,6-5.38,0-8.84-3.9-8.84-9.94s3.66-10,9-10c5.54,0,8.61,3.73,8.65,10.51H228.33v.55c0,3.54,1.71,5.53,4.59,5.53,2.18,0,3.43-.9,4.33-3.16ZM237,32.27a4.7,4.7,0,0,0-1-3,4,4,0,0,0-3.35-1.68c-2.45,0-4,1.64-4.36,4.68Z"/><path class="cls-1" d="M261.59,38.54c-1.29,3.89-4.25,6-8.53,6-5.38,0-8.84-3.9-8.84-9.94s3.66-10,9-10c5.53,0,8.61,3.73,8.65,10.51H248.73v.55c0,3.54,1.72,5.53,4.6,5.53,2.18,0,3.43-.9,4.32-3.16Zm-4.17-6.27a4.7,4.7,0,0,0-1-3,4,4,0,0,0-3.35-1.68c-2.46,0-4,1.64-4.37,4.68Z"/><path class="cls-2" d="M27.84,20.07V32.78H21.15q.34,5.72,6.69,6.46v5.11a16.43,16.43,0,0,1-9.24-3.12Q13,37.2,13,29.71V20.07Z"/><path class="cls-3" d="M43.45,11.51v7.87a10.88,10.88,0,0,1-4.58,9.4,13.36,13.36,0,0,1-7.55,2.54V27.16q5.19-.6,5.47-5.28H31.32V11.51Z"/><path class="cls-4" d="M9.83,16.85v8.41H5.4Q5.63,29,9.83,29.54v3.37a10.79,10.79,0,0,1-6.12-2.06A8.83,8.83,0,0,1,0,23.23V16.85Z"/><path class="cls-5" d="M25.6,0V9H20.85q.24,4.07,4.75,4.59v3.62A11.65,11.65,0,0,1,19,15a9.44,9.44,0,0,1-4-8.16V0Z"/></g></g></svg>