<svg xmlns="http://www.w3.org/2000/svg" viewBox="0 0 74.5 98.3"><defs><style>.cls-1{fill:#50555b;}</style></defs><g id="Layer_2" data-name="Layer 2"><g id="Artwork"><path class="cls-1" d="M74.08,71.78A43,43,0,0,1,52.35,57.25c7.45-8,13.57-17.19,16.33-27.78,1.73-6.63,2.48-14.75-.39-21.16a15.26,15.26,0,0,0-5.9-7.1,10,10,0,0,0-9.54,0c-3.26,1.64-5.5,4.94-7.35,8A44.31,44.31,0,0,0,40,41.27,42,42,0,0,0,47.87,58c-2.21,2.3-4.52,4.48-6.89,6.53C29.3,74.64,16,82.76,4.56,93.12l.36-11.61c0-.93-1.08-1-1.81-1S.8,81.1.77,82Q.54,89.57.31,97.16l-.11.1c-.7.7.61,1.07,1.08,1q10.77-.78,21.57-1.16c.87,0,2.24-.29,2.75-1.09s-.43-1.06-1.07-1q-9.66.34-19.28,1C16.71,85,30.42,76.66,42.58,66.45c2.39-2,4.74-4.13,7-6.36A44.49,44.49,0,0,0,65.87,72a44,44,0,0,0,4.88,1.69,3.89,3.89,0,0,0,2.92-.43C74.08,73,75.06,72.06,74.08,71.78ZM45.94,46.13A42.86,42.86,0,0,1,51.43,6,11.39,11.39,0,0,1,55,2.38,3.47,3.47,0,0,1,58,2.53c2.72,1.14,4.71,3.82,6,6.4,2.92,6.05,2.41,13.61.93,20-2.29,9.8-7.59,18.53-14.2,26.08A41.14,41.14,0,0,1,45.94,46.13Z"/></g></g></svg>