<svg xmlns="http://www.w3.org/2000/svg" viewBox="0 0 70.75 118.2"><defs><style>.cls-1{fill:#50555b;}</style></defs><g id="Layer_2" data-name="Layer 2"><g id="Artwork"><path class="cls-1" d="M68.79,100.11c-.91.11-2.17.56-2.48,1.54l-3.06,9.59C56.48,98.77,47.8,87.46,40.32,75.42a129.48,129.48,0,0,1-8.11-15,47,47,0,0,0,9.93-8.85A46.72,46.72,0,0,0,50.65,8c-1.09-3.34-2.9-6.59-6.5-7.6C40.73-.59,37,.45,34,2.13,27.18,5.9,23.73,13.16,22,20.44c-3.17,13.47-.17,27.64,5.35,40.23a41.25,41.25,0,0,1-18.6,6,41.81,41.81,0,0,1-5.25,0,4.38,4.38,0,0,0-3.1.83c-.6.53-.62,1.29.36,1.36A51.19,51.19,0,0,0,28.3,62.74q1.18,2.52,2.46,4.94C39,83.07,50.21,96.59,58.58,111.89c.3.55.59,1.1.88,1.65-5-2.12-10-4.21-15.09-6.2a3.92,3.92,0,0,0-3.09.46c-.52.3-1.41,1.14-.44,1.52q10.67,4.2,21.16,8.8c.7.3,4.58-.3,4-1.58a2.26,2.26,0,0,1-.11-.22q2.43-7.59,4.85-15.19C71,100.16,69.35,100.05,68.79,100.11ZM25.17,32a44.53,44.53,0,0,1,4.72-21.67c2.26-4.31,8.56-11,13.49-6.4,2.52,2.38,3.37,6.43,4,9.69a45,45,0,0,1,.92,10.92A46.16,46.16,0,0,1,42.6,45.05a42.39,42.39,0,0,1-11.4,13A71.69,71.69,0,0,1,25.17,32Z"/></g></g></svg>