<svg xmlns="http://www.w3.org/2000/svg" viewBox="0 0 13.08 12.88"><defs><style>.cls-1{fill:#f6f6f7;}</style></defs><g id="Layer_2" data-name="Layer 2"><g id="Artwork"><path class="cls-1" d="M7.06,9.65a.14.14,0,0,0,0,.1l0,.09.05.1V10a.21.21,0,0,1-.05.15.83.83,0,0,0-.17.28c0,.11-.09.2-.13.27l0,0a0,0,0,0,0,.05.05l0,.1-.1.1c-.16.07-.25.16-.25.3v.1l0,.1a.2.2,0,0,1,0,.14l-.06.05a.24.24,0,0,0,0,.15v0a.7.7,0,0,1-.25.4,1.2,1.2,0,0,1-.4.4.32.32,0,0,1-.2.1s-.1-.05-.2-.05a.78.78,0,0,0-.35.05l-.1,0a.17.17,0,0,1-.1,0,.22.22,0,0,1-.24-.25v-.2A3.59,3.59,0,0,0,4.62,12a1.6,1.6,0,0,1,.15-.48.16.16,0,0,0,.05-.14v-1a.46.46,0,0,1-.05-.2V9.89a.22.22,0,0,0,.15-.24V9.3a.13.13,0,0,0-.15-.15h0l-.1,0c-.06,0-.09,0-.09,0h-.2v0l-.1.15a.14.14,0,0,1-.1,0s-.1-.05-.2-.05a0,0,0,0,1-.05.05l-.1,0h-.1a.78.78,0,0,0-.25.1.27.27,0,0,0-.2.05.41.41,0,0,1-.3.1H2.74a1.78,1.78,0,0,1-.55,0h0a0,0,0,0,1-.05,0H2a0,0,0,0,1-.05,0c-.07-.07-.12-.1-.15-.1s-.05,0-.05,0,0,0-.05,0a1.51,1.51,0,0,1-.6-.35A.15.15,0,0,1,1,9.05L.8,9,.65,8.8c-.17-.06-.37-.3-.6-.7A.14.14,0,0,1,0,8V8a.56.56,0,0,1,.2-.34.76.76,0,0,1,.55-.25l.39-.1a.14.14,0,0,0,.1,0,.44.44,0,0,0,.25,0l.25,0a1.53,1.53,0,0,1,.3,0l.1,0h.1a.44.44,0,0,0,.25,0H3a.54.54,0,0,0,.3,0l.1-.1c.07.1.13.15.2.15v0l.05-.05,0,0a0,0,0,0,0,0,0L3.93,7H4s.08,0,.15-.1a.31.31,0,0,1,.15-.15V6.56c-.07,0-.11,0-.13-.07a1.08,1.08,0,0,0-.07-.18A1,1,0,0,0,4,6.16.87.87,0,0,0,3.78,6a.31.31,0,0,1-.2-.14,1,1,0,0,1-.17-.23,1,1,0,0,0-.13-.17,1.29,1.29,0,0,0-.2-.25.79.79,0,0,0-.25-.17l-.24-.13-.25-.15a.26.26,0,0,1-.1-.2v-.2c-.14,0-.2-.18-.2-.44A.42.42,0,0,0,2,3.68V3.13a.4.4,0,0,1-.05-.25,1.15,1.15,0,0,1,.25-.69.41.41,0,0,1,.3-.2h.15a1.17,1.17,0,0,1,.54.3l.35.25.1,0a1,1,0,0,0,.3.35.7.7,0,0,1,.25.35l.25.25c.13,0,.23.17.29.4l.1,0a.55.55,0,0,1,.2.15,0,0,0,0,0,.05,0h0v0a.21.21,0,0,0,0,.15.27.27,0,0,0,.15.08.35.35,0,0,1,.15.07l0,.05.1-.2a.31.31,0,0,0,.1-.24.26.26,0,0,0-.1-.2V3.78c.16-.07.28-.32.35-.75a.14.14,0,0,1,0-.1.32.32,0,0,1,.05-.15l0,0V2.54a1.4,1.4,0,0,1,.07-.4,1.65,1.65,0,0,0,.08-.45v-.1a1.57,1.57,0,0,1,.24-.8V.55s0,0,0-.1,0,0-.06,0A.75.75,0,0,1,6.66.05l0,0A.24.24,0,0,1,7,.2l.8,1v.05a.14.14,0,0,0,0,.1s0,.08.1.15l.1.05v.05a.16.16,0,0,1,0,.1l-.05.1a5.8,5.8,0,0,1,.2.94,8.19,8.19,0,0,1,0,1,3.76,3.76,0,0,0-.1.7.2.2,0,0,1-.05.14.14.14,0,0,0,.1-.05V4.43s0-.06,0-.06h.1a.48.48,0,0,0,.24-.09.48.48,0,0,1,.25-.1c.23,0,.35-.09.35-.25s0-.1.15-.1a.3.3,0,0,0,.2,0,1.08,1.08,0,0,0,.6-.25.38.38,0,0,1,.24,0c0-.07.07-.1.1-.1h.05a.75.75,0,0,1,.43-.32L11.09,3l.79-.35c.14,0,.2-.09.2-.19s0-.09.1-.15h.05a.18.18,0,0,1,.15,0c.07,0,.1,0,.1,0s0,0,.1,0,.1.06.1.2v.09a8.57,8.57,0,0,1-.25,1.25l0,0-.05.05h-.05l0,0L12.18,4v.15a.13.13,0,0,1-.1,0L12,4.28h-.09a1.85,1.85,0,0,1-.6.69,4.26,4.26,0,0,1-.8.6L9.9,6,9.85,6h0l-.2.11a.76.76,0,0,1-.6.49.75.75,0,0,1-.3.2,1.13,1.13,0,0,0,.4.05h.2a0,0,0,0,0,0,0H9.4l-.05,0h0a.3.3,0,0,1,.2-.1.37.37,0,0,1,.25.1l.39.1h.25a.69.69,0,0,1,.35,0,3.4,3.4,0,0,0,1,.15h.15a2.89,2.89,0,0,1,1.15.2l.05,0v0a.19.19,0,0,1-.1,0,3.45,3.45,0,0,1-.75,0,2.91,2.91,0,0,0-1.09.15h-.05a.49.49,0,0,1-.2,0h-.4c-.13,0-.2,0-.2.15a.14.14,0,0,1-.1.05h0A1.52,1.52,0,0,0,9.65,8a1.69,1.69,0,0,1-.55.14H9c-.07,0-.17.07-.3.2L9,8.6a.14.14,0,0,1,.13.05l.07.15a.48.48,0,0,0,.1.15.88.88,0,0,0,.25.5.75.75,0,0,1,.25.39,3.2,3.2,0,0,0,.54.85,3.7,3.7,0,0,1,.6,1.14v.1h-.05s-.05,0-.05,0a3.14,3.14,0,0,1-.5-.54,1.87,1.87,0,0,1-.37-.4,1.39,1.39,0,0,0-.42-.4c-.1,0-.18-.1-.25-.3a1.42,1.42,0,0,0-.35-.3H8.75a1.44,1.44,0,0,0-.54-.37.91.91,0,0,1-.5-.37.29.29,0,0,0-.2-.1H7.26l0,.05a0,0,0,0,1,0-.05v.25A.4.4,0,0,1,7.06,9.65Z"/></g></g></svg>