<svg xmlns="http://www.w3.org/2000/svg" xmlns:xlink="http://www.w3.org/1999/xlink" viewBox="0 0 3040.3 359.24"><defs><style>.cls-1,.cls-3,.cls-4,.cls-5,.cls-6{fill:none;}.cls-2{clip-path:url(#clip-path);}.cls-3{stroke:#c8c8c8;}.cls-3,.cls-4,.cls-5,.cls-6{stroke-miterlimit:10;stroke-width:3.18px;}.cls-4{stroke:#4ec3e0;}.cls-5{stroke:#fff;}.cls-6{stroke:#00b097;}</style><clipPath id="clip-path" transform="translate(688.15 -10.23)"><rect class="cls-1" width="1919.72" height="372.73" transform="translate(1919.72 372.73) rotate(-180)"/></clipPath></defs><g id="Layer_2" data-name="Layer 2"><g id="design"><g class="cls-2"><path class="cls-3" d="M2352.15,230a265.82,265.82,0,0,0-107,22.47c-32.42,14.41-61.58,35.17-93,51.65-110.4,57.86-250.06,57.91-359.44.57-31.43-16.47-60.59-37.23-93-51.64a266.34,266.34,0,0,0-107.57-23" transform="translate(688.15 -10.23)"/><path class="cls-4" d="M2352.15,179.7a265.65,265.65,0,0,0-107,22.46c-32.42,14.41-61.59,35.17-93,51.65-82.8,43.4-182.06,54.27-272.66,32.81a371.42,371.42,0,0,1-86.79-32.24c-31.42-16.47-60.59-37.23-93-51.64a267.45,267.45,0,0,0-107.63-23" transform="translate(688.15 -10.23)"/><path class="cls-3" d="M2352.15,367.88a265.68,265.68,0,0,1-107-22.47c-32.42-14.41-61.59-35.17-93-51.64-110.4-57.87-250.06-57.92-359.45-.58-31.42,16.47-60.58,37.24-93,51.65a266.56,266.56,0,0,1-107.59,23" transform="translate(688.15 -10.23)"/><path class="cls-4" d="M1879.51,286.62a371.42,371.42,0,0,1-86.79-32.24c-31.42-16.47-60.59-37.23-93-51.64" transform="translate(688.15 -10.23)"/><path class="cls-3" d="M1212,211.15c-62.43.1-124.73-14.23-179.46-42.91-31.42-16.48-60.59-37.24-93-51.65A266.3,266.3,0,0,0,832,93.55" transform="translate(688.15 -10.23)"/><path class="cls-5" d="M1032.65,118c-31.43-16.48-60.59-37.24-93-51.65A267.66,267.66,0,0,0,832,43.28" transform="translate(688.15 -10.23)"/><path class="cls-3" d="M1592.08,230a265.82,265.82,0,0,0-107,22.47c-32.42,14.41-61.59,35.17-93,51.65-110.4,57.86-250.06,57.91-359.45.57-31.42-16.47-60.59-37.23-93-51.64A266.31,266.31,0,0,0,832,230" transform="translate(688.15 -10.23)"/><path class="cls-4" d="M1592.08,179.7a265.7,265.7,0,0,0-107,22.46c-32.42,14.41-61.58,35.17-93,51.65-82.8,43.4-182.06,54.27-272.66,32.81a371.18,371.18,0,0,1-86.78-32.24c-31.43-16.47-60.59-37.23-93-51.64A267.5,267.5,0,0,0,832,179.7" transform="translate(688.15 -10.23)"/><path class="cls-3" d="M1592.08,367.88a265.68,265.68,0,0,1-107-22.47c-32.42-14.41-61.59-35.17-93-51.64-110.4-57.87-250.07-57.92-359.45-.58-31.42,16.47-60.59,37.24-93,51.65a266.6,266.6,0,0,1-107.6,23" transform="translate(688.15 -10.23)"/><path class="cls-6" d="M1032.65,118c-31.43-16.48-60.59-37.24-93-51.65A267.66,267.66,0,0,0,832,43.28" transform="translate(688.15 -10.23)"/><path class="cls-4" d="M1119.43,286.62a371.18,371.18,0,0,1-86.78-32.24c-31.43-16.47-60.59-37.23-93-51.64" transform="translate(688.15 -10.23)"/><path class="cls-3" d="M832,93.55A265.61,265.61,0,0,0,725,116c-32.43,14.41-61.59,35.17-93,51.64-110.39,57.87-250.06,57.91-359.44.58-31.42-16.48-60.59-37.24-93-51.65a266.33,266.33,0,0,0-107.57-23" transform="translate(688.15 -10.23)"/><path class="cls-6" d="M832,43.28A265.69,265.69,0,0,0,725,65.75c-32.42,14.41-61.59,35.17-93,51.64C521.62,175.26,382,175.3,272.57,118c-31.42-16.48-60.58-37.24-93-51.65a267.62,267.62,0,0,0-107.63-23" transform="translate(688.15 -10.23)"/><path class="cls-4" d="M832,129.43A265.83,265.83,0,0,1,724.93,107c-32.42-14.41-61.58-35.17-93-51.64C521.53-2.55,381.86-2.6,272.48,54.74c-31.43,16.47-60.59,37.24-93,51.64A268.93,268.93,0,0,1,71.93,129.43" transform="translate(688.15 -10.23)"/><path class="cls-3" d="M832,179.7a265.88,265.88,0,0,1-107-22.47c-32.42-14.41-61.58-35.17-93-51.65C521.58,47.72,381.92,47.67,272.54,105c-31.43,16.47-60.59,37.23-93,51.64a266.65,266.65,0,0,1-107.6,23" transform="translate(688.15 -10.23)"/><path class="cls-3" d="M832,230a265.77,265.77,0,0,0-107,22.47c-32.43,14.41-61.59,35.17-93,51.65-110.39,57.86-250.06,57.91-359.44.57-31.42-16.47-60.59-37.23-93-51.64A266.34,266.34,0,0,0,71.93,230" transform="translate(688.15 -10.23)"/><path class="cls-4" d="M832,179.7a265.68,265.68,0,0,0-107,22.46c-32.42,14.41-61.59,35.17-93,51.65-82.8,43.4-182.06,54.27-272.66,32.81a371.42,371.42,0,0,1-86.79-32.24c-31.42-16.47-60.58-37.23-93-51.64a267.45,267.45,0,0,0-107.63-23" transform="translate(688.15 -10.23)"/><path class="cls-3" d="M832,367.88a265.71,265.71,0,0,1-107-22.47c-32.42-14.41-61.58-35.17-93-51.64-110.4-57.87-250.06-57.92-359.44-.58-31.43,16.47-60.59,37.24-93,51.65a266.64,266.64,0,0,1-107.6,23" transform="translate(688.15 -10.23)"/><path class="cls-6" d="M632,117.39C521.62,175.26,382,175.3,272.57,118c-31.42-16.48-60.58-37.24-93-51.65a267.62,267.62,0,0,0-107.63-23" transform="translate(688.15 -10.23)"/><path class="cls-4" d="M359.36,286.62a371.42,371.42,0,0,1-86.79-32.24c-31.42-16.47-60.58-37.23-93-51.64" transform="translate(688.15 -10.23)"/><path class="cls-3" d="M71.93,93.55A265.65,265.65,0,0,0-35.11,116c-32.42,14.41-61.58,35.17-93,51.64-110.4,57.87-250.06,57.91-359.44.58-31.43-16.48-60.59-37.24-93-51.65a266.33,266.33,0,0,0-107.57-23" transform="translate(688.15 -10.23)"/><path class="cls-6" d="M71.93,43.28A265.62,265.62,0,0,0-35,65.75c-32.43,14.41-61.59,35.17-93,51.64-110.4,57.87-250.07,57.91-359.45.58-31.42-16.48-60.59-37.24-93-51.65a267.62,267.62,0,0,0-107.63-23" transform="translate(688.15 -10.23)"/><path class="cls-4" d="M71.93,129.43A265.79,265.79,0,0,1-35.14,107c-32.42-14.41-61.59-35.17-93-51.64C-238.55-2.55-378.21-2.6-487.6,54.74c-31.42,16.47-60.59,37.24-93,51.64a268.88,268.88,0,0,1-107.53,23.05" transform="translate(688.15 -10.23)"/><path class="cls-3" d="M71.93,179.7a265.85,265.85,0,0,1-107-22.47c-32.42-14.41-61.59-35.17-93-51.65-110.4-57.86-250.06-57.91-359.45-.57-31.42,16.47-60.59,37.23-93,51.64a266.57,266.57,0,0,1-107.59,23" transform="translate(688.15 -10.23)"/><path class="cls-3" d="M71.93,230a265.82,265.82,0,0,0-107,22.47c-32.42,14.41-61.58,35.17-93,51.65-110.4,57.86-250.06,57.91-359.44.57-31.43-16.47-60.59-37.23-93-51.64a266.34,266.34,0,0,0-107.57-23" transform="translate(688.15 -10.23)"/><path class="cls-4" d="M71.93,179.7A265.61,265.61,0,0,0-35,202.16c-32.43,14.41-61.59,35.17-93,51.65-82.8,43.4-182.06,54.27-272.66,32.81a371.25,371.25,0,0,1-86.79-32.24c-31.42-16.47-60.59-37.23-93-51.64a267.45,267.45,0,0,0-107.63-23" transform="translate(688.15 -10.23)"/><path class="cls-3" d="M71.93,367.88a265.68,265.68,0,0,1-107-22.47c-32.42-14.41-61.59-35.17-93-51.64-110.4-57.87-250.06-57.92-359.45-.58-31.42,16.47-60.59,37.24-93,51.65a266.56,266.56,0,0,1-107.59,23" transform="translate(688.15 -10.23)"/><path class="cls-5" d="M-128,117.39c-110.4,57.87-250.07,57.91-359.45.58-31.42-16.48-60.59-37.24-93-51.65a267.62,267.62,0,0,0-107.63-23" transform="translate(688.15 -10.23)"/><path class="cls-4" d="M-400.71,286.62a371.25,371.25,0,0,1-86.79-32.24c-31.42-16.47-60.59-37.23-93-51.64" transform="translate(688.15 -10.23)"/></g></g></g></svg>