<svg width="16" height="16" viewBox="0 0 16 16" fill="none" xmlns="http://www.w3.org/2000/svg">
<path d="M8.306 1.10701C8.21728 1.03784 8.108 1.00027 7.9955 1.00027C7.883 1.00027 7.77372 1.03784 7.685 1.10701L0.5 6.70951L1.1215 7.49551L2 6.81051V13C2.00053 13.2651 2.10606 13.5191 2.29348 13.7065C2.4809 13.894 2.73495 13.9995 3 14H13C13.2651 13.9995 13.5191 13.894 13.7065 13.7065C13.8939 13.5191 13.9995 13.2651 14 13V6.81501L14.8785 7.50001L15.5 6.71401L8.306 1.10701ZM9 13H7V9.00001H9V13ZM10 13V9.00001C9.99973 8.73487 9.89429 8.48067 9.70681 8.2932C9.51934 8.10572 9.26513 8.00027 9 8.00001H7C6.73486 8.00027 6.48066 8.10572 6.29319 8.2932C6.10571 8.48067 6.00026 8.73487 6 9.00001V13H3V6.03101L8 2.13601L13 6.03601V13H10Z" fill="black"/>
</svg>
