<svg width="16" height="16" viewBox="0 0 16 16" fill="none" xmlns="http://www.w3.org/2000/svg">
<path d="M10.165 10.74L11.285 9.61999C11.4359 9.47101 11.6267 9.36903 11.8344 9.32643C12.0421 9.28382 12.2577 9.30243 12.455 9.37999L13.82 9.92499C14.0194 10.0059 14.1904 10.1441 14.3114 10.322C14.4324 10.5 14.498 10.7098 14.5 10.925V13.425C14.4988 13.5714 14.4681 13.716 14.4095 13.8502C14.351 13.9844 14.2659 14.1053 14.1594 14.2058C14.0529 14.3062 13.9272 14.384 13.7898 14.4346C13.6524 14.4852 13.5062 14.5074 13.36 14.5C3.79501 13.905 1.86501 5.80499 1.50001 2.70499C1.48306 2.55276 1.49854 2.39866 1.54543 2.25284C1.59232 2.10703 1.66955 1.97279 1.77204 1.85896C1.87453 1.74513 1.99996 1.65429 2.14008 1.59242C2.2802 1.53055 2.43184 1.49905 2.58501 1.49999H5.00001C5.21551 1.50063 5.4259 1.56572 5.6041 1.6869C5.78231 1.80809 5.92019 1.97981 6.00001 2.17999L6.54501 3.54499C6.62513 3.74152 6.64558 3.95731 6.60378 4.1654C6.56199 4.37348 6.45981 4.56464 6.31001 4.71499L5.19001 5.83499C5.19001 5.83499 5.83501 10.2 10.165 10.74Z" fill="black"/>
</svg>
