<svg width="16" height="16" viewBox="0 0 16 16" fill="none" xmlns="http://www.w3.org/2000/svg">
<path d="M8 1C6.61553 1 5.26216 1.41054 4.11101 2.17971C2.95987 2.94888 2.06266 4.04213 1.53285 5.32122C1.00303 6.6003 0.86441 8.00776 1.13451 9.36563C1.4046 10.7235 2.07129 11.9708 3.05026 12.9497C4.02922 13.9287 5.2765 14.5954 6.63437 14.8655C7.99224 15.1356 9.3997 14.997 10.6788 14.4672C11.9579 13.9373 13.0511 13.0401 13.8203 11.889C14.5895 10.7378 15 9.38447 15 8C14.9979 6.14413 14.2597 4.36489 12.9474 3.05259C11.6351 1.7403 9.85587 1.00212 8 1ZM10.5 2.553C11.0295 2.79707 11.5207 3.11692 11.958 3.5025L11.7515 4H10.5V2.553ZM6.689 13.8515C5.60702 13.6111 4.61299 13.0751 3.81759 12.3032C3.0222 11.5313 2.45665 10.5538 2.18392 9.4795C1.91119 8.4052 1.94197 7.2763 2.27285 6.21847C2.60373 5.16064 3.22172 4.2154 4.058 3.488L4.7325 4.5H6.4035L5.6535 6.5H3.64L2.949 8.574L4.2325 10.5H6.7325L7.4485 11.5735L6.689 13.8515ZM8 14C7.8985 14 7.799 13.99 7.6985 13.985L8.397 11.89C8.44556 11.7457 8.46031 11.5921 8.44011 11.4412C8.41991 11.2903 8.3653 11.146 8.2805 11.0195L7.5645 9.9455C7.47334 9.80837 7.34966 9.69592 7.20449 9.61819C7.05932 9.54046 6.89717 9.49985 6.7325 9.5H4.7675L4.0515 8.426L4.3605 7.5H5.5V8.5H6.5V7.0905L7.968 3.1755L7.032 2.8245L6.7785 3.5H5.2675L4.864 2.895C5.54797 2.46786 6.31226 2.18554 7.10966 2.06549C7.90705 1.94543 8.72059 1.99019 9.5 2.197V4C9.50027 4.26514 9.60571 4.51934 9.79319 4.70681C9.98067 4.89429 10.2349 4.99974 10.5 5H11.793C11.9244 5.00036 12.0545 4.97464 12.1759 4.92435C12.2972 4.87405 12.4074 4.80018 12.5 4.707L12.57 4.637L12.711 4.297C13.1147 4.80973 13.4318 5.38498 13.65 6H11.2995C11.0631 5.99927 10.8342 6.08259 10.6535 6.23509C10.4729 6.38759 10.3524 6.59934 10.3135 6.8325L10.015 8.553C9.97886 8.75679 10.0072 8.96678 10.096 9.15373C10.1848 9.34068 10.3297 9.49528 10.5105 9.596L11.593 10.328L12.322 12.151C11.7639 12.7352 11.0932 13.2003 10.3503 13.5181C9.60751 13.8359 8.80796 13.9998 8 14ZM12.4075 9.672L11.05 8.7545L11 8.7245L11.2995 7H13.9095C14.1714 8.47523 13.8595 9.99479 13.0375 11.2475L12.4075 9.672Z" fill="black"/>
</svg>
