<svg width="20" height="25" viewBox="0 0 20 25" fill="none" xmlns="http://www.w3.org/2000/svg">
<path d="M4.23182 5.45723V0.755737C4.23182 0.5687 4.30612 0.389323 4.43837 0.257068C4.57063 0.124813 4.75 0.050513 4.93704 0.050513C5.12408 0.050513 5.30346 0.124813 5.43571 0.257068C5.56797 0.389323 5.64227 0.5687 5.64227 0.755737V5.45723C5.64227 5.64427 5.56797 5.82364 5.43571 5.9559C5.30346 6.08815 5.12408 6.16245 4.93704 6.16245C4.75 6.16245 4.57063 6.08815 4.43837 5.9559C4.30612 5.82364 4.23182 5.64427 4.23182 5.45723ZM8.92156 0.6382C8.8791 0.465164 8.77273 0.314611 8.62381 0.2168C8.47489 0.118989 8.29446 0.081169 8.1188 0.110942C7.94314 0.140716 7.78526 0.235875 7.67688 0.377295C7.56851 0.518715 7.51768 0.695913 7.53462 0.873274L8.46316 6.4563C8.46316 7.39148 8.09166 8.28837 7.43039 8.94964C6.76911 9.61092 5.87223 9.98242 4.93704 9.98242C4.00186 9.98242 3.10497 9.61092 2.4437 8.94964C1.78242 8.28837 1.41092 7.39148 1.41092 6.4563L2.33947 0.873274C2.36256 0.779139 2.36601 0.681252 2.34958 0.585726C2.33316 0.490199 2.29722 0.399084 2.24401 0.318069C2.1908 0.237053 2.12146 0.167876 2.04031 0.114857C1.95917 0.0618376 1.86797 0.026114 1.77241 0.0099165C1.67684 -0.00628096 1.57896 -0.00260469 1.48488 0.0207159C1.3908 0.0440365 1.30254 0.0865009 1.2256 0.145458C1.14867 0.204414 1.08471 0.278598 1.03773 0.363377C0.990741 0.448156 0.961738 0.54171 0.952526 0.6382L0.0122267 6.27999C0.00250811 6.31837 -0.00145288 6.35798 0.000473178 6.39753C0.00446801 7.58388 0.433544 8.7295 1.20987 9.62658C1.98619 10.5237 3.05834 11.1128 4.23182 11.2871V23.3229C4.23182 23.5099 4.30612 23.6893 4.43837 23.8216C4.57063 23.9538 4.75 24.0281 4.93704 24.0281C5.12408 24.0281 5.30346 23.9538 5.43571 23.8216C5.56797 23.6893 5.64227 23.5099 5.64227 23.3229V11.2871C6.81575 11.1128 7.88789 10.5237 8.66422 9.62658C9.44054 8.7295 9.86962 7.58388 9.87361 6.39753C9.87554 6.35798 9.87158 6.31837 9.86186 6.27999L8.92156 0.6382ZM19.7467 0.755737V23.3229C19.7467 23.5099 19.6724 23.6893 19.5402 23.8216C19.4079 23.9538 19.2286 24.0281 19.0415 24.0281C18.8545 24.0281 18.6751 23.9538 18.5429 23.8216C18.4106 23.6893 18.3363 23.5099 18.3363 23.3229V16.5057H12.4594C12.3598 16.5055 12.2613 16.4844 12.1702 16.4439C12.0791 16.4035 11.9975 16.3445 11.9305 16.2707C11.8033 16.1205 11.74 15.9263 11.7542 15.73C12.0432 13.388 12.5028 11.0703 13.1294 8.79529C14.5281 3.88223 16.4322 0.95555 18.7947 0.0975279C18.9012 0.0577405 19.0157 0.0442844 19.1285 0.0583061C19.2413 0.0723278 19.3491 0.113412 19.4426 0.178057C19.5361 0.242703 19.6126 0.328994 19.6655 0.429579C19.7185 0.530164 19.7464 0.642061 19.7467 0.755737ZM18.3363 1.94286C15.3156 4.22309 13.7406 11.4751 13.2587 15.0953H18.3363V1.94286Z" fill="#7683AA"/>
</svg>
