<svg width="27" height="49" viewBox="0 0 27 49" fill="none" xmlns="http://www.w3.org/2000/svg">
<path d="M26.0299 5.29828V47.6141H1.67174V1.27724L26.0299 5.29828Z" stroke="#7683AA" stroke-width="1.43284"/>
<mask id="path-2-inside-1_584_1783" fill="white">
<path d="M2.18359 11.4861L13.851 4.11719L25.5184 11.4861L13.851 18.8549L2.18359 11.4861Z"/>
</mask>
<path d="M2.18359 11.4861L1.72452 10.7592L0.573645 11.4861L1.72452 12.2129L2.18359 11.4861ZM13.851 4.11719L14.31 3.39032L13.851 3.10038L13.3919 3.39032L13.851 4.11719ZM25.5184 11.4861L25.9774 12.2129L27.1283 11.4861L25.9774 10.7592L25.5184 11.4861ZM13.851 18.8549L13.3919 19.5818L13.851 19.8717L14.31 19.5818L13.851 18.8549ZM2.64267 12.2129L14.31 4.84406L13.3919 3.39032L1.72452 10.7592L2.64267 12.2129ZM13.3919 4.84406L25.0593 12.2129L25.9774 10.7592L14.31 3.39032L13.3919 4.84406ZM25.0593 10.7592L13.3919 18.1281L14.31 19.5818L25.9774 12.2129L25.0593 10.7592ZM14.31 18.1281L2.64267 10.7592L1.72452 12.2129L13.3919 19.5818L14.31 18.1281Z" fill="#7683AA" mask="url(#path-2-inside-1_584_1783)"/>
<mask id="path-4-inside-2_584_1783" fill="white">
<path d="M2.18359 25.6098L13.851 18.855L25.5184 25.6098L13.851 32.3646L2.18359 25.6098Z"/>
</mask>
<path d="M2.18359 25.6098L1.75285 24.8658L0.467747 25.6098L1.75285 26.3538L2.18359 25.6098ZM13.851 18.855L14.2817 18.111L13.851 17.8616L13.4202 18.111L13.851 18.855ZM25.5184 25.6098L25.9491 26.3538L27.2342 25.6098L25.9491 24.8658L25.5184 25.6098ZM13.851 32.3646L13.4202 33.1086L13.851 33.358L14.2817 33.1086L13.851 32.3646ZM2.61434 26.3538L14.2817 19.599L13.4202 18.111L1.75285 24.8658L2.61434 26.3538ZM13.4202 19.599L25.0876 26.3538L25.9491 24.8658L14.2817 18.111L13.4202 19.599ZM25.0876 24.8658L13.4202 31.6206L14.2817 33.1086L25.9491 26.3538L25.0876 24.8658ZM14.2817 31.6206L2.61434 24.8658L1.75285 26.3538L13.4202 33.1086L14.2817 31.6206Z" fill="#7683AA" mask="url(#path-4-inside-2_584_1783)"/>
<mask id="path-6-inside-3_584_1783" fill="white">
<path d="M2.18359 39.7334L13.851 32.3645L25.5184 39.7334L13.851 47.1022L2.18359 39.7334Z"/>
</mask>
<path d="M2.18359 39.7334L1.72452 39.0065L0.573645 39.7334L1.72452 40.4602L2.18359 39.7334ZM13.851 32.3645L14.31 31.6376L13.851 31.3477L13.3919 31.6376L13.851 32.3645ZM25.5184 39.7334L25.9774 40.4602L27.1283 39.7334L25.9774 39.0065L25.5184 39.7334ZM13.851 47.1022L13.3919 47.8291L13.851 48.1191L14.31 47.8291L13.851 47.1022ZM2.64267 40.4602L14.31 33.0914L13.3919 31.6376L1.72452 39.0065L2.64267 40.4602ZM13.3919 33.0914L25.0593 40.4602L25.9774 39.0065L14.31 31.6376L13.3919 33.0914ZM25.0593 39.0065L13.3919 46.3754L14.31 47.8291L25.9774 40.4602L25.0593 39.0065ZM14.31 46.3754L2.64267 39.0065L1.72452 40.4602L13.3919 47.8291L14.31 46.3754Z" fill="#7683AA" mask="url(#path-6-inside-3_584_1783)"/>
</svg>
