<svg width="27" height="37" viewBox="0 0 27 37" fill="none" xmlns="http://www.w3.org/2000/svg">
<path d="M3.34253 36.3457H23.6577" stroke="#7683AA" stroke-width="1.25"/>
<circle cx="13.5001" cy="12.576" r="4.88974" stroke="#7683AA"/>
<path d="M25.4512 12.5761C25.4512 14.6807 24.7125 16.8782 23.5609 19.0169C22.4115 21.1516 20.8712 23.1899 19.3178 24.9651C17.766 26.7386 16.2123 28.237 15.0458 29.2924C14.463 29.8197 13.9779 30.2355 13.6394 30.5187C13.5898 30.5603 13.5433 30.5989 13.5001 30.6347C13.457 30.5989 13.4105 30.5603 13.3608 30.5187C13.0224 30.2355 12.5373 29.8197 11.9545 29.2924C10.7879 28.237 9.23425 26.7386 7.68247 24.9651C6.12909 23.1899 4.58878 21.1516 3.43938 19.0169C2.28777 16.8782 1.54907 14.6807 1.54907 12.5761C1.54907 5.97568 6.89975 0.625 13.5001 0.625C20.1084 0.625 25.4512 5.74274 25.4512 12.5761Z" stroke="#7683AA" stroke-width="1.25"/>
</svg>
