<svg viewBox="0 0 37.05 37.81" xmlns="http://www.w3.org/2000/svg"><defs><style>.cls-1{fill:#e77300;}.cls-2{fill:#919200;}.cls-3{fill:#cb122d;}.cls-4{fill:#0074c9;}</style></defs><g id="Layer_2"><g id="Header"><path d="M23.74,17.12V28H18q.3,4.88,5.71,5.51v4.35a13.94,13.94,0,0,1-7.88-2.66,11.35,11.35,0,0,1-4.79-9.81V17.12Z" class="cls-1"></path><path d="M37.05,9.81v6.71a9.26,9.26,0,0,1-3.91,8,11.44,11.44,0,0,1-6.43,2.17V23.15c2.94-.34,4.5-1.84,4.65-4.49H26.71V9.81Z" class="cls-2"></path><path d="M8.38,14.37v7.17H4.61c.12,2.15,1.38,3.37,3.77,3.64v2.88A9.16,9.16,0,0,1,3.17,26.3,7.51,7.51,0,0,1,0,19.81V14.37Z" class="cls-3"></path><path d="M21.82,0V7.68h-4c.14,2.31,1.48,3.61,4,3.9v3.09a9.85,9.85,0,0,1-5.58-1.89,8,8,0,0,1-3.4-6.95V0Z" class="cls-4"></path></g></g></svg>