<svg xmlns="http://www.w3.org/2000/svg" viewBox="0 0 36 26.62"><defs><style>.cls-1{fill:#50555b;}</style></defs><g id="Layer_2" data-name="Layer 2"><g id="Artwork"><path class="cls-1" d="M35.93,12.05Q29.09,6.32,22.75,0c.13.13,0,1.19,0,1.4s-.16,1.22,0,1.39q4.65,4.64,9.57,9c-4.74-.42-9.5-.86-14.26-1-6-.21-12,.74-18,1.09-.08,0,0,2.79,0,2.79,6-.35,12-1.3,18-1.09,4.62.16,9.24.59,13.85,1a39.62,39.62,0,0,0-9.57,9.33c-.16.22,0,1.12,0,1.39s0,.66,0,1c0,.08.05.35,0,.41A39.78,39.78,0,0,1,35.93,14.85a4.22,4.22,0,0,0,0-1.27A4.27,4.27,0,0,0,35.93,12.05Z"/></g></g></svg>