<svg xmlns="http://www.w3.org/2000/svg" viewBox="0 0 19.42 24.37"><defs><style>.cls-1{fill:#50555b;}</style></defs><g id="Layer_2" data-name="Layer 2"><g id="Artwork"><path class="cls-1" d="M8.7,2.49a112,112,0,0,0-8,13.61,133.5,133.5,0,0,0,13.09,5.75.69.69,0,0,0,.54,0,.71.71,0,0,0,.27-.36L19.76,9.9a1.22,1.22,0,0,0,.16-.76c-.08-.34-.41-.55-.71-.72A93.18,93.18,0,0,0,7,2.78" transform="translate(-0.56)"/><path class="cls-1" d="M8.7,0a114.19,114.19,0,0,0-8,13.62,2.53,2.53,0,0,0,0,.72c0,.59,0,1.18,0,1.76,0,.27-.2,2.37,0,2.49C3.45,20,6.29,21.29,9.16,22.5c1.47.62,2.94,1.25,4.43,1.77.8.28.91-.09,1.21-.77L15.91,21l2-4.41a36.4,36.4,0,0,0,2-4.48A7.63,7.63,0,0,0,20,10.06V7.89a6.3,6.3,0,0,0,0-1.15c-.13-.53-.59-.73-1-1C18.2,5.38,17.5,5,16.8,4.65A94.43,94.43,0,0,0,7,.29,20.93,20.93,0,0,1,7,2.78,11.31,11.31,0,0,0,7,5.26q3.49,1.32,6.87,2.91c1.1.52,2.19,1.06,3.26,1.62.72.37,2.77,1,2.8,2V6.91a23.19,23.19,0,0,1-1.43,3.33L17,13.59l-1.5,3.35c-.26.59-.51,1.18-.78,1.76s-.34.83-1,.67a26.26,26.26,0,0,1-3.24-1.28c-1.08-.43-2.15-.89-3.21-1.35-2.24-1-4.46-2-6.64-3.12v5A114.19,114.19,0,0,1,8.7,5a3.06,3.06,0,0,0,0-.73c0-.58,0-1.17,0-1.75s0-1.18,0-1.76c0-.14-.09-.63,0-.73Z" transform="translate(-0.56)"/></g></g></svg>