<svg xmlns="http://www.w3.org/2000/svg" viewBox="0 0 62.69 46.35"><defs><style>.cls-1{fill:#50555b;}</style></defs><g id="Layer_2" data-name="Layer 2"><g id="Artwork"><path class="cls-1" d="M13.93,2c1.83-.8,4.83.21,5.45,2.23S18.43,7.85,17.09,9c-1.75,1.81-3.75,3.17-5.58,4.82A28.47,28.47,0,0,0,8.4,16.49c-.85,1.21-2,1-2.6-.29-.79-1.45-1.44-3-2.26-4.33C2.32,9.79.93,7.91.26,5.63-.46,3.1.29,1,2.86.17,5.94-.75,8.12,2.22,9.7,4.28A33.07,33.07,0,0,1,13.93,2Zm30.8,39.95a22.24,22.24,0,0,1-3.3-5.75c-.59-2.13-1-4.56.53-6.32A3.7,3.7,0,0,1,46.27,29,7,7,0,0,1,50,32c.51.76,1.1,1.67,1.57,2.54,2.72-1.76,5.12-4.47,8.41-2.39,2.27,1.4,3.79,4.54,1.75,6.87a16.77,16.77,0,0,1-5.45,3.52c-1.53.64-3.07,1.29-4.72,1.9-.4.12-3.67,2.09-4,1.87C46.5,45,45.67,43.32,44.73,41.94Z"/></g></g></svg>