<svg xmlns="http://www.w3.org/2000/svg" viewBox="0 0 22.64 31.28"><defs><style>.cls-1{fill:#50555b;}</style></defs><g id="Layer_2" data-name="Layer 2"><g id="Artwork"><path class="cls-1" d="M2.61,3A1.41,1.41,0,0,1,3.4,4.52c0,2.82,0,5.52-.14,8.22,0,1.3,0,2.7-.12,4.12-.09.59-.31.72-.9.75a2.55,2.55,0,0,1-1.42-.27A2.49,2.49,0,0,1,0,15.39Q0,11.34.27,7.28A11.94,11.94,0,0,1,.74,3.14L1,2.9A1.43,1.43,0,0,1,2.61,3Zm18.06-.29-2,2.11c-1.23,1.24-2.45,2.48-3.55,3.83-2.09,2.58-3.93,5.38-5.9,8.07-.44.49-.75,1.21-1.46,1.14a2,2,0,0,1-1.43-.51c-.5-.44-.07-1.17.26-1.66a17.55,17.55,0,0,1,3-4.63L18.57.75A2.05,2.05,0,0,1,21.49.48a.63.63,0,0,1,.38.56C21.9,1.63,21.11,2.26,20.67,2.75ZM12,28.58c1.08.41,2.15.7,3.22,1,2,.6,4.17,1.07,6.2,1.66.95.3,1.71-.8.74-1.33a8.52,8.52,0,0,0-3-1.25c-2.15-.7-4.4-1-6.32-1.88-.72-.31-3.34-.87-3.38.42C9.63,28.12,11.4,28.38,12,28.58Zm-1.2-9c1.37-.67,2.86-1.33,4.24-1.88l5.17-2a1.61,1.61,0,0,1,2,.35C23.34,17,22,17.47,21,18l-2.63,1.2c-1.72.8-3.55,1.72-5.38,2.52a1.85,1.85,0,0,1-1.75.22,1.58,1.58,0,0,1-1-1.71A.94.94,0,0,1,10.8,19.61Z"/></g></g></svg>