<svg xmlns="http://www.w3.org/2000/svg" viewBox="0 0 22.64 31.28"><defs><style>.cls-1{fill:#50555b;}</style></defs><g id="Layer_2" data-name="Layer 2"><g id="Artwork"><path class="cls-1" d="M12.39,20.22a1.58,1.58,0,0,1-1,1.71,1.85,1.85,0,0,1-1.75-.22C7.77,20.91,6,20,4.23,19.19L1.6,18C.69,17.47-.7,17,.41,16.05a1.62,1.62,0,0,1,2-.36l5.17,2c1.37.55,2.86,1.21,4.24,1.88A1,1,0,0,1,12.39,20.22Zm.79,7c0-1.29-2.66-.73-3.38-.42C7.87,27.6,5.63,28,3.48,28.65a8.57,8.57,0,0,0-3,1.25c-1,.53-.2,1.63.75,1.33,2-.59,4.17-1.06,6.19-1.66a33.18,33.18,0,0,0,3.23-1C11.24,28.38,13,28.12,13.18,27.19ZM.77,1A.63.63,0,0,1,1.15.48,2.05,2.05,0,0,1,4.07.75L13,11.1a17.8,17.8,0,0,1,3,4.63c.33.49.75,1.22.26,1.66a2,2,0,0,1-1.44.51c-.7.07-1-.65-1.46-1.14-2-2.69-3.81-5.49-5.89-8.07C6.41,7.34,5.18,6.1,4,4.86L2,2.75C1.52,2.26.74,1.63.77,1Zm20.9,1.85.23.25a11.94,11.94,0,0,1,.47,4.14c.21,2.71.29,5.41.26,8.11a2.49,2.49,0,0,1-.81,1.95,2.57,2.57,0,0,1-1.42.27c-.59,0-.82-.16-.9-.75-.16-1.42-.08-2.82-.13-4.12-.08-2.7-.17-5.4-.13-8.22A1.4,1.4,0,0,1,20,3,1.45,1.45,0,0,1,21.67,2.89Z"/></g></g></svg>