<svg xmlns="http://www.w3.org/2000/svg" viewBox="0 0 16.08 15.3"><defs><style>.cls-1{fill:#50555b;}</style></defs><g id="Layer_2" data-name="Layer 2"><g id="Artwork"><path class="cls-1" d="M13.64,13.75C12.93,13.51,9.71,12.59,9,12c0,0-1.36,3.76-2.41,3.27s-.68-3.5-.86-4.31c-1-.26-5.43-1.85-5.64-2.4S.63,7.34,1.14,7s4-1,4-1.25A22.46,22.46,0,0,1,5.48.53c.41-.9.69-.5,1.15.07.85.94,2.54,3.81,3.43,3.85,1.37,0,4.71-1.12,5.68.14,1.39,1.74-2.53,3-3.12,4,.08.22,2.5,2.7,3.22,4.3C16.76,14.72,14.81,14.19,13.64,13.75Z"/></g></g></svg>