<svg width="134" height="105" viewBox="0 0 134 105" fill="none" xmlns="http://www.w3.org/2000/svg">
<g clip-path="url(#clip0_4_12)">
<path d="M2.68638 104.905C2.63637 104.856 2.5954 94.8665 2.5954 82.7077V60.6009L6.59081 60.6014L10.5862 60.602L16.8691 72.8577L23.152 85.1135H23.8013H24.4507V72.8572V60.6008H28.1391H31.8276L31.7931 82.7644L31.7586 104.928L27.9864 104.964L24.2143 105L17.7418 92.2309L11.2693 79.4618H10.6546H10.0399L10.0109 90.0159L9.98184 100.57L7.68813 102.781L5.39443 104.992L4.08537 104.994C3.3654 104.995 2.73538 104.955 2.6853 104.905L2.68638 104.905ZM56.9147 104.905C56.8647 104.856 56.8237 94.8665 56.8237 82.7077V60.6009H68.7758H80.7279V64.414V68.2271H72.7371H64.7462V73.5381V78.8492H71.1002H77.4542L77.4177 82.424L77.3812 85.9988L71.0637 86.0342L64.7461 86.0696V91.5836V97.0976H72.737H80.7278V98.6521V100.207L78.2349 102.6L75.7421 104.993L66.3739 104.995C61.2214 104.996 56.9648 104.955 56.9147 104.905L56.9147 104.905ZM115.15 86.5435V68.0909H109.823H104.495V64.3459V60.6009H119.248H134V64.3459V68.0909H128.673H123.346V84.081V100.071L120.785 102.534L118.225 104.996H116.687H115.15V86.5435ZM10.6544 25.9426V7.48999H5.32722H0V3.74501V0H14.684H29.368V3.74501V7.48999H24.1091H18.8501V23.8206V40.1511L16.6328 42.2732L14.4154 44.3953H12.535H10.6544V25.9426ZM52.999 22.1976V0H57.0968H61.1947V8.64756V17.2951H66.6585H72.1223V8.64756V0H76.2889H80.4555L80.4209 22.1636L80.3864 44.3272L76.2544 44.3632L72.1224 44.3992V34.7964V25.1936H66.6586H61.1948V32.7973V40.4009L59.0898 42.3981L56.9848 44.3953H54.9919H52.999L52.999 22.1976ZM107.091 22.1976V0H119.043H130.995V3.81309V7.6262H122.936H114.877V12.8692V18.1122H121.228H127.58V21.7196V25.3271L121.262 25.3625L114.945 25.3979L114.909 30.8781L114.873 36.3583L122.9 36.3934L130.926 36.4284L130.965 37.8039L131.004 39.1794L128.284 41.7872L125.564 44.3951H116.327H107.09L107.091 22.1976Z" fill="white"/>
</g>
<defs>
<clipPath id="clip0_4_12">
<rect width="134" height="105" fill="white"/>
</clipPath>
</defs>
</svg>
