<svg xmlns="http://www.w3.org/2000/svg" viewBox="0 0 30 33.84"><defs><style>.cls-1{fill:#fff;}</style></defs><g id="Layer_2" data-name="Layer 2"><g id="FPO_Events_Pop_up" data-name="FPO Events Pop up"><path class="cls-1" d="M30.09,0l-26,25.24L.35,28.84c-.27.26,0,2.11,0,2.5,0,.59,0,1.18,0,1.76a3.13,3.13,0,0,1,0,.74l26-25.24L30.09,5c.27-.26,0-2.11,0-2.5,0-.59,0-1.18,0-1.77a3,3,0,0,1,0-.73Z" transform="translate(-0.22)"/><path class="cls-1" d="M.35,5l26,25.24,3.71,3.6c-.23-.22,0-2.14,0-2.5,0-.59,0-1.18,0-1.77,0-.13.06-.65,0-.73L4.06,3.6.35,0c.23.22,0,2.14,0,2.5,0,.59,0,1.18,0,1.77,0,.13-.06.65,0,.73Z" transform="translate(-0.22)"/></g></g></svg>