<svg xmlns="http://www.w3.org/2000/svg" viewBox="0 0 22 22"><defs><style>.cls-1{fill:#50555b;}.cls-2{fill:#e5e6e7;}</style></defs><g id="Layer_2" data-name="Layer 2"><g id="Footer"><path class="cls-1" d="M22,11A11,11,0,1,0,9.28,21.87V14.18H6.49V11H9.28V8.58c0-2.76,1.64-4.28,4.16-4.28a17.31,17.31,0,0,1,2.46.21V7.22H14.51a1.59,1.59,0,0,0-1.79,1.72V11h3l-.49,3.18H12.72v7.69A11,11,0,0,0,22,11Z"/><path class="cls-2" d="M15.28,14.18,15.77,11h-3V8.94a1.59,1.59,0,0,1,1.79-1.72H15.9V4.51a17.31,17.31,0,0,0-2.46-.21c-2.52,0-4.16,1.52-4.16,4.28V11H6.49v3.18H9.28v7.69A12.22,12.22,0,0,0,11,22a12.22,12.22,0,0,0,1.72-.13V14.18Z"/></g></g></svg>