<svg xmlns="http://www.w3.org/2000/svg" viewBox="0 0 22 22"><defs><style>.cls-1{fill:#50555b;}</style></defs><g id="Layer_2" data-name="Layer 2"><g id="Footer"><path class="cls-1" d="M11,0A11,11,0,0,0,7,21.25a10.83,10.83,0,0,1,0-3.16c.2-.86,1.29-5.47,1.29-5.47A4,4,0,0,1,8,11c0-1.53.89-2.67,2-2.67a1.37,1.37,0,0,1,1.39,1.54,22.13,22.13,0,0,1-.91,3.67,1.6,1.6,0,0,0,1.63,2c2,0,3.46-2.07,3.46-5A4.34,4.34,0,0,0,11,6a4.76,4.76,0,0,0-5,4.78,4.25,4.25,0,0,0,.82,2.51.31.31,0,0,1,.07.31c-.08.35-.27,1.1-.3,1.25s-.16.24-.37.15C4.83,14.36,4,12.35,4,10.74,4,7.27,6.5,4.08,11.24,4.08A6.45,6.45,0,0,1,18,10.43c0,3.79-2.39,6.84-5.7,6.84A2.93,2.93,0,0,1,9.8,16s-.56,2.1-.69,2.62a12.37,12.37,0,0,1-1.37,2.88A11,11,0,1,0,11,0Z"/></g></g></svg>