<svg xmlns="http://www.w3.org/2000/svg" viewBox="0 0 29.81 21"><defs><style>.cls-1{fill:#50555b;}.cls-2{fill:#e5e6e7;}</style></defs><g id="Layer_2" data-name="Layer 2"><g id="Footer"><path class="cls-1" d="M29.18,3.28A3.73,3.73,0,0,0,26.55.63C24.22,0,14.9,0,14.9,0S5.58,0,3.26.63A3.76,3.76,0,0,0,.62,3.28,39.46,39.46,0,0,0,0,10.5a39.46,39.46,0,0,0,.62,7.22,3.76,3.76,0,0,0,2.64,2.65C5.58,21,14.9,21,14.9,21s9.32,0,11.65-.63a3.73,3.73,0,0,0,2.63-2.65,38.85,38.85,0,0,0,.63-7.22A38.85,38.85,0,0,0,29.18,3.28Z"/><polygon class="cls-2" points="11.86 14.93 11.86 6.07 19.64 10.5 11.86 14.93"/></g></g></svg>